<?xml version="1.0" standalone="no"?>
<!DOCTYPE svg PUBLIC "-//W3C//DTD SVG 20010904//EN"
 "http://www.w3.org/TR/2001/REC-SVG-20010904/DTD/svg10.dtd">
<svg version="1.0" xmlns="http://www.w3.org/2000/svg"
 width="900.000000pt" height="940.000000pt" viewBox="0 0 900.000000 940.000000"
 preserveAspectRatio="xMidYMid meet">

<g transform="translate(0.000000,940.000000) scale(0.100000,-0.100000)"
fill="#000000" stroke="none">
<path d="M1815 8600 c-190 -39 -328 -96 -485 -201 -110 -73 -257 -216 -329
-319 -230 -328 -298 -736 -186 -1125 49 -172 175 -391 293 -512 l40 -41 60
121 c281 568 750 1063 1313 1385 115 65 347 175 453 213 102 37 103 32 -14
142 -190 179 -436 302 -684 342 -127 21 -347 18 -461 -5z"/>
<path d="M6746 8490 c-175 -20 -377 -87 -527 -175 -76 -44 -208 -147 -262
-203 l-39 -39 31 -11 c19 -7 29 -16 26 -24 -4 -9 13 -20 47 -32 110 -38 307
-129 433 -197 262 -144 474 -301 692 -513 267 -259 466 -530 629 -855 30 -61
61 -111 68 -111 7 0 18 -12 25 -26 10 -23 14 -24 28 -13 66 54 204 289 257
437 87 245 91 558 10 817 -106 338 -400 672 -725 824 -214 101 -472 145 -693
121z"/>
<path d="M4340 7844 c-770 -42 -1452 -305 -2015 -779 -341 -287 -615 -626
-816 -1010 -254 -484 -379 -992 -381 -1540 -1 -470 82 -887 264 -1319 151
-363 387 -721 659 -1004 l80 -82 -421 -423 -421 -422 4 -45 c10 -120 125 -260
270 -329 45 -22 100 -43 123 -47 l41 -6 437 433 c240 239 439 436 441 437 2 2
41 -21 87 -51 911 -595 2049 -708 3063 -305 186 74 467 223 623 330 l44 30
444 -442 444 -443 76 6 c181 14 290 126 310 320 l7 67 -424 425 -423 425 75
78 c267 273 487 604 652 977 109 247 198 561 244 865 24 157 26 204 27 460 0
296 -9 394 -55 640 -68 360 -207 730 -392 1045 -334 571 -829 1041 -1408 1339
-384 197 -797 319 -1209 355 -138 12 -360 20 -450 15z m390 -884 c575 -49
1123 -298 1520 -690 401 -397 648 -904 715 -1468 18 -149 20 -425 5 -567 -31
-289 -120 -596 -245 -844 -133 -265 -263 -445 -495 -684 -102 -106 -151 -147
-275 -231 -222 -152 -331 -214 -513 -291 -501 -215 -1093 -254 -1627 -109
-255 70 -522 194 -765 355 -309 206 -590 524 -768 872 -124 240 -209 502 -254
782 -31 190 -31 554 0 744 73 449 249 852 522 1196 82 104 292 313 400 398
287 228 600 382 960 472 263 65 548 88 820 65z"/>
<path d="M4353 6641 c-105 -39 -182 -118 -213 -219 -19 -62 -20 -93 -20 -1202
l0 -1139 23 -3 c14 -2 23 -11 25 -26 l3 -22 1157 2 1157 3 62 29 c73 33 143
103 175 173 32 69 31 208 0 277 -29 62 -143 180 -207 215 l-50 26 -805 5 -805
5 -5 800 -5 800 -27 56 c-34 69 -148 181 -215 211 -68 31 -182 35 -250 9z"/>
</g>
</svg>
