<svg width="66" height="63" viewBox="0 0 66 63" fill="none" xmlns="http://www.w3.org/2000/svg">
<g filter="url(#filter0_d_509_299)">
<path d="M53.2867 30.0114C53.9743 30.0114 54.5904 30.0131 55.2057 30.0114C55.5215 30.0105 55.8683 30.0476 55.9474 30.3859C56.0042 30.627 55.9535 30.9662 55.8149 31.1694C53.8263 34.0803 51.817 36.9765 49.8077 39.8728C49.4274 40.4212 48.9472 40.4204 48.5694 39.8762C46.561 36.98 44.5509 34.0837 42.5622 31.1728C42.4228 30.9688 42.3686 30.6287 42.4246 30.3859C42.5029 30.0476 42.8514 30.0105 43.1672 30.0114C43.7936 30.0131 44.4209 30.0114 45.0973 30.0114V29.4535C45.0973 24.9223 45.0973 20.3902 45.0973 15.859C45.0973 15.0652 45.2608 14.9016 46.0482 14.9008C48.1693 14.9008 50.2905 14.8999 52.4116 14.9008C53.0785 14.9008 53.2842 15.1065 53.2842 15.7712C53.285 20.3317 53.2842 24.8913 53.2842 29.4518V30.0105L53.2867 30.0114Z" fill="#4205F0"/>
<path d="M29.911 21.7245C29.911 21.4662 29.911 21.2802 29.911 21.0943C29.911 17.7236 29.911 14.3539 29.911 10.9832C29.911 10.1722 30.0848 10 30.8954 10C33.0028 10 35.1093 10 37.2167 10C37.9068 10 38.1133 10.204 38.1142 10.898C38.1159 14.297 38.1151 17.6961 38.1151 21.0951C38.1151 21.2811 38.1151 21.4671 38.1151 21.6935C38.2579 21.7047 38.381 21.7219 38.504 21.7219C39.0341 21.7254 39.5685 21.6883 40.0934 21.74C40.3326 21.7632 40.657 21.9044 40.7568 22.0913C40.8558 22.2764 40.7973 22.6337 40.6742 22.8325C40.2448 23.5265 39.7578 24.1842 39.2931 24.8558C37.7597 27.071 36.228 29.288 34.6937 31.5024C34.2316 32.1696 33.7927 32.1687 33.3298 31.4998C31.3635 28.6604 29.399 25.8192 27.4319 22.9806C27.2383 22.7017 27.0515 22.4245 27.2426 22.074C27.431 21.7297 27.764 21.7176 28.1031 21.7202C28.6874 21.7254 29.2716 21.7219 29.9093 21.7219L29.911 21.7245Z" fill="#4205F0"/>
<path d="M34.0034 34.8524C29.0822 34.8585 25.0834 38.8567 25.0825 43.7719C25.0817 48.6957 29.1114 52.7112 34.0438 52.7018C38.9436 52.6923 42.9604 48.6535 42.9441 43.753C42.9269 38.8309 38.9246 34.8464 34.0043 34.8516L34.0034 34.8524ZM35.1143 48.5253C34.9878 48.5485 34.8605 48.5649 34.6608 48.595C34.6608 49.0212 34.6703 49.4603 34.6582 49.8985C34.6462 50.3247 34.4225 50.5907 34.0757 50.6277C33.6971 50.6682 33.3873 50.3798 33.3709 49.9372C33.3537 49.4973 33.3675 49.0556 33.3675 48.5657C32.7798 48.5657 32.2385 48.5657 31.6981 48.5657C31.5544 48.5657 31.4107 48.5735 31.2687 48.5623C30.872 48.5304 30.6078 48.261 30.613 47.9037C30.6182 47.5421 30.8823 47.2795 31.2885 47.276C32.4063 47.2665 33.5241 47.2803 34.6419 47.2683C35.4189 47.2597 35.9877 46.7775 36.0979 46.0698C36.2313 45.2114 35.6212 44.4641 34.7538 44.4323C34.1385 44.409 33.5155 44.4555 32.9106 44.3686C31.5389 44.1731 30.5631 42.9781 30.6096 41.6359C30.6569 40.2575 31.6542 39.1675 33.0388 39.0143C33.3047 38.985 33.3787 38.8869 33.3692 38.6406C33.3554 38.2971 33.3554 37.9519 33.3718 37.6083C33.3924 37.1813 33.6248 36.9377 33.9931 36.9265C34.3812 36.9153 34.6393 37.1632 34.6574 37.6075C34.6755 38.0492 34.6617 38.4917 34.6617 38.9919C35.3613 38.9919 35.9748 38.9893 36.5892 38.9919C37.1322 38.9953 37.4239 39.2278 37.417 39.6419C37.4093 40.0483 37.1073 40.2825 36.5686 40.2842C35.5368 40.2876 34.5051 40.2808 33.4733 40.2868C32.5397 40.2919 31.9158 40.8585 31.9089 41.691C31.9029 42.5339 32.5491 43.1219 33.4931 43.1297C33.8941 43.1331 34.296 43.1245 34.697 43.1331C36.1934 43.1658 37.3043 44.2153 37.4145 45.6953C37.5151 47.0548 36.5307 48.2687 35.1178 48.5244L35.1143 48.5253Z" fill="#4205F0"/>
<path d="M13.742 33.619C13.742 33.3607 13.742 33.1748 13.742 32.9888C13.742 29.6182 13.742 26.2484 13.742 22.8777C13.742 22.0667 13.9159 21.8945 14.7265 21.8945C16.8339 21.8945 18.9404 21.8945 21.0478 21.8945C21.7379 21.8945 21.9444 22.0986 21.9453 22.7925C21.947 26.1916 21.9461 29.5906 21.9461 32.9897C21.9461 33.1756 21.9461 33.3616 21.9461 33.588C22.089 33.5992 22.212 33.6164 22.3351 33.6164C22.8651 33.6199 23.3995 33.5829 23.9244 33.6345C24.1637 33.6578 24.4881 33.799 24.5879 33.9858C24.6868 34.1709 24.6283 34.5282 24.5053 34.7271C24.0759 35.421 23.5888 36.0788 23.1242 36.7503C21.5907 38.9656 20.059 41.1825 18.5247 43.3969C18.0627 44.0641 17.6238 44.0633 17.1608 43.3943C15.1946 40.5549 13.23 37.7137 11.2629 34.8752C11.0693 34.5962 10.8826 34.319 11.0736 33.9686C11.2621 33.6242 11.5951 33.6121 11.9341 33.6147C12.5184 33.6199 13.1027 33.6164 13.7403 33.6164L13.742 33.619Z" fill="#4205F0"/>
</g>
<defs>
<filter id="filter0_d_509_299" x="0.993652" y="0" width="64.9766" height="62.7012" filterUnits="userSpaceOnUse" color-interpolation-filters="sRGB">
<feFlood flood-opacity="0" result="BackgroundImageFix"/>
<feColorMatrix in="SourceAlpha" type="matrix" values="0 0 0 0 0 0 0 0 0 0 0 0 0 0 0 0 0 0 127 0" result="hardAlpha"/>
<feOffset/>
<feGaussianBlur stdDeviation="5"/>
<feComposite in2="hardAlpha" operator="out"/>
<feColorMatrix type="matrix" values="0 0 0 0 0.25935 0 0 0 0 0.019618 0 0 0 0 0.941667 0 0 0 0.3 0"/>
<feBlend mode="normal" in2="BackgroundImageFix" result="effect1_dropShadow_509_299"/>
<feBlend mode="normal" in="SourceGraphic" in2="effect1_dropShadow_509_299" result="shape"/>
</filter>
</defs>
</svg>
