<svg width="65" height="65" viewBox="0 0 65 65" fill="none" xmlns="http://www.w3.org/2000/svg">
<g filter="url(#filter0_d_202_332)">
<path d="M10.2898 46.4892L14.6467 42.1323C14.9849 41.7941 15.5118 41.7524 15.8969 42.0061L15.8631 42.0399L22.7543 48.9311C22.9143 49.2954 22.8466 49.7377 22.5487 50.0356L18.1918 54.3925C17.8054 54.7789 17.1732 54.7789 16.7868 54.3925L10.2898 47.8956C9.9034 47.5092 9.9034 46.8769 10.2898 46.4905V46.4892Z" fill="#4205F0"/>
<path d="M27.8462 31.3174C26.6584 30.4496 25.5084 29.5285 24.3258 28.6543C24.3102 28.6426 24.2972 28.6335 24.2816 28.6218L35.5401 17.3633C38.8432 22.0649 42.802 26.1161 47.5609 29.3828C47.5778 29.3945 47.5934 29.405 47.6104 29.4167L36.3532 40.6739C35.4581 39.447 34.5474 38.2333 33.5938 37.0494C33.3206 36.7098 33.1528 36.7267 32.916 37.0403C32.825 37.16 32.704 37.2562 32.596 37.3629C29.2668 40.6921 25.9364 44.0212 22.6098 47.353L17.6246 42.3677C21.0396 38.9553 24.452 35.5403 27.8761 32.1357C28.2209 31.7922 28.2651 31.6218 27.8475 31.3161L27.8462 31.3174Z" fill="#4205F0"/>
<path d="M49.528 29.2488C50.1733 28.6322 50.7613 28.6217 51.3884 29.2397C52.4369 30.274 53.4816 31.3134 54.5185 32.3594C55.1559 33.0021 55.1637 33.5745 54.5224 34.2172C50.0679 38.6795 45.6095 43.1378 41.1472 47.591C40.5111 48.2259 39.936 48.2103 39.2908 47.5728C38.3814 46.6738 37.4824 45.7658 36.5796 44.8603C35.6038 43.882 35.4334 43.519 36.0501 42.7671C36.0501 42.7671 49.4616 29.3139 49.5267 29.2514L49.528 29.2488Z" fill="#4205F0"/>
<path d="M17.4112 23.8096C21.8514 19.3642 26.2942 14.9214 30.7422 10.4825C31.3952 9.83077 31.9911 9.84247 32.6533 10.4982C33.5002 11.336 34.7751 12.659 35.57 13.5476C36.0943 14.133 36.4846 14.5233 35.704 15.434C35.704 15.434 22.4485 28.7493 22.4186 28.7779C21.7356 29.4388 21.1814 29.4492 20.5153 28.7909C19.4824 27.771 18.4546 26.7458 17.4321 25.7168C16.7686 25.0494 16.7582 24.4665 17.4138 23.8096H17.4112Z" fill="#4205F0"/>
</g>
<defs>
<filter id="filter0_d_202_332" x="0" y="0" width="65" height="64.6821" filterUnits="userSpaceOnUse" color-interpolation-filters="sRGB">
<feFlood flood-opacity="0" result="BackgroundImageFix"/>
<feColorMatrix in="SourceAlpha" type="matrix" values="0 0 0 0 0 0 0 0 0 0 0 0 0 0 0 0 0 0 127 0" result="hardAlpha"/>
<feOffset/>
<feGaussianBlur stdDeviation="5"/>
<feComposite in2="hardAlpha" operator="out"/>
<feColorMatrix type="matrix" values="0 0 0 0 0.25935 0 0 0 0 0.019618 0 0 0 0 0.941667 0 0 0 0.3 0"/>
<feBlend mode="normal" in2="BackgroundImageFix" result="effect1_dropShadow_202_332"/>
<feBlend mode="normal" in="SourceGraphic" in2="effect1_dropShadow_202_332" result="shape"/>
</filter>
</defs>
</svg>
