<svg width="62" height="51" viewBox="0 0 62 51" fill="none" xmlns="http://www.w3.org/2000/svg">
<g filter="url(#filter0_d_59_544)">
<path d="M24.4789 32.435C25.0134 32.6606 25.1973 33.33 24.8603 33.8023C24.6212 34.1374 24.385 34.4607 24.1332 34.7704C24.0492 34.88 23.7135 34.9288 23.5456 34.88C21.1956 34.2465 19.0134 33.2962 17.041 32.017C16.8312 31.883 16.6913 31.5419 16.6633 31.2982C16.3696 28.0941 16.8452 24.9631 18.272 22.0027C18.9434 20.626 19.8107 19.3225 20.65 18.0067C20.8179 17.7387 21.1816 17.4707 21.5173 17.361C23.0561 16.8981 24.6228 16.5082 26.1755 16.0818C26.735 15.9234 27.0847 16.0818 27.2386 16.5569C27.4484 17.2026 27.9101 17.2757 28.6514 17.227C30.2741 17.1417 31.9108 17.2026 33.5334 17.2514C34.023 17.2635 34.2748 17.2026 34.4986 16.8006C34.9882 15.9112 34.7644 15.8747 35.9954 16.1549C37.4782 16.496 38.933 16.9346 40.3738 17.3732C40.6955 17.4707 41.0033 17.7265 41.1991 17.9823C44.1647 21.8809 45.5075 26.1692 45.2558 30.8475C45.2138 31.5663 44.934 32.0292 44.2346 32.4191C42.3881 33.4303 40.4717 34.2952 38.4014 34.8922C37.9957 35.014 37.7579 34.9531 37.5481 34.6364C37.4108 34.4283 37.2699 34.2218 37.1252 34.0145C36.7246 33.4406 36.9398 32.6426 37.582 32.3641C37.599 32.3567 37.6161 32.3493 37.6331 32.3419C38.1861 32.102 38.28 31.3778 37.716 31.5906C33.1977 33.2841 28.6654 33.2597 24.1332 31.615C23.6341 31.4339 23.7154 32.1167 24.2056 32.3205C24.2961 32.3581 24.3871 32.3963 24.4789 32.435ZM28.7354 26.4129C28.7354 25.0241 27.6163 23.9398 26.1755 23.9398C24.7207 23.9398 23.5736 25.0484 23.5876 26.4616C23.6016 27.8261 24.7626 28.9469 26.1615 28.9469C27.6023 28.9591 28.7354 27.8261 28.7354 26.4129ZM38.2615 26.4373C38.2755 25.0484 37.1564 23.952 35.7296 23.9398C34.2608 23.9276 33.1278 25.0119 33.1138 26.4373C33.1138 27.8139 34.2468 28.9348 35.6457 28.9591C37.1005 28.9713 38.2615 27.8505 38.2615 26.4373Z" fill="#4205F0"/>
</g>
<defs>
<filter id="filter0_d_59_544" x="0.580425" y="0" width="60.7051" height="50.9507" filterUnits="userSpaceOnUse" color-interpolation-filters="sRGB">
<feFlood flood-opacity="0" result="BackgroundImageFix"/>
<feColorMatrix in="SourceAlpha" type="matrix" values="0 0 0 0 0 0 0 0 0 0 0 0 0 0 0 0 0 0 127 0" result="hardAlpha"/>
<feMorphology radius="6" operator="dilate" in="SourceAlpha" result="effect1_dropShadow_59_544"/>
<feOffset/>
<feGaussianBlur stdDeviation="5"/>
<feComposite in2="hardAlpha" operator="out"/>
<feColorMatrix type="matrix" values="0 0 0 0 0.141319 0 0 0 0 0.172333 0 0 0 0 0.916667 0 0 0 0.25 0"/>
<feBlend mode="normal" in2="BackgroundImageFix" result="effect1_dropShadow_59_544"/>
<feBlend mode="normal" in="SourceGraphic" in2="effect1_dropShadow_59_544" result="shape"/>
</filter>
</defs>
</svg>
