<svg width="65" height="61" viewBox="0 0 65 61" fill="none" xmlns="http://www.w3.org/2000/svg">
<g filter="url(#filter0_d_509_393)">
<path d="M12.0552 19.2929V19.9829C12.0552 28.107 12.0552 36.2302 12.0552 44.3526C12.0552 46.0945 12.7762 46.8108 14.5172 46.8121C16.6713 46.8121 18.8241 46.7971 20.977 46.8296C21.3274 46.8296 21.788 46.9549 21.9908 47.2053C22.1936 47.4558 22.2236 47.9279 22.1422 48.2572C22.0321 48.7018 21.6015 48.8609 21.1409 48.8609H16.983C16.0342 48.8609 15.0855 48.8696 14.1367 48.8609C11.8362 48.8308 10.0939 47.1252 10.0076 44.8172C10.0001 44.6356 10.0076 44.4528 10.0076 44.2699C10.0076 34.3351 10.0051 24.4044 10.0001 14.4779C9.99379 12.791 10.5608 11.411 12.059 10.5945C12.7311 10.2347 13.4797 10.0414 14.2419 10.031C26.4112 9.99673 38.5809 9.99088 50.751 10.0134C53.2481 10.0134 54.9678 11.7666 54.9691 14.2812C54.9791 24.3764 54.9791 34.4716 54.9691 44.5667C54.9691 47.1264 53.2168 48.8533 50.6559 48.8571C48.4117 48.8571 46.1675 48.8571 43.9233 48.8571C43.4489 48.8571 43.0472 48.7319 42.8244 48.2886C42.7513 48.1508 42.7119 47.9977 42.7093 47.8417C42.7066 47.6858 42.7409 47.5315 42.8092 47.3913C42.8776 47.2511 42.9781 47.1291 43.1025 47.0352C43.2269 46.9413 43.3718 46.8781 43.5253 46.8509C43.7783 46.817 44.0339 46.8069 44.2888 46.8209C46.4053 46.8209 48.5219 46.8209 50.6384 46.8209C52.1278 46.8209 52.9151 46.0469 52.9164 44.5667C52.9226 37.3197 52.9164 30.0727 52.9301 22.8257C52.9301 22.3097 52.7061 22.2847 52.3043 22.2859C47.2139 22.2947 42.1235 22.2859 37.0343 22.2984C36.5245 22.319 36.0241 22.1564 35.6237 21.8401C34.6311 21.0662 33.6135 20.3248 32.5847 19.5985C32.3412 19.418 32.051 19.3115 31.7486 19.2917C25.3444 19.2741 18.9401 19.27 12.5359 19.2792C12.4107 19.2704 12.2843 19.2804 12.0552 19.2929ZM12.1016 17.2054H12.7474C19.2034 17.2054 25.6606 17.1978 32.1166 17.2229C32.564 17.2388 32.9978 17.3807 33.3682 17.6324C34.4246 18.3462 35.4209 19.1514 36.4685 19.879C36.7604 20.0814 37.1038 20.1965 37.4586 20.2109C42.4013 20.2309 47.3466 20.2184 52.2868 20.2347C52.7699 20.2347 52.9489 20.132 52.9389 19.6085C52.8988 17.9116 52.9251 16.2135 52.9251 14.5117C52.9251 12.7685 52.2029 12.0472 50.4682 12.0472H14.5147C14.332 12.0472 14.1492 12.0396 13.9678 12.0472C13.014 12.1223 12.1842 12.7797 12.1216 13.6964C12.0402 14.8348 12.1016 15.9844 12.1016 17.2054Z" fill="#4205F0"/>
<path d="M54.97 14.2774C54.9675 11.7681 53.2492 10.0126 50.7525 10.0101C38.5842 9.99504 26.4159 9.99379 14.2476 10.0276C13.5142 10.0301 12.7082 10.2405 12.065 10.5911C10.5669 11.4075 9.99751 12.7873 10 14.479C10.0163 24.4085 10.0075 34.338 10.0075 44.2676C10.0075 44.4504 10.0063 44.6332 10.0125 44.8148C10.1001 47.1162 11.8422 48.8216 14.1412 48.8479C15.0898 48.8592 16.0385 48.8504 16.9871 48.8504C18.3738 48.8504 19.7604 48.8504 21.1471 48.8504C21.6051 48.8504 22.0356 48.6914 22.1458 48.2469C22.2271 47.9176 22.1921 47.433 21.9943 47.1964C21.7916 46.9534 21.3311 46.8282 20.9806 46.8232C18.8281 46.7907 16.6755 46.8082 14.5229 46.8069C12.7808 46.8069 12.0612 46.0882 12.0612 44.3477C12.0612 36.225 12.0612 28.1024 12.0612 19.9797V19.291C12.2915 19.2785 12.4179 19.2647 12.543 19.2647C18.947 19.2647 25.3496 19.2597 31.7535 19.2772C32.0351 19.2772 32.353 19.4175 32.5895 19.584C33.617 20.3102 34.6357 21.0515 35.6269 21.8266C36.0574 22.1634 36.5017 22.2861 37.0386 22.2849C42.1284 22.2724 47.2182 22.2811 52.3081 22.2724C52.7073 22.2724 52.9338 22.2961 52.9326 22.812C52.915 30.0582 52.9238 37.3044 52.9176 44.5518C52.9176 46.0344 52.1291 46.8044 50.6398 46.8082C48.5236 46.8144 46.4073 46.8082 44.291 46.8119C44.0369 46.8119 43.7766 46.8044 43.5276 46.852C42.8618 46.9785 42.5164 47.6897 42.8267 48.2907C43.0545 48.7315 43.4512 48.8605 43.9256 48.8592C46.1695 48.8529 48.4134 48.8592 50.6573 48.8554C53.2129 48.8504 54.9675 47.1237 54.97 44.5643C54.9788 34.4708 54.9788 24.376 54.97 14.2824V14.2774ZM38.6492 17.1448C38.0623 17.1611 37.6005 16.7066 37.6068 16.1218C37.613 15.5721 38.0723 15.1176 38.6205 15.1176C39.1699 15.1176 39.6292 15.5709 39.6354 16.1218C39.6417 16.6865 39.2137 17.131 38.648 17.1461L38.6492 17.1448ZM43.7228 17.1448C43.1321 17.1398 42.6978 16.679 42.7241 16.0855C42.7491 15.532 43.2185 15.0963 43.7666 15.1176C44.3085 15.1389 44.7616 15.6172 44.7478 16.1569C44.734 16.7078 44.2747 17.1498 43.7216 17.1448H43.7228ZM48.8239 17.1436C48.2682 17.136 47.8215 16.6853 47.8215 16.1331C47.8215 15.5921 48.2845 15.1238 48.8264 15.1176C49.3821 15.1113 49.8339 15.5496 49.8464 16.1093C49.8601 16.7028 49.4159 17.1523 48.8239 17.1448V17.1436Z" fill="#4205F0"/>
<path d="M43.7291 31.4691C43.7291 30.5149 43.5777 30.3346 42.6703 30.004C40.8519 29.3417 39.5704 28.1321 38.9384 26.2751C38.6893 25.5426 38.429 25.3423 37.6568 25.3398C35.9423 25.3335 34.2277 25.3373 32.5132 25.3373C30.7987 25.3373 29.0841 25.3335 27.3696 25.3385C26.5536 25.341 26.3008 25.5289 26.0405 26.2839C25.4035 28.1358 24.1244 29.3492 22.3022 30.0065C21.3999 30.3321 21.2535 30.5137 21.2522 31.4778C21.251 33.9784 21.3061 36.4802 21.236 38.9782C21.1721 41.2346 21.9719 43.1153 23.4424 44.7506C25.8277 47.4014 28.805 49.2258 31.9876 50.7371C32.2954 50.8836 32.8061 50.841 33.1252 50.6858C36.0099 49.2821 38.7131 47.5942 40.9783 45.2915C42.6391 43.6049 43.7817 41.6766 43.7404 39.1873C43.6966 36.6154 43.7316 34.041 43.7304 31.4678L43.7291 31.4691ZM37.8346 35.6525C36.8534 36.8533 35.8572 38.0403 34.8648 39.2324C34.2227 40.0037 33.582 40.775 32.9375 41.5426C32.3155 42.2826 31.7761 42.3214 31.099 41.6515C29.815 40.3818 28.541 39.1034 27.2694 37.8212C26.7839 37.3316 26.7451 36.7381 27.1455 36.3161C27.5598 35.8804 28.2106 35.8854 28.7011 36.3675C29.6898 37.3379 30.6622 38.3271 31.6434 39.3062C31.7198 39.3826 31.8074 39.4465 31.9325 39.5517C33.2553 37.9639 34.5394 36.4238 35.8234 34.8849C35.9748 34.7034 36.12 34.5143 36.2815 34.3415C36.702 33.8882 37.3139 33.8281 37.747 34.1887C38.185 34.5543 38.2388 35.1591 37.8346 35.6537V35.6525Z" fill="#4205F0"/>
</g>
<defs>
<filter id="filter0_d_509_393" x="0" y="0" width="64.9766" height="60.8281" filterUnits="userSpaceOnUse" color-interpolation-filters="sRGB">
<feFlood flood-opacity="0" result="BackgroundImageFix"/>
<feColorMatrix in="SourceAlpha" type="matrix" values="0 0 0 0 0 0 0 0 0 0 0 0 0 0 0 0 0 0 127 0" result="hardAlpha"/>
<feOffset/>
<feGaussianBlur stdDeviation="5"/>
<feComposite in2="hardAlpha" operator="out"/>
<feColorMatrix type="matrix" values="0 0 0 0 0.25935 0 0 0 0 0.019618 0 0 0 0 0.941667 0 0 0 0.3 0"/>
<feBlend mode="normal" in2="BackgroundImageFix" result="effect1_dropShadow_509_393"/>
<feBlend mode="normal" in="SourceGraphic" in2="effect1_dropShadow_509_393" result="shape"/>
</filter>
</defs>
</svg>
