<svg height="480pt" viewBox="-144 0 480 480.00001" width="480pt" xmlns="http://www.w3.org/2000/svg"><path d="m192 8c0-4.417969-3.582031-8-8-8h-176c-4.417969 0-8 3.582031-8 8v32c.0234375.152344.0546875.304688.0976562.457031 0 .144531-.0664062.277344-.0507812.421875l30.402344 273.769532c1.347656 12.160156 11.632812 21.359374 23.871093 21.351562h2.519532l13.601562 122.648438c1.347656 12.164062 11.636719 21.363281 23.878906 21.351562h3.359376c12.226562-.003906 22.5-9.199219 23.847656-21.351562l13.671875-122.648438h2.519531c12.230469-.003906 22.5-9.199219 23.847656-21.351562l30.402344-273.769532c0-.144531-.058594-.277344-.046875-.421875.03125-.152343.058594-.304687.078125-.457031zm-176 8h160v16h-160zm89.601562 440.878906c-.449218 4.054688-3.875 7.121094-7.953124 7.121094h-3.359376c-4.078124 0-7.503906-3.066406-7.953124-7.121094l-13.398438-120.878906h46.125zm40-144c-.449218 4.054688-3.875 7.121094-7.953124 7.121094h-83.328126c-4.078124 0-7.503906-3.066406-7.953124-7.121094l-29.429688-264.878906h158.125zm0 0"/></svg>