<svg id="Capa_1" enable-background="new 0 0 512 512" height="512" viewBox="0 0 512 512" width="512" xmlns="http://www.w3.org/2000/svg"><g><path d="m437.019 74.981c-48.353-48.352-112.64-74.981-181.019-74.981s-132.666 26.629-181.019 74.981c-48.352 48.353-74.981 112.64-74.981 181.019s26.629 132.666 74.981 181.019c48.353 48.352 112.64 74.981 181.019 74.981 40.093 0 78.478-9.006 114.088-26.769 3.707-1.849 5.213-6.353 3.364-10.059-1.85-3.707-6.352-5.211-10.06-3.364-33.511 16.716-69.644 25.192-107.392 25.192-64.372 0-124.892-25.069-170.412-70.588s-70.588-106.04-70.588-170.412 25.069-124.892 70.588-170.412 106.04-70.588 170.412-70.588 124.893 25.069 170.412 70.588 70.588 106.04 70.588 170.412c0 81.252-40.542 156.505-108.45 201.299-3.457 2.281-4.411 6.933-2.131 10.391 2.282 3.458 6.934 4.411 10.391 2.131 72.128-47.579 115.19-127.512 115.19-213.821 0-68.379-26.629-132.666-74.981-181.019z"/><path d="m481.147 256c0-60.139-23.42-116.679-65.944-159.204s-99.064-65.944-159.203-65.944-116.679 23.419-159.204 65.944-65.944 99.065-65.944 159.204 23.419 116.679 65.944 159.204 99.065 65.944 159.204 65.944 116.679-23.419 159.203-65.944 65.944-99.065 65.944-159.204zm-312.4 148.597c-16.913 16.913-44.432 16.912-61.344 0-16.912-16.913-16.912-44.431 0-61.344 8.458-8.457 19.563-12.684 30.672-12.684 11.106 0 22.217 4.229 30.672 12.684 16.912 16.913 16.912 44.432 0 61.344zm-21.143-148.597c0-59.77 48.626-108.396 108.396-108.396s108.396 48.626 108.396 108.396-48.626 108.396-108.396 108.396-108.396-48.626-108.396-108.396zm256.993-87.253c-16.911 16.911-44.43 16.913-61.343 0-16.912-16.913-16.912-44.431 0-61.344 8.457-8.457 19.563-12.684 30.672-12.684 11.105 0 22.216 4.229 30.671 12.684 16.912 16.912 16.912 44.431 0 61.344zm-61.343 174.506c16.911-16.911 44.43-16.913 61.343 0 16.912 16.913 16.912 44.431 0 61.344-16.913 16.913-44.432 16.911-61.343 0-16.912-16.912-16.912-44.431 0-61.344zm71.95-10.606c-14.038-14.039-33.504-19.405-51.704-16.126 4.812-8.514 8.644-17.651 11.337-27.261 10.554 15.164 28.099 25.116 47.934 25.116 14.906 0 28.515-5.628 38.842-14.855-5.43 25.686-15.569 49.654-29.464 70.96-.806-13.78-6.44-27.329-16.945-37.834zm7.567-33.271c-23.918 0-43.376-19.458-43.376-43.376s19.458-43.376 43.376-43.376 43.376 19.458 43.376 43.376-19.458 43.376-43.376 43.376zm0-101.752c-19.835 0-37.38 9.952-47.934 25.116-2.693-9.609-6.525-18.747-11.337-27.26 3.445.621 6.934.944 10.425.944 14.948 0 29.897-5.69 41.278-17.071 10.5-10.5 16.148-24.04 16.96-37.813 13.881 21.292 24.002 45.244 29.433 70.909-10.324-9.215-23.93-14.825-38.825-14.825zm-90.125-100.828c-14.037 14.038-19.404 33.503-16.126 51.704-8.514-4.813-17.651-8.644-27.26-11.337 15.164-10.554 25.116-28.099 25.116-47.934 0-14.897-5.61-28.508-14.827-38.833 25.664 5.43 49.612 15.557 70.904 29.437-13.771.813-27.307 6.465-37.807 16.963zm-33.27-7.567c0 23.917-19.458 43.376-43.376 43.376-23.917 0-43.376-19.458-43.376-43.376s19.458-43.376 43.376-43.376c23.918-.001 43.376 19.458 43.376 43.376zm-76.636 47.934c-9.596 2.689-18.72 6.514-27.223 11.316.609-3.401.936-6.876.936-10.404 0-15.592-6.072-30.252-17.099-41.278-10.198-10.197-23.503-16.147-37.778-16.985 21.286-13.872 45.23-23.989 70.885-29.415-9.219 10.326-14.837 23.933-14.837 38.832 0 19.834 9.952 37.379 25.116 47.934zm-136.198 28.375c1.949 3.656 6.493 5.038 10.146 3.091 3.655-1.948 5.039-6.491 3.091-10.146-9.037-16.955-5.973-37.481 7.625-51.079 8.193-8.193 19.086-12.706 30.672-12.706s22.478 4.513 30.671 12.706 12.706 19.086 12.706 30.672-4.512 22.478-12.706 30.671c-13.6 13.601-34.122 16.661-51.065 7.617-3.655-1.952-8.198-.57-10.148 3.084-1.951 3.654-.57 8.198 3.084 10.148 8.741 4.666 18.186 6.939 27.544 6.939 3.449 0 6.885-.324 10.27-.937-4.781 8.48-8.59 17.577-11.27 27.141-10.554-15.164-28.099-25.116-47.934-25.116-14.897 0-28.505 5.612-38.83 14.829 5.418-25.61 15.512-49.514 29.347-70.772.519 8.138 2.749 16.264 6.797 23.858zm2.687 47.086c23.917 0 43.376 19.458 43.376 43.376s-19.458 43.376-43.376 43.376-43.376-19.458-43.376-43.376 19.458-43.376 43.376-43.376zm0 101.752c19.835 0 37.38-9.952 47.934-25.116 2.693 9.609 6.525 18.747 11.337 27.26-18.199-3.278-37.665 2.089-51.703 16.126-10.498 10.498-16.146 24.033-16.96 37.804-13.884-21.297-24.01-45.253-29.439-70.925 10.326 9.223 23.928 14.851 38.831 14.851zm90.124 100.828c14.038-14.038 19.405-33.503 16.127-51.703 8.514 4.812 17.651 8.644 27.26 11.337-15.164 10.554-25.116 28.099-25.116 47.934 0 14.893 5.606 28.501 14.819 38.825-25.662-5.431-49.608-15.557-70.898-29.437 13.771-.813 27.309-6.457 37.808-16.956zm33.271 7.567c0-23.917 19.458-43.376 43.376-43.376s43.376 19.458 43.376 43.376-19.458 43.376-43.376 43.376c-23.917.001-43.376-19.458-43.376-43.376zm76.636-47.934c9.609-2.693 18.746-6.525 27.26-11.337-3.278 18.2 2.089 37.666 16.126 51.704 10.502 10.501 24.044 16.146 37.818 16.957-21.295 13.885-45.25 24.014-70.92 29.445 9.218-10.326 14.831-23.936 14.831-38.834.001-19.835-9.951-37.38-25.115-47.935z"/><path d="m346.785 256c0-50.06-40.726-90.786-90.785-90.786s-90.786 40.726-90.786 90.786 40.726 90.786 90.786 90.786 90.785-40.726 90.785-90.786zm-166.571 0c0-41.789 33.997-75.786 75.786-75.786 41.788 0 75.785 33.997 75.785 75.786s-33.997 75.786-75.785 75.786c-41.789 0-75.786-33.997-75.786-75.786z"/></g></svg>