<svg id="Capa_1" enable-background="new 0 0 512 512" height="512" viewBox="0 0 512 512" width="512" xmlns="http://www.w3.org/2000/svg"><g><path d="m70 96c-5.522 0-10 4.478-10 10v30c0 5.522 4.478 10 10 10s10-4.478 10-10v-30c0-5.522-4.478-10-10-10z"/><path d="m70 186c-5.522 0-10 4.478-10 10v30c0 5.522 4.478 10 10 10s10-4.478 10-10v-30c0-5.522-4.478-10-10-10z"/><path d="m70 276c-5.522 0-10 4.478-10 10v30c0 5.522 4.478 10 10 10s10-4.478 10-10v-30c0-5.522-4.478-10-10-10z"/><path d="m70 366c-5.522 0-10 4.478-10 10v30c0 5.522 4.478 10 10 10s10-4.478 10-10v-30c0-5.522-4.478-10-10-10z"/><path d="m502 0h-120c-5.522 0-10 4.478-10 10v26h-232v-26c0-5.522-4.478-10-10-10h-120c-5.522 0-10 4.478-10 10v492c0 5.522 4.478 10 10 10h120c5.522 0 10-4.478 10-10v-26h71c5.522 0 10-4.478 10-10s-4.478-10-10-10h-71v-400h232v400h-71c-5.522 0-10 4.478-10 10s4.478 10 10 10h71v26c0 5.522 4.478 10 10 10h120c5.522 0 10-4.478 10-10v-492c0-5.522-4.478-10-10-10zm-382 492h-40v-26c0-5.522-4.478-10-10-10s-10 4.478-10 10v26h-40v-472h40v26c0 5.522 4.478 10 10 10s10-4.478 10-10v-26h40zm372 0h-40v-26c0-5.522-4.478-10-10-10s-10 4.478-10 10v26h-40v-472h40v26c0 5.522 4.478 10 10 10s10-4.478 10-10v-26h40z"/><path d="m442 96c-5.522 0-10 4.478-10 10v30c0 5.522 4.478 10 10 10s10-4.478 10-10v-30c0-5.522-4.478-10-10-10z"/><path d="m442 186c-5.522 0-10 4.478-10 10v30c0 5.522 4.478 10 10 10s10-4.478 10-10v-30c0-5.522-4.478-10-10-10z"/><path d="m442 276c-5.522 0-10 4.478-10 10v30c0 5.522 4.478 10 10 10s10-4.478 10-10v-30c0-5.522-4.478-10-10-10z"/><path d="m442 366c-5.522 0-10 4.478-10 10v30c0 5.522 4.478 10 10 10s10-4.478 10-10v-30c0-5.522-4.478-10-10-10z"/><path d="m196 236h120c5.522 0 10-4.478 10-10v-120c0-5.522-4.478-10-10-10h-120c-5.522 0-10 4.478-10 10v120c0 5.522 4.478 10 10 10zm10-120h40v20c0 5.522 4.478 10 10 10s10-4.478 10-10v-20h40v100h-100z"/><path d="m186 406c0 5.522 4.478 10 10 10h120c5.522 0 10-4.478 10-10v-120c0-5.522-4.478-10-10-10h-120c-5.522 0-10 4.478-10 10zm20-110h40v20c0 5.522 4.478 10 10 10s10-4.478 10-10v-20h40v100h-100z"/><circle cx="256" cy="466" r="10"/></g></svg>