<svg id="Layer_1" enable-background="new 0 0 512.028 512.028" height="512" viewBox="0 0 512.028 512.028" width="512" xmlns="http://www.w3.org/2000/svg"><g><g><path d="m200.86 40.144c-5.522 0-9.996 4.478-9.996 10s4.481 10 10.004 10 10-4.478 10-10-4.478-10-10-10z"/><path d="m105.321 115.312c1.683 0 3.389-.425 4.954-1.319 4.796-2.74 6.462-8.849 3.722-13.645-2.738-4.793-8.846-6.462-13.645-3.721l-.007.004c-4.795 2.74-6.457 8.847-3.717 13.642 1.845 3.23 5.22 5.039 8.693 5.039z"/><path d="m44.598 209.185c1.704 1.137 3.63 1.68 5.535 1.68 3.233 0 6.407-1.564 8.334-4.456 3.063-4.595 1.822-10.804-2.773-13.867s-10.804-1.823-13.867 2.773l-.004.006c-3.064 4.594-1.821 10.801 2.775 13.864z"/><path d="m50.153 301.191c-5.522 0-10 4.478-10 10v.008c0 5.522 4.478 9.996 10 9.996s10-4.481 10-10.004-4.477-10-10-10z"/><path d="m97.005 412.288c1.926 2.89 5.096 4.452 8.325 4.452 1.907 0 3.835-.544 5.54-1.682 4.596-3.063 5.835-9.275 2.771-13.87-3.063-4.596-9.275-5.838-13.867-2.773-4.596 3.063-5.837 9.272-2.773 13.867z"/><path d="m209.811 466.365c2.47-4.939.465-10.948-4.476-13.418s-10.946-.469-13.416 4.473c-2.47 4.939-.468 10.946 4.472 13.416l.007.003c1.435.718 2.96 1.058 4.462 1.058 3.668-.001 7.199-2.028 8.951-5.532z"/><path d="m311.181 451.879c-5.522 0-10 4.478-10 10s4.478 10 10 10h.008c5.522 0 9.996-4.478 9.996-10s-4.481-10-10.004-10z"/><path d="m402.774 397.521c-5.076 2.176-7.428 8.055-5.252 13.131 1.625 3.792 5.316 6.063 9.196 6.063 1.313 0 2.65-.261 3.935-.812l.007-.003c5.076-2.176 7.424-8.053 5.249-13.129-2.175-5.074-8.055-7.427-13.135-5.25z"/><path d="m511.918 307.92c-.504-10.926-3.534-17.883-6.228-24.05-3.045-6.97-5.921-13.553-5.921-27.88 0-14.325 2.876-20.907 5.921-27.876 2.956-6.768 6.308-14.437 6.308-27.29 0-27.637-22.484-50.121-50.121-50.121-27.638 0-50.122 22.484-50.122 50.121 0 12.854 3.352 20.522 6.308 27.29 3.045 6.969 5.921 13.551 5.921 27.876 0 14.327-2.876 20.91-5.921 27.88-1.85 4.236-3.756 8.623-4.996 14.351-1.733 5.5-2.275 10.259-2.769 14.659-.848 7.558-1.648 14.696-8.812 27.103-7.163 12.407-12.945 16.67-19.066 21.184-3.709 2.735-7.543 5.574-11.469 9.893-4.275 3.91-7.134 7.773-9.771 11.349-4.513 6.121-8.775 11.903-21.183 19.066s-19.547 7.964-27.104 8.813c-4.601.516-9.36 1.059-14.951 2.855-5.612 1.249-9.994 3.154-14.042 4.923-6.969 3.044-13.55 5.92-27.875 5.92 0 0-.002 0-.003 0-14.327 0-20.91-2.876-27.88-5.92-4.235-1.851-8.622-3.756-14.349-4.995-5.496-1.731-10.252-2.273-14.65-2.765-7.558-.848-14.696-1.647-27.103-8.811s-16.671-12.946-21.185-19.067c-2.735-3.709-5.574-7.542-9.892-11.468-3.907-4.269-7.767-7.126-11.34-9.76-6.121-4.513-11.903-8.774-19.066-21.182-7.164-12.407-7.965-19.547-8.813-27.104-.515-4.588-1.057-9.335-2.842-14.906-1.249-5.64-3.161-10.037-4.936-14.099-3.045-6.969-5.921-13.552-5.921-27.877 0-14.326 2.876-20.909 5.92-27.879 1.852-4.238 3.76-8.628 4.999-14.362 1.731-5.496 2.273-10.252 2.766-14.65.848-7.558 1.648-14.695 8.811-27.102 7.164-12.407 12.946-16.67 19.068-21.184 3.709-2.735 7.54-5.573 11.465-9.891 4.276-3.911 7.135-7.775 9.773-11.351 4.513-6.122 8.775-11.903 21.182-19.066 12.448-7.187 19.955-8.058 27.903-8.98 4.836-.562 9.836-1.142 15.584-3.041 5.078-1.679 7.937-7.057 6.487-12.205-1.448-5.146-6.691-8.243-11.901-7.027-2.8.653-5.823.972-9.244.972-16.609 0-30.122-13.512-30.122-30.12s13.513-30.121 30.122-30.121c8.675 0 13.125 1.944 19.283 4.635 7.743 3.383 17.38 7.593 35.885 7.593s28.142-4.21 35.885-7.593c6.158-2.69 10.608-4.635 19.283-4.635 16.609 0 30.122 13.513 30.122 30.121s-13.513 30.12-30.122 30.12c-3.423 0-6.448-.318-9.249-.974-5.376-1.256-10.757 2.083-12.015 7.46-1.258 5.378 2.082 10.757 7.46 12.015 4.313 1.009 8.828 1.499 13.804 1.499 27.638 0 50.122-22.483 50.122-50.12s-22.482-50.123-50.12-50.123c-12.854 0-20.523 3.351-27.29 6.308-6.969 3.044-13.552 5.92-27.878 5.92s-20.909-2.876-27.878-5.92c-6.767-2.957-14.437-6.308-27.29-6.308-9.475 0-18.345 2.644-25.91 7.23-.141.075-.28.155-.418.238-10.237 6.188-15.004 12.652-19.21 18.356-4.514 6.121-8.777 11.903-21.185 19.066s-19.545 7.964-27.103 8.811c-7.339.823-15.657 1.756-26.788 8.183-8.262 4.77-14.65 11.554-18.908 19.376-.051.087-.109.167-.158.255-5.771 10.478-6.668 18.459-7.458 25.502-.848 7.559-1.649 14.697-8.813 27.104s-12.945 16.669-19.066 21.182c-5.944 4.382-12.681 9.349-19.107 20.479-5.025 8.702-7.279 18.482-6.626 28.288.503 10.931 3.535 17.889 6.229 24.058 3.044 6.97 5.92 13.553 5.92 27.879s-2.876 20.908-5.921 27.877c-2.957 6.767-6.308 14.437-6.308 27.289 0 9.557 2.691 18.495 7.352 26.103.041.072.074.146.117.217 6.188 10.237 12.653 15.004 18.357 19.21 6.122 4.514 11.904 8.777 19.067 21.184 7.162 12.406 7.963 19.545 8.811 27.103.823 7.338 1.756 15.656 8.183 26.787 4.742 8.214 11.48 14.564 19.244 18.822.127.077.247.161.378.234 10.478 5.771 18.46 6.668 25.502 7.458 7.559.848 14.698 1.649 27.105 8.813 12.406 7.163 16.669 12.944 21.182 19.065 4.383 5.944 9.35 12.682 20.48 19.107 7.874 4.546 16.479 6.706 24.978 6.705.346 0 .69-.026 1.035-.033.101.003.199.015.301.015.067 0 .137-.001.205-.002 11.959-.24 19.319-3.455 25.813-6.292 6.97-3.044 13.553-5.92 27.88-5.92 14.326 0 20.909 2.876 27.878 5.921 6.767 2.956 14.437 6.307 27.29 6.308 9.598 0 18.571-2.717 26.2-7.414.035-.021.073-.034.108-.055 10.237-6.188 15.004-12.653 19.21-18.356 4.514-6.122 8.776-11.904 21.184-19.067 12.406-7.163 19.545-7.963 27.103-8.811 7.339-.822 15.657-1.755 26.788-8.182 8.431-4.867 15.104-11.917 19.457-20.37 5.41-10.113 6.296-17.89 7.067-24.765.848-7.558 1.649-14.696 8.813-27.104 7.163-12.406 12.945-16.669 19.066-21.182 5.944-4.382 12.682-9.35 19.107-20.48 5.027-8.704 7.281-18.486 6.627-28.295zm-50.042-137.216c16.608 0 30.121 13.513 30.121 30.121 0 8.675-1.944 13.124-4.635 19.282-3.384 7.743-7.594 17.38-7.594 35.884 0 3.061.125 5.86.332 8.467-11.97-4.677-24.986-4.422-36.454.048.21-2.621.336-5.435.336-8.515 0-18.504-4.211-28.141-7.594-35.884-2.69-6.158-4.635-10.607-4.635-19.282.001-16.609 13.513-30.121 30.123-30.121zm-441.845 140.494c0-8.674 1.944-13.123 4.635-19.281 3.383-7.743 7.594-17.381 7.594-35.885 0-3.07-.125-5.875-.334-8.488 5.895 2.304 12.039 3.436 18.132 3.436 6.283 0 12.501-1.197 18.324-3.467-.21 2.622-.336 5.438-.336 8.52 0 18.504 4.21 28.141 7.594 35.885 1.658 3.795 3.031 6.944 3.842 10.83.011.052.023.105.035.157.484 2.379.758 5.039.758 8.295 0 16.608-13.513 30.12-30.122 30.12s-30.122-13.514-30.122-30.122zm70.216-231.97c7.513-4.337 12.338-4.878 19.017-5.627 8.397-.941 18.849-2.114 34.874-11.366 2.645-1.526 5.022-3.031 7.173-4.512 1.934 12.698 8.65 23.844 18.248 31.539-2.378 1.127-4.882 2.437-7.527 3.964-16.025 9.252-22.266 17.717-27.28 24.519-2.455 3.329-4.494 6.089-7.447 8.732-.048.044-.097.087-.145.132-1.815 1.604-3.978 3.168-6.79 4.792-14.38 8.301-32.842 3.358-41.147-11.025-4.022-6.968-5.091-15.085-3.009-22.856s7.065-14.269 14.033-18.292zm-66.19 106.579c4.337-7.512 8.246-10.393 13.655-14.381 6.802-5.015 15.267-11.255 24.519-27.28 1.536-2.66 2.831-5.154 3.957-7.523 8.026 10.04 19.414 16.331 31.582 18.197-1.491 2.164-3.008 4.553-4.547 7.219-9.252 16.024-10.424 26.476-11.365 34.873-.464 4.14-.851 7.569-2.109 11.366-.003.009-.006.018-.009.027-.771 2.32-1.868 4.779-3.51 7.623-8.305 14.385-26.765 19.329-41.147 11.025-6.968-4.022-11.952-10.519-14.034-18.29-.541-2.019-.865-4.062-.984-6.102-.007-.209-.017-.41-.021-.625-.001-.054-.009-.105-.011-.158-.179-5.545 1.18-11.045 4.024-15.971zm38.188 182.105c-1.526-2.644-3.031-5.016-4.51-7.166 12.702-1.935 23.843-8.662 31.538-18.264 1.128 2.374 2.426 4.872 3.965 7.538 9.252 16.025 17.717 22.266 24.519 27.28 3.322 2.449 6.077 4.484 8.714 7.427.05.055.1.11.151.165 1.604 1.815 3.168 3.977 4.791 6.789 8.305 14.384 3.358 32.842-11.025 41.146-6.967 4.023-15.084 5.092-22.857 3.009-2.096-.562-4.095-1.341-5.982-2.307-.12-.065-.235-.123-.356-.189-.03-.016-.06-.028-.09-.044-4.911-2.619-9.011-6.555-11.863-11.494-4.338-7.513-4.879-12.338-5.628-19.017-.943-8.398-2.115-18.848-11.367-34.873zm109.183 106.413c-5.015-6.802-11.255-15.267-27.28-24.518-2.648-1.529-5.13-2.819-7.49-3.942 10.034-8.025 16.32-19.42 18.185-31.582 2.158 1.487 4.541 2.999 7.198 4.533 16.025 9.252 26.477 10.424 34.874 11.365 4.127.463 7.548.849 11.332 2.098.023.007.045.014.068.021 2.319.771 4.775 1.867 7.617 3.508 14.384 8.305 19.329 26.764 11.025 41.147-8.305 14.384-26.762 19.329-41.147 11.024-7.513-4.336-10.394-8.245-14.382-13.654zm120.478 13.042c-7.743-3.384-17.38-7.594-35.885-7.594-3.055 0-5.847.124-8.45.331 4.676-11.97 4.419-24.985-.052-36.452 2.617.209 5.427.335 8.502.335h.004c18.5 0 28.139-4.21 35.881-7.593 6.159-2.69 10.608-4.635 19.283-4.635 16.609 0 30.122 13.513 30.122 30.121s-13.513 30.12-30.122 30.121c-8.675 0-13.124-1.944-19.283-4.634zm129.875-54.572c-7.512 4.337-12.338 4.878-19.017 5.627-8.397.941-18.849 2.113-34.874 11.365-2.639 1.523-5.007 3.025-7.154 4.502-1.938-12.7-8.667-23.839-18.27-31.532 2.371-1.127 4.867-2.424 7.53-3.961 16.025-9.252 22.267-17.717 27.281-24.518 2.452-3.326 4.489-6.084 7.438-8.724.054-.048.107-.096.16-.146 1.814-1.603 3.975-3.164 6.784-4.786 14.383-8.302 32.843-3.356 41.147 11.025 4.022 6.968 5.091 15.084 3.009 22.855-2.082 7.774-7.066 14.27-14.034 18.293zm66.191-106.58c-4.338 7.513-8.246 10.395-13.655 14.382-6.802 5.015-15.267 11.255-24.519 27.28-1.532 2.653-2.824 5.14-3.949 7.504-8.025-10.035-19.42-16.323-31.584-18.188 1.489-2.161 3.004-4.548 4.541-7.21 9.253-16.025 10.425-26.477 11.366-34.874.464-4.134.85-7.559 2.104-11.349.006-.019.012-.039.018-.058.771-2.316 1.866-4.77 3.505-7.609 8.305-14.384 26.764-19.329 41.148-11.024 6.968 4.022 11.952 10.518 14.034 18.289.529 1.975.853 3.972.978 5.967.009.253.021.499.026.76.001.065.011.128.013.193.172 5.535-1.188 11.022-4.026 15.937z"/><path d="m466.845 302.476c-4.793-2.743-10.905-1.071-13.646 3.724-2.74 4.796-1.074 10.904 3.721 13.645 1.565.895 3.271 1.319 4.953 1.319 3.471 0 6.846-1.811 8.691-5.041l.004-.007c2.74-4.795 1.072-10.9-3.723-13.64z"/><path d="m461.876 210.831c5.522 0 10-4.478 10-10v-.007c0-5.522-4.478-9.997-10-9.997s-10 4.481-10 10.004 4.477 10 10 10z"/><path d="m305.602 58.429c.012.008.025.016.038.024.186.123.368.249.564.361.051.029.104.048.155.076.318.177.646.338.984.48.09.037.181.065.272.1.286.11.577.208.875.292.107.03.214.057.322.083.31.076.626.137.947.184.065.009.13.022.195.03.41.051.825.086 1.249.086 5.522 0 10-4.478 10-10 0-4.368-2.806-8.073-6.71-9.435-.09-.032-.178-.069-.269-.098-.103-.032-.208-.056-.313-.086-4.327-1.242-9.098.559-11.432 4.644-2.62 4.585-1.2 10.366 3.123 13.259z"/><path d="m256.02 68.037c-5.522 0-9.996 4.478-9.996 10s4.481 10 10.004 10c5.522 0 10-4.478 10-10s-4.478-10-10-10z"/></g></g></svg>