<svg id="Icons" height="512" viewBox="0 0 74 74" width="512" xmlns="http://www.w3.org/2000/svg"><path d="m42.47 57h-2.91a1 1 0 0 1 0-2h2.91a1 1 0 0 1 0 2z"/><path d="m61.5 57h-2.06a1 1 0 0 1 0-2h2.06a8.5 8.5 0 1 0 0-17h-49a8.5 8.5 0 0 0 0 17h20.06a1 1 0 0 1 0 2h-20.06a10.5 10.5 0 0 1 0-21h49a10.5 10.5 0 0 1 0 21z"/><path d="m52.44 57h-2.97a1 1 0 0 1 0-2h2.97a1 1 0 0 1 0 2z"/><path d="m59.5 52a5.5 5.5 0 1 1 5.5-5.5 5.506 5.506 0 0 1 -5.5 5.5zm0-9a3.5 3.5 0 1 0 3.5 3.5 3.5 3.5 0 0 0 -3.5-3.5z"/><path d="m44.5 52a5.5 5.5 0 1 1 5.5-5.5 5.506 5.506 0 0 1 -5.5 5.5zm0-9a3.5 3.5 0 1 0 3.5 3.5 3.5 3.5 0 0 0 -3.5-3.5z"/><path d="m29.5 52a5.5 5.5 0 1 1 5.5-5.5 5.506 5.506 0 0 1 -5.5 5.5zm0-9a3.5 3.5 0 1 0 3.5 3.5 3.5 3.5 0 0 0 -3.5-3.5z"/><path d="m14.5 52a5.5 5.5 0 1 1 5.5-5.5 5.506 5.506 0 0 1 -5.5 5.5zm0-9a3.5 3.5 0 1 0 3.5 3.5 3.5 3.5 0 0 0 -3.5-3.5z"/><path d="m61.4 38h-21.3a1 1 0 0 1 -1-1v-19a1 1 0 0 1 1-1h21.3a1 1 0 0 1 1 1v19a1 1 0 0 1 -1 1zm-20.3-2h19.3v-17h-19.3z"/><path d="m54.25 27.208a1 1 0 0 1 -.534-.154l-2.966-1.871-2.966 1.871a1 1 0 0 1 -1.534-.846v-8.208a1 1 0 0 1 1-1h7a1 1 0 0 1 1 1v8.208a1 1 0 0 1 -1 1zm-3.5-4.208a1 1 0 0 1 .534.154l1.966 1.246v-5.4h-5v5.4l1.966-1.241a1 1 0 0 1 .534-.159z"/><path d="m33.9 38h-21.3a1 1 0 0 1 -1-1v-19a1 1 0 0 1 1-1h21.3a1 1 0 0 1 1 1v19a1 1 0 0 1 -1 1zm-20.3-2h19.3v-17h-19.3z"/><path d="m26.75 27.208a1 1 0 0 1 -.534-.154l-2.966-1.871-2.966 1.871a1 1 0 0 1 -1.534-.846v-8.208a1 1 0 0 1 1-1h7a1 1 0 0 1 1 1v8.208a1 1 0 0 1 -1 1zm-3.5-4.208a1 1 0 0 1 .534.154l1.966 1.246v-5.4h-5v5.4l1.966-1.241a1 1 0 0 1 .534-.159z"/></svg>