<svg id="Capa_1" enable-background="new 0 0 512.213 512.213" height="512" viewBox="0 0 512.213 512.213" width="512" xmlns="http://www.w3.org/2000/svg"><g><path d="m512.213 165.106-126.213-126.213v81.213h-62.244c-20.083-70.773-84.804-120-158.756-120-90.981 0-165 74.019-165 165 0 73.868 49.143 138.649 120 158.756v36.244h-60v90h60v62h90v-62h60v-90h-60v-36.235c27.01-7.63 51.59-22.038 71.659-42.107 20.068-20.069 34.477-44.648 42.105-71.659h62.236v81.213zm-332.213 134.717v90.283h60v30h-60v62h-30v-62h-60v-30h60v-90.283l-12.015-2.439c-98.307-19.961-141.458-137.73-78.414-216.493l21.367 21.367c-51.338 68.489-2.657 167.848 84.062 167.848 23.55 0 45.314-7.794 62.849-20.938l21.477 21.476c-31.749 25.342-62.724 27.17-69.326 29.179zm-67.84-187.885c13.567-13.484 32.246-21.832 52.84-21.832 41.355 0 75 33.645 75 75 0 20.594-8.347 39.273-21.832 52.84l-.328.328c-13.567 13.484-32.246 21.832-52.84 21.832-41.355 0-75-33.645-75-75 0-20.594 8.347-39.273 21.832-52.84zm187.556 68.168c-2.039 6.7-3.86 37.607-29.177 69.325l-21.476-21.476c51.337-68.49 2.656-167.849-84.063-167.849-23.55 0-45.314 7.794-62.849 20.938l-21.367-21.367c78.664-62.964 196.498-20.061 216.492 78.414l2.439 12.015h116.285v-38.786l53.787 53.787-53.787 53.786v-38.787z"/></g></svg>