<?xml version="1.0" encoding="iso-8859-1"?>
<!-- Generator: Adobe Illustrator 17.1.0, SVG Export Plug-In . SVG Version: 6.00 Build 0)  -->
<!DOCTYPE svg PUBLIC "-//W3C//DTD SVG 1.1//EN" "http://www.w3.org/Graphics/SVG/1.1/DTD/svg11.dtd">
<svg version="1.1" id="Capa_1" xmlns="http://www.w3.org/2000/svg" xmlns:xlink="http://www.w3.org/1999/xlink" x="0px" y="0px"
	 viewBox="0 0 511 511" style="enable-background:new 0 0 511 511;" xml:space="preserve">
<g>
	<path d="M414.793,159.626c0.003-0.164,0.009-0.328,0-0.495c-2.122-42.903-20.484-82.946-51.703-112.752
		C331.765,16.471,290.713,0,247.5,0C155.14,0,80,75.14,80,167.5v176C80,435.86,155.14,511,247.5,511
		c43.213,0,84.265-16.471,115.59-46.379c31.219-29.806,49.581-69.849,51.703-112.752c0.008-0.166,0.002-0.33,0-0.494
		C424.61,344.181,431,332.575,431,319.5v-128C431,178.425,424.61,166.819,414.793,159.626z M352.732,453.771
		C324.209,481.003,286.837,496,247.5,496C163.411,496,95,427.589,95,343.5v-176C95,83.411,163.411,15,247.5,15
		c39.337,0,76.709,14.997,105.232,42.229c26.698,25.49,43.068,59.194,46.561,95.547c-2.521-0.507-5.126-0.776-7.794-0.776
		c-3.191,0-6.291,0.39-9.265,1.108C374.991,84.73,316.927,32,247.5,32c-61.671,0-115.561,41.788-131.048,101.621
		c-0.737,2.847,0.258,5.862,2.545,7.711l10.877,8.795c3.893,3.147,6.125,7.824,6.125,12.831v185.084
		c0,5.006-2.232,9.683-6.125,12.831l-10.878,8.795c-2.287,1.849-3.282,4.864-2.545,7.711C131.939,437.212,185.829,479,247.5,479
		c69.427,0,127.491-52.73,134.735-121.108c2.974,0.718,6.074,1.108,9.265,1.108c2.668,0,5.273-0.269,7.794-0.776
		C395.8,394.578,379.43,428.281,352.732,453.771z M367.766,351.051C363.833,414.388,311.009,464,247.5,464
		c-53.238,0-99.955-35.029-115.236-85.769l7.042-5.694C146.738,366.527,151,357.6,151,348.042V162.958
		c0-9.558-4.262-18.485-11.694-24.495l-7.042-5.694C147.545,82.029,194.262,47,247.5,47c63.509,0,116.333,49.612,120.266,112.949
		C358.198,167.164,352,178.621,352,191.5v128C352,332.379,358.198,343.836,367.766,351.051z M416,319.5
		c0,13.509-10.991,24.5-24.5,24.5S367,333.009,367,319.5v-128c0-13.509,10.991-24.5,24.5-24.5s24.5,10.991,24.5,24.5V319.5z"/>
	<path d="M391.52,184h-0.01c-4.142,0-7.495,3.358-7.495,7.5s3.363,7.5,7.505,7.5s7.5-3.358,7.5-7.5S395.662,184,391.52,184z"/>
	<path d="M391.52,312h-0.01c-4.142,0-7.495,3.358-7.495,7.5s3.363,7.5,7.505,7.5s7.5-3.358,7.5-7.5S395.662,312,391.52,312z"/>
</g>
<g>
</g>
<g>
</g>
<g>
</g>
<g>
</g>
<g>
</g>
<g>
</g>
<g>
</g>
<g>
</g>
<g>
</g>
<g>
</g>
<g>
</g>
<g>
</g>
<g>
</g>
<g>
</g>
<g>
</g>
</svg>
