<svg id="Capa_1" enable-background="new 0 0 512 512" height="512" viewBox="0 0 512 512" width="512" xmlns="http://www.w3.org/2000/svg"><g><path d="m510.291 330.768c-2.607-14.516-12.173-26.843-25.587-32.974-17.005-7.773-37.321-4.104-50.552 9.13l-64.832 64.836c-2.46 2.461-5.223 4.51-8.205 6.111.867-3.517 1.313-7.165 1.313-10.883 0-12.018-4.68-23.315-13.176-31.812-8.498-8.499-19.796-13.179-31.815-13.178l-45.892.002c-37.179-21.348-81.332-24.406-120.544-9.137v-15.863c0-8.284-6.716-15-15-15h-120.001c-8.284 0-15 6.716-15 15v200c0 8.284 6.716 15 15 15h120.002c8.284 0 15-6.716 15-15v-20.819c36.249 8.753 73.566 13.15 110.889 13.15 34.618-.001 69.238-3.772 102.991-11.325 21.274-4.761 40.676-15.415 56.108-30.812l76.792-76.608c10.44-10.417 15.117-25.303 12.509-39.818zm-389.289 151.232h-90.002v-170h90.001v170zm355.591-132.652-76.791 76.608c-11.407 11.38-25.747 19.256-41.471 22.774-66.821 14.951-137.249 14.077-203.674-2.528l-3.655-.914v-99.538c34.325-17.803 75.299-16.445 108.563 4.024 2.364 1.455 5.085 2.226 7.861 2.226l50.013-.002c4.004 0 7.768 1.559 10.599 4.39s4.39 6.596 4.39 10.62c0 4.011-1.562 7.781-4.399 10.617-2.651 2.65-6.12 4.187-9.837 4.375h-70.766c-8.284 0-14.999 6.715-15 14.998s6.712 15 14.996 15.002h97.161c17.363 0 33.682-6.758 45.951-19.027l64.833-64.838c4.417-4.42 11.195-5.647 16.865-3.056 4.539 2.074 7.649 6.081 8.53 10.993.884 4.912-.637 9.751-4.169 13.276z"/><path d="m256.006 190c30.327 0 55-24.673 55-55s-24.673-55-55-55-55 24.673-55 55 24.673 55 55 55zm0-80c13.785 0 25 11.215 25 25s-11.215 25-25 25-25-11.215-25-25 11.215-25 25-25z"/><path d="m124.093 176.52 30 51.961c4.142 7.175 13.315 9.636 20.49 5.49l12.353-7.132c7.489 5.68 15.537 10.359 24.071 14.001v14.16c0 8.284 6.716 15 15 15h60c8.284 0 15-6.716 15-15v-14.16c8.534-3.642 16.581-8.321 24.071-14.001l12.353 7.132c7.174 4.142 16.348 1.684 20.49-5.49l30-51.961c1.989-3.445 2.528-7.54 1.499-11.382-1.03-3.843-3.544-7.119-6.989-9.108l-12.301-7.102c.583-4.672.877-9.328.877-13.928s-.294-9.256-.877-13.928l12.301-7.102c3.445-1.989 5.959-5.266 6.989-9.108 1.029-3.842.49-7.937-1.499-11.382l-30-51.961c-4.143-7.176-13.318-9.631-20.489-5.491l-12.354 7.132c-7.489-5.679-15.536-10.359-24.07-14v-14.16c0-8.284-6.716-15-15-15h-60c-8.284 0-15 6.716-15 15v14.16c-8.534 3.641-16.581 8.321-24.071 14l-12.353-7.132c-7.174-4.141-16.349-1.683-20.49 5.491l-30 51.961c-4.142 7.174-1.684 16.348 5.49 20.49l12.3 7.102c-.583 4.672-.877 9.328-.877 13.928s.294 9.256.877 13.928l-12.3 7.102c-7.175 4.142-9.633 13.316-5.491 20.49zm48.986-23.071c-1.375-6.21-2.072-12.417-2.072-18.449s.697-12.239 2.072-18.449c1.416-6.391-1.477-12.961-7.145-16.233l-8.36-4.827 15-25.98 8.422 4.861c5.674 3.274 12.815 2.491 17.64-1.938 9.372-8.598 20.092-14.832 31.865-18.53 6.251-1.964 10.505-7.758 10.505-14.311v-9.593h30v9.593c0 6.553 4.253 12.347 10.505 14.311 11.772 3.698 22.493 9.933 31.865 18.53 4.827 4.429 11.968 5.211 17.64 1.938l8.424-4.863 15 25.981-8.361 4.827c-5.669 3.272-8.561 9.844-7.145 16.234 1.375 6.209 2.072 12.416 2.072 18.448s-.697 12.239-2.072 18.448c-1.416 6.391 1.476 12.962 7.145 16.234l8.361 4.827-15 25.98-8.423-4.862c-5.674-3.274-12.815-2.49-17.641 1.938-9.371 8.598-20.092 14.833-31.865 18.531-6.252 1.964-10.505 7.758-10.505 14.311v9.594h-30v-9.593c0-6.553-4.253-12.347-10.504-14.311-11.773-3.698-22.495-9.934-31.865-18.531-4.827-4.428-11.968-5.213-17.641-1.938l-8.422 4.862-15-25.98 8.36-4.827c5.668-3.272 8.56-9.842 7.145-16.233z"/></g></svg>