<svg viewBox="0 0 512 512.00099" xmlns="http://www.w3.org/2000/svg"><path d="m512 319.648438v-127.296876h-74.96875c-2.265625-6.429687-4.957031-12.898437-8.042969-19.324218l53.039063-53.035156-90.019532-90.019532-53.035156 53.035156c-6.425781-3.082031-12.890625-5.773437-19.324218-8.039062v-74.96875h-127.296876v74.96875c-6.433593 2.265625-12.898437 4.957031-19.324218 8.042969l-53.035156-53.039063-90.019532 90.019532 53.039063 53.035156c-3.085938 6.425781-5.777344 12.894531-8.042969 19.324218h-74.96875v127.296876h74.96875c2.265625 6.433593 4.957031 12.898437 8.042969 19.324218l-53.035157 53.035156 90.015626 90.019532 53.035156-53.035156c6.425781 3.082031 12.894531 5.773437 19.324218 8.039062v74.96875h127.296876v-74.96875c6.433593-2.265625 12.898437-4.957031 19.324218-8.039062l53.035156 53.035156 90.019532-90.019532-53.035156-53.035156c3.082031-6.425781 5.773437-12.890625 8.039062-19.324218zm-51.320312 72.359374-68.671876 68.671876-50.085937-50.085938-4.894531 2.511719c-9.046875 4.644531-18.199219 8.445312-27.207032 11.300781l-5.265624 1.671875v70.828125h-97.109376v-70.828125l-5.265624-1.671875c-9.003907-2.855469-18.15625-6.65625-27.207032-11.300781l-4.894531-2.511719-50.085937 50.085938-68.671876-68.671876 50.085938-50.085937-2.511719-4.894531c-4.640625-9.046875-8.445312-18.199219-11.300781-27.207032l-1.667969-5.265624h-70.832031v-97.109376h70.832031l1.667969-5.265624c2.855469-9.003907 6.65625-18.15625 11.300781-27.207032l2.511719-4.894531-50.085938-50.085937 68.671876-68.671876 50.085937 50.085938 4.894531-2.511719c9.046875-4.644531 18.203125-8.445312 27.207032-11.300781l5.265624-1.667969v-70.832031h97.109376v70.832031l5.265624 1.667969c9.003907 2.855469 18.160157 6.660156 27.207032 11.300781l4.894531 2.511719 50.085937-50.085938 68.671876 68.671876-50.085938 50.085937 2.511719 4.894531c4.644531 9.050782 8.445312 18.203125 11.300781 27.207032l1.667969 5.265624h70.832031v97.109376h-70.832031l-1.667969 5.265624c-2.855469 9.003907-6.660156 18.160157-11.300781 27.207032l-2.511719 4.894531zm0 0"/><path d="m256 392.714844c-75.382812 0-136.714844-61.328125-136.714844-136.714844 0-37.628906 14.972656-72.699219 42.164063-98.742188l-10.441407-10.898437c-30.191406 28.917969-46.816406 67.855469-46.816406 109.640625 0 83.710938 68.101563 151.808594 151.808594 151.808594 30.191406 0 59.355469-8.839844 84.347656-25.574219l-8.398437-12.542969c-22.496094 15.0625-48.761719 23.023438-75.949219 23.023438zm0 0"/><path d="m256 104.191406c-33.917969 0-66 10.941406-92.777344 31.644532l9.234375 11.941406c24.105469-18.640625 52.996094-28.492188 83.542969-28.492188 75.386719 0 136.714844 61.328125 136.714844 136.714844 0 38.832031-16.609375 75.972656-45.570313 101.898438l10.066407 11.246093c32.15625-28.785156 50.601562-70.023437 50.601562-113.144531 0-83.707031-68.105469-151.808594-151.8125-151.808594zm0 0"/><path d="m247.984375 32.058594h16.03125v15.09375h-16.03125zm0 0"/><path d="m247.984375 464.847656h16.03125v15.09375h-16.03125zm0 0"/><path d="m31.589844 248.453125h16.03125v15.09375h-16.03125zm0 0"/><path d="m464.378906 248.453125h16.03125v15.09375h-16.03125zm0 0"/><path d="m400.261719 96.175781h16.03125v15.09375h-16.03125zm0 0"/><path d="m400.261719 392.714844h16.03125v15.09375h-16.03125zm0 0"/><path d="m95.707031 96.175781h16.03125v15.09375h-16.03125zm0 0"/><path d="m95.707031 392.714844h16.03125v15.09375h-16.03125zm0 0"/><path d="m336.613281 272.03125h15.09375c0-52.773438-42.933593-95.710938-95.707031-95.710938s-95.707031 42.9375-95.707031 95.710938h15.09375c0-44.453125 36.164062-80.613281 80.613281-80.613281s80.613281 36.160156 80.613281 80.613281zm0 0"/><path d="m303.621094 272.03125c0-26.257812-21.363282-47.621094-47.621094-47.621094s-47.617188 21.363282-47.617188 47.621094h15.09375c0-17.9375 14.589844-32.527344 32.523438-32.527344s32.527344 14.589844 32.527344 32.527344zm0 0"/><path d="m256 272.496094c-13 0-23.574219 10.578125-23.574219 23.578125s10.574219 23.574219 23.574219 23.574219 23.578125-10.574219 23.578125-23.574219-10.578125-23.578125-23.578125-23.578125zm0 32.058594c-4.675781 0-8.480469-3.804688-8.480469-8.480469s3.804688-8.484375 8.480469-8.484375c4.679688 0 8.484375 3.804687 8.484375 8.484375-.003906 4.675781-3.808594 8.480469-8.484375 8.480469zm0 0"/><path d="m199.898438 304.554688h16.027343v15.09375h-16.027343zm0 0"/><path d="m167.839844 304.554688h16.027344v15.09375h-16.027344zm0 0"/><path d="m296.074219 304.554688h16.027343v15.09375h-16.027343zm0 0"/><path d="m328.132812 304.554688h16.027344v15.09375h-16.027344zm0 0"/></svg>