<svg id="Capa_1" enable-background="new 0 0 512 512" height="512" viewBox="0 0 512 512" width="512" xmlns="http://www.w3.org/2000/svg"><g><g><path d="m505.916 111.996-21.167-4.07c-2.452-9.232-6.105-18.052-10.905-26.32l12.091-17.849c2.018-2.977 1.637-6.967-.905-9.51l-23.235-23.235c-2.544-2.544-6.534-2.923-9.51-.905l-17.849 12.091c-8.268-4.8-17.085-8.453-26.32-10.905l-4.07-21.167c-.68-3.531-3.77-6.084-7.365-6.084h-32.861c-3.596 0-6.686 2.553-7.365 6.084l-4.07 21.167c-9.235 2.452-18.053 6.105-26.32 10.905l-17.849-12.091c-2.976-2.018-6.966-1.637-9.51.905l-23.235 23.235c-2.542 2.543-2.923 6.533-.905 9.51l12.091 17.849c-4.8 8.269-8.453 17.088-10.905 26.32l-19.752 3.798-19.751-3.798c-2.452-9.232-6.106-18.052-10.905-26.32l12.091-17.849c2.017-2.977 1.637-6.967-.906-9.51l-23.235-23.235c-2.543-2.543-6.533-2.923-9.51-.905l-17.848 12.091c-8.268-4.8-17.086-8.453-26.32-10.905l-4.07-21.167c-.679-3.531-3.769-6.084-7.365-6.084h-32.861c-3.596 0-6.686 2.553-7.365 6.084l-4.07 21.167c-9.234 2.452-18.052 6.105-26.32 10.905l-17.849-12.092c-2.979-2.018-6.967-1.636-9.51.905l-23.235 23.236c-2.543 2.543-2.923 6.533-.906 9.51l12.091 17.849c-4.799 8.269-8.453 17.088-10.905 26.32l-21.167 4.07c-3.532.68-6.084 3.77-6.084 7.365v32.859c0 3.596 2.552 6.686 6.083 7.365l21.167 4.07c2.452 9.232 6.105 18.051 10.905 26.32l-12.091 17.849c-2.017 2.977-1.637 6.967.906 9.51l23.235 23.235c2.542 2.543 6.532 2.924 9.51.905l17.848-12.091c8.268 4.799 17.086 8.452 26.32 10.904l4.07 21.168c.679 3.531 3.769 6.084 7.365 6.084h32.859c3.596 0 6.686-2.553 7.365-6.084l4.07-21.168c9.234-2.452 18.052-6.105 26.32-10.904l17.848 12.091c2.978 2.019 6.968 1.636 9.51-.905l23.235-23.235c2.543-2.543 2.923-6.533.906-9.51l-12.091-17.849c4.799-8.269 8.453-17.088 10.905-26.32l19.755-3.797 19.751 3.798c2.452 9.232 6.105 18.051 10.905 26.32l-12.091 17.849c-2.018 2.977-1.637 6.967.905 9.51l23.235 23.235c2.544 2.544 6.534 2.922 9.51.905l17.849-12.091c8.268 4.799 17.086 8.452 26.32 10.904l4.07 21.168c.68 3.531 3.77 6.084 7.365 6.084h32.859c3.596 0 6.686-2.553 7.365-6.084l4.07-21.168c9.234-2.452 18.053-6.105 26.32-10.904l17.849 12.091c2.976 2.017 6.966 1.637 9.51-.905l23.235-23.235c2.542-2.543 2.923-6.533.905-9.51l-12.091-17.849c4.8-8.27 8.453-17.088 10.905-26.32l21.167-4.07c3.531-.68 6.084-3.77 6.084-7.365v-32.859c.003-3.596-2.55-6.686-6.081-7.366zm-277.241 37.842c-2.95.567-5.277 2.841-5.914 5.776-2.357 10.877-6.61 21.143-12.641 30.512-1.626 2.526-1.587 5.778.097 8.266l11.324 16.717-14.474 14.475-16.716-11.324c-2.487-1.688-5.74-1.724-8.266-.098-9.368 6.03-19.633 10.283-30.512 12.641-2.936.637-5.209 2.964-5.776 5.914l-3.812 19.825h-20.469l-3.812-19.825c-.567-2.95-2.84-5.277-5.776-5.914-10.878-2.357-21.144-6.61-30.512-12.641-2.527-1.626-5.779-1.59-8.266.098l-16.716 11.324-14.474-14.475 11.324-16.717c1.685-2.486 1.723-5.739.097-8.266-6.031-9.37-10.285-19.636-12.641-30.512-.637-2.936-2.963-5.209-5.914-5.776l-19.826-3.813v-20.469l19.825-3.812c2.95-.567 5.277-2.841 5.914-5.777 2.356-10.876 6.61-21.141 12.641-30.511 1.626-2.526 1.587-5.778-.097-8.266l-11.325-16.716 14.474-14.475 16.716 11.324c2.488 1.687 5.74 1.723 8.266.098 9.368-6.031 19.633-10.284 30.512-12.642 2.936-.637 5.209-2.964 5.776-5.914l3.812-19.824h20.469l3.812 19.824c.567 2.95 2.84 5.277 5.776 5.914 10.878 2.357 21.144 6.61 30.512 12.642 2.526 1.625 5.779 1.589 8.266-.098l16.716-11.324 14.474 14.475-11.322 16.716c-1.685 2.487-1.723 5.739-.097 8.266 6.031 9.37 10.285 19.635 12.641 30.511.636 2.937 2.963 5.21 5.914 5.777l19.825 3.812v20.469zm268.325-3.813-19.824 3.812c-2.95.567-5.277 2.841-5.914 5.776-2.357 10.876-6.61 21.142-12.642 30.512-1.626 2.526-1.588 5.779.098 8.266l11.324 16.717-14.475 14.475-16.717-11.324c-2.485-1.687-5.739-1.723-8.266-.098-9.367 6.03-19.633 10.283-30.512 12.641-2.936.637-5.209 2.964-5.776 5.914l-3.812 19.825h-20.469l-3.812-19.825c-.567-2.95-2.841-5.277-5.776-5.914-10.879-2.357-21.145-6.61-30.512-12.641-2.525-1.624-5.778-1.589-8.266.098l-16.717 11.324-14.475-14.475 11.324-16.717c1.686-2.486 1.724-5.739.098-8.266-6.031-9.37-10.284-19.636-12.642-30.512-.637-2.936-2.964-5.209-5.914-5.776l-19.824-3.812v-20.469l19.824-3.812c2.95-.567 5.277-2.841 5.914-5.776 2.357-10.877 6.61-21.143 12.642-30.512 1.626-2.526 1.588-5.778-.098-8.266l-11.324-16.717 14.475-14.475 16.717 11.324c2.487 1.688 5.74 1.722 8.266.098 9.367-6.03 19.633-10.284 30.512-12.642 2.936-.637 5.209-2.964 5.776-5.914l3.812-19.824h20.469l3.812 19.824c.567 2.95 2.841 5.277 5.776 5.914 10.879 2.357 21.145 6.611 30.512 12.642 2.525 1.624 5.778 1.59 8.266-.098l16.717-11.324 14.475 14.475-11.324 16.717c-1.686 2.487-1.724 5.739-.098 8.266 6.031 9.369 10.284 19.635 12.642 30.512.637 2.936 2.964 5.209 5.914 5.776l19.824 3.813z"/><path d="m380.25 60.52c-15.084 0-29.634 4.441-42.077 12.845-3.433 2.318-4.336 6.98-2.019 10.413 2.318 3.434 6.982 4.334 10.413 2.019 9.955-6.723 21.603-10.276 33.683-10.276 33.232 0 60.27 27.037 60.27 60.271 0 13.319-4.351 25.637-11.695 35.624v-8.925c0-14.061-10.406-25.735-23.92-27.732 2.157-3.97 3.383-8.515 3.383-13.342 0-15.46-12.577-28.038-28.037-28.038s-28.037 12.578-28.037 28.038c0 4.827 1.226 9.372 3.383 13.342-13.515 1.998-23.92 13.671-23.92 27.732v8.925c-7.344-9.987-11.695-22.305-11.695-35.624 0-9.346 2.074-18.289 6.165-26.582 1.833-3.715.308-8.212-3.407-10.044-3.716-1.832-8.213-.307-10.044 3.407-5.119 10.375-7.714 21.551-7.714 33.219 0 41.504 33.766 75.27 75.27 75.27s75.27-33.766 75.27-75.27-33.768-75.272-75.272-75.272zm0 47.857c7.188 0 13.037 5.849 13.037 13.038 0 7.188-5.849 13.037-13.037 13.037s-13.037-5.849-13.037-13.037c0-7.189 5.849-13.038 13.037-13.038zm-33.574 77.439v-23.327c0-7.188 5.849-13.037 13.037-13.037h41.074c7.188 0 13.037 5.849 13.037 13.037v23.327c-9.601 6.465-21.154 10.243-33.574 10.243s-23.973-3.778-33.574-10.243z"/><path d="m381.666 352.414-21.167-4.07c-2.452-9.232-6.105-18.051-10.905-26.32l12.091-17.849c2.018-2.977 1.637-6.967-.905-9.51l-23.235-23.235c-2.544-2.544-6.534-2.922-9.51-.905l-17.849 12.091c-8.268-4.799-17.086-8.452-26.32-10.904l-4.07-21.168c-.68-3.531-3.77-6.084-7.365-6.084h-32.861c-3.596 0-6.686 2.553-7.365 6.084l-4.07 21.168c-9.233 2.452-18.052 6.105-26.32 10.904l-17.848-12.091c-2.979-2.018-6.967-1.636-9.51.905l-23.235 23.235c-2.543 2.543-2.923 6.533-.906 9.51l12.091 17.849c-4.8 8.27-8.453 17.088-10.905 26.32l-21.167 4.07c-3.531.68-6.083 3.77-6.083 7.365v32.859c0 3.596 2.552 6.686 6.083 7.365l21.167 4.07c2.452 9.232 6.106 18.052 10.905 26.32l-12.091 17.849c-2.017 2.977-1.637 6.967.906 9.51l23.235 23.235c2.542 2.543 6.532 2.924 9.51.905l17.848-12.091c8.268 4.8 17.085 8.453 26.32 10.905l4.07 21.167c.679 3.531 3.769 6.084 7.365 6.084h32.859c3.596 0 6.686-2.553 7.365-6.084l4.07-21.167c9.235-2.452 18.053-6.105 26.32-10.905l17.849 12.091c2.976 2.017 6.966 1.638 9.51-.905l23.235-23.235c2.542-2.543 2.923-6.533.905-9.51l-12.091-17.849c4.8-8.269 8.453-17.088 10.905-26.32l21.167-4.07c3.531-.68 6.084-3.77 6.084-7.365v-32.859c.002-3.595-2.551-6.685-6.082-7.365zm-8.916 34.029-19.824 3.812c-2.95.567-5.277 2.841-5.914 5.776-2.357 10.877-6.61 21.143-12.642 30.512-1.626 2.526-1.588 5.778.098 8.266l11.324 16.717-14.475 14.475-16.717-11.324c-2.487-1.688-5.741-1.722-8.266-.098-9.367 6.03-19.633 10.284-30.512 12.642-2.936.637-5.209 2.964-5.776 5.914l-3.812 19.824h-20.469l-3.812-19.824c-.567-2.95-2.84-5.277-5.776-5.914-10.879-2.357-21.145-6.61-30.511-12.642-2.527-1.625-5.779-1.59-8.267.098l-16.716 11.324-14.474-14.475 11.324-16.717c1.685-2.487 1.723-5.739.097-8.266-6.031-9.37-10.285-19.635-12.641-30.511-.636-2.937-2.963-5.21-5.914-5.777l-19.825-3.812v-20.469l19.825-3.812c2.95-.567 5.277-2.841 5.914-5.776 2.356-10.876 6.61-21.142 12.641-30.512 1.626-2.526 1.587-5.779-.097-8.266l-11.324-16.717 14.474-14.475 16.716 11.324c2.488 1.687 5.74 1.722 8.266.098 9.369-6.03 19.634-10.283 30.512-12.641 2.936-.637 5.209-2.964 5.776-5.914l3.812-19.825h20.469l3.812 19.825c.567 2.95 2.841 5.277 5.776 5.914 10.879 2.357 21.145 6.61 30.512 12.641 2.524 1.625 5.778 1.589 8.266-.098l16.717-11.324 14.475 14.475-11.324 16.717c-1.686 2.486-1.724 5.739-.098 8.266 6.031 9.37 10.284 19.636 12.642 30.512.637 2.936 2.964 5.209 5.914 5.776l19.824 3.812z"/><path d="m323.77 368.49c-4.143 0-7.5 3.357-7.5 7.5v.22c0 13.32-4.351 25.638-11.695 35.625v-8.928c0-14.061-10.405-25.735-23.92-27.732 2.157-3.97 3.383-8.515 3.383-13.342 0-15.46-12.577-28.037-28.037-28.037-15.459 0-28.037 12.577-28.037 28.037 0 4.827 1.226 9.372 3.383 13.342-13.514 1.998-23.92 13.671-23.92 27.732v8.928c-7.345-9.987-11.696-22.306-11.696-35.626 0-33.232 27.037-60.27 60.27-60.27 21.449 0 41.445 11.539 52.188 30.114 2.073 3.586 6.661 4.811 10.247 2.737 3.585-2.073 4.812-6.661 2.737-10.247-13.414-23.193-38.387-37.603-65.173-37.603-41.504 0-75.27 33.766-75.27 75.27s33.766 75.27 75.27 75.27 75.27-33.767 75.27-75.271v-.22c0-4.141-3.358-7.499-7.5-7.499zm-67.77-19.694c7.188 0 13.037 5.849 13.037 13.037s-5.849 13.037-13.037 13.037-13.037-5.849-13.037-13.037 5.849-13.037 13.037-13.037zm-33.574 77.441v-23.33c0-7.188 5.849-13.037 13.037-13.037h41.074c7.188 0 13.037 5.849 13.037 13.037v23.33c-9.601 6.465-21.154 10.243-33.574 10.243s-23.973-3.778-33.574-10.243z"/><path d="m131.75 60.52c-30.852 0-58.251 18.477-69.804 47.071-1.551 3.841.304 8.212 4.145 9.764s8.212-.304 9.764-4.145c9.25-22.896 31.191-37.69 55.896-37.69 33.233 0 60.27 27.037 60.27 60.271 0 13.32-4.351 25.638-11.696 35.625v-8.926c0-14.061-10.406-25.735-23.92-27.732 2.157-3.97 3.383-8.515 3.383-13.342 0-15.46-12.578-28.038-28.037-28.038s-28.037 12.578-28.037 28.038c0 4.827 1.226 9.372 3.383 13.342-13.514 1.998-23.92 13.671-23.92 27.732v8.928c-5.805-7.87-9.755-17.217-11.144-27.428-.559-4.104-4.34-6.989-8.443-6.421-4.104.559-6.979 4.339-6.42 8.443 5.046 37.083 37.109 65.048 74.582 65.048 41.504 0 75.27-33.766 75.27-75.27s-33.768-75.27-75.272-75.27zm0 47.857c7.188 0 13.037 5.849 13.037 13.038 0 7.188-5.849 13.037-13.037 13.037s-13.037-5.849-13.037-13.037c0-7.189 5.849-13.038 13.037-13.038zm-33.574 77.395v-23.283c0-7.188 5.849-13.037 13.037-13.037h41.074c7.188 0 13.037 5.849 13.037 13.037v23.327c-9.601 6.465-21.154 10.243-33.574 10.243-12.323.001-23.911-3.781-33.574-10.287z"/></g></g></svg>