<?xml version="1.0" encoding="iso-8859-1"?>
<!-- Generator: Adobe Illustrator 19.0.0, SVG Export Plug-In . SVG Version: 6.00 Build 0)  -->
<svg version="1.1" id="Capa_1" xmlns="http://www.w3.org/2000/svg" xmlns:xlink="http://www.w3.org/1999/xlink" x="0px" y="0px"
	 viewBox="0 0 512 512" style="enable-background:new 0 0 512 512;" xml:space="preserve">
<g>
	<g>
		<path d="M388.022,18.343C354.021,7.01,309.552,0.559,262.217,0.039c-0.004,0-0.009,0-0.013,0C260.141,0.016,258.074,0,256,0
			c-2.074,0-4.141,0.016-6.204,0.038c-0.004,0-0.009,0-0.013,0c-47.335,0.52-91.804,6.971-125.805,18.305
			C71.928,35.693,61.001,58.728,61,74.998v301.003c0,0,0,0,0,0.001c0.001,12.008,5.958,27.7,30,42.072V452
			c0,25.246,30.428,38.928,54.624,46.188C175.314,507.095,214.514,512,256,512c41.486,0,80.686-4.905,110.376-13.813
			C390.568,490.93,421,477.248,421,452v-33.924c24.044-14.374,30-30.066,30-42.075V74.998
			C450.999,58.728,440.072,35.693,388.022,18.343z M256,30c27.727,0,76.78,3.19,100.662,15C333.101,56.651,284.711,60,256,60
			c-28.636,0-77.251-3.42-100.662-15C178.894,33.349,227.282,30,256,30z M112.863,395.85C96.037,387.445,91,379.657,91,376.001
			V117.075c7.902,4.724,17.759,9.304,30,13.565c0,12.625,0,257.082,0,268.912c-2.853-1.19-5.461-2.377-7.832-3.553
			C113.069,395.945,112.964,395.902,112.863,395.85z M391,451.849c-0.71,2.086-8.742,10.845-37.16,18.733
			C327.318,477.945,292.571,482,256,482c-36.572,0-71.318-4.055-97.84-11.417c-28.417-7.889-36.45-16.647-37.16-18.733v-20.21
			C161.854,445.842,212.568,451,256,451c43.184,0,94.08-5.114,135-19.359V451.849z M151,409.3c0-4.692,0-260.866,0-270.154
			c9.52,2.178,19.554,4.048,30,5.589v270.669C170.438,413.726,160.393,411.684,151,409.3z M211,419.066v-270.9
			c9.791,0.813,19.817,1.359,30,1.631v270.99C230.777,420.501,220.748,419.923,211,419.066z M271,420.787v-270.99
			c10.183-0.271,20.209-0.818,30-1.631v270.9C291.252,419.923,281.223,420.501,271,420.787z M331,415.404V144.735
			c10.446-1.541,20.48-3.411,30-5.589c0,9.322,0,265.472,0,270.154C351.607,411.685,341.562,413.726,331,415.404z M421,376.002
			c0,3.656-5.037,11.445-21.864,19.85c-1.487,0.763-4.78,2.302-8.136,3.701c0-11.767,0-256.232,0-268.913
			c12.241-4.261,22.098-8.842,30-13.565V376.002z M378.536,103.196C341.256,115.625,295.142,120,256,120C155.284,120,91,92.05,91,75
			c0-4.238,6.764-14.026,30.809-23.891C131.059,85.376,220.508,90,256,90c35.496,0,124.941-4.625,134.191-38.891
			C414.236,60.974,421,70.762,421,75C421,79.856,412.125,92,378.536,103.196z"/>
	</g>
</g>
<g>
</g>
<g>
</g>
<g>
</g>
<g>
</g>
<g>
</g>
<g>
</g>
<g>
</g>
<g>
</g>
<g>
</g>
<g>
</g>
<g>
</g>
<g>
</g>
<g>
</g>
<g>
</g>
<g>
</g>
</svg>
