<svg height="512" viewBox="0 0 16 16" width="512" xmlns="http://www.w3.org/2000/svg"><path d="m15.062 6.14795c-.25-.292969-.486328-.569824-.593262-.827148-.115234-.277832-.146973-.654297-.181152-1.05273-.0561523-.663086-.120117-1.41455-.630859-1.9248-.510254-.510742-1.26172-.574707-1.92432-.630859-.398926-.0341797-.775391-.065918-1.05322-.181152-.257324-.106934-.53418-.343262-.827148-.593262-.515137-.439453-1.09863-.937988-1.85205-.937988-.753418 0-1.33691.498535-1.85205.937988-.292969.25-.569824.486328-.827148.593262-.277832.115234-.654297.146973-1.05273.181152-.663086.0561524-1.41455.120117-1.9248.630859-.510742.510254-.574707 1.26172-.630859 1.92432-.0341796.398926-.0659179.775391-.181152 1.05322-.106934.257324-.343262.53418-.593262.827148-.439453.515137-.937988 1.09863-.937988 1.85205 0 .753418.498535 1.33691.937988 1.85205.25.292969.486328.569824.593262.827148.115234.277832.146973.654297.181152 1.05273.0561523.663086.120117 1.41455.630859 1.9248.510254.510742 1.26172.574707 1.92432.630859.398926.0341797.775391.065918 1.05322.181152.257324.106934.53418.343262.827148.593262.515137.439453 1.09863.937988 1.85205.937988.753418 0 1.33691-.498535 1.85205-.937988.292969-.25.569824-.486328.827148-.593262.277832-.115234.654297-.146973 1.05273-.181152.663086-.0561523 1.41455-.120117 1.9248-.630859.510742-.510254.574707-1.26172.630859-1.92432.0341797-.398926.065918-.775391.181152-1.05322.106934-.257324.343262-.53418.593262-.827148.439453-.515137.937988-1.09863.937988-1.85205 0-.753418-.498535-1.33691-.937988-1.85205zm-.760742 3.05469c-.289551.339355-.588867.689941-.756348 1.09375-.174316.421387-.214844.894043-.253418 1.35107-.0458984.540039-.0893555 1.05029-.341797 1.30225-.251953.252441-.762212.29541-1.30225.341797-.457031.0385742-.929688.0791016-1.35107.253418-.403809.16748-.754395.466797-1.09375.756348-.420898.359375-.818359.69873-1.20264.69873-.384277 0-.781738-.339355-1.20264-.69873-.339355-.289551-.689941-.588867-1.09375-.756348-.421387-.174316-.894043-.214844-1.35107-.253418-.540044-.0458984-1.05029-.0893555-1.30225-.341797-.252441-.251953-.29541-.762207-.341797-1.30225-.0385742-.457031-.0791016-.929688-.253418-1.35107-.16748-.403809-.466797-.754395-.756348-1.09375-.359375-.420898-.69873-.818359-.69873-1.20264 0-.384277.339355-.781738.69873-1.20264.289551-.339355.588867-.689941.756348-1.09375.174316-.421387.214844-.894043.253418-1.35107.0458983-.540039.0893554-1.05029.341797-1.30225.251953-.252441.762202-.29541 1.30225-.341797.457031-.0385742.929688-.0791016 1.35107-.253418.403809-.16748.754395-.466797 1.09375-.756348.420898-.359375.818359-.69873 1.20264-.69873.384277 0 .781738.339355 1.20264.69873.339355.289551.689941.588867 1.09375.756348.421387.174316.894043.214844 1.35107.253418.540034.0458984 1.05029.0893555 1.30225.341797.252441.251953.29541.762207.341797 1.30225.0385742.457031.0791016.929688.253418 1.35107.16748.403809.466797.754395.756348 1.09375.359375.420898.69873.818359.69873 1.20264 0 .384277-.339355.781738-.69873 1.20264z"/><path d="m5 0c-2.75684 0-5 2.24316-5 5h1c0-2.20557 1.79443-4 4-4z" transform="translate(3 3)"/><path d="m0 4v1c2.75684 0 5-2.24316 5-5h-1c0 2.20557-1.79443 4-4 4z" transform="translate(8 8)"/></svg>