<svg id="separated" enable-background="new 0 0 300 300" height="512" viewBox="0 0 300 300" width="512" xmlns="http://www.w3.org/2000/svg"><g><path d="m66.785 127.611c-1.445 1.67-1.266 4.195.402 5.643 4.48 3.885 9.598 6.779 15.219 8.605.41.133.824.197 1.234.197 1.688 0 3.254-1.076 3.805-2.766.684-2.102-.469-4.357-2.57-5.041-4.594-1.492-8.781-3.861-12.445-7.039-1.668-1.444-4.192-1.269-5.645.401z"/><path d="m56.973 90.324c.445.158.898.234 1.344.234 1.645 0 3.184-1.021 3.766-2.656 1.625-4.549 4.113-8.668 7.395-12.242 1.496-1.627 1.387-4.156-.238-5.65-1.621-1.494-4.152-1.389-5.652.24-4.012 4.365-7.051 9.4-9.035 14.961-.748 2.082.338 4.369 2.42 5.113z"/><path d="m124.441 128.412c.742.609 1.637.904 2.527.904 1.16 0 2.309-.5 3.102-1.467 3.75-4.588 6.496-9.789 8.164-15.457.621-2.119-.594-4.342-2.711-4.965-2.141-.627-4.34.592-4.969 2.711-1.359 4.637-3.605 8.891-6.68 12.645-1.397 1.711-1.144 4.231.567 5.629z"/><path d="m60.105 121.652c.594 0 1.195-.133 1.766-.412 1.98-.979 2.797-3.377 1.816-5.357-2.133-4.33-3.355-8.98-3.629-13.822-.121-2.203-2.047-3.912-4.215-3.77-2.207.125-3.895 2.014-3.77 4.219.332 5.922 1.824 11.613 4.441 16.912.697 1.412 2.115 2.23 3.591 2.23z"/><path d="m95.438 140.193c.176 2.088 1.926 3.662 3.98 3.662.113 0 .227-.004.344-.014 5.902-.502 11.547-2.158 16.777-4.922 1.953-1.033 2.699-3.453 1.664-5.406-1.031-1.951-3.449-2.701-5.406-1.668-4.27 2.26-8.887 3.613-13.715 4.023-2.199.189-3.832 2.124-3.644 4.325z"/><path d="m79.383 67.609c.555 0 1.121-.117 1.66-.365 4.387-2.008 9.07-3.094 13.926-3.23 2.207-.061 3.945-1.902 3.887-4.109-.062-2.209-1.984-3.971-4.113-3.887-5.934.166-11.664 1.496-17.027 3.953-2.012.92-2.891 3.293-1.973 5.303.671 1.468 2.12 2.335 3.64 2.335z"/><path d="m109.059 66.441c4.504 1.756 8.551 4.359 12.027 7.74.777.756 1.785 1.133 2.789 1.133 1.043 0 2.082-.404 2.867-1.211 1.539-1.584 1.504-4.117-.078-5.656-4.25-4.133-9.195-7.314-14.699-9.459-2.059-.801-4.375.213-5.18 2.273-.801 2.059.215 4.38 2.274 5.18z"/><path d="m131.297 80.744c-2.035.859-2.984 3.207-2.125 5.24 1.875 4.442 2.828 9.157 2.828 14.016 0 2.209 1.789 4 4 4s4-1.791 4-4c0-5.934-1.164-11.697-3.461-17.129-.859-2.037-3.211-2.988-5.242-2.127z"/><path d="m136 156h-80c-2.211 0-4 1.791-4 4v80c0 2.209 1.789 4 4 4h80c2.211 0 4-1.791 4-4v-80c0-2.209-1.789-4-4-4zm-4 80h-72v-72h72z"/><path d="m204 156c-24.262 0-44 19.738-44 44s19.738 44 44 44 44-19.738 44-44-19.738-44-44-44zm0 80c-19.852 0-36-16.15-36-36s16.148-36 36-36 36 16.15 36 36-16.148 36-36 36z"/><path d="m244 56h-80c-2.211 0-4 1.791-4 4v80c0 2.209 1.789 4 4 4h80c2.211 0 4-1.791 4-4v-80c0-2.209-1.789-4-4-4zm-4 80h-72v-72h72z"/><path d="m204 184c-8.824 0-16 7.178-16 16s7.176 16 16 16 16-7.178 16-16-7.176-16-16-16zm0 24c-4.41 0-8-3.588-8-8s3.59-8 8-8 8 3.588 8 8-3.59 8-8 8z"/></g></svg>