<svg width="427" height="140" viewBox="0 0 427 140" fill="none" xmlns="http://www.w3.org/2000/svg">
<g filter="url(#filter0_f_461_140)">
<path d="M203.93 29.5505L243.188 53.4838L232.992 98.2977L199.778 112.401L160.765 88.9563L170.717 44.0814L203.93 29.5505Z" fill="url(#paint0_radial_461_140)"/>
</g>
<g filter="url(#filter1_f_461_140)">
<path d="M204.657 4.87384L249.331 32.1089L237.729 83.1054L199.933 99.1547L155.537 72.4753L166.861 21.4094L204.657 4.87384Z" fill="url(#paint1_radial_461_140)"/>
<path d="M167.436 21.8822L204.607 5.62017L248.579 32.4271L237.157 82.6273L199.985 98.4118L156.288 72.1526L167.436 21.8822Z" stroke="#4205F0" stroke-width="1.32705"/>
</g>
<path d="M182.474 56.3788L179.332 50.1406H180.64L183.161 55.016" fill="#F3F3F3"/>
<path d="M179.565 57.4547H178.199L181.633 50.3359H182.976L179.565 57.4547Z" fill="#F3F3F3"/>
<path d="M178.514 50.0379C178.367 49.5688 178.164 49.1641 177.907 48.8239L177.914 48.8084L177.887 48.7972C177.755 48.6268 177.61 48.4719 177.45 48.3343C176.967 47.9178 176.337 47.709 175.564 47.709C174.791 47.709 174.163 47.9178 173.683 48.3343C173.203 48.7507 172.85 49.319 172.625 50.0379C172.4 50.7568 172.287 51.5662 172.287 52.4648C172.287 53.3634 172.4 54.1727 172.625 54.8916C172.776 55.3706 172.983 55.7828 173.246 56.1273L173.237 56.1465L173.258 56.1441C173.387 56.3102 173.528 56.4607 173.683 56.5952C174.163 57.0117 174.79 57.2205 175.563 57.2205C176.337 57.2205 176.966 57.0123 177.45 56.5952C177.933 56.1781 178.288 55.6105 178.514 54.8916C178.739 54.1727 178.852 53.364 178.852 52.4648C178.852 51.5655 178.739 50.7574 178.514 50.0379ZM173.532 54.4256C173.387 53.8536 173.314 53.1997 173.314 52.4648C173.314 51.7298 173.387 51.076 173.532 50.5039C173.677 49.9319 173.915 49.4808 174.246 49.1498C174.576 48.8189 175.015 48.6534 175.563 48.6534C176.005 48.6534 176.376 48.7582 176.676 48.9676L173.756 55.0626C173.666 54.8699 173.591 54.658 173.532 54.4256ZM177.607 54.4256C177.462 54.9976 177.224 55.4487 176.894 55.7797C176.563 56.1106 176.119 56.2761 175.563 56.2761C175.143 56.2761 174.787 56.1788 174.495 55.9842L174.53 55.9798L177.399 49.8997C177.482 50.0832 177.551 50.2846 177.607 50.5033C177.752 51.0753 177.825 51.7291 177.825 52.4641C177.825 53.1991 177.752 53.8536 177.607 54.4249V54.4256Z" fill="#F3F3F3"/>
<path d="M199.119 53.3951H195.634V55.6284H199.476L199.304 56.7084H194.268V49.3164H199.272V50.4041H195.634V52.304H199.119V53.3951Z" fill="#F3F3F3"/>
<path d="M203.513 50.4075H201.307V49.3164H207.133V50.4075H204.923V56.7084H203.513V50.4075Z" fill="#F3F3F3"/>
<path d="M209.332 49.3164H210.73V52.3006H213.902V49.3164H215.304V56.7084H213.902V53.3917H210.73V56.7084H209.332V49.3164Z" fill="#F3F3F3"/>
<path d="M223.169 53.3951H219.684V55.6284H223.526L223.354 56.7084H218.318V49.3164H223.322V50.4041H219.684V52.304H223.169V53.3951Z" fill="#F3F3F3"/>
<path d="M227.262 53.5485V56.7075H225.885V49.3164H228.967C230.43 49.3164 231.47 49.9932 231.47 51.2837C231.47 52.3117 230.862 52.7933 230.214 53.0115C231.014 53.2826 231.321 53.8724 231.321 54.8203V54.9925C231.321 55.6574 231.353 56.2864 231.428 56.7084H230.071C229.96 56.4032 229.928 55.8415 229.928 54.9797V54.8007C229.928 53.8852 229.571 53.5494 228.444 53.5494H227.261L227.262 53.5485ZM227.262 52.5018H228.556C229.415 52.5018 230.075 52.281 230.075 51.3886C230.075 50.6683 229.532 50.3623 228.783 50.3623H227.263V52.5009L227.262 52.5018Z" fill="#F3F3F3"/>
<path d="M188.367 48.709C189.731 51.3309 191.084 53.9316 192.452 56.5604C192.161 56.4513 191.898 56.3533 191.636 56.2552C191.392 56.164 191.15 56.0694 190.904 55.9833C190.81 55.9501 190.755 55.8972 190.713 55.8111C189.949 54.2649 189.181 52.7203 188.415 51.1758C188.402 51.1511 188.39 51.1264 188.367 51.0812C188.215 51.3872 188.071 51.6762 187.927 51.966C187.29 53.2514 186.652 54.5359 186.017 55.8222C185.975 55.9057 185.919 55.9492 185.831 55.9816C185.347 56.1598 184.864 56.343 184.381 56.5237C184.357 56.5323 184.333 56.5391 184.287 56.5536C185.649 53.9325 187.003 51.3309 188.367 48.709Z" fill="#4205F0"/>
<g filter="url(#filter2_f_461_140)">
<rect x="331.998" y="24.668" width="92.2609" height="83.3324" fill="url(#paint2_radial_461_140)"/>
<rect x="332.437" y="25.1069" width="91.3831" height="82.4546" stroke="#4205F0" stroke-width="0.877826"/>
</g>
<g opacity="0.5" filter="url(#filter3_f_461_140)">
<rect x="349.26" y="8" width="58.3327" height="69.0469" fill="url(#paint3_radial_461_140)"/>
<rect x="349.699" y="8.43891" width="57.4549" height="68.1691" stroke="#4205F0" stroke-width="0.877826"/>
</g>
<g filter="url(#filter4_f_461_140)">
<path d="M348.962 77.0449H408.188L424.259 107.997H331.998L348.962 77.0449Z" fill="url(#paint4_radial_461_140)" fill-opacity="0.3"/>
<path d="M332.739 107.558L349.222 77.4838H407.921L423.537 107.558H332.739Z" stroke="#4205F0" stroke-width="0.877826"/>
</g>
<g filter="url(#filter5_f_461_140)">
<path d="M349.855 8H406.997L424.259 24.6665H331.998L349.855 8Z" fill="url(#paint5_radial_461_140)"/>
<path d="M333.112 24.2276L350.028 8.43891H406.82L423.173 24.2276H333.112Z" stroke="#4205F0" stroke-width="0.877826"/>
</g>
<path d="M345.599 48.3897H346.751V52.0965C346.751 52.5281 346.659 52.8916 346.474 53.187C346.291 53.4824 346.038 53.7046 345.714 53.8536C345.393 54.0026 345.023 54.0771 344.605 54.0771C344.186 54.0771 343.814 54.0026 343.487 53.8536C343.164 53.7046 342.909 53.4824 342.724 53.187C342.542 52.8916 342.451 52.5281 342.451 52.0965V48.3897H343.607V52.0965C343.607 52.3483 343.647 52.5538 343.726 52.713C343.806 52.8723 343.92 52.9892 344.069 53.0637C344.221 53.1382 344.399 53.1754 344.605 53.1754C344.815 53.1754 344.994 53.1382 345.14 53.0637C345.289 52.9892 345.402 52.8723 345.479 52.713C345.559 52.5538 345.599 52.3483 345.599 52.0965V48.3897ZM351.413 52.5319C351.413 52.4317 351.397 52.3418 351.366 52.2622C351.338 52.18 351.284 52.1055 351.205 52.0387C351.125 51.9694 351.013 51.9013 350.869 51.8345C350.725 51.7677 350.539 51.6983 350.311 51.6264C350.056 51.5442 349.815 51.4517 349.586 51.349C349.36 51.2462 349.16 51.1268 348.985 50.9906C348.813 50.8519 348.677 50.6914 348.577 50.509C348.479 50.3266 348.43 50.1147 348.43 49.8732C348.43 49.6394 348.482 49.4275 348.584 49.2374C348.687 49.0448 348.831 48.8804 349.016 48.7442C349.201 48.6055 349.419 48.4989 349.671 48.4244C349.925 48.3499 350.204 48.3127 350.507 48.3127C350.921 48.3127 351.282 48.3872 351.59 48.5361C351.898 48.6851 352.137 48.8894 352.307 49.1488C352.479 49.4083 352.565 49.705 352.565 50.0389H351.416C351.416 49.8745 351.382 49.7306 351.312 49.6073C351.246 49.4815 351.143 49.3826 351.004 49.3106C350.868 49.2387 350.696 49.2028 350.488 49.2028C350.287 49.2028 350.121 49.2336 349.987 49.2952C349.853 49.3543 349.753 49.4352 349.686 49.538C349.62 49.6382 349.586 49.7512 349.586 49.8771C349.586 49.9721 349.609 50.0582 349.656 50.1352C349.704 50.2123 349.776 50.2842 349.871 50.351C349.966 50.4178 350.083 50.4807 350.222 50.5398C350.361 50.5989 350.521 50.6567 350.704 50.7132C351.009 50.8057 351.278 50.9097 351.509 51.0253C351.743 51.1409 351.938 51.2706 352.095 51.4145C352.251 51.5583 352.37 51.7215 352.449 51.9039C352.529 52.0862 352.569 52.293 352.569 52.5242C352.569 52.7683 352.521 52.9866 352.426 53.1793C352.331 53.3719 352.194 53.535 352.014 53.6686C351.834 53.8022 351.619 53.9037 351.37 53.973C351.121 54.0424 350.842 54.0771 350.534 54.0771C350.257 54.0771 349.983 54.0411 349.713 53.9692C349.444 53.8947 349.198 53.7829 348.977 53.6339C348.759 53.485 348.584 53.2949 348.453 53.0637C348.322 52.8325 348.257 52.5589 348.257 52.2429H349.417C349.417 52.4176 349.444 52.5653 349.498 52.6861C349.552 52.8068 349.627 52.9044 349.725 52.9789C349.825 53.0534 349.943 53.1073 350.079 53.1407C350.218 53.1741 350.37 53.1908 350.534 53.1908C350.734 53.1908 350.899 53.1626 351.027 53.1061C351.158 53.0495 351.255 52.9712 351.316 52.871C351.381 52.7708 351.413 52.6578 351.413 52.5319ZM357.908 53.0983V54H354.922V53.0983H357.908ZM355.3 48.3897V54H354.144V48.3897H355.3ZM357.519 50.6747V51.5532H354.922V50.6747H357.519ZM357.905 48.3897V49.2952H354.922V48.3897H357.905ZM359.372 48.3897H361.464C361.893 48.3897 362.262 48.4539 362.57 48.5824C362.881 48.7108 363.12 48.9009 363.287 49.1527C363.454 49.4044 363.537 49.7139 363.537 50.0813C363.537 50.3818 363.486 50.64 363.383 50.8558C363.283 51.069 363.14 51.2475 362.955 51.3914C362.773 51.5327 362.558 51.6457 362.312 51.7305L361.946 51.9231H360.127L360.119 51.0215H361.472C361.675 51.0215 361.843 50.9855 361.977 50.9136C362.11 50.8417 362.21 50.7415 362.277 50.613C362.347 50.4846 362.381 50.3356 362.381 50.1661C362.381 49.9862 362.348 49.8308 362.281 49.6998C362.214 49.5688 362.113 49.4686 361.977 49.3993C361.84 49.3299 361.67 49.2952 361.464 49.2952H360.528V54H359.372V48.3897ZM362.508 54L361.229 51.4993L362.451 51.4916L363.745 53.9461V54H362.508ZM371.223 52.1389H372.375C372.352 52.5165 372.248 52.8517 372.063 53.1446C371.88 53.4374 371.625 53.6661 371.296 53.8305C370.97 53.9949 370.577 54.0771 370.117 54.0771C369.757 54.0771 369.435 54.0154 369.15 53.8921C368.865 53.7662 368.621 53.5864 368.418 53.3527C368.217 53.1189 368.064 52.8363 367.959 52.505C367.854 52.1736 367.801 51.8024 367.801 51.3914V51.0022C367.801 50.5912 367.855 50.22 367.963 49.8886C368.073 49.5547 368.23 49.2708 368.433 49.0371C368.639 48.8033 368.884 48.6235 369.169 48.4976C369.454 48.3717 369.773 48.3088 370.125 48.3088C370.592 48.3088 370.986 48.3936 371.308 48.5631C371.631 48.7327 371.882 48.9664 372.059 49.2644C372.239 49.5624 372.347 49.9015 372.383 50.2817H371.227C371.214 50.0556 371.169 49.8642 371.092 49.7075C371.015 49.5483 370.898 49.4288 370.741 49.3492C370.587 49.267 370.381 49.2259 370.125 49.2259C369.932 49.2259 369.764 49.2618 369.62 49.3338C369.476 49.4057 369.355 49.5149 369.258 49.6613C369.16 49.8077 369.087 49.9927 369.038 50.2161C368.992 50.4371 368.969 50.6965 368.969 50.9945V51.3914C368.969 51.6817 368.99 51.9372 369.034 52.1582C369.078 52.3765 369.145 52.5615 369.235 52.713C369.327 52.862 369.445 52.975 369.589 53.0521C369.735 53.1266 369.911 53.1639 370.117 53.1639C370.358 53.1639 370.557 53.1253 370.714 53.0483C370.871 52.9712 370.99 52.8569 371.072 52.7053C371.157 52.5538 371.207 52.365 371.223 52.1389ZM378.532 51.0639V51.3297C378.532 51.7561 378.474 52.1389 378.358 52.478C378.243 52.8171 378.079 53.1061 377.869 53.345C377.658 53.5813 377.406 53.7624 377.114 53.8883C376.823 54.0141 376.501 54.0771 376.146 54.0771C375.794 54.0771 375.472 54.0141 375.179 53.8883C374.889 53.7624 374.637 53.5813 374.424 53.345C374.211 53.1061 374.045 52.8171 373.927 52.478C373.811 52.1389 373.754 51.7561 373.754 51.3297V51.0639C373.754 50.6349 373.811 50.2521 373.927 49.9156C374.043 49.5765 374.206 49.2875 374.416 49.0486C374.63 48.8097 374.881 48.6273 375.172 48.5015C375.464 48.3756 375.787 48.3127 376.139 48.3127C376.493 48.3127 376.816 48.3756 377.106 48.5015C377.399 48.6273 377.65 48.8097 377.861 49.0486C378.074 49.2875 378.239 49.5765 378.354 49.9156C378.472 50.2521 378.532 50.6349 378.532 51.0639ZM377.364 51.3297V51.0561C377.364 50.7582 377.337 50.4961 377.283 50.2701C377.229 50.044 377.15 49.8539 377.044 49.6998C376.939 49.5457 376.81 49.4301 376.659 49.353C376.507 49.2734 376.334 49.2336 376.139 49.2336C375.943 49.2336 375.77 49.2734 375.619 49.353C375.47 49.4301 375.342 49.5457 375.237 49.6998C375.134 49.8539 375.056 50.044 375.002 50.2701C374.948 50.4961 374.921 50.7582 374.921 51.0561V51.3297C374.921 51.6251 374.948 51.8872 375.002 52.1158C375.056 52.3418 375.136 52.5332 375.241 52.6899C375.346 52.844 375.475 52.9609 375.626 53.0406C375.778 53.1202 375.951 53.16 376.146 53.16C376.342 53.16 376.515 53.1202 376.667 53.0406C376.818 52.9609 376.945 52.844 377.048 52.6899C377.151 52.5332 377.229 52.3418 377.283 52.1158C377.337 51.8872 377.364 51.6251 377.364 51.3297ZM384.719 48.3897V54H383.563L381.309 50.2393V54H380.153V48.3897H381.309L383.567 52.1543V48.3897H384.719ZM388.907 48.3897V54H387.755V48.3897H388.907ZM390.633 48.3897V49.2952H386.055V48.3897H390.633ZM392.081 48.3897H394.173C394.602 48.3897 394.971 48.4539 395.279 48.5824C395.59 48.7108 395.829 48.9009 395.996 49.1527C396.163 49.4044 396.246 49.7139 396.246 50.0813C396.246 50.3818 396.195 50.64 396.092 50.8558C395.992 51.069 395.849 51.2475 395.664 51.3914C395.482 51.5327 395.268 51.6457 395.021 51.7305L394.655 51.9231H392.836L392.828 51.0215H394.181C394.384 51.0215 394.552 50.9855 394.686 50.9136C394.819 50.8417 394.92 50.7415 394.986 50.613C395.056 50.4846 395.09 50.3356 395.09 50.1661C395.09 49.9862 395.057 49.8308 394.99 49.6998C394.923 49.5688 394.822 49.4686 394.686 49.3993C394.55 49.3299 394.379 49.2952 394.173 49.2952H393.237V54H392.081V48.3897ZM395.217 54L393.938 51.4993L395.16 51.4916L396.454 53.9461V54H395.217ZM400.207 49.3492L398.681 54H397.452L399.536 48.3897H400.318L400.207 49.3492ZM401.474 54L399.945 49.3492L399.821 48.3897H400.611L402.707 54H401.474ZM401.405 51.9116V52.8171H398.442V51.9116H401.405ZM407.199 52.1389H408.352C408.328 52.5165 408.224 52.8517 408.039 53.1446C407.857 53.4374 407.601 53.6661 407.273 53.8305C406.946 53.9949 406.553 54.0771 406.094 54.0771C405.734 54.0771 405.412 54.0154 405.126 53.8921C404.841 53.7662 404.597 53.5864 404.394 53.3527C404.194 53.1189 404.041 52.8363 403.936 52.505C403.83 52.1736 403.778 51.8024 403.778 51.3914V51.0022C403.778 50.5912 403.832 50.22 403.94 49.8886C404.05 49.5547 404.207 49.2708 404.41 49.0371C404.615 48.8033 404.861 48.6235 405.146 48.4976C405.431 48.3717 405.749 48.3088 406.101 48.3088C406.569 48.3088 406.963 48.3936 407.284 48.5631C407.608 48.7327 407.858 48.9664 408.036 49.2644C408.215 49.5624 408.323 49.9015 408.359 50.2817H407.203C407.19 50.0556 407.145 49.8642 407.068 49.7075C406.991 49.5483 406.874 49.4288 406.718 49.3492C406.564 49.267 406.358 49.2259 406.101 49.2259C405.909 49.2259 405.74 49.2618 405.596 49.3338C405.453 49.4057 405.332 49.5149 405.234 49.6613C405.137 49.8077 405.063 49.9927 405.015 50.2161C404.968 50.4371 404.945 50.6965 404.945 50.9945V51.3914C404.945 51.6817 404.967 51.9372 405.011 52.1582C405.054 52.3765 405.121 52.5615 405.211 52.713C405.304 52.862 405.422 52.975 405.566 53.0521C405.712 53.1266 405.888 53.1639 406.094 53.1639C406.335 53.1639 406.534 53.1253 406.691 53.0483C406.848 52.9712 406.967 52.8569 407.049 52.7053C407.134 52.5538 407.184 52.365 407.199 52.1389ZM412.293 48.3897V54H411.14V48.3897H412.293ZM414.019 48.3897V49.2952H409.441V48.3897H414.019Z" fill="#F3F3F3"/>
<path d="M357.782 71.3492L356.256 76H355.027L357.112 70.3897H357.894L357.782 71.3492ZM359.05 76L357.52 71.3492L357.397 70.3897H358.187L360.283 76H359.05ZM358.98 73.9116V74.8171H356.017V73.9116H358.98ZM366.158 70.3897V76H365.002L362.748 72.2393V76H361.592V70.3897H362.748L365.006 74.1543V70.3897H366.158ZM368.616 70.3897L369.787 72.9483L370.959 70.3897H372.219L370.373 73.9578V76H369.201V73.9578L367.352 70.3897H368.616Z" fill="#F3F3F3"/>
<g filter="url(#filter6_d_461_140)">
<g filter="url(#filter7_d_461_140)">
<path d="M385.081 73.2751H382.9L382.889 72.0743H384.719C385.042 72.0743 385.306 72.0335 385.512 71.9519C385.718 71.8664 385.871 71.744 385.972 71.5847C386.077 71.4214 386.13 71.2232 386.13 70.9901C386.13 70.7258 386.079 70.5121 385.978 70.3489C385.881 70.1856 385.728 70.0671 385.518 69.9933C385.312 69.9194 385.046 69.8825 384.719 69.8825H383.507V77H381.758V68.5127H384.719C385.213 68.5127 385.654 68.5593 386.042 68.6526C386.435 68.7458 386.767 68.8877 387.039 69.0781C387.311 69.2685 387.519 69.5095 387.663 69.8009C387.807 70.0885 387.879 70.4305 387.879 70.8269C387.879 71.1766 387.799 71.4992 387.64 71.7945C387.484 72.0899 387.237 72.3308 386.899 72.5173C386.565 72.7039 386.128 72.8068 385.588 72.8263L385.081 73.2751ZM385.005 77H382.422L383.104 75.636H385.005C385.312 75.636 385.562 75.5874 385.757 75.4902C385.951 75.3892 386.095 75.2532 386.188 75.0822C386.281 74.9112 386.328 74.7149 386.328 74.4934C386.328 74.2447 386.285 74.029 386.2 73.8464C386.118 73.6637 385.986 73.5238 385.803 73.4267C385.621 73.3256 385.38 73.2751 385.081 73.2751H383.396L383.408 72.0743H385.506L385.908 72.5465C386.425 72.5387 386.841 72.63 387.156 72.8204C387.474 73.007 387.706 73.2499 387.849 73.5491C387.997 73.8483 388.071 74.1689 388.071 74.5109C388.071 75.055 387.952 75.5135 387.715 75.8866C387.478 76.2558 387.13 76.5337 386.672 76.7202C386.217 76.9067 385.661 77 385.005 77ZM395.496 74.1845H397.239C397.204 74.7558 397.047 75.2629 396.767 75.7059C396.491 76.1489 396.104 76.4948 395.607 76.7435C395.113 76.9922 394.519 77.1166 393.823 77.1166C393.279 77.1166 392.791 77.0233 392.36 76.8368C391.929 76.6464 391.559 76.3743 391.252 76.0207C390.949 75.6671 390.718 75.2396 390.559 74.7383C390.399 74.237 390.32 73.6754 390.32 73.0536V72.4649C390.32 71.8431 390.401 71.2815 390.565 70.7802C390.732 70.275 390.969 69.8456 391.276 69.492C391.587 69.1383 391.958 68.8663 392.389 68.6759C392.821 68.4855 393.302 68.3902 393.835 68.3902C394.542 68.3902 395.139 68.5185 395.624 68.775C396.114 69.0315 396.493 69.3851 396.761 69.8359C397.033 70.2867 397.196 70.7997 397.251 71.3748H395.502C395.483 71.0328 395.415 70.7433 395.298 70.5062C395.181 70.2653 395.005 70.0846 394.768 69.9641C394.534 69.8398 394.223 69.7776 393.835 69.7776C393.543 69.7776 393.289 69.832 393.071 69.9408C392.854 70.0496 392.671 70.2148 392.523 70.4363C392.376 70.6578 392.265 70.9376 392.191 71.2757C392.121 71.6099 392.086 72.0024 392.086 72.4532V73.0536C392.086 73.4928 392.119 73.8794 392.185 74.2136C392.251 74.544 392.352 74.8238 392.488 75.053C392.628 75.2784 392.807 75.4494 393.025 75.566C393.246 75.6787 393.512 75.7351 393.823 75.7351C394.188 75.7351 394.49 75.6768 394.727 75.5602C394.964 75.4436 395.144 75.2707 395.269 75.0414C395.397 74.8121 395.473 74.5265 395.496 74.1845Z" fill="white"/>
</g>
</g>
<rect x="376.299" y="64.2985" width="26.4031" height="18.4031" rx="0.895368" stroke="#F4F4F4" stroke-width="0.596912"/>
<g filter="url(#filter8_f_461_140)">
<rect x="257" y="55.3828" width="61" height="1" fill="url(#paint6_linear_461_140)"/>
</g>
<path d="M321.375 56.6092L315.96 53.4833V59.7352L321.375 56.6092Z" fill="#4205F0"/>
<g filter="url(#filter9_f_461_140)">
<g filter="url(#filter10_f_461_140)">
<path d="M59.6383 89.8817C50.6931 89.8817 41.7497 89.8853 32.8045 89.8798C30.3992 89.8798 28.7099 88.6599 28.1547 86.5596C27.9648 85.8382 27.9301 85.1022 28.162 84.3991C29.1464 81.4332 29.9262 78.3814 31.5261 75.6602C35.301 69.2353 40.9151 65.559 48.2824 64.5125C48.8869 64.4267 49.2321 64.6878 49.6192 65.0622C52.6582 68.0007 56.1976 69.7302 60.5259 69.4326C64.0233 69.1915 66.9326 67.6336 69.3945 65.2266C70.041 64.5947 70.6345 64.4431 71.491 64.5947C80.3377 66.1763 86.3407 71.1383 89.4253 79.5923C89.9568 81.0478 90.4535 82.5144 90.9211 83.9918C91.8817 87.0253 89.9276 89.7666 86.7443 89.8817C86.4704 89.8908 86.1964 89.8853 85.9225 89.8853C77.1599 89.8853 68.3973 89.8853 59.6365 89.8853L59.6383 89.8817Z" fill="url(#paint7_radial_461_140)"/>
<path d="M60.7104 89.2218L60.7122 89.2181H59.6383C57.081 89.2181 54.5239 89.2184 51.9669 89.2187C45.5795 89.2195 39.1927 89.2202 32.8049 89.2163H32.8045C31.714 89.2163 30.8322 88.9406 30.1722 88.4679C29.5161 87.998 29.038 87.3045 28.7963 86.3905C28.6291 85.7553 28.6112 85.1558 28.792 84.6074C28.996 83.9927 29.1895 83.3814 29.3813 82.7754C30.1338 80.3979 30.8606 78.1014 32.0981 75.9965L32.0982 75.9964C35.7682 69.75 41.2035 66.1882 48.3757 65.1694C48.5544 65.1441 48.6583 65.1711 48.7442 65.2125C48.8522 65.2646 48.9711 65.3585 49.158 65.5392L49.6192 65.0622L49.158 65.5392C52.2957 68.5732 56.0104 70.4082 60.5715 70.0945L60.5716 70.0945C64.2564 69.8405 67.3075 68.1951 69.8583 65.701C70.1267 65.4388 70.3451 65.3134 70.5495 65.2539C70.7565 65.1936 71.0091 65.1833 71.3748 65.2479C79.9924 66.7887 85.7998 71.5916 88.802 79.8197L88.8021 79.8198C89.33 81.2657 89.8236 82.723 90.2885 84.192L90.2885 84.1922C90.7101 85.5235 90.4838 86.7486 89.8457 87.6469C89.2073 88.5456 88.1209 89.1677 86.7213 89.2185C86.5361 89.2247 86.3563 89.2237 86.1623 89.2226C86.085 89.2222 86.0055 89.2218 85.9225 89.2218H85.8711H85.8198H85.7685H85.7171H85.6658H85.6144H85.5631H85.5117H85.4604H85.4091H85.3577H85.3064H85.255H85.2037H85.1523H85.101H85.0497H84.9983H84.947H84.8956H84.8443H84.7929H84.7416H84.6903H84.6389H84.5876H84.5362H84.4849H84.4335H84.3822H84.3308H84.2795H84.2282H84.1768H84.1255H84.0741H84.0228H83.9714H83.9201H83.8688H83.8174H83.7661H83.7147H83.6634H83.612H83.5607H83.5094H83.458H83.4067H83.3553H83.304H83.2526H83.2013H83.1499H83.0986H83.0473H82.9959H82.9446H82.8932H82.8419H82.7905H82.7392H82.6879H82.6365H82.5852H82.5338H82.4825H82.4311H82.3798H82.3285H82.2771H82.2258H82.1744H82.1231H82.0717H82.0204H81.9691H81.9177H81.8664H81.815H81.7637H81.7123H81.661H81.6097H81.5583H81.507H81.4556H81.4043H81.3529H81.3016H81.2503H81.1989H81.1476H81.0962H81.0449H80.9935H80.9422H80.8909H80.8395H80.7882H80.7368H80.6855H80.6341H80.5828H80.5315H80.4801H80.4288H80.3774H80.3261H80.2747H80.2234H80.1721H80.1207H80.0694H80.018H79.9667H79.9153H79.864H79.8127H79.7613H79.71H79.6586H79.6073H79.5559H79.5046H79.4533H79.4019H79.3506H79.2992H79.2479H79.1965H79.1452H79.0939H79.0425H78.9912H78.9398H78.8885H78.8371H78.7858H78.7345H78.6831H78.6318H78.5804H78.5291H78.4777H78.4264H78.3751H78.3237H78.2724H78.221H78.1697H78.1183H78.067H78.0157H77.9643H77.913H77.8616H77.8103H77.7589H77.7076H77.6563H77.6049H77.5536H77.5022H77.4509H77.3996H77.3482H77.2969H77.2455H77.1942H77.1428H77.0915H77.0402H76.9888H76.9375H76.8861H76.8348H76.7834H76.7321H76.6808H76.6294H76.5781H76.5267H76.4754H76.4241H76.3727H76.3214H76.27H76.2187H76.1673H76.116H76.0647H76.0133H75.962H75.9106H75.8593H75.808H75.7566H75.7053H75.6539H75.6026H75.5512H75.4999H75.4486H75.3972H75.3459H75.2945H75.2432H75.1919H75.1405H75.0892H75.0378H74.9865H74.9351H74.8838H74.8325H74.7811H74.7298H74.6784H74.6271H74.5758H74.5244H74.4731H74.4217H74.3704H74.319H74.2677H74.2164H74.165H74.1137H74.0623H74.011H73.9597H73.9083H73.857H73.8056H73.7543H73.703H73.6516H73.6003H73.5489H73.4976H73.4462H73.3949H73.3436H73.2922H73.2409H73.1895H73.1382H73.0869H73.0355H72.9842H72.9328H72.8815H72.8302H72.7788H72.7275H72.6761H72.6248H72.5735H72.5221H72.4708H72.4194H72.3681H72.3168H72.2654H72.2141H72.1627H72.1114H72.0601H72.0087H71.9574H71.906H71.8547H71.8033H71.752H71.7007H71.6493H71.598H71.5466H71.4953H71.444H71.3926H71.3413H71.2899H71.2386H71.1873H71.1359H71.0846H71.0332H70.9819H70.9306H70.8792H70.8279H70.7765H70.7252H70.6739H70.6225H70.5712H70.5198H70.4685H70.4172H70.3658H70.3145H70.2631H70.2118H70.1605H70.1091H70.0578H70.0065H69.9551H69.9038H69.8524H69.8011H69.7498H69.6984H69.6471H69.5957H69.5444H69.4931H69.4417H69.3904H69.339H69.2877H69.2364H69.185H69.1337H69.0823H69.031H68.9797H68.9283H68.877H68.8257H68.7743H68.723H68.6716H68.6203H68.569H68.5176H68.4663H68.4149H68.3636H68.3123H68.2609H68.2096H68.1583H68.1069H68.0556H68.0042H67.9529H67.9016H67.8502H67.7989H67.7475H67.6962H67.6449H67.5935H67.5422H67.4909H67.4395H67.3882H67.3368H67.2855H67.2342H67.1828H67.1315H67.0802H67.0288H66.9775H66.9261H66.8748H66.8235H66.7721H66.7208H66.6694H66.6181H66.5668H66.5154H66.4641H66.4128H66.3614H66.3101H66.2587H66.2074H66.1561H66.1047H66.0534H66.0021H65.9507H65.8994H65.848H65.7967H65.7454H65.694H65.6427H65.5914H65.54H65.4887H65.4374H65.386H65.3347H65.2833H65.232H65.1807H65.1293H65.078H65.0267H64.9753H64.924H64.8727H64.8213H64.77H64.7186H64.6673H64.616H64.5646H64.5133H64.462H64.4106H64.3593H64.3079H64.2566H64.2053H64.1539H64.1026H64.0513H63.9999H63.9486H63.8973H63.8459H63.7946H63.7433H63.6919H63.6406H63.5892H63.5379H63.4866H63.4352H63.3839H63.3326H63.2812H63.2299H63.1786H63.1272H63.0759H63.0246H62.9732H62.9219H62.8706H62.8192H62.7679H62.7165H62.6652H62.6139H62.5625H62.5112H62.4599H62.4085H62.3572H62.3059H62.2545H62.2032H62.1519H62.1005H62.0492H61.9979H61.9465H61.8952H61.8439H61.7925H61.7412H61.6899H61.6385H61.5872H61.5359H61.4845H61.4332H61.3819H61.3305H61.2792H61.2278H61.1765H61.1252H61.0738H61.0225H60.9712H60.9198H60.8685H60.8172H60.7658H60.7145H60.7104Z" stroke="#4205F0" stroke-width="1.32705"/>
</g>
<g filter="url(#filter11_f_461_140)">
<path d="M73.7995 44.5344C73.5493 50.3275 71.8344 56.084 67.7691 60.9931C66.3117 62.7518 64.5603 64.1708 62.3614 64.8886C59.1416 65.9405 56.2415 65.1662 53.6445 63.1116C50.5927 60.6972 48.6824 57.4683 47.3346 53.8942C45.4827 48.9851 44.838 43.9372 45.9795 38.7578C47.8606 30.2181 56.3657 25.382 64.3576 28.3534C69.3452 30.2071 72.0901 34.0259 73.3046 39.0701C73.6991 40.7065 73.7849 42.3757 73.7977 44.5326L73.7995 44.5344Z" fill="url(#paint8_radial_461_140)"/>
<path d="M62.1555 64.2578L62.1553 64.2579C59.1832 65.2289 56.5109 64.5333 54.0562 62.5912C51.13 60.2762 49.2774 57.1657 47.9554 53.6601L47.9554 53.66C46.1398 48.8471 45.5188 43.9313 46.6275 38.9006L46.6275 38.9006C48.4267 30.7322 56.5332 26.1522 64.1263 28.9753L64.1264 28.9754C68.8638 30.736 71.4849 34.3469 72.6595 39.2255L72.6596 39.2256C73.0351 40.7836 73.1215 42.3887 73.1342 44.5365L73.1343 44.5582C72.881 50.2199 71.2008 55.8088 67.258 60.5699C65.8546 62.2634 64.2014 63.59 62.1555 64.2578Z" stroke="#4205F0" stroke-width="1.32705"/>
</g>
</g>
<g filter="url(#filter12_f_461_140)">
<path d="M59.6383 80.407C50.6931 80.407 41.7497 80.4107 32.8045 80.4052C30.3992 80.4052 28.7099 79.1852 28.1547 77.085C27.9648 76.3636 27.9301 75.6276 28.162 74.9245C29.1464 71.9586 29.9262 68.9068 31.5261 66.1856C35.301 59.7607 40.9151 56.0844 48.2824 55.0379C48.8869 54.952 49.2321 55.2132 49.6192 55.5876C52.6582 58.5261 56.1976 60.2556 60.5259 59.9579C64.0233 59.7169 66.9326 58.159 69.3945 55.752C70.041 55.1201 70.6345 54.9685 71.491 55.1201C80.3377 56.7016 86.3407 61.6637 89.4253 70.1177C89.9568 71.5732 90.4535 73.0397 90.9211 74.5172C91.8817 77.5507 89.9276 80.292 86.7443 80.407C86.4704 80.4162 86.1964 80.4107 85.9225 80.4107C77.1599 80.4107 68.3973 80.4107 59.6365 80.4107L59.6383 80.407Z" fill="url(#paint9_radial_461_140)"/>
<path d="M60.7104 79.7472L60.7122 79.7435H59.6383C57.081 79.7435 54.5239 79.7438 51.9669 79.7441C45.5795 79.7449 39.1927 79.7456 32.8049 79.7417H32.8045C31.714 79.7417 30.8322 79.466 30.1722 78.9933C29.5161 78.5234 29.038 77.8299 28.7963 76.9159C28.6291 76.2807 28.6112 75.6812 28.792 75.1328C28.996 74.5181 29.1895 73.9068 29.3813 73.3008C30.1338 70.9233 30.8606 68.6268 32.0981 66.5219L32.0982 66.5218C35.7682 60.2754 41.2035 56.7136 48.3757 55.6948C48.5544 55.6694 48.6583 55.6964 48.7442 55.7379C48.8522 55.7899 48.9711 55.8839 49.158 56.0646L49.6192 55.5876L49.158 56.0646C52.2957 59.0985 56.0104 60.9336 60.5715 60.6199L60.5716 60.6199C64.2564 60.3659 67.3075 58.7205 69.8583 56.2264C70.1267 55.9641 70.3451 55.8388 70.5495 55.7793C70.7565 55.719 71.0091 55.7087 71.3748 55.7733C79.9924 57.3141 85.7998 62.117 88.802 70.3451L88.8021 70.3452C89.33 71.791 89.8236 73.2484 90.2885 74.7174L90.2885 74.7175C90.7101 76.0489 90.4838 77.274 89.8457 78.1723C89.2073 79.071 88.1209 79.6931 86.7213 79.7439C86.5361 79.7501 86.3563 79.7491 86.1623 79.748C86.085 79.7476 86.0055 79.7472 85.9225 79.7472H85.8711H85.8198H85.7685H85.7171H85.6658H85.6144H85.5631H85.5117H85.4604H85.4091H85.3577H85.3064H85.255H85.2037H85.1523H85.101H85.0497H84.9983H84.947H84.8956H84.8443H84.7929H84.7416H84.6903H84.6389H84.5876H84.5362H84.4849H84.4335H84.3822H84.3308H84.2795H84.2282H84.1768H84.1255H84.0741H84.0228H83.9714H83.9201H83.8688H83.8174H83.7661H83.7147H83.6634H83.612H83.5607H83.5094H83.458H83.4067H83.3553H83.304H83.2526H83.2013H83.1499H83.0986H83.0473H82.9959H82.9446H82.8932H82.8419H82.7905H82.7392H82.6879H82.6365H82.5852H82.5338H82.4825H82.4311H82.3798H82.3285H82.2771H82.2258H82.1744H82.1231H82.0717H82.0204H81.9691H81.9177H81.8664H81.815H81.7637H81.7123H81.661H81.6097H81.5583H81.507H81.4556H81.4043H81.3529H81.3016H81.2503H81.1989H81.1476H81.0962H81.0449H80.9935H80.9422H80.8909H80.8395H80.7882H80.7368H80.6855H80.6341H80.5828H80.5315H80.4801H80.4288H80.3774H80.3261H80.2747H80.2234H80.1721H80.1207H80.0694H80.018H79.9667H79.9153H79.864H79.8127H79.7613H79.71H79.6586H79.6073H79.5559H79.5046H79.4533H79.4019H79.3506H79.2992H79.2479H79.1965H79.1452H79.0939H79.0425H78.9912H78.9398H78.8885H78.8371H78.7858H78.7345H78.6831H78.6318H78.5804H78.5291H78.4777H78.4264H78.3751H78.3237H78.2724H78.221H78.1697H78.1183H78.067H78.0157H77.9643H77.913H77.8616H77.8103H77.7589H77.7076H77.6563H77.6049H77.5536H77.5022H77.4509H77.3996H77.3482H77.2969H77.2455H77.1942H77.1428H77.0915H77.0402H76.9888H76.9375H76.8861H76.8348H76.7834H76.7321H76.6808H76.6294H76.5781H76.5267H76.4754H76.4241H76.3727H76.3214H76.27H76.2187H76.1673H76.116H76.0647H76.0133H75.962H75.9106H75.8593H75.808H75.7566H75.7053H75.6539H75.6026H75.5512H75.4999H75.4486H75.3972H75.3459H75.2945H75.2432H75.1919H75.1405H75.0892H75.0378H74.9865H74.9351H74.8838H74.8325H74.7811H74.7298H74.6784H74.6271H74.5758H74.5244H74.4731H74.4217H74.3704H74.319H74.2677H74.2164H74.165H74.1137H74.0623H74.011H73.9597H73.9083H73.857H73.8056H73.7543H73.703H73.6516H73.6003H73.5489H73.4976H73.4462H73.3949H73.3436H73.2922H73.2409H73.1895H73.1382H73.0869H73.0355H72.9842H72.9328H72.8815H72.8302H72.7788H72.7275H72.6761H72.6248H72.5735H72.5221H72.4708H72.4194H72.3681H72.3168H72.2654H72.2141H72.1627H72.1114H72.0601H72.0087H71.9574H71.906H71.8547H71.8033H71.752H71.7007H71.6493H71.598H71.5466H71.4953H71.444H71.3926H71.3413H71.2899H71.2386H71.1873H71.1359H71.0846H71.0332H70.9819H70.9306H70.8792H70.8279H70.7765H70.7252H70.6739H70.6225H70.5712H70.5198H70.4685H70.4172H70.3658H70.3145H70.2631H70.2118H70.1605H70.1091H70.0578H70.0065H69.9551H69.9038H69.8524H69.8011H69.7498H69.6984H69.6471H69.5957H69.5444H69.4931H69.4417H69.3904H69.339H69.2877H69.2364H69.185H69.1337H69.0823H69.031H68.9797H68.9283H68.877H68.8257H68.7743H68.723H68.6716H68.6203H68.569H68.5176H68.4663H68.4149H68.3636H68.3123H68.2609H68.2096H68.1583H68.1069H68.0556H68.0042H67.9529H67.9016H67.8502H67.7989H67.7475H67.6962H67.6449H67.5935H67.5422H67.4909H67.4395H67.3882H67.3368H67.2855H67.2342H67.1828H67.1315H67.0802H67.0288H66.9775H66.9261H66.8748H66.8235H66.7721H66.7208H66.6694H66.6181H66.5668H66.5154H66.4641H66.4128H66.3614H66.3101H66.2587H66.2074H66.1561H66.1047H66.0534H66.0021H65.9507H65.8994H65.848H65.7967H65.7454H65.694H65.6427H65.5914H65.54H65.4887H65.4374H65.386H65.3347H65.2833H65.232H65.1807H65.1293H65.078H65.0267H64.9753H64.924H64.8727H64.8213H64.77H64.7186H64.6673H64.616H64.5646H64.5133H64.462H64.4106H64.3593H64.3079H64.2566H64.2053H64.1539H64.1026H64.0513H63.9999H63.9486H63.8973H63.8459H63.7946H63.7433H63.6919H63.6406H63.5892H63.5379H63.4866H63.4352H63.3839H63.3326H63.2812H63.2299H63.1786H63.1272H63.0759H63.0246H62.9732H62.9219H62.8706H62.8192H62.7679H62.7165H62.6652H62.6139H62.5625H62.5112H62.4599H62.4085H62.3572H62.3059H62.2545H62.2032H62.1519H62.1005H62.0492H61.9979H61.9465H61.8952H61.8439H61.7925H61.7412H61.6899H61.6385H61.5872H61.5359H61.4845H61.4332H61.3819H61.3305H61.2792H61.2278H61.1765H61.1252H61.0738H61.0225H60.9712H60.9198H60.8685H60.8172H60.7658H60.7145H60.7104Z" stroke="#4205F0" stroke-width="1.32705"/>
</g>
<g filter="url(#filter13_f_461_140)">
<path d="M73.7995 35.0598C73.5493 40.8529 71.8344 46.6094 67.7691 51.5185C66.3117 53.2772 64.5603 54.6962 62.3614 55.414C59.1416 56.4659 56.2415 55.6916 53.6445 53.637C50.5927 51.2226 48.6824 47.9937 47.3346 44.4196C45.4827 39.5105 44.838 34.4626 45.9795 29.2832C47.8606 20.7434 56.3657 15.9074 64.3576 18.8788C69.3452 20.7325 72.0901 24.5513 73.3046 29.5955C73.6991 31.2319 73.7849 32.9011 73.7977 35.058L73.7995 35.0598Z" fill="url(#paint10_radial_461_140)"/>
<path d="M62.1555 54.7832L62.1553 54.7832C59.1832 55.7543 56.5109 55.0587 54.0562 53.1166C51.13 50.8016 49.2774 47.6911 47.9554 44.1855L47.9554 44.1854C46.1398 39.3725 45.5188 34.4567 46.6275 29.426L46.6275 29.426C48.4267 21.2576 56.5332 16.6776 64.1263 19.5007L64.1264 19.5007C68.8638 21.2614 71.4849 24.8723 72.6595 29.7508L72.6596 29.751C73.0351 31.309 73.1215 32.9141 73.1342 35.0619L73.1343 35.0836C72.881 40.7453 71.2008 46.3342 67.258 51.0953C65.8546 52.7888 64.2014 54.1154 62.1555 54.7832Z" stroke="#4205F0" stroke-width="1.32705"/>
</g>
<g filter="url(#filter14_f_461_140)">
<rect x="96.5811" y="49.582" width="46.9238" height="0.902381" fill="url(#paint11_linear_461_140)"/>
</g>
<path d="M147.114 50.4842L141.7 47.3583V53.6102L147.114 50.4842Z" fill="#4205F0"/>
<path d="M99.753 33.1389H100.905C100.882 33.5165 100.778 33.8517 100.593 34.1446C100.411 34.4374 100.155 34.6661 99.8262 34.8305C99.5 34.9949 99.107 35.0771 98.6472 35.0771C98.2875 35.0771 97.9651 35.0154 97.68 34.8921C97.3949 34.7662 97.1508 34.5864 96.9479 34.3527C96.7475 34.1189 96.5947 33.8363 96.4894 33.505C96.384 33.1736 96.3314 32.8024 96.3314 32.3914V32.0022C96.3314 31.5912 96.3853 31.22 96.4932 30.8886C96.6037 30.5547 96.7604 30.2708 96.9633 30.0371C97.1688 29.8033 97.4141 29.6235 97.6993 29.4976C97.9844 29.3717 98.3029 29.3088 98.6549 29.3088C99.1224 29.3088 99.5167 29.3936 99.8378 29.5631C100.161 29.7327 100.412 29.9664 100.589 30.2644C100.769 30.5624 100.877 30.9015 100.913 31.2817H99.7569C99.744 31.0556 99.6991 30.8642 99.622 30.7075C99.545 30.5483 99.4281 30.4288 99.2714 30.3492C99.1172 30.267 98.9117 30.2259 98.6549 30.2259C98.4622 30.2259 98.2939 30.2618 98.1501 30.3338C98.0062 30.4057 97.8855 30.5149 97.7879 30.6613C97.6903 30.8077 97.6171 30.9927 97.5683 31.2161C97.522 31.4371 97.4989 31.6965 97.4989 31.9945V32.3914C97.4989 32.6817 97.5207 32.9372 97.5644 33.1582C97.6081 33.3765 97.6749 33.5615 97.7648 33.713C97.8572 33.862 97.9754 33.975 98.1193 34.0521C98.2657 34.1266 98.4417 34.1639 98.6472 34.1639C98.8886 34.1639 99.0877 34.1253 99.2444 34.0483C99.4011 33.9712 99.5206 33.8569 99.6028 33.7053C99.6875 33.5538 99.7376 33.365 99.753 33.1389ZM107.062 32.0639V32.3297C107.062 32.7561 107.004 33.1389 106.888 33.478C106.773 33.8171 106.61 34.1061 106.399 34.345C106.188 34.5813 105.937 34.7624 105.644 34.8883C105.354 35.0141 105.031 35.0771 104.677 35.0771C104.325 35.0771 104.002 35.0141 103.71 34.8883C103.419 34.7624 103.167 34.5813 102.954 34.345C102.741 34.1061 102.575 33.8171 102.457 33.478C102.342 33.1389 102.284 32.7561 102.284 32.3297V32.0639C102.284 31.6349 102.342 31.2521 102.457 30.9156C102.573 30.5765 102.736 30.2875 102.947 30.0486C103.16 29.8097 103.412 29.6273 103.702 29.5015C103.995 29.3756 104.317 29.3127 104.669 29.3127C105.023 29.3127 105.346 29.3756 105.636 29.5015C105.929 29.6273 106.181 29.8097 106.391 30.0486C106.605 30.2875 106.769 30.5765 106.885 30.9156C107.003 31.2521 107.062 31.6349 107.062 32.0639ZM105.894 32.3297V32.0561C105.894 31.7582 105.867 31.4961 105.813 31.2701C105.759 31.044 105.68 30.8539 105.574 30.6998C105.469 30.5457 105.341 30.4301 105.189 30.353C105.038 30.2734 104.864 30.2336 104.669 30.2336C104.474 30.2336 104.3 30.2734 104.149 30.353C104 30.4301 103.873 30.5457 103.767 30.6998C103.665 30.8539 103.586 31.044 103.532 31.2701C103.478 31.4961 103.451 31.7582 103.451 32.0561V32.3297C103.451 32.6251 103.478 32.8872 103.532 33.1158C103.586 33.3418 103.666 33.5332 103.771 33.6899C103.876 33.844 104.005 33.9609 104.156 34.0406C104.308 34.1202 104.481 34.16 104.677 34.16C104.872 34.16 105.045 34.1202 105.197 34.0406C105.348 33.9609 105.476 33.844 105.578 33.6899C105.681 33.5332 105.759 33.3418 105.813 33.1158C105.867 32.8872 105.894 32.6251 105.894 32.3297ZM113.249 29.3897V35H112.093L109.839 31.2393V35H108.683V29.3897H109.839L112.097 33.1543V29.3897H113.249ZM117.437 29.3897V35H116.285V29.3897H117.437ZM119.163 29.3897V30.2952H114.586V29.3897H119.163ZM120.611 29.3897H122.704C123.133 29.3897 123.501 29.4539 123.809 29.5824C124.12 29.7108 124.359 29.9009 124.526 30.1527C124.693 30.4044 124.777 30.7139 124.777 31.0813C124.777 31.3818 124.725 31.64 124.622 31.8558C124.522 32.069 124.38 32.2475 124.195 32.3914C124.012 32.5327 123.798 32.6457 123.551 32.7305L123.185 32.9231H121.366L121.359 32.0215H122.711C122.914 32.0215 123.082 31.9855 123.216 31.9136C123.35 31.8417 123.45 31.7415 123.517 31.613C123.586 31.4846 123.621 31.3356 123.621 31.1661C123.621 30.9862 123.587 30.8308 123.52 30.6998C123.454 30.5688 123.352 30.4686 123.216 30.3993C123.08 30.3299 122.909 30.2952 122.704 30.2952H121.767V35H120.611V29.3897ZM123.748 35L122.468 32.4993L123.69 32.4916L124.985 34.9461V35H123.748ZM128.737 30.3492L127.211 35H125.982L128.066 29.3897H128.849L128.737 30.3492ZM130.005 35L128.475 30.3492L128.352 29.3897H129.141L131.238 35H130.005ZM129.935 32.9116V33.8171H126.972V32.9116H129.935ZM135.73 33.1389H136.882C136.859 33.5165 136.755 33.8517 136.57 34.1446C136.387 34.4374 136.132 34.6661 135.803 34.8305C135.477 34.9949 135.084 35.0771 134.624 35.0771C134.264 35.0771 133.942 35.0154 133.657 34.8921C133.372 34.7662 133.127 34.5864 132.925 34.3527C132.724 34.1189 132.571 33.8363 132.466 33.505C132.361 33.1736 132.308 32.8024 132.308 32.3914V32.0022C132.308 31.5912 132.362 31.22 132.47 30.8886C132.58 30.5547 132.737 30.2708 132.94 30.0371C133.145 29.8033 133.391 29.6235 133.676 29.4976C133.961 29.3717 134.28 29.3088 134.632 29.3088C135.099 29.3088 135.493 29.3936 135.814 29.5631C136.138 29.7327 136.389 29.9664 136.566 30.2644C136.746 30.5624 136.854 30.9015 136.89 31.2817H135.734C135.721 31.0556 135.676 30.8642 135.599 30.7075C135.522 30.5483 135.405 30.4288 135.248 30.3492C135.094 30.267 134.888 30.2259 134.632 30.2259C134.439 30.2259 134.271 30.2618 134.127 30.3338C133.983 30.4057 133.862 30.5149 133.765 30.6613C133.667 30.8077 133.594 30.9927 133.545 31.2161C133.499 31.4371 133.476 31.6965 133.476 31.9945V32.3914C133.476 32.6817 133.497 32.9372 133.541 33.1582C133.585 33.3765 133.652 33.5615 133.741 33.713C133.834 33.862 133.952 33.975 134.096 34.0521C134.242 34.1266 134.418 34.1639 134.624 34.1639C134.865 34.1639 135.064 34.1253 135.221 34.0483C135.378 33.9712 135.497 33.8569 135.579 33.7053C135.664 33.5538 135.714 33.365 135.73 33.1389ZM140.823 29.3897V35H139.671V29.3897H140.823ZM142.549 29.3897V30.2952H137.972V29.3897H142.549Z" fill="#F3F3F3"/>
<defs>
<filter id="filter0_f_461_140" x="133.694" y="2.47935" width="136.566" height="136.992" filterUnits="userSpaceOnUse" color-interpolation-filters="sRGB">
<feFlood flood-opacity="0" result="BackgroundImageFix"/>
<feBlend mode="normal" in="SourceGraphic" in2="BackgroundImageFix" result="shape"/>
<feGaussianBlur stdDeviation="13.5357" result="effect1_foregroundBlur_461_140"/>
</filter>
<filter id="filter1_f_461_140" x="152.883" y="2.21894" width="99.1028" height="99.5895" filterUnits="userSpaceOnUse" color-interpolation-filters="sRGB">
<feFlood flood-opacity="0" result="BackgroundImageFix"/>
<feBlend mode="normal" in="SourceGraphic" in2="BackgroundImageFix" result="shape"/>
<feGaussianBlur stdDeviation="1.32705" result="effect1_foregroundBlur_461_140"/>
</filter>
<filter id="filter2_f_461_140" x="330.242" y="22.9123" width="95.7722" height="86.8433" filterUnits="userSpaceOnUse" color-interpolation-filters="sRGB">
<feFlood flood-opacity="0" result="BackgroundImageFix"/>
<feBlend mode="normal" in="SourceGraphic" in2="BackgroundImageFix" result="shape"/>
<feGaussianBlur stdDeviation="0.877826" result="effect1_foregroundBlur_461_140"/>
</filter>
<filter id="filter3_f_461_140" x="347.504" y="6.24435" width="61.844" height="72.5582" filterUnits="userSpaceOnUse" color-interpolation-filters="sRGB">
<feFlood flood-opacity="0" result="BackgroundImageFix"/>
<feBlend mode="normal" in="SourceGraphic" in2="BackgroundImageFix" result="shape"/>
<feGaussianBlur stdDeviation="0.877826" result="effect1_foregroundBlur_461_140"/>
</filter>
<filter id="filter4_f_461_140" x="330.242" y="75.2893" width="95.7722" height="34.4625" filterUnits="userSpaceOnUse" color-interpolation-filters="sRGB">
<feFlood flood-opacity="0" result="BackgroundImageFix"/>
<feBlend mode="normal" in="SourceGraphic" in2="BackgroundImageFix" result="shape"/>
<feGaussianBlur stdDeviation="0.877826" result="effect1_foregroundBlur_461_140"/>
</filter>
<filter id="filter5_f_461_140" x="330.242" y="6.24435" width="95.7722" height="20.1773" filterUnits="userSpaceOnUse" color-interpolation-filters="sRGB">
<feFlood flood-opacity="0" result="BackgroundImageFix"/>
<feBlend mode="normal" in="SourceGraphic" in2="BackgroundImageFix" result="shape"/>
<feGaussianBlur stdDeviation="0.877826" result="effect1_foregroundBlur_461_140"/>
</filter>
<filter id="filter6_d_461_140" x="380.435" y="67.0677" width="18.1388" height="11.3725" filterUnits="userSpaceOnUse" color-interpolation-filters="sRGB">
<feFlood flood-opacity="0" result="BackgroundImageFix"/>
<feColorMatrix in="SourceAlpha" type="matrix" values="0 0 0 0 0 0 0 0 0 0 0 0 0 0 0 0 0 0 127 0" result="hardAlpha"/>
<feOffset/>
<feGaussianBlur stdDeviation="0.661486"/>
<feComposite in2="hardAlpha" operator="out"/>
<feColorMatrix type="matrix" values="0 0 0 0 1 0 0 0 0 1 0 0 0 0 1 0 0 0 1 0"/>
<feBlend mode="normal" in2="BackgroundImageFix" result="effect1_dropShadow_461_140"/>
<feBlend mode="normal" in="SourceGraphic" in2="effect1_dropShadow_461_140" result="shape"/>
</filter>
<filter id="filter7_d_461_140" x="375.143" y="64.4217" width="28.7226" height="21.9563" filterUnits="userSpaceOnUse" color-interpolation-filters="sRGB">
<feFlood flood-opacity="0" result="BackgroundImageFix"/>
<feColorMatrix in="SourceAlpha" type="matrix" values="0 0 0 0 0 0 0 0 0 0 0 0 0 0 0 0 0 0 127 0" result="hardAlpha"/>
<feOffset dy="2.64594"/>
<feGaussianBlur stdDeviation="3.30743"/>
<feComposite in2="hardAlpha" operator="out"/>
<feColorMatrix type="matrix" values="0 0 0 0 1 0 0 0 0 1 0 0 0 0 1 0 0 0 0.25 0"/>
<feBlend mode="normal" in2="BackgroundImageFix" result="effect1_dropShadow_461_140"/>
<feBlend mode="normal" in="SourceGraphic" in2="effect1_dropShadow_461_140" result="shape"/>
</filter>
<filter id="filter8_f_461_140" x="254.346" y="52.7287" width="66.3082" height="6.30821" filterUnits="userSpaceOnUse" color-interpolation-filters="sRGB">
<feFlood flood-opacity="0" result="BackgroundImageFix"/>
<feBlend mode="normal" in="SourceGraphic" in2="BackgroundImageFix" result="shape"/>
<feGaussianBlur stdDeviation="1.32705" result="effect1_foregroundBlur_461_140"/>
</filter>
<filter id="filter9_f_461_140" x="0.928572" y="0.403181" width="117.309" height="116.555" filterUnits="userSpaceOnUse" color-interpolation-filters="sRGB">
<feFlood flood-opacity="0" result="BackgroundImageFix"/>
<feBlend mode="normal" in="SourceGraphic" in2="BackgroundImageFix" result="shape"/>
<feGaussianBlur stdDeviation="13.5357" result="effect1_foregroundBlur_461_140"/>
</filter>
<filter id="filter10_f_461_140" x="25.3459" y="61.842" width="68.4748" height="30.6988" filterUnits="userSpaceOnUse" color-interpolation-filters="sRGB">
<feFlood flood-opacity="0" result="BackgroundImageFix"/>
<feBlend mode="normal" in="SourceGraphic" in2="BackgroundImageFix" result="shape"/>
<feGaussianBlur stdDeviation="1.32705" result="effect1_foregroundBlur_461_140"/>
</filter>
<filter id="filter11_f_461_140" x="42.7578" y="24.8205" width="33.6959" height="43.191" filterUnits="userSpaceOnUse" color-interpolation-filters="sRGB">
<feFlood flood-opacity="0" result="BackgroundImageFix"/>
<feBlend mode="normal" in="SourceGraphic" in2="BackgroundImageFix" result="shape"/>
<feGaussianBlur stdDeviation="1.32705" result="effect1_foregroundBlur_461_140"/>
</filter>
<filter id="filter12_f_461_140" x="25.3459" y="52.3674" width="68.4748" height="30.6988" filterUnits="userSpaceOnUse" color-interpolation-filters="sRGB">
<feFlood flood-opacity="0" result="BackgroundImageFix"/>
<feBlend mode="normal" in="SourceGraphic" in2="BackgroundImageFix" result="shape"/>
<feGaussianBlur stdDeviation="1.32705" result="effect1_foregroundBlur_461_140"/>
</filter>
<filter id="filter13_f_461_140" x="42.7578" y="15.3459" width="33.6959" height="43.191" filterUnits="userSpaceOnUse" color-interpolation-filters="sRGB">
<feFlood flood-opacity="0" result="BackgroundImageFix"/>
<feBlend mode="normal" in="SourceGraphic" in2="BackgroundImageFix" result="shape"/>
<feGaussianBlur stdDeviation="1.32705" result="effect1_foregroundBlur_461_140"/>
</filter>
<filter id="filter14_f_461_140" x="93.927" y="46.9279" width="52.232" height="6.21055" filterUnits="userSpaceOnUse" color-interpolation-filters="sRGB">
<feFlood flood-opacity="0" result="BackgroundImageFix"/>
<feBlend mode="normal" in="SourceGraphic" in2="BackgroundImageFix" result="shape"/>
<feGaussianBlur stdDeviation="1.32705" result="effect1_foregroundBlur_461_140"/>
</filter>
<radialGradient id="paint0_radial_461_140" cx="0" cy="0" r="1" gradientUnits="userSpaceOnUse" gradientTransform="translate(201.671 70.461) rotate(93.718) scale(77.2087 72.5037)">
<stop offset="0.046875" stop-color="#4200FD"/>
<stop offset="1" stop-color="#2C204E" stop-opacity="0"/>
</radialGradient>
<radialGradient id="paint1_radial_461_140" cx="0" cy="0" r="1" gradientUnits="userSpaceOnUse" gradientTransform="translate(202.087 51.4284) rotate(93.718) scale(87.8605 82.5063)">
<stop offset="0.046875" stop-color="#120B24"/>
<stop offset="1" stop-color="#100A23" stop-opacity="0"/>
</radialGradient>
<radialGradient id="paint2_radial_461_140" cx="0" cy="0" r="1" gradientUnits="userSpaceOnUse" gradientTransform="translate(377.66 65.8415) rotate(86.2627) scale(77.7979 86.1748)">
<stop offset="0.046875" stop-color="#4205F0"/>
<stop offset="1" stop-color="#4205F0" stop-opacity="0"/>
</radialGradient>
<radialGradient id="paint3_radial_461_140" cx="0" cy="0" r="1" gradientUnits="userSpaceOnUse" gradientTransform="translate(378.13 42.1152) rotate(87.1465) scale(64.4039 54.5331)">
<stop offset="0.046875" stop-color="#4205F0"/>
<stop offset="1" stop-color="#4205F0" stop-opacity="0"/>
</radialGradient>
<radialGradient id="paint4_radial_461_140" cx="0" cy="0" r="1" gradientUnits="userSpaceOnUse" gradientTransform="translate(377.66 92.338) rotate(80.0257) scale(29.2774 85.0532)">
<stop offset="0.046875" stop-color="#4205F0"/>
<stop offset="1" stop-color="#4205F0" stop-opacity="0"/>
</radialGradient>
<radialGradient id="paint5_radial_461_140" cx="0" cy="0" r="1" gradientUnits="userSpaceOnUse" gradientTransform="translate(377.66 -17.4924) rotate(86.2627) scale(77.798 86.1748)">
<stop offset="0.046875" stop-color="#4205F0"/>
<stop offset="1" stop-color="#4205F0" stop-opacity="0"/>
</radialGradient>
<linearGradient id="paint6_linear_461_140" x1="311.548" y1="55.8828" x2="304.753" y2="27.9364" gradientUnits="userSpaceOnUse">
<stop offset="0.046875" stop-color="#4205F0"/>
<stop offset="0.615513" stop-color="#4205F0" stop-opacity="0"/>
</linearGradient>
<radialGradient id="paint7_radial_461_140" cx="0" cy="0" r="1" gradientUnits="userSpaceOnUse" gradientTransform="translate(59.2625 77.0414) rotate(81.6499) scale(23.9076 58.4987)">
<stop offset="0.046875" stop-color="#4205F0"/>
<stop offset="1" stop-color="#4205F0" stop-opacity="0"/>
</radialGradient>
<radialGradient id="paint8_radial_461_140" cx="0" cy="0" r="1" gradientUnits="userSpaceOnUse" gradientTransform="translate(59.4615 46.1918) rotate(87.4685) scale(35.3257 26.5456)">
<stop offset="0.046875" stop-color="#4205F0"/>
<stop offset="1" stop-color="#4205F0" stop-opacity="0"/>
</radialGradient>
<radialGradient id="paint9_radial_461_140" cx="0" cy="0" r="1" gradientUnits="userSpaceOnUse" gradientTransform="translate(59.2625 67.5668) rotate(81.6499) scale(23.9076 58.4987)">
<stop offset="0.046875" stop-color="#120B24"/>
<stop offset="1" stop-color="#100A23" stop-opacity="0"/>
</radialGradient>
<radialGradient id="paint10_radial_461_140" cx="0" cy="0" r="1" gradientUnits="userSpaceOnUse" gradientTransform="translate(59.4615 36.7172) rotate(87.4685) scale(35.3257 26.5456)">
<stop offset="0.046875" stop-color="#120B24"/>
<stop offset="1" stop-color="#100A23" stop-opacity="0"/>
</radialGradient>
<linearGradient id="paint11_linear_461_140" x1="138.542" y1="50.0332" x2="131.497" y2="25.3335" gradientUnits="userSpaceOnUse">
<stop offset="0.046875" stop-color="#4205F0"/>
<stop offset="0.615513" stop-color="#4205F0" stop-opacity="0"/>
</linearGradient>
</defs>
</svg>
