<svg width="618" height="117" viewBox="0 0 618 117" fill="none" xmlns="http://www.w3.org/2000/svg">
<g filter="url(#filter0_f_467_421)">
<rect x="331.998" y="24.668" width="92.2609" height="83.3324" fill="url(#paint0_radial_467_421)"/>
<rect x="332.437" y="25.1069" width="91.3831" height="82.4546" stroke="#4205F0" stroke-width="0.877826"/>
</g>
<g opacity="0.5" filter="url(#filter1_f_467_421)">
<rect x="349.26" y="8" width="58.3327" height="69.0469" fill="url(#paint1_radial_467_421)"/>
<rect x="349.699" y="8.43891" width="57.4549" height="68.1691" stroke="#4205F0" stroke-width="0.877826"/>
</g>
<g filter="url(#filter2_f_467_421)">
<path d="M348.962 77.0449H408.188L424.259 107.997H331.998L348.962 77.0449Z" fill="url(#paint2_radial_467_421)" fill-opacity="0.3"/>
<path d="M332.739 107.558L349.222 77.4838H407.921L423.537 107.558H332.739Z" stroke="#4205F0" stroke-width="0.877826"/>
</g>
<g filter="url(#filter3_f_467_421)">
<path d="M349.855 8H406.997L424.259 24.6665H331.998L349.855 8Z" fill="url(#paint3_radial_467_421)"/>
<path d="M333.112 24.2276L350.028 8.43891H406.82L423.173 24.2276H333.112Z" stroke="#4205F0" stroke-width="0.877826"/>
</g>
<path d="M349.686 52.0002H348.256V51.0985H349.686C349.907 51.0985 350.086 51.0626 350.225 50.9906C350.364 50.9161 350.465 50.8134 350.53 50.6824C350.594 50.5514 350.626 50.4037 350.626 50.2393C350.626 50.0723 350.594 49.9169 350.53 49.773C350.465 49.6292 350.364 49.5136 350.225 49.4262C350.086 49.3389 349.907 49.2952 349.686 49.2952H348.657V54H347.501V48.3897H349.686C350.125 48.3897 350.501 48.4694 350.815 48.6286C351.131 48.7853 351.372 49.0024 351.539 49.2798C351.706 49.5572 351.79 49.8745 351.79 50.2316C351.79 50.5938 351.706 50.9072 351.539 51.1717C351.372 51.4363 351.131 51.6405 350.815 51.7844C350.501 51.9283 350.125 52.0002 349.686 52.0002ZM356.297 52.5319C356.297 52.4317 356.282 52.3418 356.251 52.2622C356.223 52.18 356.169 52.1055 356.089 52.0387C356.009 51.9694 355.898 51.9013 355.754 51.8345C355.61 51.7677 355.424 51.6983 355.195 51.6264C354.941 51.5442 354.699 51.4517 354.471 51.349C354.245 51.2462 354.044 51.1268 353.87 50.9906C353.697 50.8519 353.561 50.6914 353.461 50.509C353.363 50.3266 353.315 50.1147 353.315 49.8732C353.315 49.6394 353.366 49.4275 353.469 49.2374C353.572 49.0448 353.715 48.8804 353.9 48.7442C354.085 48.6055 354.304 48.4989 354.555 48.4244C354.81 48.3499 355.088 48.3127 355.392 48.3127C355.805 48.3127 356.166 48.3872 356.474 48.5361C356.783 48.6851 357.021 48.8894 357.191 49.1488C357.363 49.4083 357.449 49.705 357.449 50.0389H356.301C356.301 49.8745 356.266 49.7306 356.197 49.6073C356.13 49.4815 356.027 49.3826 355.889 49.3106C355.752 49.2387 355.58 49.2028 355.372 49.2028C355.172 49.2028 355.005 49.2336 354.871 49.2952C354.738 49.3543 354.638 49.4352 354.571 49.538C354.504 49.6382 354.471 49.7512 354.471 49.8771C354.471 49.9721 354.494 50.0582 354.54 50.1352C354.589 50.2123 354.661 50.2842 354.756 50.351C354.851 50.4178 354.968 50.4807 355.106 50.5398C355.245 50.5989 355.406 50.6567 355.588 50.7132C355.894 50.8057 356.162 50.9097 356.393 51.0253C356.627 51.1409 356.822 51.2706 356.979 51.4145C357.136 51.5583 357.254 51.7215 357.334 51.9039C357.413 52.0862 357.453 52.293 357.453 52.5242C357.453 52.7683 357.405 52.9866 357.31 53.1793C357.215 53.3719 357.078 53.535 356.898 53.6686C356.718 53.8022 356.504 53.9037 356.255 53.973C356.005 54.0424 355.727 54.0771 355.418 54.0771C355.141 54.0771 354.867 54.0411 354.598 53.9692C354.328 53.8947 354.083 53.7829 353.862 53.6339C353.643 53.485 353.469 53.2949 353.338 53.0637C353.207 52.8325 353.141 52.5589 353.141 52.2429H354.301C354.301 52.4176 354.328 52.5653 354.382 52.6861C354.436 52.8068 354.512 52.9044 354.609 52.9789C354.71 53.0534 354.828 53.1073 354.964 53.1407C355.103 53.1741 355.254 53.1908 355.418 53.1908C355.619 53.1908 355.783 53.1626 355.912 53.1061C356.043 53.0495 356.139 52.9712 356.201 52.871C356.265 52.7708 356.297 52.6578 356.297 52.5319ZM362.793 53.0983V54H359.807V53.0983H362.793ZM360.184 48.3897V54H359.028V48.3897H360.184ZM362.404 50.6747V51.5532H359.807V50.6747H362.404ZM362.789 48.3897V49.2952H359.807V48.3897H362.789ZM367.354 48.3897H368.506V52.0965C368.506 52.5281 368.414 52.8916 368.229 53.187C368.047 53.4824 367.793 53.7046 367.47 53.8536C367.149 54.0026 366.779 54.0771 366.36 54.0771C365.941 54.0771 365.569 54.0026 365.243 53.8536C364.919 53.7046 364.665 53.4824 364.48 53.187C364.297 52.8916 364.206 52.5281 364.206 52.0965V48.3897H365.362V52.0965C365.362 52.3483 365.402 52.5538 365.482 52.713C365.561 52.8723 365.675 52.9892 365.824 53.0637C365.976 53.1382 366.155 53.1754 366.36 53.1754C366.571 53.1754 366.749 53.1382 366.896 53.0637C367.045 52.9892 367.158 52.8723 367.235 52.713C367.314 52.5538 367.354 52.3483 367.354 52.0965V48.3897ZM371.97 54H370.748L370.756 53.0983H371.97C372.273 53.0983 372.528 53.0303 372.736 52.8941C372.944 52.7554 373.101 52.5538 373.206 52.2892C373.314 52.0246 373.368 51.7048 373.368 51.3297V51.0561C373.368 50.7684 373.337 50.5154 373.276 50.2971C373.217 50.0787 373.128 49.895 373.01 49.7461C372.892 49.5971 372.747 49.4853 372.575 49.4108C372.402 49.3338 372.205 49.2952 371.981 49.2952H370.725V48.3897H371.981C372.356 48.3897 372.699 48.4539 373.01 48.5824C373.323 48.7083 373.594 48.8894 373.823 49.1257C374.052 49.362 374.228 49.6446 374.351 49.9734C374.477 50.2996 374.54 50.6631 374.54 51.0639V51.3297C374.54 51.7279 374.477 52.0914 374.351 52.4202C374.228 52.749 374.052 53.0316 373.823 53.2679C373.597 53.5017 373.326 53.6828 373.01 53.8112C372.697 53.9371 372.35 54 371.97 54ZM371.403 48.3897V54H370.247V48.3897H371.403ZM380.777 51.0639V51.3297C380.777 51.7561 380.719 52.1389 380.604 52.478C380.488 52.8171 380.325 53.1061 380.115 53.345C379.904 53.5813 379.652 53.7624 379.359 53.8883C379.069 54.0141 378.747 54.0771 378.392 54.0771C378.04 54.0771 377.718 54.0141 377.425 53.8883C377.135 53.7624 376.883 53.5813 376.67 53.345C376.457 53.1061 376.291 52.8171 376.173 52.478C376.057 52.1389 375.999 51.7561 375.999 51.3297V51.0639C375.999 50.6349 376.057 50.2521 376.173 49.9156C376.288 49.5765 376.451 49.2875 376.662 49.0486C376.875 48.8097 377.127 48.6273 377.417 48.5015C377.71 48.3756 378.032 48.3127 378.384 48.3127C378.739 48.3127 379.061 48.3756 379.352 48.5015C379.644 48.6273 379.896 48.8097 380.107 49.0486C380.32 49.2875 380.484 49.5765 380.6 49.9156C380.718 50.2521 380.777 50.6349 380.777 51.0639ZM379.61 51.3297V51.0561C379.61 50.7582 379.583 50.4961 379.529 50.2701C379.475 50.044 379.395 49.8539 379.29 49.6998C379.185 49.5457 379.056 49.4301 378.905 49.353C378.753 49.2734 378.58 49.2336 378.384 49.2336C378.189 49.2336 378.016 49.2734 377.864 49.353C377.715 49.4301 377.588 49.5457 377.483 49.6998C377.38 49.8539 377.302 50.044 377.248 50.2701C377.194 50.4961 377.167 50.7582 377.167 51.0561V51.3297C377.167 51.6251 377.194 51.8872 377.248 52.1158C377.302 52.3418 377.381 52.5332 377.487 52.6899C377.592 52.844 377.72 52.9609 377.872 53.0406C378.023 53.1202 378.197 53.16 378.392 53.16C378.587 53.16 378.761 53.1202 378.912 53.0406C379.064 52.9609 379.191 52.844 379.294 52.6899C379.397 52.5332 379.475 52.3418 379.529 52.1158C379.583 51.8872 379.61 51.6251 379.61 51.3297ZM387.338 52.0002H385.908V51.0985H387.338C387.559 51.0985 387.738 51.0626 387.877 50.9906C388.016 50.9161 388.117 50.8134 388.182 50.6824C388.246 50.5514 388.278 50.4037 388.278 50.2393C388.278 50.0723 388.246 49.9169 388.182 49.773C388.117 49.6292 388.016 49.5136 387.877 49.4262C387.738 49.3389 387.559 49.2952 387.338 49.2952H386.309V54H385.153V48.3897H387.338C387.777 48.3897 388.153 48.4694 388.467 48.6286C388.783 48.7853 389.024 49.0024 389.191 49.2798C389.358 49.5572 389.442 49.8745 389.442 50.2316C389.442 50.5938 389.358 50.9072 389.191 51.1717C389.024 51.4363 388.783 51.6405 388.467 51.7844C388.153 51.9283 387.777 52.0002 387.338 52.0002ZM391.028 48.3897H393.121C393.55 48.3897 393.918 48.4539 394.227 48.5824C394.537 48.7108 394.776 48.9009 394.943 49.1527C395.11 49.4044 395.194 49.7139 395.194 50.0813C395.194 50.3818 395.142 50.64 395.04 50.8558C394.939 51.069 394.797 51.2475 394.612 51.3914C394.429 51.5327 394.215 51.6457 393.968 51.7305L393.602 51.9231H391.784L391.776 51.0215H393.128C393.331 51.0215 393.5 50.9855 393.633 50.9136C393.767 50.8417 393.867 50.7415 393.934 50.613C394.003 50.4846 394.038 50.3356 394.038 50.1661C394.038 49.9862 394.004 49.8308 393.938 49.6998C393.871 49.5688 393.769 49.4686 393.633 49.3993C393.497 49.3299 393.326 49.2952 393.121 49.2952H392.184V54H391.028V48.3897ZM394.165 54L392.886 51.4993L394.107 51.4916L395.402 53.9461V54H394.165ZM401.481 51.0639V51.3297C401.481 51.7561 401.424 52.1389 401.308 52.478C401.192 52.8171 401.029 53.1061 400.819 53.345C400.608 53.5813 400.356 53.7624 400.063 53.8883C399.773 54.0141 399.451 54.0771 399.096 54.0771C398.744 54.0771 398.422 54.0141 398.129 53.8883C397.839 53.7624 397.587 53.5813 397.374 53.345C397.161 53.1061 396.995 52.8171 396.877 52.478C396.761 52.1389 396.703 51.7561 396.703 51.3297V51.0639C396.703 50.6349 396.761 50.2521 396.877 49.9156C396.992 49.5765 397.155 49.2875 397.366 49.0486C397.579 48.8097 397.831 48.6273 398.121 48.5015C398.414 48.3756 398.737 48.3127 399.088 48.3127C399.443 48.3127 399.765 48.3756 400.056 48.5015C400.348 48.6273 400.6 48.8097 400.811 49.0486C401.024 49.2875 401.188 49.5765 401.304 49.9156C401.422 50.2521 401.481 50.6349 401.481 51.0639ZM400.314 51.3297V51.0561C400.314 50.7582 400.287 50.4961 400.233 50.2701C400.179 50.044 400.099 49.8539 399.994 49.6998C399.889 49.5457 399.76 49.4301 399.609 49.353C399.457 49.2734 399.284 49.2336 399.088 49.2336C398.893 49.2336 398.72 49.2734 398.568 49.353C398.419 49.4301 398.292 49.5457 398.187 49.6998C398.084 49.8539 398.006 50.044 397.952 50.2701C397.898 50.4961 397.871 50.7582 397.871 51.0561V51.3297C397.871 51.6251 397.898 51.8872 397.952 52.1158C398.006 52.3418 398.085 52.5332 398.191 52.6899C398.296 52.844 398.424 52.9609 398.576 53.0406C398.728 53.1202 398.901 53.16 399.096 53.16C399.291 53.16 399.465 53.1202 399.616 53.0406C399.768 52.9609 399.895 52.844 399.998 52.6899C400.101 52.5332 400.179 52.3418 400.233 52.1158C400.287 51.8872 400.314 51.6251 400.314 51.3297ZM403.97 48.3897L405.026 50.3472L406.081 48.3897H407.403L405.773 51.1717L407.445 54H406.112L405.026 52.004L403.939 54H402.598L404.274 51.1717L402.64 48.3897H403.97ZM409.587 48.3897L410.758 50.9483L411.93 48.3897H413.19L411.344 51.9578V54H410.173V51.9578L408.323 48.3897H409.587Z" fill="#F3F3F3"/>
<path d="M357.782 71.3492L356.256 76H355.027L357.112 70.3897H357.894L357.782 71.3492ZM359.05 76L357.52 71.3492L357.397 70.3897H358.187L360.283 76H359.05ZM358.98 73.9116V74.8171H356.017V73.9116H358.98ZM366.158 70.3897V76H365.002L362.748 72.2393V76H361.592V70.3897H362.748L365.006 74.1543V70.3897H366.158ZM368.616 70.3897L369.787 72.9483L370.958 70.3897H372.218L370.373 73.9578V76H369.201V73.9578L367.352 70.3897H368.616Z" fill="#F3F3F3"/>
<g filter="url(#filter4_d_467_421)">
<g filter="url(#filter5_d_467_421)">
<path d="M385.08 73.2751H382.9L382.889 72.0743H384.719C385.042 72.0743 385.306 72.0335 385.512 71.9519C385.718 71.8664 385.871 71.744 385.972 71.5847C386.077 71.4214 386.13 71.2232 386.13 70.9901C386.13 70.7258 386.079 70.5121 385.978 70.3489C385.881 70.1856 385.727 70.0671 385.518 69.9933C385.312 69.9194 385.045 69.8825 384.719 69.8825H383.507V77H381.758V68.5127H384.719C385.213 68.5127 385.654 68.5593 386.042 68.6526C386.435 68.7458 386.767 68.8877 387.039 69.0781C387.311 69.2685 387.519 69.5095 387.663 69.8009C387.807 70.0885 387.878 70.4305 387.878 70.8269C387.878 71.1766 387.799 71.4992 387.639 71.7945C387.484 72.0899 387.237 72.3308 386.899 72.5173C386.565 72.7039 386.128 72.8068 385.588 72.8263L385.08 73.2751ZM385.005 77H382.422L383.104 75.636H385.005C385.312 75.636 385.562 75.5874 385.757 75.4902C385.951 75.3892 386.095 75.2532 386.188 75.0822C386.281 74.9112 386.328 74.7149 386.328 74.4934C386.328 74.2447 386.285 74.029 386.2 73.8464C386.118 73.6637 385.986 73.5238 385.803 73.4267C385.621 73.3256 385.38 73.2751 385.08 73.2751H383.396L383.407 72.0743H385.506L385.908 72.5465C386.425 72.5387 386.841 72.63 387.156 72.8204C387.474 73.007 387.706 73.2499 387.849 73.5491C387.997 73.8483 388.071 74.1689 388.071 74.5109C388.071 75.055 387.952 75.5135 387.715 75.8866C387.478 76.2558 387.13 76.5337 386.672 76.7202C386.217 76.9067 385.661 77 385.005 77ZM395.496 74.1845H397.239C397.204 74.7558 397.047 75.2629 396.767 75.7059C396.491 76.1489 396.104 76.4948 395.607 76.7435C395.113 76.9922 394.519 77.1166 393.823 77.1166C393.279 77.1166 392.791 77.0233 392.36 76.8368C391.929 76.6464 391.559 76.3743 391.252 76.0207C390.949 75.6671 390.718 75.2396 390.559 74.7383C390.399 74.237 390.32 73.6754 390.32 73.0536V72.4649C390.32 71.8431 390.401 71.2815 390.565 70.7802C390.732 70.275 390.969 69.8456 391.276 69.492C391.587 69.1383 391.958 68.8663 392.389 68.6759C392.82 68.4855 393.302 68.3902 393.835 68.3902C394.542 68.3902 395.139 68.5185 395.624 68.775C396.114 69.0315 396.493 69.3851 396.761 69.8359C397.033 70.2867 397.196 70.7997 397.251 71.3748H395.502C395.483 71.0328 395.414 70.7433 395.298 70.5062C395.181 70.2653 395.005 70.0846 394.767 69.9641C394.534 69.8398 394.223 69.7776 393.835 69.7776C393.543 69.7776 393.289 69.832 393.071 69.9408C392.854 70.0496 392.671 70.2148 392.523 70.4363C392.376 70.6578 392.265 70.9376 392.191 71.2757C392.121 71.6099 392.086 72.0024 392.086 72.4532V73.0536C392.086 73.4928 392.119 73.8794 392.185 74.2136C392.251 74.544 392.352 74.8238 392.488 75.053C392.628 75.2784 392.807 75.4494 393.025 75.566C393.246 75.6787 393.512 75.7351 393.823 75.7351C394.188 75.7351 394.49 75.6768 394.727 75.5602C394.964 75.4436 395.144 75.2707 395.269 75.0414C395.397 74.8121 395.473 74.5265 395.496 74.1845Z" fill="white"/>
</g>
</g>
<rect x="376.298" y="64.2985" width="26.4031" height="18.4031" rx="0.895368" stroke="#F4F4F4" stroke-width="0.596912"/>
<g filter="url(#filter6_f_467_421)">
<rect x="523" y="24.668" width="92.2609" height="83.3324" fill="url(#paint4_radial_467_421)"/>
<rect x="523.439" y="25.1069" width="91.3831" height="82.4546" stroke="#4205F0" stroke-width="0.877826"/>
</g>
<g opacity="0.5" filter="url(#filter7_f_467_421)">
<rect x="540.262" y="8" width="58.3327" height="69.0469" fill="url(#paint5_radial_467_421)"/>
<rect x="540.701" y="8.43891" width="57.4549" height="68.1691" stroke="#4205F0" stroke-width="0.877826"/>
</g>
<g filter="url(#filter8_f_467_421)">
<path d="M539.964 77.0449H599.19L615.261 107.997H523L539.964 77.0449Z" fill="url(#paint6_radial_467_421)" fill-opacity="0.3"/>
<path d="M523.741 107.558L540.224 77.4838H598.923L614.538 107.558H523.741Z" stroke="#4205F0" stroke-width="0.877826"/>
</g>
<g filter="url(#filter9_f_467_421)">
<path d="M540.857 8H597.999L615.261 24.6665H523L540.857 8Z" fill="url(#paint7_radial_467_421)"/>
<path d="M524.114 24.2276L541.03 8.43891H597.822L614.174 24.2276H524.114Z" stroke="#4205F0" stroke-width="0.877826"/>
</g>
<path d="M562.243 41.3897H563.395V45.0965C563.395 45.5281 563.303 45.8916 563.118 46.187C562.935 46.4824 562.682 46.7046 562.359 46.8536C562.038 47.0026 561.668 47.0771 561.249 47.0771C560.83 47.0771 560.458 47.0026 560.132 46.8536C559.808 46.7046 559.554 46.4824 559.369 46.187C559.186 45.8916 559.095 45.5281 559.095 45.0965V41.3897H560.251V45.0965C560.251 45.3483 560.291 45.5538 560.37 45.713C560.45 45.8723 560.564 45.9892 560.713 46.0637C560.865 46.1382 561.043 46.1754 561.249 46.1754C561.46 46.1754 561.638 46.1382 561.785 46.0637C561.934 45.9892 562.047 45.8723 562.124 45.713C562.203 45.5538 562.243 45.3483 562.243 45.0965V41.3897ZM568.057 45.5319C568.057 45.4317 568.041 45.3418 568.011 45.2622C567.982 45.18 567.928 45.1055 567.849 45.0387C567.769 44.9694 567.657 44.9013 567.514 44.8345C567.37 44.7677 567.183 44.6983 566.955 44.6264C566.701 44.5442 566.459 44.4517 566.23 44.349C566.004 44.2462 565.804 44.1268 565.629 43.9906C565.457 43.8519 565.321 43.6914 565.221 43.509C565.123 43.3266 565.074 43.1147 565.074 42.8732C565.074 42.6394 565.126 42.4275 565.229 42.2374C565.331 42.0448 565.475 41.8804 565.66 41.7442C565.845 41.6055 566.063 41.4989 566.315 41.4244C566.57 41.3499 566.848 41.3127 567.151 41.3127C567.565 41.3127 567.926 41.3872 568.234 41.5361C568.542 41.6851 568.781 41.8894 568.951 42.1488C569.123 42.4083 569.209 42.705 569.209 43.0389H568.061C568.061 42.8745 568.026 42.7306 567.957 42.6073C567.89 42.4815 567.787 42.3826 567.648 42.3106C567.512 42.2387 567.34 42.2028 567.132 42.2028C566.932 42.2028 566.765 42.2336 566.631 42.2952C566.498 42.3543 566.397 42.4352 566.331 42.538C566.264 42.6382 566.23 42.7512 566.23 42.8771C566.23 42.9721 566.254 43.0582 566.3 43.1352C566.349 43.2123 566.421 43.2842 566.516 43.351C566.611 43.4178 566.727 43.4807 566.866 43.5398C567.005 43.5989 567.165 43.6567 567.348 43.7132C567.654 43.8057 567.922 43.9097 568.153 44.0253C568.387 44.1409 568.582 44.2706 568.739 44.4145C568.896 44.5583 569.014 44.7215 569.093 44.9039C569.173 45.0862 569.213 45.293 569.213 45.5242C569.213 45.7683 569.165 45.9866 569.07 46.1793C568.975 46.3719 568.838 46.535 568.658 46.6686C568.478 46.8022 568.264 46.9037 568.014 46.973C567.765 47.0424 567.487 47.0771 567.178 47.0771C566.901 47.0771 566.627 47.0411 566.358 46.9692C566.088 46.8947 565.843 46.7829 565.622 46.6339C565.403 46.485 565.229 46.2949 565.098 46.0637C564.967 45.8325 564.901 45.5589 564.901 45.2429H566.061C566.061 45.4176 566.088 45.5653 566.142 45.6861C566.196 45.8068 566.272 45.9044 566.369 45.9789C566.469 46.0534 566.587 46.1073 566.724 46.1407C566.862 46.1741 567.014 46.1908 567.178 46.1908C567.379 46.1908 567.543 46.1626 567.672 46.1061C567.803 46.0495 567.899 45.9712 567.961 45.871C568.025 45.7708 568.057 45.6578 568.057 45.5319ZM574.553 46.0983V47H571.566V46.0983H574.553ZM571.944 41.3897V47H570.788V41.3897H571.944ZM574.163 43.6747V44.5532H571.566V43.6747H574.163ZM574.549 41.3897V42.2952H571.566V41.3897H574.549ZM576.016 41.3897H578.108C578.537 41.3897 578.906 41.4539 579.214 41.5824C579.525 41.7108 579.764 41.9009 579.931 42.1527C580.098 42.4044 580.181 42.7139 580.181 43.0813C580.181 43.3818 580.13 43.64 580.027 43.8558C579.927 44.069 579.784 44.2475 579.6 44.3914C579.417 44.5327 579.203 44.6457 578.956 44.7305L578.59 44.9231H576.771L576.764 44.0215H578.116C578.319 44.0215 578.487 43.9855 578.621 43.9136C578.754 43.8417 578.855 43.7415 578.921 43.613C578.991 43.4846 579.025 43.3356 579.025 43.1661C579.025 42.9862 578.992 42.8308 578.925 42.6998C578.858 42.5688 578.757 42.4686 578.621 42.3993C578.485 42.3299 578.314 42.2952 578.108 42.2952H577.172V47H576.016V41.3897ZM579.153 47L577.873 44.4993L579.095 44.4916L580.389 46.9461V47H579.153ZM550.401 54.1389H551.554C551.53 54.5165 551.426 54.8517 551.241 55.1446C551.059 55.4374 550.803 55.6661 550.475 55.8305C550.148 55.9949 549.755 56.0771 549.296 56.0771C548.936 56.0771 548.614 56.0154 548.328 55.8921C548.043 55.7662 547.799 55.5864 547.596 55.3527C547.396 55.1189 547.243 54.8363 547.138 54.505C547.032 54.1736 546.98 53.8024 546.98 53.3914V53.0022C546.98 52.5912 547.034 52.22 547.142 51.8886C547.252 51.5547 547.409 51.2708 547.612 51.0371C547.817 50.8033 548.063 50.6235 548.348 50.4976C548.633 50.3717 548.951 50.3088 549.303 50.3088C549.771 50.3088 550.165 50.3936 550.486 50.5631C550.81 50.7327 551.06 50.9664 551.238 51.2644C551.417 51.5624 551.525 51.9015 551.561 52.2817H550.405C550.392 52.0556 550.347 51.8642 550.27 51.7075C550.193 51.5483 550.076 51.4288 549.92 51.3492C549.766 51.267 549.56 51.2259 549.303 51.2259C549.111 51.2259 548.942 51.2618 548.798 51.3338C548.655 51.4057 548.534 51.5149 548.436 51.6613C548.339 51.8077 548.265 51.9927 548.217 52.2161C548.17 52.4371 548.147 52.6965 548.147 52.9945V53.3914C548.147 53.6817 548.169 53.9372 548.213 54.1582C548.256 54.3765 548.323 54.5615 548.413 54.713C548.506 54.862 548.624 54.975 548.768 55.0521C548.914 55.1266 549.09 55.1639 549.296 55.1639C549.537 55.1639 549.736 55.1253 549.893 55.0483C550.05 54.9712 550.169 54.8569 550.251 54.7053C550.336 54.5538 550.386 54.365 550.401 54.1389ZM557.71 53.0639V53.3297C557.71 53.7561 557.652 54.1389 557.537 54.478C557.421 54.8171 557.258 55.1061 557.047 55.345C556.837 55.5813 556.585 55.7624 556.292 55.8883C556.002 56.0141 555.68 56.0771 555.325 56.0771C554.973 56.0771 554.651 56.0141 554.358 55.8883C554.068 55.7624 553.816 55.5813 553.603 55.345C553.389 55.1061 553.224 54.8171 553.106 54.478C552.99 54.1389 552.932 53.7561 552.932 53.3297V53.0639C552.932 52.6349 552.99 52.2521 553.106 51.9156C553.221 51.5765 553.384 51.2875 553.595 51.0486C553.808 50.8097 554.06 50.6273 554.35 50.5015C554.643 50.3756 554.965 50.3127 555.317 50.3127C555.672 50.3127 555.994 50.3756 556.285 50.5015C556.577 50.6273 556.829 50.8097 557.04 51.0486C557.253 51.2875 557.417 51.5765 557.533 51.9156C557.651 52.2521 557.71 52.6349 557.71 53.0639ZM556.543 53.3297V53.0561C556.543 52.7582 556.516 52.4961 556.462 52.2701C556.408 52.044 556.328 51.8539 556.223 51.6998C556.118 51.5457 555.989 51.4301 555.838 51.353C555.686 51.2734 555.513 51.2336 555.317 51.2336C555.122 51.2336 554.949 51.2734 554.797 51.353C554.648 51.4301 554.521 51.5457 554.416 51.6998C554.313 51.8539 554.235 52.044 554.181 52.2701C554.127 52.4961 554.1 52.7582 554.1 53.0561V53.3297C554.1 53.6251 554.127 53.8872 554.181 54.1158C554.235 54.3418 554.314 54.5332 554.42 54.6899C554.525 54.844 554.653 54.9609 554.805 55.0406C554.956 55.1202 555.13 55.16 555.325 55.16C555.52 55.16 555.694 55.1202 555.845 55.0406C555.997 54.9609 556.124 54.844 556.227 54.6899C556.329 54.5332 556.408 54.3418 556.462 54.1158C556.516 53.8872 556.543 53.6251 556.543 53.3297ZM563.898 50.3897V56H562.742L560.488 52.2393V56H559.332V50.3897H560.488L562.746 54.1543V50.3897H563.898ZM568.085 50.3897V56H566.933V50.3897H568.085ZM569.812 50.3897V51.2952H565.234V50.3897H569.812ZM571.26 50.3897H573.352C573.781 50.3897 574.15 50.4539 574.458 50.5824C574.769 50.7108 575.008 50.9009 575.175 51.1527C575.341 51.4044 575.425 51.7139 575.425 52.0813C575.425 52.3818 575.374 52.64 575.271 52.8558C575.171 53.069 575.028 53.2475 574.843 53.3914C574.661 53.5327 574.446 53.6457 574.2 53.7305L573.834 53.9231H572.015L572.007 53.0215H573.36C573.563 53.0215 573.731 52.9855 573.864 52.9136C573.998 52.8417 574.098 52.7415 574.165 52.613C574.234 52.4846 574.269 52.3356 574.269 52.1661C574.269 51.9862 574.236 51.8308 574.169 51.6998C574.102 51.5688 574.001 51.4686 573.864 51.3993C573.728 51.3299 573.557 51.2952 573.352 51.2952H572.416V56H571.26V50.3897ZM574.396 56L573.117 53.4993L574.338 53.4916L575.633 55.9461V56H574.396ZM579.385 51.3492L577.859 56H576.63L578.715 50.3897H579.497L579.385 51.3492ZM580.653 56L579.123 51.3492L579 50.3897H579.79L581.886 56H580.653ZM580.584 53.9116V54.8171H577.621V53.9116H580.584ZM586.378 54.1389H587.53C587.507 54.5165 587.403 54.8517 587.218 55.1446C587.036 55.4374 586.78 55.6661 586.451 55.8305C586.125 55.9949 585.732 56.0771 585.272 56.0771C584.913 56.0771 584.59 56.0154 584.305 55.8921C584.02 55.7662 583.776 55.5864 583.573 55.3527C583.373 55.1189 583.22 54.8363 583.114 54.505C583.009 54.1736 582.956 53.8024 582.956 53.3914V53.0022C582.956 52.5912 583.01 52.22 583.118 51.8886C583.229 51.5547 583.385 51.2708 583.588 51.0371C583.794 50.8033 584.039 50.6235 584.324 50.4976C584.609 50.3717 584.928 50.3088 585.28 50.3088C585.747 50.3088 586.142 50.3936 586.463 50.5631C586.787 50.7327 587.037 50.9664 587.214 51.2644C587.394 51.5624 587.502 51.9015 587.538 52.2817H586.382C586.369 52.0556 586.324 51.8642 586.247 51.7075C586.17 51.5483 586.053 51.4288 585.896 51.3492C585.742 51.267 585.537 51.2259 585.28 51.2259C585.087 51.2259 584.919 51.2618 584.775 51.3338C584.631 51.4057 584.511 51.5149 584.413 51.6613C584.315 51.8077 584.242 51.9927 584.193 52.2161C584.147 52.4371 584.124 52.6965 584.124 52.9945V53.3914C584.124 53.6817 584.146 53.9372 584.189 54.1582C584.233 54.3765 584.3 54.5615 584.39 54.713C584.482 54.862 584.6 54.975 584.744 55.0521C584.891 55.1266 585.067 55.1639 585.272 55.1639C585.514 55.1639 585.713 55.1253 585.869 55.0483C586.026 54.9712 586.146 54.8569 586.228 54.7053C586.313 54.5538 586.363 54.365 586.378 54.1389ZM591.471 50.3897V56H590.319V50.3897H591.471ZM593.198 50.3897V51.2952H588.62V50.3897H593.198Z" fill="#F3F3F3"/>
<path d="M548.784 71.3492L547.258 76H546.029L548.114 70.3897H548.896L548.784 71.3492ZM550.052 76L548.522 71.3492L548.399 70.3897H549.189L551.285 76H550.052ZM549.982 73.9116V74.8171H547.019V73.9116H549.982ZM557.16 70.3897V76H556.004L553.75 72.2393V76H552.594V70.3897H553.75L556.008 74.1543V70.3897H557.16ZM559.618 70.3897L560.789 72.9483L561.96 70.3897H563.22L561.375 73.9578V76H560.203V73.9578L558.354 70.3897H559.618Z" fill="#F3F3F3"/>
<g filter="url(#filter10_d_467_421)">
<g filter="url(#filter11_d_467_421)">
<path d="M576.082 73.2751H573.902L573.891 72.0743H575.721C576.044 72.0743 576.308 72.0335 576.514 71.9519C576.72 71.8664 576.873 71.744 576.974 71.5847C577.079 71.4214 577.132 71.2232 577.132 70.9901C577.132 70.7258 577.081 70.5121 576.98 70.3489C576.883 70.1856 576.729 70.0671 576.52 69.9933C576.314 69.9194 576.047 69.8825 575.721 69.8825H574.509V77H572.76V68.5127H575.721C576.215 68.5127 576.656 68.5593 577.044 68.6526C577.437 68.7458 577.769 68.8877 578.041 69.0781C578.313 69.2685 578.521 69.5095 578.665 69.8009C578.809 70.0885 578.88 70.4305 578.88 70.8269C578.88 71.1766 578.801 71.4992 578.641 71.7945C578.486 72.0899 578.239 72.3308 577.901 72.5173C577.567 72.7039 577.13 72.8068 576.59 72.8263L576.082 73.2751ZM576.007 77H573.424L574.106 75.636H576.007C576.314 75.636 576.564 75.5874 576.759 75.4902C576.953 75.3892 577.097 75.2532 577.19 75.0822C577.283 74.9112 577.33 74.7149 577.33 74.4934C577.33 74.2447 577.287 74.029 577.202 73.8464C577.12 73.6637 576.988 73.5238 576.805 73.4267C576.623 73.3256 576.382 73.2751 576.082 73.2751H574.398L574.409 72.0743H576.508L576.91 72.5465C577.427 72.5387 577.843 72.63 578.158 72.8204C578.476 73.007 578.707 73.2499 578.851 73.5491C578.999 73.8483 579.073 74.1689 579.073 74.5109C579.073 75.055 578.954 75.5135 578.717 75.8866C578.48 76.2558 578.132 76.5337 577.674 76.7202C577.219 76.9067 576.663 77 576.007 77ZM586.498 74.1845H588.241C588.206 74.7558 588.049 75.2629 587.769 75.7059C587.493 76.1489 587.106 76.4948 586.609 76.7435C586.115 76.9922 585.521 77.1166 584.825 77.1166C584.281 77.1166 583.793 77.0233 583.362 76.8368C582.931 76.6464 582.561 76.3743 582.254 76.0207C581.951 75.6671 581.72 75.2396 581.561 74.7383C581.401 74.237 581.322 73.6754 581.322 73.0536V72.4649C581.322 71.8431 581.403 71.2815 581.567 70.7802C581.734 70.275 581.971 69.8456 582.278 69.492C582.589 69.1383 582.96 68.8663 583.391 68.6759C583.822 68.4855 584.304 68.3902 584.837 68.3902C585.544 68.3902 586.141 68.5185 586.626 68.775C587.116 69.0315 587.495 69.3851 587.763 69.8359C588.035 70.2867 588.198 70.7997 588.253 71.3748H586.504C586.484 71.0328 586.416 70.7433 586.3 70.5062C586.183 70.2653 586.006 70.0846 585.769 69.9641C585.536 69.8398 585.225 69.7776 584.837 69.7776C584.545 69.7776 584.291 69.832 584.073 69.9408C583.855 70.0496 583.673 70.2148 583.525 70.4363C583.377 70.6578 583.267 70.9376 583.193 71.2757C583.123 71.6099 583.088 72.0024 583.088 72.4532V73.0536C583.088 73.4928 583.121 73.8794 583.187 74.2136C583.253 74.544 583.354 74.8238 583.49 75.053C583.63 75.2784 583.809 75.4494 584.026 75.566C584.248 75.6787 584.514 75.7351 584.825 75.7351C585.19 75.7351 585.492 75.6768 585.729 75.5602C585.966 75.4436 586.146 75.2707 586.271 75.0414C586.399 74.8121 586.475 74.5265 586.498 74.1845Z" fill="white"/>
</g>
</g>
<rect x="567.3" y="64.2985" width="26.4031" height="18.4031" rx="0.895368" stroke="#F4F4F4" stroke-width="0.596912"/>
<path d="M523 60.5C523 44.7599 500.614 32 473 32C445.386 32 423 44.7599 423 60.5" stroke="url(#paint8_radial_467_421)" stroke-width="2"/>
<path d="M427.747 46.8081L433.945 45.9896L430.137 41.0311L427.747 46.8081Z" fill="#4205F0"/>
<path d="M518.924 48.2592L512.726 47.4408L516.534 42.4823L518.924 48.2592Z" fill="#4205F0"/>
<g filter="url(#filter12_f_467_421)">
<rect x="257" y="55.3828" width="61" height="1" fill="url(#paint9_linear_467_421)"/>
</g>
<path d="M321.375 56.6092L315.96 53.4833V59.7352L321.375 56.6092Z" fill="#4205F0"/>
<g filter="url(#filter13_f_467_421)">
<g filter="url(#filter14_f_467_421)">
<path d="M59.6383 89.8817C50.6931 89.8817 41.7497 89.8853 32.8045 89.8798C30.3992 89.8798 28.7099 88.6599 28.1547 86.5596C27.9648 85.8382 27.9301 85.1022 28.162 84.3991C29.1464 81.4332 29.9262 78.3814 31.5261 75.6602C35.301 69.2353 40.9151 65.559 48.2824 64.5125C48.8869 64.4267 49.2321 64.6878 49.6192 65.0622C52.6582 68.0007 56.1976 69.7302 60.5259 69.4326C64.0233 69.1915 66.9326 67.6336 69.3945 65.2266C70.041 64.5947 70.6345 64.4431 71.491 64.5947C80.3377 66.1763 86.3407 71.1383 89.4253 79.5923C89.9568 81.0478 90.4535 82.5144 90.9211 83.9918C91.8817 87.0253 89.9276 89.7666 86.7443 89.8817C86.4704 89.8908 86.1964 89.8853 85.9225 89.8853C77.1599 89.8853 68.3973 89.8853 59.6365 89.8853L59.6383 89.8817Z" fill="url(#paint10_radial_467_421)"/>
<path d="M60.7104 89.2218L60.7122 89.2181H59.6383C57.081 89.2181 54.5239 89.2184 51.9669 89.2187C45.5795 89.2195 39.1927 89.2202 32.8049 89.2163H32.8045C31.714 89.2163 30.8322 88.9406 30.1722 88.4679C29.5161 87.998 29.038 87.3045 28.7963 86.3905C28.6291 85.7553 28.6112 85.1558 28.792 84.6074C28.996 83.9927 29.1895 83.3814 29.3813 82.7754C30.1338 80.3979 30.8606 78.1014 32.0981 75.9965L32.0982 75.9964C35.7682 69.75 41.2035 66.1882 48.3757 65.1694C48.5544 65.1441 48.6583 65.1711 48.7442 65.2125C48.8522 65.2646 48.9711 65.3585 49.158 65.5392L49.6192 65.0622L49.158 65.5392C52.2957 68.5732 56.0104 70.4082 60.5715 70.0945L60.5716 70.0945C64.2564 69.8405 67.3075 68.1951 69.8583 65.701C70.1267 65.4388 70.3451 65.3134 70.5495 65.2539C70.7565 65.1936 71.0091 65.1833 71.3748 65.2479C79.9924 66.7887 85.7998 71.5916 88.802 79.8197L88.8021 79.8198C89.33 81.2657 89.8236 82.723 90.2885 84.192L90.2885 84.1922C90.7101 85.5235 90.4838 86.7486 89.8457 87.6469C89.2073 88.5456 88.1209 89.1677 86.7213 89.2185C86.5361 89.2247 86.3563 89.2237 86.1623 89.2226C86.085 89.2222 86.0055 89.2218 85.9225 89.2218H85.8711H85.8198H85.7685H85.7171H85.6658H85.6144H85.5631H85.5117H85.4604H85.4091H85.3577H85.3064H85.255H85.2037H85.1523H85.101H85.0497H84.9983H84.947H84.8956H84.8443H84.7929H84.7416H84.6903H84.6389H84.5876H84.5362H84.4849H84.4335H84.3822H84.3308H84.2795H84.2282H84.1768H84.1255H84.0741H84.0228H83.9714H83.9201H83.8688H83.8174H83.7661H83.7147H83.6634H83.612H83.5607H83.5094H83.458H83.4067H83.3553H83.304H83.2526H83.2013H83.1499H83.0986H83.0473H82.9959H82.9446H82.8932H82.8419H82.7905H82.7392H82.6879H82.6365H82.5852H82.5338H82.4825H82.4311H82.3798H82.3285H82.2771H82.2258H82.1744H82.1231H82.0717H82.0204H81.9691H81.9177H81.8664H81.815H81.7637H81.7123H81.661H81.6097H81.5583H81.507H81.4556H81.4043H81.3529H81.3016H81.2503H81.1989H81.1476H81.0962H81.0449H80.9935H80.9422H80.8909H80.8395H80.7882H80.7368H80.6855H80.6341H80.5828H80.5315H80.4801H80.4288H80.3774H80.3261H80.2747H80.2234H80.1721H80.1207H80.0694H80.018H79.9667H79.9153H79.864H79.8127H79.7613H79.71H79.6586H79.6073H79.5559H79.5046H79.4533H79.4019H79.3506H79.2992H79.2479H79.1965H79.1452H79.0939H79.0425H78.9912H78.9398H78.8885H78.8371H78.7858H78.7345H78.6831H78.6318H78.5804H78.5291H78.4777H78.4264H78.3751H78.3237H78.2724H78.221H78.1697H78.1183H78.067H78.0157H77.9643H77.913H77.8616H77.8103H77.7589H77.7076H77.6563H77.6049H77.5536H77.5022H77.4509H77.3996H77.3482H77.2969H77.2455H77.1942H77.1428H77.0915H77.0402H76.9888H76.9375H76.8861H76.8348H76.7834H76.7321H76.6808H76.6294H76.5781H76.5267H76.4754H76.4241H76.3727H76.3214H76.27H76.2187H76.1673H76.116H76.0647H76.0133H75.962H75.9106H75.8593H75.808H75.7566H75.7053H75.6539H75.6026H75.5512H75.4999H75.4486H75.3972H75.3459H75.2945H75.2432H75.1919H75.1405H75.0892H75.0378H74.9865H74.9351H74.8838H74.8325H74.7811H74.7298H74.6784H74.6271H74.5758H74.5244H74.4731H74.4217H74.3704H74.319H74.2677H74.2164H74.165H74.1137H74.0623H74.011H73.9597H73.9083H73.857H73.8056H73.7543H73.703H73.6516H73.6003H73.5489H73.4976H73.4462H73.3949H73.3436H73.2922H73.2409H73.1895H73.1382H73.0869H73.0355H72.9842H72.9328H72.8815H72.8302H72.7788H72.7275H72.6761H72.6248H72.5735H72.5221H72.4708H72.4194H72.3681H72.3168H72.2654H72.2141H72.1627H72.1114H72.0601H72.0087H71.9574H71.906H71.8547H71.8033H71.752H71.7007H71.6493H71.598H71.5466H71.4953H71.444H71.3926H71.3413H71.2899H71.2386H71.1873H71.1359H71.0846H71.0332H70.9819H70.9306H70.8792H70.8279H70.7765H70.7252H70.6739H70.6225H70.5712H70.5198H70.4685H70.4172H70.3658H70.3145H70.2631H70.2118H70.1605H70.1091H70.0578H70.0065H69.9551H69.9038H69.8524H69.8011H69.7498H69.6984H69.6471H69.5957H69.5444H69.4931H69.4417H69.3904H69.339H69.2877H69.2364H69.185H69.1337H69.0823H69.031H68.9797H68.9283H68.877H68.8257H68.7743H68.723H68.6716H68.6203H68.569H68.5176H68.4663H68.4149H68.3636H68.3123H68.2609H68.2096H68.1583H68.1069H68.0556H68.0042H67.9529H67.9016H67.8502H67.7989H67.7475H67.6962H67.6449H67.5935H67.5422H67.4909H67.4395H67.3882H67.3368H67.2855H67.2342H67.1828H67.1315H67.0802H67.0288H66.9775H66.9261H66.8748H66.8235H66.7721H66.7208H66.6694H66.6181H66.5668H66.5154H66.4641H66.4128H66.3614H66.3101H66.2587H66.2074H66.1561H66.1047H66.0534H66.0021H65.9507H65.8994H65.848H65.7967H65.7454H65.694H65.6427H65.5914H65.54H65.4887H65.4374H65.386H65.3347H65.2833H65.232H65.1807H65.1293H65.078H65.0267H64.9753H64.924H64.8727H64.8213H64.77H64.7186H64.6673H64.616H64.5646H64.5133H64.462H64.4106H64.3593H64.3079H64.2566H64.2053H64.1539H64.1026H64.0513H63.9999H63.9486H63.8973H63.8459H63.7946H63.7433H63.6919H63.6406H63.5892H63.5379H63.4866H63.4352H63.3839H63.3326H63.2812H63.2299H63.1786H63.1272H63.0759H63.0246H62.9732H62.9219H62.8706H62.8192H62.7679H62.7165H62.6652H62.6139H62.5625H62.5112H62.4599H62.4085H62.3572H62.3059H62.2545H62.2032H62.1519H62.1005H62.0492H61.9979H61.9465H61.8952H61.8439H61.7925H61.7412H61.6899H61.6385H61.5872H61.5359H61.4845H61.4332H61.3819H61.3305H61.2792H61.2278H61.1765H61.1252H61.0738H61.0225H60.9712H60.9198H60.8685H60.8172H60.7658H60.7145H60.7104Z" stroke="#4205F0" stroke-width="1.32705"/>
</g>
<g filter="url(#filter15_f_467_421)">
<path d="M73.7995 44.5344C73.5493 50.3275 71.8344 56.084 67.769 60.9931C66.3116 62.7518 64.5602 64.1708 62.3613 64.8886C59.1416 65.9405 56.2414 65.1662 53.6444 63.1116C50.5927 60.6972 48.6823 57.4683 47.3345 53.8942C45.4827 48.9851 44.838 43.9372 45.9794 38.7578C47.8605 30.2181 56.3656 25.382 64.3575 28.3534C69.3451 30.2071 72.0901 34.0259 73.3046 39.0701C73.699 40.7065 73.7849 42.3757 73.7977 44.5326L73.7995 44.5344Z" fill="url(#paint11_radial_467_421)"/>
<path d="M62.1555 64.2578L62.1553 64.2579C59.1831 65.2289 56.5109 64.5333 54.0561 62.5912C51.1299 60.2762 49.2774 57.1657 47.9554 53.6601L47.9554 53.66C46.1398 48.8471 45.5187 43.9313 46.6274 38.9006L46.6274 38.9006C48.4267 30.7322 56.5331 26.1522 64.1263 28.9753L64.1263 28.9754C68.8637 30.736 71.4849 34.3469 72.6595 39.2255L72.6595 39.2256C73.0351 40.7836 73.1214 42.3887 73.1341 44.5365L73.1343 44.5582C72.8809 50.2199 71.2008 55.8088 67.258 60.5699C65.8546 62.2634 64.2014 63.59 62.1555 64.2578Z" stroke="#4205F0" stroke-width="1.32705"/>
</g>
</g>
<g filter="url(#filter16_f_467_421)">
<path d="M59.6383 80.407C50.6931 80.407 41.7497 80.4107 32.8045 80.4052C30.3992 80.4052 28.7099 79.1852 28.1547 77.085C27.9648 76.3636 27.9301 75.6276 28.162 74.9245C29.1464 71.9586 29.9262 68.9068 31.5261 66.1856C35.301 59.7607 40.9151 56.0844 48.2824 55.0379C48.8869 54.952 49.2321 55.2132 49.6192 55.5876C52.6582 58.5261 56.1976 60.2556 60.5259 59.9579C64.0233 59.7169 66.9326 58.159 69.3945 55.752C70.041 55.1201 70.6345 54.9685 71.491 55.1201C80.3377 56.7016 86.3407 61.6637 89.4253 70.1177C89.9568 71.5732 90.4535 73.0397 90.9211 74.5172C91.8817 77.5507 89.9276 80.292 86.7443 80.407C86.4704 80.4162 86.1964 80.4107 85.9225 80.4107C77.1599 80.4107 68.3973 80.4107 59.6365 80.4107L59.6383 80.407Z" fill="url(#paint12_radial_467_421)"/>
<path d="M60.7104 79.7472L60.7122 79.7435H59.6383C57.081 79.7435 54.5239 79.7438 51.9669 79.7441C45.5795 79.7449 39.1927 79.7456 32.8049 79.7417H32.8045C31.714 79.7417 30.8322 79.466 30.1722 78.9933C29.5161 78.5234 29.038 77.8299 28.7963 76.9159C28.6291 76.2807 28.6112 75.6812 28.792 75.1328C28.996 74.5181 29.1895 73.9068 29.3813 73.3008C30.1338 70.9233 30.8606 68.6268 32.0981 66.5219L32.0982 66.5218C35.7682 60.2754 41.2035 56.7136 48.3757 55.6948C48.5544 55.6694 48.6583 55.6964 48.7442 55.7379C48.8522 55.7899 48.9711 55.8839 49.158 56.0646L49.6192 55.5876L49.158 56.0646C52.2957 59.0985 56.0104 60.9336 60.5715 60.6199L60.5716 60.6199C64.2564 60.3659 67.3075 58.7205 69.8583 56.2264C70.1267 55.9641 70.3451 55.8388 70.5495 55.7793C70.7565 55.719 71.0091 55.7087 71.3748 55.7733C79.9924 57.3141 85.7998 62.117 88.802 70.3451L88.8021 70.3452C89.33 71.791 89.8236 73.2484 90.2885 74.7174L90.2885 74.7175C90.7101 76.0489 90.4838 77.274 89.8457 78.1723C89.2073 79.071 88.1209 79.6931 86.7213 79.7439C86.5361 79.7501 86.3563 79.7491 86.1623 79.748C86.085 79.7476 86.0055 79.7472 85.9225 79.7472H85.8711H85.8198H85.7685H85.7171H85.6658H85.6144H85.5631H85.5117H85.4604H85.4091H85.3577H85.3064H85.255H85.2037H85.1523H85.101H85.0497H84.9983H84.947H84.8956H84.8443H84.7929H84.7416H84.6903H84.6389H84.5876H84.5362H84.4849H84.4335H84.3822H84.3308H84.2795H84.2282H84.1768H84.1255H84.0741H84.0228H83.9714H83.9201H83.8688H83.8174H83.7661H83.7147H83.6634H83.612H83.5607H83.5094H83.458H83.4067H83.3553H83.304H83.2526H83.2013H83.1499H83.0986H83.0473H82.9959H82.9446H82.8932H82.8419H82.7905H82.7392H82.6879H82.6365H82.5852H82.5338H82.4825H82.4311H82.3798H82.3285H82.2771H82.2258H82.1744H82.1231H82.0717H82.0204H81.9691H81.9177H81.8664H81.815H81.7637H81.7123H81.661H81.6097H81.5583H81.507H81.4556H81.4043H81.3529H81.3016H81.2503H81.1989H81.1476H81.0962H81.0449H80.9935H80.9422H80.8909H80.8395H80.7882H80.7368H80.6855H80.6341H80.5828H80.5315H80.4801H80.4288H80.3774H80.3261H80.2747H80.2234H80.1721H80.1207H80.0694H80.018H79.9667H79.9153H79.864H79.8127H79.7613H79.71H79.6586H79.6073H79.5559H79.5046H79.4533H79.4019H79.3506H79.2992H79.2479H79.1965H79.1452H79.0939H79.0425H78.9912H78.9398H78.8885H78.8371H78.7858H78.7345H78.6831H78.6318H78.5804H78.5291H78.4777H78.4264H78.3751H78.3237H78.2724H78.221H78.1697H78.1183H78.067H78.0157H77.9643H77.913H77.8616H77.8103H77.7589H77.7076H77.6563H77.6049H77.5536H77.5022H77.4509H77.3996H77.3482H77.2969H77.2455H77.1942H77.1428H77.0915H77.0402H76.9888H76.9375H76.8861H76.8348H76.7834H76.7321H76.6808H76.6294H76.5781H76.5267H76.4754H76.4241H76.3727H76.3214H76.27H76.2187H76.1673H76.116H76.0647H76.0133H75.962H75.9106H75.8593H75.808H75.7566H75.7053H75.6539H75.6026H75.5512H75.4999H75.4486H75.3972H75.3459H75.2945H75.2432H75.1919H75.1405H75.0892H75.0378H74.9865H74.9351H74.8838H74.8325H74.7811H74.7298H74.6784H74.6271H74.5758H74.5244H74.4731H74.4217H74.3704H74.319H74.2677H74.2164H74.165H74.1137H74.0623H74.011H73.9597H73.9083H73.857H73.8056H73.7543H73.703H73.6516H73.6003H73.5489H73.4976H73.4462H73.3949H73.3436H73.2922H73.2409H73.1895H73.1382H73.0869H73.0355H72.9842H72.9328H72.8815H72.8302H72.7788H72.7275H72.6761H72.6248H72.5735H72.5221H72.4708H72.4194H72.3681H72.3168H72.2654H72.2141H72.1627H72.1114H72.0601H72.0087H71.9574H71.906H71.8547H71.8033H71.752H71.7007H71.6493H71.598H71.5466H71.4953H71.444H71.3926H71.3413H71.2899H71.2386H71.1873H71.1359H71.0846H71.0332H70.9819H70.9306H70.8792H70.8279H70.7765H70.7252H70.6739H70.6225H70.5712H70.5198H70.4685H70.4172H70.3658H70.3145H70.2631H70.2118H70.1605H70.1091H70.0578H70.0065H69.9551H69.9038H69.8524H69.8011H69.7498H69.6984H69.6471H69.5957H69.5444H69.4931H69.4417H69.3904H69.339H69.2877H69.2364H69.185H69.1337H69.0823H69.031H68.9797H68.9283H68.877H68.8257H68.7743H68.723H68.6716H68.6203H68.569H68.5176H68.4663H68.4149H68.3636H68.3123H68.2609H68.2096H68.1583H68.1069H68.0556H68.0042H67.9529H67.9016H67.8502H67.7989H67.7475H67.6962H67.6449H67.5935H67.5422H67.4909H67.4395H67.3882H67.3368H67.2855H67.2342H67.1828H67.1315H67.0802H67.0288H66.9775H66.9261H66.8748H66.8235H66.7721H66.7208H66.6694H66.6181H66.5668H66.5154H66.4641H66.4128H66.3614H66.3101H66.2587H66.2074H66.1561H66.1047H66.0534H66.0021H65.9507H65.8994H65.848H65.7967H65.7454H65.694H65.6427H65.5914H65.54H65.4887H65.4374H65.386H65.3347H65.2833H65.232H65.1807H65.1293H65.078H65.0267H64.9753H64.924H64.8727H64.8213H64.77H64.7186H64.6673H64.616H64.5646H64.5133H64.462H64.4106H64.3593H64.3079H64.2566H64.2053H64.1539H64.1026H64.0513H63.9999H63.9486H63.8973H63.8459H63.7946H63.7433H63.6919H63.6406H63.5892H63.5379H63.4866H63.4352H63.3839H63.3326H63.2812H63.2299H63.1786H63.1272H63.0759H63.0246H62.9732H62.9219H62.8706H62.8192H62.7679H62.7165H62.6652H62.6139H62.5625H62.5112H62.4599H62.4085H62.3572H62.3059H62.2545H62.2032H62.1519H62.1005H62.0492H61.9979H61.9465H61.8952H61.8439H61.7925H61.7412H61.6899H61.6385H61.5872H61.5359H61.4845H61.4332H61.3819H61.3305H61.2792H61.2278H61.1765H61.1252H61.0738H61.0225H60.9712H60.9198H60.8685H60.8172H60.7658H60.7145H60.7104Z" stroke="#4205F0" stroke-width="1.32705"/>
</g>
<g filter="url(#filter17_f_467_421)">
<path d="M73.7995 35.0598C73.5493 40.8529 71.8344 46.6094 67.769 51.5185C66.3116 53.2772 64.5602 54.6962 62.3613 55.414C59.1416 56.4659 56.2414 55.6916 53.6444 53.637C50.5927 51.2226 48.6823 47.9937 47.3345 44.4196C45.4827 39.5105 44.838 34.4626 45.9794 29.2832C47.8605 20.7434 56.3656 15.9074 64.3575 18.8788C69.3451 20.7325 72.0901 24.5513 73.3046 29.5955C73.699 31.2319 73.7849 32.9011 73.7977 35.058L73.7995 35.0598Z" fill="url(#paint13_radial_467_421)"/>
<path d="M62.1555 54.7832L62.1553 54.7832C59.1831 55.7543 56.5109 55.0587 54.0561 53.1166C51.1299 50.8016 49.2774 47.6911 47.9554 44.1855L47.9554 44.1854C46.1398 39.3725 45.5187 34.4567 46.6274 29.426L46.6274 29.426C48.4267 21.2576 56.5331 16.6776 64.1263 19.5007L64.1263 19.5007C68.8637 21.2614 71.4849 24.8723 72.6595 29.7508L72.6595 29.751C73.0351 31.309 73.1214 32.9141 73.1341 35.0619L73.1343 35.0836C72.8809 40.7453 71.2008 46.3342 67.258 51.0953C65.8546 52.7888 64.2014 54.1154 62.1555 54.7832Z" stroke="#4205F0" stroke-width="1.32705"/>
</g>
<g filter="url(#filter18_f_467_421)">
<rect x="96.5811" y="49.582" width="46.9238" height="0.902381" fill="url(#paint14_linear_467_421)"/>
</g>
<path d="M147.114 50.4842L141.7 47.3583V53.6102L147.114 50.4842Z" fill="#4205F0"/>
<path d="M99.753 33.1389H100.905C100.882 33.5165 100.778 33.8517 100.593 34.1446C100.411 34.4374 100.155 34.6661 99.8262 34.8305C99.5 34.9949 99.107 35.0771 98.6472 35.0771C98.2875 35.0771 97.9651 35.0154 97.68 34.8921C97.3949 34.7662 97.1508 34.5864 96.9479 34.3527C96.7475 34.1189 96.5947 33.8363 96.4894 33.505C96.384 33.1736 96.3314 32.8024 96.3314 32.3914V32.0022C96.3314 31.5912 96.3853 31.22 96.4932 30.8886C96.6037 30.5547 96.7604 30.2708 96.9633 30.0371C97.1688 29.8033 97.4141 29.6235 97.6993 29.4976C97.9844 29.3717 98.3029 29.3088 98.6549 29.3088C99.1224 29.3088 99.5167 29.3936 99.8378 29.5631C100.161 29.7327 100.412 29.9664 100.589 30.2644C100.769 30.5624 100.877 30.9015 100.913 31.2817H99.7569C99.744 31.0556 99.6991 30.8642 99.622 30.7075C99.545 30.5483 99.4281 30.4288 99.2714 30.3492C99.1172 30.267 98.9117 30.2259 98.6549 30.2259C98.4622 30.2259 98.2939 30.2618 98.1501 30.3338C98.0062 30.4057 97.8855 30.5149 97.7879 30.6613C97.6903 30.8077 97.6171 30.9927 97.5683 31.2161C97.522 31.4371 97.4989 31.6965 97.4989 31.9945V32.3914C97.4989 32.6817 97.5207 32.9372 97.5644 33.1582C97.6081 33.3765 97.6749 33.5615 97.7648 33.713C97.8572 33.862 97.9754 33.975 98.1193 34.0521C98.2657 34.1266 98.4417 34.1639 98.6472 34.1639C98.8886 34.1639 99.0877 34.1253 99.2444 34.0483C99.4011 33.9712 99.5206 33.8569 99.6028 33.7053C99.6875 33.5538 99.7376 33.365 99.753 33.1389ZM107.062 32.0639V32.3297C107.062 32.7561 107.004 33.1389 106.888 33.478C106.773 33.8171 106.61 34.1061 106.399 34.345C106.188 34.5813 105.937 34.7624 105.644 34.8883C105.354 35.0141 105.031 35.0771 104.677 35.0771C104.325 35.0771 104.002 35.0141 103.71 34.8883C103.419 34.7624 103.167 34.5813 102.954 34.345C102.741 34.1061 102.575 33.8171 102.457 33.478C102.342 33.1389 102.284 32.7561 102.284 32.3297V32.0639C102.284 31.6349 102.342 31.2521 102.457 30.9156C102.573 30.5765 102.736 30.2875 102.947 30.0486C103.16 29.8097 103.412 29.6273 103.702 29.5015C103.995 29.3756 104.317 29.3127 104.669 29.3127C105.023 29.3127 105.346 29.3756 105.636 29.5015C105.929 29.6273 106.181 29.8097 106.391 30.0486C106.605 30.2875 106.769 30.5765 106.885 30.9156C107.003 31.2521 107.062 31.6349 107.062 32.0639ZM105.894 32.3297V32.0561C105.894 31.7582 105.867 31.4961 105.813 31.2701C105.759 31.044 105.68 30.8539 105.574 30.6998C105.469 30.5457 105.341 30.4301 105.189 30.353C105.038 30.2734 104.864 30.2336 104.669 30.2336C104.474 30.2336 104.3 30.2734 104.149 30.353C104 30.4301 103.873 30.5457 103.767 30.6998C103.665 30.8539 103.586 31.044 103.532 31.2701C103.478 31.4961 103.451 31.7582 103.451 32.0561V32.3297C103.451 32.6251 103.478 32.8872 103.532 33.1158C103.586 33.3418 103.666 33.5332 103.771 33.6899C103.876 33.844 104.005 33.9609 104.156 34.0406C104.308 34.1202 104.481 34.16 104.677 34.16C104.872 34.16 105.045 34.1202 105.197 34.0406C105.348 33.9609 105.476 33.844 105.578 33.6899C105.681 33.5332 105.759 33.3418 105.813 33.1158C105.867 32.8872 105.894 32.6251 105.894 32.3297ZM113.249 29.3897V35H112.093L109.839 31.2393V35H108.683V29.3897H109.839L112.097 33.1543V29.3897H113.249ZM117.437 29.3897V35H116.285V29.3897H117.437ZM119.163 29.3897V30.2952H114.586V29.3897H119.163ZM120.611 29.3897H122.704C123.133 29.3897 123.501 29.4539 123.809 29.5824C124.12 29.7108 124.359 29.9009 124.526 30.1527C124.693 30.4044 124.777 30.7139 124.777 31.0813C124.777 31.3818 124.725 31.64 124.622 31.8558C124.522 32.069 124.38 32.2475 124.195 32.3914C124.012 32.5327 123.798 32.6457 123.551 32.7305L123.185 32.9231H121.366L121.359 32.0215H122.711C122.914 32.0215 123.082 31.9855 123.216 31.9136C123.35 31.8417 123.45 31.7415 123.517 31.613C123.586 31.4846 123.621 31.3356 123.621 31.1661C123.621 30.9862 123.587 30.8308 123.52 30.6998C123.454 30.5688 123.352 30.4686 123.216 30.3993C123.08 30.3299 122.909 30.2952 122.704 30.2952H121.767V35H120.611V29.3897ZM123.748 35L122.468 32.4993L123.69 32.4916L124.985 34.9461V35H123.748ZM128.737 30.3492L127.211 35H125.982L128.066 29.3897H128.849L128.737 30.3492ZM130.005 35L128.475 30.3492L128.352 29.3897H129.141L131.238 35H130.005ZM129.935 32.9116V33.8171H126.972V32.9116H129.935ZM135.73 33.1389H136.882C136.859 33.5165 136.755 33.8517 136.57 34.1446C136.387 34.4374 136.132 34.6661 135.803 34.8305C135.477 34.9949 135.084 35.0771 134.624 35.0771C134.264 35.0771 133.942 35.0154 133.657 34.8921C133.372 34.7662 133.127 34.5864 132.925 34.3527C132.724 34.1189 132.571 33.8363 132.466 33.505C132.361 33.1736 132.308 32.8024 132.308 32.3914V32.0022C132.308 31.5912 132.362 31.22 132.47 30.8886C132.58 30.5547 132.737 30.2708 132.94 30.0371C133.145 29.8033 133.391 29.6235 133.676 29.4976C133.961 29.3717 134.28 29.3088 134.632 29.3088C135.099 29.3088 135.493 29.3936 135.814 29.5631C136.138 29.7327 136.389 29.9664 136.566 30.2644C136.746 30.5624 136.854 30.9015 136.89 31.2817H135.734C135.721 31.0556 135.676 30.8642 135.599 30.7075C135.522 30.5483 135.405 30.4288 135.248 30.3492C135.094 30.267 134.888 30.2259 134.632 30.2259C134.439 30.2259 134.271 30.2618 134.127 30.3338C133.983 30.4057 133.862 30.5149 133.765 30.6613C133.667 30.8077 133.594 30.9927 133.545 31.2161C133.499 31.4371 133.476 31.6965 133.476 31.9945V32.3914C133.476 32.6817 133.497 32.9372 133.541 33.1582C133.585 33.3765 133.652 33.5615 133.741 33.713C133.834 33.862 133.952 33.975 134.096 34.0521C134.242 34.1266 134.418 34.1639 134.624 34.1639C134.865 34.1639 135.064 34.1253 135.221 34.0483C135.378 33.9712 135.497 33.8569 135.579 33.7053C135.664 33.5538 135.714 33.365 135.73 33.1389ZM140.823 29.3897V35H139.671V29.3897H140.823ZM142.549 29.3897V30.2952H137.972V29.3897H142.549Z" fill="#F3F3F3"/>
<g opacity="0.5" filter="url(#filter19_f_467_421)">
<path d="M169 24H229V84H169V24Z" fill="url(#paint15_radial_467_421)"/>
<path d="M169.439 24.4389H228.561V83.5611H169.439V24.4389Z" stroke="#4205F0" stroke-width="0.877826"/>
</g>
<path d="M182.104 50.3125V56H180.932V50.3125H182.104ZM184.37 52.7422V53.6562H181.784V52.7422H184.37ZM184.643 50.3125V51.2305H181.784V50.3125H184.643ZM187.716 51.2852L186.17 56H184.923L187.037 50.3125H187.83L187.716 51.2852ZM189.002 56L187.451 51.2852L187.326 50.3125H188.127L190.252 56H189.002ZM188.931 53.8828V54.8008H185.927V53.8828H188.931ZM194.805 54.1133H195.973C195.95 54.4961 195.845 54.8359 195.657 55.1328C195.472 55.4297 195.213 55.6615 194.88 55.8281C194.549 55.9948 194.151 56.0781 193.684 56.0781C193.32 56.0781 192.993 56.0156 192.704 55.8906C192.415 55.763 192.167 55.5807 191.962 55.3438C191.759 55.1068 191.604 54.8203 191.497 54.4844C191.39 54.1484 191.337 53.7721 191.337 53.3555V52.9609C191.337 52.5443 191.391 52.168 191.501 51.832C191.613 51.4935 191.772 51.2057 191.977 50.9688C192.186 50.7318 192.434 50.5495 192.723 50.4219C193.013 50.2943 193.335 50.2305 193.692 50.2305C194.166 50.2305 194.566 50.3164 194.891 50.4883C195.22 50.6602 195.473 50.8971 195.653 51.1992C195.835 51.5013 195.945 51.8451 195.981 52.2305H194.809C194.796 52.0013 194.751 51.8073 194.673 51.6484C194.595 51.487 194.476 51.3659 194.317 51.2852C194.161 51.2018 193.953 51.1602 193.692 51.1602C193.497 51.1602 193.326 51.1966 193.18 51.2695C193.035 51.3424 192.912 51.4531 192.813 51.6016C192.714 51.75 192.64 51.9375 192.591 52.1641C192.544 52.388 192.52 52.651 192.52 52.9531V53.3555C192.52 53.6497 192.542 53.9089 192.587 54.1328C192.631 54.3542 192.699 54.5417 192.79 54.6953C192.884 54.8464 193.003 54.9609 193.149 55.0391C193.298 55.1146 193.476 55.1523 193.684 55.1523C193.929 55.1523 194.131 55.1133 194.29 55.0352C194.449 54.957 194.57 54.8411 194.653 54.6875C194.739 54.5339 194.79 54.3424 194.805 54.1133ZM199.969 50.3125V56H198.801V50.3125H199.969ZM201.719 50.3125V51.2305H197.078V50.3125H201.719ZM207.749 53.0234V53.293C207.749 53.7253 207.691 54.1133 207.573 54.457C207.456 54.8008 207.291 55.0938 207.077 55.3359C206.864 55.5755 206.609 55.7591 206.312 55.8867C206.017 56.0143 205.691 56.0781 205.331 56.0781C204.974 56.0781 204.648 56.0143 204.351 55.8867C204.057 55.7591 203.801 55.5755 203.585 55.3359C203.369 55.0938 203.201 54.8008 203.081 54.457C202.964 54.1133 202.905 53.7253 202.905 53.293V53.0234C202.905 52.5885 202.964 52.2005 203.081 51.8594C203.198 51.5156 203.364 51.2227 203.577 50.9805C203.793 50.7383 204.049 50.5534 204.343 50.4258C204.64 50.2982 204.967 50.2344 205.323 50.2344C205.683 50.2344 206.01 50.2982 206.304 50.4258C206.601 50.5534 206.856 50.7383 207.07 50.9805C207.286 51.2227 207.452 51.5156 207.57 51.8594C207.689 52.2005 207.749 52.5885 207.749 53.0234ZM206.566 53.293V53.0156C206.566 52.7135 206.538 52.4479 206.484 52.2188C206.429 51.9896 206.348 51.7969 206.241 51.6406C206.135 51.4844 206.004 51.3672 205.851 51.2891C205.697 51.2083 205.521 51.168 205.323 51.168C205.126 51.168 204.95 51.2083 204.796 51.2891C204.645 51.3672 204.516 51.4844 204.409 51.6406C204.305 51.7969 204.226 51.9896 204.171 52.2188C204.116 52.4479 204.089 52.7135 204.089 53.0156V53.293C204.089 53.5924 204.116 53.8581 204.171 54.0898C204.226 54.319 204.307 54.513 204.413 54.6719C204.52 54.8281 204.65 54.9466 204.804 55.0273C204.958 55.1081 205.133 55.1484 205.331 55.1484C205.529 55.1484 205.705 55.1081 205.859 55.0273C206.012 54.9466 206.141 54.8281 206.245 54.6719C206.349 54.513 206.429 54.319 206.484 54.0898C206.538 53.8581 206.566 53.5924 206.566 53.293ZM209.393 50.3125H211.514C211.949 50.3125 212.323 50.3776 212.635 50.5078C212.95 50.638 213.192 50.8307 213.362 51.0859C213.531 51.3411 213.616 51.6549 213.616 52.0273C213.616 52.332 213.564 52.5938 213.459 52.8125C213.358 53.0286 213.213 53.2096 213.026 53.3555C212.841 53.4987 212.623 53.6133 212.373 53.6992L212.002 53.8945H210.159L210.151 52.9805H211.522C211.728 52.9805 211.898 52.944 212.034 52.8711C212.169 52.7982 212.271 52.6966 212.338 52.5664C212.409 52.4362 212.444 52.2852 212.444 52.1133C212.444 51.931 212.41 51.7734 212.342 51.6406C212.274 51.5078 212.172 51.4062 212.034 51.3359C211.896 51.2656 211.722 51.2305 211.514 51.2305H210.565V56H209.393V50.3125ZM212.573 56L211.276 53.4648L212.514 53.457L213.827 55.9453V56H212.573ZM215.912 50.3125L217.099 52.9062L218.287 50.3125H219.564L217.693 53.9297V56H216.505V53.9297L214.63 50.3125H215.912Z" fill="#DDD9F3"/>
<defs>
<filter id="filter0_f_467_421" x="330.242" y="22.9123" width="95.7722" height="86.8433" filterUnits="userSpaceOnUse" color-interpolation-filters="sRGB">
<feFlood flood-opacity="0" result="BackgroundImageFix"/>
<feBlend mode="normal" in="SourceGraphic" in2="BackgroundImageFix" result="shape"/>
<feGaussianBlur stdDeviation="0.877826" result="effect1_foregroundBlur_467_421"/>
</filter>
<filter id="filter1_f_467_421" x="347.504" y="6.24435" width="61.8441" height="72.5582" filterUnits="userSpaceOnUse" color-interpolation-filters="sRGB">
<feFlood flood-opacity="0" result="BackgroundImageFix"/>
<feBlend mode="normal" in="SourceGraphic" in2="BackgroundImageFix" result="shape"/>
<feGaussianBlur stdDeviation="0.877826" result="effect1_foregroundBlur_467_421"/>
</filter>
<filter id="filter2_f_467_421" x="330.242" y="75.2893" width="95.7722" height="34.4625" filterUnits="userSpaceOnUse" color-interpolation-filters="sRGB">
<feFlood flood-opacity="0" result="BackgroundImageFix"/>
<feBlend mode="normal" in="SourceGraphic" in2="BackgroundImageFix" result="shape"/>
<feGaussianBlur stdDeviation="0.877826" result="effect1_foregroundBlur_467_421"/>
</filter>
<filter id="filter3_f_467_421" x="330.242" y="6.24435" width="95.7722" height="20.1773" filterUnits="userSpaceOnUse" color-interpolation-filters="sRGB">
<feFlood flood-opacity="0" result="BackgroundImageFix"/>
<feBlend mode="normal" in="SourceGraphic" in2="BackgroundImageFix" result="shape"/>
<feGaussianBlur stdDeviation="0.877826" result="effect1_foregroundBlur_467_421"/>
</filter>
<filter id="filter4_d_467_421" x="380.435" y="67.0677" width="18.1389" height="11.3725" filterUnits="userSpaceOnUse" color-interpolation-filters="sRGB">
<feFlood flood-opacity="0" result="BackgroundImageFix"/>
<feColorMatrix in="SourceAlpha" type="matrix" values="0 0 0 0 0 0 0 0 0 0 0 0 0 0 0 0 0 0 127 0" result="hardAlpha"/>
<feOffset/>
<feGaussianBlur stdDeviation="0.661486"/>
<feComposite in2="hardAlpha" operator="out"/>
<feColorMatrix type="matrix" values="0 0 0 0 1 0 0 0 0 1 0 0 0 0 1 0 0 0 1 0"/>
<feBlend mode="normal" in2="BackgroundImageFix" result="effect1_dropShadow_467_421"/>
<feBlend mode="normal" in="SourceGraphic" in2="effect1_dropShadow_467_421" result="shape"/>
</filter>
<filter id="filter5_d_467_421" x="375.143" y="64.4217" width="28.7226" height="21.9563" filterUnits="userSpaceOnUse" color-interpolation-filters="sRGB">
<feFlood flood-opacity="0" result="BackgroundImageFix"/>
<feColorMatrix in="SourceAlpha" type="matrix" values="0 0 0 0 0 0 0 0 0 0 0 0 0 0 0 0 0 0 127 0" result="hardAlpha"/>
<feOffset dy="2.64594"/>
<feGaussianBlur stdDeviation="3.30743"/>
<feComposite in2="hardAlpha" operator="out"/>
<feColorMatrix type="matrix" values="0 0 0 0 1 0 0 0 0 1 0 0 0 0 1 0 0 0 0.25 0"/>
<feBlend mode="normal" in2="BackgroundImageFix" result="effect1_dropShadow_467_421"/>
<feBlend mode="normal" in="SourceGraphic" in2="effect1_dropShadow_467_421" result="shape"/>
</filter>
<filter id="filter6_f_467_421" x="521.244" y="22.9123" width="95.7722" height="86.8433" filterUnits="userSpaceOnUse" color-interpolation-filters="sRGB">
<feFlood flood-opacity="0" result="BackgroundImageFix"/>
<feBlend mode="normal" in="SourceGraphic" in2="BackgroundImageFix" result="shape"/>
<feGaussianBlur stdDeviation="0.877826" result="effect1_foregroundBlur_467_421"/>
</filter>
<filter id="filter7_f_467_421" x="538.506" y="6.24435" width="61.8441" height="72.5582" filterUnits="userSpaceOnUse" color-interpolation-filters="sRGB">
<feFlood flood-opacity="0" result="BackgroundImageFix"/>
<feBlend mode="normal" in="SourceGraphic" in2="BackgroundImageFix" result="shape"/>
<feGaussianBlur stdDeviation="0.877826" result="effect1_foregroundBlur_467_421"/>
</filter>
<filter id="filter8_f_467_421" x="521.244" y="75.2893" width="95.7722" height="34.4625" filterUnits="userSpaceOnUse" color-interpolation-filters="sRGB">
<feFlood flood-opacity="0" result="BackgroundImageFix"/>
<feBlend mode="normal" in="SourceGraphic" in2="BackgroundImageFix" result="shape"/>
<feGaussianBlur stdDeviation="0.877826" result="effect1_foregroundBlur_467_421"/>
</filter>
<filter id="filter9_f_467_421" x="521.244" y="6.24435" width="95.7722" height="20.1773" filterUnits="userSpaceOnUse" color-interpolation-filters="sRGB">
<feFlood flood-opacity="0" result="BackgroundImageFix"/>
<feBlend mode="normal" in="SourceGraphic" in2="BackgroundImageFix" result="shape"/>
<feGaussianBlur stdDeviation="0.877826" result="effect1_foregroundBlur_467_421"/>
</filter>
<filter id="filter10_d_467_421" x="571.437" y="67.0677" width="18.1389" height="11.3725" filterUnits="userSpaceOnUse" color-interpolation-filters="sRGB">
<feFlood flood-opacity="0" result="BackgroundImageFix"/>
<feColorMatrix in="SourceAlpha" type="matrix" values="0 0 0 0 0 0 0 0 0 0 0 0 0 0 0 0 0 0 127 0" result="hardAlpha"/>
<feOffset/>
<feGaussianBlur stdDeviation="0.661486"/>
<feComposite in2="hardAlpha" operator="out"/>
<feColorMatrix type="matrix" values="0 0 0 0 1 0 0 0 0 1 0 0 0 0 1 0 0 0 1 0"/>
<feBlend mode="normal" in2="BackgroundImageFix" result="effect1_dropShadow_467_421"/>
<feBlend mode="normal" in="SourceGraphic" in2="effect1_dropShadow_467_421" result="shape"/>
</filter>
<filter id="filter11_d_467_421" x="566.145" y="64.4217" width="28.7226" height="21.9563" filterUnits="userSpaceOnUse" color-interpolation-filters="sRGB">
<feFlood flood-opacity="0" result="BackgroundImageFix"/>
<feColorMatrix in="SourceAlpha" type="matrix" values="0 0 0 0 0 0 0 0 0 0 0 0 0 0 0 0 0 0 127 0" result="hardAlpha"/>
<feOffset dy="2.64594"/>
<feGaussianBlur stdDeviation="3.30743"/>
<feComposite in2="hardAlpha" operator="out"/>
<feColorMatrix type="matrix" values="0 0 0 0 1 0 0 0 0 1 0 0 0 0 1 0 0 0 0.25 0"/>
<feBlend mode="normal" in2="BackgroundImageFix" result="effect1_dropShadow_467_421"/>
<feBlend mode="normal" in="SourceGraphic" in2="effect1_dropShadow_467_421" result="shape"/>
</filter>
<filter id="filter12_f_467_421" x="254.346" y="52.7287" width="66.3082" height="6.30821" filterUnits="userSpaceOnUse" color-interpolation-filters="sRGB">
<feFlood flood-opacity="0" result="BackgroundImageFix"/>
<feBlend mode="normal" in="SourceGraphic" in2="BackgroundImageFix" result="shape"/>
<feGaussianBlur stdDeviation="1.32705" result="effect1_foregroundBlur_467_421"/>
</filter>
<filter id="filter13_f_467_421" x="0.928572" y="0.403181" width="117.31" height="116.555" filterUnits="userSpaceOnUse" color-interpolation-filters="sRGB">
<feFlood flood-opacity="0" result="BackgroundImageFix"/>
<feBlend mode="normal" in="SourceGraphic" in2="BackgroundImageFix" result="shape"/>
<feGaussianBlur stdDeviation="13.5357" result="effect1_foregroundBlur_467_421"/>
</filter>
<filter id="filter14_f_467_421" x="25.3459" y="61.842" width="68.4749" height="30.6988" filterUnits="userSpaceOnUse" color-interpolation-filters="sRGB">
<feFlood flood-opacity="0" result="BackgroundImageFix"/>
<feBlend mode="normal" in="SourceGraphic" in2="BackgroundImageFix" result="shape"/>
<feGaussianBlur stdDeviation="1.32705" result="effect1_foregroundBlur_467_421"/>
</filter>
<filter id="filter15_f_467_421" x="42.7577" y="24.8205" width="33.6959" height="43.191" filterUnits="userSpaceOnUse" color-interpolation-filters="sRGB">
<feFlood flood-opacity="0" result="BackgroundImageFix"/>
<feBlend mode="normal" in="SourceGraphic" in2="BackgroundImageFix" result="shape"/>
<feGaussianBlur stdDeviation="1.32705" result="effect1_foregroundBlur_467_421"/>
</filter>
<filter id="filter16_f_467_421" x="25.3459" y="52.3674" width="68.4749" height="30.6988" filterUnits="userSpaceOnUse" color-interpolation-filters="sRGB">
<feFlood flood-opacity="0" result="BackgroundImageFix"/>
<feBlend mode="normal" in="SourceGraphic" in2="BackgroundImageFix" result="shape"/>
<feGaussianBlur stdDeviation="1.32705" result="effect1_foregroundBlur_467_421"/>
</filter>
<filter id="filter17_f_467_421" x="42.7577" y="15.3459" width="33.6959" height="43.191" filterUnits="userSpaceOnUse" color-interpolation-filters="sRGB">
<feFlood flood-opacity="0" result="BackgroundImageFix"/>
<feBlend mode="normal" in="SourceGraphic" in2="BackgroundImageFix" result="shape"/>
<feGaussianBlur stdDeviation="1.32705" result="effect1_foregroundBlur_467_421"/>
</filter>
<filter id="filter18_f_467_421" x="93.927" y="46.9279" width="52.232" height="6.21055" filterUnits="userSpaceOnUse" color-interpolation-filters="sRGB">
<feFlood flood-opacity="0" result="BackgroundImageFix"/>
<feBlend mode="normal" in="SourceGraphic" in2="BackgroundImageFix" result="shape"/>
<feGaussianBlur stdDeviation="1.32705" result="effect1_foregroundBlur_467_421"/>
</filter>
<filter id="filter19_f_467_421" x="167.244" y="22.2443" width="63.5113" height="63.5113" filterUnits="userSpaceOnUse" color-interpolation-filters="sRGB">
<feFlood flood-opacity="0" result="BackgroundImageFix"/>
<feBlend mode="normal" in="SourceGraphic" in2="BackgroundImageFix" result="shape"/>
<feGaussianBlur stdDeviation="0.877826" result="effect1_foregroundBlur_467_421"/>
</filter>
<radialGradient id="paint0_radial_467_421" cx="0" cy="0" r="1" gradientUnits="userSpaceOnUse" gradientTransform="translate(377.66 65.8415) rotate(86.2627) scale(77.7979 86.1748)">
<stop offset="0.046875" stop-color="#4205F0"/>
<stop offset="1" stop-color="#4205F0" stop-opacity="0"/>
</radialGradient>
<radialGradient id="paint1_radial_467_421" cx="0" cy="0" r="1" gradientUnits="userSpaceOnUse" gradientTransform="translate(378.13 42.1152) rotate(87.1465) scale(64.4039 54.5331)">
<stop offset="0.046875" stop-color="#4205F0"/>
<stop offset="1" stop-color="#4205F0" stop-opacity="0"/>
</radialGradient>
<radialGradient id="paint2_radial_467_421" cx="0" cy="0" r="1" gradientUnits="userSpaceOnUse" gradientTransform="translate(377.66 92.338) rotate(80.0257) scale(29.2774 85.0532)">
<stop offset="0.046875" stop-color="#4205F0"/>
<stop offset="1" stop-color="#4205F0" stop-opacity="0"/>
</radialGradient>
<radialGradient id="paint3_radial_467_421" cx="0" cy="0" r="1" gradientUnits="userSpaceOnUse" gradientTransform="translate(377.66 -17.4924) rotate(86.2627) scale(77.798 86.1748)">
<stop offset="0.046875" stop-color="#4205F0"/>
<stop offset="1" stop-color="#4205F0" stop-opacity="0"/>
</radialGradient>
<radialGradient id="paint4_radial_467_421" cx="0" cy="0" r="1" gradientUnits="userSpaceOnUse" gradientTransform="translate(568.662 65.8415) rotate(86.2627) scale(77.7979 86.1748)">
<stop offset="0.046875" stop-color="#4205F0"/>
<stop offset="1" stop-color="#4205F0" stop-opacity="0"/>
</radialGradient>
<radialGradient id="paint5_radial_467_421" cx="0" cy="0" r="1" gradientUnits="userSpaceOnUse" gradientTransform="translate(569.132 42.1152) rotate(87.1465) scale(64.4039 54.5331)">
<stop offset="0.046875" stop-color="#4205F0"/>
<stop offset="1" stop-color="#4205F0" stop-opacity="0"/>
</radialGradient>
<radialGradient id="paint6_radial_467_421" cx="0" cy="0" r="1" gradientUnits="userSpaceOnUse" gradientTransform="translate(568.662 92.338) rotate(80.0257) scale(29.2774 85.0532)">
<stop offset="0.046875" stop-color="#4205F0"/>
<stop offset="1" stop-color="#4205F0" stop-opacity="0"/>
</radialGradient>
<radialGradient id="paint7_radial_467_421" cx="0" cy="0" r="1" gradientUnits="userSpaceOnUse" gradientTransform="translate(568.662 -17.4924) rotate(86.2627) scale(77.798 86.1748)">
<stop offset="0.046875" stop-color="#4205F0"/>
<stop offset="1" stop-color="#4205F0" stop-opacity="0"/>
</radialGradient>
<radialGradient id="paint8_radial_467_421" cx="0" cy="0" r="1" gradientUnits="userSpaceOnUse" gradientTransform="translate(473 32) rotate(-90) scale(54 189.474)">
<stop stop-color="#4205F0"/>
<stop offset="0.390625" stop-color="#4205F0" stop-opacity="0"/>
</radialGradient>
<linearGradient id="paint9_linear_467_421" x1="311.548" y1="55.8828" x2="304.753" y2="27.9364" gradientUnits="userSpaceOnUse">
<stop offset="0.046875" stop-color="#4205F0"/>
<stop offset="0.615513" stop-color="#4205F0" stop-opacity="0"/>
</linearGradient>
<radialGradient id="paint10_radial_467_421" cx="0" cy="0" r="1" gradientUnits="userSpaceOnUse" gradientTransform="translate(59.2625 77.0414) rotate(81.6499) scale(23.9076 58.4987)">
<stop offset="0.046875" stop-color="#4205F0"/>
<stop offset="1" stop-color="#4205F0" stop-opacity="0"/>
</radialGradient>
<radialGradient id="paint11_radial_467_421" cx="0" cy="0" r="1" gradientUnits="userSpaceOnUse" gradientTransform="translate(59.4614 46.1918) rotate(87.4685) scale(35.3257 26.5456)">
<stop offset="0.046875" stop-color="#4205F0"/>
<stop offset="1" stop-color="#4205F0" stop-opacity="0"/>
</radialGradient>
<radialGradient id="paint12_radial_467_421" cx="0" cy="0" r="1" gradientUnits="userSpaceOnUse" gradientTransform="translate(59.2625 67.5668) rotate(81.6499) scale(23.9076 58.4987)">
<stop offset="0.046875" stop-color="#120B24"/>
<stop offset="1" stop-color="#100A23" stop-opacity="0"/>
</radialGradient>
<radialGradient id="paint13_radial_467_421" cx="0" cy="0" r="1" gradientUnits="userSpaceOnUse" gradientTransform="translate(59.4614 36.7172) rotate(87.4685) scale(35.3257 26.5456)">
<stop offset="0.046875" stop-color="#120B24"/>
<stop offset="1" stop-color="#100A23" stop-opacity="0"/>
</radialGradient>
<linearGradient id="paint14_linear_467_421" x1="138.542" y1="50.0332" x2="131.497" y2="25.3335" gradientUnits="userSpaceOnUse">
<stop offset="0.046875" stop-color="#4205F0"/>
<stop offset="0.615513" stop-color="#4205F0" stop-opacity="0"/>
</linearGradient>
<radialGradient id="paint15_radial_467_421" cx="0" cy="0" r="1" gradientUnits="userSpaceOnUse" gradientTransform="translate(198.695 53.6453) rotate(86.6235) scale(55.9932 56.0639)">
<stop offset="0.046875" stop-color="#4205F0"/>
<stop offset="1" stop-color="#4205F0" stop-opacity="0"/>
</radialGradient>
</defs>
</svg>
