<svg width="372" height="363" viewBox="0 0 372 363" fill="none" xmlns="http://www.w3.org/2000/svg">
<g filter="url(#filter0_f_438_216)">
<rect x="15.998" y="98.9844" width="92.2609" height="83.3324" fill="url(#paint0_radial_438_216)"/>
<rect x="16.437" y="99.4233" width="91.3831" height="82.4546" stroke="#4205F0" stroke-width="0.877826"/>
</g>
<g opacity="0.5" filter="url(#filter1_f_438_216)">
<rect x="33.2598" y="82.3164" width="58.3327" height="69.0469" fill="url(#paint1_radial_438_216)"/>
<rect x="33.6987" y="82.7553" width="57.4549" height="68.1691" stroke="#4205F0" stroke-width="0.877826"/>
</g>
<g filter="url(#filter2_f_438_216)">
<path d="M32.9622 151.361H92.1877L108.259 182.313H15.998L32.9622 151.361Z" fill="url(#paint2_radial_438_216)" fill-opacity="0.3"/>
<path d="M16.7391 181.874L33.2221 151.8H91.9211L107.537 181.874H16.7391Z" stroke="#4205F0" stroke-width="0.877826"/>
</g>
<g filter="url(#filter3_f_438_216)">
<path d="M33.855 82.3164H90.9972L108.259 98.9829H15.998L33.855 82.3164Z" fill="url(#paint3_radial_438_216)"/>
<path d="M17.1116 98.544L34.028 82.7553H90.8199L107.172 98.544H17.1116Z" stroke="#4205F0" stroke-width="0.877826"/>
</g>
<path d="M47.3395 121.302V126.912H46.1835V121.302H47.3395ZM50.6995 121.302L48.4762 124.072L47.1931 125.452L46.985 124.357L47.852 123.171L49.2815 121.302H50.6995ZM49.3856 126.912L47.7325 124.319L48.5879 123.602L50.7534 126.912H49.3856ZM55.7541 126.01V126.912H52.7679V126.01H55.7541ZM53.1455 121.302V126.912H51.9896V121.302H53.1455ZM55.365 123.587V124.465H52.7679V123.587H55.365ZM55.7503 121.302V122.207H52.7679V121.302H55.7503ZM60.9822 126.01V126.912H57.9959V126.01H60.9822ZM58.3736 121.302V126.912H57.2176V121.302H58.3736ZM60.593 123.587V124.465H57.9959V123.587H60.593ZM60.9783 121.302V122.207H57.9959V121.302H60.9783ZM64.6304 124.912H63.2009V124.011H64.6304C64.8513 124.011 65.0311 123.975 65.1699 123.903C65.3086 123.828 65.41 123.726 65.4743 123.594C65.5385 123.463 65.5706 123.316 65.5706 123.151C65.5706 122.984 65.5385 122.829 65.4743 122.685C65.41 122.541 65.3086 122.426 65.1699 122.338C65.0311 122.251 64.8513 122.207 64.6304 122.207H63.6016V126.912H62.4456V121.302H64.6304C65.0697 121.302 65.446 121.381 65.7594 121.541C66.0754 121.697 66.3168 121.914 66.4838 122.192C66.6508 122.469 66.7343 122.787 66.7343 123.144C66.7343 123.506 66.6508 123.819 66.4838 124.084C66.3168 124.348 66.0754 124.553 65.7594 124.697C65.446 124.84 65.0697 124.912 64.6304 124.912ZM72.0856 126.01V126.912H69.0994V126.01H72.0856ZM69.477 121.302V126.912H68.321V121.302H69.477ZM71.6964 123.587V124.465H69.0994V123.587H71.6964ZM72.0817 121.302V122.207H69.0994V121.302H72.0817ZM73.549 121.302H75.6413C76.0703 121.302 76.439 121.366 76.7472 121.494C77.058 121.623 77.2969 121.813 77.4639 122.065C77.6309 122.317 77.7144 122.626 77.7144 122.993C77.7144 123.294 77.663 123.552 77.5602 123.768C77.4601 123.981 77.3175 124.16 77.1325 124.303C76.9501 124.445 76.7357 124.558 76.489 124.643L76.123 124.835H74.3043L74.2966 123.934H75.649C75.852 123.934 76.0202 123.898 76.1538 123.826C76.2874 123.754 76.3876 123.654 76.4544 123.525C76.5237 123.397 76.5584 123.248 76.5584 123.078C76.5584 122.898 76.525 122.743 76.4582 122.612C76.3914 122.481 76.29 122.381 76.1538 122.311C76.0177 122.242 75.8468 122.207 75.6413 122.207H74.705V126.912H73.549V121.302ZM76.6856 126.912L75.4063 124.411L76.6278 124.404L77.9224 126.858V126.912H76.6856Z" fill="#F3F3F3"/>
<g filter="url(#filter4_d_438_216)">
<g filter="url(#filter5_d_438_216)">
<path d="M53.0619 147.633H50.8818L50.8701 146.432H52.7005C53.023 146.432 53.2873 146.391 53.4933 146.309C53.6992 146.224 53.8527 146.101 53.9538 145.942C54.0587 145.779 54.1112 145.581 54.1112 145.347C54.1112 145.083 54.0606 144.87 53.9596 144.706C53.8624 144.543 53.7089 144.425 53.4991 144.351C53.2931 144.277 53.0269 144.24 52.7005 144.24H51.488V151.357H49.7392V142.87H52.7005C53.194 142.87 53.6351 142.917 54.0237 143.01C54.4162 143.103 54.7485 143.245 55.0205 143.436C55.2925 143.626 55.5005 143.867 55.6442 144.158C55.788 144.446 55.8599 144.788 55.8599 145.184C55.8599 145.534 55.7803 145.857 55.6209 146.152C55.4655 146.447 55.2187 146.688 54.8806 146.875C54.5464 147.061 54.1092 147.164 53.569 147.184L53.0619 147.633ZM52.9861 151.357H50.4038L51.0858 149.993H52.9861C53.2931 149.993 53.5438 149.945 53.7381 149.848C53.9324 149.747 54.0762 149.611 54.1695 149.44C54.2627 149.269 54.3094 149.072 54.3094 148.851C54.3094 148.602 54.2666 148.386 54.1811 148.204C54.0995 148.021 53.9674 147.881 53.7847 147.784C53.6021 147.683 53.3611 147.633 53.0619 147.633H51.3773L51.3889 146.432H53.4874L53.8896 146.904C54.4065 146.896 54.8223 146.987 55.1371 147.178C55.4558 147.364 55.687 147.607 55.8308 147.907C55.9785 148.206 56.0523 148.526 56.0523 148.868C56.0523 149.412 55.9338 149.871 55.6967 150.244C55.4597 150.613 55.1118 150.891 54.6533 151.078C54.1986 151.264 53.6429 151.357 52.9861 151.357ZM63.4775 148.542H65.2205C65.1855 149.113 65.0281 149.62 64.7483 150.063C64.4724 150.506 64.0857 150.852 63.5883 151.101C63.0948 151.35 62.5002 151.474 61.8046 151.474C61.2605 151.474 60.7728 151.381 60.3414 151.194C59.9101 151.004 59.5409 150.732 59.2339 150.378C58.9308 150.024 58.6995 149.597 58.5402 149.096C58.3809 148.594 58.3012 148.033 58.3012 147.411V146.822C58.3012 146.201 58.3828 145.639 58.546 145.138C58.7131 144.632 58.9502 144.203 59.2572 143.849C59.5681 143.496 59.9392 143.224 60.3706 143.033C60.8019 142.843 61.2838 142.748 61.8162 142.748C62.5235 142.748 63.12 142.876 63.6058 143.132C64.0954 143.389 64.4743 143.743 64.7425 144.193C65.0145 144.644 65.1777 145.157 65.2321 145.732H63.4834C63.4639 145.39 63.3959 145.101 63.2794 144.864C63.1628 144.623 62.9859 144.442 62.7489 144.322C62.5157 144.197 62.2048 144.135 61.8162 144.135C61.5248 144.135 61.2702 144.189 61.0526 144.298C60.835 144.407 60.6523 144.572 60.5046 144.794C60.357 145.015 60.2462 145.295 60.1724 145.633C60.1024 145.967 60.0675 146.36 60.0675 146.811V147.411C60.0675 147.85 60.1005 148.237 60.1666 148.571C60.2326 148.901 60.3337 149.181 60.4697 149.41C60.6096 149.636 60.7883 149.807 61.006 149.923C61.2275 150.036 61.4937 150.092 61.8046 150.092C62.1699 150.092 62.471 150.034 62.7081 149.918C62.9451 149.801 63.1259 149.628 63.2502 149.399C63.3785 149.17 63.4542 148.884 63.4775 148.542ZM71.0136 144.322L68.7052 151.357H66.8457L69.9993 142.87H71.1826L71.0136 144.322ZM72.9314 151.357L70.6172 144.322L70.4306 142.87H71.6256L74.7967 151.357H72.9314ZM72.8265 148.198V149.568H68.3438V148.198H72.8265Z" fill="white"/>
</g>
</g>
<rect x="44.0035" y="138.679" width="35.0228" height="17.8725" rx="0.895368" stroke="#F4F4F4" stroke-width="0.596912"/>
<g filter="url(#filter6_f_438_216)">
<rect x="240" y="98.9844" width="92.261" height="83.3325" fill="url(#paint4_radial_438_216)"/>
<rect x="240.439" y="99.4233" width="91.3832" height="82.4547" stroke="#4205F0" stroke-width="0.877826"/>
</g>
<g opacity="0.5" filter="url(#filter7_f_438_216)">
<rect x="257.262" y="82.3164" width="58.3328" height="69.047" fill="url(#paint5_radial_438_216)"/>
<rect x="257.701" y="82.7553" width="57.455" height="68.1692" stroke="#4205F0" stroke-width="0.877826"/>
</g>
<g filter="url(#filter8_f_438_216)">
<path d="M256.964 151.361H316.19L332.261 182.313H240L256.964 151.361Z" fill="url(#paint6_radial_438_216)" fill-opacity="0.3"/>
<path d="M240.741 181.875L257.224 151.8H315.923L331.539 181.875H240.741Z" stroke="#4205F0" stroke-width="0.877826"/>
</g>
<g filter="url(#filter9_f_438_216)">
<path d="M257.857 82.3164H314.999L332.261 98.9829H240L257.857 82.3164Z" fill="url(#paint7_radial_438_216)"/>
<path d="M241.114 98.544L258.03 82.7553H314.822L331.175 98.544H241.114Z" stroke="#4205F0" stroke-width="0.877826"/>
</g>
<path d="M271.339 121.306V126.916H270.183V121.306H271.339ZM274.699 121.306L272.475 124.076L271.192 125.456L270.984 124.361L271.851 123.175L273.281 121.306H274.699ZM273.385 126.916L271.732 124.323L272.587 123.606L274.752 126.916H273.385ZM279.753 126.014V126.916H276.767V126.014H279.753ZM277.145 121.306V126.916H275.989V121.306H277.145ZM279.364 123.591V124.469H276.767V123.591H279.364ZM279.749 121.306V122.211H276.767V121.306H279.749ZM284.981 126.014V126.916H281.995V126.014H284.981ZM282.373 121.306V126.916H281.217V121.306H282.373ZM284.592 123.591V124.469H281.995V123.591H284.592ZM284.977 121.306V122.211H281.995V121.306H284.977ZM288.629 124.916H287.2V124.015H288.629C288.85 124.015 289.03 123.979 289.169 123.907C289.308 123.832 289.409 123.729 289.473 123.598C289.537 123.467 289.57 123.32 289.57 123.155C289.57 122.988 289.537 122.833 289.473 122.689C289.409 122.545 289.308 122.43 289.169 122.342C289.03 122.255 288.85 122.211 288.629 122.211H287.601V126.916H286.445V121.306H288.629C289.069 121.306 289.445 121.385 289.758 121.545C290.074 121.701 290.316 121.918 290.483 122.196C290.65 122.473 290.733 122.791 290.733 123.148C290.733 123.51 290.65 123.823 290.483 124.088C290.316 124.352 290.074 124.557 289.758 124.7C289.445 124.844 289.069 124.916 288.629 124.916ZM296.085 126.014V126.916H293.098V126.014H296.085ZM293.476 121.306V126.916H292.32V121.306H293.476ZM295.695 123.591V124.469H293.098V123.591H295.695ZM296.081 121.306V122.211H293.098V121.306H296.081ZM297.548 121.306H299.64C300.069 121.306 300.438 121.37 300.746 121.498C301.057 121.627 301.296 121.817 301.463 122.069C301.63 122.32 301.713 122.63 301.713 122.997C301.713 123.298 301.662 123.556 301.559 123.772C301.459 123.985 301.317 124.164 301.132 124.307C300.949 124.449 300.735 124.562 300.488 124.646L300.122 124.839H298.303L298.296 123.937H299.648C299.851 123.937 300.019 123.902 300.153 123.83C300.286 123.758 300.387 123.657 300.453 123.529C300.523 123.401 300.557 123.252 300.557 123.082C300.557 122.902 300.524 122.747 300.457 122.616C300.39 122.485 300.289 122.385 300.153 122.315C300.017 122.246 299.846 122.211 299.64 122.211H298.704V126.916H297.548V121.306ZM300.685 126.916L299.405 124.415L300.627 124.408L301.921 126.862V126.916H300.685Z" fill="#F3F3F3"/>
<g filter="url(#filter10_d_438_216)">
<path d="M277.54 147.635H275.36L275.349 146.434H277.179C277.502 146.434 277.766 146.393 277.972 146.311C278.178 146.226 278.331 146.103 278.432 145.944C278.537 145.781 278.59 145.583 278.59 145.349C278.59 145.085 278.539 144.871 278.438 144.708C278.341 144.545 278.187 144.426 277.978 144.353C277.772 144.279 277.505 144.242 277.179 144.242H275.967V151.359H274.218V142.872H277.179C277.673 142.872 278.114 142.919 278.502 143.012C278.895 143.105 279.227 143.247 279.499 143.437C279.771 143.628 279.979 143.869 280.123 144.16C280.267 144.448 280.338 144.79 280.338 145.186C280.338 145.536 280.259 145.859 280.099 146.154C279.944 146.449 279.697 146.69 279.359 146.877C279.025 147.063 278.588 147.166 278.048 147.186L277.54 147.635ZM277.465 151.359H274.882L275.564 149.995H277.465C277.772 149.995 278.022 149.947 278.217 149.85C278.411 149.749 278.555 149.613 278.648 149.442C278.741 149.271 278.788 149.074 278.788 148.853C278.788 148.604 278.745 148.388 278.66 148.206C278.578 148.023 278.446 147.883 278.263 147.786C278.081 147.685 277.84 147.635 277.54 147.635H275.856L275.867 146.434H277.966L278.368 146.906C278.885 146.898 279.301 146.989 279.616 147.18C279.934 147.366 280.166 147.609 280.309 147.908C280.457 148.208 280.531 148.528 280.531 148.87C280.531 149.414 280.412 149.873 280.175 150.246C279.938 150.615 279.59 150.893 279.132 151.08C278.677 151.266 278.121 151.359 277.465 151.359ZM287.956 148.544H289.699C289.664 149.115 289.507 149.622 289.227 150.065C288.951 150.508 288.564 150.854 288.067 151.103C287.573 151.352 286.979 151.476 286.283 151.476C285.739 151.476 285.251 151.383 284.82 151.196C284.389 151.006 284.019 150.734 283.712 150.38C283.409 150.026 283.178 149.599 283.019 149.098C282.859 148.596 282.78 148.035 282.78 147.413V146.824C282.78 146.202 282.861 145.641 283.025 145.14C283.192 144.634 283.429 144.205 283.736 143.851C284.047 143.498 284.418 143.226 284.849 143.035C285.28 142.845 285.762 142.75 286.295 142.75C287.002 142.75 287.599 142.878 288.084 143.134C288.574 143.391 288.953 143.744 289.221 144.195C289.493 144.646 289.656 145.159 289.711 145.734H287.962C287.942 145.392 287.874 145.103 287.758 144.866C287.641 144.625 287.464 144.444 287.227 144.324C286.994 144.199 286.683 144.137 286.295 144.137C286.003 144.137 285.749 144.191 285.531 144.3C285.313 144.409 285.131 144.574 284.983 144.796C284.835 145.017 284.725 145.297 284.651 145.635C284.581 145.969 284.546 146.362 284.546 146.813V147.413C284.546 147.852 284.579 148.239 284.645 148.573C284.711 148.903 284.812 149.183 284.948 149.412C285.088 149.638 285.267 149.809 285.484 149.925C285.706 150.038 285.972 150.094 286.283 150.094C286.648 150.094 286.95 150.036 287.187 149.92C287.424 149.803 287.604 149.63 287.729 149.401C287.857 149.171 287.933 148.886 287.956 148.544ZM295.364 147.635H293.184L293.172 146.434H295.002C295.325 146.434 295.589 146.393 295.795 146.311C296.001 146.226 296.155 146.103 296.256 145.944C296.361 145.781 296.413 145.583 296.413 145.349C296.413 145.085 296.363 144.871 296.262 144.708C296.164 144.545 296.011 144.426 295.801 144.353C295.595 144.279 295.329 144.242 295.002 144.242H293.79V151.359H292.041V142.872H295.002C295.496 142.872 295.937 142.919 296.326 143.012C296.718 143.105 297.05 143.247 297.322 143.437C297.594 143.628 297.802 143.869 297.946 144.16C298.09 144.448 298.162 144.79 298.162 145.186C298.162 145.536 298.082 145.859 297.923 146.154C297.767 146.449 297.521 146.69 297.183 146.877C296.848 147.063 296.411 147.166 295.871 147.186L295.364 147.635ZM295.288 151.359H292.706L293.388 149.995H295.288C295.595 149.995 295.846 149.947 296.04 149.85C296.234 149.749 296.378 149.613 296.471 149.442C296.565 149.271 296.611 149.074 296.611 148.853C296.611 148.604 296.569 148.388 296.483 148.206C296.401 148.023 296.269 147.883 296.087 147.786C295.904 147.685 295.663 147.635 295.364 147.635H293.679L293.691 146.434H295.789L296.192 146.906C296.708 146.898 297.124 146.989 297.439 147.18C297.758 147.366 297.989 147.609 298.133 147.908C298.28 148.208 298.354 148.528 298.354 148.87C298.354 149.414 298.236 149.873 297.999 150.246C297.762 150.615 297.414 150.893 296.955 151.08C296.501 151.266 295.945 151.359 295.288 151.359Z" fill="white"/>
</g>
<rect x="268.48" y="138.681" width="35.0228" height="17.8726" rx="0.895368" stroke="#F4F4F4" stroke-width="0.596912"/>
<g filter="url(#filter11_f_438_216)">
<rect x="285.708" y="79.9961" width="21.9258" height="0.902381" transform="rotate(-90 285.708 79.9961)" fill="url(#paint8_linear_438_216)"/>
</g>
<path d="M286.609 54.4609L283.483 59.8752H289.735L286.609 54.4609Z" fill="#4205F0"/>
<g filter="url(#filter12_f_438_216)">
<path d="M288.93 252.551L328.189 276.484L317.992 321.298L284.779 335.401L245.765 311.956L255.717 267.081L288.93 252.551Z" fill="url(#paint9_radial_438_216)"/>
</g>
<g filter="url(#filter13_f_438_216)">
<path d="M289.658 227.874L334.332 255.109L322.729 306.105L284.933 322.155L240.537 295.475L251.862 244.409L289.658 227.874Z" fill="url(#paint10_radial_438_216)"/>
<path d="M252.437 244.882L289.607 228.62L333.579 255.427L322.157 305.627L284.985 321.412L241.289 295.153L252.437 244.882Z" stroke="#4205F0" stroke-width="1.32705"/>
</g>
<path d="M277.509 272.519V281H276.378L272.109 274.458V281H270.984V272.519H272.109L276.396 279.078V272.519H277.509ZM287.224 276.491V277.027C287.224 277.664 287.144 278.235 286.985 278.74C286.826 279.245 286.596 279.674 286.297 280.027C285.998 280.381 285.639 280.65 285.22 280.837C284.804 281.023 284.338 281.117 283.822 281.117C283.321 281.117 282.861 281.023 282.441 280.837C282.026 280.65 281.665 280.381 281.358 280.027C281.055 279.674 280.82 279.245 280.653 278.74C280.486 278.235 280.402 277.664 280.402 277.027V276.491C280.402 275.855 280.484 275.286 280.647 274.785C280.814 274.28 281.049 273.851 281.352 273.497C281.655 273.14 282.014 272.868 282.43 272.682C282.849 272.495 283.309 272.402 283.81 272.402C284.327 272.402 284.793 272.495 285.208 272.682C285.628 272.868 285.987 273.14 286.286 273.497C286.589 273.851 286.82 274.28 286.979 274.785C287.142 275.286 287.224 275.855 287.224 276.491ZM286.111 277.027V276.48C286.111 275.975 286.059 275.528 285.954 275.14C285.853 274.752 285.703 274.425 285.505 274.161C285.307 273.897 285.064 273.697 284.777 273.561C284.494 273.425 284.171 273.357 283.81 273.357C283.461 273.357 283.144 273.425 282.861 273.561C282.581 273.697 282.34 273.897 282.138 274.161C281.94 274.425 281.787 274.752 281.678 275.14C281.569 275.528 281.515 275.975 281.515 276.48V277.027C281.515 277.536 281.569 277.986 281.678 278.379C281.787 278.767 281.942 279.095 282.144 279.363C282.35 279.627 282.593 279.827 282.872 279.963C283.156 280.099 283.472 280.167 283.822 280.167C284.187 280.167 284.511 280.099 284.795 279.963C285.078 279.827 285.317 279.627 285.511 279.363C285.709 279.095 285.859 278.767 285.96 278.379C286.061 277.986 286.111 277.536 286.111 277.027ZM292.395 281H290.624L290.636 280.085H292.395C293.001 280.085 293.506 279.959 293.91 279.707C294.314 279.451 294.616 279.093 294.818 278.635C295.024 278.173 295.127 277.633 295.127 277.016V276.497C295.127 276.012 295.069 275.581 294.952 275.204C294.836 274.823 294.665 274.503 294.44 274.243C294.215 273.979 293.939 273.779 293.613 273.643C293.29 273.507 292.919 273.439 292.5 273.439H290.589V272.519H292.5C293.055 272.519 293.562 272.612 294.02 272.798C294.479 272.981 294.873 273.247 295.203 273.596C295.537 273.942 295.793 274.361 295.972 274.855C296.15 275.344 296.24 275.895 296.24 276.509V277.016C296.24 277.629 296.15 278.183 295.972 278.676C295.793 279.165 295.535 279.583 295.197 279.928C294.863 280.274 294.459 280.54 293.985 280.726C293.515 280.909 292.985 281 292.395 281ZM291.224 272.519V281H290.1V272.519H291.224ZM304.51 280.085V281H300.019V280.085H304.51ZM300.246 272.519V281H299.122V272.519H300.246ZM303.916 276.165V277.08H300.019V276.165H303.916ZM304.452 272.519V273.439H300.019V272.519H304.452Z" fill="#DDD9F3"/>
<g filter="url(#filter14_f_438_216)">
<rect x="3" y="3" width="116" height="49" fill="url(#paint11_radial_438_216)"/>
<rect x="3.66353" y="3.66353" width="114.673" height="47.6729" stroke="#4205F0" stroke-width="1.32705"/>
</g>
<path d="M38.5078 24.3125H40.6289C41.0638 24.3125 41.4375 24.3776 41.75 24.5078C42.0651 24.638 42.3073 24.8307 42.4766 25.0859C42.6458 25.3411 42.7305 25.6549 42.7305 26.0273C42.7305 26.332 42.6784 26.5938 42.5742 26.8125C42.4727 27.0286 42.3281 27.2096 42.1406 27.3555C41.9557 27.4987 41.7383 27.6133 41.4883 27.6992L41.1172 27.8945H39.2734L39.2656 26.9805H40.6367C40.8424 26.9805 41.013 26.944 41.1484 26.8711C41.2839 26.7982 41.3854 26.6966 41.4531 26.5664C41.5234 26.4362 41.5586 26.2852 41.5586 26.1133C41.5586 25.931 41.5247 25.7734 41.457 25.6406C41.3893 25.5078 41.2865 25.4062 41.1484 25.3359C41.0104 25.2656 40.8372 25.2305 40.6289 25.2305H39.6797V30H38.5078V24.3125ZM41.6875 30L40.3906 27.4648L41.6289 27.457L42.9414 29.9453V30H41.6875ZM48.2492 29.0859V30H45.2219V29.0859H48.2492ZM45.6047 24.3125V30H44.4328V24.3125H45.6047ZM47.8547 26.6289V27.5195H45.2219V26.6289H47.8547ZM48.2453 24.3125V25.2305H45.2219V24.3125H48.2453ZM52.6938 28.5117C52.6938 28.4102 52.6781 28.319 52.6469 28.2383C52.6182 28.1549 52.5635 28.0794 52.4828 28.0117C52.4021 27.9414 52.2888 27.8724 52.143 27.8047C51.9971 27.737 51.8083 27.6667 51.5766 27.5938C51.3188 27.5104 51.074 27.4167 50.8422 27.3125C50.613 27.2083 50.4099 27.0872 50.2328 26.9492C50.0583 26.8086 49.9203 26.6458 49.8188 26.4609C49.7198 26.276 49.6703 26.0612 49.6703 25.8164C49.6703 25.5794 49.7224 25.3646 49.8266 25.1719C49.9307 24.9766 50.0766 24.8099 50.2641 24.6719C50.4516 24.5312 50.6729 24.4232 50.9281 24.3477C51.1859 24.2721 51.4685 24.2344 51.7758 24.2344C52.1951 24.2344 52.5609 24.3099 52.8734 24.4609C53.1859 24.612 53.4281 24.819 53.6 25.082C53.7745 25.3451 53.8617 25.6458 53.8617 25.9844H52.6977C52.6977 25.8177 52.6625 25.6719 52.5922 25.5469C52.5245 25.4193 52.4203 25.319 52.2797 25.2461C52.1417 25.1732 51.9672 25.1367 51.7563 25.1367C51.5531 25.1367 51.3839 25.168 51.2484 25.2305C51.113 25.2904 51.0115 25.3724 50.9438 25.4766C50.876 25.5781 50.8422 25.6927 50.8422 25.8203C50.8422 25.9167 50.8656 26.0039 50.9125 26.082C50.962 26.1602 51.0349 26.2331 51.1313 26.3008C51.2276 26.3685 51.3461 26.4323 51.4867 26.4922C51.6273 26.5521 51.7901 26.6107 51.975 26.668C52.2849 26.7617 52.557 26.8672 52.7914 26.9844C53.0284 27.1016 53.2263 27.2331 53.3852 27.3789C53.544 27.5247 53.6638 27.6901 53.7445 27.875C53.8253 28.0599 53.8656 28.2695 53.8656 28.5039C53.8656 28.7513 53.8174 28.9727 53.7211 29.168C53.6247 29.3633 53.4854 29.5286 53.3031 29.6641C53.1208 29.7995 52.9034 29.9023 52.6508 29.9727C52.3982 30.043 52.1156 30.0781 51.8031 30.0781C51.5219 30.0781 51.2445 30.0417 50.9711 29.9688C50.6977 29.8932 50.449 29.7799 50.225 29.6289C50.0036 29.4779 49.8266 29.2852 49.6938 29.0508C49.5609 28.8164 49.4945 28.5391 49.4945 28.2188H50.6703C50.6703 28.3958 50.6977 28.5456 50.7523 28.668C50.807 28.7904 50.8839 28.8893 50.9828 28.9648C51.0844 29.0404 51.2042 29.0951 51.3422 29.1289C51.4828 29.1628 51.6365 29.1797 51.8031 29.1797C52.0063 29.1797 52.1729 29.151 52.3031 29.0938C52.4359 29.0365 52.5336 28.957 52.5961 28.8555C52.6612 28.7539 52.6938 28.6393 52.6938 28.5117ZM59.2789 29.0859V30H56.2516V29.0859H59.2789ZM56.6344 24.3125V30H55.4625V24.3125H56.6344ZM58.8844 26.6289V27.5195H56.2516V26.6289H58.8844ZM59.275 24.3125V25.2305H56.2516V24.3125H59.275ZM60.7625 24.3125H62.8836C63.3185 24.3125 63.6922 24.3776 64.0047 24.5078C64.3198 24.638 64.562 24.8307 64.7313 25.0859C64.9005 25.3411 64.9852 25.6549 64.9852 26.0273C64.9852 26.332 64.9331 26.5938 64.8289 26.8125C64.7273 27.0286 64.5828 27.2096 64.3953 27.3555C64.2104 27.4987 63.993 27.6133 63.743 27.6992L63.3719 27.8945H61.5281L61.5203 26.9805H62.8914C63.0971 26.9805 63.2677 26.944 63.4031 26.8711C63.5385 26.7982 63.6401 26.6966 63.7078 26.5664C63.7781 26.4362 63.8133 26.2852 63.8133 26.1133C63.8133 25.931 63.7794 25.7734 63.7117 25.6406C63.644 25.5078 63.5411 25.4062 63.4031 25.3359C63.2651 25.2656 63.0919 25.2305 62.8836 25.2305H61.9344V30H60.7625V24.3125ZM63.9422 30L62.6453 27.4648L63.8836 27.457L65.1961 29.9453V30H63.9422ZM68.6602 28.8125L70 24.3125H71.3047L69.3242 30H68.4648L68.6602 28.8125ZM67.4258 24.3125L68.7617 28.8125L68.9648 30H68.0977L66.1289 24.3125H67.4258ZM76.4523 29.0859V30H73.425V29.0859H76.4523ZM73.8078 24.3125V30H72.6359V24.3125H73.8078ZM76.0578 26.6289V27.5195H73.425V26.6289H76.0578ZM76.4484 24.3125V25.2305H73.425V24.3125H76.4484ZM80.8969 28.5117C80.8969 28.4102 80.8812 28.319 80.85 28.2383C80.8214 28.1549 80.7667 28.0794 80.6859 28.0117C80.6052 27.9414 80.4919 27.8724 80.3461 27.8047C80.2003 27.737 80.0115 27.6667 79.7797 27.5938C79.5219 27.5104 79.2771 27.4167 79.0453 27.3125C78.8161 27.2083 78.613 27.0872 78.4359 26.9492C78.2615 26.8086 78.1234 26.6458 78.0219 26.4609C77.9229 26.276 77.8734 26.0612 77.8734 25.8164C77.8734 25.5794 77.9255 25.3646 78.0297 25.1719C78.1339 24.9766 78.2797 24.8099 78.4672 24.6719C78.6547 24.5312 78.876 24.4232 79.1312 24.3477C79.3891 24.2721 79.6716 24.2344 79.9789 24.2344C80.3982 24.2344 80.7641 24.3099 81.0766 24.4609C81.3891 24.612 81.6312 24.819 81.8031 25.082C81.9776 25.3451 82.0648 25.6458 82.0648 25.9844H80.9008C80.9008 25.8177 80.8656 25.6719 80.7953 25.5469C80.7276 25.4193 80.6234 25.319 80.4828 25.2461C80.3448 25.1732 80.1703 25.1367 79.9594 25.1367C79.7562 25.1367 79.587 25.168 79.4516 25.2305C79.3161 25.2904 79.2146 25.3724 79.1469 25.4766C79.0792 25.5781 79.0453 25.6927 79.0453 25.8203C79.0453 25.9167 79.0687 26.0039 79.1156 26.082C79.1651 26.1602 79.238 26.2331 79.3344 26.3008C79.4307 26.3685 79.5492 26.4323 79.6898 26.4922C79.8305 26.5521 79.9932 26.6107 80.1781 26.668C80.488 26.7617 80.7602 26.8672 80.9945 26.9844C81.2315 27.1016 81.4294 27.2331 81.5883 27.3789C81.7471 27.5247 81.8669 27.6901 81.9477 27.875C82.0284 28.0599 82.0687 28.2695 82.0687 28.5039C82.0687 28.7513 82.0206 28.9727 81.9242 29.168C81.8279 29.3633 81.6885 29.5286 81.5062 29.6641C81.324 29.7995 81.1065 29.9023 80.8539 29.9727C80.6013 30.043 80.3187 30.0781 80.0062 30.0781C79.725 30.0781 79.4477 30.0417 79.1742 29.9688C78.9008 29.8932 78.6521 29.7799 78.4281 29.6289C78.2068 29.4779 78.0297 29.2852 77.8969 29.0508C77.7641 28.8164 77.6977 28.5391 77.6977 28.2188H78.8734C78.8734 28.3958 78.9008 28.5456 78.9555 28.668C79.0102 28.7904 79.087 28.8893 79.1859 28.9648C79.2875 29.0404 79.4073 29.0951 79.5453 29.1289C79.6859 29.1628 79.8396 29.1797 80.0062 29.1797C80.2094 29.1797 80.376 29.151 80.5062 29.0938C80.6391 29.0365 80.7367 28.957 80.7992 28.8555C80.8643 28.7539 80.8969 28.6393 80.8969 28.5117Z" fill="#F3F3F3"/>
<g filter="url(#filter15_f_438_216)">
<path d="M117 138H232.5" stroke="#4205F0" stroke-dasharray="5 5"/>
</g>
<g filter="url(#filter16_f_438_216)">
<rect x="59.7051" y="81.9941" width="21.9258" height="0.902381" transform="rotate(-90 59.7051 81.9941)" fill="url(#paint12_linear_438_216)"/>
</g>
<path d="M60.6063 56.459L57.4804 61.8733H63.7322L60.6063 56.459Z" fill="#4205F0"/>
<g filter="url(#filter17_f_438_216)">
<rect x="288.708" y="214.002" width="25.3906" height="0.902381" transform="rotate(-90 288.708 214.002)" fill="url(#paint13_linear_438_216)"/>
</g>
<path d="M289.609 185.002L286.483 190.416H292.735L289.609 185.002Z" fill="#4205F0"/>
<path d="M289.598 222.221L286.473 216.806H292.724L289.598 222.221Z" fill="#4205F0"/>
<path d="M307.469 203.512C307.469 203.41 307.453 203.319 307.422 203.238C307.393 203.155 307.339 203.079 307.258 203.012C307.177 202.941 307.064 202.872 306.918 202.805C306.772 202.737 306.583 202.667 306.352 202.594C306.094 202.51 305.849 202.417 305.617 202.312C305.388 202.208 305.185 202.087 305.008 201.949C304.833 201.809 304.695 201.646 304.594 201.461C304.495 201.276 304.445 201.061 304.445 200.816C304.445 200.579 304.497 200.365 304.602 200.172C304.706 199.977 304.852 199.81 305.039 199.672C305.227 199.531 305.448 199.423 305.703 199.348C305.961 199.272 306.243 199.234 306.551 199.234C306.97 199.234 307.336 199.31 307.648 199.461C307.961 199.612 308.203 199.819 308.375 200.082C308.549 200.345 308.637 200.646 308.637 200.984H307.473C307.473 200.818 307.438 200.672 307.367 200.547C307.299 200.419 307.195 200.319 307.055 200.246C306.917 200.173 306.742 200.137 306.531 200.137C306.328 200.137 306.159 200.168 306.023 200.23C305.888 200.29 305.786 200.372 305.719 200.477C305.651 200.578 305.617 200.693 305.617 200.82C305.617 200.917 305.641 201.004 305.688 201.082C305.737 201.16 305.81 201.233 305.906 201.301C306.003 201.368 306.121 201.432 306.262 201.492C306.402 201.552 306.565 201.611 306.75 201.668C307.06 201.762 307.332 201.867 307.566 201.984C307.803 202.102 308.001 202.233 308.16 202.379C308.319 202.525 308.439 202.69 308.52 202.875C308.6 203.06 308.641 203.27 308.641 203.504C308.641 203.751 308.592 203.973 308.496 204.168C308.4 204.363 308.26 204.529 308.078 204.664C307.896 204.799 307.678 204.902 307.426 204.973C307.173 205.043 306.891 205.078 306.578 205.078C306.297 205.078 306.02 205.042 305.746 204.969C305.473 204.893 305.224 204.78 305 204.629C304.779 204.478 304.602 204.285 304.469 204.051C304.336 203.816 304.27 203.539 304.27 203.219H305.445C305.445 203.396 305.473 203.546 305.527 203.668C305.582 203.79 305.659 203.889 305.758 203.965C305.859 204.04 305.979 204.095 306.117 204.129C306.258 204.163 306.411 204.18 306.578 204.18C306.781 204.18 306.948 204.151 307.078 204.094C307.211 204.036 307.309 203.957 307.371 203.855C307.436 203.754 307.469 203.639 307.469 203.512ZM311.019 199.312L312.206 201.906L313.394 199.312H314.671L312.8 202.93V205H311.613V202.93L309.738 199.312H311.019ZM320.62 199.312V205H319.448L317.163 201.188V205H315.991V199.312H317.163L319.452 203.129V199.312H320.62ZM325.736 203.113H326.904C326.88 203.496 326.775 203.836 326.587 204.133C326.403 204.43 326.143 204.661 325.81 204.828C325.479 204.995 325.081 205.078 324.615 205.078C324.25 205.078 323.923 205.016 323.634 204.891C323.345 204.763 323.098 204.581 322.892 204.344C322.689 204.107 322.534 203.82 322.427 203.484C322.321 203.148 322.267 202.772 322.267 202.355V201.961C322.267 201.544 322.322 201.168 322.431 200.832C322.543 200.493 322.702 200.206 322.908 199.969C323.116 199.732 323.365 199.549 323.654 199.422C323.943 199.294 324.266 199.23 324.623 199.23C325.097 199.23 325.496 199.316 325.822 199.488C326.15 199.66 326.404 199.897 326.584 200.199C326.766 200.501 326.875 200.845 326.912 201.23H325.74C325.727 201.001 325.681 200.807 325.603 200.648C325.525 200.487 325.407 200.366 325.248 200.285C325.091 200.202 324.883 200.16 324.623 200.16C324.427 200.16 324.257 200.197 324.111 200.27C323.965 200.342 323.843 200.453 323.744 200.602C323.645 200.75 323.571 200.938 323.521 201.164C323.474 201.388 323.451 201.651 323.451 201.953V202.355C323.451 202.65 323.473 202.909 323.517 203.133C323.561 203.354 323.629 203.542 323.72 203.695C323.814 203.846 323.934 203.961 324.08 204.039C324.228 204.115 324.407 204.152 324.615 204.152C324.86 204.152 325.061 204.113 325.22 204.035C325.379 203.957 325.5 203.841 325.584 203.688C325.67 203.534 325.72 203.342 325.736 203.113ZM333.625 199.312L331.539 205.488H330.703L332.789 199.312H333.625ZM340.967 199.312H342.135V203.07C342.135 203.508 342.041 203.876 341.854 204.176C341.669 204.475 341.412 204.701 341.084 204.852C340.759 205.003 340.384 205.078 339.959 205.078C339.535 205.078 339.157 205.003 338.827 204.852C338.498 204.701 338.241 204.475 338.053 204.176C337.868 203.876 337.776 203.508 337.776 203.07V199.312H338.948V203.07C338.948 203.326 338.988 203.534 339.069 203.695C339.149 203.857 339.265 203.975 339.416 204.051C339.57 204.126 339.751 204.164 339.959 204.164C340.173 204.164 340.354 204.126 340.502 204.051C340.653 203.975 340.768 203.857 340.846 203.695C340.927 203.534 340.967 203.326 340.967 203.07V199.312ZM346.115 202.973H344.666V202.059H346.115C346.339 202.059 346.521 202.022 346.662 201.949C346.802 201.874 346.905 201.77 346.97 201.637C347.035 201.504 347.068 201.354 347.068 201.188C347.068 201.018 347.035 200.861 346.97 200.715C346.905 200.569 346.802 200.452 346.662 200.363C346.521 200.275 346.339 200.23 346.115 200.23H345.072V205H343.9V199.312H346.115C346.56 199.312 346.942 199.393 347.259 199.555C347.58 199.714 347.824 199.934 347.994 200.215C348.163 200.496 348.248 200.818 348.248 201.18C348.248 201.547 348.163 201.865 347.994 202.133C347.824 202.401 347.58 202.608 347.259 202.754C346.942 202.9 346.56 202.973 346.115 202.973ZM351.602 205H350.364L350.372 204.086H351.602C351.91 204.086 352.169 204.017 352.38 203.879C352.591 203.738 352.749 203.534 352.856 203.266C352.966 202.997 353.02 202.673 353.02 202.293V202.016C353.02 201.724 352.989 201.467 352.927 201.246C352.867 201.025 352.777 200.839 352.657 200.688C352.537 200.536 352.39 200.423 352.216 200.348C352.041 200.27 351.841 200.23 351.614 200.23H350.341V199.312H351.614C351.994 199.312 352.342 199.378 352.657 199.508C352.975 199.635 353.249 199.819 353.481 200.059C353.713 200.298 353.891 200.585 354.016 200.918C354.144 201.249 354.208 201.617 354.208 202.023V202.293C354.208 202.697 354.144 203.065 354.016 203.398C353.891 203.732 353.713 204.018 353.481 204.258C353.252 204.495 352.977 204.678 352.657 204.809C352.339 204.936 351.988 205 351.602 205ZM351.028 199.312V205H349.856V199.312H351.028ZM358.086 200.285L356.539 205H355.293L357.406 199.312H358.199L358.086 200.285ZM359.371 205L357.82 200.285L357.695 199.312H358.496L360.621 205H359.371ZM359.301 202.883V203.801H356.297V202.883H359.301ZM364.007 199.312V205H362.839V199.312H364.007ZM365.757 199.312V200.23H361.116V199.312H365.757ZM371.041 204.086V205H368.014V204.086H371.041ZM368.397 199.312V205H367.225V199.312H368.397ZM370.647 201.629V202.52H368.014V201.629H370.647ZM371.037 199.312V200.23H368.014V199.312H371.037Z" fill="#DDD9F3"/>
<path d="M121.469 245.512C121.469 245.41 121.453 245.319 121.422 245.238C121.393 245.155 121.339 245.079 121.258 245.012C121.177 244.941 121.064 244.872 120.918 244.805C120.772 244.737 120.583 244.667 120.352 244.594C120.094 244.51 119.849 244.417 119.617 244.312C119.388 244.208 119.185 244.087 119.008 243.949C118.833 243.809 118.695 243.646 118.594 243.461C118.495 243.276 118.445 243.061 118.445 242.816C118.445 242.579 118.497 242.365 118.602 242.172C118.706 241.977 118.852 241.81 119.039 241.672C119.227 241.531 119.448 241.423 119.703 241.348C119.961 241.272 120.243 241.234 120.551 241.234C120.97 241.234 121.336 241.31 121.648 241.461C121.961 241.612 122.203 241.819 122.375 242.082C122.549 242.345 122.637 242.646 122.637 242.984H121.473C121.473 242.818 121.438 242.672 121.367 242.547C121.299 242.419 121.195 242.319 121.055 242.246C120.917 242.173 120.742 242.137 120.531 242.137C120.328 242.137 120.159 242.168 120.023 242.23C119.888 242.29 119.786 242.372 119.719 242.477C119.651 242.578 119.617 242.693 119.617 242.82C119.617 242.917 119.641 243.004 119.688 243.082C119.737 243.16 119.81 243.233 119.906 243.301C120.003 243.368 120.121 243.432 120.262 243.492C120.402 243.552 120.565 243.611 120.75 243.668C121.06 243.762 121.332 243.867 121.566 243.984C121.803 244.102 122.001 244.233 122.16 244.379C122.319 244.525 122.439 244.69 122.52 244.875C122.6 245.06 122.641 245.27 122.641 245.504C122.641 245.751 122.592 245.973 122.496 246.168C122.4 246.363 122.26 246.529 122.078 246.664C121.896 246.799 121.678 246.902 121.426 246.973C121.173 247.043 120.891 247.078 120.578 247.078C120.297 247.078 120.02 247.042 119.746 246.969C119.473 246.893 119.224 246.78 119 246.629C118.779 246.478 118.602 246.285 118.469 246.051C118.336 245.816 118.27 245.539 118.27 245.219H119.445C119.445 245.396 119.473 245.546 119.527 245.668C119.582 245.79 119.659 245.889 119.758 245.965C119.859 246.04 119.979 246.095 120.117 246.129C120.258 246.163 120.411 246.18 120.578 246.18C120.781 246.18 120.948 246.151 121.078 246.094C121.211 246.036 121.309 245.957 121.371 245.855C121.436 245.754 121.469 245.639 121.469 245.512ZM125.019 241.312L126.206 243.906L127.394 241.312H128.671L126.8 244.93V247H125.613V244.93L123.738 241.312H125.019ZM134.62 241.312V247H133.448L131.163 243.188V247H129.991V241.312H131.163L133.452 245.129V241.312H134.62ZM139.736 245.113H140.904C140.88 245.496 140.775 245.836 140.587 246.133C140.403 246.43 140.143 246.661 139.81 246.828C139.479 246.995 139.081 247.078 138.615 247.078C138.25 247.078 137.923 247.016 137.634 246.891C137.345 246.763 137.098 246.581 136.892 246.344C136.689 246.107 136.534 245.82 136.427 245.484C136.321 245.148 136.267 244.772 136.267 244.355V243.961C136.267 243.544 136.322 243.168 136.431 242.832C136.543 242.493 136.702 242.206 136.908 241.969C137.116 241.732 137.365 241.549 137.654 241.422C137.943 241.294 138.266 241.23 138.623 241.23C139.097 241.23 139.496 241.316 139.822 241.488C140.15 241.66 140.404 241.897 140.584 242.199C140.766 242.501 140.875 242.845 140.912 243.23H139.74C139.727 243.001 139.681 242.807 139.603 242.648C139.525 242.487 139.407 242.366 139.248 242.285C139.091 242.202 138.883 242.16 138.623 242.16C138.427 242.16 138.257 242.197 138.111 242.27C137.965 242.342 137.843 242.453 137.744 242.602C137.645 242.75 137.571 242.938 137.521 243.164C137.474 243.388 137.451 243.651 137.451 243.953V244.355C137.451 244.65 137.473 244.909 137.517 245.133C137.561 245.354 137.629 245.542 137.72 245.695C137.814 245.846 137.934 245.961 138.08 246.039C138.228 246.115 138.407 246.152 138.615 246.152C138.86 246.152 139.061 246.113 139.22 246.035C139.379 245.957 139.5 245.841 139.584 245.688C139.67 245.534 139.72 245.342 139.736 245.113ZM147.625 241.312L145.539 247.488H144.703L146.789 241.312H147.625ZM154.967 241.312H156.135V245.07C156.135 245.508 156.041 245.876 155.854 246.176C155.669 246.475 155.412 246.701 155.084 246.852C154.759 247.003 154.384 247.078 153.959 247.078C153.535 247.078 153.157 247.003 152.827 246.852C152.498 246.701 152.241 246.475 152.053 246.176C151.868 245.876 151.776 245.508 151.776 245.07V241.312H152.948V245.07C152.948 245.326 152.988 245.534 153.069 245.695C153.149 245.857 153.265 245.975 153.416 246.051C153.57 246.126 153.751 246.164 153.959 246.164C154.173 246.164 154.354 246.126 154.502 246.051C154.653 245.975 154.768 245.857 154.846 245.695C154.927 245.534 154.967 245.326 154.967 245.07V241.312ZM160.115 244.973H158.666V244.059H160.115C160.339 244.059 160.521 244.022 160.662 243.949C160.802 243.874 160.905 243.77 160.97 243.637C161.035 243.504 161.068 243.354 161.068 243.188C161.068 243.018 161.035 242.861 160.97 242.715C160.905 242.569 160.802 242.452 160.662 242.363C160.521 242.275 160.339 242.23 160.115 242.23H159.072V247H157.9V241.312H160.115C160.56 241.312 160.942 241.393 161.259 241.555C161.58 241.714 161.824 241.934 161.994 242.215C162.163 242.496 162.248 242.818 162.248 243.18C162.248 243.547 162.163 243.865 161.994 244.133C161.824 244.401 161.58 244.608 161.259 244.754C160.942 244.9 160.56 244.973 160.115 244.973ZM165.602 247H164.364L164.372 246.086H165.602C165.91 246.086 166.169 246.017 166.38 245.879C166.591 245.738 166.749 245.534 166.856 245.266C166.966 244.997 167.02 244.673 167.02 244.293V244.016C167.02 243.724 166.989 243.467 166.927 243.246C166.867 243.025 166.777 242.839 166.657 242.688C166.537 242.536 166.39 242.423 166.216 242.348C166.041 242.27 165.841 242.23 165.614 242.23H164.341V241.312H165.614C165.994 241.312 166.342 241.378 166.657 241.508C166.975 241.635 167.249 241.819 167.481 242.059C167.713 242.298 167.891 242.585 168.016 242.918C168.144 243.249 168.208 243.617 168.208 244.023V244.293C168.208 244.697 168.144 245.065 168.016 245.398C167.891 245.732 167.713 246.018 167.481 246.258C167.252 246.495 166.977 246.678 166.657 246.809C166.339 246.936 165.988 247 165.602 247ZM165.028 241.312V247H163.856V241.312H165.028ZM172.086 242.285L170.539 247H169.293L171.406 241.312H172.199L172.086 242.285ZM173.371 247L171.82 242.285L171.695 241.312H172.496L174.621 247H173.371ZM173.301 244.883V245.801H170.297V244.883H173.301ZM178.007 241.312V247H176.839V241.312H178.007ZM179.757 241.312V242.23H175.116V241.312H179.757ZM185.041 246.086V247H182.014V246.086H185.041ZM182.397 241.312V247H181.225V241.312H182.397ZM184.647 243.629V244.52H182.014V243.629H184.647ZM185.037 241.312V242.23H182.014V241.312H185.037Z" fill="#DDD9F3"/>
<g filter="url(#filter18_f_438_216)">
<rect x="232" y="3" width="116" height="49" fill="url(#paint14_radial_438_216)"/>
<rect x="232.664" y="3.66353" width="114.673" height="47.6729" stroke="#4205F0" stroke-width="1.32705"/>
</g>
<path d="M267.508 24.3125H269.629C270.064 24.3125 270.438 24.3776 270.75 24.5078C271.065 24.638 271.307 24.8307 271.477 25.0859C271.646 25.3411 271.73 25.6549 271.73 26.0273C271.73 26.332 271.678 26.5938 271.574 26.8125C271.473 27.0286 271.328 27.2096 271.141 27.3555C270.956 27.4987 270.738 27.6133 270.488 27.6992L270.117 27.8945H268.273L268.266 26.9805H269.637C269.842 26.9805 270.013 26.944 270.148 26.8711C270.284 26.7982 270.385 26.6966 270.453 26.5664C270.523 26.4362 270.559 26.2852 270.559 26.1133C270.559 25.931 270.525 25.7734 270.457 25.6406C270.389 25.5078 270.286 25.4062 270.148 25.3359C270.01 25.2656 269.837 25.2305 269.629 25.2305H268.68V30H267.508V24.3125ZM270.688 30L269.391 27.4648L270.629 27.457L271.941 29.9453V30H270.688ZM277.249 29.0859V30H274.222V29.0859H277.249ZM274.605 24.3125V30H273.433V24.3125H274.605ZM276.855 26.6289V27.5195H274.222V26.6289H276.855ZM277.245 24.3125V25.2305H274.222V24.3125H277.245ZM281.694 28.5117C281.694 28.4102 281.678 28.319 281.647 28.2383C281.618 28.1549 281.564 28.0794 281.483 28.0117C281.402 27.9414 281.289 27.8724 281.143 27.8047C280.997 27.737 280.808 27.6667 280.577 27.5938C280.319 27.5104 280.074 27.4167 279.842 27.3125C279.613 27.2083 279.41 27.0872 279.233 26.9492C279.058 26.8086 278.92 26.6458 278.819 26.4609C278.72 26.276 278.67 26.0612 278.67 25.8164C278.67 25.5794 278.722 25.3646 278.827 25.1719C278.931 24.9766 279.077 24.8099 279.264 24.6719C279.452 24.5312 279.673 24.4232 279.928 24.3477C280.186 24.2721 280.468 24.2344 280.776 24.2344C281.195 24.2344 281.561 24.3099 281.873 24.4609C282.186 24.612 282.428 24.819 282.6 25.082C282.774 25.3451 282.862 25.6458 282.862 25.9844H281.698C281.698 25.8177 281.663 25.6719 281.592 25.5469C281.524 25.4193 281.42 25.319 281.28 25.2461C281.142 25.1732 280.967 25.1367 280.756 25.1367C280.553 25.1367 280.384 25.168 280.248 25.2305C280.113 25.2904 280.011 25.3724 279.944 25.4766C279.876 25.5781 279.842 25.6927 279.842 25.8203C279.842 25.9167 279.866 26.0039 279.913 26.082C279.962 26.1602 280.035 26.2331 280.131 26.3008C280.228 26.3685 280.346 26.4323 280.487 26.4922C280.627 26.5521 280.79 26.6107 280.975 26.668C281.285 26.7617 281.557 26.8672 281.791 26.9844C282.028 27.1016 282.226 27.2331 282.385 27.3789C282.544 27.5247 282.664 27.6901 282.745 27.875C282.825 28.0599 282.866 28.2695 282.866 28.5039C282.866 28.7513 282.817 28.9727 282.721 29.168C282.625 29.3633 282.485 29.5286 282.303 29.6641C282.121 29.7995 281.903 29.9023 281.651 29.9727C281.398 30.043 281.116 30.0781 280.803 30.0781C280.522 30.0781 280.245 30.0417 279.971 29.9688C279.698 29.8932 279.449 29.7799 279.225 29.6289C279.004 29.4779 278.827 29.2852 278.694 29.0508C278.561 28.8164 278.495 28.5391 278.495 28.2188H279.67C279.67 28.3958 279.698 28.5456 279.752 28.668C279.807 28.7904 279.884 28.8893 279.983 28.9648C280.084 29.0404 280.204 29.0951 280.342 29.1289C280.483 29.1628 280.636 29.1797 280.803 29.1797C281.006 29.1797 281.173 29.151 281.303 29.0938C281.436 29.0365 281.534 28.957 281.596 28.8555C281.661 28.7539 281.694 28.6393 281.694 28.5117ZM288.279 29.0859V30H285.252V29.0859H288.279ZM285.634 24.3125V30H284.462V24.3125H285.634ZM287.884 26.6289V27.5195H285.252V26.6289H287.884ZM288.275 24.3125V25.2305H285.252V24.3125H288.275ZM289.763 24.3125H291.884C292.318 24.3125 292.692 24.3776 293.005 24.5078C293.32 24.638 293.562 24.8307 293.731 25.0859C293.901 25.3411 293.985 25.6549 293.985 26.0273C293.985 26.332 293.933 26.5938 293.829 26.8125C293.727 27.0286 293.583 27.2096 293.395 27.3555C293.21 27.4987 292.993 27.6133 292.743 27.6992L292.372 27.8945H290.528L290.52 26.9805H291.891C292.097 26.9805 292.268 26.944 292.403 26.8711C292.539 26.7982 292.64 26.6966 292.708 26.5664C292.778 26.4362 292.813 26.2852 292.813 26.1133C292.813 25.931 292.779 25.7734 292.712 25.6406C292.644 25.5078 292.541 25.4062 292.403 25.3359C292.265 25.2656 292.092 25.2305 291.884 25.2305H290.934V30H289.763V24.3125ZM292.942 30L291.645 27.4648L292.884 27.457L294.196 29.9453V30H292.942ZM297.66 28.8125L299 24.3125H300.305L298.324 30H297.465L297.66 28.8125ZM296.426 24.3125L297.762 28.8125L297.965 30H297.098L295.129 24.3125H296.426ZM305.452 29.0859V30H302.425V29.0859H305.452ZM302.808 24.3125V30H301.636V24.3125H302.808ZM305.058 26.6289V27.5195H302.425V26.6289H305.058ZM305.448 24.3125V25.2305H302.425V24.3125H305.448ZM309.897 28.5117C309.897 28.4102 309.881 28.319 309.85 28.2383C309.821 28.1549 309.767 28.0794 309.686 28.0117C309.605 27.9414 309.492 27.8724 309.346 27.8047C309.2 27.737 309.011 27.6667 308.78 27.5938C308.522 27.5104 308.277 27.4167 308.045 27.3125C307.816 27.2083 307.613 27.0872 307.436 26.9492C307.261 26.8086 307.123 26.6458 307.022 26.4609C306.923 26.276 306.873 26.0612 306.873 25.8164C306.873 25.5794 306.926 25.3646 307.03 25.1719C307.134 24.9766 307.28 24.8099 307.467 24.6719C307.655 24.5312 307.876 24.4232 308.131 24.3477C308.389 24.2721 308.672 24.2344 308.979 24.2344C309.398 24.2344 309.764 24.3099 310.077 24.4609C310.389 24.612 310.631 24.819 310.803 25.082C310.978 25.3451 311.065 25.6458 311.065 25.9844H309.901C309.901 25.8177 309.866 25.6719 309.795 25.5469C309.728 25.4193 309.623 25.319 309.483 25.2461C309.345 25.1732 309.17 25.1367 308.959 25.1367C308.756 25.1367 308.587 25.168 308.452 25.2305C308.316 25.2904 308.215 25.3724 308.147 25.4766C308.079 25.5781 308.045 25.6927 308.045 25.8203C308.045 25.9167 308.069 26.0039 308.116 26.082C308.165 26.1602 308.238 26.2331 308.334 26.3008C308.431 26.3685 308.549 26.4323 308.69 26.4922C308.83 26.5521 308.993 26.6107 309.178 26.668C309.488 26.7617 309.76 26.8672 309.995 26.9844C310.232 27.1016 310.429 27.2331 310.588 27.3789C310.747 27.5247 310.867 27.6901 310.948 27.875C311.028 28.0599 311.069 28.2695 311.069 28.5039C311.069 28.7513 311.021 28.9727 310.924 29.168C310.828 29.3633 310.689 29.5286 310.506 29.6641C310.324 29.7995 310.107 29.9023 309.854 29.9727C309.601 30.043 309.319 30.0781 309.006 30.0781C308.725 30.0781 308.448 30.0417 308.174 29.9688C307.901 29.8932 307.652 29.7799 307.428 29.6289C307.207 29.4779 307.03 29.2852 306.897 29.0508C306.764 28.8164 306.698 28.5391 306.698 28.2188H307.873C307.873 28.3958 307.901 28.5456 307.955 28.668C308.01 28.7904 308.087 28.8893 308.186 28.9648C308.287 29.0404 308.407 29.0951 308.545 29.1289C308.686 29.1628 308.84 29.1797 309.006 29.1797C309.209 29.1797 309.376 29.151 309.506 29.0938C309.639 29.0365 309.737 28.957 309.799 28.8555C309.864 28.7539 309.897 28.6393 309.897 28.5117Z" fill="#F3F3F3"/>
<g filter="url(#filter19_f_438_216)">
<rect x="61" y="267" width="170" height="1" fill="url(#paint15_linear_438_216)"/>
</g>
<g filter="url(#filter20_f_438_216)">
<rect x="61" y="267" width="85" height="1" transform="rotate(-90 61 267)" fill="url(#paint16_linear_438_216)"/>
</g>
<path d="M234.876 268.264L229.462 265.138V271.389L234.876 268.264Z" fill="#4205F0"/>
<defs>
<filter id="filter0_f_438_216" x="14.2424" y="97.2287" width="95.772" height="86.8433" filterUnits="userSpaceOnUse" color-interpolation-filters="sRGB">
<feFlood flood-opacity="0" result="BackgroundImageFix"/>
<feBlend mode="normal" in="SourceGraphic" in2="BackgroundImageFix" result="shape"/>
<feGaussianBlur stdDeviation="0.877826" result="effect1_foregroundBlur_438_216"/>
</filter>
<filter id="filter1_f_438_216" x="31.5041" y="80.5608" width="61.8443" height="72.5582" filterUnits="userSpaceOnUse" color-interpolation-filters="sRGB">
<feFlood flood-opacity="0" result="BackgroundImageFix"/>
<feBlend mode="normal" in="SourceGraphic" in2="BackgroundImageFix" result="shape"/>
<feGaussianBlur stdDeviation="0.877826" result="effect1_foregroundBlur_438_216"/>
</filter>
<filter id="filter2_f_438_216" x="14.2424" y="149.606" width="95.772" height="34.4625" filterUnits="userSpaceOnUse" color-interpolation-filters="sRGB">
<feFlood flood-opacity="0" result="BackgroundImageFix"/>
<feBlend mode="normal" in="SourceGraphic" in2="BackgroundImageFix" result="shape"/>
<feGaussianBlur stdDeviation="0.877826" result="effect1_foregroundBlur_438_216"/>
</filter>
<filter id="filter3_f_438_216" x="14.2424" y="80.5608" width="95.772" height="20.1773" filterUnits="userSpaceOnUse" color-interpolation-filters="sRGB">
<feFlood flood-opacity="0" result="BackgroundImageFix"/>
<feBlend mode="normal" in="SourceGraphic" in2="BackgroundImageFix" result="shape"/>
<feGaussianBlur stdDeviation="0.877826" result="effect1_foregroundBlur_438_216"/>
</filter>
<filter id="filter4_d_438_216" x="48.4163" y="141.425" width="27.7036" height="11.3725" filterUnits="userSpaceOnUse" color-interpolation-filters="sRGB">
<feFlood flood-opacity="0" result="BackgroundImageFix"/>
<feColorMatrix in="SourceAlpha" type="matrix" values="0 0 0 0 0 0 0 0 0 0 0 0 0 0 0 0 0 0 127 0" result="hardAlpha"/>
<feOffset/>
<feGaussianBlur stdDeviation="0.661486"/>
<feComposite in2="hardAlpha" operator="out"/>
<feColorMatrix type="matrix" values="0 0 0 0 1 0 0 0 0 1 0 0 0 0 1 0 0 0 1 0"/>
<feBlend mode="normal" in2="BackgroundImageFix" result="effect1_dropShadow_438_216"/>
<feBlend mode="normal" in="SourceGraphic" in2="effect1_dropShadow_438_216" result="shape"/>
</filter>
<filter id="filter5_d_438_216" x="43.1244" y="138.779" width="38.2873" height="21.9563" filterUnits="userSpaceOnUse" color-interpolation-filters="sRGB">
<feFlood flood-opacity="0" result="BackgroundImageFix"/>
<feColorMatrix in="SourceAlpha" type="matrix" values="0 0 0 0 0 0 0 0 0 0 0 0 0 0 0 0 0 0 127 0" result="hardAlpha"/>
<feOffset dy="2.64594"/>
<feGaussianBlur stdDeviation="3.30743"/>
<feComposite in2="hardAlpha" operator="out"/>
<feColorMatrix type="matrix" values="0 0 0 0 1 0 0 0 0 1 0 0 0 0 1 0 0 0 0.25 0"/>
<feBlend mode="normal" in2="BackgroundImageFix" result="effect1_dropShadow_438_216"/>
<feBlend mode="normal" in="SourceGraphic" in2="effect1_dropShadow_438_216" result="shape"/>
</filter>
<filter id="filter6_f_438_216" x="238.244" y="97.2287" width="95.772" height="86.8433" filterUnits="userSpaceOnUse" color-interpolation-filters="sRGB">
<feFlood flood-opacity="0" result="BackgroundImageFix"/>
<feBlend mode="normal" in="SourceGraphic" in2="BackgroundImageFix" result="shape"/>
<feGaussianBlur stdDeviation="0.877826" result="effect1_foregroundBlur_438_216"/>
</filter>
<filter id="filter7_f_438_216" x="255.506" y="80.5608" width="61.8443" height="72.5582" filterUnits="userSpaceOnUse" color-interpolation-filters="sRGB">
<feFlood flood-opacity="0" result="BackgroundImageFix"/>
<feBlend mode="normal" in="SourceGraphic" in2="BackgroundImageFix" result="shape"/>
<feGaussianBlur stdDeviation="0.877826" result="effect1_foregroundBlur_438_216"/>
</filter>
<filter id="filter8_f_438_216" x="238.244" y="149.606" width="95.772" height="34.4625" filterUnits="userSpaceOnUse" color-interpolation-filters="sRGB">
<feFlood flood-opacity="0" result="BackgroundImageFix"/>
<feBlend mode="normal" in="SourceGraphic" in2="BackgroundImageFix" result="shape"/>
<feGaussianBlur stdDeviation="0.877826" result="effect1_foregroundBlur_438_216"/>
</filter>
<filter id="filter9_f_438_216" x="238.244" y="80.5608" width="95.772" height="20.1773" filterUnits="userSpaceOnUse" color-interpolation-filters="sRGB">
<feFlood flood-opacity="0" result="BackgroundImageFix"/>
<feBlend mode="normal" in="SourceGraphic" in2="BackgroundImageFix" result="shape"/>
<feGaussianBlur stdDeviation="0.877826" result="effect1_foregroundBlur_438_216"/>
</filter>
<filter id="filter10_d_438_216" x="272.895" y="141.427" width="26.7827" height="11.3725" filterUnits="userSpaceOnUse" color-interpolation-filters="sRGB">
<feFlood flood-opacity="0" result="BackgroundImageFix"/>
<feColorMatrix in="SourceAlpha" type="matrix" values="0 0 0 0 0 0 0 0 0 0 0 0 0 0 0 0 0 0 127 0" result="hardAlpha"/>
<feOffset/>
<feGaussianBlur stdDeviation="0.661486"/>
<feComposite in2="hardAlpha" operator="out"/>
<feColorMatrix type="matrix" values="0 0 0 0 1 0 0 0 0 1 0 0 0 0 1 0 0 0 1 0"/>
<feBlend mode="normal" in2="BackgroundImageFix" result="effect1_dropShadow_438_216"/>
<feBlend mode="normal" in="SourceGraphic" in2="effect1_dropShadow_438_216" result="shape"/>
</filter>
<filter id="filter11_f_438_216" x="283.054" y="55.4162" width="6.21055" height="27.234" filterUnits="userSpaceOnUse" color-interpolation-filters="sRGB">
<feFlood flood-opacity="0" result="BackgroundImageFix"/>
<feBlend mode="normal" in="SourceGraphic" in2="BackgroundImageFix" result="shape"/>
<feGaussianBlur stdDeviation="1.32705" result="effect1_foregroundBlur_438_216"/>
</filter>
<filter id="filter12_f_438_216" x="218.693" y="225.479" width="136.567" height="136.992" filterUnits="userSpaceOnUse" color-interpolation-filters="sRGB">
<feFlood flood-opacity="0" result="BackgroundImageFix"/>
<feBlend mode="normal" in="SourceGraphic" in2="BackgroundImageFix" result="shape"/>
<feGaussianBlur stdDeviation="13.5357" result="effect1_foregroundBlur_438_216"/>
</filter>
<filter id="filter13_f_438_216" x="237.883" y="225.219" width="99.1031" height="99.5895" filterUnits="userSpaceOnUse" color-interpolation-filters="sRGB">
<feFlood flood-opacity="0" result="BackgroundImageFix"/>
<feBlend mode="normal" in="SourceGraphic" in2="BackgroundImageFix" result="shape"/>
<feGaussianBlur stdDeviation="1.32705" result="effect1_foregroundBlur_438_216"/>
</filter>
<filter id="filter14_f_438_216" x="0.345896" y="0.345896" width="121.308" height="54.3082" filterUnits="userSpaceOnUse" color-interpolation-filters="sRGB">
<feFlood flood-opacity="0" result="BackgroundImageFix"/>
<feBlend mode="normal" in="SourceGraphic" in2="BackgroundImageFix" result="shape"/>
<feGaussianBlur stdDeviation="1.32705" result="effect1_foregroundBlur_438_216"/>
</filter>
<filter id="filter15_f_438_216" x="114" y="134" width="121.5" height="8" filterUnits="userSpaceOnUse" color-interpolation-filters="sRGB">
<feFlood flood-opacity="0" result="BackgroundImageFix"/>
<feBlend mode="normal" in="SourceGraphic" in2="BackgroundImageFix" result="shape"/>
<feGaussianBlur stdDeviation="1.5" result="effect1_foregroundBlur_438_216"/>
</filter>
<filter id="filter16_f_438_216" x="57.051" y="57.4143" width="6.21055" height="27.234" filterUnits="userSpaceOnUse" color-interpolation-filters="sRGB">
<feFlood flood-opacity="0" result="BackgroundImageFix"/>
<feBlend mode="normal" in="SourceGraphic" in2="BackgroundImageFix" result="shape"/>
<feGaussianBlur stdDeviation="1.32705" result="effect1_foregroundBlur_438_216"/>
</filter>
<filter id="filter17_f_438_216" x="286.054" y="185.957" width="6.21055" height="30.6988" filterUnits="userSpaceOnUse" color-interpolation-filters="sRGB">
<feFlood flood-opacity="0" result="BackgroundImageFix"/>
<feBlend mode="normal" in="SourceGraphic" in2="BackgroundImageFix" result="shape"/>
<feGaussianBlur stdDeviation="1.32705" result="effect1_foregroundBlur_438_216"/>
</filter>
<filter id="filter18_f_438_216" x="229.346" y="0.345896" width="121.308" height="54.3082" filterUnits="userSpaceOnUse" color-interpolation-filters="sRGB">
<feFlood flood-opacity="0" result="BackgroundImageFix"/>
<feBlend mode="normal" in="SourceGraphic" in2="BackgroundImageFix" result="shape"/>
<feGaussianBlur stdDeviation="1.32705" result="effect1_foregroundBlur_438_216"/>
</filter>
<filter id="filter19_f_438_216" x="58.3459" y="264.346" width="175.308" height="6.30821" filterUnits="userSpaceOnUse" color-interpolation-filters="sRGB">
<feFlood flood-opacity="0" result="BackgroundImageFix"/>
<feBlend mode="normal" in="SourceGraphic" in2="BackgroundImageFix" result="shape"/>
<feGaussianBlur stdDeviation="1.32705" result="effect1_foregroundBlur_438_216"/>
</filter>
<filter id="filter20_f_438_216" x="58.3459" y="179.346" width="6.30821" height="90.3082" filterUnits="userSpaceOnUse" color-interpolation-filters="sRGB">
<feFlood flood-opacity="0" result="BackgroundImageFix"/>
<feBlend mode="normal" in="SourceGraphic" in2="BackgroundImageFix" result="shape"/>
<feGaussianBlur stdDeviation="1.32705" result="effect1_foregroundBlur_438_216"/>
</filter>
<radialGradient id="paint0_radial_438_216" cx="0" cy="0" r="1" gradientUnits="userSpaceOnUse" gradientTransform="translate(61.6599 140.158) rotate(86.2627) scale(77.7979 86.1748)">
<stop offset="0.046875" stop-color="#4205F0"/>
<stop offset="1" stop-color="#4205F0" stop-opacity="0"/>
</radialGradient>
<radialGradient id="paint1_radial_438_216" cx="0" cy="0" r="1" gradientUnits="userSpaceOnUse" gradientTransform="translate(62.1298 116.432) rotate(87.1465) scale(64.4039 54.5331)">
<stop offset="0.046875" stop-color="#4205F0"/>
<stop offset="1" stop-color="#4205F0" stop-opacity="0"/>
</radialGradient>
<radialGradient id="paint2_radial_438_216" cx="0" cy="0" r="1" gradientUnits="userSpaceOnUse" gradientTransform="translate(61.6599 166.654) rotate(80.0257) scale(29.2774 85.0532)">
<stop offset="0.046875" stop-color="#4205F0"/>
<stop offset="1" stop-color="#4205F0" stop-opacity="0"/>
</radialGradient>
<radialGradient id="paint3_radial_438_216" cx="0" cy="0" r="1" gradientUnits="userSpaceOnUse" gradientTransform="translate(61.6599 56.824) rotate(86.2627) scale(77.798 86.1748)">
<stop offset="0.046875" stop-color="#4205F0"/>
<stop offset="1" stop-color="#4205F0" stop-opacity="0"/>
</radialGradient>
<radialGradient id="paint4_radial_438_216" cx="0" cy="0" r="1" gradientUnits="userSpaceOnUse" gradientTransform="translate(285.662 140.158) rotate(86.2627) scale(77.798 86.1749)">
<stop offset="0.046875" stop-color="#4205F0"/>
<stop offset="1" stop-color="#4205F0" stop-opacity="0"/>
</radialGradient>
<radialGradient id="paint5_radial_438_216" cx="0" cy="0" r="1" gradientUnits="userSpaceOnUse" gradientTransform="translate(286.132 116.432) rotate(87.1465) scale(64.404 54.5332)">
<stop offset="0.046875" stop-color="#4205F0"/>
<stop offset="1" stop-color="#4205F0" stop-opacity="0"/>
</radialGradient>
<radialGradient id="paint6_radial_438_216" cx="0" cy="0" r="1" gradientUnits="userSpaceOnUse" gradientTransform="translate(285.662 166.654) rotate(80.0257) scale(29.2775 85.0533)">
<stop offset="0.046875" stop-color="#4205F0"/>
<stop offset="1" stop-color="#4205F0" stop-opacity="0"/>
</radialGradient>
<radialGradient id="paint7_radial_438_216" cx="0" cy="0" r="1" gradientUnits="userSpaceOnUse" gradientTransform="translate(285.662 56.824) rotate(86.2627) scale(77.7981 86.1749)">
<stop offset="0.046875" stop-color="#4205F0"/>
<stop offset="1" stop-color="#4205F0" stop-opacity="0"/>
</radialGradient>
<linearGradient id="paint8_linear_438_216" x1="305.315" y1="80.4473" x2="293.437" y2="60.9888" gradientUnits="userSpaceOnUse">
<stop offset="0.046875" stop-color="#4205F0"/>
<stop offset="0.615513" stop-color="#4205F0" stop-opacity="0"/>
</linearGradient>
<radialGradient id="paint9_radial_438_216" cx="0" cy="0" r="1" gradientUnits="userSpaceOnUse" gradientTransform="translate(286.672 293.461) rotate(93.718) scale(77.2087 72.5037)">
<stop offset="0.046875" stop-color="#4200FD"/>
<stop offset="1" stop-color="#2C204E" stop-opacity="0"/>
</radialGradient>
<radialGradient id="paint10_radial_438_216" cx="0" cy="0" r="1" gradientUnits="userSpaceOnUse" gradientTransform="translate(287.087 274.428) rotate(93.718) scale(87.8605 82.5063)">
<stop offset="0.046875" stop-color="#120B24"/>
<stop offset="1" stop-color="#100A23" stop-opacity="0"/>
</radialGradient>
<radialGradient id="paint11_radial_438_216" cx="0" cy="0" r="1" gradientUnits="userSpaceOnUse" gradientTransform="translate(60.4108 27.2103) rotate(82.0488) scale(46.0915 107.535)">
<stop offset="0.046875" stop-color="#120B24"/>
<stop offset="1" stop-color="#100A23" stop-opacity="0"/>
</radialGradient>
<linearGradient id="paint12_linear_438_216" x1="79.3118" y1="82.4453" x2="67.4337" y2="62.9868" gradientUnits="userSpaceOnUse">
<stop offset="0.046875" stop-color="#4205F0"/>
<stop offset="0.615513" stop-color="#4205F0" stop-opacity="0"/>
</linearGradient>
<linearGradient id="paint13_linear_438_216" x1="311.413" y1="214.453" x2="300.395" y2="193.552" gradientUnits="userSpaceOnUse">
<stop offset="0.046875" stop-color="#4205F0"/>
<stop offset="0.615513" stop-color="#4205F0" stop-opacity="0"/>
</linearGradient>
<radialGradient id="paint14_radial_438_216" cx="0" cy="0" r="1" gradientUnits="userSpaceOnUse" gradientTransform="translate(289.411 27.2103) rotate(82.0488) scale(46.0915 107.535)">
<stop offset="0.046875" stop-color="#120B24"/>
<stop offset="1" stop-color="#100A23" stop-opacity="0"/>
</radialGradient>
<linearGradient id="paint15_linear_438_216" x1="213.019" y1="267.5" x2="210.456" y2="238.125" gradientUnits="userSpaceOnUse">
<stop offset="0.046875" stop-color="#4205F0"/>
<stop offset="0.615513" stop-color="#4205F0" stop-opacity="0"/>
</linearGradient>
<linearGradient id="paint16_linear_438_216" x1="137.01" y1="267.5" x2="131.997" y2="238.776" gradientUnits="userSpaceOnUse">
<stop offset="0.046875" stop-color="#4205F0"/>
<stop offset="0.615513" stop-color="#4205F0" stop-opacity="0"/>
</linearGradient>
</defs>
</svg>
