<svg width="686" height="193" viewBox="0 0 686 193" fill="none" xmlns="http://www.w3.org/2000/svg">
<rect width="6" height="34" transform="matrix(1 0 0 -1 613 125)" fill="url(#paint0_linear_444_341)"/>
<g filter="url(#filter0_f_444_341)">
<rect x="154.998" y="18.668" width="92.2609" height="83.3324" fill="url(#paint1_radial_444_341)"/>
<rect x="155.437" y="19.1069" width="91.3831" height="82.4546" stroke="#4205F0" stroke-width="0.877826"/>
</g>
<g opacity="0.5" filter="url(#filter1_f_444_341)">
<rect x="172.26" y="2" width="58.3327" height="69.0469" fill="url(#paint2_radial_444_341)"/>
<rect x="172.699" y="2.43891" width="57.4549" height="68.1691" stroke="#4205F0" stroke-width="0.877826"/>
</g>
<g filter="url(#filter2_f_444_341)">
<path d="M171.962 71.0449H231.188L247.259 101.997H154.998L171.962 71.0449Z" fill="url(#paint3_radial_444_341)" fill-opacity="0.3"/>
<path d="M155.739 101.558L172.222 71.4838H230.921L246.537 101.558H155.739Z" stroke="#4205F0" stroke-width="0.877826"/>
</g>
<g filter="url(#filter3_f_444_341)">
<path d="M172.855 2H229.997L247.259 18.6665H154.998L172.855 2Z" fill="url(#paint4_radial_444_341)"/>
<path d="M156.112 18.2276L173.028 2.43891H229.82L246.172 18.2276H156.112Z" stroke="#4205F0" stroke-width="0.877826"/>
</g>
<path d="M186.339 40.9854V46.5957H185.184V40.9854H186.339ZM189.699 40.9854L187.476 43.7559L186.193 45.1353L185.985 44.041L186.852 42.8542L188.282 40.9854H189.699ZM188.386 46.5957L186.733 44.0025L187.588 43.2858L189.753 46.5957H188.386ZM194.754 45.6941V46.5957H191.768V45.6941H194.754ZM192.146 40.9854V46.5957H190.99V40.9854H192.146ZM194.365 43.2704V44.1489H191.768V43.2704H194.365ZM194.75 40.9854V41.8909H191.768V40.9854H194.75ZM199.982 45.6941V46.5957H196.996V45.6941H199.982ZM197.374 40.9854V46.5957H196.218V40.9854H197.374ZM199.593 43.2704V44.1489H196.996V43.2704H199.593ZM199.978 40.9854V41.8909H196.996V40.9854H199.978ZM203.63 44.5959H202.201V43.6942H203.63C203.851 43.6942 204.031 43.6583 204.17 43.5863C204.309 43.5118 204.41 43.4091 204.474 43.2781C204.538 43.1471 204.571 42.9994 204.571 42.835C204.571 42.668 204.538 42.5126 204.474 42.3687C204.41 42.2249 204.309 42.1093 204.17 42.0219C204.031 41.9346 203.851 41.8909 203.63 41.8909H202.602V46.5957H201.446V40.9854H203.63C204.07 40.9854 204.446 41.0651 204.759 41.2243C205.075 41.381 205.317 41.5981 205.484 41.8755C205.651 42.1529 205.734 42.4702 205.734 42.8273C205.734 43.1895 205.651 43.5029 205.484 43.7674C205.317 44.032 205.075 44.2363 204.759 44.3801C204.446 44.524 204.07 44.5959 203.63 44.5959ZM211.086 45.6941V46.5957H208.099V45.6941H211.086ZM208.477 40.9854V46.5957H207.321V40.9854H208.477ZM210.696 43.2704V44.1489H208.099V43.2704H210.696ZM211.082 40.9854V41.8909H208.099V40.9854H211.082ZM212.549 40.9854H214.641C215.07 40.9854 215.439 41.0496 215.747 41.1781C216.058 41.3065 216.297 41.4966 216.464 41.7484C216.631 42.0001 216.714 42.3096 216.714 42.677C216.714 42.9775 216.663 43.2357 216.56 43.4515C216.46 43.6647 216.317 43.8432 216.133 43.9871C215.95 44.1284 215.736 44.2414 215.489 44.3262L215.123 44.5188H213.304L213.297 43.6172H214.649C214.852 43.6172 215.02 43.5812 215.154 43.5093C215.287 43.4374 215.388 43.3372 215.454 43.2087C215.524 43.0803 215.558 42.9313 215.558 42.7618C215.558 42.5819 215.525 42.4265 215.458 42.2955C215.391 42.1645 215.29 42.0643 215.154 41.995C215.018 41.9256 214.847 41.8909 214.641 41.8909H213.705V46.5957H212.549V40.9854ZM215.686 46.5957L214.406 44.095L215.628 44.0873L216.922 46.5418V46.5957H215.686Z" fill="#F3F3F3"/>
<path d="M180.782 65.3492L179.256 70H178.027L180.112 64.3897H180.894L180.782 65.3492ZM182.05 70L180.52 65.3492L180.397 64.3897H181.187L183.283 70H182.05ZM181.98 67.9116V68.8171H179.017V67.9116H181.98ZM189.158 64.3897V70H188.002L185.748 66.2393V70H184.592V64.3897H185.748L188.006 68.1543V64.3897H189.158ZM191.616 64.3897L192.787 66.9483L193.958 64.3897H195.218L193.373 67.9578V70H192.201V67.9578L190.352 64.3897H191.616Z" fill="#F3F3F3"/>
<g filter="url(#filter4_d_444_341)">
<g filter="url(#filter5_d_444_341)">
<path d="M208.08 67.2751H205.9L205.889 66.0743H207.719C208.042 66.0743 208.306 66.0335 208.512 65.9519C208.718 65.8664 208.871 65.744 208.972 65.5847C209.077 65.4214 209.13 65.2232 209.13 64.9901C209.13 64.7258 209.079 64.5121 208.978 64.3489C208.881 64.1856 208.727 64.0671 208.518 63.9933C208.312 63.9194 208.045 63.8825 207.719 63.8825H206.507V71H204.758V62.5127H207.719C208.213 62.5127 208.654 62.5593 209.042 62.6526C209.435 62.7458 209.767 62.8877 210.039 63.0781C210.311 63.2685 210.519 63.5095 210.663 63.8009C210.807 64.0885 210.878 64.4305 210.878 64.8269C210.878 65.1766 210.799 65.4992 210.639 65.7945C210.484 66.0899 210.237 66.3308 209.899 66.5173C209.565 66.7039 209.128 66.8068 208.588 66.8263L208.08 67.2751ZM208.005 71H205.422L206.104 69.636H208.005C208.312 69.636 208.562 69.5874 208.757 69.4902C208.951 69.3892 209.095 69.2532 209.188 69.0822C209.281 68.9112 209.328 68.7149 209.328 68.4934C209.328 68.2447 209.285 68.029 209.2 67.8464C209.118 67.6637 208.986 67.5238 208.803 67.4267C208.621 67.3256 208.38 67.2751 208.08 67.2751H206.396L206.407 66.0743H208.506L208.908 66.5465C209.425 66.5387 209.841 66.63 210.156 66.8204C210.474 67.007 210.706 67.2499 210.849 67.5491C210.997 67.8483 211.071 68.1689 211.071 68.5109C211.071 69.055 210.952 69.5135 210.715 69.8866C210.478 70.2558 210.13 70.5337 209.672 70.7202C209.217 70.9067 208.661 71 208.005 71ZM218.496 68.1845H220.239C220.204 68.7558 220.047 69.2629 219.767 69.7059C219.491 70.1489 219.104 70.4948 218.607 70.7435C218.113 70.9922 217.519 71.1166 216.823 71.1166C216.279 71.1166 215.791 71.0233 215.36 70.8368C214.929 70.6464 214.559 70.3743 214.252 70.0207C213.949 69.6671 213.718 69.2396 213.559 68.7383C213.399 68.237 213.32 67.6754 213.32 67.0536V66.4649C213.32 65.8431 213.401 65.2815 213.565 64.7802C213.732 64.275 213.969 63.8456 214.276 63.492C214.587 63.1383 214.958 62.8663 215.389 62.6759C215.82 62.4855 216.302 62.3902 216.835 62.3902C217.542 62.3902 218.139 62.5185 218.624 62.775C219.114 63.0315 219.493 63.3851 219.761 63.8359C220.033 64.2867 220.196 64.7997 220.251 65.3748H218.502C218.483 65.0328 218.414 64.7433 218.298 64.5062C218.181 64.2653 218.005 64.0846 217.767 63.9641C217.534 63.8398 217.223 63.7776 216.835 63.7776C216.543 63.7776 216.289 63.832 216.071 63.9408C215.854 64.0496 215.671 64.2148 215.523 64.4363C215.376 64.6578 215.265 64.9376 215.191 65.2757C215.121 65.6099 215.086 66.0024 215.086 66.4532V67.0536C215.086 67.4928 215.119 67.8794 215.185 68.2136C215.251 68.544 215.352 68.8238 215.488 69.053C215.628 69.2784 215.807 69.4494 216.025 69.566C216.246 69.6787 216.512 69.7351 216.823 69.7351C217.188 69.7351 217.49 69.6768 217.727 69.5602C217.964 69.4436 218.144 69.2707 218.269 69.0414C218.397 68.8121 218.473 68.5265 218.496 68.1845Z" fill="white"/>
</g>
</g>
<rect x="199.298" y="58.2985" width="26.4031" height="18.4031" rx="0.895368" stroke="#F4F4F4" stroke-width="0.596912"/>
<g filter="url(#filter6_f_444_341)">
<rect x="322" y="27" width="116" height="49" fill="url(#paint5_radial_444_341)"/>
<rect x="322.664" y="27.6635" width="114.673" height="47.6729" stroke="#4205F0" stroke-width="1.32705"/>
</g>
<g filter="url(#filter7_f_444_341)">
<rect x="562" y="141" width="116" height="49" fill="url(#paint6_radial_444_341)"/>
<rect x="562.664" y="141.664" width="114.673" height="47.6729" stroke="#4205F0" stroke-width="1.32705"/>
</g>
<path d="M585.043 162.312H586.035L587.496 166.488L588.957 162.312H589.949L587.895 168H587.098L585.043 162.312ZM584.508 162.312H585.496L585.676 166.383V168H584.508V162.312ZM589.496 162.312H590.488V168H589.316V166.383L589.496 162.312ZM593.562 162.312V168H592.394V162.312H593.562ZM599.116 167.086V168H596.252V167.086H599.116ZM596.631 162.312V168H595.459V162.312H596.631ZM604.404 167.086V168H601.377V167.086H604.404ZM601.759 162.312V168H600.587V162.312H601.759ZM604.009 164.629V165.52H601.377V164.629H604.009ZM604.4 162.312V163.23H601.377V162.312H604.4ZM608.848 166.512C608.848 166.41 608.833 166.319 608.802 166.238C608.773 166.155 608.718 166.079 608.638 166.012C608.557 165.941 608.443 165.872 608.298 165.805C608.152 165.737 607.963 165.667 607.731 165.594C607.473 165.51 607.229 165.417 606.997 165.312C606.768 165.208 606.565 165.087 606.388 164.949C606.213 164.809 606.075 164.646 605.973 164.461C605.874 164.276 605.825 164.061 605.825 163.816C605.825 163.579 605.877 163.365 605.981 163.172C606.085 162.977 606.231 162.81 606.419 162.672C606.606 162.531 606.828 162.423 607.083 162.348C607.341 162.272 607.623 162.234 607.93 162.234C608.35 162.234 608.716 162.31 609.028 162.461C609.341 162.612 609.583 162.819 609.755 163.082C609.929 163.345 610.016 163.646 610.016 163.984H608.852C608.852 163.818 608.817 163.672 608.747 163.547C608.679 163.419 608.575 163.319 608.434 163.246C608.296 163.173 608.122 163.137 607.911 163.137C607.708 163.137 607.539 163.168 607.403 163.23C607.268 163.29 607.166 163.372 607.098 163.477C607.031 163.578 606.997 163.693 606.997 163.82C606.997 163.917 607.02 164.004 607.067 164.082C607.117 164.16 607.19 164.233 607.286 164.301C607.382 164.368 607.501 164.432 607.641 164.492C607.782 164.552 607.945 164.611 608.13 164.668C608.44 164.762 608.712 164.867 608.946 164.984C609.183 165.102 609.381 165.233 609.54 165.379C609.699 165.525 609.818 165.69 609.899 165.875C609.98 166.06 610.02 166.27 610.02 166.504C610.02 166.751 609.972 166.973 609.876 167.168C609.779 167.363 609.64 167.529 609.458 167.664C609.276 167.799 609.058 167.902 608.805 167.973C608.553 168.043 608.27 168.078 607.958 168.078C607.677 168.078 607.399 168.042 607.126 167.969C606.852 167.893 606.604 167.78 606.38 167.629C606.158 167.478 605.981 167.285 605.848 167.051C605.716 166.816 605.649 166.539 605.649 166.219H606.825C606.825 166.396 606.852 166.546 606.907 166.668C606.962 166.79 607.039 166.889 607.138 166.965C607.239 167.04 607.359 167.095 607.497 167.129C607.638 167.163 607.791 167.18 607.958 167.18C608.161 167.18 608.328 167.151 608.458 167.094C608.591 167.036 608.688 166.957 608.751 166.855C608.816 166.754 608.848 166.639 608.848 166.512ZM614.16 162.312V168H612.992V162.312H614.16ZM615.91 162.312V163.23H611.27V162.312H615.91ZM621.941 165.023V165.293C621.941 165.725 621.882 166.113 621.765 166.457C621.648 166.801 621.482 167.094 621.269 167.336C621.055 167.576 620.8 167.759 620.503 167.887C620.209 168.014 619.882 168.078 619.523 168.078C619.166 168.078 618.839 168.014 618.542 167.887C618.248 167.759 617.993 167.576 617.777 167.336C617.56 167.094 617.392 166.801 617.273 166.457C617.155 166.113 617.097 165.725 617.097 165.293V165.023C617.097 164.589 617.155 164.201 617.273 163.859C617.39 163.516 617.555 163.223 617.769 162.98C617.985 162.738 618.24 162.553 618.534 162.426C618.831 162.298 619.158 162.234 619.515 162.234C619.874 162.234 620.201 162.298 620.495 162.426C620.792 162.553 621.047 162.738 621.261 162.98C621.477 163.223 621.644 163.516 621.761 163.859C621.881 164.201 621.941 164.589 621.941 165.023ZM620.757 165.293V165.016C620.757 164.714 620.73 164.448 620.675 164.219C620.62 163.99 620.54 163.797 620.433 163.641C620.326 163.484 620.196 163.367 620.042 163.289C619.889 163.208 619.713 163.168 619.515 163.168C619.317 163.168 619.141 163.208 618.987 163.289C618.836 163.367 618.708 163.484 618.601 163.641C618.497 163.797 618.417 163.99 618.362 164.219C618.308 164.448 618.28 164.714 618.28 165.016V165.293C618.28 165.592 618.308 165.858 618.362 166.09C618.417 166.319 618.498 166.513 618.605 166.672C618.711 166.828 618.842 166.947 618.995 167.027C619.149 167.108 619.325 167.148 619.523 167.148C619.721 167.148 619.896 167.108 620.05 167.027C620.204 166.947 620.333 166.828 620.437 166.672C620.541 166.513 620.62 166.319 620.675 166.09C620.73 165.858 620.757 165.592 620.757 165.293ZM628.213 162.312V168H627.041L624.756 164.188V168H623.584V162.312H624.756L627.045 166.129V162.312H628.213ZM633.849 167.086V168H630.822V167.086H633.849ZM631.205 162.312V168H630.033V162.312H631.205ZM633.455 164.629V165.52H630.822V164.629H633.455ZM633.845 162.312V163.23H630.822V162.312H633.845ZM641.781 167.086V168H638.918V167.086H641.781ZM639.297 162.312V168H638.125V162.312H639.297ZM647.667 165.023V165.293C647.667 165.725 647.609 166.113 647.491 166.457C647.374 166.801 647.209 167.094 646.995 167.336C646.782 167.576 646.527 167.759 646.23 167.887C645.935 168.014 645.609 168.078 645.249 168.078C644.892 168.078 644.566 168.014 644.269 167.887C643.974 167.759 643.719 167.576 643.503 167.336C643.287 167.094 643.119 166.801 642.999 166.457C642.882 166.113 642.823 165.725 642.823 165.293V165.023C642.823 164.589 642.882 164.201 642.999 163.859C643.116 163.516 643.282 163.223 643.495 162.98C643.711 162.738 643.967 162.553 644.261 162.426C644.558 162.298 644.885 162.234 645.241 162.234C645.601 162.234 645.928 162.298 646.222 162.426C646.519 162.553 646.774 162.738 646.987 162.98C647.204 163.223 647.37 163.516 647.487 163.859C647.607 164.201 647.667 164.589 647.667 165.023ZM646.484 165.293V165.016C646.484 164.714 646.456 164.448 646.402 164.219C646.347 163.99 646.266 163.797 646.159 163.641C646.053 163.484 645.922 163.367 645.769 163.289C645.615 163.208 645.439 163.168 645.241 163.168C645.043 163.168 644.868 163.208 644.714 163.289C644.563 163.367 644.434 163.484 644.327 163.641C644.223 163.797 644.144 163.99 644.089 164.219C644.034 164.448 644.007 164.714 644.007 165.016V165.293C644.007 165.592 644.034 165.858 644.089 166.09C644.144 166.319 644.224 166.513 644.331 166.672C644.438 166.828 644.568 166.947 644.722 167.027C644.876 167.108 645.051 167.148 645.249 167.148C645.447 167.148 645.623 167.108 645.777 167.027C645.93 166.947 646.059 166.828 646.163 166.672C646.267 166.513 646.347 166.319 646.402 166.09C646.456 165.858 646.484 165.592 646.484 165.293ZM652.608 166.113H653.776C653.752 166.496 653.647 166.836 653.459 167.133C653.274 167.43 653.015 167.661 652.682 167.828C652.351 167.995 651.953 168.078 651.487 168.078C651.122 168.078 650.795 168.016 650.506 167.891C650.217 167.763 649.97 167.581 649.764 167.344C649.561 167.107 649.406 166.82 649.299 166.484C649.192 166.148 649.139 165.772 649.139 165.355V164.961C649.139 164.544 649.194 164.168 649.303 163.832C649.415 163.493 649.574 163.206 649.78 162.969C649.988 162.732 650.237 162.549 650.526 162.422C650.815 162.294 651.138 162.23 651.495 162.23C651.968 162.23 652.368 162.316 652.694 162.488C653.022 162.66 653.276 162.897 653.455 163.199C653.638 163.501 653.747 163.845 653.784 164.23H652.612C652.599 164.001 652.553 163.807 652.475 163.648C652.397 163.487 652.278 163.366 652.12 163.285C651.963 163.202 651.755 163.16 651.495 163.16C651.299 163.16 651.129 163.197 650.983 163.27C650.837 163.342 650.715 163.453 650.616 163.602C650.517 163.75 650.442 163.938 650.393 164.164C650.346 164.388 650.323 164.651 650.323 164.953V165.355C650.323 165.65 650.345 165.909 650.389 166.133C650.433 166.354 650.501 166.542 650.592 166.695C650.686 166.846 650.806 166.961 650.952 167.039C651.1 167.115 651.278 167.152 651.487 167.152C651.732 167.152 651.933 167.113 652.092 167.035C652.251 166.957 652.372 166.841 652.455 166.688C652.541 166.534 652.592 166.342 652.608 166.113ZM656.517 162.312V168H655.345V162.312H656.517ZM659.923 162.312L657.67 165.121L656.369 166.52L656.158 165.41L657.037 164.207L658.486 162.312H659.923ZM658.591 168L656.916 165.371L657.783 164.645L659.978 168H658.591Z" fill="#F3F3F3"/>
<g filter="url(#filter8_f_444_341)">
<rect x="251" y="51.3828" width="61" height="1" fill="url(#paint7_linear_444_341)"/>
</g>
<path d="M315.375 52.6092L309.96 49.4833V55.7352L315.375 52.6092Z" fill="#4205F0"/>
<g filter="url(#filter9_f_444_341)">
<rect x="80" y="49.3828" width="61" height="1" fill="url(#paint8_linear_444_341)"/>
</g>
<path d="M144.375 50.6092L138.96 47.4833V53.7352L144.375 50.6092Z" fill="#4205F0"/>
<g filter="url(#filter10_f_444_341)">
<rect x="438" y="32.3828" width="121" height="1" fill="url(#paint9_linear_444_341)"/>
</g>
<path d="M562.375 33.6092L556.96 30.4833V36.7352L562.375 33.6092Z" fill="#4205F0"/>
<g filter="url(#filter11_f_444_341)">
<rect x="438" y="51.3828" width="121" height="1" fill="url(#paint10_linear_444_341)"/>
</g>
<path d="M562.375 52.6092L556.96 49.4833V55.7352L562.375 52.6092Z" fill="#4205F0"/>
<g filter="url(#filter12_f_444_341)">
<rect x="438" y="70.3828" width="121" height="1" fill="url(#paint11_linear_444_341)"/>
</g>
<path d="M562.375 71.6092L556.96 68.4833V74.7352L562.375 71.6092Z" fill="#4205F0"/>
<path d="M616 133L620.33 125.5H611.67L616 133Z" fill="#4205F0"/>
<g filter="url(#filter13_f_444_341)">
<rect x="380" y="162" width="170" height="1" fill="url(#paint12_linear_444_341)"/>
</g>
<g filter="url(#filter14_f_444_341)">
<rect x="380" y="162" width="85" height="1" transform="rotate(-90 380 162)" fill="url(#paint13_linear_444_341)"/>
</g>
<path d="M553.876 163.264L548.462 160.138V166.389L553.876 163.264Z" fill="#4205F0"/>
<g opacity="0.5" filter="url(#filter15_f_444_341)">
<path d="M567 17H684V40H567V17Z" fill="url(#paint14_radial_444_341)"/>
<path d="M567.439 17.4389H683.561V39.5611H567.439V17.4389Z" stroke="#4205F0" stroke-width="0.877826"/>
</g>
<g opacity="0.3" filter="url(#filter16_f_444_341)">
<path d="M567 40H684V63H567V40Z" fill="url(#paint15_radial_444_341)"/>
<path d="M567.439 40.4389H683.561V62.5611H567.439V40.4389Z" stroke="#4205F0" stroke-width="0.877826"/>
</g>
<g opacity="0.2" filter="url(#filter17_f_444_341)">
<path d="M567 64H684V87H567V64Z" fill="url(#paint16_radial_444_341)"/>
<path d="M567.439 64.4389H683.561V86.5611H567.439V64.4389Z" stroke="#4205F0" stroke-width="0.877826"/>
</g>
<path d="M582.734 28.5039H581.273L581.266 27.6992H582.492C582.708 27.6992 582.885 27.6719 583.023 27.6172C583.161 27.5599 583.264 27.4779 583.332 27.3711C583.402 27.2617 583.438 27.1289 583.438 26.9727C583.438 26.7956 583.404 26.6523 583.336 26.543C583.271 26.4336 583.168 26.3542 583.027 26.3047C582.889 26.2552 582.711 26.2305 582.492 26.2305H581.68V31H580.508V25.3125H582.492C582.823 25.3125 583.118 25.3438 583.379 25.4062C583.642 25.4688 583.865 25.5638 584.047 25.6914C584.229 25.819 584.368 25.9805 584.465 26.1758C584.561 26.3685 584.609 26.5977 584.609 26.8633C584.609 27.0977 584.556 27.3138 584.449 27.5117C584.345 27.7096 584.18 27.8711 583.953 27.9961C583.729 28.1211 583.436 28.1901 583.074 28.2031L582.734 28.5039ZM582.684 31H580.953L581.41 30.0859H582.684C582.889 30.0859 583.057 30.0534 583.188 29.9883C583.318 29.9206 583.414 29.8294 583.477 29.7148C583.539 29.6003 583.57 29.4688 583.57 29.3203C583.57 29.1536 583.542 29.0091 583.484 28.8867C583.43 28.7643 583.341 28.6706 583.219 28.6055C583.096 28.5378 582.935 28.5039 582.734 28.5039H581.605L581.613 27.6992H583.02L583.289 28.0156C583.635 28.0104 583.914 28.0716 584.125 28.1992C584.339 28.3242 584.493 28.487 584.59 28.6875C584.689 28.888 584.738 29.1029 584.738 29.332C584.738 29.6966 584.659 30.0039 584.5 30.2539C584.341 30.5013 584.108 30.6875 583.801 30.8125C583.496 30.9375 583.124 31 582.684 31ZM591.089 28.0234V28.293C591.089 28.7253 591.03 29.1133 590.913 29.457C590.796 29.8008 590.631 30.0938 590.417 30.3359C590.204 30.5755 589.948 30.7591 589.652 30.8867C589.357 31.0143 589.03 31.0781 588.671 31.0781C588.314 31.0781 587.988 31.0143 587.691 30.8867C587.396 30.7591 587.141 30.5755 586.925 30.3359C586.709 30.0938 586.541 29.8008 586.421 29.457C586.304 29.1133 586.245 28.7253 586.245 28.293V28.0234C586.245 27.5885 586.304 27.2005 586.421 26.8594C586.538 26.5156 586.704 26.2227 586.917 25.9805C587.133 25.7383 587.389 25.5534 587.683 25.4258C587.98 25.2982 588.307 25.2344 588.663 25.2344C589.023 25.2344 589.349 25.2982 589.644 25.4258C589.941 25.5534 590.196 25.7383 590.409 25.9805C590.626 26.2227 590.792 26.5156 590.909 26.8594C591.029 27.2005 591.089 27.5885 591.089 28.0234ZM589.905 28.293V28.0156C589.905 27.7135 589.878 27.4479 589.823 27.2188C589.769 26.9896 589.688 26.7969 589.581 26.6406C589.474 26.4844 589.344 26.3672 589.191 26.2891C589.037 26.2083 588.861 26.168 588.663 26.168C588.465 26.168 588.29 26.2083 588.136 26.2891C587.985 26.3672 587.856 26.4844 587.749 26.6406C587.645 26.7969 587.566 26.9896 587.511 27.2188C587.456 27.4479 587.429 27.7135 587.429 28.0156V28.293C587.429 28.5924 587.456 28.8581 587.511 29.0898C587.566 29.319 587.646 29.513 587.753 29.6719C587.86 29.8281 587.99 29.9466 588.144 30.0273C588.297 30.1081 588.473 30.1484 588.671 30.1484C588.869 30.1484 589.045 30.1081 589.198 30.0273C589.352 29.9466 589.481 29.8281 589.585 29.6719C589.689 29.513 589.769 29.319 589.823 29.0898C589.878 28.8581 589.905 28.5924 589.905 28.293ZM597.362 25.3125V31H596.19L593.905 27.1875V31H592.733V25.3125H593.905L596.194 29.1289V25.3125H597.362ZM600.927 31H599.689L599.697 30.0859H600.927C601.235 30.0859 601.494 30.0169 601.705 29.8789C601.916 29.7383 602.074 29.5339 602.181 29.2656C602.291 28.9974 602.345 28.6732 602.345 28.293V28.0156C602.345 27.724 602.314 27.4674 602.252 27.2461C602.192 27.0247 602.102 26.8385 601.982 26.6875C601.862 26.5365 601.715 26.4232 601.541 26.3477C601.366 26.2695 601.166 26.2305 600.939 26.2305H599.666V25.3125H600.939C601.319 25.3125 601.667 25.3776 601.982 25.5078C602.3 25.6354 602.574 25.819 602.806 26.0586C603.038 26.2982 603.216 26.5846 603.341 26.918C603.469 27.2487 603.533 27.6172 603.533 28.0234V28.293C603.533 28.6966 603.469 29.0651 603.341 29.3984C603.216 29.7318 603.038 30.0182 602.806 30.2578C602.577 30.4948 602.302 30.6784 601.982 30.8086C601.664 30.9362 601.313 31 600.927 31ZM600.353 25.3125V31H599.181V25.3125H600.353ZM608.145 29.5117C608.145 29.4102 608.13 29.319 608.098 29.2383C608.07 29.1549 608.015 29.0794 607.934 29.0117C607.854 28.9414 607.74 28.8724 607.595 28.8047C607.449 28.737 607.26 28.6667 607.028 28.5938C606.77 28.5104 606.526 28.4167 606.294 28.3125C606.065 28.2083 605.861 28.0872 605.684 27.9492C605.51 27.8086 605.372 27.6458 605.27 27.4609C605.171 27.276 605.122 27.0612 605.122 26.8164C605.122 26.5794 605.174 26.3646 605.278 26.1719C605.382 25.9766 605.528 25.8099 605.716 25.6719C605.903 25.5312 606.124 25.4232 606.38 25.3477C606.638 25.2721 606.92 25.2344 607.227 25.2344C607.647 25.2344 608.013 25.3099 608.325 25.4609C608.638 25.612 608.88 25.819 609.052 26.082C609.226 26.3451 609.313 26.6458 609.313 26.9844H608.149C608.149 26.8177 608.114 26.6719 608.044 26.5469C607.976 26.4193 607.872 26.319 607.731 26.2461C607.593 26.1732 607.419 26.1367 607.208 26.1367C607.005 26.1367 606.835 26.168 606.7 26.2305C606.565 26.2904 606.463 26.3724 606.395 26.4766C606.328 26.5781 606.294 26.6927 606.294 26.8203C606.294 26.9167 606.317 27.0039 606.364 27.082C606.414 27.1602 606.486 27.2331 606.583 27.3008C606.679 27.3685 606.798 27.4323 606.938 27.4922C607.079 27.5521 607.242 27.6107 607.427 27.668C607.736 27.7617 608.009 27.8672 608.243 27.9844C608.48 28.1016 608.678 28.2331 608.837 28.3789C608.996 28.5247 609.115 28.6901 609.196 28.875C609.277 29.0599 609.317 29.2695 609.317 29.5039C609.317 29.7513 609.269 29.9727 609.173 30.168C609.076 30.3633 608.937 30.5286 608.755 30.6641C608.572 30.7995 608.355 30.9023 608.102 30.9727C607.85 31.043 607.567 31.0781 607.255 31.0781C606.973 31.0781 606.696 31.0417 606.423 30.9688C606.149 30.8932 605.901 30.7799 605.677 30.6289C605.455 30.4779 605.278 30.2852 605.145 30.0508C605.013 29.8164 604.946 29.5391 604.946 29.2188H606.122C606.122 29.3958 606.149 29.5456 606.204 29.668C606.259 29.7904 606.335 29.8893 606.434 29.9648C606.536 30.0404 606.656 30.0951 606.794 30.1289C606.934 30.1628 607.088 30.1797 607.255 30.1797C607.458 30.1797 607.624 30.151 607.755 30.0938C607.888 30.0365 607.985 29.957 608.048 29.8555C608.113 29.7539 608.145 29.6393 608.145 29.5117ZM617.523 30.0859V31H614.495V30.0859H617.523ZM614.878 25.3125V31H613.706V25.3125H614.878ZM617.128 27.6289V28.5195H614.495V27.6289H617.128ZM617.519 25.3125V26.2305H614.495V25.3125H617.519ZM621.057 29.8125L622.397 25.3125H623.702L621.721 31H620.862L621.057 29.8125ZM619.823 25.3125L621.159 29.8125L621.362 31H620.495L618.526 25.3125H619.823ZM627.048 26.2852L625.502 31H624.255L626.369 25.3125H627.162L627.048 26.2852ZM628.334 31L626.783 26.2852L626.658 25.3125H627.459L629.584 31H628.334ZM628.263 28.8828V29.8008H625.259V28.8828H628.263ZM634.567 30.0859V31H631.704V30.0859H634.567ZM632.083 25.3125V31H630.911V25.3125H632.083ZM639.047 25.3125H640.215V29.0703C640.215 29.5078 640.121 29.8763 639.934 30.1758C639.749 30.4753 639.492 30.7005 639.164 30.8516C638.839 31.0026 638.464 31.0781 638.039 31.0781C637.615 31.0781 637.237 31.0026 636.906 30.8516C636.578 30.7005 636.32 30.4753 636.133 30.1758C635.948 29.8763 635.855 29.5078 635.855 29.0703V25.3125H637.027V29.0703C637.027 29.3255 637.068 29.5339 637.148 29.6953C637.229 29.8568 637.345 29.9753 637.496 30.0508C637.65 30.1263 637.831 30.1641 638.039 30.1641C638.253 30.1641 638.434 30.1263 638.582 30.0508C638.733 29.9753 638.848 29.8568 638.926 29.6953C639.007 29.5339 639.047 29.3255 639.047 29.0703V25.3125ZM644.206 26.2852L642.659 31H641.413L643.527 25.3125H644.32L644.206 26.2852ZM645.491 31L643.941 26.2852L643.816 25.3125H644.616L646.741 31H645.491ZM645.421 28.8828V29.8008H642.417V28.8828H645.421ZM650.127 25.3125V31H648.959V25.3125H650.127ZM651.877 25.3125V26.2305H647.237V25.3125H651.877ZM654.591 25.3125V31H653.423V25.3125H654.591ZM661.161 28.0234V28.293C661.161 28.7253 661.102 29.1133 660.985 29.457C660.868 29.8008 660.703 30.0938 660.489 30.3359C660.276 30.5755 660.02 30.7591 659.723 30.8867C659.429 31.0143 659.102 31.0781 658.743 31.0781C658.386 31.0781 658.059 31.0143 657.762 30.8867C657.468 30.7591 657.213 30.5755 656.997 30.3359C656.781 30.0938 656.613 29.8008 656.493 29.457C656.376 29.1133 656.317 28.7253 656.317 28.293V28.0234C656.317 27.5885 656.376 27.2005 656.493 26.8594C656.61 26.5156 656.776 26.2227 656.989 25.9805C657.205 25.7383 657.46 25.5534 657.755 25.4258C658.052 25.2982 658.378 25.2344 658.735 25.2344C659.095 25.2344 659.421 25.2982 659.716 25.4258C660.012 25.5534 660.268 25.7383 660.481 25.9805C660.697 26.2227 660.864 26.5156 660.981 26.8594C661.101 27.2005 661.161 27.5885 661.161 28.0234ZM659.977 28.293V28.0156C659.977 27.7135 659.95 27.4479 659.895 27.2188C659.841 26.9896 659.76 26.7969 659.653 26.6406C659.546 26.4844 659.416 26.3672 659.262 26.2891C659.109 26.2083 658.933 26.168 658.735 26.168C658.537 26.168 658.361 26.2083 658.208 26.2891C658.057 26.3672 657.928 26.4844 657.821 26.6406C657.717 26.7969 657.637 26.9896 657.583 27.2188C657.528 27.4479 657.501 27.7135 657.501 28.0156V28.293C657.501 28.5924 657.528 28.8581 657.583 29.0898C657.637 29.319 657.718 29.513 657.825 29.6719C657.932 29.8281 658.062 29.9466 658.216 30.0273C658.369 30.1081 658.545 30.1484 658.743 30.1484C658.941 30.1484 659.117 30.1081 659.27 30.0273C659.424 29.9466 659.553 29.8281 659.657 29.6719C659.761 29.513 659.841 29.319 659.895 29.0898C659.95 28.8581 659.977 28.5924 659.977 28.293ZM667.434 25.3125V31H666.262L663.977 27.1875V31H662.805V25.3125H663.977L666.266 29.1289V25.3125H667.434Z" fill="#DDD9F3"/>
<path d="M585.137 51.3125V57H583.965L581.68 53.1875V57H580.508V51.3125H581.68L583.969 55.1289V51.3125H585.137ZM591.628 54.0234V54.293C591.628 54.7253 591.57 55.1133 591.452 55.457C591.335 55.8008 591.17 56.0938 590.956 56.3359C590.743 56.5755 590.488 56.7591 590.191 56.8867C589.896 57.0143 589.57 57.0781 589.21 57.0781C588.853 57.0781 588.527 57.0143 588.23 56.8867C587.935 56.7591 587.68 56.5755 587.464 56.3359C587.248 56.0938 587.08 55.8008 586.96 55.457C586.843 55.1133 586.784 54.7253 586.784 54.293V54.0234C586.784 53.5885 586.843 53.2005 586.96 52.8594C587.077 52.5156 587.243 52.2227 587.456 51.9805C587.672 51.7383 587.928 51.5534 588.222 51.4258C588.519 51.2982 588.846 51.2344 589.202 51.2344C589.562 51.2344 589.889 51.2982 590.183 51.4258C590.48 51.5534 590.735 51.7383 590.948 51.9805C591.165 52.2227 591.331 52.5156 591.448 52.8594C591.568 53.2005 591.628 53.5885 591.628 54.0234ZM590.445 54.293V54.0156C590.445 53.7135 590.417 53.4479 590.363 53.2188C590.308 52.9896 590.227 52.7969 590.12 52.6406C590.014 52.4844 589.883 52.3672 589.73 52.2891C589.576 52.2083 589.4 52.168 589.202 52.168C589.004 52.168 588.829 52.2083 588.675 52.2891C588.524 52.3672 588.395 52.4844 588.288 52.6406C588.184 52.7969 588.105 52.9896 588.05 53.2188C587.995 53.4479 587.968 53.7135 587.968 54.0156V54.293C587.968 54.5924 587.995 54.8581 588.05 55.0898C588.105 55.319 588.185 55.513 588.292 55.6719C588.399 55.8281 588.529 55.9466 588.683 56.0273C588.836 56.1081 589.012 56.1484 589.21 56.1484C589.408 56.1484 589.584 56.1081 589.738 56.0273C589.891 55.9466 590.02 55.8281 590.124 55.6719C590.228 55.513 590.308 55.319 590.363 55.0898C590.417 54.8581 590.445 54.5924 590.445 54.293ZM595.018 57H593.78L593.788 56.0859H595.018C595.325 56.0859 595.584 56.0169 595.795 55.8789C596.006 55.7383 596.165 55.5339 596.272 55.2656C596.381 54.9974 596.436 54.6732 596.436 54.293V54.0156C596.436 53.724 596.405 53.4674 596.342 53.2461C596.282 53.0247 596.192 52.8385 596.073 52.6875C595.953 52.5365 595.806 52.4232 595.631 52.3477C595.457 52.2695 595.256 52.2305 595.03 52.2305H593.756V51.3125H595.03C595.41 51.3125 595.758 51.3776 596.073 51.5078C596.39 51.6354 596.665 51.819 596.897 52.0586C597.129 52.2982 597.307 52.5846 597.432 52.918C597.56 53.2487 597.623 53.6172 597.623 54.0234V54.293C597.623 54.6966 597.56 55.0651 597.432 55.3984C597.307 55.7318 597.129 56.0182 596.897 56.2578C596.668 56.4948 596.393 56.6784 596.073 56.8086C595.755 56.9362 595.403 57 595.018 57ZM594.444 51.3125V57H593.272V51.3125H594.444ZM603.091 56.0859V57H600.064V56.0859H603.091ZM600.447 51.3125V57H599.275V51.3125H600.447ZM602.697 53.6289V54.5195H600.064V53.6289H602.697ZM603.087 51.3125V52.2305H600.064V51.3125H603.087ZM607.536 55.5117C607.536 55.4102 607.52 55.319 607.489 55.2383C607.46 55.1549 607.406 55.0794 607.325 55.0117C607.244 54.9414 607.131 54.8724 606.985 54.8047C606.839 54.737 606.651 54.6667 606.419 54.5938C606.161 54.5104 605.916 54.4167 605.684 54.3125C605.455 54.2083 605.252 54.0872 605.075 53.9492C604.901 53.8086 604.763 53.6458 604.661 53.4609C604.562 53.276 604.513 53.0612 604.513 52.8164C604.513 52.5794 604.565 52.3646 604.669 52.1719C604.773 51.9766 604.919 51.8099 605.106 51.6719C605.294 51.5312 605.515 51.4232 605.77 51.3477C606.028 51.2721 606.311 51.2344 606.618 51.2344C607.037 51.2344 607.403 51.3099 607.716 51.4609C608.028 51.612 608.27 51.819 608.442 52.082C608.617 52.3451 608.704 52.6458 608.704 52.9844H607.54C607.54 52.8177 607.505 52.6719 607.434 52.5469C607.367 52.4193 607.263 52.319 607.122 52.2461C606.984 52.1732 606.809 52.1367 606.598 52.1367C606.395 52.1367 606.226 52.168 606.091 52.2305C605.955 52.2904 605.854 52.3724 605.786 52.4766C605.718 52.5781 605.684 52.6927 605.684 52.8203C605.684 52.9167 605.708 53.0039 605.755 53.082C605.804 53.1602 605.877 53.2331 605.973 53.3008C606.07 53.3685 606.188 53.4323 606.329 53.4922C606.47 53.5521 606.632 53.6107 606.817 53.668C607.127 53.7617 607.399 53.8672 607.634 53.9844C607.871 54.1016 608.068 54.2331 608.227 54.3789C608.386 54.5247 608.506 54.6901 608.587 54.875C608.667 55.0599 608.708 55.2695 608.708 55.5039C608.708 55.7513 608.66 55.9727 608.563 56.168C608.467 56.3633 608.328 56.5286 608.145 56.6641C607.963 56.7995 607.746 56.9023 607.493 56.9727C607.24 57.043 606.958 57.0781 606.645 57.0781C606.364 57.0781 606.087 57.0417 605.813 56.9688C605.54 56.8932 605.291 56.7799 605.067 56.6289C604.846 56.4779 604.669 56.2852 604.536 56.0508C604.403 55.8164 604.337 55.5391 604.337 55.2188H605.513C605.513 55.3958 605.54 55.5456 605.595 55.668C605.649 55.7904 605.726 55.8893 605.825 55.9648C605.927 56.0404 606.046 56.0951 606.184 56.1289C606.325 56.1628 606.479 56.1797 606.645 56.1797C606.848 56.1797 607.015 56.151 607.145 56.0938C607.278 56.0365 607.376 55.957 607.438 55.8555C607.503 55.7539 607.536 55.6393 607.536 55.5117ZM616.913 56.0859V57H613.886V56.0859H616.913ZM614.269 51.3125V57H613.097V51.3125H614.269ZM616.519 53.6289V54.5195H613.886V53.6289H616.519ZM616.909 51.3125V52.2305H613.886V51.3125H616.909ZM620.448 55.8125L621.787 51.3125H623.092L621.112 57H620.252L620.448 55.8125ZM619.213 51.3125L620.549 55.8125L620.752 57H619.885L617.916 51.3125H619.213ZM626.439 52.2852L624.892 57H623.646L625.759 51.3125H626.552L626.439 52.2852ZM627.724 57L626.173 52.2852L626.048 51.3125H626.849L628.974 57H627.724ZM627.654 54.8828V55.8008H624.65V54.8828H627.654ZM633.958 56.0859V57H631.095V56.0859H633.958ZM631.473 51.3125V57H630.302V51.3125H631.473ZM638.438 51.3125H639.605V55.0703C639.605 55.5078 639.512 55.8763 639.324 56.1758C639.139 56.4753 638.883 56.7005 638.555 56.8516C638.229 57.0026 637.854 57.0781 637.43 57.0781C637.005 57.0781 636.628 57.0026 636.297 56.8516C635.969 56.7005 635.711 56.4753 635.523 56.1758C635.339 55.8763 635.246 55.5078 635.246 55.0703V51.3125H636.418V55.0703C636.418 55.3255 636.458 55.5339 636.539 55.6953C636.62 55.8568 636.736 55.9753 636.887 56.0508C637.04 56.1263 637.221 56.1641 637.43 56.1641C637.643 56.1641 637.824 56.1263 637.973 56.0508C638.124 55.9753 638.238 55.8568 638.316 55.6953C638.397 55.5339 638.438 55.3255 638.438 55.0703V51.3125ZM643.597 52.2852L642.05 57H640.804L642.917 51.3125H643.71L643.597 52.2852ZM644.882 57L643.331 52.2852L643.206 51.3125H644.007L646.132 57H644.882ZM644.812 54.8828V55.8008H641.808V54.8828H644.812ZM649.518 51.3125V57H648.35V51.3125H649.518ZM651.268 51.3125V52.2305H646.627V51.3125H651.268ZM653.982 51.3125V57H652.814V51.3125H653.982ZM660.552 54.0234V54.293C660.552 54.7253 660.493 55.1133 660.376 55.457C660.259 55.8008 660.093 56.0938 659.88 56.3359C659.666 56.5755 659.411 56.7591 659.114 56.8867C658.82 57.0143 658.493 57.0781 658.134 57.0781C657.777 57.0781 657.45 57.0143 657.153 56.8867C656.859 56.7591 656.604 56.5755 656.387 56.3359C656.171 56.0938 656.003 55.8008 655.884 55.457C655.766 55.1133 655.708 54.7253 655.708 54.293V54.0234C655.708 53.5885 655.766 53.2005 655.884 52.8594C656.001 52.5156 656.166 52.2227 656.38 51.9805C656.596 51.7383 656.851 51.5534 657.145 51.4258C657.442 51.2982 657.769 51.2344 658.126 51.2344C658.485 51.2344 658.812 51.2982 659.106 51.4258C659.403 51.5534 659.658 51.7383 659.872 51.9805C660.088 52.2227 660.255 52.5156 660.372 52.8594C660.492 53.2005 660.552 53.5885 660.552 54.0234ZM659.368 54.293V54.0156C659.368 53.7135 659.341 53.4479 659.286 53.2188C659.231 52.9896 659.151 52.7969 659.044 52.6406C658.937 52.4844 658.807 52.3672 658.653 52.2891C658.499 52.2083 658.324 52.168 658.126 52.168C657.928 52.168 657.752 52.2083 657.598 52.2891C657.447 52.3672 657.318 52.4844 657.212 52.6406C657.108 52.7969 657.028 52.9896 656.973 53.2188C656.919 53.4479 656.891 53.7135 656.891 54.0156V54.293C656.891 54.5924 656.919 54.8581 656.973 55.0898C657.028 55.319 657.109 55.513 657.216 55.6719C657.322 55.8281 657.453 55.9466 657.606 56.0273C657.76 56.1081 657.936 56.1484 658.134 56.1484C658.332 56.1484 658.507 56.1081 658.661 56.0273C658.815 55.9466 658.943 55.8281 659.048 55.6719C659.152 55.513 659.231 55.319 659.286 55.0898C659.341 54.8581 659.368 54.5924 659.368 54.293ZM666.824 51.3125V57H665.652L663.367 53.1875V57H662.195V51.3125H663.367L665.656 55.1289V51.3125H666.824Z" fill="#DDD9F3"/>
<path d="M577.051 72.3125V78H575.883V72.3125H577.051ZM578.801 72.3125V73.2305H574.16V72.3125H578.801ZM580.269 72.3125H582.39C582.825 72.3125 583.198 72.3776 583.511 72.5078C583.826 72.638 584.068 72.8307 584.238 73.0859C584.407 73.3411 584.491 73.6549 584.491 74.0273C584.491 74.332 584.439 74.5938 584.335 74.8125C584.234 75.0286 584.089 75.2096 583.902 75.3555C583.717 75.4987 583.499 75.6133 583.249 75.6992L582.878 75.8945H581.034L581.027 74.9805H582.398C582.603 74.9805 582.774 74.944 582.909 74.8711C583.045 74.7982 583.146 74.6966 583.214 74.5664C583.284 74.4362 583.32 74.2852 583.32 74.1133C583.32 73.931 583.286 73.7734 583.218 73.6406C583.15 73.5078 583.047 73.4062 582.909 73.3359C582.771 73.2656 582.598 73.2305 582.39 73.2305H581.441V78H580.269V72.3125ZM583.448 78L582.152 75.4648L583.39 75.457L584.702 77.9453V78H583.448ZM590.01 77.0859V78H586.983V77.0859H590.01ZM587.366 72.3125V78H586.194V72.3125H587.366ZM589.616 74.6289V75.5195H586.983V74.6289H589.616ZM590.006 72.3125V73.2305H586.983V72.3125H590.006ZM593.806 73.2852L592.259 78H591.013L593.127 72.3125H593.92L593.806 73.2852ZM595.091 78L593.541 73.2852L593.416 72.3125H594.216L596.341 78H595.091ZM595.021 75.8828V76.8008H592.017V75.8828H595.021ZM600.63 76.5117C600.63 76.4102 600.614 76.319 600.583 76.2383C600.554 76.1549 600.499 76.0794 600.419 76.0117C600.338 75.9414 600.225 75.8724 600.079 75.8047C599.933 75.737 599.744 75.6667 599.513 75.5938C599.255 75.5104 599.01 75.4167 598.778 75.3125C598.549 75.2083 598.346 75.0872 598.169 74.9492C597.994 74.8086 597.856 74.6458 597.755 74.4609C597.656 74.276 597.606 74.0612 597.606 73.8164C597.606 73.5794 597.658 73.3646 597.763 73.1719C597.867 72.9766 598.013 72.8099 598.2 72.6719C598.388 72.5312 598.609 72.4232 598.864 72.3477C599.122 72.2721 599.404 72.2344 599.712 72.2344C600.131 72.2344 600.497 72.3099 600.809 72.4609C601.122 72.612 601.364 72.819 601.536 73.082C601.71 73.3451 601.798 73.6458 601.798 73.9844H600.634C600.634 73.8177 600.598 73.6719 600.528 73.5469C600.46 73.4193 600.356 73.319 600.216 73.2461C600.078 73.1732 599.903 73.1367 599.692 73.1367C599.489 73.1367 599.32 73.168 599.184 73.2305C599.049 73.2904 598.947 73.3724 598.88 73.4766C598.812 73.5781 598.778 73.6927 598.778 73.8203C598.778 73.9167 598.802 74.0039 598.848 74.082C598.898 74.1602 598.971 74.2331 599.067 74.3008C599.164 74.3685 599.282 74.4323 599.423 74.4922C599.563 74.5521 599.726 74.6107 599.911 74.668C600.221 74.7617 600.493 74.8672 600.727 74.9844C600.964 75.1016 601.162 75.2331 601.321 75.3789C601.48 75.5247 601.6 75.6901 601.68 75.875C601.761 76.0599 601.802 76.2695 601.802 76.5039C601.802 76.7513 601.753 76.9727 601.657 77.168C601.561 77.3633 601.421 77.5286 601.239 77.6641C601.057 77.7995 600.839 77.9023 600.587 77.9727C600.334 78.043 600.052 78.0781 599.739 78.0781C599.458 78.0781 599.18 78.0417 598.907 77.9688C598.634 77.8932 598.385 77.7799 598.161 77.6289C597.94 77.4779 597.763 77.2852 597.63 77.0508C597.497 76.8164 597.43 76.5391 597.43 76.2188H598.606C598.606 76.3958 598.634 76.5456 598.688 76.668C598.743 76.7904 598.82 76.8893 598.919 76.9648C599.02 77.0404 599.14 77.0951 599.278 77.1289C599.419 77.1628 599.572 77.1797 599.739 77.1797C599.942 77.1797 600.109 77.151 600.239 77.0938C600.372 77.0365 600.47 76.957 600.532 76.8555C600.597 76.7539 600.63 76.6393 600.63 76.5117ZM606.539 72.3125H607.707V76.0703C607.707 76.5078 607.613 76.8763 607.426 77.1758C607.241 77.4753 606.984 77.7005 606.656 77.8516C606.331 78.0026 605.956 78.0781 605.531 78.0781C605.107 78.0781 604.729 78.0026 604.398 77.8516C604.07 77.7005 603.812 77.4753 603.625 77.1758C603.44 76.8763 603.348 76.5078 603.348 76.0703V72.3125H604.52V76.0703C604.52 76.3255 604.56 76.5339 604.641 76.6953C604.721 76.8568 604.837 76.9753 604.988 77.0508C605.142 77.1263 605.323 77.1641 605.531 77.1641C605.745 77.1641 605.926 77.1263 606.074 77.0508C606.225 76.9753 606.34 76.8568 606.418 76.6953C606.499 76.5339 606.539 76.3255 606.539 76.0703V72.3125ZM609.472 72.3125H611.593C612.028 72.3125 612.402 72.3776 612.714 72.5078C613.029 72.638 613.271 72.8307 613.441 73.0859C613.61 73.3411 613.695 73.6549 613.695 74.0273C613.695 74.332 613.642 74.5938 613.538 74.8125C613.437 75.0286 613.292 75.2096 613.105 75.3555C612.92 75.4987 612.702 75.6133 612.452 75.6992L612.081 75.8945H610.237L610.23 74.9805H611.601C611.807 74.9805 611.977 74.944 612.112 74.8711C612.248 74.7982 612.349 74.6966 612.417 74.5664C612.487 74.4362 612.523 74.2852 612.523 74.1133C612.523 73.931 612.489 73.7734 612.421 73.6406C612.353 73.5078 612.251 73.4062 612.112 73.3359C611.974 73.2656 611.801 73.2305 611.593 73.2305H610.644V78H609.472V72.3125ZM612.652 78L611.355 75.4648L612.593 75.457L613.905 77.9453V78H612.652ZM615.991 72.3125L617.178 74.9062L618.366 72.3125H619.643L617.772 75.9297V78H616.584V75.9297L614.709 72.3125H615.991ZM627.571 77.0859V78H624.544V77.0859H627.571ZM624.927 72.3125V78H623.755V72.3125H624.927ZM627.177 74.6289V75.5195H624.544V74.6289H627.177ZM627.567 72.3125V73.2305H624.544V72.3125H627.567ZM631.105 76.8125L632.445 72.3125H633.75L631.77 78H630.91L631.105 76.8125ZM629.871 72.3125L631.207 76.8125L631.41 78H630.543L628.574 72.3125H629.871ZM637.097 73.2852L635.55 78H634.304L636.417 72.3125H637.21L637.097 73.2852ZM638.382 78L636.831 73.2852L636.706 72.3125H637.507L639.632 78H638.382ZM638.312 75.8828V76.8008H635.308V75.8828H638.312ZM644.616 77.0859V78H641.752V77.0859H644.616ZM642.131 72.3125V78H640.959V72.3125H642.131ZM649.095 72.3125H650.263V76.0703C650.263 76.5078 650.17 76.8763 649.982 77.1758C649.797 77.4753 649.541 77.7005 649.213 77.8516C648.887 78.0026 648.512 78.0781 648.088 78.0781C647.663 78.0781 647.285 78.0026 646.955 77.8516C646.627 77.7005 646.369 77.4753 646.181 77.1758C645.996 76.8763 645.904 76.5078 645.904 76.0703V72.3125H647.076V76.0703C647.076 76.3255 647.116 76.5339 647.197 76.6953C647.278 76.8568 647.393 76.9753 647.545 77.0508C647.698 77.1263 647.879 77.1641 648.088 77.1641C648.301 77.1641 648.482 77.1263 648.63 77.0508C648.782 76.9753 648.896 76.8568 648.974 76.6953C649.055 76.5339 649.095 76.3255 649.095 76.0703V72.3125ZM654.255 73.2852L652.708 78H651.462L653.575 72.3125H654.368L654.255 73.2852ZM655.54 78L653.989 73.2852L653.864 72.3125H654.665L656.79 78H655.54ZM655.47 75.8828V76.8008H652.466V75.8828H655.47ZM660.176 72.3125V78H659.008V72.3125H660.176ZM661.926 72.3125V73.2305H657.285V72.3125H661.926ZM664.64 72.3125V78H663.472V72.3125H664.64ZM671.209 75.0234V75.293C671.209 75.7253 671.151 76.1133 671.034 76.457C670.916 76.8008 670.751 77.0938 670.537 77.3359C670.324 77.5755 670.069 77.7591 669.772 77.8867C669.478 78.0143 669.151 78.0781 668.791 78.0781C668.435 78.0781 668.108 78.0143 667.811 77.8867C667.517 77.7591 667.261 77.5755 667.045 77.3359C666.829 77.0938 666.661 76.8008 666.541 76.457C666.424 76.1133 666.366 75.7253 666.366 75.293V75.0234C666.366 74.5885 666.424 74.2005 666.541 73.8594C666.659 73.5156 666.824 73.2227 667.037 72.9805C667.254 72.7383 667.509 72.5534 667.803 72.4258C668.1 72.2982 668.427 72.2344 668.784 72.2344C669.143 72.2344 669.47 72.2982 669.764 72.4258C670.061 72.5534 670.316 72.7383 670.53 72.9805C670.746 73.2227 670.912 73.5156 671.03 73.8594C671.149 74.2005 671.209 74.5885 671.209 75.0234ZM670.026 75.293V75.0156C670.026 74.7135 669.998 74.4479 669.944 74.2188C669.889 73.9896 669.808 73.7969 669.702 73.6406C669.595 73.4844 669.465 73.3672 669.311 73.2891C669.157 73.2083 668.982 73.168 668.784 73.168C668.586 73.168 668.41 73.2083 668.256 73.2891C668.105 73.3672 667.976 73.4844 667.87 73.6406C667.765 73.7969 667.686 73.9896 667.631 74.2188C667.577 74.4479 667.549 74.7135 667.549 75.0156V75.293C667.549 75.5924 667.577 75.8581 667.631 76.0898C667.686 76.319 667.767 76.513 667.873 76.6719C667.98 76.8281 668.11 76.9466 668.264 77.0273C668.418 77.1081 668.593 77.1484 668.791 77.1484C668.989 77.1484 669.165 77.1081 669.319 77.0273C669.472 76.9466 669.601 76.8281 669.705 76.6719C669.81 76.513 669.889 76.319 669.944 76.0898C669.998 75.8581 670.026 75.5924 670.026 75.293ZM677.482 72.3125V78H676.31L674.025 74.1875V78H672.853V72.3125H674.025L676.314 76.1289V72.3125H677.482Z" fill="#DDD9F3"/>
<g opacity="0.5" filter="url(#filter18_f_444_341)">
<path d="M2 21H62V81H2V21Z" fill="url(#paint17_radial_444_341)"/>
<path d="M2.43891 21.4389H61.5611V80.5611H2.43891V21.4389Z" stroke="#4205F0" stroke-width="0.877826"/>
</g>
<path d="M20.2055 47.5117C20.2055 47.4102 20.1898 47.319 20.1586 47.2383C20.1299 47.1549 20.0753 47.0794 19.9945 47.0117C19.9138 46.9414 19.8005 46.8724 19.6547 46.8047C19.5089 46.737 19.3201 46.6667 19.0883 46.5938C18.8305 46.5104 18.5857 46.4167 18.3539 46.3125C18.1247 46.2083 17.9216 46.0872 17.7445 45.9492C17.5701 45.8086 17.432 45.6458 17.3305 45.4609C17.2315 45.276 17.182 45.0612 17.182 44.8164C17.182 44.5794 17.2341 44.3646 17.3383 44.1719C17.4424 43.9766 17.5883 43.8099 17.7758 43.6719C17.9633 43.5312 18.1846 43.4232 18.4398 43.3477C18.6977 43.2721 18.9802 43.2344 19.2875 43.2344C19.7068 43.2344 20.0727 43.3099 20.3852 43.4609C20.6977 43.612 20.9398 43.819 21.1117 44.082C21.2862 44.3451 21.3734 44.6458 21.3734 44.9844H20.2094C20.2094 44.8177 20.1742 44.6719 20.1039 44.5469C20.0362 44.4193 19.932 44.319 19.7914 44.2461C19.6534 44.1732 19.4789 44.1367 19.268 44.1367C19.0648 44.1367 18.8956 44.168 18.7602 44.2305C18.6247 44.2904 18.5232 44.3724 18.4555 44.4766C18.3878 44.5781 18.3539 44.6927 18.3539 44.8203C18.3539 44.9167 18.3773 45.0039 18.4242 45.082C18.4737 45.1602 18.5466 45.2331 18.643 45.3008C18.7393 45.3685 18.8578 45.4323 18.9984 45.4922C19.1391 45.5521 19.3018 45.6107 19.4867 45.668C19.7966 45.7617 20.0688 45.8672 20.3031 45.9844C20.5401 46.1016 20.738 46.2331 20.8969 46.3789C21.0557 46.5247 21.1755 46.6901 21.2563 46.875C21.337 47.0599 21.3773 47.2695 21.3773 47.5039C21.3773 47.7513 21.3292 47.9727 21.2328 48.168C21.1365 48.3633 20.9971 48.5286 20.8148 48.6641C20.6326 48.7995 20.4151 48.9023 20.1625 48.9727C19.9099 49.043 19.6273 49.0781 19.3148 49.0781C19.0336 49.0781 18.7563 49.0417 18.4828 48.9688C18.2094 48.8932 17.9607 48.7799 17.7367 48.6289C17.5154 48.4779 17.3383 48.2852 17.2055 48.0508C17.0727 47.8164 17.0063 47.5391 17.0063 47.2188H18.182C18.182 47.3958 18.2094 47.5456 18.2641 47.668C18.3188 47.7904 18.3956 47.8893 18.4945 47.9648C18.5961 48.0404 18.7159 48.0951 18.8539 48.1289C18.9945 48.1628 19.1482 48.1797 19.3148 48.1797C19.518 48.1797 19.6846 48.151 19.8148 48.0938C19.9477 48.0365 20.0453 47.957 20.1078 47.8555C20.1729 47.7539 20.2055 47.6393 20.2055 47.5117ZM23.7555 43.3125L24.943 45.9062L26.1305 43.3125H27.4078L25.5367 46.9297V49H24.3492V46.9297L22.4742 43.3125H23.7555ZM33.3563 43.3125V49H32.1844L29.8992 45.1875V49H28.7273V43.3125H29.8992L32.1883 47.1289V43.3125H33.3563ZM38.4727 47.1133H39.6406C39.6172 47.4961 39.5117 47.8359 39.3242 48.1328C39.1393 48.4297 38.8802 48.6615 38.5469 48.8281C38.2161 48.9948 37.8177 49.0781 37.3516 49.0781C36.987 49.0781 36.6602 49.0156 36.3711 48.8906C36.082 48.763 35.8346 48.5807 35.6289 48.3438C35.4258 48.1068 35.2708 47.8203 35.1641 47.4844C35.0573 47.1484 35.0039 46.7721 35.0039 46.3555V45.9609C35.0039 45.5443 35.0586 45.168 35.168 44.832C35.2799 44.4935 35.4388 44.2057 35.6445 43.9688C35.8529 43.7318 36.1016 43.5495 36.3906 43.4219C36.6797 43.2943 37.0026 43.2305 37.3594 43.2305C37.8333 43.2305 38.2331 43.3164 38.5586 43.4883C38.8867 43.6602 39.1406 43.8971 39.3203 44.1992C39.5026 44.5013 39.612 44.8451 39.6484 45.2305H38.4766C38.4635 45.0013 38.418 44.8073 38.3398 44.6484C38.2617 44.487 38.1432 44.3659 37.9844 44.2852C37.8281 44.2018 37.6198 44.1602 37.3594 44.1602C37.1641 44.1602 36.9935 44.1966 36.8477 44.2695C36.7018 44.3424 36.5794 44.4531 36.4805 44.6016C36.3815 44.75 36.3073 44.9375 36.2578 45.1641C36.2109 45.388 36.1875 45.651 36.1875 45.9531V46.3555C36.1875 46.6497 36.2096 46.9089 36.2539 47.1328C36.2982 47.3542 36.3659 47.5417 36.457 47.6953C36.5508 47.8464 36.6706 47.9609 36.8164 48.0391C36.9648 48.1146 37.1432 48.1523 37.3516 48.1523C37.5964 48.1523 37.7982 48.1133 37.957 48.0352C38.1159 47.957 38.237 47.8411 38.3203 47.6875C38.4062 47.5339 38.457 47.3424 38.4727 47.1133ZM46.3617 43.3125L44.2758 49.4883H43.4398L45.5258 43.3125H46.3617ZM18.6992 52.3125H19.8672V56.0703C19.8672 56.5078 19.7734 56.8763 19.5859 57.1758C19.401 57.4753 19.1445 57.7005 18.8164 57.8516C18.4909 58.0026 18.1159 58.0781 17.6914 58.0781C17.2669 58.0781 16.8893 58.0026 16.5586 57.8516C16.2305 57.7005 15.9727 57.4753 15.7852 57.1758C15.6003 56.8763 15.5078 56.5078 15.5078 56.0703V52.3125H16.6797V56.0703C16.6797 56.3255 16.7201 56.5339 16.8008 56.6953C16.8815 56.8568 16.9974 56.9753 17.1484 57.0508C17.3021 57.1263 17.4831 57.1641 17.6914 57.1641C17.9049 57.1641 18.0859 57.1263 18.2344 57.0508C18.3854 56.9753 18.5 56.8568 18.5781 56.6953C18.6589 56.5339 18.6992 56.3255 18.6992 56.0703V52.3125ZM23.8469 55.9727H22.3977V55.0586H23.8469C24.0708 55.0586 24.2531 55.0221 24.3938 54.9492C24.5344 54.8737 24.6372 54.7695 24.7023 54.6367C24.7674 54.5039 24.8 54.3542 24.8 54.1875C24.8 54.0182 24.7674 53.8607 24.7023 53.7148C24.6372 53.569 24.5344 53.4518 24.3938 53.3633C24.2531 53.2747 24.0708 53.2305 23.8469 53.2305H22.8039V58H21.632V52.3125H23.8469C24.2922 52.3125 24.6737 52.3932 24.9914 52.5547C25.3117 52.7135 25.5565 52.9336 25.7258 53.2148C25.8951 53.4961 25.9797 53.8177 25.9797 54.1797C25.9797 54.5469 25.8951 54.8646 25.7258 55.1328C25.5565 55.401 25.3117 55.6081 24.9914 55.7539C24.6737 55.8997 24.2922 55.9727 23.8469 55.9727ZM29.3344 58H28.0961L28.1039 57.0859H29.3344C29.6417 57.0859 29.9008 57.0169 30.1117 56.8789C30.3227 56.7383 30.4815 56.5339 30.5883 56.2656C30.6977 55.9974 30.7523 55.6732 30.7523 55.293V55.0156C30.7523 54.724 30.7211 54.4674 30.6586 54.2461C30.5987 54.0247 30.5089 53.8385 30.3891 53.6875C30.2693 53.5365 30.1221 53.4232 29.9477 53.3477C29.7732 53.2695 29.5727 53.2305 29.3461 53.2305H28.0727V52.3125H29.3461C29.7263 52.3125 30.074 52.3776 30.3891 52.5078C30.7068 52.6354 30.9815 52.819 31.2133 53.0586C31.4451 53.2982 31.6234 53.5846 31.7484 53.918C31.876 54.2487 31.9398 54.6172 31.9398 55.0234V55.293C31.9398 55.6966 31.876 56.0651 31.7484 56.3984C31.6234 56.7318 31.4451 57.0182 31.2133 57.2578C30.9841 57.4948 30.7094 57.6784 30.3891 57.8086C30.0714 57.9362 29.7198 58 29.3344 58ZM28.7602 52.3125V58H27.5883V52.3125H28.7602ZM35.818 53.2852L34.2711 58H33.025L35.1383 52.3125H35.9312L35.818 53.2852ZM37.1031 58L35.5523 53.2852L35.4273 52.3125H36.2281L38.3531 58H37.1031ZM37.0328 55.8828V56.8008H34.0289V55.8828H37.0328ZM41.7391 52.3125V58H40.5711V52.3125H41.7391ZM43.4891 52.3125V53.2305H38.8484V52.3125H43.4891ZM48.7734 57.0859V58H45.7461V57.0859H48.7734ZM46.1289 52.3125V58H44.957V52.3125H46.1289ZM48.3789 54.6289V55.5195H45.7461V54.6289H48.3789ZM48.7695 52.3125V53.2305H45.7461V52.3125H48.7695Z" fill="#DDD9F3"/>
<path d="M343.577 55.3125H345.698C346.133 55.3125 346.507 55.3776 346.82 55.5078C347.135 55.638 347.377 55.8307 347.546 56.0859C347.715 56.3411 347.8 56.6549 347.8 57.0273C347.8 57.332 347.748 57.5938 347.644 57.8125C347.542 58.0286 347.398 58.2096 347.21 58.3555C347.025 58.4987 346.808 58.6133 346.558 58.6992L346.187 58.8945H344.343L344.335 57.9805H345.706C345.912 57.9805 346.083 57.944 346.218 57.8711C346.353 57.7982 346.455 57.6966 346.523 57.5664C346.593 57.4362 346.628 57.2852 346.628 57.1133C346.628 56.931 346.594 56.7734 346.527 56.6406C346.459 56.5078 346.356 56.4062 346.218 56.3359C346.08 56.2656 345.907 56.2305 345.698 56.2305H344.749V61H343.577V55.3125ZM346.757 61L345.46 58.4648L346.698 58.457L348.011 60.9453V61H346.757ZM353.319 60.0859V61H350.291V60.0859H353.319ZM350.674 55.3125V61H349.502V55.3125H350.674ZM352.924 57.6289V58.5195H350.291V57.6289H352.924ZM353.315 55.3125V56.2305H350.291V55.3125H353.315ZM357.763 59.5117C357.763 59.4102 357.748 59.319 357.716 59.2383C357.688 59.1549 357.633 59.0794 357.552 59.0117C357.472 58.9414 357.358 58.8724 357.212 58.8047C357.067 58.737 356.878 58.6667 356.646 58.5938C356.388 58.5104 356.143 58.4167 355.912 58.3125C355.683 58.2083 355.479 58.0872 355.302 57.9492C355.128 57.8086 354.99 57.6458 354.888 57.4609C354.789 57.276 354.74 57.0612 354.74 56.8164C354.74 56.5794 354.792 56.3646 354.896 56.1719C355 55.9766 355.146 55.8099 355.334 55.6719C355.521 55.5312 355.742 55.4232 355.998 55.3477C356.255 55.2721 356.538 55.2344 356.845 55.2344C357.265 55.2344 357.63 55.3099 357.943 55.4609C358.255 55.612 358.498 55.819 358.67 56.082C358.844 56.3451 358.931 56.6458 358.931 56.9844H357.767C357.767 56.8177 357.732 56.6719 357.662 56.5469C357.594 56.4193 357.49 56.319 357.349 56.2461C357.211 56.1732 357.037 56.1367 356.826 56.1367C356.623 56.1367 356.453 56.168 356.318 56.2305C356.183 56.2904 356.081 56.3724 356.013 56.4766C355.946 56.5781 355.912 56.6927 355.912 56.8203C355.912 56.9167 355.935 57.0039 355.982 57.082C356.032 57.1602 356.104 57.2331 356.201 57.3008C356.297 57.3685 356.416 57.4323 356.556 57.4922C356.697 57.5521 356.86 57.6107 357.045 57.668C357.354 57.7617 357.627 57.8672 357.861 57.9844C358.098 58.1016 358.296 58.2331 358.455 58.3789C358.614 58.5247 358.733 58.6901 358.814 58.875C358.895 59.0599 358.935 59.2695 358.935 59.5039C358.935 59.7513 358.887 59.9727 358.791 60.168C358.694 60.3633 358.555 60.5286 358.373 60.6641C358.19 60.7995 357.973 60.9023 357.72 60.9727C357.468 61.043 357.185 61.0781 356.873 61.0781C356.591 61.0781 356.314 61.0417 356.041 60.9688C355.767 60.8932 355.518 60.7799 355.295 60.6289C355.073 60.4779 354.896 60.2852 354.763 60.0508C354.63 59.8164 354.564 59.5391 354.564 59.2188H355.74C355.74 59.3958 355.767 59.5456 355.822 59.668C355.877 59.7904 355.953 59.8893 356.052 59.9648C356.154 60.0404 356.274 60.0951 356.412 60.1289C356.552 60.1628 356.706 60.1797 356.873 60.1797C357.076 60.1797 357.242 60.151 357.373 60.0938C357.505 60.0365 357.603 59.957 357.666 59.8555C357.731 59.7539 357.763 59.6393 357.763 59.5117ZM364.348 60.0859V61H361.321V60.0859H364.348ZM361.704 55.3125V61H360.532V55.3125H361.704ZM363.954 57.6289V58.5195H361.321V57.6289H363.954ZM364.345 55.3125V56.2305H361.321V55.3125H364.345ZM365.832 55.3125H367.953C368.388 55.3125 368.762 55.3776 369.074 55.5078C369.389 55.638 369.632 55.8307 369.801 56.0859C369.97 56.3411 370.055 56.6549 370.055 57.0273C370.055 57.332 370.003 57.5938 369.898 57.8125C369.797 58.0286 369.652 58.2096 369.465 58.3555C369.28 58.4987 369.062 58.6133 368.812 58.6992L368.441 58.8945H366.598L366.59 57.9805H367.961C368.167 57.9805 368.337 57.944 368.473 57.8711C368.608 57.7982 368.71 57.6966 368.777 57.5664C368.848 57.4362 368.883 57.2852 368.883 57.1133C368.883 56.931 368.849 56.7734 368.781 56.6406C368.714 56.5078 368.611 56.4062 368.473 56.3359C368.335 56.2656 368.161 56.2305 367.953 56.2305H367.004V61H365.832V55.3125ZM369.012 61L367.715 58.4648L368.953 58.457L370.266 60.9453V61H369.012ZM373.73 59.8125L375.07 55.3125H376.374L374.394 61H373.534L373.73 59.8125ZM372.495 55.3125L373.831 59.8125L374.034 61H373.167L371.198 55.3125H372.495ZM381.522 60.0859V61H378.495V60.0859H381.522ZM378.877 55.3125V61H377.705V55.3125H378.877ZM381.127 57.6289V58.5195H378.495V57.6289H381.127ZM381.518 55.3125V56.2305H378.495V55.3125H381.518ZM390.427 55.3125V61H389.255L386.97 57.1875V61H385.798V55.3125H386.97L389.259 59.1289V55.3125H390.427ZM394.629 56.2852L393.082 61H391.836L393.949 55.3125H394.742L394.629 56.2852ZM395.914 61L394.363 56.2852L394.238 55.3125H395.039L397.164 61H395.914ZM395.844 58.8828V59.8008H392.84V58.8828H395.844ZM400.55 55.3125V61H399.382V55.3125H400.55ZM402.3 55.3125V56.2305H397.659V55.3125H402.3ZM405.014 55.3125V61H403.846V55.3125H405.014ZM408.962 59.8125L410.302 55.3125H411.607L409.627 61H408.767L408.962 59.8125ZM407.728 55.3125L409.064 59.8125L409.267 61H408.4L406.431 55.3125H407.728ZM416.755 60.0859V61H413.727V60.0859H416.755ZM414.11 55.3125V61H412.938V55.3125H414.11ZM416.36 57.6289V58.5195H413.727V57.6289H416.36ZM416.751 55.3125V56.2305H413.727V55.3125H416.751Z" fill="#DDD9F3"/>
<path d="M399.255 48.9358L396.456 43.9453H397.621L399.867 47.8456" fill="#F3F3F3"/>
<path d="M396.663 49.7966H395.446L398.506 44.1016H399.703L396.663 49.7966Z" fill="#F3F3F3"/>
<path d="M395.727 43.8631C395.595 43.4878 395.414 43.1641 395.185 42.8919L395.192 42.8795L395.167 42.8706C395.05 42.7343 394.921 42.6103 394.778 42.5002C394.348 42.1671 393.787 42 393.098 42C392.408 42 391.849 42.1671 391.422 42.5002C390.994 42.8334 390.68 43.288 390.479 43.8631C390.278 44.4382 390.177 45.0857 390.177 45.8046C390.177 46.5235 390.278 47.171 390.479 47.7461C390.613 48.1293 390.797 48.459 391.032 48.7347L391.024 48.75L391.043 48.7481C391.157 48.8809 391.284 49.0014 391.422 49.109C391.849 49.4422 392.408 49.6092 393.097 49.6092C393.786 49.6092 394.347 49.4427 394.778 49.109C395.209 48.7753 395.525 48.3212 395.727 47.7461C395.927 47.171 396.028 46.524 396.028 45.8046C396.028 45.0852 395.927 44.4387 395.727 43.8631V43.8631ZM391.287 47.3733C391.158 46.9157 391.093 46.3926 391.093 45.8046C391.093 45.2166 391.157 44.6936 391.287 44.236C391.416 43.7784 391.628 43.4174 391.923 43.1527C392.217 42.8879 392.609 42.7556 393.097 42.7556C393.491 42.7556 393.821 42.8394 394.088 43.0069L391.487 47.8829C391.407 47.7287 391.34 47.5592 391.287 47.3733ZM394.918 47.3733C394.789 47.8309 394.577 48.1918 394.282 48.4565C393.988 48.7213 393.593 48.8537 393.097 48.8537C392.723 48.8537 392.406 48.7758 392.145 48.6202L392.176 48.6167L394.733 43.7526C394.807 43.8993 394.869 44.0605 394.918 44.2355C395.047 44.6931 395.112 45.2161 395.112 45.8041C395.112 46.3921 395.048 46.9157 394.918 47.3728V47.3733Z" fill="#F3F3F3"/>
<path d="M403.988 42.8008C405.327 45.2052 406.656 47.5901 408 50.0008C407.714 49.9007 407.456 49.8108 407.199 49.7209C406.959 49.6373 406.721 49.5505 406.48 49.4716C406.387 49.4411 406.333 49.3926 406.292 49.3137C405.542 47.8957 404.788 46.4793 404.034 45.0629C404.022 45.0403 404.01 45.0176 403.988 44.9762C403.839 45.2568 403.697 45.5218 403.556 45.7876C402.93 46.9663 402.303 48.1443 401.679 49.3239C401.639 49.4005 401.583 49.4403 401.497 49.47C401.021 49.6334 400.547 49.8015 400.072 49.9672C400.049 49.975 400.026 49.9812 399.98 49.9945C401.318 47.5909 402.648 45.2052 403.988 42.8008Z" fill="#4205F0"/>
<path d="M348.31 43.3125H350.432C350.866 43.3125 351.24 43.3776 351.553 43.5078C351.868 43.638 352.11 43.8307 352.279 44.0859C352.448 44.3411 352.533 44.6549 352.533 45.0273C352.533 45.332 352.481 45.5938 352.377 45.8125C352.275 46.0286 352.131 46.2096 351.943 46.3555C351.758 46.4987 351.541 46.6133 351.291 46.6992L350.92 46.8945H349.076L349.068 45.9805H350.439C350.645 45.9805 350.816 45.944 350.951 45.8711C351.086 45.7982 351.188 45.6966 351.256 45.5664C351.326 45.4362 351.361 45.2852 351.361 45.1133C351.361 44.931 351.327 44.7734 351.26 44.6406C351.192 44.5078 351.089 44.4062 350.951 44.3359C350.813 44.2656 350.64 44.2305 350.432 44.2305H349.482V49H348.31V43.3125ZM351.49 49L350.193 46.4648L351.432 46.457L352.744 48.9453V49H351.49ZM358.052 48.0859V49H355.025V48.0859H358.052ZM355.407 43.3125V49H354.235V43.3125H355.407ZM357.657 45.6289V46.5195H355.025V45.6289H357.657ZM358.048 43.3125V44.2305H355.025V43.3125H358.048ZM362.496 47.5117C362.496 47.4102 362.481 47.319 362.45 47.2383C362.421 47.1549 362.366 47.0794 362.285 47.0117C362.205 46.9414 362.091 46.8724 361.946 46.8047C361.8 46.737 361.611 46.6667 361.379 46.5938C361.121 46.5104 360.877 46.4167 360.645 46.3125C360.416 46.2083 360.213 46.0872 360.035 45.9492C359.861 45.8086 359.723 45.6458 359.621 45.4609C359.522 45.276 359.473 45.0612 359.473 44.8164C359.473 44.5794 359.525 44.3646 359.629 44.1719C359.733 43.9766 359.879 43.8099 360.067 43.6719C360.254 43.5312 360.476 43.4232 360.731 43.3477C360.989 43.2721 361.271 43.2344 361.578 43.2344C361.998 43.2344 362.364 43.3099 362.676 43.4609C362.989 43.612 363.231 43.819 363.403 44.082C363.577 44.3451 363.664 44.6458 363.664 44.9844H362.5C362.5 44.8177 362.465 44.6719 362.395 44.5469C362.327 44.4193 362.223 44.319 362.082 44.2461C361.944 44.1732 361.77 44.1367 361.559 44.1367C361.356 44.1367 361.186 44.168 361.051 44.2305C360.916 44.2904 360.814 44.3724 360.746 44.4766C360.679 44.5781 360.645 44.6927 360.645 44.8203C360.645 44.9167 360.668 45.0039 360.715 45.082C360.765 45.1602 360.838 45.2331 360.934 45.3008C361.03 45.3685 361.149 45.4323 361.289 45.4922C361.43 45.5521 361.593 45.6107 361.778 45.668C362.088 45.7617 362.36 45.8672 362.594 45.9844C362.831 46.1016 363.029 46.2331 363.188 46.3789C363.347 46.5247 363.466 46.6901 363.547 46.875C363.628 47.0599 363.668 47.2695 363.668 47.5039C363.668 47.7513 363.62 47.9727 363.524 48.168C363.427 48.3633 363.288 48.5286 363.106 48.6641C362.923 48.7995 362.706 48.9023 362.453 48.9727C362.201 49.043 361.918 49.0781 361.606 49.0781C361.325 49.0781 361.047 49.0417 360.774 48.9688C360.5 48.8932 360.252 48.7799 360.028 48.6289C359.806 48.4779 359.629 48.2852 359.496 48.0508C359.364 47.8164 359.297 47.5391 359.297 47.2188H360.473C360.473 47.3958 360.5 47.5456 360.555 47.668C360.61 47.7904 360.686 47.8893 360.785 47.9648C360.887 48.0404 361.007 48.0951 361.145 48.1289C361.285 48.1628 361.439 48.1797 361.606 48.1797C361.809 48.1797 361.976 48.151 362.106 48.0938C362.239 48.0365 362.336 47.957 362.399 47.8555C362.464 47.7539 362.496 47.6393 362.496 47.5117ZM369.082 48.0859V49H366.054V48.0859H369.082ZM366.437 43.3125V49H365.265V43.3125H366.437ZM368.687 45.6289V46.5195H366.054V45.6289H368.687ZM369.078 43.3125V44.2305H366.054V43.3125H369.078ZM370.565 43.3125H372.686C373.121 43.3125 373.495 43.3776 373.807 43.5078C374.122 43.638 374.365 43.8307 374.534 44.0859C374.703 44.3411 374.788 44.6549 374.788 45.0273C374.788 45.332 374.736 45.5938 374.632 45.8125C374.53 46.0286 374.385 46.2096 374.198 46.3555C374.013 46.4987 373.796 46.6133 373.546 46.6992L373.175 46.8945H371.331L371.323 45.9805H372.694C372.9 45.9805 373.07 45.944 373.206 45.8711C373.341 45.7982 373.443 45.6966 373.51 45.5664C373.581 45.4362 373.616 45.2852 373.616 45.1133C373.616 44.931 373.582 44.7734 373.514 44.6406C373.447 44.5078 373.344 44.4062 373.206 44.3359C373.068 44.2656 372.895 44.2305 372.686 44.2305H371.737V49H370.565V43.3125ZM373.745 49L372.448 46.4648L373.686 46.457L374.999 48.9453V49H373.745ZM378.463 47.8125L379.803 43.3125H381.107L379.127 49H378.267L378.463 47.8125ZM377.228 43.3125L378.564 47.8125L378.767 49H377.9L375.932 43.3125H377.228ZM386.255 48.0859V49H383.228V48.0859H386.255ZM383.61 43.3125V49H382.439V43.3125H383.61ZM385.86 45.6289V46.5195H383.228V45.6289H385.86ZM386.251 43.3125V44.2305H383.228V43.3125H386.251Z" fill="white"/>
<defs>
<filter id="filter0_f_444_341" x="153.242" y="16.9123" width="95.772" height="86.8433" filterUnits="userSpaceOnUse" color-interpolation-filters="sRGB">
<feFlood flood-opacity="0" result="BackgroundImageFix"/>
<feBlend mode="normal" in="SourceGraphic" in2="BackgroundImageFix" result="shape"/>
<feGaussianBlur stdDeviation="0.877826" result="effect1_foregroundBlur_444_341"/>
</filter>
<filter id="filter1_f_444_341" x="170.504" y="0.244348" width="61.8438" height="72.5582" filterUnits="userSpaceOnUse" color-interpolation-filters="sRGB">
<feFlood flood-opacity="0" result="BackgroundImageFix"/>
<feBlend mode="normal" in="SourceGraphic" in2="BackgroundImageFix" result="shape"/>
<feGaussianBlur stdDeviation="0.877826" result="effect1_foregroundBlur_444_341"/>
</filter>
<filter id="filter2_f_444_341" x="153.242" y="69.2893" width="95.772" height="34.4625" filterUnits="userSpaceOnUse" color-interpolation-filters="sRGB">
<feFlood flood-opacity="0" result="BackgroundImageFix"/>
<feBlend mode="normal" in="SourceGraphic" in2="BackgroundImageFix" result="shape"/>
<feGaussianBlur stdDeviation="0.877826" result="effect1_foregroundBlur_444_341"/>
</filter>
<filter id="filter3_f_444_341" x="153.242" y="0.244348" width="95.772" height="20.1773" filterUnits="userSpaceOnUse" color-interpolation-filters="sRGB">
<feFlood flood-opacity="0" result="BackgroundImageFix"/>
<feBlend mode="normal" in="SourceGraphic" in2="BackgroundImageFix" result="shape"/>
<feGaussianBlur stdDeviation="0.877826" result="effect1_foregroundBlur_444_341"/>
</filter>
<filter id="filter4_d_444_341" x="203.435" y="61.0677" width="18.1386" height="11.3725" filterUnits="userSpaceOnUse" color-interpolation-filters="sRGB">
<feFlood flood-opacity="0" result="BackgroundImageFix"/>
<feColorMatrix in="SourceAlpha" type="matrix" values="0 0 0 0 0 0 0 0 0 0 0 0 0 0 0 0 0 0 127 0" result="hardAlpha"/>
<feOffset/>
<feGaussianBlur stdDeviation="0.661486"/>
<feComposite in2="hardAlpha" operator="out"/>
<feColorMatrix type="matrix" values="0 0 0 0 1 0 0 0 0 1 0 0 0 0 1 0 0 0 1 0"/>
<feBlend mode="normal" in2="BackgroundImageFix" result="effect1_dropShadow_444_341"/>
<feBlend mode="normal" in="SourceGraphic" in2="effect1_dropShadow_444_341" result="shape"/>
</filter>
<filter id="filter5_d_444_341" x="198.143" y="58.4217" width="28.7224" height="21.9563" filterUnits="userSpaceOnUse" color-interpolation-filters="sRGB">
<feFlood flood-opacity="0" result="BackgroundImageFix"/>
<feColorMatrix in="SourceAlpha" type="matrix" values="0 0 0 0 0 0 0 0 0 0 0 0 0 0 0 0 0 0 127 0" result="hardAlpha"/>
<feOffset dy="2.64594"/>
<feGaussianBlur stdDeviation="3.30743"/>
<feComposite in2="hardAlpha" operator="out"/>
<feColorMatrix type="matrix" values="0 0 0 0 1 0 0 0 0 1 0 0 0 0 1 0 0 0 0.25 0"/>
<feBlend mode="normal" in2="BackgroundImageFix" result="effect1_dropShadow_444_341"/>
<feBlend mode="normal" in="SourceGraphic" in2="effect1_dropShadow_444_341" result="shape"/>
</filter>
<filter id="filter6_f_444_341" x="319.346" y="24.3459" width="121.308" height="54.3082" filterUnits="userSpaceOnUse" color-interpolation-filters="sRGB">
<feFlood flood-opacity="0" result="BackgroundImageFix"/>
<feBlend mode="normal" in="SourceGraphic" in2="BackgroundImageFix" result="shape"/>
<feGaussianBlur stdDeviation="1.32705" result="effect1_foregroundBlur_444_341"/>
</filter>
<filter id="filter7_f_444_341" x="559.346" y="138.346" width="121.308" height="54.3082" filterUnits="userSpaceOnUse" color-interpolation-filters="sRGB">
<feFlood flood-opacity="0" result="BackgroundImageFix"/>
<feBlend mode="normal" in="SourceGraphic" in2="BackgroundImageFix" result="shape"/>
<feGaussianBlur stdDeviation="1.32705" result="effect1_foregroundBlur_444_341"/>
</filter>
<filter id="filter8_f_444_341" x="248.346" y="48.7287" width="66.3082" height="6.30821" filterUnits="userSpaceOnUse" color-interpolation-filters="sRGB">
<feFlood flood-opacity="0" result="BackgroundImageFix"/>
<feBlend mode="normal" in="SourceGraphic" in2="BackgroundImageFix" result="shape"/>
<feGaussianBlur stdDeviation="1.32705" result="effect1_foregroundBlur_444_341"/>
</filter>
<filter id="filter9_f_444_341" x="77.3459" y="46.7287" width="66.3082" height="6.30821" filterUnits="userSpaceOnUse" color-interpolation-filters="sRGB">
<feFlood flood-opacity="0" result="BackgroundImageFix"/>
<feBlend mode="normal" in="SourceGraphic" in2="BackgroundImageFix" result="shape"/>
<feGaussianBlur stdDeviation="1.32705" result="effect1_foregroundBlur_444_341"/>
</filter>
<filter id="filter10_f_444_341" x="435.346" y="29.7287" width="126.308" height="6.30821" filterUnits="userSpaceOnUse" color-interpolation-filters="sRGB">
<feFlood flood-opacity="0" result="BackgroundImageFix"/>
<feBlend mode="normal" in="SourceGraphic" in2="BackgroundImageFix" result="shape"/>
<feGaussianBlur stdDeviation="1.32705" result="effect1_foregroundBlur_444_341"/>
</filter>
<filter id="filter11_f_444_341" x="435.346" y="48.7287" width="126.308" height="6.30821" filterUnits="userSpaceOnUse" color-interpolation-filters="sRGB">
<feFlood flood-opacity="0" result="BackgroundImageFix"/>
<feBlend mode="normal" in="SourceGraphic" in2="BackgroundImageFix" result="shape"/>
<feGaussianBlur stdDeviation="1.32705" result="effect1_foregroundBlur_444_341"/>
</filter>
<filter id="filter12_f_444_341" x="435.346" y="67.7287" width="126.308" height="6.30821" filterUnits="userSpaceOnUse" color-interpolation-filters="sRGB">
<feFlood flood-opacity="0" result="BackgroundImageFix"/>
<feBlend mode="normal" in="SourceGraphic" in2="BackgroundImageFix" result="shape"/>
<feGaussianBlur stdDeviation="1.32705" result="effect1_foregroundBlur_444_341"/>
</filter>
<filter id="filter13_f_444_341" x="377.346" y="159.346" width="175.308" height="6.30821" filterUnits="userSpaceOnUse" color-interpolation-filters="sRGB">
<feFlood flood-opacity="0" result="BackgroundImageFix"/>
<feBlend mode="normal" in="SourceGraphic" in2="BackgroundImageFix" result="shape"/>
<feGaussianBlur stdDeviation="1.32705" result="effect1_foregroundBlur_444_341"/>
</filter>
<filter id="filter14_f_444_341" x="377.346" y="74.3459" width="6.30821" height="90.3082" filterUnits="userSpaceOnUse" color-interpolation-filters="sRGB">
<feFlood flood-opacity="0" result="BackgroundImageFix"/>
<feBlend mode="normal" in="SourceGraphic" in2="BackgroundImageFix" result="shape"/>
<feGaussianBlur stdDeviation="1.32705" result="effect1_foregroundBlur_444_341"/>
</filter>
<filter id="filter15_f_444_341" x="565.244" y="15.2443" width="120.511" height="26.5113" filterUnits="userSpaceOnUse" color-interpolation-filters="sRGB">
<feFlood flood-opacity="0" result="BackgroundImageFix"/>
<feBlend mode="normal" in="SourceGraphic" in2="BackgroundImageFix" result="shape"/>
<feGaussianBlur stdDeviation="0.877826" result="effect1_foregroundBlur_444_341"/>
</filter>
<filter id="filter16_f_444_341" x="565.244" y="38.2443" width="120.511" height="26.5113" filterUnits="userSpaceOnUse" color-interpolation-filters="sRGB">
<feFlood flood-opacity="0" result="BackgroundImageFix"/>
<feBlend mode="normal" in="SourceGraphic" in2="BackgroundImageFix" result="shape"/>
<feGaussianBlur stdDeviation="0.877826" result="effect1_foregroundBlur_444_341"/>
</filter>
<filter id="filter17_f_444_341" x="565.244" y="62.2443" width="120.511" height="26.5113" filterUnits="userSpaceOnUse" color-interpolation-filters="sRGB">
<feFlood flood-opacity="0" result="BackgroundImageFix"/>
<feBlend mode="normal" in="SourceGraphic" in2="BackgroundImageFix" result="shape"/>
<feGaussianBlur stdDeviation="0.877826" result="effect1_foregroundBlur_444_341"/>
</filter>
<filter id="filter18_f_444_341" x="0.244348" y="19.2443" width="63.5113" height="63.5113" filterUnits="userSpaceOnUse" color-interpolation-filters="sRGB">
<feFlood flood-opacity="0" result="BackgroundImageFix"/>
<feBlend mode="normal" in="SourceGraphic" in2="BackgroundImageFix" result="shape"/>
<feGaussianBlur stdDeviation="0.877826" result="effect1_foregroundBlur_444_341"/>
</filter>
<linearGradient id="paint0_linear_444_341" x1="6" y1="-45.7111" x2="4.28681" y2="34.0276" gradientUnits="userSpaceOnUse">
<stop stop-color="#4205F0"/>
<stop offset="1" stop-color="#4205F0" stop-opacity="0"/>
</linearGradient>
<radialGradient id="paint1_radial_444_341" cx="0" cy="0" r="1" gradientUnits="userSpaceOnUse" gradientTransform="translate(200.66 59.8415) rotate(86.2627) scale(77.7979 86.1748)">
<stop offset="0.046875" stop-color="#4205F0"/>
<stop offset="1" stop-color="#4205F0" stop-opacity="0"/>
</radialGradient>
<radialGradient id="paint2_radial_444_341" cx="0" cy="0" r="1" gradientUnits="userSpaceOnUse" gradientTransform="translate(201.13 36.1152) rotate(87.1465) scale(64.4039 54.5331)">
<stop offset="0.046875" stop-color="#4205F0"/>
<stop offset="1" stop-color="#4205F0" stop-opacity="0"/>
</radialGradient>
<radialGradient id="paint3_radial_444_341" cx="0" cy="0" r="1" gradientUnits="userSpaceOnUse" gradientTransform="translate(200.66 86.338) rotate(80.0257) scale(29.2774 85.0532)">
<stop offset="0.046875" stop-color="#4205F0"/>
<stop offset="1" stop-color="#4205F0" stop-opacity="0"/>
</radialGradient>
<radialGradient id="paint4_radial_444_341" cx="0" cy="0" r="1" gradientUnits="userSpaceOnUse" gradientTransform="translate(200.66 -23.4924) rotate(86.2627) scale(77.798 86.1748)">
<stop offset="0.046875" stop-color="#4205F0"/>
<stop offset="1" stop-color="#4205F0" stop-opacity="0"/>
</radialGradient>
<radialGradient id="paint5_radial_444_341" cx="0" cy="0" r="1" gradientUnits="userSpaceOnUse" gradientTransform="translate(379.411 51.2103) rotate(82.0488) scale(46.0915 107.535)">
<stop offset="0.046875" stop-color="#120B24"/>
<stop offset="1" stop-color="#100A23" stop-opacity="0"/>
</radialGradient>
<radialGradient id="paint6_radial_444_341" cx="0" cy="0" r="1" gradientUnits="userSpaceOnUse" gradientTransform="translate(619.411 165.21) rotate(82.0488) scale(46.0915 107.535)">
<stop offset="0.046875" stop-color="#120B24"/>
<stop offset="1" stop-color="#100A23" stop-opacity="0"/>
</radialGradient>
<linearGradient id="paint7_linear_444_341" x1="305.548" y1="51.8828" x2="298.753" y2="23.9364" gradientUnits="userSpaceOnUse">
<stop offset="0.046875" stop-color="#4205F0"/>
<stop offset="0.615513" stop-color="#4205F0" stop-opacity="0"/>
</linearGradient>
<linearGradient id="paint8_linear_444_341" x1="134.548" y1="49.8828" x2="127.753" y2="21.9364" gradientUnits="userSpaceOnUse">
<stop offset="0.046875" stop-color="#4205F0"/>
<stop offset="0.615513" stop-color="#4205F0" stop-opacity="0"/>
</linearGradient>
<linearGradient id="paint9_linear_444_341" x1="546.202" y1="32.8828" x2="542.627" y2="3.72236" gradientUnits="userSpaceOnUse">
<stop offset="0.046875" stop-color="#4205F0"/>
<stop offset="0.615513" stop-color="#4205F0" stop-opacity="0"/>
</linearGradient>
<linearGradient id="paint10_linear_444_341" x1="546.202" y1="51.8828" x2="542.627" y2="22.7224" gradientUnits="userSpaceOnUse">
<stop offset="0.046875" stop-color="#4205F0"/>
<stop offset="0.615513" stop-color="#4205F0" stop-opacity="0"/>
</linearGradient>
<linearGradient id="paint11_linear_444_341" x1="546.202" y1="70.8828" x2="542.627" y2="41.7224" gradientUnits="userSpaceOnUse">
<stop offset="0.046875" stop-color="#4205F0"/>
<stop offset="0.615513" stop-color="#4205F0" stop-opacity="0"/>
</linearGradient>
<linearGradient id="paint12_linear_444_341" x1="532.019" y1="162.5" x2="529.456" y2="133.125" gradientUnits="userSpaceOnUse">
<stop offset="0.046875" stop-color="#4205F0"/>
<stop offset="0.615513" stop-color="#4205F0" stop-opacity="0"/>
</linearGradient>
<linearGradient id="paint13_linear_444_341" x1="456.01" y1="162.5" x2="450.997" y2="133.776" gradientUnits="userSpaceOnUse">
<stop offset="0.046875" stop-color="#4205F0"/>
<stop offset="0.615513" stop-color="#4205F0" stop-opacity="0"/>
</linearGradient>
<radialGradient id="paint14_radial_444_341" cx="0" cy="0" r="1" gradientUnits="userSpaceOnUse" gradientTransform="translate(624.906 28.364) rotate(73.294) scale(22.371 104.892)">
<stop offset="0.046875" stop-color="#4205F0"/>
<stop offset="1" stop-color="#4205F0" stop-opacity="0"/>
</radialGradient>
<radialGradient id="paint15_radial_444_341" cx="0" cy="0" r="1" gradientUnits="userSpaceOnUse" gradientTransform="translate(624.906 51.364) rotate(73.294) scale(22.371 104.892)">
<stop offset="0.046875" stop-color="#4205F0"/>
<stop offset="1" stop-color="#4205F0" stop-opacity="0"/>
</radialGradient>
<radialGradient id="paint16_radial_444_341" cx="0" cy="0" r="1" gradientUnits="userSpaceOnUse" gradientTransform="translate(624.906 75.364) rotate(73.294) scale(22.371 104.892)">
<stop offset="0.046875" stop-color="#4205F0"/>
<stop offset="1" stop-color="#4205F0" stop-opacity="0"/>
</radialGradient>
<radialGradient id="paint17_radial_444_341" cx="0" cy="0" r="1" gradientUnits="userSpaceOnUse" gradientTransform="translate(31.6952 50.6453) rotate(86.6235) scale(55.9932 56.0639)">
<stop offset="0.046875" stop-color="#4205F0"/>
<stop offset="1" stop-color="#4205F0" stop-opacity="0"/>
</radialGradient>
</defs>
</svg>
