<svg width="787" height="156" viewBox="0 0 787 156" fill="none" xmlns="http://www.w3.org/2000/svg">
<g filter="url(#filter0_f_415_3614)">
<rect x="270" y="20.668" width="92.2619" height="83.3334" fill="url(#paint0_radial_415_3614)"/>
<rect x="270.664" y="21.3315" width="90.9349" height="82.0063" stroke="#4205F0" stroke-width="1.32705"/>
</g>
<g opacity="0.5" filter="url(#filter1_f_415_3614)">
<rect x="287.262" y="4" width="58.3334" height="69.0476" fill="url(#paint1_radial_415_3614)"/>
<rect x="287.925" y="4.66353" width="57.0063" height="67.7206" stroke="#4205F0" stroke-width="1.32705"/>
</g>
<g filter="url(#filter2_f_415_3614)">
<path d="M286.964 73.0469H346.191L362.262 103.999H270L286.964 73.0469Z" fill="url(#paint2_radial_415_3614)" fill-opacity="0.3"/>
<path d="M271.12 103.336L287.357 73.7104H345.787L361.17 103.336H271.12Z" stroke="#4205F0" stroke-width="1.32705"/>
</g>
<g filter="url(#filter3_f_415_3614)">
<path d="M287.857 4H345L362.262 20.6667H270L287.857 4Z" fill="url(#paint3_radial_415_3614)"/>
<path d="M271.683 20.0031L288.119 4.66353H344.732L360.619 20.0031H271.683Z" stroke="#4205F0" stroke-width="1.32705"/>
</g>
<path d="M309.413 37.9729V39.336H304.986V37.9729H309.413ZM305.505 34.5187V43H303.757V34.5187H305.505ZM310.66 34.5187V43H308.918V34.5187H310.66ZM318.057 34.5187H319.798V40.1224C319.798 40.7748 319.659 41.3243 319.379 41.7709C319.103 42.2175 318.721 42.5534 318.231 42.7786C317.746 43.0039 317.187 43.1165 316.554 43.1165C315.921 43.1165 315.358 43.0039 314.865 42.7786C314.375 42.5534 313.991 42.2175 313.711 41.7709C313.435 41.3243 313.298 40.7748 313.298 40.1224V34.5187H315.045V40.1224C315.045 40.503 315.105 40.8136 315.226 41.0544C315.346 41.2952 315.519 41.4719 315.744 41.5845C315.973 41.6971 316.243 41.7534 316.554 41.7534C316.872 41.7534 317.142 41.6971 317.364 41.5845C317.589 41.4719 317.76 41.2952 317.876 41.0544C317.996 40.8136 318.057 40.503 318.057 40.1224V34.5187ZM325.75 39.2778H323.572L323.56 38.0778H325.389C325.712 38.0778 325.976 38.037 326.182 37.9555C326.387 37.87 326.541 37.7477 326.642 37.5885C326.747 37.4254 326.799 37.2273 326.799 36.9943C326.799 36.7303 326.748 36.5167 326.648 36.3536C326.55 36.1905 326.397 36.072 326.187 35.9982C325.982 35.9245 325.716 35.8876 325.389 35.8876H324.178V43H322.43V34.5187H325.389C325.883 34.5187 326.323 34.5653 326.712 34.6585C327.104 34.7517 327.436 34.8934 327.708 35.0837C327.98 35.274 328.187 35.5148 328.331 35.806C328.475 36.0934 328.547 36.4351 328.547 36.8312C328.547 37.1807 328.467 37.5031 328.308 37.7982C328.152 38.0933 327.906 38.3341 327.568 38.5205C327.234 38.7069 326.797 38.8098 326.257 38.8292L325.75 39.2778ZM325.675 43H323.094L323.776 41.6369H325.675C325.982 41.6369 326.232 41.5884 326.426 41.4913C326.62 41.3903 326.764 41.2544 326.857 41.0835C326.95 40.9127 326.997 40.7166 326.997 40.4952C326.997 40.2467 326.954 40.0311 326.869 39.8486C326.787 39.6661 326.655 39.5263 326.473 39.4292C326.29 39.3283 326.049 39.2778 325.75 39.2778H324.067L324.079 38.0778H326.176L326.578 38.5496C327.094 38.5419 327.51 38.6331 327.824 38.8234C328.143 39.0098 328.374 39.2525 328.517 39.5515C328.665 39.8506 328.739 40.1709 328.739 40.5127C328.739 41.0564 328.62 41.5146 328.383 41.8874C328.147 42.2563 327.799 42.534 327.341 42.7204C326.886 42.9068 326.331 43 325.675 43Z" fill="#F3F3F3"/>
<g filter="url(#filter4_f_415_3614)">
<path d="M305.387 75.1971H302.092L302.074 73.3817H304.841C305.329 73.3817 305.728 73.32 306.039 73.1967C306.351 73.0674 306.583 72.8824 306.736 72.6415C306.894 72.3947 306.974 72.0951 306.974 71.7426C306.974 71.3431 306.897 71.02 306.744 70.7733C306.598 70.5265 306.366 70.3473 306.048 70.2357C305.737 70.1241 305.334 70.0683 304.841 70.0683H303.008V80.8281H300.364V67.9974H304.841C305.587 67.9974 306.254 68.0679 306.841 68.2089C307.435 68.3499 307.937 68.5643 308.348 68.8522C308.76 69.1401 309.074 69.5043 309.291 69.9449C309.509 70.3797 309.617 70.8966 309.617 71.4959C309.617 72.0246 309.497 72.5122 309.256 72.9587C309.021 73.4052 308.648 73.7695 308.137 74.0515C307.632 74.3334 306.971 74.4891 306.154 74.5185L305.387 75.1971ZM305.273 80.8281H301.369L302.4 78.766H305.273C305.737 78.766 306.116 78.6926 306.41 78.5457C306.703 78.393 306.921 78.1874 307.062 77.9289C307.203 77.6704 307.273 77.3737 307.273 77.0388C307.273 76.6628 307.209 76.3368 307.079 76.0607C306.956 75.7845 306.756 75.573 306.48 75.4262C306.204 75.2734 305.84 75.1971 305.387 75.1971H302.841L302.858 73.3817H306.031L306.639 74.0955C307.42 74.0838 308.049 74.2218 308.525 74.5097C309.006 74.7917 309.356 75.1589 309.573 75.6112C309.796 76.0636 309.908 76.5483 309.908 77.0653C309.908 77.8877 309.729 78.581 309.371 79.145C309.012 79.7031 308.486 80.1231 307.793 80.4051C307.106 80.6871 306.266 80.8281 305.273 80.8281ZM321.133 76.5718H323.768C323.715 77.4354 323.477 78.2021 323.054 78.8718C322.637 79.5415 322.053 80.0644 321.301 80.4404C320.555 80.8164 319.656 81.0044 318.604 81.0044C317.782 81.0044 317.044 80.8634 316.392 80.5814C315.74 80.2935 315.182 79.8823 314.718 79.3477C314.26 78.813 313.91 78.1668 313.669 77.4089C313.428 76.6511 313.308 75.8022 313.308 74.8622V73.9721C313.308 73.0322 313.431 72.1832 313.678 71.4254C313.931 70.6617 314.289 70.0125 314.753 69.4779C315.223 68.9433 315.784 68.532 316.436 68.2441C317.088 67.9563 317.817 67.8123 318.622 67.8123C319.691 67.8123 320.593 68.0062 321.327 68.394C322.067 68.7817 322.64 69.3163 323.045 69.9978C323.457 70.6793 323.703 71.4548 323.786 72.3242H321.142C321.113 71.8073 321.01 71.3696 320.834 71.0112C320.657 70.647 320.39 70.3738 320.032 70.1917C319.679 70.0037 319.209 69.9097 318.622 69.9097C318.181 69.9097 317.796 69.9919 317.467 70.1564C317.138 70.3209 316.862 70.5706 316.639 70.9055C316.416 71.2403 316.248 71.6633 316.137 72.1744C316.031 72.6797 315.978 73.273 315.978 73.9545V74.8622C315.978 75.526 316.028 76.1106 316.128 76.6158C316.228 77.1152 316.38 77.5382 316.586 77.8848C316.798 78.2256 317.068 78.484 317.397 78.6603C317.732 78.8307 318.134 78.9159 318.604 78.9159C319.156 78.9159 319.612 78.8277 319.97 78.6515C320.328 78.4752 320.602 78.2138 320.79 77.8672C320.983 77.5206 321.098 77.0888 321.133 76.5718ZM332.526 70.1917L329.036 80.8281H326.225L330.992 67.9974H332.781L332.526 70.1917ZM335.425 80.8281L331.927 70.1917L331.645 67.9974H333.451L338.245 80.8281H335.425ZM335.266 76.0519V78.1227H328.49V76.0519H335.266Z" fill="white" fill-opacity="0.5"/>
</g>
<path d="M304.169 74.3689H300.873L300.855 72.5536H303.622C304.11 72.5536 304.509 72.4919 304.821 72.3685C305.132 72.2393 305.364 72.0542 305.517 71.8134C305.676 71.5666 305.755 71.267 305.755 70.9145C305.755 70.515 305.678 70.1919 305.526 69.9451C305.379 69.6984 305.147 69.5192 304.83 69.4076C304.518 69.296 304.116 69.2402 303.622 69.2402H301.789V80H299.146V67.1693H303.622C304.368 67.1693 305.035 67.2398 305.623 67.3808C306.216 67.5218 306.718 67.7362 307.13 68.0241C307.541 68.3119 307.855 68.6762 308.072 69.1168C308.29 69.5515 308.399 70.0685 308.399 70.6678C308.399 71.1965 308.278 71.6841 308.037 72.1306C307.802 72.5771 307.429 72.9413 306.918 73.2233C306.413 73.5053 305.752 73.661 304.935 73.6904L304.169 74.3689ZM304.054 80H300.15L301.181 77.9379H304.054C304.518 77.9379 304.897 77.8645 305.191 77.7176C305.485 77.5649 305.702 77.3592 305.843 77.1007C305.984 76.8423 306.054 76.5456 306.054 76.2107C306.054 75.8347 305.99 75.5087 305.861 75.2325C305.737 74.9564 305.537 74.7449 305.261 74.5981C304.985 74.4453 304.621 74.3689 304.169 74.3689H301.622L301.639 72.5536H304.812L305.42 73.2674C306.201 73.2556 306.83 73.3937 307.306 73.6816C307.788 73.9636 308.137 74.3307 308.354 74.7831C308.578 75.2355 308.689 75.7202 308.689 76.2371C308.689 77.0596 308.51 77.7529 308.152 78.3168C307.793 78.875 307.268 79.295 306.574 79.577C305.887 79.859 305.047 80 304.054 80ZM319.914 75.7437H322.549C322.496 76.6073 322.259 77.3739 321.836 78.0437C321.418 78.7134 320.834 79.2363 320.082 79.6123C319.336 79.9883 318.437 80.1762 317.385 80.1762C316.563 80.1762 315.826 80.0352 315.173 79.7533C314.521 79.4654 313.963 79.0541 313.499 78.5195C313.041 77.9849 312.691 77.3387 312.45 76.5808C312.21 75.823 312.089 74.974 312.089 74.0341V73.144C312.089 72.204 312.212 71.3551 312.459 70.5973C312.712 69.8335 313.07 69.1844 313.534 68.6497C314.004 68.1151 314.565 67.7039 315.217 67.416C315.87 67.1281 316.598 66.9842 317.403 66.9842C318.472 66.9842 319.374 67.1781 320.108 67.5658C320.849 67.9536 321.421 68.4882 321.827 69.1697C322.238 69.8512 322.485 70.6266 322.567 71.4961H319.923C319.894 70.9791 319.791 70.5414 319.615 70.1831C319.439 69.8188 319.171 69.5457 318.813 69.3635C318.46 69.1755 317.99 69.0815 317.403 69.0815C316.962 69.0815 316.578 69.1638 316.249 69.3283C315.92 69.4928 315.643 69.7425 315.42 70.0773C315.197 70.4122 315.03 70.8352 314.918 71.3463C314.812 71.8515 314.759 72.4449 314.759 73.1264V74.0341C314.759 74.6979 314.809 75.2825 314.909 75.7877C315.009 76.2871 315.162 76.7101 315.367 77.0567C315.579 77.3974 315.849 77.6559 316.178 77.8322C316.513 78.0025 316.915 78.0877 317.385 78.0877C317.938 78.0877 318.393 77.9996 318.751 77.8234C319.11 77.6471 319.383 77.3857 319.571 77.0391C319.765 76.6924 319.879 76.2606 319.914 75.7437ZM331.307 69.3635L327.817 80H325.006L329.774 67.1693H331.563L331.307 69.3635ZM334.206 80L330.708 69.3635L330.426 67.1693H332.232L337.026 80H334.206ZM334.048 75.2237V77.2946H327.271V75.2237H334.048Z" fill="white"/>
<rect x="290.451" y="60.4512" width="53.0976" height="27.0976" rx="1.35357" stroke="#F4F4F4" stroke-width="0.902381"/>
<g filter="url(#filter5_f_415_3614)">
<rect x="430" y="19.668" width="92.2619" height="83.3334" fill="url(#paint4_radial_415_3614)"/>
<rect x="430.664" y="20.3315" width="90.9349" height="82.0063" stroke="#4205F0" stroke-width="1.32705"/>
</g>
<g opacity="0.5" filter="url(#filter6_f_415_3614)">
<rect x="447.262" y="3" width="58.3334" height="69.0476" fill="url(#paint5_radial_415_3614)"/>
<rect x="447.925" y="3.66353" width="57.0063" height="67.7206" stroke="#4205F0" stroke-width="1.32705"/>
</g>
<g filter="url(#filter7_f_415_3614)">
<path d="M446.964 72.0469H506.191L522.262 102.999H430L446.964 72.0469Z" fill="url(#paint6_radial_415_3614)" fill-opacity="0.3"/>
<path d="M431.12 102.336L447.357 72.7104H505.787L521.17 102.336H431.12Z" stroke="#4205F0" stroke-width="1.32705"/>
</g>
<g filter="url(#filter8_f_415_3614)">
<path d="M447.857 3H505L522.262 19.6667H430L447.857 3Z" fill="url(#paint7_radial_415_3614)"/>
<path d="M431.683 19.0031L448.119 3.66353H504.732L520.619 19.0031H431.683Z" stroke="#4205F0" stroke-width="1.32705"/>
</g>
<path d="M469.413 36.9729V38.336H464.986V36.9729H469.413ZM465.505 33.5187V42H463.757V33.5187H465.505ZM470.66 33.5187V42H468.918V33.5187H470.66ZM478.057 33.5187H479.798V39.1224C479.798 39.7748 479.659 40.3243 479.379 40.7709C479.103 41.2175 478.721 41.5534 478.231 41.7786C477.746 42.0039 477.187 42.1165 476.554 42.1165C475.921 42.1165 475.358 42.0039 474.865 41.7786C474.375 41.5534 473.991 41.2175 473.711 40.7709C473.435 40.3243 473.298 39.7748 473.298 39.1224V33.5187H475.045V39.1224C475.045 39.503 475.105 39.8136 475.226 40.0544C475.346 40.2952 475.519 40.4719 475.744 40.5845C475.973 40.6971 476.243 40.7534 476.554 40.7534C476.872 40.7534 477.142 40.6971 477.364 40.5845C477.589 40.4719 477.76 40.2952 477.876 40.0544C477.996 39.8136 478.057 39.503 478.057 39.1224V33.5187ZM485.75 38.2778H483.572L483.56 37.0778H485.389C485.712 37.0778 485.976 37.037 486.182 36.9555C486.387 36.87 486.541 36.7477 486.642 36.5885C486.747 36.4254 486.799 36.2273 486.799 35.9943C486.799 35.7303 486.748 35.5167 486.648 35.3536C486.55 35.1905 486.397 35.072 486.187 34.9982C485.982 34.9245 485.716 34.8876 485.389 34.8876H484.178V42H482.43V33.5187H485.389C485.883 33.5187 486.323 33.5653 486.712 33.6585C487.104 33.7517 487.436 33.8934 487.708 34.0837C487.98 34.274 488.187 34.5148 488.331 34.806C488.475 35.0934 488.547 35.4351 488.547 35.8312C488.547 36.1807 488.467 36.5031 488.308 36.7982C488.152 37.0933 487.906 37.3341 487.568 37.5205C487.234 37.7069 486.797 37.8098 486.257 37.8292L485.75 38.2778ZM485.675 42H483.094L483.776 40.6369H485.675C485.982 40.6369 486.232 40.5884 486.426 40.4913C486.62 40.3903 486.764 40.2544 486.857 40.0835C486.95 39.9127 486.997 39.7166 486.997 39.4952C486.997 39.2467 486.954 39.0311 486.869 38.8486C486.787 38.6661 486.655 38.5263 486.473 38.4292C486.29 38.3283 486.049 38.2778 485.75 38.2778H484.067L484.079 37.0778H486.176L486.578 37.5496C487.094 37.5419 487.51 37.6331 487.824 37.8234C488.143 38.0098 488.374 38.2525 488.517 38.5515C488.665 38.8506 488.739 39.1709 488.739 39.5127C488.739 40.0564 488.62 40.5146 488.383 40.8874C488.147 41.2563 487.799 41.534 487.341 41.7204C486.886 41.9068 486.331 42 485.675 42Z" fill="#F3F3F3"/>
<g filter="url(#filter9_f_415_3614)">
<path d="M464.387 74.1971H461.092L461.074 72.3817H463.841C464.329 72.3817 464.728 72.32 465.039 72.1967C465.351 72.0674 465.583 71.8824 465.736 71.6415C465.894 71.3947 465.974 71.0951 465.974 70.7426C465.974 70.3431 465.897 70.02 465.744 69.7733C465.598 69.5265 465.366 69.3473 465.048 69.2357C464.737 69.1241 464.334 69.0683 463.841 69.0683H462.008V79.8281H459.364V66.9974H463.841C464.587 66.9974 465.254 67.0679 465.841 67.2089C466.435 67.3499 466.937 67.5643 467.348 67.8522C467.76 68.1401 468.074 68.5043 468.291 68.9449C468.509 69.3797 468.617 69.8966 468.617 70.4959C468.617 71.0246 468.497 71.5122 468.256 71.9587C468.021 72.4052 467.648 72.7695 467.137 73.0515C466.632 73.3334 465.971 73.4891 465.154 73.5185L464.387 74.1971ZM464.273 79.8281H460.369L461.4 77.766H464.273C464.737 77.766 465.116 77.6926 465.41 77.5457C465.703 77.393 465.921 77.1874 466.062 76.9289C466.203 76.6704 466.273 76.3737 466.273 76.0388C466.273 75.6628 466.209 75.3368 466.079 75.0607C465.956 74.7845 465.756 74.573 465.48 74.4262C465.204 74.2734 464.84 74.1971 464.387 74.1971H461.841L461.858 72.3817H465.031L465.639 73.0955C466.42 73.0838 467.049 73.2218 467.525 73.5097C468.006 73.7917 468.356 74.1589 468.573 74.6112C468.796 75.0636 468.908 75.5483 468.908 76.0653C468.908 76.8877 468.729 77.581 468.371 78.145C468.012 78.7031 467.486 79.1231 466.793 79.4051C466.106 79.6871 465.266 79.8281 464.273 79.8281ZM480.133 75.5718H482.768C482.715 76.4354 482.477 77.2021 482.054 77.8718C481.637 78.5415 481.053 79.0644 480.301 79.4404C479.555 79.8164 478.656 80.0044 477.604 80.0044C476.782 80.0044 476.044 79.8634 475.392 79.5814C474.74 79.2935 474.182 78.8823 473.718 78.3477C473.26 77.813 472.91 77.1668 472.669 76.4089C472.428 75.6511 472.308 74.8022 472.308 73.8622V72.9721C472.308 72.0322 472.431 71.1832 472.678 70.4254C472.931 69.6617 473.289 69.0125 473.753 68.4779C474.223 67.9433 474.784 67.532 475.436 67.2441C476.088 66.9563 476.817 66.8123 477.622 66.8123C478.691 66.8123 479.593 67.0062 480.327 67.394C481.067 67.7817 481.64 68.3163 482.045 68.9978C482.457 69.6793 482.703 70.4548 482.786 71.3242H480.142C480.113 70.8073 480.01 70.3696 479.834 70.0112C479.657 69.647 479.39 69.3738 479.032 69.1917C478.679 69.0037 478.209 68.9097 477.622 68.9097C477.181 68.9097 476.796 68.9919 476.467 69.1564C476.138 69.3209 475.862 69.5706 475.639 69.9055C475.416 70.2403 475.248 70.6633 475.137 71.1744C475.031 71.6797 474.978 72.273 474.978 72.9545V73.8622C474.978 74.526 475.028 75.1106 475.128 75.6158C475.228 76.1152 475.38 76.5382 475.586 76.8848C475.798 77.2256 476.068 77.484 476.397 77.6603C476.732 77.8307 477.134 77.9159 477.604 77.9159C478.156 77.9159 478.612 77.8277 478.97 77.6515C479.328 77.4752 479.602 77.2138 479.79 76.8672C479.983 76.5206 480.098 76.0888 480.133 75.5718ZM491.332 74.1971H488.036L488.018 72.3817H490.786C491.273 72.3817 491.673 72.32 491.984 72.1967C492.295 72.0674 492.527 71.8824 492.68 71.6415C492.839 71.3947 492.918 71.0951 492.918 70.7426C492.918 70.3431 492.842 70.02 492.689 69.7733C492.542 69.5265 492.31 69.3473 491.993 69.2357C491.681 69.1241 491.279 69.0683 490.786 69.0683H488.953V79.8281H486.309V66.9974H490.786C491.532 66.9974 492.198 67.0679 492.786 67.2089C493.379 67.3499 493.882 67.5643 494.293 67.8522C494.704 68.1401 495.018 68.5043 495.236 68.9449C495.453 69.3797 495.562 69.8966 495.562 70.4959C495.562 71.0246 495.441 71.5122 495.201 71.9587C494.966 72.4052 494.592 72.7695 494.081 73.0515C493.576 73.3334 492.915 73.4891 492.099 73.5185L491.332 74.1971ZM491.217 79.8281H487.313L488.345 77.766H491.217C491.681 77.766 492.06 77.6926 492.354 77.5457C492.648 77.393 492.865 77.1874 493.006 76.9289C493.147 76.6704 493.218 76.3737 493.218 76.0388C493.218 75.6628 493.153 75.3368 493.024 75.0607C492.9 74.7845 492.701 74.573 492.425 74.4262C492.149 74.2734 491.784 74.1971 491.332 74.1971H488.785L488.803 72.3817H491.975L492.583 73.0955C493.365 73.0838 493.993 73.2218 494.469 73.5097C494.951 73.7917 495.3 74.1589 495.518 74.6112C495.741 75.0636 495.853 75.5483 495.853 76.0653C495.853 76.8877 495.673 77.581 495.315 78.145C494.957 78.7031 494.431 79.1231 493.738 79.4051C493.05 79.6871 492.21 79.8281 491.217 79.8281Z" fill="white" fill-opacity="0.5"/>
</g>
<path d="M463.169 73.3689H459.873L459.855 71.5536H462.622C463.11 71.5536 463.509 71.4919 463.821 71.3685C464.132 71.2393 464.364 71.0542 464.517 70.8134C464.676 70.5666 464.755 70.267 464.755 69.9145C464.755 69.515 464.678 69.1919 464.526 68.9451C464.379 68.6984 464.147 68.5192 463.83 68.4076C463.518 68.296 463.116 68.2402 462.622 68.2402H460.789V79H458.146V66.1693H462.622C463.368 66.1693 464.035 66.2398 464.623 66.3808C465.216 66.5218 465.718 66.7362 466.13 67.0241C466.541 67.3119 466.855 67.6762 467.072 68.1168C467.29 68.5515 467.399 69.0685 467.399 69.6678C467.399 70.1965 467.278 70.6841 467.037 71.1306C466.802 71.5771 466.429 71.9413 465.918 72.2233C465.413 72.5053 464.752 72.661 463.935 72.6904L463.169 73.3689ZM463.054 79H459.15L460.181 76.9379H463.054C463.518 76.9379 463.897 76.8645 464.191 76.7176C464.485 76.5649 464.702 76.3592 464.843 76.1007C464.984 75.8423 465.054 75.5456 465.054 75.2107C465.054 74.8347 464.99 74.5087 464.861 74.2325C464.737 73.9564 464.537 73.7449 464.261 73.5981C463.985 73.4453 463.621 73.3689 463.169 73.3689H460.622L460.639 71.5536H463.812L464.42 72.2674C465.201 72.2556 465.83 72.3937 466.306 72.6816C466.788 72.9636 467.137 73.3307 467.354 73.7831C467.578 74.2355 467.689 74.7202 467.689 75.2371C467.689 76.0596 467.51 76.7529 467.152 77.3168C466.793 77.875 466.268 78.295 465.574 78.577C464.887 78.859 464.047 79 463.054 79ZM478.914 74.7437H481.549C481.496 75.6073 481.259 76.3739 480.836 77.0437C480.418 77.7134 479.834 78.2363 479.082 78.6123C478.336 78.9883 477.437 79.1762 476.385 79.1762C475.563 79.1762 474.826 79.0352 474.173 78.7533C473.521 78.4654 472.963 78.0541 472.499 77.5195C472.041 76.9849 471.691 76.3387 471.45 75.5808C471.21 74.823 471.089 73.974 471.089 73.0341V72.144C471.089 71.204 471.212 70.3551 471.459 69.5973C471.712 68.8335 472.07 68.1844 472.534 67.6497C473.004 67.1151 473.565 66.7039 474.217 66.416C474.87 66.1281 475.598 65.9842 476.403 65.9842C477.472 65.9842 478.374 66.1781 479.108 66.5658C479.849 66.9536 480.421 67.4882 480.827 68.1697C481.238 68.8512 481.485 69.6266 481.567 70.4961H478.923C478.894 69.9791 478.791 69.5414 478.615 69.1831C478.439 68.8188 478.171 68.5457 477.813 68.3635C477.46 68.1755 476.99 68.0815 476.403 68.0815C475.962 68.0815 475.578 68.1638 475.249 68.3283C474.92 68.4928 474.643 68.7425 474.42 69.0773C474.197 69.4122 474.03 69.8352 473.918 70.3463C473.812 70.8515 473.759 71.4449 473.759 72.1264V73.0341C473.759 73.6979 473.809 74.2825 473.909 74.7877C474.009 75.2871 474.162 75.7101 474.367 76.0567C474.579 76.3974 474.849 76.6559 475.178 76.8322C475.513 77.0025 475.915 77.0877 476.385 77.0877C476.938 77.0877 477.393 76.9996 477.751 76.8234C478.11 76.6471 478.383 76.3857 478.571 76.0391C478.765 75.6924 478.879 75.2606 478.914 74.7437ZM490.113 73.3689H486.817L486.8 71.5536H489.567C490.054 71.5536 490.454 71.4919 490.765 71.3685C491.077 71.2393 491.309 71.0542 491.461 70.8134C491.62 70.5666 491.699 70.267 491.699 69.9145C491.699 69.515 491.623 69.1919 491.47 68.9451C491.323 68.6984 491.091 68.5192 490.774 68.4076C490.463 68.296 490.06 68.2402 489.567 68.2402H487.734V79H485.09V66.1693H489.567C490.313 66.1693 490.98 66.2398 491.567 66.3808C492.161 66.5218 492.663 66.7362 493.074 67.0241C493.485 67.3119 493.8 67.6762 494.017 68.1168C494.234 68.5515 494.343 69.0685 494.343 69.6678C494.343 70.1965 494.223 70.6841 493.982 71.1306C493.747 71.5771 493.374 71.9413 492.863 72.2233C492.357 72.5053 491.696 72.661 490.88 72.6904L490.113 73.3689ZM489.999 79H486.095L487.126 76.9379H489.999C490.463 76.9379 490.842 76.8645 491.135 76.7176C491.429 76.5649 491.646 76.3592 491.787 76.1007C491.928 75.8423 491.999 75.5456 491.999 75.2107C491.999 74.8347 491.934 74.5087 491.805 74.2325C491.682 73.9564 491.482 73.7449 491.206 73.5981C490.93 73.4453 490.566 73.3689 490.113 73.3689H487.566L487.584 71.5536H490.756L491.364 72.2674C492.146 72.2556 492.774 72.3937 493.25 72.6816C493.732 72.9636 494.082 73.3307 494.299 73.7831C494.522 74.2355 494.634 74.7202 494.634 75.2371C494.634 76.0596 494.455 76.7529 494.096 77.3168C493.738 77.875 493.212 78.295 492.519 78.577C491.832 78.859 490.991 79 489.999 79Z" fill="white"/>
<rect x="449.451" y="59.4512" width="53.0976" height="27.0976" rx="1.35357" stroke="#F4F4F4" stroke-width="0.902381"/>
<g filter="url(#filter10_f_415_3614)">
<g filter="url(#filter11_f_415_3614)">
<path d="M59.6383 101.026C50.6931 101.026 41.7497 101.03 32.8045 101.024C30.3992 101.024 28.7099 99.8044 28.1547 97.7041C27.9648 96.9828 27.9301 96.2468 28.162 95.5436C29.1464 92.5777 29.9262 89.526 31.5261 86.8048C35.301 80.3798 40.9151 76.7035 48.2824 75.657C48.8869 75.5712 49.2321 75.8323 49.6192 76.2067C52.6582 79.1453 56.1976 80.8748 60.5259 80.5771C64.0233 80.336 66.9326 78.7782 69.3945 76.3711C70.041 75.7392 70.6345 75.5876 71.491 75.7392C80.3377 77.3208 86.3407 82.2828 89.4253 90.7368C89.9568 92.1924 90.4535 93.6589 90.9211 95.1364C91.8817 98.1698 89.9276 100.911 86.7443 101.026C86.4704 101.035 86.1964 101.03 85.9225 101.03C77.1599 101.03 68.3973 101.03 59.6365 101.03L59.6383 101.026Z" fill="url(#paint8_radial_415_3614)"/>
<path d="M60.7104 100.366L60.7122 100.363H59.6383C57.081 100.363 54.5239 100.363 51.9669 100.363C45.5795 100.364 39.1927 100.365 32.8049 100.361H32.8045C31.714 100.361 30.8322 100.085 30.1722 99.6124C29.5161 99.1425 29.038 98.449 28.7963 97.535C28.6291 96.8998 28.6112 96.3004 28.792 95.752C28.996 95.1373 29.1895 94.526 29.3813 93.92C30.1338 91.5424 30.8606 89.2459 32.0981 87.1411L32.0982 87.1409C35.7682 80.8946 41.2035 77.3327 48.3757 76.314C48.5544 76.2886 48.6583 76.3156 48.7442 76.357C48.8522 76.4091 48.9711 76.503 49.158 76.6837L49.6192 76.2067L49.158 76.6837C52.2957 79.7177 56.0104 81.5527 60.5715 81.239L60.5716 81.239C64.2564 80.985 67.3075 79.3396 69.8583 76.8455C70.1267 76.5833 70.3451 76.4579 70.5495 76.3984C70.7565 76.3381 71.0091 76.3278 71.3748 76.3925C79.9924 77.9333 85.7998 82.7362 88.802 90.9642L88.8021 90.9644C89.33 92.4102 89.8236 93.8675 90.2885 95.3365L90.2885 95.3367C90.7101 96.668 90.4838 97.8931 89.8457 98.7914C89.2073 99.6902 88.1209 100.312 86.7213 100.363C86.5361 100.369 86.3563 100.368 86.1623 100.367C86.085 100.367 86.0055 100.366 85.9225 100.366H85.8711H85.8198H85.7685H85.7171H85.6658H85.6144H85.5631H85.5117H85.4604H85.4091H85.3577H85.3064H85.255H85.2037H85.1523H85.101H85.0497H84.9983H84.947H84.8956H84.8443H84.7929H84.7416H84.6903H84.6389H84.5876H84.5362H84.4849H84.4335H84.3822H84.3308H84.2795H84.2282H84.1768H84.1255H84.0741H84.0228H83.9714H83.9201H83.8688H83.8174H83.7661H83.7147H83.6634H83.612H83.5607H83.5094H83.458H83.4067H83.3553H83.304H83.2526H83.2013H83.1499H83.0986H83.0473H82.9959H82.9446H82.8932H82.8419H82.7905H82.7392H82.6879H82.6365H82.5852H82.5338H82.4825H82.4311H82.3798H82.3285H82.2771H82.2258H82.1744H82.1231H82.0717H82.0204H81.9691H81.9177H81.8664H81.815H81.7637H81.7123H81.661H81.6097H81.5583H81.507H81.4556H81.4043H81.3529H81.3016H81.2503H81.1989H81.1476H81.0962H81.0449H80.9935H80.9422H80.8909H80.8395H80.7882H80.7368H80.6855H80.6341H80.5828H80.5315H80.4801H80.4288H80.3774H80.3261H80.2747H80.2234H80.1721H80.1207H80.0694H80.018H79.9667H79.9153H79.864H79.8127H79.7613H79.71H79.6586H79.6073H79.5559H79.5046H79.4533H79.4019H79.3506H79.2992H79.2479H79.1965H79.1452H79.0939H79.0425H78.9912H78.9398H78.8885H78.8371H78.7858H78.7345H78.6831H78.6318H78.5804H78.5291H78.4777H78.4264H78.3751H78.3237H78.2724H78.221H78.1697H78.1183H78.067H78.0157H77.9643H77.913H77.8616H77.8103H77.7589H77.7076H77.6563H77.6049H77.5536H77.5022H77.4509H77.3996H77.3482H77.2969H77.2455H77.1942H77.1428H77.0915H77.0402H76.9888H76.9375H76.8861H76.8348H76.7834H76.7321H76.6808H76.6294H76.5781H76.5267H76.4754H76.4241H76.3727H76.3214H76.27H76.2187H76.1673H76.116H76.0647H76.0133H75.962H75.9106H75.8593H75.808H75.7566H75.7053H75.6539H75.6026H75.5512H75.4999H75.4486H75.3972H75.3459H75.2945H75.2432H75.1919H75.1405H75.0892H75.0378H74.9865H74.9351H74.8838H74.8325H74.7811H74.7298H74.6784H74.6271H74.5758H74.5244H74.4731H74.4217H74.3704H74.319H74.2677H74.2164H74.165H74.1137H74.0623H74.011H73.9597H73.9083H73.857H73.8056H73.7543H73.703H73.6516H73.6003H73.5489H73.4976H73.4462H73.3949H73.3436H73.2922H73.2409H73.1895H73.1382H73.0869H73.0355H72.9842H72.9328H72.8815H72.8302H72.7788H72.7275H72.6761H72.6248H72.5735H72.5221H72.4708H72.4194H72.3681H72.3168H72.2654H72.2141H72.1627H72.1114H72.0601H72.0087H71.9574H71.906H71.8547H71.8033H71.752H71.7007H71.6493H71.598H71.5466H71.4953H71.444H71.3926H71.3413H71.2899H71.2386H71.1873H71.1359H71.0846H71.0332H70.9819H70.9306H70.8792H70.8279H70.7765H70.7252H70.6739H70.6225H70.5712H70.5198H70.4685H70.4172H70.3658H70.3145H70.2631H70.2118H70.1605H70.1091H70.0578H70.0065H69.9551H69.9038H69.8524H69.8011H69.7498H69.6984H69.6471H69.5957H69.5444H69.4931H69.4417H69.3904H69.339H69.2877H69.2364H69.185H69.1337H69.0823H69.031H68.9797H68.9283H68.877H68.8257H68.7743H68.723H68.6716H68.6203H68.569H68.5176H68.4663H68.4149H68.3636H68.3123H68.2609H68.2096H68.1583H68.1069H68.0556H68.0042H67.9529H67.9016H67.8502H67.7989H67.7475H67.6962H67.6449H67.5935H67.5422H67.4909H67.4395H67.3882H67.3368H67.2855H67.2342H67.1828H67.1315H67.0802H67.0288H66.9775H66.9261H66.8748H66.8235H66.7721H66.7208H66.6694H66.6181H66.5668H66.5154H66.4641H66.4128H66.3614H66.3101H66.2587H66.2074H66.1561H66.1047H66.0534H66.0021H65.9507H65.8994H65.848H65.7967H65.7454H65.694H65.6427H65.5914H65.54H65.4887H65.4374H65.386H65.3347H65.2833H65.232H65.1807H65.1293H65.078H65.0267H64.9753H64.924H64.8727H64.8213H64.77H64.7186H64.6673H64.616H64.5646H64.5133H64.462H64.4106H64.3593H64.3079H64.2566H64.2053H64.1539H64.1026H64.0513H63.9999H63.9486H63.8973H63.8459H63.7946H63.7433H63.6919H63.6406H63.5892H63.5379H63.4866H63.4352H63.3839H63.3326H63.2812H63.2299H63.1786H63.1272H63.0759H63.0246H62.9732H62.9219H62.8706H62.8192H62.7679H62.7165H62.6652H62.6139H62.5625H62.5112H62.4599H62.4085H62.3572H62.3059H62.2545H62.2032H62.1519H62.1005H62.0492H61.9979H61.9465H61.8952H61.8439H61.7925H61.7412H61.6899H61.6385H61.5872H61.5359H61.4845H61.4332H61.3819H61.3305H61.2792H61.2278H61.1765H61.1252H61.0738H61.0225H60.9712H60.9198H60.8685H60.8172H60.7658H60.7145H60.7104Z" stroke="#4205F0" stroke-width="1.32705"/>
</g>
<g filter="url(#filter12_f_415_3614)">
<path d="M73.7993 55.679C73.5491 61.472 71.8342 67.2285 67.7688 72.1376C66.3115 73.8963 64.56 75.3154 62.3612 76.0331C59.1414 77.0851 56.2412 76.3107 53.6442 74.2561C50.5925 71.8417 48.6822 68.6128 47.3344 65.0388C45.4825 60.1297 44.8378 55.0818 45.9792 49.9024C47.8603 41.3626 56.3654 36.5265 64.3573 39.4979C69.3449 41.3516 72.0899 45.1704 73.3044 50.2147C73.6989 51.851 73.7847 53.5203 73.7975 55.6771L73.7993 55.679Z" fill="url(#paint9_radial_415_3614)"/>
<path d="M62.1553 75.4023L62.1551 75.4024C59.183 76.3734 56.5107 75.6778 54.0559 73.7357C51.1297 71.4207 49.2772 68.3102 47.9552 64.8046L47.9552 64.8046C46.1396 59.9916 45.5186 55.0758 46.6272 50.0452L46.6272 50.0451C48.4265 41.8768 56.533 37.2967 64.1261 40.1199L64.1262 40.1199C68.8635 41.8806 71.4847 45.4914 72.6593 50.37L72.6593 50.3702C73.0349 51.9281 73.1212 53.5332 73.134 55.6811L73.1341 55.7027C72.8807 61.3645 71.2006 66.9533 67.2578 71.7144C65.8544 73.4079 64.2012 74.7345 62.1553 75.4023Z" stroke="#4205F0" stroke-width="1.32705"/>
</g>
</g>
<g filter="url(#filter13_f_415_3614)">
<path d="M59.6383 91.5516C50.6931 91.5516 41.7497 91.5552 32.8045 91.5498C30.3992 91.5498 28.7099 90.3298 28.1547 88.2295C27.9648 87.5081 27.9301 86.7721 28.162 86.069C29.1464 83.1031 29.9262 80.0514 31.5261 77.3302C35.301 70.9052 40.9151 67.2289 48.2824 66.1824C48.8869 66.0966 49.2321 66.3577 49.6192 66.7321C52.6582 69.6706 56.1976 71.4002 60.5259 71.1025C64.0233 70.8614 66.9326 69.3036 69.3945 66.8965C70.041 66.2646 70.6345 66.113 71.491 66.2646C80.3377 67.8462 86.3407 72.8082 89.4253 81.2622C89.9568 82.7178 90.4535 84.1843 90.9211 85.6618C91.8817 88.6952 89.9276 91.4365 86.7443 91.5516C86.4704 91.5607 86.1964 91.5552 85.9225 91.5552C77.1599 91.5552 68.3973 91.5552 59.6365 91.5552L59.6383 91.5516Z" fill="url(#paint10_radial_415_3614)"/>
<path d="M60.7104 90.8917L60.7122 90.8881H59.6383C57.081 90.8881 54.5239 90.8883 51.9669 90.8886C45.5795 90.8894 39.1927 90.8901 32.8049 90.8862H32.8045C31.714 90.8862 30.8322 90.6105 30.1722 90.1378C29.5161 89.6679 29.038 88.9744 28.7963 88.0604C28.6291 87.4252 28.6112 86.8258 28.792 86.2774C28.996 85.6626 29.1895 85.0514 29.3813 84.4454C30.1338 82.0678 30.8606 79.7713 32.0981 77.6664L32.0982 77.6663C35.7682 71.4199 41.2035 67.8581 48.3757 66.8393C48.5544 66.814 48.6583 66.841 48.7442 66.8824C48.8522 66.9345 48.9711 67.0284 49.158 67.2091L49.6192 66.7321L49.158 67.2091C52.2957 70.2431 56.0104 72.0781 60.5715 71.7644L60.5716 71.7644C64.2564 71.5104 67.3075 69.865 69.8583 67.3709C70.1267 67.1087 70.3451 66.9833 70.5495 66.9238C70.7565 66.8635 71.0091 66.8532 71.3748 66.9179C79.9924 68.4587 85.7998 73.2615 88.802 81.4896L88.8021 81.4898C89.33 82.9356 89.8236 84.3929 90.2885 85.8619L90.2885 85.8621C90.7101 87.1934 90.4838 88.4185 89.8457 89.3168C89.2073 90.2155 88.1209 90.8376 86.7213 90.8884C86.5361 90.8946 86.3563 90.8936 86.1623 90.8926C86.085 90.8921 86.0055 90.8917 85.9225 90.8917H85.8711H85.8198H85.7685H85.7171H85.6658H85.6144H85.5631H85.5117H85.4604H85.4091H85.3577H85.3064H85.255H85.2037H85.1523H85.101H85.0497H84.9983H84.947H84.8956H84.8443H84.7929H84.7416H84.6903H84.6389H84.5876H84.5362H84.4849H84.4335H84.3822H84.3308H84.2795H84.2282H84.1768H84.1255H84.0741H84.0228H83.9714H83.9201H83.8688H83.8174H83.7661H83.7147H83.6634H83.612H83.5607H83.5094H83.458H83.4067H83.3553H83.304H83.2526H83.2013H83.1499H83.0986H83.0473H82.9959H82.9446H82.8932H82.8419H82.7905H82.7392H82.6879H82.6365H82.5852H82.5338H82.4825H82.4311H82.3798H82.3285H82.2771H82.2258H82.1744H82.1231H82.0717H82.0204H81.9691H81.9177H81.8664H81.815H81.7637H81.7123H81.661H81.6097H81.5583H81.507H81.4556H81.4043H81.3529H81.3016H81.2503H81.1989H81.1476H81.0962H81.0449H80.9935H80.9422H80.8909H80.8395H80.7882H80.7368H80.6855H80.6341H80.5828H80.5315H80.4801H80.4288H80.3774H80.3261H80.2747H80.2234H80.1721H80.1207H80.0694H80.018H79.9667H79.9153H79.864H79.8127H79.7613H79.71H79.6586H79.6073H79.5559H79.5046H79.4533H79.4019H79.3506H79.2992H79.2479H79.1965H79.1452H79.0939H79.0425H78.9912H78.9398H78.8885H78.8371H78.7858H78.7345H78.6831H78.6318H78.5804H78.5291H78.4777H78.4264H78.3751H78.3237H78.2724H78.221H78.1697H78.1183H78.067H78.0157H77.9643H77.913H77.8616H77.8103H77.7589H77.7076H77.6563H77.6049H77.5536H77.5022H77.4509H77.3996H77.3482H77.2969H77.2455H77.1942H77.1428H77.0915H77.0402H76.9888H76.9375H76.8861H76.8348H76.7834H76.7321H76.6808H76.6294H76.5781H76.5267H76.4754H76.4241H76.3727H76.3214H76.27H76.2187H76.1673H76.116H76.0647H76.0133H75.962H75.9106H75.8593H75.808H75.7566H75.7053H75.6539H75.6026H75.5512H75.4999H75.4486H75.3972H75.3459H75.2945H75.2432H75.1919H75.1405H75.0892H75.0378H74.9865H74.9351H74.8838H74.8325H74.7811H74.7298H74.6784H74.6271H74.5758H74.5244H74.4731H74.4217H74.3704H74.319H74.2677H74.2164H74.165H74.1137H74.0623H74.011H73.9597H73.9083H73.857H73.8056H73.7543H73.703H73.6516H73.6003H73.5489H73.4976H73.4462H73.3949H73.3436H73.2922H73.2409H73.1895H73.1382H73.0869H73.0355H72.9842H72.9328H72.8815H72.8302H72.7788H72.7275H72.6761H72.6248H72.5735H72.5221H72.4708H72.4194H72.3681H72.3168H72.2654H72.2141H72.1627H72.1114H72.0601H72.0087H71.9574H71.906H71.8547H71.8033H71.752H71.7007H71.6493H71.598H71.5466H71.4953H71.444H71.3926H71.3413H71.2899H71.2386H71.1873H71.1359H71.0846H71.0332H70.9819H70.9306H70.8792H70.8279H70.7765H70.7252H70.6739H70.6225H70.5712H70.5198H70.4685H70.4172H70.3658H70.3145H70.2631H70.2118H70.1605H70.1091H70.0578H70.0065H69.9551H69.9038H69.8524H69.8011H69.7498H69.6984H69.6471H69.5957H69.5444H69.4931H69.4417H69.3904H69.339H69.2877H69.2364H69.185H69.1337H69.0823H69.031H68.9797H68.9283H68.877H68.8257H68.7743H68.723H68.6716H68.6203H68.569H68.5176H68.4663H68.4149H68.3636H68.3123H68.2609H68.2096H68.1583H68.1069H68.0556H68.0042H67.9529H67.9016H67.8502H67.7989H67.7475H67.6962H67.6449H67.5935H67.5422H67.4909H67.4395H67.3882H67.3368H67.2855H67.2342H67.1828H67.1315H67.0802H67.0288H66.9775H66.9261H66.8748H66.8235H66.7721H66.7208H66.6694H66.6181H66.5668H66.5154H66.4641H66.4128H66.3614H66.3101H66.2587H66.2074H66.1561H66.1047H66.0534H66.0021H65.9507H65.8994H65.848H65.7967H65.7454H65.694H65.6427H65.5914H65.54H65.4887H65.4374H65.386H65.3347H65.2833H65.232H65.1807H65.1293H65.078H65.0267H64.9753H64.924H64.8727H64.8213H64.77H64.7186H64.6673H64.616H64.5646H64.5133H64.462H64.4106H64.3593H64.3079H64.2566H64.2053H64.1539H64.1026H64.0513H63.9999H63.9486H63.8973H63.8459H63.7946H63.7433H63.6919H63.6406H63.5892H63.5379H63.4866H63.4352H63.3839H63.3326H63.2812H63.2299H63.1786H63.1272H63.0759H63.0246H62.9732H62.9219H62.8706H62.8192H62.7679H62.7165H62.6652H62.6139H62.5625H62.5112H62.4599H62.4085H62.3572H62.3059H62.2545H62.2032H62.1519H62.1005H62.0492H61.9979H61.9465H61.8952H61.8439H61.7925H61.7412H61.6899H61.6385H61.5872H61.5359H61.4845H61.4332H61.3819H61.3305H61.2792H61.2278H61.1765H61.1252H61.0738H61.0225H60.9712H60.9198H60.8685H60.8172H60.7658H60.7145H60.7104Z" stroke="#4205F0" stroke-width="1.32705"/>
</g>
<g filter="url(#filter14_f_415_3614)">
<path d="M73.7993 46.2044C73.5491 51.9974 71.8342 57.7539 67.7688 62.663C66.3115 64.4217 64.56 65.8408 62.3612 66.5585C59.1414 67.6104 56.2412 66.8361 53.6442 64.7815C50.5925 62.3671 48.6822 59.1382 47.3344 55.5642C45.4825 50.6551 44.8378 45.6072 45.9792 40.4278C47.8603 31.888 56.3654 27.0519 64.3573 30.0233C69.3449 31.877 72.0899 35.6958 73.3044 40.7401C73.6989 42.3764 73.7847 44.0457 73.7975 46.2025L73.7993 46.2044Z" fill="url(#paint11_radial_415_3614)"/>
<path d="M62.1553 65.9277L62.1551 65.9278C59.183 66.8988 56.5107 66.2032 54.0559 64.2611C51.1297 61.9461 49.2772 58.8356 47.9552 55.33L47.9552 55.33C46.1396 50.517 45.5186 45.6012 46.6272 40.5706L46.6272 40.5705C48.4265 32.4021 56.533 27.8221 64.1261 30.6453L64.1262 30.6453C68.8635 32.406 71.4847 36.0168 72.6593 40.8954L72.6593 40.8956C73.0349 42.4535 73.1212 44.0586 73.134 46.2065L73.1341 46.2281C72.8807 51.8899 71.2006 57.4787 67.2578 62.2398C65.8544 63.9333 64.2012 65.2599 62.1553 65.9277Z" stroke="#4205F0" stroke-width="1.32705"/>
</g>
<g filter="url(#filter15_f_415_3614)">
<g filter="url(#filter16_f_415_3614)">
<path d="M727.471 101.026C718.526 101.026 709.583 101.03 700.637 101.024C698.232 101.024 696.543 99.8044 695.988 97.7041C695.798 96.9828 695.763 96.2468 695.995 95.5436C696.979 92.5777 697.759 89.526 699.359 86.8048C703.134 80.3798 708.748 76.7035 716.115 75.657C716.72 75.5712 717.065 75.8323 717.452 76.2067C720.491 79.1453 724.031 80.8748 728.359 80.5771C731.856 80.336 734.766 78.7782 737.227 76.3711C737.874 75.7392 738.468 75.5876 739.324 75.7392C748.171 77.3208 754.174 82.2828 757.258 90.7368C757.79 92.1924 758.287 93.6589 758.754 95.1364C759.715 98.1698 757.761 100.911 754.577 101.026C754.303 101.035 754.029 101.03 753.755 101.03C744.993 101.03 736.23 101.03 727.47 101.03L727.471 101.026Z" fill="url(#paint12_radial_415_3614)"/>
<path d="M728.543 100.366L728.545 100.363H727.471C724.914 100.363 722.357 100.363 719.8 100.363C713.412 100.364 707.026 100.365 700.638 100.361H700.637C699.547 100.361 698.665 100.085 698.005 99.6124C697.349 99.1425 696.871 98.449 696.629 97.535C696.462 96.8998 696.444 96.3004 696.625 95.752C696.829 95.1373 697.022 94.526 697.214 93.92C697.967 91.5424 698.694 89.2459 699.931 87.1411L699.931 87.1409C703.601 80.8946 709.037 77.3327 716.209 76.314C716.387 76.2886 716.491 76.3156 716.577 76.357C716.685 76.4091 716.804 76.503 716.991 76.6837L717.452 76.2067L716.991 76.6837C720.129 79.7177 723.843 81.5527 728.404 81.239L728.405 81.239C732.089 80.985 735.14 79.3396 737.691 76.8455C737.96 76.5833 738.178 76.4579 738.383 76.3984C738.59 76.3381 738.842 76.3278 739.208 76.3925C747.825 77.9333 753.633 82.7362 756.635 90.9642L756.635 90.9644C757.163 92.4102 757.657 93.8675 758.121 95.3365L758.122 95.3367C758.543 96.668 758.317 97.8931 757.679 98.7914C757.04 99.6902 755.954 100.312 754.554 100.363C754.369 100.369 754.189 100.368 753.995 100.367C753.918 100.367 753.838 100.366 753.755 100.366H753.704H753.653H753.601H753.55H753.499H753.447H753.396H753.345H753.293H753.242H753.191H753.139H753.088H753.037H752.985H752.934H752.883H752.831H752.78H752.729H752.677H752.626H752.575H752.523H752.472H752.421H752.369H752.318H752.267H752.215H752.164H752.113H752.061H752.01H751.958H751.907H751.856H751.804H751.753H751.702H751.65H751.599H751.548H751.496H751.445H751.394H751.342H751.291H751.24H751.188H751.137H751.086H751.034H750.983H750.932H750.88H750.829H750.778H750.726H750.675H750.624H750.572H750.521H750.47H750.418H750.367H750.315H750.264H750.213H750.161H750.11H750.059H750.007H749.956H749.905H749.853H749.802H749.751H749.699H749.648H749.597H749.545H749.494H749.443H749.391H749.34H749.289H749.237H749.186H749.135H749.083H749.032H748.981H748.929H748.878H748.827H748.775H748.724H748.673H748.621H748.57H748.518H748.467H748.416H748.364H748.313H748.262H748.21H748.159H748.108H748.056H748.005H747.954H747.902H747.851H747.8H747.748H747.697H747.646H747.594H747.543H747.492H747.44H747.389H747.338H747.286H747.235H747.184H747.132H747.081H747.03H746.978H746.927H746.876H746.824H746.773H746.721H746.67H746.619H746.567H746.516H746.465H746.413H746.362H746.311H746.259H746.208H746.157H746.105H746.054H746.003H745.951H745.9H745.849H745.797H745.746H745.695H745.643H745.592H745.541H745.489H745.438H745.387H745.335H745.284H745.233H745.181H745.13H745.079H745.027H744.976H744.925H744.873H744.822H744.77H744.719H744.668H744.616H744.565H744.514H744.462H744.411H744.36H744.308H744.257H744.206H744.154H744.103H744.052H744H743.949H743.898H743.846H743.795H743.744H743.692H743.641H743.59H743.538H743.487H743.436H743.384H743.333H743.282H743.23H743.179H743.128H743.076H743.025H742.974H742.922H742.871H742.819H742.768H742.717H742.665H742.614H742.563H742.511H742.46H742.409H742.357H742.306H742.255H742.203H742.152H742.101H742.049H741.998H741.947H741.895H741.844H741.793H741.741H741.69H741.639H741.587H741.536H741.485H741.433H741.382H741.331H741.279H741.228H741.177H741.125H741.074H741.023H740.971H740.92H740.869H740.817H740.766H740.715H740.663H740.612H740.56H740.509H740.458H740.406H740.355H740.304H740.252H740.201H740.15H740.098H740.047H739.996H739.944H739.893H739.842H739.79H739.739H739.688H739.636H739.585H739.534H739.482H739.431H739.38H739.328H739.277H739.226H739.174H739.123H739.072H739.02H738.969H738.918H738.866H738.815H738.764H738.712H738.661H738.61H738.558H738.507H738.456H738.404H738.353H738.302H738.25H738.199H738.147H738.096H738.045H737.993H737.942H737.891H737.839H737.788H737.737H737.685H737.634H737.583H737.531H737.48H737.429H737.377H737.326H737.275H737.223H737.172H737.121H737.069H737.018H736.967H736.915H736.864H736.813H736.761H736.71H736.659H736.607H736.556H736.505H736.453H736.402H736.351H736.299H736.248H736.197H736.145H736.094H736.043H735.991H735.94H735.889H735.837H735.786H735.735H735.683H735.632H735.581H735.529H735.478H735.427H735.375H735.324H735.273H735.221H735.17H735.119H735.067H735.016H734.964H734.913H734.862H734.81H734.759H734.708H734.656H734.605H734.554H734.502H734.451H734.4H734.348H734.297H734.246H734.194H734.143H734.092H734.04H733.989H733.938H733.886H733.835H733.784H733.732H733.681H733.63H733.578H733.527H733.476H733.424H733.373H733.322H733.27H733.219H733.168H733.116H733.065H733.014H732.962H732.911H732.86H732.808H732.757H732.706H732.654H732.603H732.552H732.5H732.449H732.398H732.346H732.295H732.244H732.192H732.141H732.09H732.038H731.987H731.936H731.884H731.833H731.782H731.73H731.679H731.628H731.576H731.525H731.474H731.422H731.371H731.32H731.268H731.217H731.166H731.114H731.063H731.012H730.96H730.909H730.858H730.806H730.755H730.704H730.652H730.601H730.55H730.498H730.447H730.396H730.344H730.293H730.242H730.19H730.139H730.088H730.036H729.985H729.934H729.882H729.831H729.78H729.728H729.677H729.626H729.574H729.523H729.472H729.42H729.369H729.318H729.266H729.215H729.164H729.112H729.061H729.01H728.958H728.907H728.856H728.804H728.753H728.702H728.65H728.599H728.548H728.543Z" stroke="#4205F0" stroke-width="1.32705"/>
</g>
<g filter="url(#filter17_f_415_3614)">
<path d="M741.633 55.679C741.383 61.472 739.668 67.2285 735.602 72.1376C734.145 73.8963 732.394 75.3154 730.195 76.0331C726.975 77.0851 724.075 76.3107 721.478 74.2561C718.426 71.8417 716.516 68.6128 715.168 65.0388C713.316 60.1297 712.671 55.0818 713.813 49.9024C715.694 41.3626 724.199 36.5265 732.191 39.4979C737.178 41.3516 739.923 45.1704 741.138 50.2147C741.532 51.851 741.618 53.5203 741.631 55.6771L741.633 55.679Z" fill="url(#paint13_radial_415_3614)"/>
<path d="M729.989 75.4023L729.989 75.4024C727.016 76.3734 724.344 75.6778 721.889 73.7357C718.963 71.4207 717.111 68.3102 715.789 64.8046L715.789 64.8046C713.973 59.9916 713.352 55.0758 714.461 50.0452L714.461 50.0451C716.26 41.8768 724.366 37.2967 731.96 40.1199L731.96 40.1199C736.697 41.8806 739.318 45.4914 740.493 50.37L740.493 50.3702C740.868 51.9281 740.955 53.5332 740.967 55.6811L740.968 55.7027C740.714 61.3645 739.034 66.9533 735.091 71.7144C733.688 73.4079 732.035 74.7345 729.989 75.4023Z" stroke="#4205F0" stroke-width="1.32705"/>
</g>
</g>
<g filter="url(#filter18_f_415_3614)">
<path d="M727.471 91.5516C718.526 91.5516 709.583 91.5552 700.637 91.5498C698.232 91.5498 696.543 90.3298 695.988 88.2295C695.798 87.5081 695.763 86.7721 695.995 86.069C696.979 83.1031 697.759 80.0514 699.359 77.3302C703.134 70.9052 708.748 67.2289 716.115 66.1824C716.72 66.0966 717.065 66.3577 717.452 66.7321C720.491 69.6706 724.031 71.4002 728.359 71.1025C731.856 70.8614 734.766 69.3036 737.227 66.8965C737.874 66.2646 738.468 66.113 739.324 66.2646C748.171 67.8462 754.174 72.8082 757.258 81.2622C757.79 82.7178 758.287 84.1843 758.754 85.6618C759.715 88.6952 757.761 91.4365 754.577 91.5516C754.303 91.5607 754.029 91.5552 753.755 91.5552C744.993 91.5552 736.23 91.5552 727.47 91.5552L727.471 91.5516Z" fill="url(#paint14_radial_415_3614)"/>
<path d="M728.543 90.8917L728.545 90.8881H727.471C724.914 90.8881 722.357 90.8883 719.8 90.8886C713.412 90.8894 707.026 90.8901 700.638 90.8862H700.637C699.547 90.8862 698.665 90.6105 698.005 90.1378C697.349 89.6679 696.871 88.9744 696.629 88.0604C696.462 87.4252 696.444 86.8258 696.625 86.2774C696.829 85.6626 697.022 85.0514 697.214 84.4454C697.967 82.0678 698.694 79.7713 699.931 77.6664L699.931 77.6663C703.601 71.4199 709.037 67.8581 716.209 66.8393C716.387 66.814 716.491 66.841 716.577 66.8824C716.685 66.9345 716.804 67.0284 716.991 67.2091L717.452 66.7321L716.991 67.2091C720.129 70.2431 723.843 72.0781 728.404 71.7644L728.405 71.7644C732.089 71.5104 735.14 69.865 737.691 67.3709C737.96 67.1087 738.178 66.9833 738.383 66.9238C738.59 66.8635 738.842 66.8532 739.208 66.9179C747.825 68.4587 753.633 73.2615 756.635 81.4896L756.635 81.4898C757.163 82.9356 757.657 84.3929 758.121 85.8619L758.122 85.8621C758.543 87.1934 758.317 88.4185 757.679 89.3168C757.04 90.2155 755.954 90.8376 754.554 90.8884C754.369 90.8946 754.189 90.8936 753.995 90.8926C753.918 90.8921 753.838 90.8917 753.755 90.8917H753.704H753.653H753.601H753.55H753.499H753.447H753.396H753.345H753.293H753.242H753.191H753.139H753.088H753.037H752.985H752.934H752.883H752.831H752.78H752.729H752.677H752.626H752.575H752.523H752.472H752.421H752.369H752.318H752.267H752.215H752.164H752.113H752.061H752.01H751.958H751.907H751.856H751.804H751.753H751.702H751.65H751.599H751.548H751.496H751.445H751.394H751.342H751.291H751.24H751.188H751.137H751.086H751.034H750.983H750.932H750.88H750.829H750.778H750.726H750.675H750.624H750.572H750.521H750.47H750.418H750.367H750.315H750.264H750.213H750.161H750.11H750.059H750.007H749.956H749.905H749.853H749.802H749.751H749.699H749.648H749.597H749.545H749.494H749.443H749.391H749.34H749.289H749.237H749.186H749.135H749.083H749.032H748.981H748.929H748.878H748.827H748.775H748.724H748.673H748.621H748.57H748.518H748.467H748.416H748.364H748.313H748.262H748.21H748.159H748.108H748.056H748.005H747.954H747.902H747.851H747.8H747.748H747.697H747.646H747.594H747.543H747.492H747.44H747.389H747.338H747.286H747.235H747.184H747.132H747.081H747.03H746.978H746.927H746.876H746.824H746.773H746.721H746.67H746.619H746.567H746.516H746.465H746.413H746.362H746.311H746.259H746.208H746.157H746.105H746.054H746.003H745.951H745.9H745.849H745.797H745.746H745.695H745.643H745.592H745.541H745.489H745.438H745.387H745.335H745.284H745.233H745.181H745.13H745.079H745.027H744.976H744.925H744.873H744.822H744.77H744.719H744.668H744.616H744.565H744.514H744.462H744.411H744.36H744.308H744.257H744.206H744.154H744.103H744.052H744H743.949H743.898H743.846H743.795H743.744H743.692H743.641H743.59H743.538H743.487H743.436H743.384H743.333H743.282H743.23H743.179H743.128H743.076H743.025H742.974H742.922H742.871H742.819H742.768H742.717H742.665H742.614H742.563H742.511H742.46H742.409H742.357H742.306H742.255H742.203H742.152H742.101H742.049H741.998H741.947H741.895H741.844H741.793H741.741H741.69H741.639H741.587H741.536H741.485H741.433H741.382H741.331H741.279H741.228H741.177H741.125H741.074H741.023H740.971H740.92H740.869H740.817H740.766H740.715H740.663H740.612H740.56H740.509H740.458H740.406H740.355H740.304H740.252H740.201H740.15H740.098H740.047H739.996H739.944H739.893H739.842H739.79H739.739H739.688H739.636H739.585H739.534H739.482H739.431H739.38H739.328H739.277H739.226H739.174H739.123H739.072H739.02H738.969H738.918H738.866H738.815H738.764H738.712H738.661H738.61H738.558H738.507H738.456H738.404H738.353H738.302H738.25H738.199H738.147H738.096H738.045H737.993H737.942H737.891H737.839H737.788H737.737H737.685H737.634H737.583H737.531H737.48H737.429H737.377H737.326H737.275H737.223H737.172H737.121H737.069H737.018H736.967H736.915H736.864H736.813H736.761H736.71H736.659H736.607H736.556H736.505H736.453H736.402H736.351H736.299H736.248H736.197H736.145H736.094H736.043H735.991H735.94H735.889H735.837H735.786H735.735H735.683H735.632H735.581H735.529H735.478H735.427H735.375H735.324H735.273H735.221H735.17H735.119H735.067H735.016H734.964H734.913H734.862H734.81H734.759H734.708H734.656H734.605H734.554H734.502H734.451H734.4H734.348H734.297H734.246H734.194H734.143H734.092H734.04H733.989H733.938H733.886H733.835H733.784H733.732H733.681H733.63H733.578H733.527H733.476H733.424H733.373H733.322H733.27H733.219H733.168H733.116H733.065H733.014H732.962H732.911H732.86H732.808H732.757H732.706H732.654H732.603H732.552H732.5H732.449H732.398H732.346H732.295H732.244H732.192H732.141H732.09H732.038H731.987H731.936H731.884H731.833H731.782H731.73H731.679H731.628H731.576H731.525H731.474H731.422H731.371H731.32H731.268H731.217H731.166H731.114H731.063H731.012H730.96H730.909H730.858H730.806H730.755H730.704H730.652H730.601H730.55H730.498H730.447H730.396H730.344H730.293H730.242H730.19H730.139H730.088H730.036H729.985H729.934H729.882H729.831H729.78H729.728H729.677H729.626H729.574H729.523H729.472H729.42H729.369H729.318H729.266H729.215H729.164H729.112H729.061H729.01H728.958H728.907H728.856H728.804H728.753H728.702H728.65H728.599H728.548H728.543Z" stroke="#4205F0" stroke-width="1.32705"/>
</g>
<g filter="url(#filter19_f_415_3614)">
<path d="M741.633 46.2044C741.383 51.9974 739.668 57.7539 735.602 62.663C734.145 64.4217 732.394 65.8408 730.195 66.5585C726.975 67.6104 724.075 66.8361 721.478 64.7815C718.426 62.3671 716.516 59.1382 715.168 55.5642C713.316 50.6551 712.671 45.6072 713.813 40.4278C715.694 31.888 724.199 27.0519 732.191 30.0233C737.178 31.877 739.923 35.6958 741.138 40.7401C741.532 42.3764 741.618 44.0457 741.631 46.2025L741.633 46.2044Z" fill="url(#paint15_radial_415_3614)"/>
<path d="M729.989 65.9277L729.989 65.9278C727.016 66.8988 724.344 66.2032 721.889 64.2611C718.963 61.9461 717.111 58.8356 715.789 55.33L715.789 55.33C713.973 50.517 713.352 45.6012 714.461 40.5706L714.461 40.5705C716.26 32.4021 724.366 27.8221 731.96 30.6453L731.96 30.6453C736.697 32.406 739.318 36.0168 740.493 40.8954L740.493 40.8956C740.868 42.4535 740.955 44.0586 740.967 46.2065L740.968 46.2281C740.714 51.8899 739.034 57.4787 735.091 62.2398C733.688 63.9333 732.035 65.2599 729.989 65.9277Z" stroke="#4205F0" stroke-width="1.32705"/>
</g>
<g filter="url(#filter20_f_415_3614)">
<rect x="96.5811" y="60.7266" width="46.9238" height="0.902381" fill="url(#paint16_linear_415_3614)"/>
</g>
<path d="M147.114 61.6288L141.7 58.5028V64.7547L147.114 61.6288Z" fill="#4205F0"/>
<g filter="url(#filter21_f_415_3614)">
<rect x="236" y="60.7266" width="26.5049" height="0.902381" fill="url(#paint17_linear_415_3614)"/>
</g>
<path d="M266.114 61.6288L260.7 58.5028V64.7547L266.114 61.6288Z" fill="#4205F0"/>
<g filter="url(#filter22_f_415_3614)">
<rect x="528" y="60.7266" width="26.5049" height="0.902381" fill="url(#paint18_linear_415_3614)"/>
</g>
<path d="M558.114 61.6288L552.7 58.5028V64.7547L558.114 61.6288Z" fill="#4205F0"/>
<g filter="url(#filter23_f_415_3614)">
<rect x="371.581" y="60.7266" width="46.9238" height="0.902381" fill="url(#paint19_linear_415_3614)"/>
</g>
<path d="M422.114 61.6288L416.7 58.5028V64.7547L422.114 61.6288Z" fill="#4205F0"/>
<g filter="url(#filter24_f_415_3614)">
<rect x="639.886" y="65.2402" width="46.9238" height="0.902381" fill="url(#paint20_linear_415_3614)"/>
</g>
<path d="M690.419 66.1424L685.005 63.0165V69.2684L690.419 66.1424Z" fill="#4205F0"/>
<g filter="url(#filter25_f_415_3614)">
<rect x="160" y="39" width="70" height="49" fill="url(#paint21_radial_415_3614)"/>
<rect x="160.664" y="39.6635" width="68.673" height="47.6729" stroke="#4205F0" stroke-width="1.32705"/>
</g>
<path d="M174.805 64.1133H175.973C175.949 64.4961 175.844 64.8359 175.656 65.1328C175.471 65.4297 175.212 65.6615 174.879 65.8281C174.548 65.9948 174.15 66.0781 173.684 66.0781C173.319 66.0781 172.992 66.0156 172.703 65.8906C172.414 65.763 172.167 65.5807 171.961 65.3438C171.758 65.1068 171.603 64.8203 171.496 64.4844C171.389 64.1484 171.336 63.7721 171.336 63.3555V62.9609C171.336 62.5443 171.391 62.168 171.5 61.832C171.612 61.4935 171.771 61.2057 171.977 60.9688C172.185 60.7318 172.434 60.5495 172.723 60.4219C173.012 60.2943 173.335 60.2305 173.691 60.2305C174.165 60.2305 174.565 60.3164 174.891 60.4883C175.219 60.6602 175.473 60.8971 175.652 61.1992C175.835 61.5013 175.944 61.8451 175.98 62.2305H174.809C174.796 62.0013 174.75 61.8073 174.672 61.6484C174.594 61.487 174.475 61.3659 174.316 61.2852C174.16 61.2018 173.952 61.1602 173.691 61.1602C173.496 61.1602 173.326 61.1966 173.18 61.2695C173.034 61.3424 172.911 61.4531 172.812 61.6016C172.714 61.75 172.639 61.9375 172.59 62.1641C172.543 62.388 172.52 62.651 172.52 62.9531V63.3555C172.52 63.6497 172.542 63.9089 172.586 64.1328C172.63 64.3542 172.698 64.5417 172.789 64.6953C172.883 64.8464 173.003 64.9609 173.148 65.0391C173.297 65.1146 173.475 65.1523 173.684 65.1523C173.928 65.1523 174.13 65.1133 174.289 65.0352C174.448 64.957 174.569 64.8411 174.652 64.6875C174.738 64.5339 174.789 64.3424 174.805 64.1133ZM182.214 63.0234V63.293C182.214 63.7253 182.155 64.1133 182.038 64.457C181.921 64.8008 181.756 65.0938 181.542 65.3359C181.329 65.5755 181.073 65.7591 180.777 65.8867C180.482 66.0143 180.155 66.0781 179.796 66.0781C179.439 66.0781 179.113 66.0143 178.816 65.8867C178.521 65.7591 178.266 65.5755 178.05 65.3359C177.834 65.0938 177.666 64.8008 177.546 64.457C177.429 64.1133 177.37 63.7253 177.37 63.293V63.0234C177.37 62.5885 177.429 62.2005 177.546 61.8594C177.663 61.5156 177.829 61.2227 178.042 60.9805C178.258 60.7383 178.514 60.5534 178.808 60.4258C179.105 60.2982 179.432 60.2344 179.788 60.2344C180.148 60.2344 180.474 60.2982 180.769 60.4258C181.066 60.5534 181.321 60.7383 181.534 60.9805C181.751 61.2227 181.917 61.5156 182.034 61.8594C182.154 62.2005 182.214 62.5885 182.214 63.0234ZM181.03 63.293V63.0156C181.03 62.7135 181.003 62.4479 180.948 62.2188C180.894 61.9896 180.813 61.7969 180.706 61.6406C180.599 61.4844 180.469 61.3672 180.316 61.2891C180.162 61.2083 179.986 61.168 179.788 61.168C179.59 61.168 179.415 61.2083 179.261 61.2891C179.11 61.3672 178.981 61.4844 178.874 61.6406C178.77 61.7969 178.691 61.9896 178.636 62.2188C178.581 62.4479 178.554 62.7135 178.554 63.0156V63.293C178.554 63.5924 178.581 63.8581 178.636 64.0898C178.691 64.319 178.771 64.513 178.878 64.6719C178.985 64.8281 179.115 64.9466 179.269 65.0273C179.422 65.1081 179.598 65.1484 179.796 65.1484C179.994 65.1484 180.17 65.1081 180.323 65.0273C180.477 64.9466 180.606 64.8281 180.71 64.6719C180.814 64.513 180.894 64.319 180.948 64.0898C181.003 63.8581 181.03 63.5924 181.03 63.293ZM188.487 60.3125V66H187.315L185.03 62.1875V66H183.858V60.3125H185.03L187.319 64.1289V60.3125H188.487ZM192.732 60.3125V66H191.564V60.3125H192.732ZM194.482 60.3125V61.2305H189.841V60.3125H194.482ZM195.95 60.3125H198.071C198.506 60.3125 198.88 60.3776 199.192 60.5078C199.507 60.638 199.749 60.8307 199.919 61.0859C200.088 61.3411 200.173 61.6549 200.173 62.0273C200.173 62.332 200.121 62.5938 200.016 62.8125C199.915 63.0286 199.77 63.2096 199.583 63.3555C199.398 63.4987 199.18 63.6133 198.93 63.6992L198.559 63.8945H196.716L196.708 62.9805H198.079C198.285 62.9805 198.455 62.944 198.591 62.8711C198.726 62.7982 198.828 62.6966 198.895 62.5664C198.966 62.4362 199.001 62.2852 199.001 62.1133C199.001 61.931 198.967 61.7734 198.899 61.6406C198.832 61.5078 198.729 61.4062 198.591 61.3359C198.453 61.2656 198.279 61.2305 198.071 61.2305H197.122V66H195.95V60.3125ZM199.13 66L197.833 63.4648L199.071 63.457L200.384 65.9453V66H199.13ZM204.188 61.2852L202.641 66H201.395L203.508 60.3125H204.301L204.188 61.2852ZM205.473 66L203.922 61.2852L203.797 60.3125H204.598L206.723 66H205.473ZM205.402 63.8828V64.8008H202.398V63.8828H205.402ZM211.277 64.1133H212.445C212.421 64.4961 212.316 64.8359 212.128 65.1328C211.943 65.4297 211.684 65.6615 211.351 65.8281C211.02 65.9948 210.622 66.0781 210.155 66.0781C209.791 66.0781 209.464 66.0156 209.175 65.8906C208.886 65.763 208.639 65.5807 208.433 65.3438C208.23 65.1068 208.075 64.8203 207.968 64.4844C207.861 64.1484 207.808 63.7721 207.808 63.3555V62.9609C207.808 62.5443 207.862 62.168 207.972 61.832C208.084 61.4935 208.243 61.2057 208.448 60.9688C208.657 60.7318 208.905 60.5495 209.195 60.4219C209.484 60.2943 209.807 60.2305 210.163 60.2305C210.637 60.2305 211.037 60.3164 211.362 60.4883C211.691 60.6602 211.945 60.8971 212.124 61.1992C212.307 61.5013 212.416 61.8451 212.452 62.2305H211.28C211.267 62.0013 211.222 61.8073 211.144 61.6484C211.066 61.487 210.947 61.3659 210.788 61.2852C210.632 61.2018 210.424 61.1602 210.163 61.1602C209.968 61.1602 209.797 61.1966 209.652 61.2695C209.506 61.3424 209.383 61.4531 209.284 61.6016C209.185 61.75 209.111 61.9375 209.062 62.1641C209.015 62.388 208.991 62.651 208.991 62.9531V63.3555C208.991 63.6497 209.014 63.9089 209.058 64.1328C209.102 64.3542 209.17 64.5417 209.261 64.6953C209.355 64.8464 209.474 64.9609 209.62 65.0391C209.769 65.1146 209.947 65.1523 210.155 65.1523C210.4 65.1523 210.602 65.1133 210.761 65.0352C210.92 64.957 211.041 64.8411 211.124 64.6875C211.21 64.5339 211.261 64.3424 211.277 64.1133ZM216.44 60.3125V66H215.272V60.3125H216.44ZM218.19 60.3125V61.2305H213.549V60.3125H218.19Z" fill="#F3F3F3"/>
<g filter="url(#filter26_f_415_3614)">
<rect x="562.262" y="39" width="70" height="49" fill="url(#paint22_radial_415_3614)"/>
<rect x="562.925" y="39.6635" width="68.673" height="47.6729" stroke="#4205F0" stroke-width="1.32705"/>
</g>
<path d="M577.066 64.1133H578.234C578.211 64.4961 578.105 64.8359 577.918 65.1328C577.733 65.4297 577.474 65.6615 577.141 65.8281C576.81 65.9948 576.411 66.0781 575.945 66.0781C575.581 66.0781 575.254 66.0156 574.965 65.8906C574.676 65.763 574.428 65.5807 574.223 65.3438C574.02 65.1068 573.865 64.8203 573.758 64.4844C573.651 64.1484 573.598 63.7721 573.598 63.3555V62.9609C573.598 62.5443 573.652 62.168 573.762 61.832C573.874 61.4935 574.033 61.2057 574.238 60.9688C574.447 60.7318 574.695 60.5495 574.984 60.4219C575.273 60.2943 575.596 60.2305 575.953 60.2305C576.427 60.2305 576.827 60.3164 577.152 60.4883C577.48 60.6602 577.734 60.8971 577.914 61.1992C578.096 61.5013 578.206 61.8451 578.242 62.2305H577.07C577.057 62.0013 577.012 61.8073 576.934 61.6484C576.855 61.487 576.737 61.3659 576.578 61.2852C576.422 61.2018 576.214 61.1602 575.953 61.1602C575.758 61.1602 575.587 61.1966 575.441 61.2695C575.296 61.3424 575.173 61.4531 575.074 61.6016C574.975 61.75 574.901 61.9375 574.852 62.1641C574.805 62.388 574.781 62.651 574.781 62.9531V63.3555C574.781 63.6497 574.803 63.9089 574.848 64.1328C574.892 64.3542 574.96 64.5417 575.051 64.6953C575.145 64.8464 575.264 64.9609 575.41 65.0391C575.559 65.1146 575.737 65.1523 575.945 65.1523C576.19 65.1523 576.392 65.1133 576.551 65.0352C576.71 64.957 576.831 64.8411 576.914 64.6875C577 64.5339 577.051 64.3424 577.066 64.1133ZM584.476 63.0234V63.293C584.476 63.7253 584.417 64.1133 584.3 64.457C584.183 64.8008 584.017 65.0938 583.804 65.3359C583.59 65.5755 583.335 65.7591 583.038 65.8867C582.744 66.0143 582.417 66.0781 582.058 66.0781C581.701 66.0781 581.374 66.0143 581.077 65.8867C580.783 65.7591 580.528 65.5755 580.312 65.3359C580.096 65.0938 579.928 64.8008 579.808 64.457C579.691 64.1133 579.632 63.7253 579.632 63.293V63.0234C579.632 62.5885 579.691 62.2005 579.808 61.8594C579.925 61.5156 580.09 61.2227 580.304 60.9805C580.52 60.7383 580.775 60.5534 581.07 60.4258C581.366 60.2982 581.693 60.2344 582.05 60.2344C582.409 60.2344 582.736 60.2982 583.03 60.4258C583.327 60.5534 583.583 60.7383 583.796 60.9805C584.012 61.2227 584.179 61.5156 584.296 61.8594C584.416 62.2005 584.476 62.5885 584.476 63.0234ZM583.292 63.293V63.0156C583.292 62.7135 583.265 62.4479 583.21 62.2188C583.155 61.9896 583.075 61.7969 582.968 61.6406C582.861 61.4844 582.731 61.3672 582.577 61.2891C582.424 61.2083 582.248 61.168 582.05 61.168C581.852 61.168 581.676 61.2083 581.523 61.2891C581.372 61.3672 581.243 61.4844 581.136 61.6406C581.032 61.7969 580.952 61.9896 580.898 62.2188C580.843 62.4479 580.816 62.7135 580.816 63.0156V63.293C580.816 63.5924 580.843 63.8581 580.898 64.0898C580.952 64.319 581.033 64.513 581.14 64.6719C581.247 64.8281 581.377 64.9466 581.53 65.0273C581.684 65.1081 581.86 65.1484 582.058 65.1484C582.256 65.1484 582.432 65.1081 582.585 65.0273C582.739 64.9466 582.868 64.8281 582.972 64.6719C583.076 64.513 583.155 64.319 583.21 64.0898C583.265 63.8581 583.292 63.5924 583.292 63.293ZM590.748 60.3125V66H589.577L587.291 62.1875V66H586.12V60.3125H587.291L589.58 64.1289V60.3125H590.748ZM594.994 60.3125V66H593.826V60.3125H594.994ZM596.744 60.3125V61.2305H592.103V60.3125H596.744ZM598.212 60.3125H600.333C600.768 60.3125 601.141 60.3776 601.454 60.5078C601.769 60.638 602.011 60.8307 602.18 61.0859C602.35 61.3411 602.434 61.6549 602.434 62.0273C602.434 62.332 602.382 62.5938 602.278 62.8125C602.177 63.0286 602.032 63.2096 601.845 63.3555C601.66 63.4987 601.442 63.6133 601.192 63.6992L600.821 63.8945H598.977L598.97 62.9805H600.341C600.546 62.9805 600.717 62.944 600.852 62.8711C600.988 62.7982 601.089 62.6966 601.157 62.5664C601.227 62.4362 601.263 62.2852 601.263 62.1133C601.263 61.931 601.229 61.7734 601.161 61.6406C601.093 61.5078 600.99 61.4062 600.852 61.3359C600.714 61.2656 600.541 61.2305 600.333 61.2305H599.384V66H598.212V60.3125ZM601.391 66L600.095 63.4648L601.333 63.457L602.645 65.9453V66H601.391ZM606.449 61.2852L604.902 66H603.656L605.77 60.3125H606.562L606.449 61.2852ZM607.734 66L606.184 61.2852L606.059 60.3125H606.859L608.984 66H607.734ZM607.664 63.8828V64.8008H604.66V63.8828H607.664ZM613.538 64.1133H614.706C614.683 64.4961 614.577 64.8359 614.39 65.1328C614.205 65.4297 613.946 65.6615 613.612 65.8281C613.282 65.9948 612.883 66.0781 612.417 66.0781C612.053 66.0781 611.726 66.0156 611.437 65.8906C611.148 65.763 610.9 65.5807 610.695 65.3438C610.491 65.1068 610.336 64.8203 610.23 64.4844C610.123 64.1484 610.07 63.7721 610.07 63.3555V62.9609C610.07 62.5443 610.124 62.168 610.234 61.832C610.346 61.4935 610.504 61.2057 610.71 60.9688C610.918 60.7318 611.167 60.5495 611.456 60.4219C611.745 60.2943 612.068 60.2305 612.425 60.2305C612.899 60.2305 613.299 60.3164 613.624 60.4883C613.952 60.6602 614.206 60.8971 614.386 61.1992C614.568 61.5013 614.678 61.8451 614.714 62.2305H613.542C613.529 62.0013 613.484 61.8073 613.405 61.6484C613.327 61.487 613.209 61.3659 613.05 61.2852C612.894 61.2018 612.685 61.1602 612.425 61.1602C612.23 61.1602 612.059 61.1966 611.913 61.2695C611.767 61.3424 611.645 61.4531 611.546 61.6016C611.447 61.75 611.373 61.9375 611.323 62.1641C611.277 62.388 611.253 62.651 611.253 62.9531V63.3555C611.253 63.6497 611.275 63.9089 611.32 64.1328C611.364 64.3542 611.432 64.5417 611.523 64.6953C611.616 64.8464 611.736 64.9609 611.882 65.0391C612.03 65.1146 612.209 65.1523 612.417 65.1523C612.662 65.1523 612.864 65.1133 613.023 65.0352C613.182 64.957 613.303 64.8411 613.386 64.6875C613.472 64.5339 613.523 64.3424 613.538 64.1133ZM618.702 60.3125V66H617.534V60.3125H618.702ZM620.452 60.3125V61.2305H615.811V60.3125H620.452Z" fill="#F3F3F3"/>
<path d="M521.18 133.023V133.293C521.18 133.725 521.121 134.113 521.004 134.457C520.887 134.801 520.721 135.094 520.508 135.336C520.294 135.576 520.039 135.759 519.742 135.887C519.448 136.014 519.121 136.078 518.762 136.078C518.405 136.078 518.078 136.014 517.781 135.887C517.487 135.759 517.232 135.576 517.016 135.336C516.799 135.094 516.632 134.801 516.512 134.457C516.395 134.113 516.336 133.725 516.336 133.293V133.023C516.336 132.589 516.395 132.201 516.512 131.859C516.629 131.516 516.794 131.223 517.008 130.98C517.224 130.738 517.479 130.553 517.773 130.426C518.07 130.298 518.397 130.234 518.754 130.234C519.113 130.234 519.44 130.298 519.734 130.426C520.031 130.553 520.286 130.738 520.5 130.98C520.716 131.223 520.883 131.516 521 131.859C521.12 132.201 521.18 132.589 521.18 133.023ZM519.996 133.293V133.016C519.996 132.714 519.969 132.448 519.914 132.219C519.859 131.99 519.779 131.797 519.672 131.641C519.565 131.484 519.435 131.367 519.281 131.289C519.128 131.208 518.952 131.168 518.754 131.168C518.556 131.168 518.38 131.208 518.227 131.289C518.076 131.367 517.947 131.484 517.84 131.641C517.736 131.797 517.656 131.99 517.602 132.219C517.547 132.448 517.52 132.714 517.52 133.016V133.293C517.52 133.592 517.547 133.858 517.602 134.09C517.656 134.319 517.737 134.513 517.844 134.672C517.951 134.828 518.081 134.947 518.234 135.027C518.388 135.108 518.564 135.148 518.762 135.148C518.96 135.148 519.135 135.108 519.289 135.027C519.443 134.947 519.572 134.828 519.676 134.672C519.78 134.513 519.859 134.319 519.914 134.09C519.969 133.858 519.996 133.592 519.996 133.293ZM525.038 133.973H523.589V133.059H525.038C525.262 133.059 525.445 133.022 525.585 132.949C525.726 132.874 525.829 132.77 525.894 132.637C525.959 132.504 525.991 132.354 525.991 132.188C525.991 132.018 525.959 131.861 525.894 131.715C525.829 131.569 525.726 131.452 525.585 131.363C525.445 131.275 525.262 131.23 525.038 131.23H523.995V136H522.823V130.312H525.038C525.484 130.312 525.865 130.393 526.183 130.555C526.503 130.714 526.748 130.934 526.917 131.215C527.086 131.496 527.171 131.818 527.171 132.18C527.171 132.547 527.086 132.865 526.917 133.133C526.748 133.401 526.503 133.608 526.183 133.754C525.865 133.9 525.484 133.973 525.038 133.973ZM531.323 130.312V136H530.155V130.312H531.323ZM533.073 130.312V131.23H528.432V130.312H533.073ZM535.787 130.312V136H534.619V130.312H535.787ZM542.356 133.023V133.293C542.356 133.725 542.298 134.113 542.18 134.457C542.063 134.801 541.898 135.094 541.684 135.336C541.471 135.576 541.216 135.759 540.919 135.887C540.624 136.014 540.298 136.078 539.938 136.078C539.582 136.078 539.255 136.014 538.958 135.887C538.664 135.759 538.408 135.576 538.192 135.336C537.976 135.094 537.808 134.801 537.688 134.457C537.571 134.113 537.513 133.725 537.513 133.293V133.023C537.513 132.589 537.571 132.201 537.688 131.859C537.805 131.516 537.971 131.223 538.184 130.98C538.401 130.738 538.656 130.553 538.95 130.426C539.247 130.298 539.574 130.234 539.93 130.234C540.29 130.234 540.617 130.298 540.911 130.426C541.208 130.553 541.463 130.738 541.677 130.98C541.893 131.223 542.059 131.516 542.177 131.859C542.296 132.201 542.356 132.589 542.356 133.023ZM541.173 133.293V133.016C541.173 132.714 541.145 132.448 541.091 132.219C541.036 131.99 540.955 131.797 540.848 131.641C540.742 131.484 540.611 131.367 540.458 131.289C540.304 131.208 540.128 131.168 539.93 131.168C539.733 131.168 539.557 131.208 539.403 131.289C539.252 131.367 539.123 131.484 539.016 131.641C538.912 131.797 538.833 131.99 538.778 132.219C538.723 132.448 538.696 132.714 538.696 133.016V133.293C538.696 133.592 538.723 133.858 538.778 134.09C538.833 134.319 538.914 134.513 539.02 134.672C539.127 134.828 539.257 134.947 539.411 135.027C539.565 135.108 539.74 135.148 539.938 135.148C540.136 135.148 540.312 135.108 540.466 135.027C540.619 134.947 540.748 134.828 540.852 134.672C540.957 134.513 541.036 134.319 541.091 134.09C541.145 133.858 541.173 133.592 541.173 133.293ZM548.629 130.312V136H547.457L545.172 132.188V136H544V130.312H545.172L547.461 134.129V130.312H548.629ZM552.831 131.285L551.284 136H550.038L552.152 130.312H552.945L552.831 131.285ZM554.116 136L552.566 131.285L552.441 130.312H553.241L555.366 136H554.116ZM554.046 133.883V134.801H551.042V133.883H554.046ZM560.35 135.086V136H557.487V135.086H560.35ZM557.866 130.312V136H556.694V130.312H557.866Z" fill="#DDD9F3"/>
<g filter="url(#filter27_f_415_3614)">
<rect x="196" y="151.533" width="46.9238" height="0.902381" transform="rotate(-90 196 151.533)" fill="url(#paint23_linear_415_3614)"/>
</g>
<g filter="url(#filter28_f_415_3614)">
<path d="M196.697 150.621H315.621V151.523H196.697V150.621Z" fill="url(#paint24_linear_415_3614)"/>
</g>
<g filter="url(#filter29_f_415_3614)">
<rect x="315" y="152.924" width="46.9238" height="0.902381" transform="rotate(-90 315 152.924)" fill="url(#paint25_linear_415_3614)"/>
</g>
<path d="M196.61 101L193.484 106.414H199.736L196.61 101Z" fill="#4205F0"/>
<path d="M480.61 113L477.484 118.414H483.736L480.61 113Z" fill="#4205F0"/>
<g filter="url(#filter30_f_415_3614)">
<path d="M480.5 123V151" stroke="#4205F0" stroke-dasharray="5 5"/>
</g>
<g filter="url(#filter31_f_415_3614)">
<path d="M598 100V145" stroke="#4205F0" stroke-dasharray="5 5"/>
</g>
<g filter="url(#filter32_f_415_3614)">
<path d="M482 150H599" stroke="#4205F0" stroke-dasharray="5 5"/>
</g>
<defs>
<filter id="filter0_f_415_3614" x="267.346" y="18.0139" width="97.5699" height="88.6422" filterUnits="userSpaceOnUse" color-interpolation-filters="sRGB">
<feFlood flood-opacity="0" result="BackgroundImageFix"/>
<feBlend mode="normal" in="SourceGraphic" in2="BackgroundImageFix" result="shape"/>
<feGaussianBlur stdDeviation="1.32705" result="effect1_foregroundBlur_415_3614"/>
</filter>
<filter id="filter1_f_415_3614" x="284.608" y="1.3459" width="63.6417" height="74.3551" filterUnits="userSpaceOnUse" color-interpolation-filters="sRGB">
<feFlood flood-opacity="0" result="BackgroundImageFix"/>
<feBlend mode="normal" in="SourceGraphic" in2="BackgroundImageFix" result="shape"/>
<feGaussianBlur stdDeviation="1.32705" result="effect1_foregroundBlur_415_3614"/>
</filter>
<filter id="filter2_f_415_3614" x="267.346" y="70.3928" width="97.5699" height="36.2613" filterUnits="userSpaceOnUse" color-interpolation-filters="sRGB">
<feFlood flood-opacity="0" result="BackgroundImageFix"/>
<feBlend mode="normal" in="SourceGraphic" in2="BackgroundImageFix" result="shape"/>
<feGaussianBlur stdDeviation="1.32705" result="effect1_foregroundBlur_415_3614"/>
</filter>
<filter id="filter3_f_415_3614" x="267.346" y="1.3459" width="97.5699" height="21.9742" filterUnits="userSpaceOnUse" color-interpolation-filters="sRGB">
<feFlood flood-opacity="0" result="BackgroundImageFix"/>
<feBlend mode="normal" in="SourceGraphic" in2="BackgroundImageFix" result="shape"/>
<feGaussianBlur stdDeviation="1.32705" result="effect1_foregroundBlur_415_3614"/>
</filter>
<filter id="filter4_f_415_3614" x="296.755" y="64.203" width="45.0999" height="20.4105" filterUnits="userSpaceOnUse" color-interpolation-filters="sRGB">
<feFlood flood-opacity="0" result="BackgroundImageFix"/>
<feBlend mode="normal" in="SourceGraphic" in2="BackgroundImageFix" result="shape"/>
<feGaussianBlur stdDeviation="1.80476" result="effect1_foregroundBlur_415_3614"/>
</filter>
<filter id="filter5_f_415_3614" x="427.346" y="17.0139" width="97.5699" height="88.6422" filterUnits="userSpaceOnUse" color-interpolation-filters="sRGB">
<feFlood flood-opacity="0" result="BackgroundImageFix"/>
<feBlend mode="normal" in="SourceGraphic" in2="BackgroundImageFix" result="shape"/>
<feGaussianBlur stdDeviation="1.32705" result="effect1_foregroundBlur_415_3614"/>
</filter>
<filter id="filter6_f_415_3614" x="444.608" y="0.345896" width="63.6417" height="74.3551" filterUnits="userSpaceOnUse" color-interpolation-filters="sRGB">
<feFlood flood-opacity="0" result="BackgroundImageFix"/>
<feBlend mode="normal" in="SourceGraphic" in2="BackgroundImageFix" result="shape"/>
<feGaussianBlur stdDeviation="1.32705" result="effect1_foregroundBlur_415_3614"/>
</filter>
<filter id="filter7_f_415_3614" x="427.346" y="69.3928" width="97.5699" height="36.2613" filterUnits="userSpaceOnUse" color-interpolation-filters="sRGB">
<feFlood flood-opacity="0" result="BackgroundImageFix"/>
<feBlend mode="normal" in="SourceGraphic" in2="BackgroundImageFix" result="shape"/>
<feGaussianBlur stdDeviation="1.32705" result="effect1_foregroundBlur_415_3614"/>
</filter>
<filter id="filter8_f_415_3614" x="427.346" y="0.345896" width="97.5699" height="21.9742" filterUnits="userSpaceOnUse" color-interpolation-filters="sRGB">
<feFlood flood-opacity="0" result="BackgroundImageFix"/>
<feBlend mode="normal" in="SourceGraphic" in2="BackgroundImageFix" result="shape"/>
<feGaussianBlur stdDeviation="1.32705" result="effect1_foregroundBlur_415_3614"/>
</filter>
<filter id="filter9_f_415_3614" x="455.755" y="63.203" width="43.7073" height="20.4105" filterUnits="userSpaceOnUse" color-interpolation-filters="sRGB">
<feFlood flood-opacity="0" result="BackgroundImageFix"/>
<feBlend mode="normal" in="SourceGraphic" in2="BackgroundImageFix" result="shape"/>
<feGaussianBlur stdDeviation="1.80476" result="effect1_foregroundBlur_415_3614"/>
</filter>
<filter id="filter10_f_415_3614" x="0.928572" y="11.5477" width="117.309" height="116.555" filterUnits="userSpaceOnUse" color-interpolation-filters="sRGB">
<feFlood flood-opacity="0" result="BackgroundImageFix"/>
<feBlend mode="normal" in="SourceGraphic" in2="BackgroundImageFix" result="shape"/>
<feGaussianBlur stdDeviation="13.5357" result="effect1_foregroundBlur_415_3614"/>
</filter>
<filter id="filter11_f_415_3614" x="25.3459" y="72.9865" width="68.4747" height="30.6988" filterUnits="userSpaceOnUse" color-interpolation-filters="sRGB">
<feFlood flood-opacity="0" result="BackgroundImageFix"/>
<feBlend mode="normal" in="SourceGraphic" in2="BackgroundImageFix" result="shape"/>
<feGaussianBlur stdDeviation="1.32705" result="effect1_foregroundBlur_415_3614"/>
</filter>
<filter id="filter12_f_415_3614" x="42.7575" y="35.965" width="33.6959" height="43.191" filterUnits="userSpaceOnUse" color-interpolation-filters="sRGB">
<feFlood flood-opacity="0" result="BackgroundImageFix"/>
<feBlend mode="normal" in="SourceGraphic" in2="BackgroundImageFix" result="shape"/>
<feGaussianBlur stdDeviation="1.32705" result="effect1_foregroundBlur_415_3614"/>
</filter>
<filter id="filter13_f_415_3614" x="25.3459" y="63.5119" width="68.4747" height="30.6988" filterUnits="userSpaceOnUse" color-interpolation-filters="sRGB">
<feFlood flood-opacity="0" result="BackgroundImageFix"/>
<feBlend mode="normal" in="SourceGraphic" in2="BackgroundImageFix" result="shape"/>
<feGaussianBlur stdDeviation="1.32705" result="effect1_foregroundBlur_415_3614"/>
</filter>
<filter id="filter14_f_415_3614" x="42.7575" y="26.4904" width="33.6959" height="43.191" filterUnits="userSpaceOnUse" color-interpolation-filters="sRGB">
<feFlood flood-opacity="0" result="BackgroundImageFix"/>
<feBlend mode="normal" in="SourceGraphic" in2="BackgroundImageFix" result="shape"/>
<feGaussianBlur stdDeviation="1.32705" result="effect1_foregroundBlur_415_3614"/>
</filter>
<filter id="filter15_f_415_3614" x="668.762" y="11.5477" width="117.309" height="116.555" filterUnits="userSpaceOnUse" color-interpolation-filters="sRGB">
<feFlood flood-opacity="0" result="BackgroundImageFix"/>
<feBlend mode="normal" in="SourceGraphic" in2="BackgroundImageFix" result="shape"/>
<feGaussianBlur stdDeviation="13.5357" result="effect1_foregroundBlur_415_3614"/>
</filter>
<filter id="filter16_f_415_3614" x="693.179" y="72.9865" width="68.4747" height="30.6988" filterUnits="userSpaceOnUse" color-interpolation-filters="sRGB">
<feFlood flood-opacity="0" result="BackgroundImageFix"/>
<feBlend mode="normal" in="SourceGraphic" in2="BackgroundImageFix" result="shape"/>
<feGaussianBlur stdDeviation="1.32705" result="effect1_foregroundBlur_415_3614"/>
</filter>
<filter id="filter17_f_415_3614" x="710.591" y="35.965" width="33.6959" height="43.191" filterUnits="userSpaceOnUse" color-interpolation-filters="sRGB">
<feFlood flood-opacity="0" result="BackgroundImageFix"/>
<feBlend mode="normal" in="SourceGraphic" in2="BackgroundImageFix" result="shape"/>
<feGaussianBlur stdDeviation="1.32705" result="effect1_foregroundBlur_415_3614"/>
</filter>
<filter id="filter18_f_415_3614" x="693.179" y="63.5119" width="68.4747" height="30.6988" filterUnits="userSpaceOnUse" color-interpolation-filters="sRGB">
<feFlood flood-opacity="0" result="BackgroundImageFix"/>
<feBlend mode="normal" in="SourceGraphic" in2="BackgroundImageFix" result="shape"/>
<feGaussianBlur stdDeviation="1.32705" result="effect1_foregroundBlur_415_3614"/>
</filter>
<filter id="filter19_f_415_3614" x="710.591" y="26.4904" width="33.6959" height="43.191" filterUnits="userSpaceOnUse" color-interpolation-filters="sRGB">
<feFlood flood-opacity="0" result="BackgroundImageFix"/>
<feBlend mode="normal" in="SourceGraphic" in2="BackgroundImageFix" result="shape"/>
<feGaussianBlur stdDeviation="1.32705" result="effect1_foregroundBlur_415_3614"/>
</filter>
<filter id="filter20_f_415_3614" x="93.927" y="58.0725" width="52.232" height="6.21055" filterUnits="userSpaceOnUse" color-interpolation-filters="sRGB">
<feFlood flood-opacity="0" result="BackgroundImageFix"/>
<feBlend mode="normal" in="SourceGraphic" in2="BackgroundImageFix" result="shape"/>
<feGaussianBlur stdDeviation="1.32705" result="effect1_foregroundBlur_415_3614"/>
</filter>
<filter id="filter21_f_415_3614" x="233.346" y="58.0725" width="31.8131" height="6.21055" filterUnits="userSpaceOnUse" color-interpolation-filters="sRGB">
<feFlood flood-opacity="0" result="BackgroundImageFix"/>
<feBlend mode="normal" in="SourceGraphic" in2="BackgroundImageFix" result="shape"/>
<feGaussianBlur stdDeviation="1.32705" result="effect1_foregroundBlur_415_3614"/>
</filter>
<filter id="filter22_f_415_3614" x="525.346" y="58.0725" width="31.8131" height="6.21055" filterUnits="userSpaceOnUse" color-interpolation-filters="sRGB">
<feFlood flood-opacity="0" result="BackgroundImageFix"/>
<feBlend mode="normal" in="SourceGraphic" in2="BackgroundImageFix" result="shape"/>
<feGaussianBlur stdDeviation="1.32705" result="effect1_foregroundBlur_415_3614"/>
</filter>
<filter id="filter23_f_415_3614" x="368.927" y="58.0725" width="52.232" height="6.21055" filterUnits="userSpaceOnUse" color-interpolation-filters="sRGB">
<feFlood flood-opacity="0" result="BackgroundImageFix"/>
<feBlend mode="normal" in="SourceGraphic" in2="BackgroundImageFix" result="shape"/>
<feGaussianBlur stdDeviation="1.32705" result="effect1_foregroundBlur_415_3614"/>
</filter>
<filter id="filter24_f_415_3614" x="637.232" y="62.5861" width="52.232" height="6.21055" filterUnits="userSpaceOnUse" color-interpolation-filters="sRGB">
<feFlood flood-opacity="0" result="BackgroundImageFix"/>
<feBlend mode="normal" in="SourceGraphic" in2="BackgroundImageFix" result="shape"/>
<feGaussianBlur stdDeviation="1.32705" result="effect1_foregroundBlur_415_3614"/>
</filter>
<filter id="filter25_f_415_3614" x="157.346" y="36.3459" width="75.3082" height="54.3082" filterUnits="userSpaceOnUse" color-interpolation-filters="sRGB">
<feFlood flood-opacity="0" result="BackgroundImageFix"/>
<feBlend mode="normal" in="SourceGraphic" in2="BackgroundImageFix" result="shape"/>
<feGaussianBlur stdDeviation="1.32705" result="effect1_foregroundBlur_415_3614"/>
</filter>
<filter id="filter26_f_415_3614" x="559.608" y="36.3459" width="75.3082" height="54.3082" filterUnits="userSpaceOnUse" color-interpolation-filters="sRGB">
<feFlood flood-opacity="0" result="BackgroundImageFix"/>
<feBlend mode="normal" in="SourceGraphic" in2="BackgroundImageFix" result="shape"/>
<feGaussianBlur stdDeviation="1.32705" result="effect1_foregroundBlur_415_3614"/>
</filter>
<filter id="filter27_f_415_3614" x="193.346" y="101.955" width="6.21055" height="52.232" filterUnits="userSpaceOnUse" color-interpolation-filters="sRGB">
<feFlood flood-opacity="0" result="BackgroundImageFix"/>
<feBlend mode="normal" in="SourceGraphic" in2="BackgroundImageFix" result="shape"/>
<feGaussianBlur stdDeviation="1.32705" result="effect1_foregroundBlur_415_3614"/>
</filter>
<filter id="filter28_f_415_3614" x="194.043" y="147.967" width="124.232" height="6.21055" filterUnits="userSpaceOnUse" color-interpolation-filters="sRGB">
<feFlood flood-opacity="0" result="BackgroundImageFix"/>
<feBlend mode="normal" in="SourceGraphic" in2="BackgroundImageFix" result="shape"/>
<feGaussianBlur stdDeviation="1.32705" result="effect1_foregroundBlur_415_3614"/>
</filter>
<filter id="filter29_f_415_3614" x="312.346" y="103.346" width="6.21055" height="52.232" filterUnits="userSpaceOnUse" color-interpolation-filters="sRGB">
<feFlood flood-opacity="0" result="BackgroundImageFix"/>
<feBlend mode="normal" in="SourceGraphic" in2="BackgroundImageFix" result="shape"/>
<feGaussianBlur stdDeviation="1.32705" result="effect1_foregroundBlur_415_3614"/>
</filter>
<filter id="filter30_f_415_3614" x="476.5" y="120" width="8" height="34" filterUnits="userSpaceOnUse" color-interpolation-filters="sRGB">
<feFlood flood-opacity="0" result="BackgroundImageFix"/>
<feBlend mode="normal" in="SourceGraphic" in2="BackgroundImageFix" result="shape"/>
<feGaussianBlur stdDeviation="1.5" result="effect1_foregroundBlur_415_3614"/>
</filter>
<filter id="filter31_f_415_3614" x="594" y="97" width="8" height="51" filterUnits="userSpaceOnUse" color-interpolation-filters="sRGB">
<feFlood flood-opacity="0" result="BackgroundImageFix"/>
<feBlend mode="normal" in="SourceGraphic" in2="BackgroundImageFix" result="shape"/>
<feGaussianBlur stdDeviation="1.5" result="effect1_foregroundBlur_415_3614"/>
</filter>
<filter id="filter32_f_415_3614" x="479" y="146" width="123" height="8" filterUnits="userSpaceOnUse" color-interpolation-filters="sRGB">
<feFlood flood-opacity="0" result="BackgroundImageFix"/>
<feBlend mode="normal" in="SourceGraphic" in2="BackgroundImageFix" result="shape"/>
<feGaussianBlur stdDeviation="1.5" result="effect1_foregroundBlur_415_3614"/>
</filter>
<radialGradient id="paint0_radial_415_3614" cx="0" cy="0" r="1" gradientUnits="userSpaceOnUse" gradientTransform="translate(315.662 61.842) rotate(86.2627) scale(77.7988 86.1757)">
<stop offset="0.046875" stop-color="#4205F0"/>
<stop offset="1" stop-color="#4205F0" stop-opacity="0"/>
</radialGradient>
<radialGradient id="paint1_radial_415_3614" cx="0" cy="0" r="1" gradientUnits="userSpaceOnUse" gradientTransform="translate(316.132 38.1156) rotate(87.1465) scale(64.4046 54.5337)">
<stop offset="0.046875" stop-color="#4205F0"/>
<stop offset="1" stop-color="#4205F0" stop-opacity="0"/>
</radialGradient>
<radialGradient id="paint2_radial_415_3614" cx="0" cy="0" r="1" gradientUnits="userSpaceOnUse" gradientTransform="translate(315.662 88.3401) rotate(80.0257) scale(29.2778 85.0541)">
<stop offset="0.046875" stop-color="#4205F0"/>
<stop offset="1" stop-color="#4205F0" stop-opacity="0"/>
</radialGradient>
<radialGradient id="paint3_radial_415_3614" cx="0" cy="0" r="1" gradientUnits="userSpaceOnUse" gradientTransform="translate(315.662 -21.4927) rotate(86.2627) scale(77.7988 86.1757)">
<stop offset="0.046875" stop-color="#4205F0"/>
<stop offset="1" stop-color="#4205F0" stop-opacity="0"/>
</radialGradient>
<radialGradient id="paint4_radial_415_3614" cx="0" cy="0" r="1" gradientUnits="userSpaceOnUse" gradientTransform="translate(475.662 60.842) rotate(86.2627) scale(77.7988 86.1757)">
<stop offset="0.046875" stop-color="#4205F0"/>
<stop offset="1" stop-color="#4205F0" stop-opacity="0"/>
</radialGradient>
<radialGradient id="paint5_radial_415_3614" cx="0" cy="0" r="1" gradientUnits="userSpaceOnUse" gradientTransform="translate(476.132 37.1156) rotate(87.1465) scale(64.4046 54.5337)">
<stop offset="0.046875" stop-color="#4205F0"/>
<stop offset="1" stop-color="#4205F0" stop-opacity="0"/>
</radialGradient>
<radialGradient id="paint6_radial_415_3614" cx="0" cy="0" r="1" gradientUnits="userSpaceOnUse" gradientTransform="translate(475.662 87.3401) rotate(80.0257) scale(29.2778 85.0541)">
<stop offset="0.046875" stop-color="#4205F0"/>
<stop offset="1" stop-color="#4205F0" stop-opacity="0"/>
</radialGradient>
<radialGradient id="paint7_radial_415_3614" cx="0" cy="0" r="1" gradientUnits="userSpaceOnUse" gradientTransform="translate(475.662 -22.4927) rotate(86.2627) scale(77.7988 86.1757)">
<stop offset="0.046875" stop-color="#4205F0"/>
<stop offset="1" stop-color="#4205F0" stop-opacity="0"/>
</radialGradient>
<radialGradient id="paint8_radial_415_3614" cx="0" cy="0" r="1" gradientUnits="userSpaceOnUse" gradientTransform="translate(59.2625 88.1859) rotate(81.6499) scale(23.9076 58.4987)">
<stop offset="0.046875" stop-color="#4205F0"/>
<stop offset="1" stop-color="#4205F0" stop-opacity="0"/>
</radialGradient>
<radialGradient id="paint9_radial_415_3614" cx="0" cy="0" r="1" gradientUnits="userSpaceOnUse" gradientTransform="translate(59.4613 57.3364) rotate(87.4685) scale(35.3257 26.5456)">
<stop offset="0.046875" stop-color="#4205F0"/>
<stop offset="1" stop-color="#4205F0" stop-opacity="0"/>
</radialGradient>
<radialGradient id="paint10_radial_415_3614" cx="0" cy="0" r="1" gradientUnits="userSpaceOnUse" gradientTransform="translate(59.2625 78.7113) rotate(81.6499) scale(23.9076 58.4987)">
<stop offset="0.046875" stop-color="#120B24"/>
<stop offset="1" stop-color="#100A23" stop-opacity="0"/>
</radialGradient>
<radialGradient id="paint11_radial_415_3614" cx="0" cy="0" r="1" gradientUnits="userSpaceOnUse" gradientTransform="translate(59.4613 47.8618) rotate(87.4685) scale(35.3257 26.5456)">
<stop offset="0.046875" stop-color="#120B24"/>
<stop offset="1" stop-color="#100A23" stop-opacity="0"/>
</radialGradient>
<radialGradient id="paint12_radial_415_3614" cx="0" cy="0" r="1" gradientUnits="userSpaceOnUse" gradientTransform="translate(727.095 88.1859) rotate(81.6499) scale(23.9076 58.4987)">
<stop offset="0.046875" stop-color="#4205F0"/>
<stop offset="1" stop-color="#4205F0" stop-opacity="0"/>
</radialGradient>
<radialGradient id="paint13_radial_415_3614" cx="0" cy="0" r="1" gradientUnits="userSpaceOnUse" gradientTransform="translate(727.295 57.3364) rotate(87.4685) scale(35.3257 26.5456)">
<stop offset="0.046875" stop-color="#4205F0"/>
<stop offset="1" stop-color="#4205F0" stop-opacity="0"/>
</radialGradient>
<radialGradient id="paint14_radial_415_3614" cx="0" cy="0" r="1" gradientUnits="userSpaceOnUse" gradientTransform="translate(727.095 78.7113) rotate(81.6499) scale(23.9076 58.4987)">
<stop offset="0.046875" stop-color="#120B24"/>
<stop offset="1" stop-color="#100A23" stop-opacity="0"/>
</radialGradient>
<radialGradient id="paint15_radial_415_3614" cx="0" cy="0" r="1" gradientUnits="userSpaceOnUse" gradientTransform="translate(727.295 47.8618) rotate(87.4685) scale(35.3257 26.5456)">
<stop offset="0.046875" stop-color="#120B24"/>
<stop offset="1" stop-color="#100A23" stop-opacity="0"/>
</radialGradient>
<linearGradient id="paint16_linear_415_3614" x1="138.542" y1="61.1778" x2="131.497" y2="36.478" gradientUnits="userSpaceOnUse">
<stop offset="0.046875" stop-color="#4205F0"/>
<stop offset="0.615513" stop-color="#4205F0" stop-opacity="0"/>
</linearGradient>
<linearGradient id="paint17_linear_415_3614" x1="259.701" y1="61.1778" x2="248.955" y2="39.8954" gradientUnits="userSpaceOnUse">
<stop offset="0.046875" stop-color="#4205F0"/>
<stop offset="0.615513" stop-color="#4205F0" stop-opacity="0"/>
</linearGradient>
<linearGradient id="paint18_linear_415_3614" x1="551.701" y1="61.1778" x2="540.955" y2="39.8954" gradientUnits="userSpaceOnUse">
<stop offset="0.046875" stop-color="#4205F0"/>
<stop offset="0.615513" stop-color="#4205F0" stop-opacity="0"/>
</linearGradient>
<linearGradient id="paint19_linear_415_3614" x1="413.542" y1="61.1778" x2="406.497" y2="36.478" gradientUnits="userSpaceOnUse">
<stop offset="0.046875" stop-color="#4205F0"/>
<stop offset="0.615513" stop-color="#4205F0" stop-opacity="0"/>
</linearGradient>
<linearGradient id="paint20_linear_415_3614" x1="681.846" y1="65.6914" x2="674.801" y2="40.9917" gradientUnits="userSpaceOnUse">
<stop offset="0.046875" stop-color="#4205F0"/>
<stop offset="0.615513" stop-color="#4205F0" stop-opacity="0"/>
</linearGradient>
<radialGradient id="paint21_radial_415_3614" cx="0" cy="0" r="1" gradientUnits="userSpaceOnUse" gradientTransform="translate(194.644 63.2103) rotate(85.1822) scale(45.8103 65.2902)">
<stop offset="0.046875" stop-color="#120B24"/>
<stop offset="1" stop-color="#100A23" stop-opacity="0"/>
</radialGradient>
<radialGradient id="paint22_radial_415_3614" cx="0" cy="0" r="1" gradientUnits="userSpaceOnUse" gradientTransform="translate(596.906 63.2103) rotate(85.1822) scale(45.8103 65.2902)">
<stop offset="0.046875" stop-color="#120B24"/>
<stop offset="1" stop-color="#100A23" stop-opacity="0"/>
</radialGradient>
<linearGradient id="paint23_linear_415_3614" x1="237.961" y1="151.984" x2="230.916" y2="127.285" gradientUnits="userSpaceOnUse">
<stop offset="0.046875" stop-color="#4205F0"/>
<stop offset="0.615513" stop-color="#4205F0" stop-opacity="0"/>
</linearGradient>
<linearGradient id="paint24_linear_415_3614" x1="238.658" y1="151.072" x2="231.613" y2="126.373" gradientUnits="userSpaceOnUse">
<stop offset="0.046875" stop-color="#4205F0"/>
<stop offset="0.615513" stop-color="#4205F0" stop-opacity="0"/>
</linearGradient>
<linearGradient id="paint25_linear_415_3614" x1="356.961" y1="153.375" x2="349.916" y2="128.675" gradientUnits="userSpaceOnUse">
<stop offset="0.046875" stop-color="#4205F0"/>
<stop offset="0.615513" stop-color="#4205F0" stop-opacity="0"/>
</linearGradient>
</defs>
</svg>
