<svg id="logosandtypes_com" xmlns="http://www.w3.org/2000/svg" viewBox="0 0 150 150.2"><path d="M0 .2h150v150H0V.2z" fill="none"/><g><radialGradient id="a" cx="230.7301" cy="119.8902" r="17.0874" gradientTransform="matrix(1.2847 0 0 -1.2847 -242.0032 173.1135)" gradientUnits="userSpaceOnUse"><stop offset="0" stop-color="#0575bb"/><stop offset="1" stop-color="#02558b"/></radialGradient><path d="M43 56.9h7.7c13 0 23.6-10.6 23.6-23.6 0-13-10.6-23.6-23.6-23.6H43v47.2z" fill="url(#a)"/><radialGradient id="b" cx="47.2197" cy="52.5547" r="49.2467" gradientTransform="matrix(1 0 0 -1 0 152)" gradientUnits="userSpaceOnUse"><stop offset=".1091" stop-color="#d0d2d3"/><stop offset=".5697" stop-color="#a6a8ab"/><stop offset="1" stop-color="#808184"/></radialGradient><path d="M89.6 35c0 19.8-16.1 35.9-35.9 35.9-1.2 0-2.4-.1-3.6-.2v25.9c12.1-2.1 23.3-8.2 31.4-18.2C94.2 62.8 96 42.6 88.1 24.5c1 3.3 1.5 6.9 1.5 10.5z" fill="url(#b)"/><radialGradient id="c" cx="75.0587" cy="91.6008" r="32.4442" gradientTransform="matrix(1 0 0 -1 0 152)" gradientUnits="userSpaceOnUse"><stop offset=".1091" stop-color="#d0d2d3"/><stop offset=".5697" stop-color="#a6a8ab"/><stop offset="1" stop-color="#808184"/></radialGradient><path d="M88.9 27.5c2.7 6.2 3.4 13.3 1.4 20.9-4.6 17.9-22.2 29-40.1 26v30.1c22.1-.6 42.1-15.6 47.9-38.1 4.4-16.8-.2-32.6-10.8-44.3.6 1.7 1.2 3.5 1.6 5.4z" fill="url(#c)"/><radialGradient id="d" cx="79.7586" cy="77.4999" r="49.9574" gradientTransform="matrix(1 0 0 -1 0 152)" gradientUnits="userSpaceOnUse"><stop offset=".1091" stop-color="#0575bb"/><stop offset=".5697" stop-color="#02558b"/><stop offset="1" stop-color="#00507b"/></radialGradient><path d="M85.5 18.2c1 2 1.9 4 2.6 6.2 5.5 7.1 8.9 15.9 9.3 25.5C98.6 75 79.2 96.4 54 97.6c-1.3.1-2.6.1-3.8 0v40.2h1.3c36.2-1.7 64.1-32.4 62.4-68.6-1.1-21.4-12.1-39.8-28.4-51z" fill="url(#d)"/></g></svg>