<svg width="151" height="17" viewBox="0 0 151 17" fill="none" xmlns="http://www.w3.org/2000/svg">
<path d="M28.0209 9.47245H21.4464V13.9864H28.6948L28.3691 16.1693H18.8711V1.22852H28.3087V3.4269H21.4464V7.26718H28.0209V9.47245Z" fill="black"/>
<path d="M36.3086 3.43379H32.1475V1.22852H43.1365V3.43379H38.9684V16.1693H36.3086V3.43379Z" fill="black"/>
<path d="M47.2842 1.22852H49.9215V7.26029H55.9047V1.22852H58.549V16.1693H55.9047V9.46556H49.9215V16.1693H47.2842V1.22852Z" fill="black"/>
<path d="M73.3841 9.47245H66.8097V13.9864H74.0581L73.7323 16.1693H64.2344V1.22852H73.672V3.4269H66.8097V7.26718H73.3841V9.47245Z" fill="black"/>
<path d="M81.1046 9.78257V16.1675H78.5068V1.22852H84.3211C87.0809 1.22852 89.0408 2.59647 89.0408 5.2049C89.0408 7.28268 87.8945 8.25611 86.6723 8.69716C88.1823 9.24503 88.7598 10.4373 88.7598 12.3531V12.7011C88.7598 14.045 88.8201 15.3164 88.9615 16.1693H86.4034C86.1931 15.5525 86.1328 14.4171 86.1328 12.6753V12.3135C86.1328 10.4631 85.4605 9.78429 83.3334 9.78429H81.1028L81.1046 9.78257ZM81.1046 7.66688H83.5454C85.1658 7.66688 86.4103 7.22066 86.4103 5.41681C86.4103 3.96099 85.3864 3.34248 83.9729 3.34248H81.1063V7.66516L81.1046 7.66688Z" fill="black"/>
<path d="M94.0186 1.22852H96.6559V13.9846H103.508L103.199 16.1675H94.0186V1.22852Z" fill="black"/>
<path d="M114.106 0C116.678 5.29955 119.231 10.556 121.811 15.8694C121.261 15.6488 120.766 15.4507 120.272 15.2526C119.811 15.0682 119.355 14.877 118.891 14.703C118.713 14.6358 118.61 14.529 118.531 14.355C117.09 11.2297 115.642 8.10783 114.195 4.98599C114.171 4.93602 114.149 4.88606 114.106 4.79475C113.82 5.41326 113.547 5.99731 113.277 6.58309C112.073 9.18118 110.87 11.7775 109.672 14.3774C109.595 14.5462 109.488 14.6341 109.322 14.6995C108.409 15.0596 107.499 15.43 106.587 15.7953C106.542 15.8125 106.497 15.8263 106.409 15.8556C108.981 10.5578 111.534 5.29955 114.108 0L114.106 0Z" fill="black"/>
<path d="M124.694 1.22852H130.3C133.375 1.22852 134.904 2.83768 134.904 4.98954C134.904 6.90365 133.808 7.71857 132.975 8.04075C134.053 8.4663 135.408 9.51208 135.408 11.6846C135.408 14.5549 133.27 16.1693 130.167 16.1693H124.694V1.22852ZM129.809 7.20171C131.57 7.20171 132.331 6.57975 132.331 5.23936C132.331 3.89897 131.47 3.2615 129.96 3.2615H127.285V7.20171H129.807H129.809ZM127.287 14.15H129.969C131.524 14.15 132.72 13.404 132.72 11.6967C132.72 10.1254 131.769 9.23125 129.757 9.23125H127.289V14.15H127.287Z" fill="black"/>
<path d="M141.972 11.8226C142.213 13.3783 143.244 14.2811 144.899 14.2811C146.553 14.2811 147.427 13.4817 147.427 12.2171C147.427 10.7578 146.621 10.1514 144.302 9.46912C140.953 8.51293 139.765 7.33966 139.765 5.18607C139.765 2.5518 141.837 1.03223 144.661 1.03223C148.12 1.03223 149.587 2.90671 149.754 5.20846H147.157C146.957 3.96111 146.305 3.079 144.626 3.079C143.146 3.079 142.413 3.78021 142.413 4.93281C142.413 6.14571 143.171 6.54369 145.386 7.19493C149.158 8.31135 150.122 9.79647 150.122 11.9104C150.122 14.3638 148.469 16.352 144.78 16.352C141.572 16.352 139.553 14.7015 139.358 11.8243H141.972V11.8226Z" fill="black"/>
<path d="M7.74057 0C10.3124 5.29955 12.8653 10.556 15.4458 15.8694C14.8959 15.6488 14.4012 15.4507 13.9065 15.2526C13.4462 15.0682 12.9894 14.877 12.5258 14.703C12.3482 14.6358 12.2448 14.529 12.1655 14.355C10.7244 11.2297 9.27645 8.10783 7.83021 4.98599C7.80608 4.93602 7.78367 4.88606 7.74057 4.79475C7.45443 5.41326 7.18207 5.99731 6.91144 6.58309C5.70825 9.18118 4.50506 11.7775 3.30704 14.3774C3.22947 14.5462 3.1226 14.6341 2.95711 14.6995C2.04352 15.0596 1.13337 15.43 0.221493 15.7953C0.176675 15.8125 0.131858 15.8263 0.0439453 15.8556C2.61408 10.5578 5.16699 5.29955 7.74057 0Z" fill="#4205F0"/>
</svg>
