<svg width="16" height="16" viewBox="0 0 16 16" fill="none" xmlns="http://www.w3.org/2000/svg">
<path d="M7.69311 0C10.2636 5.29955 12.8152 10.556 15.3943 15.8694C14.8447 15.6488 14.3503 15.4507 13.8558 15.2526C13.3958 15.0682 12.9392 14.877 12.4758 14.703C12.2983 14.6358 12.195 14.529 12.1157 14.355C10.6754 11.2297 9.22818 8.10783 7.7827 4.98599C7.75858 4.93602 7.73618 4.88606 7.69311 4.79475C7.40711 5.41326 7.1349 5.99731 6.86441 6.58309C5.66184 9.18118 4.45928 11.7775 3.26188 14.3774C3.18435 14.5462 3.07754 14.6341 2.91214 14.6995C1.99902 15.0596 1.08934 15.43 0.177944 15.7953C0.133149 15.8125 0.0883547 15.8263 0.000488281 15.8556C2.56929 10.5578 5.12086 5.29955 7.69311 0Z" fill="#4205F0"/>
</svg>
