<svg width="60" height="60" viewBox="0 0 60 60" fill="none" xmlns="http://www.w3.org/2000/svg">
<g filter="url(#filter0_d_176_1528)">
<path d="M29.9829 10C32.6104 9.99761 35.2126 10.5138 37.6404 11.5191C40.0682 12.5243 42.274 13.9988 44.1314 15.8582C45.9889 17.7176 47.4615 19.9253 48.4649 22.3549C49.4684 24.7846 49.9829 27.3884 49.9792 30.0172C49.9715 41.0563 41.0315 49.9971 29.9963 50C18.9419 50.0038 10 41.0468 10 29.9818C10.0048 18.9446 18.9467 10 29.9829 10ZM30.0011 12.8718C20.5607 12.8459 12.8952 20.5164 12.8617 29.9311C12.8282 39.4596 20.5301 47.1186 29.9532 47.1397C39.4558 47.1598 47.1146 39.4539 47.1156 30.0048C47.1156 20.5298 39.4443 12.8517 30.0011 12.8718Z" fill="#4205F0"/>
</g>
<path d="M30.0004 47.1599C20.5622 47.1666 12.8539 39.5044 12.8741 29.9723C12.8942 20.5217 20.5756 12.8585 30.0435 12.8738C39.4999 12.8891 47.1544 20.5667 47.1449 30.0403C47.1353 39.4776 39.4884 47.182 30.0004 47.1599Z" fill="#5C23FF"/>
<path d="M29.9521 20.5378C33.0347 26.8906 36.0923 33.1926 39.1844 39.5636C38.5253 39.2993 37.9334 39.0617 37.3404 38.8241C36.7896 38.6029 36.2417 38.373 35.6861 38.1641C35.4725 38.0837 35.3499 37.9553 35.2541 37.7475C33.527 34.0011 31.7923 30.2586 30.0585 26.5142C30.0307 26.4538 30.0019 26.3935 29.9512 26.2862C29.6073 27.0276 29.2826 27.7288 28.9588 28.43C27.5172 31.5441 26.0746 34.6563 24.6406 37.7733C24.5477 37.9754 24.4193 38.0808 24.2201 38.1594C23.1242 38.5914 22.0341 39.0349 20.9412 39.4736C20.8885 39.4947 20.8329 39.51 20.7285 39.5454C23.8101 33.1946 26.8687 26.8906 29.9521 20.5369V20.5378Z" fill="white"/>
<defs>
<filter id="filter0_d_176_1528" x="0" y="0" width="59.9795" height="60" filterUnits="userSpaceOnUse" color-interpolation-filters="sRGB">
<feFlood flood-opacity="0" result="BackgroundImageFix"/>
<feColorMatrix in="SourceAlpha" type="matrix" values="0 0 0 0 0 0 0 0 0 0 0 0 0 0 0 0 0 0 127 0" result="hardAlpha"/>
<feOffset/>
<feGaussianBlur stdDeviation="5"/>
<feComposite in2="hardAlpha" operator="out"/>
<feColorMatrix type="matrix" values="0 0 0 0 0.25935 0 0 0 0 0.019618 0 0 0 0 0.941667 0 0 0 0.5 0"/>
<feBlend mode="normal" in2="BackgroundImageFix" result="effect1_dropShadow_176_1528"/>
<feBlend mode="normal" in="SourceGraphic" in2="effect1_dropShadow_176_1528" result="shape"/>
</filter>
</defs>
</svg>
