<svg width="58" height="57" viewBox="0 0 58 57" fill="none" xmlns="http://www.w3.org/2000/svg">
<g filter="url(#filter0_d_59_578)">
<g filter="url(#filter1_d_59_578)">
<path d="M26.5138 34.0949C26.514 34.0949 26.5141 34.0952 26.514 34.0953C26.0785 34.5318 25.8593 35.0441 25.7673 35.6162C25.7494 35.7284 25.6891 35.7865 25.5803 35.8289C24.2089 36.3615 22.9462 36.1153 22.1449 34.7978C21.7979 34.2272 21.3476 33.7739 20.7048 33.5439C20.4208 33.4423 20.129 33.3915 19.831 33.4814C19.6067 33.549 19.5654 33.6695 19.7155 33.8476C19.8098 33.9598 19.9203 34.0681 20.0442 34.1446C20.7232 34.5644 21.1579 35.1869 21.429 35.9104C21.9463 37.2887 23.1978 37.9045 24.5866 37.8442C24.903 37.8303 25.2171 37.8046 25.5262 37.7365C25.6512 37.7091 25.6891 37.7398 25.6897 37.8671C25.6919 38.5085 25.7165 39.15 25.7031 39.7903C25.6914 40.3441 25.2908 40.602 24.7635 40.4094C21.154 39.0914 18.5767 36.6741 17.184 33.0839C15.1993 27.968 16.6723 22.3268 20.904 18.8477C23.6827 16.5633 26.9061 15.6204 30.471 16.1385C35.0162 16.7994 38.2697 19.296 40.1914 23.4522C41.4529 26.181 41.6097 29.0432 40.8012 31.9412C39.9319 35.0568 38.0856 37.4568 35.3805 39.2013C34.5916 39.7105 33.7373 40.099 32.8496 40.4094C32.281 40.6087 31.9016 40.3363 31.901 39.7183C31.9005 38.6403 31.9167 37.5623 31.9122 36.4843C31.9094 35.7898 31.8173 35.111 31.4234 34.512C31.2757 34.2871 31.348 34.0225 31.6155 33.9941C31.6422 33.9912 31.6688 33.9881 31.6951 33.9844C32.6136 33.856 33.4885 33.6009 34.2964 33.1342C35.2517 32.5815 35.914 31.7742 36.2945 30.7504C36.7213 29.6009 36.8491 28.4046 36.7102 27.1859C36.6042 26.2581 36.2393 25.4335 35.6372 24.7206C35.5234 24.5855 35.496 24.4722 35.5474 24.2986C35.8437 23.2998 35.7466 22.3173 35.4023 21.3459C35.3298 21.1416 35.1752 21.1818 35.0407 21.1868C34.4655 21.2086 33.9326 21.3978 33.4165 21.6373C32.9612 21.8489 32.5271 22.099 32.112 22.3804C31.9886 22.4641 31.8793 22.4892 31.727 22.4507C29.7824 21.955 27.8351 21.9539 25.89 22.4468C25.7282 22.4876 25.6127 22.4596 25.4794 22.3726C24.7785 21.9142 24.0593 21.4771 23.233 21.2957C22.1137 21.0495 22.2442 21.0662 22.0004 22.0504C21.8073 22.8303 21.8246 23.618 22.0768 24.3884C22.1109 24.4934 22.0936 24.5609 22.0266 24.6385C20.9057 25.9315 20.6981 27.4561 20.9062 29.0845C21.0396 30.1302 21.3308 31.1188 21.9814 31.9707C22.7899 33.0303 23.9148 33.5618 25.173 33.856C25.6049 33.957 26.0468 34.0129 26.5138 34.0949C26.5138 34.0949 26.5138 34.0949 26.5138 34.0949Z" fill="#4205F0"/>
</g>
</g>
<defs>
<filter id="filter0_d_59_578" x="0.312317" y="0" width="56.987" height="56.4739" filterUnits="userSpaceOnUse" color-interpolation-filters="sRGB">
<feFlood flood-opacity="0" result="BackgroundImageFix"/>
<feColorMatrix in="SourceAlpha" type="matrix" values="0 0 0 0 0 0 0 0 0 0 0 0 0 0 0 0 0 0 127 0" result="hardAlpha"/>
<feMorphology radius="6" operator="dilate" in="SourceAlpha" result="effect1_dropShadow_59_578"/>
<feOffset/>
<feGaussianBlur stdDeviation="5"/>
<feComposite in2="hardAlpha" operator="out"/>
<feColorMatrix type="matrix" values="0 0 0 0 0.141319 0 0 0 0 0.172333 0 0 0 0 0.916667 0 0 0 0.25 0"/>
<feBlend mode="normal" in2="BackgroundImageFix" result="effect1_dropShadow_59_578"/>
<feBlend mode="normal" in="SourceGraphic" in2="effect1_dropShadow_59_578" result="shape"/>
</filter>
<filter id="filter1_d_59_578" x="0.312317" y="0" width="56.987" height="56.4739" filterUnits="userSpaceOnUse" color-interpolation-filters="sRGB">
<feFlood flood-opacity="0" result="BackgroundImageFix"/>
<feColorMatrix in="SourceAlpha" type="matrix" values="0 0 0 0 0 0 0 0 0 0 0 0 0 0 0 0 0 0 127 0" result="hardAlpha"/>
<feMorphology radius="6" operator="dilate" in="SourceAlpha" result="effect1_dropShadow_59_578"/>
<feOffset/>
<feGaussianBlur stdDeviation="5"/>
<feComposite in2="hardAlpha" operator="out"/>
<feColorMatrix type="matrix" values="0 0 0 0 0.141319 0 0 0 0 0.172333 0 0 0 0 0.916667 0 0 0 0.25 0"/>
<feBlend mode="normal" in2="BackgroundImageFix" result="effect1_dropShadow_59_578"/>
<feBlend mode="normal" in="SourceGraphic" in2="effect1_dropShadow_59_578" result="shape"/>
</filter>
</defs>
</svg>
