<svg width="65" height="67" viewBox="0 0 65 67" fill="none" xmlns="http://www.w3.org/2000/svg">
<g filter="url(#filter0_d_509_352)">
<g filter="url(#filter1_d_509_352)">
<path d="M53.4652 49.0883H48.5666C46.9333 49.2141 47.059 50.0935 47.059 51.9791L36.36 52.0269C36.36 51.7341 36.3817 50.9631 36.3817 50.7224C36.3817 49.9688 36.1303 49.0883 34.9999 49.0883C33.8695 49.0883 31.6348 49.0829 30.4773 49.0883C29.1508 49.0948 28.7411 49.2846 28.7183 50.5966C28.714 50.8699 28.6685 51.7634 28.6685 52.0431L17.7896 52.1049V50.4708C17.7896 49.6337 17.2867 49.0883 16.2821 49.0883C14.9002 49.0883 12.4585 49.0742 11.7595 49.0883C10.5554 49.1122 10.0124 49.6478 10.0005 50.8482C9.99075 51.8024 10.1262 54.1663 10.1262 55.1216C10.1262 56.6299 10.6291 56.8814 12.0109 56.8814C12.3924 56.8814 16.9345 56.901 16.9096 56.7557C17.9142 56.6299 17.9142 55.8763 17.8535 53.9613H28.6685C28.6685 54.2595 28.7086 54.9524 28.7183 55.2484C28.7574 56.4412 29.1562 56.8652 30.3516 56.8825C31.5698 56.8999 33.7817 56.8966 34.9999 56.8825C36.101 56.8706 36.3535 56.4748 36.3817 55.3742C36.3893 55.0858 36.36 54.2714 36.36 53.9505L47.1858 53.9917V55.6258C47.1858 56.541 47.7917 56.9129 48.5676 56.8825C49.9495 56.8825 52.2102 56.8999 53.3417 56.8825C54.6411 56.863 54.9608 56.4249 54.9749 55.1226C54.9858 54.1879 54.9749 52.2849 54.9749 51.3524C54.9749 49.4667 54.9749 49.0905 53.4674 49.0905L53.4652 49.0883Z" fill="#4205F0"/>
</g>
<g filter="url(#filter2_d_509_352)">
<path d="M35.2663 20.7389C34.6832 20.6522 34.0763 20.7216 33.4629 20.7216V23.7241C33.995 23.7241 34.4946 23.7393 34.9943 23.7209C35.8006 23.6916 36.3891 23.1429 36.4617 22.3806C36.5386 21.5706 36.0704 20.8582 35.2674 20.7389H35.2663Z" fill="#4205F0"/>
<path d="M45.9588 21.6379C45.0084 16.1977 41.9012 12.4503 36.6785 10.7489C31.5663 9.08447 26.8606 10.2078 23.0273 13.9846C18.8417 18.1072 17.991 23.1288 19.7846 28.6405C21.1198 32.7426 23.3958 36.3382 25.9307 39.7842C26.3154 40.308 26.7099 40.8241 27.1131 41.3338L29.984 44.7516C30.5378 45.3729 31.1046 45.9834 31.6801 46.5841C32.2968 47.2282 32.7715 47.2445 33.373 46.582C34.6551 45.1691 35.9545 43.767 37.164 42.2934C40.1086 38.7042 42.7422 34.908 44.5445 30.5966C45.7432 27.7307 46.5072 24.7705 45.9599 21.64L45.9588 21.6379ZM29.5202 28.3217C29.5169 29.071 29.2178 29.4473 28.638 29.4592C28.0376 29.4722 27.6951 29.0688 27.6929 28.3065C27.6875 25.5295 27.6853 22.7526 27.6951 19.9756C27.6983 19.0853 28.4526 18.5453 29.0671 19.0116C29.311 19.197 29.492 19.6123 29.5017 19.93C29.5473 21.3679 29.5212 22.8078 29.5223 24.2468C29.5223 25.6044 29.5267 26.963 29.5212 28.3206L29.5202 28.3217ZM34.9434 25.5566C34.4632 25.5632 33.9821 25.5566 33.4282 25.5566C33.4282 26.4111 33.4293 27.1972 33.4282 27.9823C33.4282 28.2252 33.4412 28.4724 33.4022 28.711C33.3285 29.1686 33.0403 29.4288 32.5764 29.4548C32.1147 29.4809 31.7907 29.264 31.6649 28.8162C31.6064 28.6058 31.601 28.3759 31.5999 28.1547C31.5956 25.497 31.5956 22.8404 31.5978 20.1827C31.5978 19.1276 31.8806 18.8478 32.9308 18.8457C33.6201 18.8446 34.3104 18.8305 34.9986 18.8511C36.8996 18.9097 38.3377 20.4039 38.3063 22.2689C38.2749 24.121 36.8356 25.5295 34.9434 25.5556V25.5566Z" fill="#4205F0"/>
</g>
</g>
<defs>
<filter id="filter0_d_509_352" x="7" y="7" width="50.9795" height="52.8945" filterUnits="userSpaceOnUse" color-interpolation-filters="sRGB">
<feFlood flood-opacity="0" result="BackgroundImageFix"/>
<feColorMatrix in="SourceAlpha" type="matrix" values="0 0 0 0 0 0 0 0 0 0 0 0 0 0 0 0 0 0 127 0" result="hardAlpha"/>
<feOffset/>
<feGaussianBlur stdDeviation="1.5"/>
<feComposite in2="hardAlpha" operator="out"/>
<feColorMatrix type="matrix" values="0 0 0 0 0.25935 0 0 0 0 0.019618 0 0 0 0 0.941667 0 0 0 0.3 0"/>
<feBlend mode="normal" in2="BackgroundImageFix" result="effect1_dropShadow_509_352"/>
<feBlend mode="normal" in="SourceGraphic" in2="effect1_dropShadow_509_352" result="shape"/>
</filter>
<filter id="filter1_d_509_352" x="0" y="39.082" width="64.9795" height="27.8125" filterUnits="userSpaceOnUse" color-interpolation-filters="sRGB">
<feFlood flood-opacity="0" result="BackgroundImageFix"/>
<feColorMatrix in="SourceAlpha" type="matrix" values="0 0 0 0 0 0 0 0 0 0 0 0 0 0 0 0 0 0 127 0" result="hardAlpha"/>
<feOffset/>
<feGaussianBlur stdDeviation="5"/>
<feComposite in2="hardAlpha" operator="out"/>
<feColorMatrix type="matrix" values="0 0 0 0 0.25935 0 0 0 0 0.019618 0 0 0 0 0.941667 0 0 0 0.3 0"/>
<feBlend mode="normal" in2="BackgroundImageFix" result="effect1_dropShadow_509_352"/>
<feBlend mode="normal" in="SourceGraphic" in2="effect1_dropShadow_509_352" result="shape"/>
</filter>
<filter id="filter2_d_509_352" x="8.89746" y="0" width="47.2427" height="57.0723" filterUnits="userSpaceOnUse" color-interpolation-filters="sRGB">
<feFlood flood-opacity="0" result="BackgroundImageFix"/>
<feColorMatrix in="SourceAlpha" type="matrix" values="0 0 0 0 0 0 0 0 0 0 0 0 0 0 0 0 0 0 127 0" result="hardAlpha"/>
<feOffset/>
<feGaussianBlur stdDeviation="5"/>
<feComposite in2="hardAlpha" operator="out"/>
<feColorMatrix type="matrix" values="0 0 0 0 0.25935 0 0 0 0 0.019618 0 0 0 0 0.941667 0 0 0 0.3 0"/>
<feBlend mode="normal" in2="BackgroundImageFix" result="effect1_dropShadow_509_352"/>
<feBlend mode="normal" in="SourceGraphic" in2="effect1_dropShadow_509_352" result="shape"/>
</filter>
</defs>
</svg>
