<svg width="65" height="58" viewBox="0 0 65 58" fill="none" xmlns="http://www.w3.org/2000/svg">
<g filter="url(#filter0_d_509_370)">
<path d="M53.674 40.0007H52.2616V31.2244C52.2616 31.0288 52.103 30.8701 51.9074 30.8701H34.0381C33.8425 30.8701 33.6839 30.7114 33.6839 30.5157V22.0655H37.1604C37.8775 22.0655 38.4641 21.4785 38.4641 20.7611V11.3044C38.4641 10.587 37.8775 10 37.1604 10H27.7086C26.9916 10 26.4049 10.587 26.4049 11.3044V20.7611C26.4049 21.4785 26.9916 22.0655 27.7086 22.0655H31.2938V30.5157C31.2938 30.7114 31.1352 30.8701 30.9396 30.8701H13.0702C12.8747 30.8701 12.716 31.0288 12.716 31.2244V39.7833H11.3037C10.5867 39.7833 10 40.3703 10 41.0877V46.3052C10 47.0226 10.5867 47.6096 11.3037 47.6096H16.5185C17.2355 47.6096 17.8222 47.0226 17.8222 46.3052V41.0877C17.8222 40.3703 17.2355 39.7833 16.5185 39.7833H15.1062V33.5071C15.1062 33.3114 15.2648 33.1527 15.4603 33.1527H30.9396C31.1352 33.1527 31.2938 33.3114 31.2938 33.5071V40.0007H29.7728C29.0558 40.0007 28.4691 40.5877 28.4691 41.3051V46.5226C28.4691 47.24 29.0558 47.827 29.7728 47.827H34.9876C35.7046 47.827 36.2913 47.24 36.2913 46.5226V41.3051C36.2913 40.5877 35.7046 40.0007 34.9876 40.0007H33.6839V33.5071C33.6839 33.3114 33.8425 33.1527 34.0381 33.1527H49.5162C49.7118 33.1527 49.8704 33.3114 49.8704 33.5071V40.0007H48.4581C47.741 40.0007 47.1544 40.5877 47.1544 41.3051V46.5226C47.1544 47.24 47.741 47.827 48.4581 47.827H53.6729C54.3899 47.827 54.9766 47.24 54.9766 46.5226V41.3051C54.9766 40.5877 54.3899 40.0007 53.6729 40.0007H53.674Z" fill="#4205F0"/>
</g>
<defs>
<filter id="filter0_d_509_370" x="0" y="0" width="64.9766" height="57.8262" filterUnits="userSpaceOnUse" color-interpolation-filters="sRGB">
<feFlood flood-opacity="0" result="BackgroundImageFix"/>
<feColorMatrix in="SourceAlpha" type="matrix" values="0 0 0 0 0 0 0 0 0 0 0 0 0 0 0 0 0 0 127 0" result="hardAlpha"/>
<feOffset/>
<feGaussianBlur stdDeviation="5"/>
<feComposite in2="hardAlpha" operator="out"/>
<feColorMatrix type="matrix" values="0 0 0 0 0.25935 0 0 0 0 0.019618 0 0 0 0 0.941667 0 0 0 0.3 0"/>
<feBlend mode="normal" in2="BackgroundImageFix" result="effect1_dropShadow_509_370"/>
<feBlend mode="normal" in="SourceGraphic" in2="effect1_dropShadow_509_370" result="shape"/>
</filter>
</defs>
</svg>
