<svg width="70" height="38" viewBox="0 0 70 38" fill="none" xmlns="http://www.w3.org/2000/svg">
<path d="M52.9059 0C58.5847 12.6886 64.2201 25.276 69.9163 38C68.7019 37.4725 67.6113 36.9968 66.5186 36.5234C65.504 36.0807 64.4938 35.6238 63.4706 35.2046C63.0774 35.0445 62.8514 34.7878 62.6755 34.3733C59.4928 26.8915 56.2971 19.4145 53.1036 11.9374C53.0514 11.8173 52.9993 11.6972 52.9059 11.4805C52.2737 12.9618 51.6741 14.3607 51.0767 15.7619C48.4219 21.9814 45.7628 28.1986 43.1189 34.4251C42.9473 34.8278 42.7105 35.0398 42.3455 35.1976C40.3273 36.0595 38.3177 36.9473 36.3039 37.8234C36.2061 37.8658 36.104 37.8964 35.9106 37.967C41.5895 25.2807 47.2249 12.691 52.9059 0Z" fill="#4205F0"/>
<path d="M36.4628 32.9426L25.5288 9.2373H30.0801L38.8526 27.764" fill="white"/>
<path opacity="0.3" d="M33.4692 16.4647L31.4292 22.1332L25.5288 9.2373H30.0801L33.4692 16.4647Z" fill="url(#paint0_linear_343_338)"/>
<path opacity="0.3" d="M32.6909 24.5802L35.0155 19.4863L38.852 27.7617L36.4623 32.9403L32.6909 24.5802Z" fill="url(#paint1_linear_343_338)"/>
<path d="M29.0327 36.289H24.2793L36.2322 9.2373H40.9052L29.0327 36.289Z" fill="white"/>
<path d="M21.6725 9.47014C21.1598 7.68742 20.4538 6.14962 19.5587 4.85673L19.5848 4.79786L19.4892 4.75547C19.0308 4.10785 18.5246 3.5191 17.9685 2.99629C16.2848 1.41375 14.0971 0.620117 11.4033 0.620117C8.70943 0.620117 6.52827 1.41139 4.85981 2.99629C3.18918 4.57884 1.96174 6.73836 1.17748 9.47014C0.393217 12.2043 0 15.2775 0 18.6923C0 22.107 0.393217 25.1826 1.17748 27.9144C1.70104 29.7348 2.4223 31.3008 3.33908 32.6102L3.3065 32.6832L3.38036 32.6738C3.82789 33.3049 4.32104 33.8772 4.85981 34.3882C6.52827 35.9708 8.7116 36.7644 11.4033 36.7644C14.095 36.7644 16.2848 35.9731 17.9685 34.3882C19.6522 32.8033 20.8861 30.6461 21.6725 27.9144C22.4568 25.1826 22.85 22.1093 22.85 18.6923C22.85 15.2752 22.4568 12.2043 21.6725 9.47014ZM4.33407 26.1434C3.83006 23.9698 3.57588 21.4853 3.57588 18.6923C3.57588 15.8992 3.82789 13.4147 4.33407 11.2411C4.83809 9.06744 5.6658 7.35301 6.81721 6.09545C7.96644 4.83789 9.49586 4.20911 11.4033 4.20911C12.9414 4.20911 14.2318 4.6071 15.2746 5.40309L5.11399 28.5643C4.80116 27.8319 4.54046 27.0265 4.33407 26.1434ZM18.516 26.1434C18.0119 28.3171 17.1821 30.0315 16.0328 31.2891C14.8814 32.5466 13.339 33.1754 11.4033 33.1754C9.94122 33.1754 8.70291 32.8057 7.68619 32.0662L7.80785 32.0497L17.7925 8.94498C18.0815 9.64206 18.3226 10.4074 18.516 11.2387C19.02 13.4124 19.2741 15.8969 19.2741 18.6899C19.2741 21.4829 19.0221 23.9698 18.516 26.1411V26.1434Z" fill="white"/>
<defs>
<linearGradient id="paint0_linear_343_338" x1="28.97" y1="14.2652" x2="35.0097" y2="18.3567" gradientUnits="userSpaceOnUse">
<stop offset="0.53" stop-opacity="0"/>
<stop offset="1"/>
</linearGradient>
<linearGradient id="paint1_linear_343_338" x1="36.8403" y1="27.173" x2="31.4946" y2="23.2142" gradientUnits="userSpaceOnUse">
<stop offset="0.37" stop-opacity="0"/>
<stop offset="0.98"/>
</linearGradient>
</defs>
</svg>
