<svg width="16" height="15" viewBox="0 0 16 15" fill="none" xmlns="http://www.w3.org/2000/svg">
<path d="M5.00128 14.991C3.81849 14.991 2.6357 14.991 1.4529 14.991C0.992619 14.9907 0.765992 14.7646 0.765992 14.3014C0.765992 12.0467 0.746241 9.79195 0.770678 7.53588C0.800806 4.76436 1.99788 2.61246 4.32274 1.10529C5.32573 0.455869 6.48127 0.0806886 7.67428 0.0171104C10.4862 -0.150353 12.7341 0.912035 14.3961 3.17781C15.2055 4.28106 15.6481 5.53938 15.7328 6.90923C15.8975 9.58362 14.9233 11.7657 12.8328 13.4316C11.6783 14.3513 10.3426 14.8788 8.86499 14.9515C7.69102 15.0094 6.51235 14.9813 5.33603 14.991C5.22456 14.9917 5.11275 14.991 5.00128 14.991ZM1.93796 13.8188H2.15321C4.12222 13.8188 6.09123 13.8218 8.06058 13.8161C8.41174 13.8184 8.76267 13.7974 9.11104 13.7531C11.0051 13.4926 12.4833 12.5447 13.5435 10.9669C14.4215 9.66066 14.7396 8.2044 14.527 6.64364C14.2689 4.74795 13.3185 3.26925 11.7422 2.2082C10.4367 1.32935 8.98115 1.0105 7.4212 1.22285C5.52617 1.48074 4.05426 2.43528 2.98574 4.00709C2.25564 5.0812 1.93562 6.2846 1.93729 7.58143C1.93997 9.59099 1.93997 11.6006 1.93729 13.6101L1.93796 13.8188Z" fill="#707070"/>
<path d="M8.1667 4.08982C8.79704 4.09685 9.38654 4.23149 9.86222 4.67829C10.3644 5.1512 10.4805 5.88871 10.1712 6.509C9.95964 6.93301 9.65267 7.27196 9.29114 7.56938C9.17933 7.66115 9.06919 7.75626 8.96509 7.85708C8.8615 7.95527 8.77885 8.07344 8.72212 8.20444C8.66539 8.33545 8.63577 8.4766 8.63502 8.61937C8.63335 8.69741 8.63268 8.77578 8.62933 8.85382C8.61661 9.16162 8.5048 9.28487 8.20018 9.3264C8.16684 9.33027 8.13331 9.33229 8.09975 9.33243C7.62909 9.35052 7.47745 9.20583 7.46372 8.73124C7.4423 8.01885 7.69504 7.4411 8.26713 7.00033C8.49476 6.8255 8.72407 6.63192 8.89245 6.4045C9.24896 5.92154 9.0076 5.37828 8.41408 5.2825C7.93438 5.20546 7.50389 5.26943 7.20898 5.72594C6.99909 6.05283 6.7671 6.11713 6.46147 5.96441C6.19367 5.83044 6.0909 5.53302 6.20104 5.20044C6.33494 4.8002 6.61646 4.53293 6.98168 4.34704C7.35493 4.15815 7.75462 4.08614 8.1667 4.08982Z" fill="#707070"/>
<path d="M8.03689 11.614C7.83139 11.6126 7.63466 11.5305 7.48925 11.3853C7.34385 11.24 7.26144 11.0434 7.25986 10.8379C7.25752 10.4059 7.61924 10.0371 8.04024 10.0425C8.46124 10.0478 8.81593 10.4049 8.82296 10.8242C8.83 11.2435 8.4656 11.6126 8.03689 11.614Z" fill="#707070"/>
</svg>
