<svg width="15" height="16" viewBox="0 0 15 16" fill="none" xmlns="http://www.w3.org/2000/svg">
<path d="M12.5311 6.31033C12.5184 7.7579 12.0669 9.05397 11.1616 10.1864C11.0845 10.2829 11.0927 10.3306 11.1752 10.4162C12.3565 11.6379 13.5339 12.8635 14.7119 14.0886C15.0255 14.4146 15.085 14.7875 14.881 15.1363C14.6281 15.5683 14.0434 15.6694 13.6626 15.3452C13.6013 15.293 13.5442 15.235 13.4884 15.1767C12.3134 13.9559 11.1379 12.7354 9.9663 11.5116C9.88858 11.4302 9.83818 11.4233 9.74558 11.4864C8.84966 12.0957 7.85598 12.4406 6.77941 12.5247C5.48638 12.6255 4.26954 12.3571 3.14349 11.7029C2.13645 11.1178 1.34769 10.316 0.783301 9.29958C0.173368 8.20176 -0.0761914 7.02258 0.0200499 5.76931C0.102933 4.69335 0.45177 3.70848 1.0447 2.81346C1.64188 1.91207 2.42608 1.20924 3.38637 0.707689C4.35121 0.203409 5.3792 -0.0312743 6.46609 0.0033361C7.7485 0.0443222 8.91372 0.441735 9.94718 1.20165C11.334 2.22144 12.1698 3.58825 12.4671 5.28295C12.4992 5.46662 12.5168 5.65395 12.5287 5.84036C12.5387 5.99641 12.5308 6.15367 12.5308 6.31033H12.5311ZM6.27786 1.63731C3.72823 1.63033 1.64037 3.71515 1.63763 6.27025C1.6349 8.82171 3.72428 10.9117 6.273 10.9074C8.82628 10.9029 10.8856 8.84661 10.9044 6.2827C10.9233 3.74157 8.83448 1.6443 6.27786 1.63701V1.63731Z" fill="white"/>
</svg>
