<?xml version="1.0" encoding="utf-8"?>
<!-- Generator: Adobe Illustrator 26.2.1, SVG Export Plug-In . SVG Version: 6.00 Build 0)  -->
<svg version="1.1" id="Layer_1" xmlns="http://www.w3.org/2000/svg" xmlns:xlink="http://www.w3.org/1999/xlink" x="0px" y="0px"
	 viewBox="0 0 1173.68 196.54" style="enable-background:new 0 0 1173.68 196.54;" xml:space="preserve">
<style type="text/css">
	.st0{fill:#4205F0;}
</style>
<g>
	<g>
		<path d="M650.76,95.89H597.4v36.65h58.84l-2.65,17.73h-77.09V28.96h76.6v17.85H597.4v31.18h53.36V95.89z"/>
		<path d="M718.03,46.86h-33.78v-17.9h89.19v17.9h-33.83v103.41h-21.58V46.86z"/>
		<path d="M807.11,28.96h21.4v48.98h48.56V28.96h21.46v121.32h-21.46V95.84h-48.56v54.43h-21.4V28.96z"/>
		<path d="M1018.94,95.89h-53.36v36.65h58.84l-2.65,17.73h-77.09V28.96h76.6v17.85h-55.69v31.18h53.36V95.89z"/>
		<path d="M1081.59,98.42v51.85h-21.09V28.96h47.2c22.39,0,38.31,11.11,38.31,32.28c0,16.88-9.3,24.77-19.23,28.36
			c12.25,4.45,16.95,14.13,16.95,29.68v2.83c0,10.91,0.5,21.24,1.64,28.16h-20.77c-1.71-5.02-2.19-14.23-2.19-28.38v-2.93
			c0-15.02-5.45-20.54-22.72-20.54H1081.59z M1081.59,81.24h19.81c13.15,0,23.25-3.62,23.25-18.27c0-11.83-8.32-16.84-19.79-16.84
			h-23.27V81.24z"/>
	</g>
	<g>
		<path class="st0" d="M486.15,18.98c20.88,43.03,41.59,85.71,62.53,128.87c-4.46-1.79-8.48-3.4-12.49-5.01
			c-3.73-1.5-7.44-3.05-11.21-4.47c-1.45-0.54-2.28-1.42-2.93-2.82c-11.7-25.38-23.45-50.73-35.19-76.09
			c-0.19-0.41-0.38-0.82-0.72-1.55c-2.33,5.02-4.53,9.77-6.73,14.52c-9.76,21.09-19.54,42.18-29.25,63.29
			c-0.63,1.37-1.5,2.09-2.85,2.62c-7.42,2.93-14.81,5.93-22.21,8.9c-0.36,0.14-0.73,0.25-1.44,0.49
			C444.55,104.71,465.27,62.02,486.15,18.98z"/>
	</g>
	<g>
		<path d="M36.3,46.86H2.53v-17.9h89.19v17.9H57.89v103.41H36.3V46.86z"/>
		<path d="M125.39,28.96h21.4v48.98h48.56V28.96h21.46v121.32h-21.46V95.84h-48.56v54.43h-21.4V28.96z"/>
		<path d="M337.21,95.89h-53.36v36.65h58.84l-2.65,17.73h-77.09V28.96h76.6v17.85h-55.69v31.18h53.36V95.89z"/>
	</g>
</g>
</svg>
