<svg width="56" height="53" viewBox="0 0 56 53" fill="none" xmlns="http://www.w3.org/2000/svg">
<g filter="url(#filter0_d_59_572)">
<path d="M20.3177 33.7035C18.9654 34.288 18.6299 36.2062 20.0702 36.5158C22.0591 36.9433 24.1172 36.9213 26.2308 36.4669C32.7044 35.0746 37.3511 29.6848 37.8078 23.042C37.8872 21.8288 38.066 20.8145 39.1581 20.0786C39.3132 19.9727 39.4508 19.8392 39.5878 19.6825C39.8665 19.3638 39.4206 18.8766 39.0097 18.979C38.6087 19.0789 38.4035 18.5884 38.6484 18.2555C38.9701 17.8184 39.2883 17.387 39.6063 16.9612C39.6658 16.8814 39.652 16.7672 39.5761 16.7027C39.5277 16.6616 39.4597 16.6526 39.4009 16.6765C38.8942 16.8824 38.372 17.0883 37.8674 17.2942C37.0731 17.6323 36.4376 17.6522 35.6433 17.0357C33.9951 15.7628 32.069 15.7031 30.2222 16.6379C28.3556 17.5925 27.462 19.2234 27.4223 21.3316C27.4223 21.9349 26.9117 22.4164 26.3135 22.3382C23.2666 21.9399 20.6728 20.7181 18.4197 18.7328C17.555 17.9709 16.1313 18.1901 16.0447 19.3393C15.95 20.5955 16.3021 21.7516 17.0133 22.8586C17.2347 23.2034 16.9679 23.7092 16.569 23.6153C16.2988 23.5517 15.9965 23.755 16.0317 24.0304C16.2511 25.7487 17.1161 26.955 18.5405 27.8646C18.8857 28.085 18.8213 28.6998 18.4129 28.7311C18.0906 28.7558 17.8757 29.1456 18.077 29.3985C18.6281 30.0906 19.0709 30.7079 19.658 31.1566C19.8337 31.2875 20.0208 31.4041 20.2158 31.5114C21.1713 32.0373 21.3189 33.2708 20.3177 33.7035Z" fill="#4205F0"/>
</g>
<defs>
<filter id="filter0_d_59_572" x="0.0288696" y="0" width="55.6458" height="52.8225" filterUnits="userSpaceOnUse" color-interpolation-filters="sRGB">
<feFlood flood-opacity="0" result="BackgroundImageFix"/>
<feColorMatrix in="SourceAlpha" type="matrix" values="0 0 0 0 0 0 0 0 0 0 0 0 0 0 0 0 0 0 127 0" result="hardAlpha"/>
<feMorphology radius="6" operator="dilate" in="SourceAlpha" result="effect1_dropShadow_59_572"/>
<feOffset/>
<feGaussianBlur stdDeviation="5"/>
<feComposite in2="hardAlpha" operator="out"/>
<feColorMatrix type="matrix" values="0 0 0 0 0.141319 0 0 0 0 0.172333 0 0 0 0 0.916667 0 0 0 0.25 0"/>
<feBlend mode="normal" in2="BackgroundImageFix" result="effect1_dropShadow_59_572"/>
<feBlend mode="normal" in="SourceGraphic" in2="effect1_dropShadow_59_572" result="shape"/>
</filter>
</defs>
</svg>
