<svg width="65" height="65" viewBox="0 0 65 65" fill="none" xmlns="http://www.w3.org/2000/svg">
<g filter="url(#filter0_d_201_292)">
<path d="M33.8999 47.0989C33.1967 47.0989 32.4935 47.1077 31.7911 47.0971C30.3205 47.0752 29.1664 45.9184 29.1628 44.4723C29.1593 43.0228 30.3073 41.8467 31.7718 41.8309C33.2363 41.815 34.7007 41.8203 36.1652 41.83C36.937 41.8353 37.4952 42.3891 37.5066 43.1573C37.5198 44.0355 37.5215 44.9145 37.5057 45.7935C37.4916 46.5363 36.9317 47.0734 36.1845 47.0998C36.1696 47.0998 36.1555 47.0998 36.1406 47.0998C35.3934 47.0998 34.6471 47.0998 33.8999 47.0998V47.0989Z" fill="#4205F0"/>
<path d="M40.4965 31.0901C37.6415 31.0901 34.7855 31.0919 31.9304 31.0901C29.4322 31.0883 27.7542 29.4059 27.7533 26.8998C27.7515 22.6532 27.7515 18.4075 27.7533 14.1609C27.755 11.6873 29.441 10.0022 31.9155 10.0013C37.6415 9.99956 43.3666 9.99956 49.0926 10.0013C51.5407 10.0022 53.2319 11.6908 53.2372 14.1345C53.2372 14.4984 53.3629 14.9854 53.1792 15.1937C52.9638 15.4372 52.4654 15.2579 52.0909 15.2711C50.8629 15.3159 49.6288 15.1691 48.4069 15.3555C45.9008 15.7379 44.0065 17.9926 44.0109 20.5593C44.0153 23.1208 45.9175 25.3703 48.4368 25.7351C49.8327 25.9372 51.2436 25.7834 52.6474 25.8159C53.2381 25.83 53.2381 25.8186 53.2381 26.4154C53.2381 26.9859 53.2609 27.5564 53.1124 28.1172C52.6482 29.8726 51.117 31.0795 49.2824 31.0875C46.3535 31.1006 43.4255 31.091 40.4965 31.091V31.0901Z" fill="#4205F0"/>
<path d="M22.7209 54.9916C19.8658 54.9916 17.0098 54.9934 14.1547 54.9916C11.6873 54.989 10.0031 53.2986 10.0013 50.8224C9.99956 46.5758 9.99956 42.3301 10.0013 38.0835C10.0022 35.5809 11.682 33.9037 14.1873 33.9029C19.8983 33.902 25.6094 33.9011 31.3204 33.9029C33.7984 33.9029 35.4844 35.5853 35.4835 38.0598C35.4835 38.4211 35.6461 38.9133 35.4167 39.1067C35.1996 39.2896 34.7231 39.1639 34.3601 39.1753C33.118 39.2148 31.8689 39.0698 30.6321 39.2606C28.1691 39.6412 26.2739 41.8792 26.2598 44.3976C26.2449 46.9529 28.1093 49.212 30.5767 49.6322C30.9389 49.6937 31.3011 49.7236 31.6685 49.7219C32.8402 49.7166 34.0111 49.7184 35.1829 49.7219C35.3077 49.7219 35.4905 49.6436 35.4879 49.9003C35.4791 50.8048 35.5661 51.7217 35.1679 52.577C34.4436 54.1311 33.22 54.9328 31.5068 54.9916C31.4777 54.9925 31.4479 54.9916 31.4189 54.9916C28.5198 54.9916 25.6199 54.9916 22.7209 54.9916Z" fill="#4205F0"/>
<path d="M47.8778 40.0863C47.8778 41.4918 47.8804 42.8965 47.8778 44.3021C47.876 45.2338 47.3416 45.7639 46.4037 45.7648C44.7493 45.7674 43.0959 45.7674 41.4416 45.7648C40.5634 45.7639 39.9613 45.2145 39.9701 44.4313C39.9789 43.6665 40.5748 43.1312 41.4284 43.1295C42.5702 43.1268 43.7121 43.1127 44.8531 43.1382C45.1985 43.1461 45.2504 43.0372 45.2486 42.7242C45.2354 40.3974 45.2372 38.0698 45.2434 35.7421C45.246 34.7224 46.1804 34.0579 47.0682 34.4482C47.6167 34.689 47.8787 35.1373 47.8787 35.7377C47.8778 37.1863 47.8787 38.6359 47.8787 40.0845L47.8778 40.0863Z" fill="#4205F0"/>
<path d="M17.1197 24.923C17.1197 23.5324 17.1188 22.1418 17.1197 20.7511C17.1205 19.7482 17.6321 19.2278 18.6202 19.2269C20.2595 19.2251 21.8989 19.2251 23.5383 19.2269C24.4279 19.2269 25.0265 19.7587 25.0274 20.5419C25.0283 21.3269 24.4305 21.8605 23.5427 21.8622C22.4448 21.864 21.3469 21.8781 20.2499 21.8543C19.8719 21.8455 19.74 21.9176 19.7444 22.3369C19.769 24.6496 19.762 26.9624 19.7532 29.2742C19.7488 30.2877 18.7863 30.9391 17.9055 30.5303C17.379 30.2868 17.1197 29.8517 17.1197 29.2689C17.1197 27.8203 17.1197 26.3708 17.1197 24.9221V24.923Z" fill="#4205F0"/>
<path d="M51.43 17.9089C52.1473 17.9089 52.8654 17.9045 53.5827 17.9098C54.4363 17.916 54.9874 18.4566 54.9944 19.3031C55.0015 20.1382 55.0023 20.9724 54.9944 21.8074C54.9856 22.6267 54.4319 23.1761 53.6065 23.1796C52.171 23.1866 50.7355 23.1901 49.301 23.1796C47.804 23.1673 46.6445 22.0017 46.6489 20.5355C46.6533 19.0719 47.8172 17.9256 49.3221 17.9116C50.0253 17.9045 50.7276 17.9107 51.4309 17.9107L51.43 17.9089Z" fill="#4205F0"/>
</g>
<defs>
<filter id="filter0_d_201_292" x="0" y="0" width="65" height="64.9922" filterUnits="userSpaceOnUse" color-interpolation-filters="sRGB">
<feFlood flood-opacity="0" result="BackgroundImageFix"/>
<feColorMatrix in="SourceAlpha" type="matrix" values="0 0 0 0 0 0 0 0 0 0 0 0 0 0 0 0 0 0 127 0" result="hardAlpha"/>
<feOffset/>
<feGaussianBlur stdDeviation="5"/>
<feComposite in2="hardAlpha" operator="out"/>
<feColorMatrix type="matrix" values="0 0 0 0 0.25935 0 0 0 0 0.019618 0 0 0 0 0.941667 0 0 0 0.3 0"/>
<feBlend mode="normal" in2="BackgroundImageFix" result="effect1_dropShadow_201_292"/>
<feBlend mode="normal" in="SourceGraphic" in2="effect1_dropShadow_201_292" result="shape"/>
</filter>
</defs>
</svg>
