<svg width="61" height="60" viewBox="0 0 61 60" fill="none" xmlns="http://www.w3.org/2000/svg">
<g filter="url(#filter0_d_38_302)">
<path d="M10.4575 29.9603C10.469 18.9295 19.4252 9.99235 30.4624 10C41.5187 10.0077 50.4501 18.9688 50.4367 30.0388C50.4223 41.0743 41.468 50.0086 30.4308 50C19.3774 49.9914 10.446 41.0312 10.4575 29.9603ZM30.4385 47.132C39.9209 47.153 47.5645 39.4527 47.5731 30.0206C47.5827 20.554 39.9324 12.8795 30.4806 12.8651C21.0288 12.8508 13.3422 20.4985 13.3202 29.9555C13.2991 39.4843 21.0048 47.1425 30.4385 47.132Z" fill="#D73333"/>
</g>
<path d="M30.4385 47.132C21.0049 47.1425 13.2991 39.4842 13.3202 29.9555C13.3422 20.4985 21.024 12.8508 30.4806 12.8651C39.9372 12.8795 47.5798 20.554 47.5731 30.0206C47.5636 39.4527 39.9257 47.153 30.4385 47.132ZM23.0016 37.8463C23.8627 37.8463 24.7238 37.8416 25.5849 37.8463C26.7751 37.8559 27.6649 37.3524 28.2542 36.3147C30.1237 33.0178 31.9712 29.7094 33.8781 26.4317C34.6435 25.1222 34.6683 23.9093 33.8781 22.617C33.0524 21.2768 32.3023 19.8849 31.512 18.5207C31.2604 18.0842 31.0547 17.5778 30.427 17.5635C29.7736 17.5539 29.5573 18.0718 29.299 18.5207C27.1807 22.2446 25.0647 25.97 22.9509 29.697C21.711 31.8844 20.4719 34.0565 19.2597 36.2448C18.7364 37.1925 19.1363 37.8282 20.227 37.8454C21.1541 37.8569 22.0783 37.8483 23.0016 37.8492V37.8463ZM37.2028 37.8463C38.4131 37.8463 39.6234 37.8674 40.8328 37.8387C41.7053 37.8186 42.1253 37.1399 41.7015 36.3951C40.5062 34.2891 39.2866 32.1993 38.0428 30.1259C37.5932 29.3773 36.8086 29.3888 36.357 30.1431C35.1413 32.1802 33.9476 34.2301 32.7759 36.2927C32.2726 37.1839 32.6802 37.831 33.7164 37.8463C34.8779 37.8569 36.0403 37.8473 37.2028 37.8473V37.8463Z" fill="#FF3D3D"/>
<path d="M23.0016 37.8492C22.0783 37.8492 21.1541 37.8597 20.227 37.8492C19.1363 37.832 18.7364 37.1963 19.2597 36.2486C20.469 34.0603 21.7081 31.8882 22.9413 29.7133C25.0545 25.9856 27.1705 22.2602 29.2894 18.537C29.5477 18.0842 29.7678 17.5663 30.4174 17.5797C31.0451 17.5893 31.2508 18.0957 31.5024 18.537C32.2927 19.9011 33.0428 21.2901 33.8685 22.6332C34.6626 23.9255 34.6339 25.1384 33.8685 26.448C31.9616 29.7238 30.1141 33.0341 28.2446 36.3309C27.6553 37.3696 26.7655 37.8731 25.5753 37.8626C24.7218 37.8444 23.8617 37.8492 23.0016 37.8492Z" fill="#FDFDFE"/>
<path d="M37.2028 37.8473C36.0404 37.8473 34.8779 37.8607 33.7164 37.8473C32.685 37.832 32.2726 37.1848 32.7759 36.2936C33.9431 34.2291 35.1369 32.1792 36.357 30.144C36.8086 29.3897 37.5932 29.3782 38.0429 30.1268C39.2873 32.2009 40.5068 34.2907 41.7015 36.396C42.1253 37.1408 41.7015 37.8195 40.8328 37.8396C39.6234 37.8683 38.4131 37.8473 37.2028 37.8473Z" fill="#FCFDFD"/>
<defs>
<filter id="filter0_d_38_302" x="0.45752" y="0" width="59.9792" height="60" filterUnits="userSpaceOnUse" color-interpolation-filters="sRGB">
<feFlood flood-opacity="0" result="BackgroundImageFix"/>
<feColorMatrix in="SourceAlpha" type="matrix" values="0 0 0 0 0 0 0 0 0 0 0 0 0 0 0 0 0 0 127 0" result="hardAlpha"/>
<feOffset/>
<feGaussianBlur stdDeviation="5"/>
<feComposite in2="hardAlpha" operator="out"/>
<feColorMatrix type="matrix" values="0 0 0 0 0.629167 0 0 0 0 0.0419444 0 0 0 0 0.0419444 0 0 0 0.5 0"/>
<feBlend mode="normal" in2="BackgroundImageFix" result="effect1_dropShadow_38_302"/>
<feBlend mode="normal" in="SourceGraphic" in2="effect1_dropShadow_38_302" result="shape"/>
</filter>
</defs>
</svg>
