<svg width="61" height="60" viewBox="0 0 61 60" fill="none" xmlns="http://www.w3.org/2000/svg">
<g filter="url(#filter0_d_36_273)">
<path d="M30.6392 10C41.6687 10 50.6288 18.9452 50.6288 29.9819C50.6359 41.0377 41.6737 50.007 30.6171 50C19.5897 49.993 10.6436 41.0267 10.6497 29.992C10.6557 18.9572 19.5988 10.005 30.6392 10ZM30.6684 12.5127C21.0252 12.4745 13.19 20.3131 13.1629 29.9437C13.1338 39.6236 20.9729 47.4893 30.6151 47.4893C32.9091 47.4949 35.1816 47.0481 37.3029 46.1745C39.4242 45.3009 41.3526 44.0176 42.978 42.398C44.6034 40.7784 45.894 38.8542 46.7758 36.7353C47.6577 34.6165 48.1136 32.3445 48.1176 30.0492C48.1517 20.3995 40.3357 12.4976 30.6644 12.5127H30.6684Z" fill="#DC9C21"/>
</g>
<path d="M30.6643 12.5127C40.3357 12.4936 48.1517 20.3955 48.1196 30.0452C48.1161 32.341 47.6605 34.6135 46.7788 36.733C45.897 38.8524 44.6064 40.7772 42.9807 42.3973C41.3551 44.0174 39.4262 45.301 37.3044 46.1747C35.1826 47.0484 32.9096 47.4951 30.6151 47.4893C20.9719 47.4893 13.1368 39.6286 13.1589 29.9528C13.184 20.3171 21.0231 12.4785 30.6643 12.5127ZM37.9631 25.3777C37.8837 25.2852 37.8234 25.2068 37.7551 25.1384C35.4628 22.8428 33.1716 20.5469 30.8813 18.2507C30.6885 18.0557 30.58 18.0838 30.4022 18.2617C28.1159 20.562 25.825 22.8583 23.5294 25.1505C23.3616 25.3173 23.3536 25.4199 23.5294 25.5917C24.2596 26.3023 24.9859 27.0199 25.6911 27.7547C25.9341 28.0079 26.0758 28.0029 26.3229 27.7547C27.6458 26.4068 28.9969 25.0862 30.3188 23.7344C30.577 23.47 30.7095 23.4479 30.9808 23.7253C32.3117 25.0892 33.6738 26.4229 35.0118 27.7798C35.2388 28.0099 35.3765 28.03 35.6085 27.7878C36.3117 27.0521 37.0439 26.3385 37.7622 25.6159C37.8325 25.5505 37.8887 25.4711 37.9631 25.3777ZM30.6201 41.883C30.7949 41.8719 30.8662 41.7453 30.9567 41.6559C33.2161 39.3985 35.4759 37.1411 37.736 34.8837C37.96 34.6615 37.952 34.5379 37.736 34.3258C37.0228 33.6444 36.3234 32.9482 35.6376 32.2373C35.4016 31.9921 35.2579 31.972 35.0048 32.2303C33.6819 33.5791 32.3308 34.9007 31.0079 36.2506C30.7397 36.5239 30.595 36.5521 30.3047 36.2596C28.9868 34.9058 27.6338 33.5861 26.3098 32.2393C26.0607 31.986 25.9181 31.987 25.677 32.2393C25.006 32.9429 24.3209 33.6283 23.6168 34.2947C23.3516 34.5449 23.3837 34.6907 23.6248 34.9299C25.8789 37.1692 28.1273 39.4139 30.37 41.6639C30.4544 41.7453 30.5438 41.8187 30.6201 41.887V41.883ZM30.6995 27.3576C30.5438 27.3717 30.4755 27.4742 30.3982 27.5587C29.6659 28.2894 28.9416 29.0291 28.1993 29.7487C27.9894 29.9497 28.0064 30.0804 28.2053 30.2744C28.946 30.996 29.6769 31.7274 30.3982 32.4685C30.589 32.6644 30.7085 32.6936 30.9145 32.4805C31.6337 31.7368 32.365 31.0051 33.1083 30.2854C33.3273 30.0744 33.3433 29.9497 33.1153 29.7306C32.381 29.0271 31.6709 28.2954 30.9496 27.5768C30.8652 27.4964 30.7728 27.426 30.6995 27.3617V27.3576ZM21.3576 27.3667C21.2979 27.4077 21.2406 27.4519 21.1859 27.4994C20.4224 28.2693 19.659 29.0412 18.8866 29.8C18.6857 30.001 18.8142 30.1146 18.9508 30.2513C19.6711 30.9699 20.3963 31.6845 21.1055 32.4152C21.3064 32.6162 21.4279 32.6263 21.6289 32.4152C22.3501 31.6734 23.0817 30.9417 23.8237 30.2201C24.0316 30.0191 23.9653 29.9075 23.7956 29.7407C23.0683 29.0281 22.3531 28.3034 21.6319 27.5848C21.5455 27.5089 21.4553 27.4374 21.3617 27.3707L21.3576 27.3667ZM42.5717 29.9608C42.5396 29.9226 42.5004 29.8693 42.4552 29.8231C41.6888 29.0592 40.9213 28.2924 40.1619 27.5215C39.967 27.3205 39.8535 27.431 39.7139 27.5717C38.9836 28.3054 38.2554 29.0412 37.5161 29.7658C37.3352 29.9427 37.3151 30.0673 37.506 30.2533C38.2467 30.9769 38.9786 31.7086 39.7018 32.4484C39.8766 32.6253 40.0032 32.6544 40.193 32.4594C40.9273 31.7076 41.6777 30.9699 42.419 30.2241C42.4853 30.1578 42.5928 30.1075 42.5757 29.9648L42.5717 29.9608Z" fill="#F5AB1B"/>
<path d="M37.9631 25.3777C37.8888 25.4671 37.8325 25.5465 37.7622 25.6149C37.044 26.3375 36.3137 27.0511 35.6085 27.7868C35.3765 28.029 35.2389 28.0089 35.0119 27.7788C33.6739 26.4219 32.3118 25.0882 30.9808 23.7243C30.7096 23.4469 30.579 23.469 30.3188 23.7334C28.9969 25.0832 27.6458 26.4038 26.3229 27.7537C26.0758 28.0049 25.9342 28.0099 25.6911 27.7537C24.9879 27.0189 24.2597 26.3013 23.5294 25.5907C23.3516 25.4189 23.3596 25.3163 23.5294 25.1495C25.825 22.8566 28.116 20.5603 30.4022 18.2607C30.579 18.0828 30.6885 18.0597 30.8813 18.2497C33.1676 20.5506 35.4589 22.8465 37.7552 25.1374C37.8235 25.2108 37.8837 25.2892 37.9631 25.3777Z" fill="#FCFCFD"/>
<path d="M30.6202 41.887C30.5438 41.8187 30.4544 41.7453 30.3731 41.6639C28.1256 39.4172 25.8772 37.1725 23.6278 34.9299C23.3867 34.6907 23.3546 34.5449 23.6198 34.2947C24.3229 33.6283 25.009 32.9398 25.68 32.2393C25.9211 31.988 26.0637 31.987 26.3129 32.2393C27.6368 33.5871 28.9899 34.9068 30.3078 36.2596C30.595 36.5541 30.7397 36.5239 31.0109 36.2505C32.3338 34.9007 33.6849 33.5791 35.0078 32.2302C35.261 31.9719 35.4046 31.992 35.6407 32.2373C36.3244 32.9489 37.0212 33.6464 37.731 34.3299C37.952 34.5419 37.9601 34.6655 37.731 34.8877C35.4662 37.139 33.2064 39.3964 30.9516 41.6599C30.8663 41.7493 30.7949 41.876 30.6202 41.887Z" fill="#FCFCFD"/>
<path d="M30.6995 27.3617C30.7729 27.426 30.8653 27.4964 30.9456 27.5768C31.6669 28.2954 32.3771 29.0251 33.1113 29.7307C33.3394 29.9498 33.3233 30.0744 33.1043 30.2855C32.361 31.0038 31.6297 31.7354 30.9105 32.4805C30.7096 32.6936 30.585 32.6645 30.3942 32.4685C29.6729 31.7274 28.942 30.996 28.2013 30.2744C28.0004 30.0804 27.9854 29.9528 28.1953 29.7487C28.9376 29.0291 29.6619 28.2894 30.3942 27.5587C30.4755 27.4783 30.5438 27.3758 30.6995 27.3617Z" fill="#FBFBFD"/>
<path d="M21.3617 27.3707C21.4555 27.4401 21.5457 27.5142 21.6319 27.5928C22.3531 28.3115 23.0683 29.0361 23.7956 29.7487C23.9654 29.9156 24.0317 30.0261 23.8237 30.2282C23.0804 30.9478 22.3488 31.6795 21.6289 32.4232C21.428 32.6293 21.3014 32.6243 21.1055 32.4232C20.3964 31.6926 19.6711 30.9779 18.9509 30.2593C18.8143 30.1176 18.6857 30.001 18.8866 29.8C19.6591 29.0381 20.4225 28.2662 21.1899 27.5004C21.2447 27.454 21.3021 27.4107 21.3617 27.3707Z" fill="#FBFBFD"/>
<path d="M42.5758 29.9648C42.5888 30.1075 42.4853 30.1577 42.419 30.2241C41.6777 30.9699 40.9274 31.7076 40.1931 32.4594C40.0022 32.6544 39.8767 32.6252 39.7019 32.4483C38.9766 31.7113 38.2447 30.9796 37.506 30.2532C37.3132 30.0653 37.3353 29.9427 37.5161 29.7658C38.2554 29.0411 38.9837 28.3054 39.7139 27.5717C39.8536 27.431 39.9671 27.3224 40.1619 27.5214C40.9213 28.2963 41.6928 29.0592 42.4592 29.8271C42.5044 29.8733 42.5436 29.9266 42.5758 29.9648Z" fill="#FBFBFD"/>
<defs>
<filter id="filter0_d_36_273" x="0.649658" y="0" width="59.9792" height="60" filterUnits="userSpaceOnUse" color-interpolation-filters="sRGB">
<feFlood flood-opacity="0" result="BackgroundImageFix"/>
<feColorMatrix in="SourceAlpha" type="matrix" values="0 0 0 0 0 0 0 0 0 0 0 0 0 0 0 0 0 0 127 0" result="hardAlpha"/>
<feOffset/>
<feGaussianBlur stdDeviation="5"/>
<feComposite in2="hardAlpha" operator="out"/>
<feColorMatrix type="matrix" values="0 0 0 0 0.8625 0 0 0 0 0.613237 0 0 0 0 0.129375 0 0 0 1 0"/>
<feBlend mode="normal" in2="BackgroundImageFix" result="effect1_dropShadow_36_273"/>
<feBlend mode="normal" in="SourceGraphic" in2="effect1_dropShadow_36_273" result="shape"/>
</filter>
</defs>
</svg>
