<svg width="61" height="60" viewBox="0 0 61 60" fill="none" xmlns="http://www.w3.org/2000/svg">
<g filter="url(#filter0_d_38_321)">
<path d="M10.2889 29.9885C10.2889 18.9308 19.2562 9.9828 30.3129 10C41.3496 10.0173 50.2719 18.9634 50.2681 30.0058C50.2642 41.0482 41.2998 50.0115 30.2431 49.9952C19.2083 49.9799 10.2889 41.0319 10.2889 29.9885ZM13.159 29.9885C13.1428 39.4649 20.8127 47.115 30.2632 47.1313C39.7442 47.1475 47.3931 39.4554 47.4084 30.0287C47.4247 20.5619 39.7633 12.8563 30.2833 12.8621C20.8405 12.8717 13.1437 20.5121 13.159 29.9914V29.9885Z" fill="#0571F0"/>
</g>
<path d="M13.159 29.9914C13.1437 20.5122 20.8405 12.8717 30.2747 12.865C39.7595 12.8593 47.4209 20.5648 47.3998 30.0316C47.3845 39.4583 39.7356 47.1504 30.2546 47.1342C20.8128 47.1179 13.1389 39.4688 13.159 29.9914ZM37.1726 29.9981C37.1726 27.6223 37.1678 25.2465 37.1783 22.8707C37.1783 22.5836 37.0951 22.4161 36.8348 22.2706C34.7639 21.1098 32.6977 19.9401 30.6363 18.7614C30.3866 18.6178 30.2 18.6035 29.9417 18.7519C27.8688 19.9407 25.7896 21.1187 23.7039 22.2859C23.459 22.4228 23.3806 22.5778 23.3815 22.8497C23.3879 27.6179 23.3879 32.3854 23.3815 37.1523C23.3815 37.4261 23.4638 37.5793 23.7068 37.7152C25.7784 38.8741 27.8433 40.0447 29.9015 41.2272C30.1962 41.3966 30.4009 41.3737 30.6803 41.2138C32.7124 40.0479 34.7489 38.8942 36.7899 37.7525C37.0884 37.5869 37.1726 37.4012 37.1726 37.0777C37.1649 34.7182 37.1726 32.3586 37.1726 29.9981Z" fill="#3D95FC"/>
<path d="M37.1725 29.9981C37.1725 32.3586 37.1668 34.7181 37.1792 37.0815C37.1792 37.405 37.0941 37.5907 36.7966 37.7563C34.7498 38.8941 32.712 40.0479 30.6832 41.2176C30.4038 41.3774 30.1991 41.4004 29.9044 41.231C27.8475 40.0447 25.7822 38.874 23.7087 37.719C23.4657 37.583 23.3834 37.4318 23.3834 37.1561C23.3911 32.3879 23.3911 27.6204 23.3834 22.8535C23.3834 22.5816 23.4609 22.4265 23.7058 22.2897C25.7915 21.1219 27.8707 19.9439 29.9436 18.7556C30.2019 18.6073 30.3885 18.6216 30.6382 18.7652C32.6983 19.9413 34.7632 21.1097 36.8329 22.2705C37.0931 22.416 37.1773 22.5807 37.1764 22.8707C37.1659 25.2465 37.1725 27.6223 37.1725 29.9981ZM24.7515 31.2147C24.7515 33.0545 24.7563 34.7909 24.7515 36.5272C24.7515 36.7771 24.8644 36.8929 25.0596 37.0059C26.7004 37.9544 28.3392 38.905 29.9685 39.8717C30.2086 40.0153 30.376 40.0058 30.6085 39.867C32.226 38.9097 33.8496 37.964 35.4792 37.0298C35.7403 36.8795 35.8178 36.7072 35.8159 36.42C35.8035 34.8272 35.8159 33.2335 35.8073 31.6397C35.8073 31.522 35.859 31.388 35.7336 31.2654C35.6523 31.3057 35.5672 31.342 35.4878 31.388C33.9341 32.2954 32.3718 33.1875 30.8353 34.1227C30.421 34.3745 30.1244 34.3563 29.7226 34.1103C28.4062 33.3034 27.0639 32.5376 25.7302 31.7594C25.4279 31.5852 25.1246 31.4224 24.7515 31.2147ZM25.4691 22.9348C27.0811 23.8585 28.5985 24.7258 30.111 25.5997C30.288 25.7021 30.4114 25.6208 30.5492 25.5413C31.9431 24.742 33.3333 23.937 34.732 23.1483C35.019 22.9856 35.0372 22.8918 34.7406 22.7175C33.3553 21.9039 31.975 21.081 30.5999 20.2489C30.5044 20.1799 30.3892 20.1437 30.2715 20.1456C30.1537 20.1475 30.0397 20.1874 29.9465 20.2594C29.449 20.5734 28.9352 20.8625 28.4301 21.164C27.4762 21.7316 26.5243 22.3031 25.4691 22.9348ZM28.9018 26.4937C27.5547 25.7079 26.2928 24.9727 25.0318 24.2357C24.8328 24.1199 24.7448 24.1658 24.7496 24.4041C24.7534 25.8049 24.7534 27.2053 24.7496 28.6054C24.7496 28.8533 24.8386 28.8772 25.0366 28.7623C26.2937 28.0215 27.5547 27.2834 28.9018 26.4937ZM31.6638 26.4937C33.0147 27.2825 34.2976 28.0358 35.5863 28.7815C35.8265 28.9212 35.8054 28.7183 35.8054 28.5805C35.8054 27.1973 35.8054 25.8132 35.8102 24.43C35.8102 24.0883 35.6648 24.1514 35.4677 24.2673C34.9606 24.564 34.4517 24.8588 33.9436 25.1565L31.6638 26.4937ZM35.108 30.0546L31.2476 27.8042C31.0811 27.7084 30.9606 27.6635 30.9606 27.9439C30.9657 29.3478 30.9657 30.7498 30.9606 32.1499C30.9606 32.3806 31.0304 32.4428 31.239 32.3203C32.498 31.5794 33.7619 30.8414 35.1041 30.0574L35.108 30.0546ZM25.4652 30.0546C26.7903 30.8299 28.0484 31.567 29.3141 32.3059C29.494 32.4112 29.6011 32.4227 29.6011 32.1566C29.596 30.7565 29.596 29.3555 29.6011 27.9535C29.6011 27.7075 29.5179 27.6797 29.3217 27.7946C28.0589 28.5393 26.796 29.2773 25.4614 30.0584L25.4652 30.0546Z" fill="#FBFBFD"/>
<path d="M24.7516 31.2147C25.1247 31.4224 25.428 31.5852 25.7255 31.7594C27.0592 32.5376 28.4043 33.3034 29.7179 34.1103C30.1197 34.3563 30.4163 34.3745 30.8305 34.1227C32.367 33.1875 33.9293 32.2954 35.483 31.388C35.5624 31.342 35.6476 31.3057 35.7289 31.2655C35.8542 31.388 35.8016 31.522 35.8026 31.6397C35.8026 33.2335 35.8026 34.8272 35.8112 36.42C35.8112 36.7072 35.7356 36.8795 35.4744 37.0298C33.8435 37.9628 32.22 38.9078 30.6038 39.8651C30.3713 40.0038 30.2039 40.0134 29.9638 39.8698C28.3373 38.9031 26.6956 37.9554 25.0549 37.0039C24.8635 36.891 24.7449 36.7752 24.7468 36.5253C24.7564 34.7918 24.7516 33.0545 24.7516 31.2147Z" fill="#3D95FC"/>
<path d="M25.4691 22.9349C26.5214 22.3031 27.4782 21.7317 28.4349 21.1621C28.94 20.8606 29.4538 20.5715 29.9513 20.2576C30.0445 20.1856 30.1585 20.1456 30.2762 20.1437C30.394 20.1419 30.5092 20.1781 30.6047 20.247C31.9792 21.0766 33.3594 21.8995 34.7454 22.7157C35.0419 22.8899 35.0257 22.9837 34.7367 23.1464C33.338 23.9371 31.9479 24.7421 30.554 25.5395C30.4162 25.6189 30.2928 25.7003 30.1158 25.5978C28.5985 24.7258 27.0811 23.8586 25.4691 22.9349Z" fill="#3D95FC"/>
<path d="M28.9018 26.4938C27.5547 27.2835 26.2938 28.0253 25.0338 28.7624C24.8424 28.8772 24.7468 28.8581 24.7468 28.6054C24.7506 27.2053 24.7506 25.8049 24.7468 24.4042C24.7468 24.1658 24.83 24.117 25.029 24.2357C26.2928 24.9728 27.5547 25.7079 28.9018 26.4938Z" fill="#3D95FC"/>
<path d="M31.6638 26.4966L33.9427 25.1565C34.4507 24.8588 34.9597 24.564 35.4668 24.2672C35.6638 24.1514 35.8112 24.0882 35.8093 24.43C35.8007 25.8131 35.8093 27.1973 35.8045 28.5804C35.8045 28.7183 35.8255 28.9212 35.5854 28.7815C34.3024 28.0387 33.0147 27.2853 31.6638 26.4966Z" fill="#3D95FC"/>
<path d="M35.1042 30.0574C33.7648 30.8414 32.4981 31.5794 31.2362 32.3183C31.0276 32.4409 30.9578 32.3786 30.9578 32.148C30.9629 30.744 30.9629 29.342 30.9578 27.942C30.9578 27.6615 31.0812 27.7046 31.2448 27.8022L35.1042 30.0574Z" fill="#3D95FC"/>
<path d="M25.4614 30.0584C26.796 29.2773 28.0589 28.5393 29.3199 27.7984C29.516 27.6835 29.6002 27.7113 29.5992 27.9573C29.5941 29.3612 29.5941 30.7622 29.5992 32.1604C29.5992 32.4265 29.4901 32.415 29.3122 32.3097C28.0493 31.5708 26.7865 30.8337 25.4614 30.0584Z" fill="#3D95FC"/>
<defs>
<filter id="filter0_d_38_321" x="0.288879" y="0" width="59.9792" height="59.9952" filterUnits="userSpaceOnUse" color-interpolation-filters="sRGB">
<feFlood flood-opacity="0" result="BackgroundImageFix"/>
<feColorMatrix in="SourceAlpha" type="matrix" values="0 0 0 0 0 0 0 0 0 0 0 0 0 0 0 0 0 0 127 0" result="hardAlpha"/>
<feOffset/>
<feGaussianBlur stdDeviation="5"/>
<feComposite in2="hardAlpha" operator="out"/>
<feColorMatrix type="matrix" values="0 0 0 0 0.25935 0 0 0 0 0.019618 0 0 0 0 0.941667 0 0 0 0.5 0"/>
<feBlend mode="normal" in2="BackgroundImageFix" result="effect1_dropShadow_38_321"/>
<feBlend mode="normal" in="SourceGraphic" in2="effect1_dropShadow_38_321" result="shape"/>
</filter>
</defs>
</svg>
