<svg id="analyse" enable-background="new 0 0 300 300" height="512" viewBox="0 0 300 300" width="512" xmlns="http://www.w3.org/2000/svg"><g><g><path d="m234 172h16v76h-16z" fill="#f53e28"/><path d="m250 252h-16c-2.211 0-4-1.791-4-4v-76c0-2.209 1.789-4 4-4h16c2.211 0 4 1.791 4 4v76c0 2.209-1.789 4-4 4zm-12-8h8v-68h-8z" fill="#4c241d"/></g><g><path d="m250 220h16v28h-16z" fill="#a9ba5a"/><path d="m266 252h-16c-2.211 0-4-1.791-4-4v-28c0-2.209 1.789-4 4-4h16c2.211 0 4 1.791 4 4v28c0 2.209-1.789 4-4 4zm-12-8h8v-20h-8z" fill="#4c241d"/></g><g><path d="m218 212h16v36h-16z" fill="#fc8c29"/><path d="m234 252h-16c-2.211 0-4-1.791-4-4v-36c0-2.209 1.789-4 4-4h16c2.211 0 4 1.791 4 4v36c0 2.209-1.789 4-4 4zm-12-8h8v-28h-8z" fill="#4c241d"/></g><path d="m186 140c-1.023 0-2.047-.391-2.828-1.172-1.562-1.562-1.562-4.094 0-5.656l28-28c.75-.75 1.766-1.172 2.828-1.172h52c2.211 0 4 1.791 4 4s-1.789 4-4 4h-50.344l-26.828 26.828c-.781.781-1.805 1.172-2.828 1.172z" fill="#4c241d"/><path d="m254 100h-40c-2.211 0-4-1.791-4-4s1.789-4 4-4h40c2.211 0 4 1.791 4 4s-1.789 4-4 4z" fill="#4c241d"/><path d="m242 176h-40c-2.211 0-4-1.791-4-4s1.789-4 4-4h40c2.211 0 4 1.791 4 4s-1.789 4-4 4z" fill="#4c241d"/><path d="m166 120.002c-1.551 0-3.027-.91-3.676-2.426l-22.961-53.576h-17.363c-2.211 0-4-1.791-4-4s1.789-4 4-4h20c1.602 0 3.047.953 3.676 2.424l24 56c.871 2.031-.07 4.383-2.102 5.252-.512.22-1.047.326-1.574.326z" fill="#4c241d"/><path d="m183.656 73.656c-1.023 0-2.047-.391-2.828-1.172l-11.312-11.312c-1.562-1.562-1.562-4.094 0-5.656s4.094-1.562 5.656 0l11.312 11.312c1.562 1.562 1.562 4.094 0 5.656-.781.782-1.804 1.172-2.828 1.172z" fill="#4c241d"/><path d="m172.344 73.656c-1.023 0-2.047-.391-2.828-1.172-1.562-1.562-1.562-4.094 0-5.656l11.312-11.312c1.562-1.562 4.094-1.562 5.656 0s1.562 4.094 0 5.656l-11.312 11.312c-.781.782-1.805 1.172-2.828 1.172z" fill="#4c241d"/><circle cx="242" cy="136" fill="#4c241d" r="4"/><g><circle cx="82" cy="60" fill="#02eae6" r="24"/><path d="m82 88c-15.438 0-28-12.561-28-28s12.562-28 28-28 28 12.561 28 28-12.562 28-28 28zm0-48c-11.027 0-20 8.973-20 20s8.973 20 20 20 20-8.973 20-20-8.973-20-20-20z" fill="#4c241d"/></g><g><path d="m91.454 37.94-9.454 22.06h24c0-9.897-5.993-18.389-14.546-22.06z" fill="#f53e28"/><path d="m106 64h-24c-1.344 0-2.598-.676-3.34-1.799-.738-1.121-.867-2.541-.336-3.777l9.453-22.061c.418-.975 1.207-1.744 2.191-2.139.984-.393 2.086-.381 3.062.039 10.31 4.425 16.97 14.528 16.97 25.737 0 2.209-1.789 4-4 4zm-17.934-8h13.531c-1.027-5.045-3.969-9.504-8.203-12.438z" fill="#4c241d"/></g><g><circle cx="110" cy="188" fill="#ffec95" r="76"/><path d="m110 268c-44.113 0-80-35.889-80-80s35.887-80 80-80 80 35.889 80 80-35.887 80-80 80zm0-152c-39.699 0-72 32.299-72 72s32.301 72 72 72 72-32.299 72-72-32.301-72-72-72z" fill="#4c241d"/></g><g><circle cx="110" cy="188" fill="#ffce56" r="52"/><path d="m110 244c-30.879 0-56-25.121-56-56s25.121-56 56-56 56 25.121 56 56-25.121 56-56 56zm0-104c-26.469 0-48 21.533-48 48s21.531 48 48 48 48-21.533 48-48-21.531-48-48-48z" fill="#4c241d"/></g><g fill="#4c241d"><path d="m106 204c-2.211 0-4-1.791-4-4v-24c0-2.209 1.789-4 4-4h12c2.211 0 4 1.791 4 4s-1.789 4-4 4h-8v20c0 2.209-1.789 4-4 4z"/><path d="m118 192h-12c-2.211 0-4-1.791-4-4s1.789-4 4-4h12c2.211 0 4 1.791 4 4s-1.789 4-4 4z"/><path d="m78 204c-2.211 0-4-1.791-4-4v-24c0-1.617.973-3.076 2.469-3.695 1.5-.613 3.219-.275 4.359.867l16 16c1.562 1.562 1.562 4.094 0 5.656s-4.094 1.562-5.656 0l-9.172-9.172v14.344c0 2.209-1.789 4-4 4z"/><path d="m94 204c-2.211 0-4-1.791-4-4v-24c0-2.209 1.789-4 4-4s4 1.791 4 4v24c0 2.209-1.789 4-4 4z"/><path d="m146 180h-16c-2.211 0-4-1.791-4-4s1.789-4 4-4h16c2.211 0 4 1.791 4 4s-1.789 4-4 4z"/><path d="m138 204c-2.211 0-4-1.791-4-4v-24c0-2.209 1.789-4 4-4s4 1.791 4 4v24c0 2.209-1.789 4-4 4z"/><circle cx="110" cy="124" r="4"/><circle cx="110" cy="252" r="4"/><circle cx="174" cy="188" r="4"/><circle cx="46" cy="188" r="4"/><circle cx="155.255" cy="233.255" r="4"/><circle cx="64.745" cy="142.745" r="4"/><circle cx="155.255" cy="142.745" r="4"/><circle cx="64.745" cy="233.255" r="4"/></g><g><circle cx="218" cy="68" fill="#a9ba5a" r="12"/><path d="m218 84c-8.824 0-16-7.178-16-16s7.176-16 16-16 16 7.178 16 16-7.176 16-16 16zm0-24c-4.41 0-8 3.588-8 8s3.59 8 8 8 8-3.588 8-8-3.59-8-8-8z" fill="#4c241d"/></g><g><circle cx="242" cy="68" fill="#bd53b5" r="12"/><path d="m242 84c-8.824 0-16-7.178-16-16s7.176-16 16-16 16 7.178 16 16-7.176 16-16 16zm0-24c-4.41 0-8 3.588-8 8s3.59 8 8 8 8-3.588 8-8-3.59-8-8-8z" fill="#4c241d"/></g></g></svg>