<?xml version="1.0" standalone="no"?>
<!DOCTYPE svg PUBLIC "-//W3C//DTD SVG 20010904//EN"
 "http://www.w3.org/TR/2001/REC-SVG-20010904/DTD/svg10.dtd">
<svg version="1.0" xmlns="http://www.w3.org/2000/svg"
 width="1269.000000pt" height="1280.000000pt" viewBox="0 0 1269.000000 1280.000000"
 preserveAspectRatio="xMidYMid meet">
<g transform="translate(0.000000,1280.000000) scale(0.100000,-0.100000)"
fill="#000000" stroke="none">
<path d="M6210 12790 c-36 -5 -121 -13 -190 -20 -867 -77 -2105 -464 -2762
-862 -210 -127 -213 -132 -213 -313 1 -106 6 -152 29 -250 34 -149 126 -426
244 -740 111 -298 155 -433 147 -459 -3 -12 -30 -37 -61 -56 -190 -120 -669
-651 -773 -858 -27 -54 -56 -66 -127 -53 -90 17 -223 66 -591 217 -503 206
-714 274 -857 274 -47 0 -67 -4 -78 -17 -55 -63 -256 -459 -356 -698 -312
-751 -528 -1586 -602 -2325 -33 -336 -26 -412 43 -487 97 -105 302 -167 872
-263 438 -74 573 -110 610 -163 8 -12 15 -44 15 -70 0 -117 86 -449 193 -743
67 -184 157 -393 197 -457 41 -67 39 -94 -14 -160 -55 -66 -165 -161 -446
-382 -382 -300 -540 -448 -586 -550 l-25 -54 48 -83 c235 -411 573 -830 1034
-1283 278 -273 486 -454 740 -647 217 -165 475 -330 624 -399 62 -29 68 -30
115 -19 140 34 305 195 614 600 255 333 324 415 400 471 49 36 72 36 144 0
234 -116 877 -272 1187 -288 142 -7 154 -14 184 -107 29 -87 45 -174 91 -491
86 -593 137 -811 221 -951 57 -94 74 -104 187 -104 52 0 134 4 181 10 313 36
378 44 481 61 808 136 1829 527 2437 933 118 79 128 97 120 233 -8 161 -63
318 -265 758 -129 284 -179 413 -188 488 -8 65 -5 69 132 167 211 150 642 601
785 820 80 124 71 115 126 113 69 -3 185 -42 432 -145 530 -223 684 -279 843
-312 86 -18 200 -21 227 -6 36 19 188 296 296 540 292 659 522 1572 585 2315
6 72 15 163 21 203 18 140 7 349 -23 425 -12 31 -63 74 -125 106 -145 73 -316
111 -828 185 -354 51 -485 84 -526 132 -11 12 -19 48 -24 103 -14 173 -66 385
-170 696 -76 231 -154 421 -199 494 -33 52 -30 71 22 138 53 66 126 128 422
358 295 230 424 339 516 439 69 74 124 158 124 190 0 43 -236 418 -413 656
-479 644 -1137 1310 -1657 1676 -186 131 -368 234 -413 234 -75 0 -164 -56
-301 -189 -121 -119 -197 -208 -406 -476 -270 -349 -356 -442 -427 -465 -27
-10 -38 -7 -85 18 -179 99 -681 226 -1058 268 -74 8 -146 12 -159 9 -77 -19
-119 87 -165 420 -14 99 -39 281 -56 405 -63 456 -119 666 -205 769 l-27 31
-111 -1 c-62 -1 -141 -5 -177 -9z m520 -5030 c528 -65 911 -386 1058 -885 54
-183 66 -278 67 -520 0 -237 -10 -315 -60 -490 -108 -374 -384 -661 -753 -785
-333 -111 -743 -114 -1072 -8 -105 34 -260 114 -352 183 -246 185 -401 445
-471 790 -19 95 -22 141 -22 340 1 250 12 335 71 511 150 449 507 753 992 844
59 10 123 21 142 23 79 8 321 6 400 -3z"/>
</g>
</svg>
