<svg width="604" height="158" viewBox="0 0 604 158" fill="none" xmlns="http://www.w3.org/2000/svg">
<g filter="url(#filter0_f_438_97)">
<rect x="3" y="28.2676" width="139.869" height="126.333" fill="url(#paint0_radial_438_97)"/>
<rect x="3.66353" y="28.9311" width="138.542" height="125.006" stroke="#4205F0" stroke-width="1.32705"/>
</g>
<g opacity="0.5" filter="url(#filter1_f_438_97)">
<rect x="29.1689" y="3" width="88.4333" height="104.676" fill="url(#paint1_radial_438_97)"/>
<rect x="29.8325" y="3.66353" width="87.1063" height="103.349" stroke="#4205F0" stroke-width="1.32705"/>
</g>
<g filter="url(#filter2_f_438_97)">
<path d="M28.7179 107.676H118.505L142.869 154.6H3L28.7179 107.676Z" fill="url(#paint2_radial_438_97)" fill-opacity="0.3"/>
<path d="M4.12031 153.936L29.1108 108.339H118.102L141.777 153.936H4.12031Z" stroke="#4205F0" stroke-width="1.32705"/>
</g>
<g filter="url(#filter3_f_438_97)">
<path d="M30.0714 3H116.7L142.869 28.2667H3L30.0714 3Z" fill="url(#paint3_radial_438_97)"/>
<path d="M4.68338 27.6031L30.333 3.66353H116.432L141.227 27.6031H4.68338Z" stroke="#4205F0" stroke-width="1.32705"/>
</g>
<path d="M50.5048 62.5187V71H48.7573V62.5187H50.5048ZM55.5843 62.5187L52.2232 66.7069L50.2834 68.7923L49.9689 67.138L51.2795 65.3438L53.4406 62.5187H55.5843ZM53.5979 71L51.0989 67.0797L52.3921 65.9962L55.6658 71H53.5979ZM63.2256 69.6369V71H58.7112V69.6369H63.2256ZM59.282 62.5187V71H57.5345V62.5187H59.282ZM62.6373 65.9729V67.3011H58.7112V65.9729H62.6373ZM63.2198 62.5187V63.8876H58.7112V62.5187H63.2198ZM71.1291 69.6369V71H66.6147V69.6369H71.1291ZM67.1855 62.5187V71H65.438V62.5187H67.1855ZM70.5408 65.9729V67.3011H66.6147V65.9729H70.5408ZM71.1233 62.5187V63.8876H66.6147V62.5187H71.1233ZM76.6443 67.9768H74.4832V66.6137H76.6443C76.9783 66.6137 77.2501 66.5593 77.4598 66.4506C77.6695 66.338 77.8229 66.1827 77.92 65.9846C78.0171 65.7865 78.0656 65.5633 78.0656 65.3147C78.0656 65.0623 78.0171 64.8273 77.92 64.6099C77.8229 64.3924 77.6695 64.2177 77.4598 64.0856C77.2501 63.9536 76.9783 63.8876 76.6443 63.8876H75.089V71H73.3415V62.5187H76.6443C77.3084 62.5187 77.8773 62.6391 78.351 62.8798C78.8287 63.1167 79.1937 63.4449 79.4462 63.8643C79.6986 64.2837 79.8248 64.7633 79.8248 65.3031C79.8248 65.8506 79.6986 66.3244 79.4462 66.7244C79.1937 67.1244 78.8287 67.4331 78.351 67.6506C77.8773 67.868 77.3084 67.9768 76.6443 67.9768ZM87.9147 69.6369V71H83.4002V69.6369H87.9147ZM83.9711 62.5187V71H82.2236V62.5187H83.9711ZM87.3263 65.9729V67.3011H83.4002V65.9729H87.3263ZM87.9088 62.5187V63.8876H83.4002V62.5187H87.9088ZM90.127 62.5187H93.2901C93.9386 62.5187 94.4959 62.6158 94.9619 62.8099C95.4318 63.0041 95.7929 63.2915 96.0453 63.672C96.2978 64.0526 96.424 64.5206 96.424 65.0759C96.424 65.5302 96.3463 65.9205 96.191 66.2467C96.0395 66.569 95.824 66.8389 95.5444 67.0564C95.2687 67.27 94.9444 67.4409 94.5716 67.569L94.0182 67.8603H91.2688L91.2571 66.4972H93.3017C93.6085 66.4972 93.8629 66.4428 94.0648 66.3341C94.2667 66.2254 94.4182 66.0739 94.5192 65.8797C94.624 65.6856 94.6764 65.4603 94.6764 65.204C94.6764 64.9322 94.626 64.6973 94.525 64.4992C94.424 64.3011 94.2706 64.1497 94.0648 64.0448C93.859 63.94 93.6007 63.8876 93.2901 63.8876H91.8746V71H90.127V62.5187ZM94.8687 71L92.9347 67.2195L94.7813 67.2079L96.7385 70.9184V71H94.8687Z" fill="#F3F3F3"/>
<g filter="url(#filter4_d_438_97)">
<g filter="url(#filter5_d_438_97)">
<path d="M59.1686 102.369H55.8728L55.8552 100.554H58.6223C59.1099 100.554 59.5094 100.492 59.8207 100.369C60.1321 100.239 60.3642 100.054 60.5169 99.8134C60.6755 99.5666 60.7548 99.267 60.7548 98.9145C60.7548 98.515 60.6785 98.1919 60.5257 97.9451C60.3788 97.6984 60.1468 97.5192 59.8295 97.4076C59.5182 97.296 59.1157 97.2402 58.6223 97.2402H56.7893V108H54.1456V95.1693H58.6223C59.3684 95.1693 60.0352 95.2398 60.6227 95.3808C61.216 95.5218 61.7183 95.7362 62.1296 96.0241C62.5408 96.3119 62.8551 96.6762 63.0725 97.1168C63.2898 97.5515 63.3985 98.0685 63.3985 98.6678C63.3985 99.1965 63.2781 99.6841 63.0372 100.131C62.8022 100.577 62.4292 100.941 61.9181 101.223C61.4128 101.505 60.7519 101.661 59.9353 101.69L59.1686 102.369ZM59.0541 108H55.1502L56.1812 105.938H59.0541C59.5182 105.938 59.8971 105.864 60.1908 105.718C60.4846 105.565 60.702 105.359 60.843 105.101C60.984 104.842 61.0545 104.546 61.0545 104.211C61.0545 103.835 60.9898 103.509 60.8606 103.233C60.7372 102.956 60.5375 102.745 60.2613 102.598C59.9852 102.445 59.621 102.369 59.1686 102.369H56.6219L56.6395 100.554H59.8119L60.42 101.267C61.2013 101.256 61.8299 101.394 62.3058 101.682C62.7875 101.964 63.1371 102.331 63.3545 102.783C63.5777 103.235 63.6893 103.72 63.6893 104.237C63.6893 105.06 63.5102 105.753 63.1518 106.317C62.7934 106.875 62.2676 107.295 61.5744 107.577C60.887 107.859 60.0469 108 59.0541 108ZM74.9145 103.744H77.5493C77.4965 104.607 77.2585 105.374 76.8355 106.044C76.4184 106.713 75.8339 107.236 75.0819 107.612C74.3358 107.988 73.4369 108.176 72.3853 108.176C71.5628 108.176 70.8255 108.035 70.1734 107.753C69.5213 107.465 68.9632 107.054 68.4991 106.52C68.0409 105.985 67.6913 105.339 67.4504 104.581C67.2096 103.823 67.0891 102.974 67.0891 102.034V101.144C67.0891 100.204 67.2125 99.3551 67.4592 98.5973C67.7119 97.8335 68.0702 97.1844 68.5343 96.6497C69.0043 96.1151 69.5654 95.7039 70.2175 95.416C70.8696 95.1281 71.5981 94.9842 72.403 94.9842C73.4722 94.9842 74.374 95.1781 75.1083 95.5658C75.8486 95.9536 76.4214 96.4882 76.8267 97.1697C77.238 97.8512 77.4847 98.6266 77.567 99.4961H74.9233C74.8939 98.9791 74.7911 98.5414 74.6148 98.1831C74.4386 97.8188 74.1713 97.5457 73.8129 97.3635C73.4604 97.1755 72.9904 97.0815 72.403 97.0815C71.9623 97.0815 71.5775 97.1638 71.2485 97.3283C70.9195 97.4928 70.6434 97.7425 70.4202 98.0773C70.1969 98.4122 70.0295 98.8352 69.9179 99.3463C69.8121 99.8515 69.7593 100.445 69.7593 101.126V102.034C69.7593 102.698 69.8092 103.282 69.9091 103.788C70.0089 104.287 70.1617 104.71 70.3673 105.057C70.5788 105.397 70.849 105.656 71.178 105.832C71.5129 106.003 71.9153 106.088 72.3853 106.088C72.9376 106.088 73.3929 106 73.7512 105.823C74.1096 105.647 74.3828 105.386 74.5708 105.039C74.7647 104.692 74.8792 104.261 74.9145 103.744ZM86.307 97.3635L82.8173 108H80.0062L84.7737 95.1693H86.5626L86.307 97.3635ZM89.2063 108L85.7078 97.3635L85.4258 95.1693H87.2323L92.0262 108H89.2063ZM89.0477 103.224V105.295H82.271V103.224H89.0477Z" fill="white"/>
</g>
</g>
<rect x="45.4512" y="88.4512" width="53.0976" height="27.0976" rx="1.35357" stroke="#F4F4F4" stroke-width="0.902381"/>
<g filter="url(#filter6_f_438_97)">
<rect x="232" y="28.2676" width="139.869" height="126.333" fill="url(#paint4_radial_438_97)"/>
<rect x="232.664" y="28.9311" width="138.542" height="125.006" stroke="#4205F0" stroke-width="1.32705"/>
</g>
<g opacity="0.5" filter="url(#filter7_f_438_97)">
<rect x="258.169" y="3" width="88.4333" height="104.676" fill="url(#paint5_radial_438_97)"/>
<rect x="258.832" y="3.66353" width="87.1063" height="103.349" stroke="#4205F0" stroke-width="1.32705"/>
</g>
<g filter="url(#filter8_f_438_97)">
<path d="M257.718 107.676H347.505L371.869 154.6H232L257.718 107.676Z" fill="url(#paint6_radial_438_97)" fill-opacity="0.3"/>
<path d="M233.12 153.936L258.111 108.339H347.102L370.777 153.936H233.12Z" stroke="#4205F0" stroke-width="1.32705"/>
</g>
<g filter="url(#filter9_f_438_97)">
<path d="M259.071 3H345.7L371.869 28.2667H232L259.071 3Z" fill="url(#paint7_radial_438_97)"/>
<path d="M233.683 27.6031L259.333 3.66353H345.432L370.227 27.6031H233.683Z" stroke="#4205F0" stroke-width="1.32705"/>
</g>
<path d="M279.505 62.5187V71H277.757V62.5187H279.505ZM284.584 62.5187L281.223 66.7069L279.283 68.7923L278.969 67.138L280.28 65.3438L282.441 62.5187H284.584ZM282.598 71L280.099 67.0797L281.392 65.9962L284.666 71H282.598ZM292.226 69.6369V71H287.711V69.6369H292.226ZM288.282 62.5187V71H286.535V62.5187H288.282ZM291.637 65.9729V67.3011H287.711V65.9729H291.637ZM292.22 62.5187V63.8876H287.711V62.5187H292.22ZM300.129 69.6369V71H295.615V69.6369H300.129ZM296.186 62.5187V71H294.438V62.5187H296.186ZM299.541 65.9729V67.3011H295.615V65.9729H299.541ZM300.123 62.5187V63.8876H295.615V62.5187H300.123ZM305.644 67.9768H303.483V66.6137H305.644C305.978 66.6137 306.25 66.5593 306.46 66.4506C306.67 66.338 306.823 66.1827 306.92 65.9846C307.017 65.7865 307.066 65.5633 307.066 65.3147C307.066 65.0623 307.017 64.8273 306.92 64.6099C306.823 64.3924 306.67 64.2177 306.46 64.0856C306.25 63.9536 305.978 63.8876 305.644 63.8876H304.089V71H302.341V62.5187H305.644C306.308 62.5187 306.877 62.6391 307.351 62.8798C307.829 63.1167 308.194 63.4449 308.446 63.8643C308.699 64.2837 308.825 64.7633 308.825 65.3031C308.825 65.8506 308.699 66.3244 308.446 66.7244C308.194 67.1244 307.829 67.4331 307.351 67.6506C306.877 67.868 306.308 67.9768 305.644 67.9768ZM316.915 69.6369V71H312.4V69.6369H316.915ZM312.971 62.5187V71H311.224V62.5187H312.971ZM316.326 65.9729V67.3011H312.4V65.9729H316.326ZM316.909 62.5187V63.8876H312.4V62.5187H316.909ZM319.127 62.5187H322.29C322.939 62.5187 323.496 62.6158 323.962 62.8099C324.432 63.0041 324.793 63.2915 325.045 63.672C325.298 64.0526 325.424 64.5206 325.424 65.0759C325.424 65.5302 325.346 65.9205 325.191 66.2467C325.04 66.569 324.824 66.8389 324.544 67.0564C324.269 67.27 323.944 67.4409 323.572 67.569L323.018 67.8603H320.269L320.257 66.4972H322.302C322.609 66.4972 322.863 66.4428 323.065 66.3341C323.267 66.2254 323.418 66.0739 323.519 65.8797C323.624 65.6856 323.676 65.4603 323.676 65.204C323.676 64.9322 323.626 64.6973 323.525 64.4992C323.424 64.3011 323.271 64.1497 323.065 64.0448C322.859 63.94 322.601 63.8876 322.29 63.8876H320.875V71H319.127V62.5187ZM323.869 71L321.935 67.2195L323.781 67.2079L325.739 70.9184V71H323.869Z" fill="#F3F3F3"/>
<g filter="url(#filter10_d_438_97)">
<path d="M288.169 102.369H284.873L284.855 100.554H287.622C288.11 100.554 288.509 100.492 288.821 100.369C289.132 100.239 289.364 100.054 289.517 99.8134C289.676 99.5666 289.755 99.267 289.755 98.9145C289.755 98.515 289.678 98.1919 289.526 97.9451C289.379 97.6984 289.147 97.5192 288.83 97.4076C288.518 97.296 288.116 97.2402 287.622 97.2402H285.789V108H283.146V95.1693H287.622C288.368 95.1693 289.035 95.2398 289.623 95.3808C290.216 95.5218 290.718 95.7362 291.13 96.0241C291.541 96.3119 291.855 96.6762 292.072 97.1168C292.29 97.5515 292.399 98.0685 292.399 98.6678C292.399 99.1965 292.278 99.6841 292.037 100.131C291.802 100.577 291.429 100.941 290.918 101.223C290.413 101.505 289.752 101.661 288.935 101.69L288.169 102.369ZM288.054 108H284.15L285.181 105.938H288.054C288.518 105.938 288.897 105.864 289.191 105.718C289.485 105.565 289.702 105.359 289.843 105.101C289.984 104.842 290.054 104.546 290.054 104.211C290.054 103.835 289.99 103.509 289.861 103.233C289.737 102.956 289.537 102.745 289.261 102.598C288.985 102.445 288.621 102.369 288.169 102.369H285.622L285.639 100.554H288.812L289.42 101.267C290.201 101.256 290.83 101.394 291.306 101.682C291.788 101.964 292.137 102.331 292.354 102.783C292.578 103.235 292.689 103.72 292.689 104.237C292.689 105.06 292.51 105.753 292.152 106.317C291.793 106.875 291.268 107.295 290.574 107.577C289.887 107.859 289.047 108 288.054 108ZM303.914 103.744H306.549C306.496 104.607 306.259 105.374 305.836 106.044C305.418 106.713 304.834 107.236 304.082 107.612C303.336 107.988 302.437 108.176 301.385 108.176C300.563 108.176 299.826 108.035 299.173 107.753C298.521 107.465 297.963 107.054 297.499 106.52C297.041 105.985 296.691 105.339 296.45 104.581C296.21 103.823 296.089 102.974 296.089 102.034V101.144C296.089 100.204 296.212 99.3551 296.459 98.5973C296.712 97.8335 297.07 97.1844 297.534 96.6497C298.004 96.1151 298.565 95.7039 299.217 95.416C299.87 95.1281 300.598 94.9842 301.403 94.9842C302.472 94.9842 303.374 95.1781 304.108 95.5658C304.849 95.9536 305.421 96.4882 305.827 97.1697C306.238 97.8512 306.485 98.6266 306.567 99.4961H303.923C303.894 98.9791 303.791 98.5414 303.615 98.1831C303.439 97.8188 303.171 97.5457 302.813 97.3635C302.46 97.1755 301.99 97.0815 301.403 97.0815C300.962 97.0815 300.578 97.1638 300.249 97.3283C299.92 97.4928 299.643 97.7425 299.42 98.0773C299.197 98.4122 299.03 98.8352 298.918 99.3463C298.812 99.8515 298.759 100.445 298.759 101.126V102.034C298.759 102.698 298.809 103.282 298.909 103.788C299.009 104.287 299.162 104.71 299.367 105.057C299.579 105.397 299.849 105.656 300.178 105.832C300.513 106.003 300.915 106.088 301.385 106.088C301.938 106.088 302.393 106 302.751 105.823C303.11 105.647 303.383 105.386 303.571 105.039C303.765 104.692 303.879 104.261 303.914 103.744ZM315.113 102.369H311.817L311.8 100.554H314.567C315.054 100.554 315.454 100.492 315.765 100.369C316.077 100.239 316.309 100.054 316.461 99.8134C316.62 99.5666 316.699 99.267 316.699 98.9145C316.699 98.515 316.623 98.1919 316.47 97.9451C316.323 97.6984 316.091 97.5192 315.774 97.4076C315.463 97.296 315.06 97.2402 314.567 97.2402H312.734V108H310.09V95.1693H314.567C315.313 95.1693 315.98 95.2398 316.567 95.3808C317.161 95.5218 317.663 95.7362 318.074 96.0241C318.485 96.3119 318.8 96.6762 319.017 97.1168C319.234 97.5515 319.343 98.0685 319.343 98.6678C319.343 99.1965 319.223 99.6841 318.982 100.131C318.747 100.577 318.374 100.941 317.863 101.223C317.357 101.505 316.696 101.661 315.88 101.69L315.113 102.369ZM314.999 108H311.095L312.126 105.938H314.999C315.463 105.938 315.842 105.864 316.135 105.718C316.429 105.565 316.646 105.359 316.787 105.101C316.928 104.842 316.999 104.546 316.999 104.211C316.999 103.835 316.934 103.509 316.805 103.233C316.682 102.956 316.482 102.745 316.206 102.598C315.93 102.445 315.566 102.369 315.113 102.369H312.566L312.584 100.554H315.756L316.364 101.267C317.146 101.256 317.774 101.394 318.25 101.682C318.732 101.964 319.082 102.331 319.299 102.783C319.522 103.235 319.634 103.72 319.634 104.237C319.634 105.06 319.455 105.753 319.096 106.317C318.738 106.875 318.212 107.295 317.519 107.577C316.832 107.859 315.991 108 314.999 108Z" fill="white"/>
</g>
<rect x="274.451" y="88.4512" width="53.0976" height="27.0976" rx="1.35357" stroke="#F4F4F4" stroke-width="0.902381"/>
<g filter="url(#filter11_f_438_97)">
<rect x="461" y="28.2676" width="139.869" height="126.333" fill="url(#paint8_radial_438_97)"/>
<rect x="461.664" y="28.9311" width="138.542" height="125.006" stroke="#4205F0" stroke-width="1.32705"/>
</g>
<g opacity="0.5" filter="url(#filter12_f_438_97)">
<rect x="487.169" y="3" width="88.4333" height="104.676" fill="url(#paint9_radial_438_97)"/>
<rect x="487.832" y="3.66353" width="87.1063" height="103.349" stroke="#4205F0" stroke-width="1.32705"/>
</g>
<g filter="url(#filter13_f_438_97)">
<path d="M486.718 107.676H576.505L600.869 154.6H461L486.718 107.676Z" fill="url(#paint10_radial_438_97)" fill-opacity="0.3"/>
<path d="M462.12 153.936L487.111 108.339H576.102L599.777 153.936H462.12Z" stroke="#4205F0" stroke-width="1.32705"/>
</g>
<g filter="url(#filter14_f_438_97)">
<path d="M488.071 3H574.7L600.869 28.2667H461L488.071 3Z" fill="url(#paint11_radial_438_97)"/>
<path d="M462.683 27.6031L488.333 3.66353H574.432L599.227 27.6031H462.683Z" stroke="#4205F0" stroke-width="1.32705"/>
</g>
<path d="M508.505 62.5187V71H506.757V62.5187H508.505ZM513.584 62.5187L510.223 66.7069L508.283 68.7923L507.969 67.138L509.28 65.3438L511.441 62.5187H513.584ZM511.598 71L509.099 67.0797L510.392 65.9962L513.666 71H511.598ZM521.226 69.6369V71H516.711V69.6369H521.226ZM517.282 62.5187V71H515.535V62.5187H517.282ZM520.637 65.9729V67.3011H516.711V65.9729H520.637ZM521.22 62.5187V63.8876H516.711V62.5187H521.22ZM529.129 69.6369V71H524.615V69.6369H529.129ZM525.186 62.5187V71H523.438V62.5187H525.186ZM528.541 65.9729V67.3011H524.615V65.9729H528.541ZM529.123 62.5187V63.8876H524.615V62.5187H529.123ZM534.644 67.9768H532.483V66.6137H534.644C534.978 66.6137 535.25 66.5593 535.46 66.4506C535.67 66.338 535.823 66.1827 535.92 65.9846C536.017 65.7865 536.066 65.5633 536.066 65.3147C536.066 65.0623 536.017 64.8273 535.92 64.6099C535.823 64.3924 535.67 64.2177 535.46 64.0856C535.25 63.9536 534.978 63.8876 534.644 63.8876H533.089V71H531.341V62.5187H534.644C535.308 62.5187 535.877 62.6391 536.351 62.8798C536.829 63.1167 537.194 63.4449 537.446 63.8643C537.699 64.2837 537.825 64.7633 537.825 65.3031C537.825 65.8506 537.699 66.3244 537.446 66.7244C537.194 67.1244 536.829 67.4331 536.351 67.6506C535.877 67.868 535.308 67.9768 534.644 67.9768ZM545.915 69.6369V71H541.4V69.6369H545.915ZM541.971 62.5187V71H540.224V62.5187H541.971ZM545.326 65.9729V67.3011H541.4V65.9729H545.326ZM545.909 62.5187V63.8876H541.4V62.5187H545.909ZM548.127 62.5187H551.29C551.939 62.5187 552.496 62.6158 552.962 62.8099C553.432 63.0041 553.793 63.2915 554.045 63.672C554.298 64.0526 554.424 64.5206 554.424 65.0759C554.424 65.5302 554.346 65.9205 554.191 66.2467C554.04 66.569 553.824 66.8389 553.544 67.0564C553.269 67.27 552.944 67.4409 552.572 67.569L552.018 67.8603H549.269L549.257 66.4972H551.302C551.609 66.4972 551.863 66.4428 552.065 66.3341C552.267 66.2254 552.418 66.0739 552.519 65.8797C552.624 65.6856 552.676 65.4603 552.676 65.204C552.676 64.9322 552.626 64.6973 552.525 64.4992C552.424 64.3011 552.271 64.1497 552.065 64.0448C551.859 63.94 551.601 63.8876 551.29 63.8876H549.875V71H548.127V62.5187ZM552.869 71L550.935 67.2195L552.781 67.2079L554.739 70.9184V71H552.869Z" fill="#F3F3F3"/>
<g filter="url(#filter15_d_438_97)">
<path d="M518.169 102.369H514.873L514.855 100.554H517.622C518.11 100.554 518.509 100.492 518.821 100.369C519.132 100.239 519.364 100.054 519.517 99.8134C519.676 99.5666 519.755 99.267 519.755 98.9145C519.755 98.515 519.678 98.1919 519.526 97.9451C519.379 97.6984 519.147 97.5192 518.83 97.4076C518.518 97.296 518.116 97.2402 517.622 97.2402H515.789V108H513.146V95.1693H517.622C518.368 95.1693 519.035 95.2398 519.623 95.3808C520.216 95.5218 520.718 95.7362 521.13 96.0241C521.541 96.3119 521.855 96.6762 522.072 97.1168C522.29 97.5515 522.399 98.0685 522.399 98.6678C522.399 99.1965 522.278 99.6841 522.037 100.131C521.802 100.577 521.429 100.941 520.918 101.223C520.413 101.505 519.752 101.661 518.935 101.69L518.169 102.369ZM518.054 108H514.15L515.181 105.938H518.054C518.518 105.938 518.897 105.864 519.191 105.718C519.485 105.565 519.702 105.359 519.843 105.101C519.984 104.842 520.054 104.546 520.054 104.211C520.054 103.835 519.99 103.509 519.861 103.233C519.737 102.956 519.537 102.745 519.261 102.598C518.985 102.445 518.621 102.369 518.169 102.369H515.622L515.639 100.554H518.812L519.42 101.267C520.201 101.256 520.83 101.394 521.306 101.682C521.788 101.964 522.137 102.331 522.354 102.783C522.578 103.235 522.689 103.72 522.689 104.237C522.689 105.06 522.51 105.753 522.152 106.317C521.793 106.875 521.268 107.295 520.574 107.577C519.887 107.859 519.047 108 518.054 108ZM533.914 103.744H536.549C536.496 104.607 536.259 105.374 535.836 106.044C535.418 106.713 534.834 107.236 534.082 107.612C533.336 107.988 532.437 108.176 531.385 108.176C530.563 108.176 529.826 108.035 529.173 107.753C528.521 107.465 527.963 107.054 527.499 106.52C527.041 105.985 526.691 105.339 526.45 104.581C526.21 103.823 526.089 102.974 526.089 102.034V101.144C526.089 100.204 526.212 99.3551 526.459 98.5973C526.712 97.8335 527.07 97.1844 527.534 96.6497C528.004 96.1151 528.565 95.7039 529.217 95.416C529.87 95.1281 530.598 94.9842 531.403 94.9842C532.472 94.9842 533.374 95.1781 534.108 95.5658C534.849 95.9536 535.421 96.4882 535.827 97.1697C536.238 97.8512 536.485 98.6266 536.567 99.4961H533.923C533.894 98.9791 533.791 98.5414 533.615 98.1831C533.439 97.8188 533.171 97.5457 532.813 97.3635C532.46 97.1755 531.99 97.0815 531.403 97.0815C530.962 97.0815 530.578 97.1638 530.249 97.3283C529.92 97.4928 529.643 97.7425 529.42 98.0773C529.197 98.4122 529.03 98.8352 528.918 99.3463C528.812 99.8515 528.759 100.445 528.759 101.126V102.034C528.759 102.698 528.809 103.282 528.909 103.788C529.009 104.287 529.162 104.71 529.367 105.057C529.579 105.397 529.849 105.656 530.178 105.832C530.513 106.003 530.915 106.088 531.385 106.088C531.938 106.088 532.393 106 532.751 105.823C533.11 105.647 533.383 105.386 533.571 105.039C533.765 104.692 533.879 104.261 533.914 103.744ZM550.533 95.1693V108H547.889L542.734 99.3992V108H540.09V95.1693H542.734L547.898 103.779V95.1693H550.533Z" fill="white"/>
</g>
<rect x="504.451" y="88.4512" width="53.0976" height="27.0976" rx="1.35357" stroke="#F4F4F4" stroke-width="0.902381"/>
<g filter="url(#filter16_f_438_97)">
<rect x="162.129" y="89.6289" width="46.9238" height="0.902381" fill="url(#paint12_linear_438_97)"/>
</g>
<path d="M212.662 90.5311L207.248 87.4052V93.657L212.662 90.5311Z" fill="#4205F0"/>
<g filter="url(#filter17_f_438_97)">
<rect x="394.948" y="93.2383" width="46.9238" height="0.902381" fill="url(#paint13_linear_438_97)"/>
</g>
<path d="M445.481 94.1405L440.067 91.0145V97.2664L445.481 94.1405Z" fill="#4205F0"/>
<defs>
<filter id="filter0_f_438_97" x="0.345896" y="25.6135" width="145.177" height="131.642" filterUnits="userSpaceOnUse" color-interpolation-filters="sRGB">
<feFlood flood-opacity="0" result="BackgroundImageFix"/>
<feBlend mode="normal" in="SourceGraphic" in2="BackgroundImageFix" result="shape"/>
<feGaussianBlur stdDeviation="1.32705" result="effect1_foregroundBlur_438_97"/>
</filter>
<filter id="filter1_f_438_97" x="26.5148" y="0.345896" width="93.7418" height="109.984" filterUnits="userSpaceOnUse" color-interpolation-filters="sRGB">
<feFlood flood-opacity="0" result="BackgroundImageFix"/>
<feBlend mode="normal" in="SourceGraphic" in2="BackgroundImageFix" result="shape"/>
<feGaussianBlur stdDeviation="1.32705" result="effect1_foregroundBlur_438_97"/>
</filter>
<filter id="filter2_f_438_97" x="0.345896" y="105.022" width="145.177" height="52.232" filterUnits="userSpaceOnUse" color-interpolation-filters="sRGB">
<feFlood flood-opacity="0" result="BackgroundImageFix"/>
<feBlend mode="normal" in="SourceGraphic" in2="BackgroundImageFix" result="shape"/>
<feGaussianBlur stdDeviation="1.32705" result="effect1_foregroundBlur_438_97"/>
</filter>
<filter id="filter3_f_438_97" x="0.345896" y="0.345896" width="145.177" height="30.5758" filterUnits="userSpaceOnUse" color-interpolation-filters="sRGB">
<feFlood flood-opacity="0" result="BackgroundImageFix"/>
<feBlend mode="normal" in="SourceGraphic" in2="BackgroundImageFix" result="shape"/>
<feGaussianBlur stdDeviation="1.32705" result="effect1_foregroundBlur_438_97"/>
</filter>
<filter id="filter4_d_438_97" x="52.1455" y="92.9844" width="41.8809" height="17.1914" filterUnits="userSpaceOnUse" color-interpolation-filters="sRGB">
<feFlood flood-opacity="0" result="BackgroundImageFix"/>
<feColorMatrix in="SourceAlpha" type="matrix" values="0 0 0 0 0 0 0 0 0 0 0 0 0 0 0 0 0 0 127 0" result="hardAlpha"/>
<feOffset/>
<feGaussianBlur stdDeviation="1"/>
<feComposite in2="hardAlpha" operator="out"/>
<feColorMatrix type="matrix" values="0 0 0 0 1 0 0 0 0 1 0 0 0 0 1 0 0 0 1 0"/>
<feBlend mode="normal" in2="BackgroundImageFix" result="effect1_dropShadow_438_97"/>
<feBlend mode="normal" in="SourceGraphic" in2="effect1_dropShadow_438_97" result="shape"/>
</filter>
<filter id="filter5_d_438_97" x="44.1455" y="88.9844" width="57.8809" height="33.1914" filterUnits="userSpaceOnUse" color-interpolation-filters="sRGB">
<feFlood flood-opacity="0" result="BackgroundImageFix"/>
<feColorMatrix in="SourceAlpha" type="matrix" values="0 0 0 0 0 0 0 0 0 0 0 0 0 0 0 0 0 0 127 0" result="hardAlpha"/>
<feOffset dy="4"/>
<feGaussianBlur stdDeviation="5"/>
<feComposite in2="hardAlpha" operator="out"/>
<feColorMatrix type="matrix" values="0 0 0 0 1 0 0 0 0 1 0 0 0 0 1 0 0 0 0.25 0"/>
<feBlend mode="normal" in2="BackgroundImageFix" result="effect1_dropShadow_438_97"/>
<feBlend mode="normal" in="SourceGraphic" in2="effect1_dropShadow_438_97" result="shape"/>
</filter>
<filter id="filter6_f_438_97" x="229.346" y="25.6135" width="145.177" height="131.642" filterUnits="userSpaceOnUse" color-interpolation-filters="sRGB">
<feFlood flood-opacity="0" result="BackgroundImageFix"/>
<feBlend mode="normal" in="SourceGraphic" in2="BackgroundImageFix" result="shape"/>
<feGaussianBlur stdDeviation="1.32705" result="effect1_foregroundBlur_438_97"/>
</filter>
<filter id="filter7_f_438_97" x="255.515" y="0.345896" width="93.7418" height="109.984" filterUnits="userSpaceOnUse" color-interpolation-filters="sRGB">
<feFlood flood-opacity="0" result="BackgroundImageFix"/>
<feBlend mode="normal" in="SourceGraphic" in2="BackgroundImageFix" result="shape"/>
<feGaussianBlur stdDeviation="1.32705" result="effect1_foregroundBlur_438_97"/>
</filter>
<filter id="filter8_f_438_97" x="229.346" y="105.022" width="145.177" height="52.232" filterUnits="userSpaceOnUse" color-interpolation-filters="sRGB">
<feFlood flood-opacity="0" result="BackgroundImageFix"/>
<feBlend mode="normal" in="SourceGraphic" in2="BackgroundImageFix" result="shape"/>
<feGaussianBlur stdDeviation="1.32705" result="effect1_foregroundBlur_438_97"/>
</filter>
<filter id="filter9_f_438_97" x="229.346" y="0.345896" width="145.177" height="30.5758" filterUnits="userSpaceOnUse" color-interpolation-filters="sRGB">
<feFlood flood-opacity="0" result="BackgroundImageFix"/>
<feBlend mode="normal" in="SourceGraphic" in2="BackgroundImageFix" result="shape"/>
<feGaussianBlur stdDeviation="1.32705" result="effect1_foregroundBlur_438_97"/>
</filter>
<filter id="filter10_d_438_97" x="281.146" y="92.9844" width="40.4883" height="17.1914" filterUnits="userSpaceOnUse" color-interpolation-filters="sRGB">
<feFlood flood-opacity="0" result="BackgroundImageFix"/>
<feColorMatrix in="SourceAlpha" type="matrix" values="0 0 0 0 0 0 0 0 0 0 0 0 0 0 0 0 0 0 127 0" result="hardAlpha"/>
<feOffset/>
<feGaussianBlur stdDeviation="1"/>
<feComposite in2="hardAlpha" operator="out"/>
<feColorMatrix type="matrix" values="0 0 0 0 1 0 0 0 0 1 0 0 0 0 1 0 0 0 1 0"/>
<feBlend mode="normal" in2="BackgroundImageFix" result="effect1_dropShadow_438_97"/>
<feBlend mode="normal" in="SourceGraphic" in2="effect1_dropShadow_438_97" result="shape"/>
</filter>
<filter id="filter11_f_438_97" x="458.346" y="25.6135" width="145.177" height="131.642" filterUnits="userSpaceOnUse" color-interpolation-filters="sRGB">
<feFlood flood-opacity="0" result="BackgroundImageFix"/>
<feBlend mode="normal" in="SourceGraphic" in2="BackgroundImageFix" result="shape"/>
<feGaussianBlur stdDeviation="1.32705" result="effect1_foregroundBlur_438_97"/>
</filter>
<filter id="filter12_f_438_97" x="484.515" y="0.345896" width="93.7418" height="109.984" filterUnits="userSpaceOnUse" color-interpolation-filters="sRGB">
<feFlood flood-opacity="0" result="BackgroundImageFix"/>
<feBlend mode="normal" in="SourceGraphic" in2="BackgroundImageFix" result="shape"/>
<feGaussianBlur stdDeviation="1.32705" result="effect1_foregroundBlur_438_97"/>
</filter>
<filter id="filter13_f_438_97" x="458.346" y="105.022" width="145.177" height="52.232" filterUnits="userSpaceOnUse" color-interpolation-filters="sRGB">
<feFlood flood-opacity="0" result="BackgroundImageFix"/>
<feBlend mode="normal" in="SourceGraphic" in2="BackgroundImageFix" result="shape"/>
<feGaussianBlur stdDeviation="1.32705" result="effect1_foregroundBlur_438_97"/>
</filter>
<filter id="filter14_f_438_97" x="458.346" y="0.345896" width="145.177" height="30.5758" filterUnits="userSpaceOnUse" color-interpolation-filters="sRGB">
<feFlood flood-opacity="0" result="BackgroundImageFix"/>
<feBlend mode="normal" in="SourceGraphic" in2="BackgroundImageFix" result="shape"/>
<feGaussianBlur stdDeviation="1.32705" result="effect1_foregroundBlur_438_97"/>
</filter>
<filter id="filter15_d_438_97" x="511.146" y="92.9844" width="41.3877" height="17.1914" filterUnits="userSpaceOnUse" color-interpolation-filters="sRGB">
<feFlood flood-opacity="0" result="BackgroundImageFix"/>
<feColorMatrix in="SourceAlpha" type="matrix" values="0 0 0 0 0 0 0 0 0 0 0 0 0 0 0 0 0 0 127 0" result="hardAlpha"/>
<feOffset/>
<feGaussianBlur stdDeviation="1"/>
<feComposite in2="hardAlpha" operator="out"/>
<feColorMatrix type="matrix" values="0 0 0 0 1 0 0 0 0 1 0 0 0 0 1 0 0 0 1 0"/>
<feBlend mode="normal" in2="BackgroundImageFix" result="effect1_dropShadow_438_97"/>
<feBlend mode="normal" in="SourceGraphic" in2="effect1_dropShadow_438_97" result="shape"/>
</filter>
<filter id="filter16_f_438_97" x="159.475" y="86.9748" width="52.232" height="6.21055" filterUnits="userSpaceOnUse" color-interpolation-filters="sRGB">
<feFlood flood-opacity="0" result="BackgroundImageFix"/>
<feBlend mode="normal" in="SourceGraphic" in2="BackgroundImageFix" result="shape"/>
<feGaussianBlur stdDeviation="1.32705" result="effect1_foregroundBlur_438_97"/>
</filter>
<filter id="filter17_f_438_97" x="392.294" y="90.5842" width="52.232" height="6.21055" filterUnits="userSpaceOnUse" color-interpolation-filters="sRGB">
<feFlood flood-opacity="0" result="BackgroundImageFix"/>
<feBlend mode="normal" in="SourceGraphic" in2="BackgroundImageFix" result="shape"/>
<feGaussianBlur stdDeviation="1.32705" result="effect1_foregroundBlur_438_97"/>
</filter>
<radialGradient id="paint0_radial_438_97" cx="0" cy="0" r="1" gradientUnits="userSpaceOnUse" gradientTransform="translate(72.224 90.6874) rotate(86.2627) scale(117.943 130.642)">
<stop offset="0.046875" stop-color="#4205F0"/>
<stop offset="1" stop-color="#4205F0" stop-opacity="0"/>
</radialGradient>
<radialGradient id="paint1_radial_438_97" cx="0" cy="0" r="1" gradientUnits="userSpaceOnUse" gradientTransform="translate(72.9364 54.7193) rotate(87.1465) scale(97.6374 82.6731)">
<stop offset="0.046875" stop-color="#4205F0"/>
<stop offset="1" stop-color="#4205F0" stop-opacity="0"/>
</radialGradient>
<radialGradient id="paint2_radial_438_97" cx="0" cy="0" r="1" gradientUnits="userSpaceOnUse" gradientTransform="translate(72.224 130.86) rotate(80.0257) scale(44.3851 128.942)">
<stop offset="0.046875" stop-color="#4205F0"/>
<stop offset="1" stop-color="#4205F0" stop-opacity="0"/>
</radialGradient>
<radialGradient id="paint3_radial_438_97" cx="0" cy="0" r="1" gradientUnits="userSpaceOnUse" gradientTransform="translate(72.224 -35.6469) rotate(86.2627) scale(117.943 130.642)">
<stop offset="0.046875" stop-color="#4205F0"/>
<stop offset="1" stop-color="#4205F0" stop-opacity="0"/>
</radialGradient>
<radialGradient id="paint4_radial_438_97" cx="0" cy="0" r="1" gradientUnits="userSpaceOnUse" gradientTransform="translate(301.224 90.6874) rotate(86.2627) scale(117.943 130.642)">
<stop offset="0.046875" stop-color="#4205F0"/>
<stop offset="1" stop-color="#4205F0" stop-opacity="0"/>
</radialGradient>
<radialGradient id="paint5_radial_438_97" cx="0" cy="0" r="1" gradientUnits="userSpaceOnUse" gradientTransform="translate(301.936 54.7193) rotate(87.1465) scale(97.6374 82.6731)">
<stop offset="0.046875" stop-color="#4205F0"/>
<stop offset="1" stop-color="#4205F0" stop-opacity="0"/>
</radialGradient>
<radialGradient id="paint6_radial_438_97" cx="0" cy="0" r="1" gradientUnits="userSpaceOnUse" gradientTransform="translate(301.224 130.86) rotate(80.0257) scale(44.3851 128.942)">
<stop offset="0.046875" stop-color="#4205F0"/>
<stop offset="1" stop-color="#4205F0" stop-opacity="0"/>
</radialGradient>
<radialGradient id="paint7_radial_438_97" cx="0" cy="0" r="1" gradientUnits="userSpaceOnUse" gradientTransform="translate(301.224 -35.6469) rotate(86.2627) scale(117.943 130.642)">
<stop offset="0.046875" stop-color="#4205F0"/>
<stop offset="1" stop-color="#4205F0" stop-opacity="0"/>
</radialGradient>
<radialGradient id="paint8_radial_438_97" cx="0" cy="0" r="1" gradientUnits="userSpaceOnUse" gradientTransform="translate(530.224 90.6874) rotate(86.2627) scale(117.943 130.642)">
<stop offset="0.046875" stop-color="#4205F0"/>
<stop offset="1" stop-color="#4205F0" stop-opacity="0"/>
</radialGradient>
<radialGradient id="paint9_radial_438_97" cx="0" cy="0" r="1" gradientUnits="userSpaceOnUse" gradientTransform="translate(530.936 54.7193) rotate(87.1465) scale(97.6374 82.6731)">
<stop offset="0.046875" stop-color="#4205F0"/>
<stop offset="1" stop-color="#4205F0" stop-opacity="0"/>
</radialGradient>
<radialGradient id="paint10_radial_438_97" cx="0" cy="0" r="1" gradientUnits="userSpaceOnUse" gradientTransform="translate(530.224 130.86) rotate(80.0257) scale(44.3851 128.942)">
<stop offset="0.046875" stop-color="#4205F0"/>
<stop offset="1" stop-color="#4205F0" stop-opacity="0"/>
</radialGradient>
<radialGradient id="paint11_radial_438_97" cx="0" cy="0" r="1" gradientUnits="userSpaceOnUse" gradientTransform="translate(530.224 -35.6469) rotate(86.2627) scale(117.943 130.642)">
<stop offset="0.046875" stop-color="#4205F0"/>
<stop offset="1" stop-color="#4205F0" stop-opacity="0"/>
</radialGradient>
<linearGradient id="paint12_linear_438_97" x1="204.09" y1="90.0801" x2="197.045" y2="65.3804" gradientUnits="userSpaceOnUse">
<stop offset="0.046875" stop-color="#4205F0"/>
<stop offset="0.615513" stop-color="#4205F0" stop-opacity="0"/>
</linearGradient>
<linearGradient id="paint13_linear_438_97" x1="436.909" y1="93.6895" x2="429.864" y2="68.9897" gradientUnits="userSpaceOnUse">
<stop offset="0.046875" stop-color="#4205F0"/>
<stop offset="0.615513" stop-color="#4205F0" stop-opacity="0"/>
</linearGradient>
</defs>
</svg>
