<svg width="501" height="158" viewBox="0 0 501 158" fill="none" xmlns="http://www.w3.org/2000/svg">
<g filter="url(#filter0_f_415_3538)">
<rect x="154" y="28.2676" width="139.869" height="126.333" fill="url(#paint0_radial_415_3538)"/>
<rect x="154.664" y="28.9311" width="138.542" height="125.006" stroke="#4205F0" stroke-width="1.32705"/>
</g>
<g opacity="0.5" filter="url(#filter1_f_415_3538)">
<rect x="180.169" y="3" width="88.4333" height="104.676" fill="url(#paint1_radial_415_3538)"/>
<rect x="180.832" y="3.66353" width="87.1063" height="103.349" stroke="#4205F0" stroke-width="1.32705"/>
</g>
<g filter="url(#filter2_f_415_3538)">
<path d="M179.718 107.676H269.505L293.869 154.6H154L179.718 107.676Z" fill="url(#paint2_radial_415_3538)" fill-opacity="0.3"/>
<path d="M155.12 153.936L180.111 108.339H269.102L292.777 153.936H155.12Z" stroke="#4205F0" stroke-width="1.32705"/>
</g>
<g filter="url(#filter3_f_415_3538)">
<path d="M181.071 3H267.7L293.869 28.2667H154L181.071 3Z" fill="url(#paint3_radial_415_3538)"/>
<path d="M155.683 27.6031L181.333 3.66353H267.432L292.227 27.6031H155.683Z" stroke="#4205F0" stroke-width="1.32705"/>
</g>
<path d="M190.206 103.969L187.899 111H186.041L189.192 102.519H190.375L190.206 103.969ZM192.122 111L189.81 103.969L189.623 102.519H190.817L193.986 111H192.122ZM192.017 107.843V109.212H187.538V107.843H192.017ZM202.868 102.519V111H201.121L197.713 105.315V111H195.966V102.519H197.713L201.127 108.21V102.519H202.868ZM206.584 102.519L208.354 106.387L210.125 102.519H212.03L209.24 107.913V111H207.469V107.913L204.673 102.519H206.584Z" fill="#F3F3F3"/>
<g filter="url(#filter4_f_415_3538)">
<path d="M236.387 109.197H233.092L233.074 107.382H235.841C236.329 107.382 236.728 107.32 237.039 107.197C237.351 107.067 237.583 106.882 237.736 106.641C237.894 106.395 237.974 106.095 237.974 105.743C237.974 105.343 237.897 105.02 237.744 104.773C237.598 104.527 237.366 104.347 237.048 104.236C236.737 104.124 236.334 104.068 235.841 104.068H234.008V114.828H231.364V101.997H235.841C236.587 101.997 237.254 102.068 237.841 102.209C238.435 102.35 238.937 102.564 239.348 102.852C239.76 103.14 240.074 103.504 240.291 103.945C240.509 104.38 240.617 104.897 240.617 105.496C240.617 106.025 240.497 106.512 240.256 106.959C240.021 107.405 239.648 107.769 239.137 108.051C238.632 108.333 237.971 108.489 237.154 108.519L236.387 109.197ZM236.273 114.828H232.369L233.4 112.766H236.273C236.737 112.766 237.116 112.693 237.41 112.546C237.703 112.393 237.921 112.187 238.062 111.929C238.203 111.67 238.273 111.374 238.273 111.039C238.273 110.663 238.209 110.337 238.079 110.061C237.956 109.785 237.756 109.573 237.48 109.426C237.204 109.273 236.84 109.197 236.387 109.197H233.841L233.858 107.382H237.031L237.639 108.096C238.42 108.084 239.049 108.222 239.525 108.51C240.006 108.792 240.356 109.159 240.573 109.611C240.796 110.064 240.908 110.548 240.908 111.065C240.908 111.888 240.729 112.581 240.371 113.145C240.012 113.703 239.486 114.123 238.793 114.405C238.106 114.687 237.266 114.828 236.273 114.828ZM252.133 110.572H254.768C254.715 111.435 254.477 112.202 254.054 112.872C253.637 113.542 253.053 114.064 252.301 114.44C251.555 114.816 250.656 115.004 249.604 115.004C248.782 115.004 248.044 114.863 247.392 114.581C246.74 114.294 246.182 113.882 245.718 113.348C245.26 112.813 244.91 112.167 244.669 111.409C244.428 110.651 244.308 109.802 244.308 108.862V107.972C244.308 107.032 244.431 106.183 244.678 105.425C244.931 104.662 245.289 104.012 245.753 103.478C246.223 102.943 246.784 102.532 247.436 102.244C248.088 101.956 248.817 101.812 249.622 101.812C250.691 101.812 251.593 102.006 252.327 102.394C253.067 102.782 253.64 103.316 254.045 103.998C254.457 104.679 254.703 105.455 254.786 106.324H252.142C252.113 105.807 252.01 105.37 251.834 105.011C251.657 104.647 251.39 104.374 251.032 104.192C250.679 104.004 250.209 103.91 249.622 103.91C249.181 103.91 248.796 103.992 248.467 104.156C248.138 104.321 247.862 104.571 247.639 104.905C247.416 105.24 247.248 105.663 247.137 106.174C247.031 106.68 246.978 107.273 246.978 107.955V108.862C246.978 109.526 247.028 110.111 247.128 110.616C247.228 111.115 247.38 111.538 247.586 111.885C247.798 112.226 248.068 112.484 248.397 112.66C248.732 112.831 249.134 112.916 249.604 112.916C250.156 112.916 250.612 112.828 250.97 112.651C251.328 112.475 251.602 112.214 251.79 111.867C251.983 111.521 252.098 111.089 252.133 110.572Z" fill="white" fill-opacity="0.5"/>
</g>
<path d="M235.169 108.369H231.873L231.855 106.554H234.622C235.11 106.554 235.509 106.492 235.821 106.369C236.132 106.239 236.364 106.054 236.517 105.813C236.676 105.567 236.755 105.267 236.755 104.915C236.755 104.515 236.678 104.192 236.526 103.945C236.379 103.698 236.147 103.519 235.83 103.408C235.518 103.296 235.116 103.24 234.622 103.24H232.789V114H230.146V101.169H234.622C235.368 101.169 236.035 101.24 236.623 101.381C237.216 101.522 237.718 101.736 238.13 102.024C238.541 102.312 238.855 102.676 239.072 103.117C239.29 103.552 239.399 104.069 239.399 104.668C239.399 105.196 239.278 105.684 239.037 106.131C238.802 106.577 238.429 106.941 237.918 107.223C237.413 107.505 236.752 107.661 235.935 107.69L235.169 108.369ZM235.054 114H231.15L232.181 111.938H235.054C235.518 111.938 235.897 111.864 236.191 111.718C236.485 111.565 236.702 111.359 236.843 111.101C236.984 110.842 237.054 110.546 237.054 110.211C237.054 109.835 236.99 109.509 236.861 109.233C236.737 108.956 236.537 108.745 236.261 108.598C235.985 108.445 235.621 108.369 235.169 108.369H232.622L232.639 106.554H235.812L236.42 107.267C237.201 107.256 237.83 107.394 238.306 107.682C238.788 107.964 239.137 108.331 239.354 108.783C239.578 109.235 239.689 109.72 239.689 110.237C239.689 111.06 239.51 111.753 239.152 112.317C238.793 112.875 238.268 113.295 237.574 113.577C236.887 113.859 236.047 114 235.054 114ZM250.914 109.744H253.549C253.496 110.607 253.259 111.374 252.836 112.044C252.418 112.713 251.834 113.236 251.082 113.612C250.336 113.988 249.437 114.176 248.385 114.176C247.563 114.176 246.826 114.035 246.173 113.753C245.521 113.465 244.963 113.054 244.499 112.52C244.041 111.985 243.691 111.339 243.45 110.581C243.21 109.823 243.089 108.974 243.089 108.034V107.144C243.089 106.204 243.212 105.355 243.459 104.597C243.712 103.834 244.07 103.184 244.534 102.65C245.004 102.115 245.565 101.704 246.217 101.416C246.87 101.128 247.598 100.984 248.403 100.984C249.472 100.984 250.374 101.178 251.108 101.566C251.849 101.954 252.421 102.488 252.827 103.17C253.238 103.851 253.485 104.627 253.567 105.496H250.923C250.894 104.979 250.791 104.541 250.615 104.183C250.439 103.819 250.171 103.546 249.813 103.364C249.46 103.176 248.99 103.082 248.403 103.082C247.962 103.082 247.578 103.164 247.249 103.328C246.92 103.493 246.643 103.742 246.42 104.077C246.197 104.412 246.03 104.835 245.918 105.346C245.812 105.852 245.759 106.445 245.759 107.126V108.034C245.759 108.698 245.809 109.282 245.909 109.788C246.009 110.287 246.162 110.71 246.367 111.057C246.579 111.397 246.849 111.656 247.178 111.832C247.513 112.003 247.915 112.088 248.385 112.088C248.938 112.088 249.393 112 249.751 111.823C250.11 111.647 250.383 111.386 250.571 111.039C250.765 110.692 250.879 110.261 250.914 109.744Z" fill="white"/>
<rect x="221.451" y="94.4512" width="40.0976" height="27.0976" rx="1.35357" stroke="#F4F4F4" stroke-width="0.902381"/>
<path d="M195.633 75.4526L191.12 66.4922H192.999L196.619 73.4951" fill="#F3F3F3"/>
<path d="M191.454 77.0007H189.492L194.425 66.7754H196.354L191.454 77.0007Z" fill="#F3F3F3"/>
<path d="M189.945 66.3452C189.733 65.6714 189.442 65.0901 189.072 64.6014L189.083 64.5792L189.044 64.5631C188.854 64.3183 188.646 64.0958 188.416 63.8982C187.722 63.3 186.818 63 185.707 63C184.596 63 183.695 63.3 183.006 63.8982C182.316 64.4964 181.81 65.3127 181.486 66.3452C181.162 67.3778 181 68.5404 181 69.8311C181 71.1219 181.162 72.2844 181.486 73.317C181.702 74.0051 182 74.5971 182.378 75.092L182.365 75.1196L182.395 75.1161C182.58 75.3546 182.783 75.5709 183.006 75.7641C183.694 76.3623 184.595 76.6623 185.706 76.6623C186.817 76.6623 187.721 76.3632 188.416 75.7641C189.111 75.165 189.62 74.3496 189.945 73.317C190.268 72.2844 190.431 71.1228 190.431 69.8311C190.431 68.5395 190.268 67.3787 189.945 66.3452V66.3452ZM182.789 72.6476C182.581 71.826 182.476 70.8869 182.476 69.8311C182.476 68.7754 182.58 67.8363 182.789 67.0147C182.997 66.193 183.338 65.545 183.814 65.0696C184.288 64.5943 184.919 64.3566 185.706 64.3566C186.341 64.3566 186.874 64.5071 187.304 64.8079L183.111 73.5627C182.982 73.2859 182.874 72.9814 182.789 72.6476ZM188.642 72.6476C188.434 73.4693 188.091 74.1173 187.617 74.5926C187.142 75.068 186.505 75.3057 185.706 75.3057C185.103 75.3057 184.592 75.1659 184.172 74.8864L184.222 74.8802L188.343 66.1467C188.463 66.4102 188.562 66.6995 188.642 67.0138C188.85 67.8354 188.955 68.7745 188.955 69.8303C188.955 70.886 188.851 71.826 188.642 72.6467V72.6476Z" fill="#F3F3F3"/>
<path d="M219.541 71.1672H214.534V74.375H220.054L219.806 75.9263H212.573V65.3086H219.76V66.8709H214.534V69.6H219.541V71.1672V71.1672Z" fill="#F3F3F3"/>
<path d="M225.852 66.8758H222.684V65.3086H231.052V66.8758H227.878V75.9263H225.852V66.8758Z" fill="#F3F3F3"/>
<path d="M234.21 65.3086H236.218V69.5951H240.775V65.3086H242.788V75.9263H240.775V71.1623H236.218V75.9263H234.21V65.3086Z" fill="#F3F3F3"/>
<path d="M254.086 71.1672H249.079V74.375H254.599L254.351 75.9263H247.118V65.3086H254.305V66.8709H249.079V69.6H254.086V71.1672V71.1672Z" fill="#F3F3F3"/>
<path d="M259.966 71.3876V75.9251H257.987V65.3086H262.415C264.517 65.3086 266.009 66.2807 266.009 68.1344C266.009 69.611 265.136 70.3028 264.205 70.6162C265.355 71.0056 265.795 71.8528 265.795 73.2143V73.4617C265.795 74.4167 265.841 75.3203 265.949 75.9263H264.001C263.841 75.488 263.795 74.6811 263.795 73.4433V73.1862C263.795 71.8712 263.283 71.3888 261.663 71.3888H259.964L259.966 71.3876ZM259.966 69.8841H261.824C263.058 69.8841 264.006 69.567 264.006 68.285C264.006 67.2504 263.226 66.8109 262.15 66.8109H259.967V69.8828L259.966 69.8841Z" fill="#F3F3F3"/>
<path d="M204.097 64.4355C206.056 68.2017 208 71.9373 209.965 75.7132C209.546 75.5565 209.17 75.4157 208.793 75.2749C208.442 75.1439 208.095 75.008 207.741 74.8843C207.606 74.8366 207.527 74.7607 207.467 74.637C206.37 72.416 205.267 70.1974 204.166 67.9789C204.147 67.9434 204.13 67.9079 204.097 67.843C203.88 68.2825 203.672 68.6976 203.466 69.1139C202.55 70.9602 201.634 72.8053 200.721 74.6529C200.662 74.7729 200.581 74.8353 200.455 74.8819C199.759 75.1378 199.066 75.401 198.372 75.6606C198.337 75.6728 198.303 75.6826 198.236 75.7034C200.194 71.9385 202.138 68.2017 204.097 64.4355Z" fill="#F3F3F3"/>
<g filter="url(#filter5_f_415_3538)">
<g filter="url(#filter6_f_415_3538)">
<path d="M59.6383 129.026C50.6931 129.026 41.7497 129.03 32.8045 129.024C30.3992 129.024 28.7099 127.804 28.1547 125.704C27.9648 124.983 27.9301 124.247 28.162 123.544C29.1464 120.578 29.9262 117.526 31.5261 114.805C35.301 108.38 40.9151 104.703 48.2824 103.657C48.8869 103.571 49.2321 103.832 49.6192 104.207C52.6582 107.145 56.1976 108.875 60.5259 108.577C64.0233 108.336 66.9326 106.778 69.3945 104.371C70.041 103.739 70.6345 103.588 71.491 103.739C80.3377 105.321 86.3407 110.283 89.4253 118.737C89.9568 120.192 90.4535 121.659 90.9211 123.136C91.8817 126.17 89.9276 128.911 86.7443 129.026C86.4704 129.035 86.1964 129.03 85.9225 129.03C77.1599 129.03 68.3973 129.03 59.6365 129.03L59.6383 129.026Z" fill="url(#paint4_radial_415_3538)"/>
<path d="M60.7101 128.366L60.712 128.363H59.6383C57.0814 128.363 54.5247 128.363 51.9681 128.363C45.5802 128.364 39.1931 128.365 32.8049 128.361H32.8045C31.714 128.361 30.8322 128.085 30.1722 127.612C29.516 127.142 29.0379 126.449 28.7962 125.535L60.7101 128.366ZM60.7101 128.366H60.7145H60.7658H60.8172H60.8685H60.9198H60.9712H61.0225H61.0738H61.1252H61.1765H61.2278H61.2792H61.3305H61.3819H61.4332H61.4845H61.5359H61.5872H61.6385H61.6899H61.7412H61.7925H61.8439H61.8952H61.9465H61.9979H62.0492H62.1005H62.1519H62.2032H62.2545H62.3059H62.3572H62.4085H62.4599H62.5112H62.5625H62.6139H62.6652H62.7165H62.7679H62.8192H62.8706H62.9219H62.9732H63.0246H63.0759H63.1272H63.1786H63.2299H63.2812H63.3326H63.3839H63.4352H63.4866H63.5379H63.5892H63.6406H63.6919H63.7433H63.7946H63.8459H63.8973H63.9486H63.9999H64.0513H64.1026H64.1539H64.2053H64.2566H64.308H64.3593H64.4106H64.462H64.5133H64.5646H64.616H64.6673H64.7186H64.77H64.8213H64.8727H64.924H64.9753H65.0267H65.078H65.1293H65.1807H65.232H65.2833H65.3347H65.386H65.4374H65.4887H65.54H65.5914H65.6427H65.694H65.7454H65.7967H65.848H65.8994H65.9507H66.0021H66.0534H66.1047H66.1561H66.2074H66.2587H66.3101H66.3614H66.4128H66.4641H66.5154H66.5668H66.6181H66.6694H66.7208H66.7721H66.8235H66.8748H66.9261H66.9775H67.0288H67.0802H67.1315H67.1828H67.2342H67.2855H67.3368H67.3882H67.4395H67.4909H67.5422H67.5935H67.6449H67.6962H67.7475H67.7989H67.8502H67.9016H67.9529H68.0042H68.0556H68.1069H68.1583H68.2096H68.2609H68.3123H68.3636H68.4149H68.4663H68.5176H68.569H68.6203H68.6716H68.723H68.7743H68.8257H68.877H68.9283H68.9797H69.031H69.0823H69.1337H69.185H69.2364H69.2877H69.339H69.3904H69.4417H69.4931H69.5444H69.5957H69.6471H69.6984H69.7498H69.8011H69.8524H69.9038H69.9551H70.0065H70.0578H70.1091H70.1605H70.2118H70.2632H70.3145H70.3658H70.4172H70.4685H70.5199H70.5712H70.6225H70.6739H70.7252H70.7766H70.8279H70.8792H70.9306H70.9819H71.0332H71.0846H71.1359H71.1873H71.2386H71.2899H71.3413H71.3926H71.444H71.4953H71.5466H71.598H71.6493H71.7007H71.752H71.8033H71.8547H71.906H71.9574H72.0087H72.0601H72.1114H72.1627H72.2141H72.2654H72.3168H72.3681H72.4194H72.4708H72.5221H72.5735H72.6248H72.6761H72.7275H72.7788H72.8302H72.8815H72.9328H72.9842H73.0355H73.0869H73.1382H73.1895H73.2409H73.2922H73.3436H73.3949H73.4463H73.4976H73.5489H73.6003H73.6516H73.703H73.7543H73.8056H73.857H73.9083H73.9597H74.011H74.0623H74.1137H74.165H74.2164H74.2677H74.319H74.3704H74.4217H74.4731H74.5244H74.5758H74.6271H74.6784H74.7298H74.7811H74.8325H74.8838H74.9351H74.9865H75.0378H75.0892H75.1405H75.1919H75.2432H75.2945H75.3459H75.3972H75.4486H75.4999H75.5512H75.6026H75.6539H75.7053H75.7566H75.808H75.8593H75.9106H75.962H76.0133H76.0647H76.116H76.1673H76.2187H76.27H76.3214H76.3727H76.4241H76.4754H76.5267H76.5781H76.6294H76.6808H76.7321H76.7834H76.8348H76.8861H76.9375H76.9888H77.0402H77.0915H77.1428H77.1942H77.2455H77.2969H77.3482H77.3996H77.4509H77.5022H77.5536H77.6049H77.6563H77.7076H77.7589H77.8103H77.8616H77.913H77.9643H78.0157H78.067H78.1183H78.1697H78.221H78.2724H78.3237H78.3751H78.4264H78.4777H78.5291H78.5804H78.6318H78.6831H78.7345H78.7858H78.8371H78.8885H78.9398H78.9912H79.0425H79.0939H79.1452H79.1965H79.2479H79.2992H79.3506H79.4019H79.4533H79.5046H79.5559H79.6073H79.6586H79.71H79.7613H79.8127H79.864H79.9153H79.9667H80.018H80.0694H80.1207H80.1721H80.2234H80.2747H80.3261H80.3774H80.4288H80.4801H80.5315H80.5828H80.6341H80.6855H80.7368H80.7882H80.8395H80.8909H80.9422H80.9935H81.0449H81.0962H81.1476H81.1989H81.2503H81.3016H81.3529H81.4043H81.4556H81.507H81.5583H81.6097H81.661H81.7123H81.7637H81.815H81.8664H81.9177H81.9691H82.0204H82.0717H82.1231H82.1744H82.2258H82.2771H82.3285H82.3798H82.4311H82.4825H82.5338H82.5852H82.6365H82.6879H82.7392H82.7905H82.8419H82.8932H82.9446H82.9959H83.0473H83.0986H83.15H83.2013H83.2526H83.304H83.3553H83.4067H83.458H83.5094H83.5607H83.612H83.6634H83.7147H83.7661H83.8174H83.8688H83.9201H83.9714H84.0228H84.0741H84.1255H84.1768H84.2282H84.2795H84.3308H84.3822H84.4335H84.4849H84.5362H84.5876H84.6389H84.6903H84.7416H84.7929H84.8443H84.8956H84.947H84.9983H85.0497H85.101H85.1523H85.2037H85.255H85.3064H85.3577H85.4091H85.4604H85.5117H85.5631H85.6144H85.6658H85.7171H85.7685H85.8198H85.8711H85.9225C86.0055 128.366 86.085 128.367 86.1623 128.367C86.3563 128.368 86.5361 128.369 86.7213 128.363C88.1209 128.312 89.2073 127.69 89.8457 126.791C90.4838 125.893 90.7101 124.668 90.2885 123.337L90.2885 123.337C89.8236 121.868 89.33 120.41 88.8021 118.964L88.802 118.964C85.7998 110.736 79.9924 105.933 71.3748 104.392C71.0091 104.328 70.7565 104.338 70.5495 104.398C70.3451 104.458 70.1266 104.583 69.8582 104.846C67.3074 107.34 64.2563 108.985 60.5716 109.239L60.5715 109.239C56.0104 109.553 52.2957 107.718 49.158 104.684L49.6181 104.208L49.158 104.684C48.9711 104.503 48.8522 104.409 48.7442 104.357C48.6583 104.316 48.5544 104.289 48.3757 104.314L60.7101 128.366ZM32.0982 115.141L32.0981 115.141C30.8606 117.246 30.1338 119.542 29.3813 121.92C29.1895 122.526 28.996 123.137 28.792 123.752C28.6113 124.3 28.6291 124.9 28.7962 125.535L32.0982 115.141ZM32.0982 115.141C35.7682 108.895 41.2035 105.333 48.3757 104.314L32.0982 115.141Z" stroke="#4205F0" stroke-width="1.32705"/>
</g>
<g filter="url(#filter7_f_415_3538)">
<path d="M73.7998 83.679C73.5496 89.472 71.8347 95.2285 67.7693 100.138C66.3119 101.896 64.5605 103.315 62.3617 104.033C59.1419 105.085 56.2417 104.311 53.6447 102.256C50.593 99.8417 48.6827 96.6128 47.3348 93.0388C45.483 88.1297 44.8383 83.0818 45.9797 77.9024C47.8608 69.3626 56.3659 64.5265 64.3578 67.4979C69.3454 69.3516 72.0904 73.1704 73.3049 78.2147C73.6993 79.851 73.7852 81.5203 73.798 83.6771L73.7998 83.679Z" fill="url(#paint5_radial_415_3538)"/>
<path d="M62.1558 103.402L62.1556 103.402C59.1834 104.373 56.5112 103.678 54.0564 101.736C51.1302 99.4207 49.2777 96.3102 47.9557 92.8046L47.9557 92.8046C46.1401 87.9916 45.519 83.0758 46.6277 78.0452L46.6277 78.0451C48.427 69.8768 56.5334 65.2967 64.1266 68.1199L64.1266 68.1199C68.864 69.8806 71.4852 73.4914 72.6598 78.37L72.6598 78.3702C73.0354 79.9281 73.1217 81.5332 73.1344 83.6811L73.1346 83.7027C72.8812 89.3644 71.2011 94.9532 67.2584 99.7142C65.855 101.408 64.2017 102.735 62.1558 103.402Z" stroke="#4205F0" stroke-width="1.32705"/>
</g>
</g>
<g filter="url(#filter8_f_415_3538)">
<path d="M59.6383 119.552C50.6931 119.552 41.7497 119.555 32.8045 119.55C30.3992 119.55 28.7099 118.33 28.1547 116.23C27.9648 115.508 27.9301 114.772 28.162 114.069C29.1464 111.103 29.9262 108.051 31.5261 105.33C35.301 98.9052 40.9151 95.2289 48.2824 94.1824C48.8869 94.0966 49.2321 94.3577 49.6192 94.7321C52.6582 97.6706 56.1976 99.4002 60.5259 99.1025C64.0233 98.8614 66.9326 97.3036 69.3945 94.8965C70.041 94.2646 70.6345 94.113 71.491 94.2646C80.3377 95.8462 86.3407 100.808 89.4253 109.262C89.9568 110.718 90.4535 112.184 90.9211 113.662C91.8817 116.695 89.9276 119.437 86.7443 119.552C86.4704 119.561 86.1964 119.555 85.9225 119.555C77.1599 119.555 68.3973 119.555 59.6365 119.555L59.6383 119.552Z" fill="url(#paint6_radial_415_3538)"/>
<path d="M60.7101 118.892L60.712 118.888H59.6383C57.0814 118.888 54.5247 118.888 51.9681 118.889C45.5802 118.889 39.1931 118.89 32.8049 118.886H32.8045C31.714 118.886 30.8322 118.61 30.1722 118.138C29.516 117.668 29.0379 116.974 28.7962 116.06L60.7101 118.892ZM60.7101 118.892H60.7145H60.7658H60.8172H60.8685H60.9198H60.9712H61.0225H61.0738H61.1252H61.1765H61.2278H61.2792H61.3305H61.3819H61.4332H61.4845H61.5359H61.5872H61.6385H61.6899H61.7412H61.7925H61.8439H61.8952H61.9465H61.9979H62.0492H62.1005H62.1519H62.2032H62.2545H62.3059H62.3572H62.4085H62.4599H62.5112H62.5625H62.6139H62.6652H62.7165H62.7679H62.8192H62.8706H62.9219H62.9732H63.0246H63.0759H63.1272H63.1786H63.2299H63.2812H63.3326H63.3839H63.4352H63.4866H63.5379H63.5892H63.6406H63.6919H63.7433H63.7946H63.8459H63.8973H63.9486H63.9999H64.0513H64.1026H64.1539H64.2053H64.2566H64.308H64.3593H64.4106H64.462H64.5133H64.5646H64.616H64.6673H64.7186H64.77H64.8213H64.8727H64.924H64.9753H65.0267H65.078H65.1293H65.1807H65.232H65.2833H65.3347H65.386H65.4374H65.4887H65.54H65.5914H65.6427H65.694H65.7454H65.7967H65.848H65.8994H65.9507H66.0021H66.0534H66.1047H66.1561H66.2074H66.2587H66.3101H66.3614H66.4128H66.4641H66.5154H66.5668H66.6181H66.6694H66.7208H66.7721H66.8235H66.8748H66.9261H66.9775H67.0288H67.0802H67.1315H67.1828H67.2342H67.2855H67.3368H67.3882H67.4395H67.4909H67.5422H67.5935H67.6449H67.6962H67.7475H67.7989H67.8502H67.9016H67.9529H68.0042H68.0556H68.1069H68.1583H68.2096H68.2609H68.3123H68.3636H68.4149H68.4663H68.5176H68.569H68.6203H68.6716H68.723H68.7743H68.8257H68.877H68.9283H68.9797H69.031H69.0823H69.1337H69.185H69.2364H69.2877H69.339H69.3904H69.4417H69.4931H69.5444H69.5957H69.6471H69.6984H69.7498H69.8011H69.8524H69.9038H69.9551H70.0065H70.0578H70.1091H70.1605H70.2118H70.2632H70.3145H70.3658H70.4172H70.4685H70.5199H70.5712H70.6225H70.6739H70.7252H70.7766H70.8279H70.8792H70.9306H70.9819H71.0332H71.0846H71.1359H71.1873H71.2386H71.2899H71.3413H71.3926H71.444H71.4953H71.5466H71.598H71.6493H71.7007H71.752H71.8033H71.8547H71.906H71.9574H72.0087H72.0601H72.1114H72.1627H72.2141H72.2654H72.3168H72.3681H72.4194H72.4708H72.5221H72.5735H72.6248H72.6761H72.7275H72.7788H72.8302H72.8815H72.9328H72.9842H73.0355H73.0869H73.1382H73.1895H73.2409H73.2922H73.3436H73.3949H73.4463H73.4976H73.5489H73.6003H73.6516H73.703H73.7543H73.8056H73.857H73.9083H73.9597H74.011H74.0623H74.1137H74.165H74.2164H74.2677H74.319H74.3704H74.4217H74.4731H74.5244H74.5758H74.6271H74.6784H74.7298H74.7811H74.8325H74.8838H74.9351H74.9865H75.0378H75.0892H75.1405H75.1919H75.2432H75.2945H75.3459H75.3972H75.4486H75.4999H75.5512H75.6026H75.6539H75.7053H75.7566H75.808H75.8593H75.9106H75.962H76.0133H76.0647H76.116H76.1673H76.2187H76.27H76.3214H76.3727H76.4241H76.4754H76.5267H76.5781H76.6294H76.6808H76.7321H76.7834H76.8348H76.8861H76.9375H76.9888H77.0402H77.0915H77.1428H77.1942H77.2455H77.2969H77.3482H77.3996H77.4509H77.5022H77.5536H77.6049H77.6563H77.7076H77.7589H77.8103H77.8616H77.913H77.9643H78.0157H78.067H78.1183H78.1697H78.221H78.2724H78.3237H78.3751H78.4264H78.4777H78.5291H78.5804H78.6318H78.6831H78.7345H78.7858H78.8371H78.8885H78.9398H78.9912H79.0425H79.0939H79.1452H79.1965H79.2479H79.2992H79.3506H79.4019H79.4533H79.5046H79.5559H79.6073H79.6586H79.71H79.7613H79.8127H79.864H79.9153H79.9667H80.018H80.0694H80.1207H80.1721H80.2234H80.2747H80.3261H80.3774H80.4288H80.4801H80.5315H80.5828H80.6341H80.6855H80.7368H80.7882H80.8395H80.8909H80.9422H80.9935H81.0449H81.0962H81.1476H81.1989H81.2503H81.3016H81.3529H81.4043H81.4556H81.507H81.5583H81.6097H81.661H81.7123H81.7637H81.815H81.8664H81.9177H81.9691H82.0204H82.0717H82.1231H82.1744H82.2258H82.2771H82.3285H82.3798H82.4311H82.4825H82.5338H82.5852H82.6365H82.6879H82.7392H82.7905H82.8419H82.8932H82.9446H82.9959H83.0473H83.0986H83.15H83.2013H83.2526H83.304H83.3553H83.4067H83.458H83.5094H83.5607H83.612H83.6634H83.7147H83.7661H83.8174H83.8688H83.9201H83.9714H84.0228H84.0741H84.1255H84.1768H84.2282H84.2795H84.3308H84.3822H84.4335H84.4849H84.5362H84.5876H84.6389H84.6903H84.7416H84.7929H84.8443H84.8956H84.947H84.9983H85.0497H85.101H85.1523H85.2037H85.255H85.3064H85.3577H85.4091H85.4604H85.5117H85.5631H85.6144H85.6658H85.7171H85.7685H85.8198H85.8711H85.9225C86.0055 118.892 86.085 118.892 86.1623 118.893C86.3563 118.894 86.5361 118.895 86.7213 118.888C88.1209 118.838 89.2073 118.216 89.8457 117.317C90.4838 116.418 90.7101 115.193 90.2885 113.862L90.2885 113.862C89.8236 112.393 89.33 110.936 88.8021 109.49L88.802 109.49C85.7998 101.262 79.9924 96.4586 71.3748 94.9179C71.0091 94.8532 70.7565 94.8635 70.5495 94.9238C70.3451 94.9833 70.1266 95.1087 69.8582 95.371C67.3074 97.8651 64.2563 99.5104 60.5716 99.7644L60.5715 99.7644C56.0104 100.078 52.2957 98.2431 49.158 95.2091L49.6181 94.7333L49.158 95.2091C48.9711 95.0284 48.8522 94.9345 48.7442 94.8824C48.6583 94.841 48.5544 94.814 48.3757 94.8393L60.7101 118.892ZM32.0982 105.666L32.0981 105.666C30.8606 107.771 30.1338 110.068 29.3813 112.445C29.1895 113.051 28.996 113.663 28.792 114.277C28.6113 114.826 28.6291 115.425 28.7962 116.06L32.0982 105.666ZM32.0982 105.666C35.7682 99.42 41.2035 95.8581 48.3757 94.8393L32.0982 105.666Z" stroke="#4205F0" stroke-width="1.32705"/>
</g>
<g filter="url(#filter9_f_415_3538)">
<path d="M73.7998 74.2044C73.5496 79.9974 71.8347 85.7539 67.7693 90.663C66.3119 92.4217 64.5605 93.8408 62.3617 94.5585C59.1419 95.6104 56.2417 94.8361 53.6447 92.7815C50.593 90.3671 48.6827 87.1382 47.3348 83.5642C45.483 78.6551 44.8383 73.6072 45.9797 68.4278C47.8608 59.888 56.3659 55.0519 64.3578 58.0233C69.3454 59.877 72.0904 63.6958 73.3049 68.7401C73.6993 70.3764 73.7852 72.0457 73.798 74.2025L73.7998 74.2044Z" fill="url(#paint7_radial_415_3538)"/>
<path d="M62.1558 93.9277L62.1556 93.9278C59.1834 94.8988 56.5112 94.2032 54.0564 92.2611C51.1302 89.9461 49.2777 86.8356 47.9557 83.33L47.9557 83.33C46.1401 78.517 45.519 73.6012 46.6277 68.5706L46.6277 68.5705C48.427 60.4021 56.5334 55.8221 64.1266 58.6453L64.1266 58.6453C68.864 60.406 71.4852 64.0168 72.6598 68.8954L72.6598 68.8956C73.0354 70.4535 73.1217 72.0586 73.1344 74.2065L73.1346 74.2281C72.8812 79.8898 71.2011 85.4786 67.2584 90.2396C65.855 91.9332 64.2017 93.2599 62.1558 93.9277Z" stroke="#4205F0" stroke-width="1.32705"/>
</g>
<g filter="url(#filter10_f_415_3538)">
<rect x="96.5811" y="88.7266" width="46.9238" height="0.902381" fill="url(#paint8_linear_415_3538)"/>
</g>
<path d="M147.114 89.6288L141.7 86.5028V92.7547L147.114 89.6288Z" fill="#4205F0"/>
<path d="M368.958 134.621H365.371L365.352 132.645H368.363C368.894 132.645 369.329 132.578 369.668 132.444C370.007 132.303 370.259 132.102 370.426 131.84C370.598 131.571 370.684 131.245 370.684 130.861C370.684 130.426 370.601 130.075 370.435 129.806C370.275 129.538 370.023 129.343 369.677 129.221C369.338 129.1 368.9 129.039 368.363 129.039H366.368V140.75H363.491V126.785H368.363C369.175 126.785 369.901 126.862 370.541 127.015C371.186 127.169 371.733 127.402 372.181 127.715C372.628 128.029 372.97 128.425 373.207 128.905C373.444 129.378 373.562 129.94 373.562 130.593C373.562 131.168 373.431 131.699 373.169 132.185C372.913 132.671 372.507 133.067 371.951 133.374C371.401 133.681 370.681 133.851 369.792 133.883L368.958 134.621ZM368.833 140.75H364.584L365.707 138.506H368.833C369.338 138.506 369.751 138.426 370.071 138.266C370.39 138.1 370.627 137.876 370.78 137.594C370.934 137.313 371.011 136.99 371.011 136.626C371.011 136.216 370.94 135.862 370.8 135.561C370.665 135.26 370.448 135.03 370.147 134.87C369.847 134.704 369.45 134.621 368.958 134.621H366.186L366.205 132.645H369.658L370.32 133.422C371.17 133.409 371.855 133.56 372.373 133.873C372.897 134.18 373.277 134.58 373.514 135.072C373.757 135.564 373.878 136.092 373.878 136.654C373.878 137.55 373.683 138.304 373.293 138.918C372.903 139.525 372.331 139.983 371.576 140.29C370.828 140.597 369.914 140.75 368.833 140.75ZM386.978 138.506V140.75H379.948V138.506H386.978ZM380.878 126.785V140.75H378.001V126.785H380.878ZM401.431 133.441V134.103C401.431 135.165 401.287 136.117 400.999 136.961C400.711 137.805 400.305 138.525 399.781 139.119C399.257 139.708 398.63 140.159 397.901 140.472C397.179 140.785 396.376 140.942 395.494 140.942C394.618 140.942 393.815 140.785 393.086 140.472C392.364 140.159 391.737 139.708 391.206 139.119C390.676 138.525 390.263 137.805 389.969 136.961C389.681 136.117 389.537 135.165 389.537 134.103V133.441C389.537 132.373 389.681 131.421 389.969 130.583C390.257 129.739 390.663 129.02 391.187 128.425C391.718 127.83 392.345 127.376 393.067 127.063C393.796 126.75 394.599 126.593 395.475 126.593C396.357 126.593 397.159 126.75 397.882 127.063C398.611 127.376 399.238 127.83 399.762 128.425C400.293 129.02 400.702 129.739 400.99 130.583C401.284 131.421 401.431 132.373 401.431 133.441ZM398.525 134.103V133.422C398.525 132.68 398.457 132.028 398.323 131.465C398.189 130.903 397.991 130.43 397.729 130.046C397.466 129.662 397.147 129.375 396.769 129.183C396.392 128.984 395.96 128.885 395.475 128.885C394.989 128.885 394.557 128.984 394.18 129.183C393.809 129.375 393.492 129.662 393.23 130.046C392.974 130.43 392.779 130.903 392.645 131.465C392.511 132.028 392.444 132.68 392.444 133.422V134.103C392.444 134.838 392.511 135.491 392.645 136.06C392.779 136.622 392.978 137.099 393.24 137.489C393.502 137.873 393.822 138.164 394.199 138.362C394.576 138.56 395.008 138.659 395.494 138.659C395.98 138.659 396.411 138.56 396.789 138.362C397.166 138.164 397.482 137.873 397.738 137.489C397.994 137.099 398.189 136.622 398.323 136.06C398.457 135.491 398.525 134.838 398.525 134.103ZM413.562 136.117H416.43C416.372 137.057 416.113 137.892 415.653 138.621C415.199 139.35 414.563 139.919 413.744 140.328C412.932 140.737 411.954 140.942 410.809 140.942C409.914 140.942 409.112 140.788 408.402 140.481C407.692 140.168 407.085 139.721 406.58 139.139C406.081 138.557 405.7 137.853 405.438 137.029C405.176 136.204 405.045 135.28 405.045 134.257V133.288C405.045 132.265 405.179 131.341 405.448 130.516C405.723 129.685 406.113 128.978 406.618 128.396C407.129 127.814 407.74 127.367 408.45 127.053C409.16 126.74 409.952 126.583 410.829 126.583C411.992 126.583 412.974 126.794 413.773 127.216C414.579 127.638 415.202 128.22 415.643 128.962C416.091 129.704 416.36 130.548 416.449 131.494H413.572C413.54 130.932 413.428 130.455 413.236 130.065C413.044 129.669 412.753 129.371 412.363 129.173C411.979 128.969 411.468 128.866 410.829 128.866C410.349 128.866 409.93 128.956 409.572 129.135C409.214 129.314 408.913 129.586 408.67 129.95C408.427 130.315 408.245 130.775 408.124 131.331C408.009 131.881 407.951 132.527 407.951 133.269V134.257C407.951 134.979 408.005 135.615 408.114 136.165C408.223 136.709 408.389 137.169 408.613 137.546C408.843 137.917 409.137 138.199 409.495 138.391C409.86 138.576 410.298 138.669 410.809 138.669C411.41 138.669 411.906 138.573 412.296 138.381C412.686 138.189 412.983 137.905 413.188 137.527C413.399 137.15 413.524 136.68 413.562 136.117ZM423.161 126.785V140.75H420.284V126.785H423.161ZM431.525 126.785L425.991 133.681L422.797 137.115L422.279 134.391L424.437 131.437L427.995 126.785H431.525ZM428.254 140.75L424.14 134.295L426.269 132.511L431.659 140.75H428.254ZM442.524 136.117H445.392C445.335 137.057 445.076 137.892 444.615 138.621C444.161 139.35 443.525 139.919 442.707 140.328C441.895 140.737 440.916 140.942 439.772 140.942C438.876 140.942 438.074 140.788 437.364 140.481C436.654 140.168 436.047 139.721 435.542 139.139C435.043 138.557 434.663 137.853 434.4 137.029C434.138 136.204 434.007 135.28 434.007 134.257V133.288C434.007 132.265 434.141 131.341 434.41 130.516C434.685 129.685 435.075 128.978 435.58 128.396C436.092 127.814 436.702 127.367 437.412 127.053C438.122 126.74 438.915 126.583 439.791 126.583C440.955 126.583 441.936 126.794 442.735 127.216C443.541 127.638 444.165 128.22 444.606 128.962C445.053 129.704 445.322 130.548 445.411 131.494H442.534C442.502 130.932 442.39 130.455 442.198 130.065C442.006 129.669 441.716 129.371 441.325 129.173C440.942 128.969 440.43 128.866 439.791 128.866C439.311 128.866 438.892 128.956 438.534 129.135C438.176 129.314 437.876 129.586 437.633 129.95C437.39 130.315 437.208 130.775 437.086 131.331C436.971 131.881 436.913 132.527 436.913 133.269V134.257C436.913 134.979 436.968 135.615 437.076 136.165C437.185 136.709 437.351 137.169 437.575 137.546C437.805 137.917 438.1 138.199 438.458 138.391C438.822 138.576 439.26 138.669 439.772 138.669C440.373 138.669 440.868 138.573 441.258 138.381C441.648 138.189 441.946 137.905 442.15 137.527C442.361 137.15 442.486 136.68 442.524 136.117ZM458.559 132.473V134.717H451.27V132.473H458.559ZM452.124 126.785V140.75H449.246V126.785H452.124ZM460.612 126.785V140.75H457.744V126.785H460.612ZM470.93 129.173L467.132 140.75H464.073L469.262 126.785H471.209L470.93 129.173ZM474.086 140.75L470.278 129.173L469.971 126.785H471.938L477.155 140.75H474.086ZM473.913 135.551V137.805H466.538V135.551H473.913ZM483.474 126.785V140.75H480.606V126.785H483.474ZM499.5 126.785V140.75H496.622L491.011 131.389V140.75H488.134V126.785H491.011L496.632 136.156V126.785H499.5Z" fill="#F3F3F3"/>
<path d="M437.519 91.3945V94.7344H424.379V91.3945H437.519ZM437.519 97.7227V101.062H424.379V97.7227H437.519Z" fill="#F3F3F3"/>
<g filter="url(#filter11_f_415_3538)">
<path d="M420.22 47.0327H414.793L414.764 44.0436H419.32C420.123 44.0436 420.781 43.9421 421.293 43.7389C421.806 43.5261 422.188 43.2214 422.44 42.8248C422.701 42.4185 422.831 41.9251 422.831 41.3447C422.831 40.6869 422.706 40.1549 422.454 39.7486C422.212 39.3423 421.83 39.0473 421.308 38.8635C420.795 38.6797 420.133 38.5878 419.32 38.5878H416.302V56.3047H411.949V35.1779H419.32C420.548 35.1779 421.646 35.294 422.614 35.5262C423.591 35.7583 424.418 36.1114 425.095 36.5854C425.772 37.0594 426.29 37.6592 426.648 38.3847C427.006 39.1005 427.184 39.9518 427.184 40.9385C427.184 41.8091 426.986 42.612 426.59 43.3471C426.203 44.0823 425.588 44.6821 424.747 45.1464C423.915 45.6107 422.827 45.8671 421.482 45.9154L420.22 47.0327ZM420.031 56.3047H413.603L415.301 52.9093H420.031C420.795 52.9093 421.419 52.7884 421.903 52.5466C422.386 52.2951 422.744 51.9565 422.977 51.5309C423.209 51.1052 423.325 50.6167 423.325 50.0653C423.325 49.4462 423.218 48.9094 423.006 48.4547C422.802 48.0001 422.474 47.6518 422.019 47.41C421.564 47.1585 420.964 47.0327 420.22 47.0327H416.026L416.055 44.0436H421.279L422.28 45.2189C423.567 45.1996 424.602 45.4269 425.385 45.9009C426.178 46.3652 426.754 46.9698 427.112 47.7147C427.479 48.4595 427.663 49.2576 427.663 50.1089C427.663 51.4631 427.368 52.6046 426.778 53.5333C426.188 54.4522 425.322 55.1439 424.181 55.6082C423.049 56.0725 421.666 56.3047 420.031 56.3047ZM446.146 49.2963H450.485C450.398 50.7183 450.006 51.9807 449.31 53.0834C448.623 54.1862 447.66 55.0471 446.422 55.6662C445.193 56.2853 443.713 56.5949 441.982 56.5949C440.628 56.5949 439.414 56.3627 438.34 55.8984C437.266 55.4244 436.347 54.7473 435.583 53.867C434.828 52.9867 434.253 51.9226 433.856 50.6748C433.46 49.4269 433.261 48.0291 433.261 46.4813V45.0158C433.261 43.4681 433.464 42.0702 433.871 40.8224C434.287 39.5648 434.877 38.4959 435.641 37.6156C436.415 36.7354 437.339 36.0582 438.412 35.5842C439.486 35.1102 440.686 34.8732 442.011 34.8732C443.771 34.8732 445.256 35.1924 446.466 35.8309C447.684 36.4693 448.628 37.3496 449.295 38.4717C449.972 39.5938 450.378 40.8707 450.514 42.3024H446.161C446.112 41.4511 445.943 40.7305 445.653 40.1404C445.363 39.5406 444.923 39.0908 444.333 38.791C443.752 38.4814 442.978 38.3266 442.011 38.3266C441.285 38.3266 440.652 38.4621 440.11 38.7329C439.568 39.0038 439.114 39.4149 438.746 39.9663C438.379 40.5177 438.103 41.2141 437.919 42.0557C437.745 42.8876 437.658 43.8647 437.658 44.9868V46.4813C437.658 47.5744 437.74 48.5369 437.905 49.3688C438.069 50.1911 438.321 50.8876 438.659 51.4583C439.007 52.0194 439.452 52.445 439.994 52.7352C440.545 53.0157 441.208 53.156 441.982 53.156C442.891 53.156 443.641 53.0109 444.231 52.7207C444.821 52.4305 445.271 52 445.58 51.4293C445.9 50.8586 446.088 50.1476 446.146 49.2963Z" fill="white" fill-opacity="0.5"/>
</g>
<path d="M418.213 45.6675H412.786L412.757 42.6784H417.313C418.116 42.6784 418.774 42.5768 419.287 42.3737C419.799 42.1609 420.181 41.8561 420.433 41.4595C420.694 41.0533 420.825 40.5599 420.825 39.9795C420.825 39.3217 420.699 38.7897 420.447 38.3834C420.205 37.9771 419.823 37.6821 419.301 37.4983C418.788 37.3145 418.126 37.2226 417.313 37.2226H414.295V54.9395H409.942V33.8127H417.313C418.542 33.8127 419.64 33.9288 420.607 34.1609C421.584 34.3931 422.411 34.7462 423.088 35.2202C423.765 35.6942 424.283 36.2939 424.641 37.0194C424.999 37.7353 425.178 38.5865 425.178 39.5732C425.178 40.4438 424.979 41.2467 424.583 41.9819C424.196 42.7171 423.582 43.3168 422.74 43.7812C421.908 44.2455 420.82 44.5018 419.475 44.5502L418.213 45.6675ZM418.024 54.9395H411.596L413.294 51.5441H418.024C418.788 51.5441 419.412 51.4232 419.896 51.1813C420.38 50.9298 420.738 50.5912 420.97 50.1656C421.202 49.74 421.318 49.2515 421.318 48.7001C421.318 48.081 421.212 47.5441 420.999 47.0895C420.796 46.6348 420.467 46.2866 420.012 46.0447C419.557 45.7932 418.958 45.6675 418.213 45.6675H414.019L414.048 42.6784H419.272L420.273 43.8537C421.56 43.8344 422.595 44.0617 423.378 44.5357C424.172 45 424.747 45.6046 425.105 46.3495C425.473 47.0943 425.656 47.8924 425.656 48.7436C425.656 50.0979 425.361 51.2394 424.771 52.168C424.181 53.087 423.315 53.7786 422.174 54.243C421.042 54.7073 419.659 54.9395 418.024 54.9395ZM444.139 47.9311H448.478C448.391 49.3531 447.999 50.6154 447.303 51.7182C446.616 52.821 445.653 53.6819 444.415 54.301C443.187 54.9201 441.707 55.2297 439.975 55.2297C438.621 55.2297 437.407 54.9975 436.333 54.5332C435.259 54.0592 434.34 53.382 433.576 52.5018C432.822 51.6215 432.246 50.5574 431.849 49.3095C431.453 48.0616 431.254 46.6638 431.254 45.1161V43.6506C431.254 42.1028 431.458 40.705 431.864 39.4571C432.28 38.1996 432.87 37.1307 433.634 36.2504C434.408 35.3701 435.332 34.693 436.406 34.219C437.479 33.745 438.679 33.508 440.004 33.508C441.765 33.508 443.25 33.8272 444.459 34.4657C445.678 35.1041 446.621 35.9844 447.288 37.1065C447.965 38.2286 448.372 39.5055 448.507 40.9372H444.154C444.106 40.0859 443.936 39.3652 443.646 38.7752C443.356 38.1754 442.916 37.7256 442.326 37.4257C441.745 37.1162 440.971 36.9614 440.004 36.9614C439.279 36.9614 438.645 37.0968 438.103 37.3677C437.562 37.6385 437.107 38.0497 436.739 38.601C436.372 39.1524 436.096 39.8489 435.912 40.6905C435.738 41.5224 435.651 42.4994 435.651 43.6215V45.1161C435.651 46.2092 435.733 47.1717 435.898 48.0036C436.062 48.8258 436.314 49.5223 436.652 50.0931C437 50.6541 437.445 51.0798 437.987 51.37C438.539 51.6505 439.201 51.7908 439.975 51.7908C440.884 51.7908 441.634 51.6457 442.224 51.3554C442.814 51.0652 443.264 50.6348 443.574 50.064C443.893 49.4933 444.081 48.7823 444.139 47.9311Z" fill="white"/>
<rect x="395.626" y="22.7429" width="66.0237" height="44.6183" rx="2.22876" stroke="#F4F4F4" stroke-width="1.48584"/>
<defs>
<filter id="filter0_f_415_3538" x="151.346" y="25.6135" width="145.177" height="131.642" filterUnits="userSpaceOnUse" color-interpolation-filters="sRGB">
<feFlood flood-opacity="0" result="BackgroundImageFix"/>
<feBlend mode="normal" in="SourceGraphic" in2="BackgroundImageFix" result="shape"/>
<feGaussianBlur stdDeviation="1.32705" result="effect1_foregroundBlur_415_3538"/>
</filter>
<filter id="filter1_f_415_3538" x="177.515" y="0.345896" width="93.7418" height="109.984" filterUnits="userSpaceOnUse" color-interpolation-filters="sRGB">
<feFlood flood-opacity="0" result="BackgroundImageFix"/>
<feBlend mode="normal" in="SourceGraphic" in2="BackgroundImageFix" result="shape"/>
<feGaussianBlur stdDeviation="1.32705" result="effect1_foregroundBlur_415_3538"/>
</filter>
<filter id="filter2_f_415_3538" x="151.346" y="105.022" width="145.177" height="52.232" filterUnits="userSpaceOnUse" color-interpolation-filters="sRGB">
<feFlood flood-opacity="0" result="BackgroundImageFix"/>
<feBlend mode="normal" in="SourceGraphic" in2="BackgroundImageFix" result="shape"/>
<feGaussianBlur stdDeviation="1.32705" result="effect1_foregroundBlur_415_3538"/>
</filter>
<filter id="filter3_f_415_3538" x="151.346" y="0.345896" width="145.177" height="30.5758" filterUnits="userSpaceOnUse" color-interpolation-filters="sRGB">
<feFlood flood-opacity="0" result="BackgroundImageFix"/>
<feBlend mode="normal" in="SourceGraphic" in2="BackgroundImageFix" result="shape"/>
<feGaussianBlur stdDeviation="1.32705" result="effect1_foregroundBlur_415_3538"/>
</filter>
<filter id="filter4_f_415_3538" x="227.755" y="98.203" width="30.6409" height="20.4105" filterUnits="userSpaceOnUse" color-interpolation-filters="sRGB">
<feFlood flood-opacity="0" result="BackgroundImageFix"/>
<feBlend mode="normal" in="SourceGraphic" in2="BackgroundImageFix" result="shape"/>
<feGaussianBlur stdDeviation="1.80476" result="effect1_foregroundBlur_415_3538"/>
</filter>
<filter id="filter5_f_415_3538" x="0.928572" y="39.5477" width="117.31" height="116.555" filterUnits="userSpaceOnUse" color-interpolation-filters="sRGB">
<feFlood flood-opacity="0" result="BackgroundImageFix"/>
<feBlend mode="normal" in="SourceGraphic" in2="BackgroundImageFix" result="shape"/>
<feGaussianBlur stdDeviation="13.5357" result="effect1_foregroundBlur_415_3538"/>
</filter>
<filter id="filter6_f_415_3538" x="25.3459" y="100.987" width="68.4752" height="30.6988" filterUnits="userSpaceOnUse" color-interpolation-filters="sRGB">
<feFlood flood-opacity="0" result="BackgroundImageFix"/>
<feBlend mode="normal" in="SourceGraphic" in2="BackgroundImageFix" result="shape"/>
<feGaussianBlur stdDeviation="1.32705" result="effect1_foregroundBlur_415_3538"/>
</filter>
<filter id="filter7_f_415_3538" x="42.758" y="63.965" width="33.6959" height="43.191" filterUnits="userSpaceOnUse" color-interpolation-filters="sRGB">
<feFlood flood-opacity="0" result="BackgroundImageFix"/>
<feBlend mode="normal" in="SourceGraphic" in2="BackgroundImageFix" result="shape"/>
<feGaussianBlur stdDeviation="1.32705" result="effect1_foregroundBlur_415_3538"/>
</filter>
<filter id="filter8_f_415_3538" x="25.3459" y="91.5119" width="68.4752" height="30.6988" filterUnits="userSpaceOnUse" color-interpolation-filters="sRGB">
<feFlood flood-opacity="0" result="BackgroundImageFix"/>
<feBlend mode="normal" in="SourceGraphic" in2="BackgroundImageFix" result="shape"/>
<feGaussianBlur stdDeviation="1.32705" result="effect1_foregroundBlur_415_3538"/>
</filter>
<filter id="filter9_f_415_3538" x="42.758" y="54.4904" width="33.6959" height="43.191" filterUnits="userSpaceOnUse" color-interpolation-filters="sRGB">
<feFlood flood-opacity="0" result="BackgroundImageFix"/>
<feBlend mode="normal" in="SourceGraphic" in2="BackgroundImageFix" result="shape"/>
<feGaussianBlur stdDeviation="1.32705" result="effect1_foregroundBlur_415_3538"/>
</filter>
<filter id="filter10_f_415_3538" x="93.927" y="86.0725" width="52.232" height="6.21055" filterUnits="userSpaceOnUse" color-interpolation-filters="sRGB">
<feFlood flood-opacity="0" result="BackgroundImageFix"/>
<feBlend mode="normal" in="SourceGraphic" in2="BackgroundImageFix" result="shape"/>
<feGaussianBlur stdDeviation="1.32705" result="effect1_foregroundBlur_415_3538"/>
</filter>
<filter id="filter11_f_415_3538" x="406.006" y="28.9297" width="50.4512" height="33.6094" filterUnits="userSpaceOnUse" color-interpolation-filters="sRGB">
<feFlood flood-opacity="0" result="BackgroundImageFix"/>
<feBlend mode="normal" in="SourceGraphic" in2="BackgroundImageFix" result="shape"/>
<feGaussianBlur stdDeviation="2.97168" result="effect1_foregroundBlur_415_3538"/>
</filter>
<radialGradient id="paint0_radial_415_3538" cx="0" cy="0" r="1" gradientUnits="userSpaceOnUse" gradientTransform="translate(223.224 90.6874) rotate(86.2627) scale(117.943 130.642)">
<stop offset="0.046875" stop-color="#4205F0"/>
<stop offset="1" stop-color="#4205F0" stop-opacity="0"/>
</radialGradient>
<radialGradient id="paint1_radial_415_3538" cx="0" cy="0" r="1" gradientUnits="userSpaceOnUse" gradientTransform="translate(223.936 54.7193) rotate(87.1465) scale(97.6374 82.6731)">
<stop offset="0.046875" stop-color="#4205F0"/>
<stop offset="1" stop-color="#4205F0" stop-opacity="0"/>
</radialGradient>
<radialGradient id="paint2_radial_415_3538" cx="0" cy="0" r="1" gradientUnits="userSpaceOnUse" gradientTransform="translate(223.224 130.86) rotate(80.0257) scale(44.3851 128.942)">
<stop offset="0.046875" stop-color="#4205F0"/>
<stop offset="1" stop-color="#4205F0" stop-opacity="0"/>
</radialGradient>
<radialGradient id="paint3_radial_415_3538" cx="0" cy="0" r="1" gradientUnits="userSpaceOnUse" gradientTransform="translate(223.224 -35.6469) rotate(86.2627) scale(117.943 130.642)">
<stop offset="0.046875" stop-color="#4205F0"/>
<stop offset="1" stop-color="#4205F0" stop-opacity="0"/>
</radialGradient>
<radialGradient id="paint4_radial_415_3538" cx="0" cy="0" r="1" gradientUnits="userSpaceOnUse" gradientTransform="translate(59.2625 116.186) rotate(81.6499) scale(23.9076 58.4987)">
<stop offset="0.046875" stop-color="#4205F0"/>
<stop offset="1" stop-color="#4205F0" stop-opacity="0"/>
</radialGradient>
<radialGradient id="paint5_radial_415_3538" cx="0" cy="0" r="1" gradientUnits="userSpaceOnUse" gradientTransform="translate(59.4617 85.3364) rotate(87.4685) scale(35.3257 26.5456)">
<stop offset="0.046875" stop-color="#4205F0"/>
<stop offset="1" stop-color="#4205F0" stop-opacity="0"/>
</radialGradient>
<radialGradient id="paint6_radial_415_3538" cx="0" cy="0" r="1" gradientUnits="userSpaceOnUse" gradientTransform="translate(59.2625 106.711) rotate(81.6499) scale(23.9076 58.4987)">
<stop offset="0.046875" stop-color="#120B24"/>
<stop offset="1" stop-color="#100A23" stop-opacity="0"/>
</radialGradient>
<radialGradient id="paint7_radial_415_3538" cx="0" cy="0" r="1" gradientUnits="userSpaceOnUse" gradientTransform="translate(59.4617 75.8618) rotate(87.4685) scale(35.3257 26.5456)">
<stop offset="0.046875" stop-color="#120B24"/>
<stop offset="1" stop-color="#100A23" stop-opacity="0"/>
</radialGradient>
<linearGradient id="paint8_linear_415_3538" x1="138.542" y1="89.1778" x2="131.497" y2="64.478" gradientUnits="userSpaceOnUse">
<stop offset="0.046875" stop-color="#4205F0"/>
<stop offset="0.615513" stop-color="#4205F0" stop-opacity="0"/>
</linearGradient>
</defs>
</svg>
