<svg width="814" height="177" viewBox="0 0 814 177" fill="none" xmlns="http://www.w3.org/2000/svg">
<g filter="url(#filter0_f_415_3411)">
<path d="M408.644 66.8416L447.902 90.7748L437.706 135.589L404.492 149.692L365.479 126.247L375.431 81.3725L408.644 66.8416Z" fill="url(#paint0_radial_415_3411)"/>
</g>
<g filter="url(#filter1_f_415_3411)">
<path d="M409.372 42.1649L454.046 69.4L442.443 120.396L404.647 136.446L360.251 109.766L371.576 58.7005L409.372 42.1649Z" fill="url(#paint1_radial_415_3411)"/>
<path d="M372.151 59.1732L409.321 42.9112L453.293 69.7181L441.871 119.918L404.699 135.703L361.002 109.444L372.151 59.1732Z" stroke="#4205F0" stroke-width="1.32705"/>
</g>
<path d="M387.188 93.6698L384.046 87.4316H385.354L387.874 92.307" fill="#F3F3F3"/>
<path d="M384.278 94.7457H382.912L386.347 87.627H387.689L384.278 94.7457Z" fill="#F3F3F3"/>
<path d="M383.227 87.3289C383.08 86.8598 382.877 86.4551 382.62 86.1149L382.627 86.0994L382.6 86.0882C382.468 85.9178 382.323 85.7629 382.163 85.6253C381.68 85.2088 381.051 85 380.277 85C379.504 85 378.876 85.2088 378.396 85.6253C377.916 86.0418 377.564 86.61 377.338 87.3289C377.113 88.0478 377 88.8572 377 89.7558C377 90.6544 377.113 91.4637 377.338 92.1826C377.489 92.6617 377.696 93.0738 377.959 93.4183L377.95 93.4376L377.971 93.4351C378.1 93.6012 378.242 93.7518 378.396 93.8862C378.876 94.3027 379.503 94.5115 380.277 94.5115C381.05 94.5115 381.679 94.3033 382.163 93.8862C382.647 93.4692 383.001 92.9015 383.227 92.1826C383.453 91.4637 383.566 90.655 383.566 89.7558C383.566 88.8565 383.453 88.0484 383.227 87.3289ZM378.245 91.7166C378.101 91.1446 378.027 90.4908 378.027 89.7558C378.027 89.0208 378.1 88.367 378.245 87.795C378.39 87.223 378.628 86.7718 378.959 86.4409C379.289 86.1099 379.728 85.9445 380.277 85.9445C380.719 85.9445 381.089 86.0492 381.389 86.2587L378.469 92.3537C378.38 92.1609 378.305 91.949 378.245 91.7166ZM382.32 91.7166C382.175 92.2886 381.937 92.7397 381.607 93.0707C381.276 93.4016 380.833 93.5671 380.277 93.5671C379.856 93.5671 379.501 93.4698 379.209 93.2752L379.243 93.2709L382.112 87.1907C382.195 87.3742 382.265 87.5756 382.32 87.7943C382.465 88.3663 382.538 89.0202 382.538 89.7552C382.538 90.4901 382.466 91.1446 382.32 91.716V91.7166Z" fill="#F3F3F3"/>
<path d="M403.832 90.6861H400.347V92.9194H404.19L404.017 93.9994H398.981V86.6074H403.985V87.6951H400.347V89.5951H403.832V90.6861Z" fill="#F3F3F3"/>
<path d="M408.226 87.6985H406.02V86.6074H411.845V87.6985H409.636V93.9994H408.226V87.6985Z" fill="#F3F3F3"/>
<path d="M414.045 86.6074H415.443V89.5917H418.615V86.6074H420.017V93.9994H418.615V90.6827H415.443V93.9994H414.045V86.6074Z" fill="#F3F3F3"/>
<path d="M427.882 90.6861H424.397V92.9194H428.239L428.067 93.9994H423.031V86.6074H428.035V87.6951H424.397V89.5951H427.882V90.6861Z" fill="#F3F3F3"/>
<path d="M431.976 90.8396V93.9985H430.599V86.6074H433.681C435.144 86.6074 436.183 87.2842 436.183 88.5747C436.183 89.6027 435.576 90.0843 434.928 90.3025C435.728 90.5736 436.034 91.1635 436.034 92.1113V92.2835C436.034 92.9484 436.066 93.5774 436.141 93.9994H434.785C434.674 93.6942 434.642 93.1325 434.642 92.2707V92.0917C434.642 91.1763 434.285 90.8404 433.157 90.8404H431.975L431.976 90.8396ZM431.976 89.7928H433.27C434.129 89.7928 434.789 89.572 434.789 88.6796C434.789 87.9593 434.246 87.6533 433.497 87.6533H431.977V89.792L431.976 89.7928Z" fill="#F3F3F3"/>
<path d="M393.08 86C394.444 88.622 395.797 91.2226 397.165 93.8514C396.874 93.7423 396.612 93.6443 396.349 93.5462C396.105 93.455 395.863 93.3604 395.617 93.2743C395.523 93.2411 395.468 93.1882 395.426 93.1021C394.662 91.5559 393.895 90.0114 393.128 88.4668C393.115 88.4421 393.103 88.4174 393.08 88.3722C392.929 88.6782 392.784 88.9672 392.641 89.257C392.003 90.5424 391.365 91.827 390.73 93.1132C390.689 93.1968 390.632 93.2402 390.544 93.2726C390.06 93.4508 389.578 93.634 389.094 93.8147C389.07 93.8233 389.047 93.8301 389 93.8446C390.363 91.2235 391.716 88.622 393.08 86Z" fill="#4205F0"/>
<g filter="url(#filter2_f_415_3411)">
<rect x="154" y="28.2676" width="139.869" height="126.333" fill="url(#paint2_radial_415_3411)"/>
<rect x="154.664" y="28.9311" width="138.542" height="125.006" stroke="#4205F0" stroke-width="1.32705"/>
</g>
<g opacity="0.5" filter="url(#filter3_f_415_3411)">
<rect x="180.169" y="3" width="88.4333" height="104.676" fill="url(#paint3_radial_415_3411)"/>
<rect x="180.832" y="3.66353" width="87.1063" height="103.349" stroke="#4205F0" stroke-width="1.32705"/>
</g>
<g filter="url(#filter4_f_415_3411)">
<path d="M179.718 107.676H269.505L293.869 154.6H154L179.718 107.676Z" fill="url(#paint4_radial_415_3411)" fill-opacity="0.3"/>
<path d="M155.12 153.936L180.111 108.339H269.102L292.777 153.936H155.12Z" stroke="#4205F0" stroke-width="1.32705"/>
</g>
<g filter="url(#filter5_f_415_3411)">
<path d="M181.071 3H267.7L293.869 28.2667H154L181.071 3Z" fill="url(#paint5_radial_415_3411)"/>
<path d="M155.683 27.6031L181.333 3.66353H267.432L292.227 27.6031H155.683Z" stroke="#4205F0" stroke-width="1.32705"/>
</g>
<path d="M193.674 68.1865H195.415C195.38 68.7573 195.223 69.2641 194.944 69.7068C194.668 70.1495 194.281 70.4952 193.784 70.7437C193.291 70.9922 192.697 71.1165 192.002 71.1165C191.458 71.1165 190.971 71.0233 190.54 70.8369C190.109 70.6466 189.74 70.3748 189.433 70.0214C189.13 69.668 188.899 69.2408 188.74 68.7399C188.581 68.2389 188.501 67.6778 188.501 67.0564V66.4681C188.501 65.8467 188.583 65.2856 188.746 64.7846C188.913 64.2798 189.149 63.8507 189.456 63.4973C189.767 63.1439 190.138 62.8721 190.569 62.6818C191 62.4915 191.481 62.3963 192.013 62.3963C192.72 62.3963 193.316 62.5245 193.802 62.7808C194.291 63.0371 194.67 63.3905 194.938 63.841C195.21 64.2914 195.373 64.804 195.427 65.3788H193.679C193.66 65.0371 193.592 64.7477 193.476 64.5109C193.359 64.2701 193.182 64.0895 192.946 63.9691C192.712 63.8448 192.402 63.7827 192.013 63.7827C191.722 63.7827 191.468 63.8371 191.25 63.9458C191.033 64.0546 190.85 64.2196 190.703 64.4409C190.555 64.6623 190.445 64.9419 190.371 65.2798C190.301 65.6137 190.266 66.006 190.266 66.4564V67.0564C190.266 67.4952 190.299 67.8816 190.365 68.2156C190.431 68.5457 190.532 68.8253 190.668 69.0544C190.808 69.2797 190.986 69.4505 191.204 69.567C191.425 69.6796 191.691 69.736 192.002 69.736C192.367 69.736 192.668 69.6777 192.905 69.5612C193.142 69.4447 193.322 69.2719 193.446 69.0428C193.575 68.8136 193.65 68.5282 193.674 68.1865ZM204.723 66.5613V66.9632C204.723 67.6079 204.635 68.1865 204.461 68.6991C204.286 69.2117 204.039 69.6486 203.721 70.0097C203.402 70.367 203.022 70.6408 202.579 70.8311C202.14 71.0214 201.653 71.1165 201.117 71.1165C200.585 71.1165 200.098 71.0214 199.655 70.8311C199.216 70.6408 198.835 70.367 198.513 70.0097C198.191 69.6486 197.94 69.2117 197.762 68.6991C197.587 68.1865 197.5 67.6079 197.5 66.9632V66.5613C197.5 65.9128 197.587 65.3341 197.762 64.8254C197.936 64.3128 198.183 63.8759 198.501 63.5148C198.824 63.1536 199.204 62.8779 199.643 62.6876C200.086 62.4973 200.573 62.4022 201.105 62.4022C201.641 62.4022 202.129 62.4973 202.567 62.6876C203.01 62.8779 203.391 63.1536 203.709 63.5148C204.031 63.8759 204.28 64.3128 204.455 64.8254C204.633 65.3341 204.723 65.9128 204.723 66.5613ZM202.958 66.9632V66.5496C202.958 66.0992 202.917 65.7031 202.835 65.3613C202.754 65.0196 202.633 64.7322 202.474 64.4992C202.315 64.2662 202.121 64.0914 201.892 63.9749C201.663 63.8546 201.4 63.7944 201.105 63.7944C200.81 63.7944 200.548 63.8546 200.319 63.9749C200.094 64.0914 199.901 64.2662 199.742 64.4992C199.587 64.7322 199.468 65.0196 199.387 65.3613C199.305 65.7031 199.265 66.0992 199.265 66.5496V66.9632C199.265 67.4098 199.305 67.8059 199.387 68.1515C199.468 68.4933 199.589 68.7826 199.748 69.0195C199.907 69.2525 200.101 69.4292 200.331 69.5496C200.56 69.6699 200.822 69.7301 201.117 69.7301C201.412 69.7301 201.674 69.6699 201.903 69.5496C202.132 69.4292 202.325 69.2525 202.48 69.0195C202.635 68.7826 202.754 68.4933 202.835 68.1515C202.917 67.8059 202.958 67.4098 202.958 66.9632ZM214.077 62.5187V71H212.329L208.921 65.3147V71H207.174V62.5187H208.921L212.335 68.2098V62.5187H214.077ZM220.407 62.5187V71H218.666V62.5187H220.407ZM223.017 62.5187V63.8876H216.097V62.5187H223.017ZM225.206 62.5187H228.369C229.018 62.5187 229.575 62.6158 230.041 62.8099C230.511 63.0041 230.872 63.2915 231.124 63.672C231.377 64.0526 231.503 64.5206 231.503 65.0759C231.503 65.5302 231.425 65.9205 231.27 66.2467C231.118 66.569 230.903 66.8389 230.623 67.0564C230.348 67.27 230.023 67.4409 229.651 67.569L229.097 67.8603H226.348L226.336 66.4972H228.381C228.687 66.4972 228.942 66.4428 229.144 66.3341C229.346 66.2254 229.497 66.0739 229.598 65.8797C229.703 65.6856 229.755 65.4603 229.755 65.204C229.755 64.9322 229.705 64.6973 229.604 64.4992C229.503 64.3011 229.35 64.1497 229.144 64.0448C228.938 63.94 228.68 63.8876 228.369 63.8876H226.954V71H225.206V62.5187ZM229.948 71L228.014 67.2195L229.86 67.2079L231.817 70.9184V71H229.948ZM237.49 63.9691L235.183 71H233.325L236.476 62.5187H237.659L237.49 63.9691ZM239.406 71L237.094 63.9691L236.907 62.5187H238.102L241.27 71H239.406ZM239.302 67.8428V69.2117H234.822V67.8428H239.302ZM248.061 68.1865H249.803C249.768 68.7573 249.611 69.2641 249.331 69.7068C249.055 70.1495 248.669 70.4952 248.172 70.7437C247.679 70.9922 247.085 71.1165 246.39 71.1165C245.846 71.1165 245.358 71.0233 244.927 70.8369C244.496 70.6466 244.127 70.3748 243.821 70.0214C243.518 69.668 243.287 69.2408 243.127 68.7399C242.968 68.2389 242.889 67.6778 242.889 67.0564V66.4681C242.889 65.8467 242.97 65.2856 243.133 64.7846C243.3 64.2798 243.537 63.8507 243.844 63.4973C244.155 63.1439 244.525 62.8721 244.957 62.6818C245.388 62.4915 245.869 62.3963 246.401 62.3963C247.108 62.3963 247.704 62.5245 248.189 62.7808C248.679 63.0371 249.057 63.3905 249.325 63.841C249.597 64.2914 249.76 64.804 249.815 65.3788H248.067C248.048 65.0371 247.98 64.7477 247.863 64.5109C247.747 64.2701 247.57 64.0895 247.333 63.9691C247.1 63.8448 246.79 63.7827 246.401 63.7827C246.11 63.7827 245.856 63.8371 245.638 63.9458C245.421 64.0546 245.238 64.2196 245.091 64.4409C244.943 64.6623 244.832 64.9419 244.758 65.2798C244.689 65.6137 244.654 66.006 244.654 66.4564V67.0564C244.654 67.4952 244.687 67.8816 244.753 68.2156C244.819 68.5457 244.92 68.8253 245.056 69.0544C245.195 69.2797 245.374 69.4505 245.591 69.567C245.813 69.6796 246.079 69.736 246.39 69.736C246.755 69.736 247.056 69.6777 247.292 69.5612C247.529 69.4447 247.71 69.2719 247.834 69.0428C247.962 68.8136 248.038 68.5282 248.061 68.1865ZM255.761 62.5187V71H254.019V62.5187H255.761ZM258.371 62.5187V63.8876H251.45V62.5187H258.371Z" fill="#F3F3F3"/>
<g filter="url(#filter6_f_415_3411)">
<path d="M211.387 103.197H208.092L208.074 101.382H210.841C211.329 101.382 211.728 101.32 212.039 101.197C212.351 101.067 212.583 100.882 212.736 100.641C212.894 100.395 212.974 100.095 212.974 99.7426C212.974 99.3431 212.897 99.02 212.744 98.7733C212.598 98.5265 212.366 98.3473 212.048 98.2357C211.737 98.1241 211.334 98.0683 210.841 98.0683H209.008V108.828H206.364V95.9974H210.841C211.587 95.9974 212.254 96.0679 212.841 96.2089C213.435 96.3499 213.937 96.5643 214.348 96.8522C214.76 97.1401 215.074 97.5043 215.291 97.9449C215.509 98.3797 215.617 98.8966 215.617 99.4959C215.617 100.025 215.497 100.512 215.256 100.959C215.021 101.405 214.648 101.769 214.137 102.051C213.632 102.333 212.971 102.489 212.154 102.519L211.387 103.197ZM211.273 108.828H207.369L208.4 106.766H211.273C211.737 106.766 212.116 106.693 212.41 106.546C212.703 106.393 212.921 106.187 213.062 105.929C213.203 105.67 213.273 105.374 213.273 105.039C213.273 104.663 213.209 104.337 213.079 104.061C212.956 103.785 212.756 103.573 212.48 103.426C212.204 103.273 211.84 103.197 211.387 103.197H208.841L208.858 101.382H212.031L212.639 102.096C213.42 102.084 214.049 102.222 214.525 102.51C215.006 102.792 215.356 103.159 215.573 103.611C215.796 104.064 215.908 104.548 215.908 105.065C215.908 105.888 215.729 106.581 215.371 107.145C215.012 107.703 214.486 108.123 213.793 108.405C213.106 108.687 212.266 108.828 211.273 108.828ZM227.133 104.572H229.768C229.715 105.435 229.477 106.202 229.054 106.872C228.637 107.542 228.053 108.064 227.301 108.44C226.555 108.816 225.656 109.004 224.604 109.004C223.782 109.004 223.044 108.863 222.392 108.581C221.74 108.294 221.182 107.882 220.718 107.348C220.26 106.813 219.91 106.167 219.669 105.409C219.428 104.651 219.308 103.802 219.308 102.862V101.972C219.308 101.032 219.431 100.183 219.678 99.4254C219.931 98.6617 220.289 98.0125 220.753 97.4779C221.223 96.9433 221.784 96.532 222.436 96.2441C223.088 95.9563 223.817 95.8123 224.622 95.8123C225.691 95.8123 226.593 96.0062 227.327 96.394C228.067 96.7817 228.64 97.3163 229.045 97.9978C229.457 98.6793 229.703 99.4548 229.786 100.324H227.142C227.113 99.8073 227.01 99.3696 226.834 99.0112C226.657 98.647 226.39 98.3738 226.032 98.1917C225.679 98.0037 225.209 97.9097 224.622 97.9097C224.181 97.9097 223.796 97.9919 223.467 98.1564C223.138 98.3209 222.862 98.5706 222.639 98.9055C222.416 99.2403 222.248 99.6633 222.137 100.174C222.031 100.68 221.978 101.273 221.978 101.955V102.862C221.978 103.526 222.028 104.111 222.128 104.616C222.228 105.115 222.38 105.538 222.586 105.885C222.798 106.226 223.068 106.484 223.397 106.66C223.732 106.831 224.134 106.916 224.604 106.916C225.156 106.916 225.612 106.828 225.97 106.651C226.328 106.475 226.602 106.214 226.79 105.867C226.983 105.521 227.098 105.089 227.133 104.572ZM238.526 98.1917L235.036 108.828H232.225L236.992 95.9974H238.781L238.526 98.1917ZM241.425 108.828L237.927 98.1917L237.645 95.9974H239.451L244.245 108.828H241.425ZM241.266 104.052V106.123H234.49V104.052H241.266Z" fill="white" fill-opacity="0.5"/>
</g>
<path d="M210.169 102.369H206.873L206.855 100.554H209.622C210.11 100.554 210.509 100.492 210.821 100.369C211.132 100.239 211.364 100.054 211.517 99.8134C211.676 99.5666 211.755 99.267 211.755 98.9145C211.755 98.515 211.678 98.1919 211.526 97.9451C211.379 97.6984 211.147 97.5192 210.83 97.4076C210.518 97.296 210.116 97.2402 209.622 97.2402H207.789V108H205.146V95.1693H209.622C210.368 95.1693 211.035 95.2398 211.623 95.3808C212.216 95.5218 212.718 95.7362 213.13 96.0241C213.541 96.3119 213.855 96.6762 214.072 97.1168C214.29 97.5515 214.399 98.0685 214.399 98.6678C214.399 99.1965 214.278 99.6841 214.037 100.131C213.802 100.577 213.429 100.941 212.918 101.223C212.413 101.505 211.752 101.661 210.935 101.69L210.169 102.369ZM210.054 108H206.15L207.181 105.938H210.054C210.518 105.938 210.897 105.864 211.191 105.718C211.485 105.565 211.702 105.359 211.843 105.101C211.984 104.842 212.054 104.546 212.054 104.211C212.054 103.835 211.99 103.509 211.861 103.233C211.737 102.956 211.537 102.745 211.261 102.598C210.985 102.445 210.621 102.369 210.169 102.369H207.622L207.639 100.554H210.812L211.42 101.267C212.201 101.256 212.83 101.394 213.306 101.682C213.788 101.964 214.137 102.331 214.354 102.783C214.578 103.235 214.689 103.72 214.689 104.237C214.689 105.06 214.51 105.753 214.152 106.317C213.793 106.875 213.268 107.295 212.574 107.577C211.887 107.859 211.047 108 210.054 108ZM225.914 103.744H228.549C228.496 104.607 228.259 105.374 227.836 106.044C227.418 106.713 226.834 107.236 226.082 107.612C225.336 107.988 224.437 108.176 223.385 108.176C222.563 108.176 221.826 108.035 221.173 107.753C220.521 107.465 219.963 107.054 219.499 106.52C219.041 105.985 218.691 105.339 218.45 104.581C218.21 103.823 218.089 102.974 218.089 102.034V101.144C218.089 100.204 218.212 99.3551 218.459 98.5973C218.712 97.8335 219.07 97.1844 219.534 96.6497C220.004 96.1151 220.565 95.7039 221.217 95.416C221.87 95.1281 222.598 94.9842 223.403 94.9842C224.472 94.9842 225.374 95.1781 226.108 95.5658C226.849 95.9536 227.421 96.4882 227.827 97.1697C228.238 97.8512 228.485 98.6266 228.567 99.4961H225.923C225.894 98.9791 225.791 98.5414 225.615 98.1831C225.439 97.8188 225.171 97.5457 224.813 97.3635C224.46 97.1755 223.99 97.0815 223.403 97.0815C222.962 97.0815 222.578 97.1638 222.249 97.3283C221.92 97.4928 221.643 97.7425 221.42 98.0773C221.197 98.4122 221.03 98.8352 220.918 99.3463C220.812 99.8515 220.759 100.445 220.759 101.126V102.034C220.759 102.698 220.809 103.282 220.909 103.788C221.009 104.287 221.162 104.71 221.367 105.057C221.579 105.397 221.849 105.656 222.178 105.832C222.513 106.003 222.915 106.088 223.385 106.088C223.938 106.088 224.393 106 224.751 105.823C225.11 105.647 225.383 105.386 225.571 105.039C225.765 104.692 225.879 104.261 225.914 103.744ZM237.307 97.3635L233.817 108H231.006L235.774 95.1693H237.563L237.307 97.3635ZM240.206 108L236.708 97.3635L236.426 95.1693H238.232L243.026 108H240.206ZM240.048 103.224V105.295H233.271V103.224H240.048Z" fill="white"/>
<rect x="196.451" y="88.4512" width="53.0976" height="27.0976" rx="1.35357" stroke="#F4F4F4" stroke-width="0.902381"/>
<g filter="url(#filter7_f_415_3411)">
<rect x="519.798" y="28.2676" width="139.869" height="126.333" fill="url(#paint6_radial_415_3411)"/>
<rect x="520.461" y="28.9311" width="138.542" height="125.006" stroke="#4205F0" stroke-width="1.32705"/>
</g>
<g opacity="0.5" filter="url(#filter8_f_415_3411)">
<rect x="545.967" y="3" width="88.4333" height="104.676" fill="url(#paint7_radial_415_3411)"/>
<rect x="546.63" y="3.66353" width="87.1063" height="103.349" stroke="#4205F0" stroke-width="1.32705"/>
</g>
<g filter="url(#filter9_f_415_3411)">
<path d="M545.516 107.676H635.303L659.667 154.6H519.798L545.516 107.676Z" fill="url(#paint8_radial_415_3411)" fill-opacity="0.3"/>
<path d="M520.918 153.936L545.909 108.339H634.899L658.575 153.936H520.918Z" stroke="#4205F0" stroke-width="1.32705"/>
</g>
<g filter="url(#filter10_f_415_3411)">
<path d="M546.869 3H633.498L659.667 28.2667H519.798L546.869 3Z" fill="url(#paint9_radial_415_3411)"/>
<path d="M521.481 27.6031L547.131 3.66353H633.23L658.024 27.6031H521.481Z" stroke="#4205F0" stroke-width="1.32705"/>
</g>
<path d="M559.674 68.1865H561.415C561.38 68.7573 561.223 69.2641 560.944 69.7068C560.668 70.1495 560.281 70.4952 559.784 70.7437C559.291 70.9922 558.697 71.1165 558.002 71.1165C557.458 71.1165 556.971 71.0233 556.54 70.8369C556.109 70.6466 555.74 70.3748 555.433 70.0214C555.13 69.668 554.899 69.2408 554.74 68.7399C554.581 68.2389 554.501 67.6778 554.501 67.0564V66.4681C554.501 65.8467 554.583 65.2856 554.746 64.7846C554.913 64.2798 555.149 63.8507 555.456 63.4973C555.767 63.1439 556.138 62.8721 556.569 62.6818C557 62.4915 557.481 62.3963 558.013 62.3963C558.72 62.3963 559.316 62.5245 559.802 62.7808C560.291 63.0371 560.67 63.3905 560.938 63.841C561.21 64.2914 561.373 64.804 561.427 65.3788H559.679C559.66 65.0371 559.592 64.7477 559.476 64.5109C559.359 64.2701 559.182 64.0895 558.946 63.9691C558.712 63.8448 558.402 63.7827 558.013 63.7827C557.722 63.7827 557.468 63.8371 557.25 63.9458C557.033 64.0546 556.85 64.2196 556.703 64.4409C556.555 64.6623 556.445 64.9419 556.371 65.2798C556.301 65.6137 556.266 66.006 556.266 66.4564V67.0564C556.266 67.4952 556.299 67.8816 556.365 68.2156C556.431 68.5457 556.532 68.8253 556.668 69.0544C556.808 69.2797 556.986 69.4505 557.204 69.567C557.425 69.6796 557.691 69.736 558.002 69.736C558.367 69.736 558.668 69.6777 558.905 69.5612C559.142 69.4447 559.322 69.2719 559.446 69.0428C559.575 68.8136 559.65 68.5282 559.674 68.1865ZM570.723 66.5613V66.9632C570.723 67.6079 570.635 68.1865 570.461 68.6991C570.286 69.2117 570.039 69.6486 569.721 70.0097C569.402 70.367 569.022 70.6408 568.579 70.8311C568.14 71.0214 567.653 71.1165 567.117 71.1165C566.585 71.1165 566.098 71.0214 565.655 70.8311C565.216 70.6408 564.835 70.367 564.513 70.0097C564.191 69.6486 563.94 69.2117 563.762 68.6991C563.587 68.1865 563.5 67.6079 563.5 66.9632V66.5613C563.5 65.9128 563.587 65.3341 563.762 64.8254C563.936 64.3128 564.183 63.8759 564.501 63.5148C564.824 63.1536 565.204 62.8779 565.643 62.6876C566.086 62.4973 566.573 62.4022 567.105 62.4022C567.641 62.4022 568.129 62.4973 568.567 62.6876C569.01 62.8779 569.391 63.1536 569.709 63.5148C570.031 63.8759 570.28 64.3128 570.455 64.8254C570.633 65.3341 570.723 65.9128 570.723 66.5613ZM568.958 66.9632V66.5496C568.958 66.0992 568.917 65.7031 568.835 65.3613C568.754 65.0196 568.633 64.7322 568.474 64.4992C568.315 64.2662 568.121 64.0914 567.892 63.9749C567.663 63.8546 567.4 63.7944 567.105 63.7944C566.81 63.7944 566.548 63.8546 566.319 63.9749C566.094 64.0914 565.901 64.2662 565.742 64.4992C565.587 64.7322 565.468 65.0196 565.387 65.3613C565.305 65.7031 565.265 66.0992 565.265 66.5496V66.9632C565.265 67.4098 565.305 67.8059 565.387 68.1515C565.468 68.4933 565.589 68.7826 565.748 69.0195C565.907 69.2525 566.101 69.4292 566.331 69.5496C566.56 69.6699 566.822 69.7301 567.117 69.7301C567.412 69.7301 567.674 69.6699 567.903 69.5496C568.132 69.4292 568.325 69.2525 568.48 69.0195C568.635 68.7826 568.754 68.4933 568.835 68.1515C568.917 67.8059 568.958 67.4098 568.958 66.9632ZM580.077 62.5187V71H578.329L574.921 65.3147V71H573.174V62.5187H574.921L578.335 68.2098V62.5187H580.077ZM586.407 62.5187V71H584.666V62.5187H586.407ZM589.017 62.5187V63.8876H582.097V62.5187H589.017ZM591.206 62.5187H594.369C595.018 62.5187 595.575 62.6158 596.041 62.8099C596.511 63.0041 596.872 63.2915 597.124 63.672C597.377 64.0526 597.503 64.5206 597.503 65.0759C597.503 65.5302 597.425 65.9205 597.27 66.2467C597.118 66.569 596.903 66.8389 596.623 67.0564C596.348 67.27 596.023 67.4409 595.651 67.569L595.097 67.8603H592.348L592.336 66.4972H594.381C594.687 66.4972 594.942 66.4428 595.144 66.3341C595.346 66.2254 595.497 66.0739 595.598 65.8797C595.703 65.6856 595.755 65.4603 595.755 65.204C595.755 64.9322 595.705 64.6973 595.604 64.4992C595.503 64.3011 595.35 64.1497 595.144 64.0448C594.938 63.94 594.68 63.8876 594.369 63.8876H592.954V71H591.206V62.5187ZM595.948 71L594.014 67.2195L595.86 67.2079L597.817 70.9184V71H595.948ZM603.49 63.9691L601.183 71H599.325L602.476 62.5187H603.659L603.49 63.9691ZM605.406 71L603.094 63.9691L602.907 62.5187H604.102L607.27 71H605.406ZM605.302 67.8428V69.2117H600.822V67.8428H605.302ZM614.061 68.1865H615.803C615.768 68.7573 615.611 69.2641 615.331 69.7068C615.055 70.1495 614.669 70.4952 614.172 70.7437C613.679 70.9922 613.085 71.1165 612.39 71.1165C611.846 71.1165 611.358 71.0233 610.927 70.8369C610.496 70.6466 610.127 70.3748 609.821 70.0214C609.518 69.668 609.287 69.2408 609.127 68.7399C608.968 68.2389 608.889 67.6778 608.889 67.0564V66.4681C608.889 65.8467 608.97 65.2856 609.133 64.7846C609.3 64.2798 609.537 63.8507 609.844 63.4973C610.155 63.1439 610.525 62.8721 610.957 62.6818C611.388 62.4915 611.869 62.3963 612.401 62.3963C613.108 62.3963 613.704 62.5245 614.189 62.7808C614.679 63.0371 615.057 63.3905 615.325 63.841C615.597 64.2914 615.76 64.804 615.815 65.3788H614.067C614.048 65.0371 613.98 64.7477 613.863 64.5109C613.747 64.2701 613.57 64.0895 613.333 63.9691C613.1 63.8448 612.79 63.7827 612.401 63.7827C612.11 63.7827 611.856 63.8371 611.638 63.9458C611.421 64.0546 611.238 64.2196 611.091 64.4409C610.943 64.6623 610.832 64.9419 610.758 65.2798C610.689 65.6137 610.654 66.006 610.654 66.4564V67.0564C610.654 67.4952 610.687 67.8816 610.753 68.2156C610.819 68.5457 610.92 68.8253 611.056 69.0544C611.195 69.2797 611.374 69.4505 611.591 69.567C611.813 69.6796 612.079 69.736 612.39 69.736C612.755 69.736 613.056 69.6777 613.292 69.5612C613.529 69.4447 613.71 69.2719 613.834 69.0428C613.962 68.8136 614.038 68.5282 614.061 68.1865ZM621.761 62.5187V71H620.019V62.5187H621.761ZM624.371 62.5187V63.8876H617.45V62.5187H624.371Z" fill="#F3F3F3"/>
<g filter="url(#filter11_f_415_3411)">
<path d="M577.387 103.197H574.092L574.074 101.382H576.841C577.329 101.382 577.728 101.32 578.039 101.197C578.351 101.067 578.583 100.882 578.736 100.641C578.894 100.395 578.974 100.095 578.974 99.7426C578.974 99.3431 578.897 99.02 578.744 98.7733C578.598 98.5265 578.366 98.3473 578.048 98.2357C577.737 98.1241 577.334 98.0683 576.841 98.0683H575.008V108.828H572.364V95.9974H576.841C577.587 95.9974 578.254 96.0679 578.841 96.2089C579.435 96.3499 579.937 96.5643 580.348 96.8522C580.76 97.1401 581.074 97.5043 581.291 97.9449C581.509 98.3797 581.617 98.8966 581.617 99.4959C581.617 100.025 581.497 100.512 581.256 100.959C581.021 101.405 580.648 101.769 580.137 102.051C579.632 102.333 578.971 102.489 578.154 102.519L577.387 103.197ZM577.273 108.828H573.369L574.4 106.766H577.273C577.737 106.766 578.116 106.693 578.41 106.546C578.703 106.393 578.921 106.187 579.062 105.929C579.203 105.67 579.273 105.374 579.273 105.039C579.273 104.663 579.209 104.337 579.079 104.061C578.956 103.785 578.756 103.573 578.48 103.426C578.204 103.273 577.84 103.197 577.387 103.197H574.841L574.858 101.382H578.031L578.639 102.096C579.42 102.084 580.049 102.222 580.525 102.51C581.006 102.792 581.356 103.159 581.573 103.611C581.796 104.064 581.908 104.548 581.908 105.065C581.908 105.888 581.729 106.581 581.371 107.145C581.012 107.703 580.486 108.123 579.793 108.405C579.106 108.687 578.266 108.828 577.273 108.828ZM593.133 104.572H595.768C595.715 105.435 595.477 106.202 595.054 106.872C594.637 107.542 594.053 108.064 593.301 108.44C592.555 108.816 591.656 109.004 590.604 109.004C589.782 109.004 589.044 108.863 588.392 108.581C587.74 108.294 587.182 107.882 586.718 107.348C586.26 106.813 585.91 106.167 585.669 105.409C585.428 104.651 585.308 103.802 585.308 102.862V101.972C585.308 101.032 585.431 100.183 585.678 99.4254C585.931 98.6617 586.289 98.0125 586.753 97.4779C587.223 96.9433 587.784 96.532 588.436 96.2441C589.088 95.9563 589.817 95.8123 590.622 95.8123C591.691 95.8123 592.593 96.0062 593.327 96.394C594.067 96.7817 594.64 97.3163 595.045 97.9978C595.457 98.6793 595.703 99.4548 595.786 100.324H593.142C593.113 99.8073 593.01 99.3696 592.834 99.0112C592.657 98.647 592.39 98.3738 592.032 98.1917C591.679 98.0037 591.209 97.9097 590.622 97.9097C590.181 97.9097 589.796 97.9919 589.467 98.1564C589.138 98.3209 588.862 98.5706 588.639 98.9055C588.416 99.2403 588.248 99.6633 588.137 100.174C588.031 100.68 587.978 101.273 587.978 101.955V102.862C587.978 103.526 588.028 104.111 588.128 104.616C588.228 105.115 588.38 105.538 588.586 105.885C588.798 106.226 589.068 106.484 589.397 106.66C589.732 106.831 590.134 106.916 590.604 106.916C591.156 106.916 591.612 106.828 591.97 106.651C592.328 106.475 592.602 106.214 592.79 105.867C592.983 105.521 593.098 105.089 593.133 104.572ZM604.332 103.197H601.036L601.018 101.382H603.786C604.273 101.382 604.673 101.32 604.984 101.197C605.295 101.067 605.527 100.882 605.68 100.641C605.839 100.395 605.918 100.095 605.918 99.7426C605.918 99.3431 605.842 99.02 605.689 98.7733C605.542 98.5265 605.31 98.3473 604.993 98.2357C604.681 98.1241 604.279 98.0683 603.786 98.0683H601.953V108.828H599.309V95.9974H603.786C604.532 95.9974 605.198 96.0679 605.786 96.2089C606.379 96.3499 606.882 96.5643 607.293 96.8522C607.704 97.1401 608.018 97.5043 608.236 97.9449C608.453 98.3797 608.562 98.8966 608.562 99.4959C608.562 100.025 608.441 100.512 608.201 100.959C607.966 101.405 607.592 101.769 607.081 102.051C606.576 102.333 605.915 102.489 605.099 102.519L604.332 103.197ZM604.217 108.828H600.313L601.345 106.766H604.217C604.681 106.766 605.06 106.693 605.354 106.546C605.648 106.393 605.865 106.187 606.006 105.929C606.147 105.67 606.218 105.374 606.218 105.039C606.218 104.663 606.153 104.337 606.024 104.061C605.9 103.785 605.701 103.573 605.425 103.426C605.149 103.273 604.784 103.197 604.332 103.197H601.785L601.803 101.382H604.975L605.583 102.096C606.365 102.084 606.993 102.222 607.469 102.51C607.951 102.792 608.3 103.159 608.518 103.611C608.741 104.064 608.853 104.548 608.853 105.065C608.853 105.888 608.673 106.581 608.315 107.145C607.957 107.703 607.431 108.123 606.738 108.405C606.05 108.687 605.21 108.828 604.217 108.828Z" fill="white" fill-opacity="0.5"/>
</g>
<path d="M576.169 102.369H572.873L572.855 100.554H575.622C576.11 100.554 576.509 100.492 576.821 100.369C577.132 100.239 577.364 100.054 577.517 99.8134C577.676 99.5666 577.755 99.267 577.755 98.9145C577.755 98.515 577.678 98.1919 577.526 97.9451C577.379 97.6984 577.147 97.5192 576.83 97.4076C576.518 97.296 576.116 97.2402 575.622 97.2402H573.789V108H571.146V95.1693H575.622C576.368 95.1693 577.035 95.2398 577.623 95.3808C578.216 95.5218 578.718 95.7362 579.13 96.0241C579.541 96.3119 579.855 96.6762 580.072 97.1168C580.29 97.5515 580.399 98.0685 580.399 98.6678C580.399 99.1965 580.278 99.6841 580.037 100.131C579.802 100.577 579.429 100.941 578.918 101.223C578.413 101.505 577.752 101.661 576.935 101.69L576.169 102.369ZM576.054 108H572.15L573.181 105.938H576.054C576.518 105.938 576.897 105.864 577.191 105.718C577.485 105.565 577.702 105.359 577.843 105.101C577.984 104.842 578.054 104.546 578.054 104.211C578.054 103.835 577.99 103.509 577.861 103.233C577.737 102.956 577.537 102.745 577.261 102.598C576.985 102.445 576.621 102.369 576.169 102.369H573.622L573.639 100.554H576.812L577.42 101.267C578.201 101.256 578.83 101.394 579.306 101.682C579.788 101.964 580.137 102.331 580.354 102.783C580.578 103.235 580.689 103.72 580.689 104.237C580.689 105.06 580.51 105.753 580.152 106.317C579.793 106.875 579.268 107.295 578.574 107.577C577.887 107.859 577.047 108 576.054 108ZM591.914 103.744H594.549C594.496 104.607 594.259 105.374 593.836 106.044C593.418 106.713 592.834 107.236 592.082 107.612C591.336 107.988 590.437 108.176 589.385 108.176C588.563 108.176 587.826 108.035 587.173 107.753C586.521 107.465 585.963 107.054 585.499 106.52C585.041 105.985 584.691 105.339 584.45 104.581C584.21 103.823 584.089 102.974 584.089 102.034V101.144C584.089 100.204 584.212 99.3551 584.459 98.5973C584.712 97.8335 585.07 97.1844 585.534 96.6497C586.004 96.1151 586.565 95.7039 587.217 95.416C587.87 95.1281 588.598 94.9842 589.403 94.9842C590.472 94.9842 591.374 95.1781 592.108 95.5658C592.849 95.9536 593.421 96.4882 593.827 97.1697C594.238 97.8512 594.485 98.6266 594.567 99.4961H591.923C591.894 98.9791 591.791 98.5414 591.615 98.1831C591.439 97.8188 591.171 97.5457 590.813 97.3635C590.46 97.1755 589.99 97.0815 589.403 97.0815C588.962 97.0815 588.578 97.1638 588.249 97.3283C587.92 97.4928 587.643 97.7425 587.42 98.0773C587.197 98.4122 587.03 98.8352 586.918 99.3463C586.812 99.8515 586.759 100.445 586.759 101.126V102.034C586.759 102.698 586.809 103.282 586.909 103.788C587.009 104.287 587.162 104.71 587.367 105.057C587.579 105.397 587.849 105.656 588.178 105.832C588.513 106.003 588.915 106.088 589.385 106.088C589.938 106.088 590.393 106 590.751 105.823C591.11 105.647 591.383 105.386 591.571 105.039C591.765 104.692 591.879 104.261 591.914 103.744ZM603.113 102.369H599.817L599.8 100.554H602.567C603.054 100.554 603.454 100.492 603.765 100.369C604.077 100.239 604.309 100.054 604.461 99.8134C604.62 99.5666 604.699 99.267 604.699 98.9145C604.699 98.515 604.623 98.1919 604.47 97.9451C604.323 97.6984 604.091 97.5192 603.774 97.4076C603.463 97.296 603.06 97.2402 602.567 97.2402H600.734V108H598.09V95.1693H602.567C603.313 95.1693 603.98 95.2398 604.567 95.3808C605.161 95.5218 605.663 95.7362 606.074 96.0241C606.485 96.3119 606.8 96.6762 607.017 97.1168C607.234 97.5515 607.343 98.0685 607.343 98.6678C607.343 99.1965 607.223 99.6841 606.982 100.131C606.747 100.577 606.374 100.941 605.863 101.223C605.357 101.505 604.696 101.661 603.88 101.69L603.113 102.369ZM602.999 108H599.095L600.126 105.938H602.999C603.463 105.938 603.842 105.864 604.135 105.718C604.429 105.565 604.646 105.359 604.787 105.101C604.928 104.842 604.999 104.546 604.999 104.211C604.999 103.835 604.934 103.509 604.805 103.233C604.682 102.956 604.482 102.745 604.206 102.598C603.93 102.445 603.566 102.369 603.113 102.369H600.566L600.584 100.554H603.756L604.364 101.267C605.146 101.256 605.774 101.394 606.25 101.682C606.732 101.964 607.082 102.331 607.299 102.783C607.522 103.235 607.634 103.72 607.634 104.237C607.634 105.06 607.455 105.753 607.096 106.317C606.738 106.875 606.212 107.295 605.519 107.577C604.832 107.859 603.991 108 602.999 108Z" fill="white"/>
<rect x="562.451" y="88.4512" width="53.0976" height="27.0976" rx="1.35357" stroke="#F4F4F4" stroke-width="0.902381"/>
<g filter="url(#filter12_f_415_3411)">
<g filter="url(#filter13_f_415_3411)">
<path d="M59.6383 129.026C50.6931 129.026 41.7497 129.03 32.8045 129.024C30.3992 129.024 28.7099 127.804 28.1547 125.704C27.9648 124.983 27.9301 124.247 28.162 123.544C29.1464 120.578 29.9262 117.526 31.5261 114.805C35.301 108.38 40.9151 104.703 48.2824 103.657C48.8869 103.571 49.2321 103.832 49.6192 104.207C52.6582 107.145 56.1976 108.875 60.5259 108.577C64.0233 108.336 66.9326 106.778 69.3945 104.371C70.041 103.739 70.6345 103.588 71.491 103.739C80.3377 105.321 86.3407 110.283 89.4253 118.737C89.9568 120.192 90.4535 121.659 90.9211 123.136C91.8817 126.17 89.9276 128.911 86.7443 129.026C86.4704 129.035 86.1964 129.03 85.9225 129.03C77.1599 129.03 68.3973 129.03 59.6365 129.03L59.6383 129.026Z" fill="url(#paint10_radial_415_3411)"/>
<path d="M60.7104 128.366L60.7122 128.363H59.6383C57.081 128.363 54.5239 128.363 51.9669 128.363C45.5795 128.364 39.1927 128.365 32.8049 128.361H32.8045C31.714 128.361 30.8322 128.085 30.1722 127.612C29.5161 127.143 29.038 126.449 28.7963 125.535C28.6291 124.9 28.6112 124.3 28.792 123.752C28.996 123.137 29.1895 122.526 29.3813 121.92C30.1338 119.542 30.8606 117.246 32.0981 115.141L32.0982 115.141C35.7682 108.895 41.2035 105.333 48.3757 104.314C48.5544 104.289 48.6583 104.316 48.7442 104.357C48.8522 104.409 48.9711 104.503 49.158 104.684L49.6192 104.207L49.158 104.684C52.2957 107.718 56.0104 109.553 60.5715 109.239L60.5716 109.239C64.2564 108.985 67.3075 107.34 69.8583 104.846C70.1267 104.583 70.3451 104.458 70.5495 104.398C70.7565 104.338 71.0091 104.328 71.3748 104.392C79.9924 105.933 85.7998 110.736 88.802 118.964L88.8021 118.964C89.33 120.41 89.8236 121.868 90.2885 123.337L90.2885 123.337C90.7101 124.668 90.4838 125.893 89.8457 126.791C89.2073 127.69 88.1209 128.312 86.7213 128.363C86.5361 128.369 86.3563 128.368 86.1623 128.367C86.085 128.367 86.0055 128.366 85.9225 128.366H85.8711H85.8198H85.7685H85.7171H85.6658H85.6144H85.5631H85.5117H85.4604H85.4091H85.3577H85.3064H85.255H85.2037H85.1523H85.101H85.0497H84.9983H84.947H84.8956H84.8443H84.7929H84.7416H84.6903H84.6389H84.5876H84.5362H84.4849H84.4335H84.3822H84.3308H84.2795H84.2282H84.1768H84.1255H84.0741H84.0228H83.9714H83.9201H83.8688H83.8174H83.7661H83.7147H83.6634H83.612H83.5607H83.5094H83.458H83.4067H83.3553H83.304H83.2526H83.2013H83.1499H83.0986H83.0473H82.9959H82.9446H82.8932H82.8419H82.7905H82.7392H82.6879H82.6365H82.5852H82.5338H82.4825H82.4311H82.3798H82.3285H82.2771H82.2258H82.1744H82.1231H82.0717H82.0204H81.9691H81.9177H81.8664H81.815H81.7637H81.7123H81.661H81.6097H81.5583H81.507H81.4556H81.4043H81.3529H81.3016H81.2503H81.1989H81.1476H81.0962H81.0449H80.9935H80.9422H80.8909H80.8395H80.7882H80.7368H80.6855H80.6341H80.5828H80.5315H80.4801H80.4288H80.3774H80.3261H80.2747H80.2234H80.1721H80.1207H80.0694H80.018H79.9667H79.9153H79.864H79.8127H79.7613H79.71H79.6586H79.6073H79.5559H79.5046H79.4533H79.4019H79.3506H79.2992H79.2479H79.1965H79.1452H79.0939H79.0425H78.9912H78.9398H78.8885H78.8371H78.7858H78.7345H78.6831H78.6318H78.5804H78.5291H78.4777H78.4264H78.3751H78.3237H78.2724H78.221H78.1697H78.1183H78.067H78.0157H77.9643H77.913H77.8616H77.8103H77.7589H77.7076H77.6563H77.6049H77.5536H77.5022H77.4509H77.3996H77.3482H77.2969H77.2455H77.1942H77.1428H77.0915H77.0402H76.9888H76.9375H76.8861H76.8348H76.7834H76.7321H76.6808H76.6294H76.5781H76.5267H76.4754H76.4241H76.3727H76.3214H76.27H76.2187H76.1673H76.116H76.0647H76.0133H75.962H75.9106H75.8593H75.808H75.7566H75.7053H75.6539H75.6026H75.5512H75.4999H75.4486H75.3972H75.3459H75.2945H75.2432H75.1919H75.1405H75.0892H75.0378H74.9865H74.9351H74.8838H74.8325H74.7811H74.7298H74.6784H74.6271H74.5758H74.5244H74.4731H74.4217H74.3704H74.319H74.2677H74.2164H74.165H74.1137H74.0623H74.011H73.9597H73.9083H73.857H73.8056H73.7543H73.703H73.6516H73.6003H73.5489H73.4976H73.4462H73.3949H73.3436H73.2922H73.2409H73.1895H73.1382H73.0869H73.0355H72.9842H72.9328H72.8815H72.8302H72.7788H72.7275H72.6761H72.6248H72.5735H72.5221H72.4708H72.4194H72.3681H72.3168H72.2654H72.2141H72.1627H72.1114H72.0601H72.0087H71.9574H71.906H71.8547H71.8033H71.752H71.7007H71.6493H71.598H71.5466H71.4953H71.444H71.3926H71.3413H71.2899H71.2386H71.1873H71.1359H71.0846H71.0332H70.9819H70.9306H70.8792H70.8279H70.7765H70.7252H70.6739H70.6225H70.5712H70.5198H70.4685H70.4172H70.3658H70.3145H70.2631H70.2118H70.1605H70.1091H70.0578H70.0065H69.9551H69.9038H69.8524H69.8011H69.7498H69.6984H69.6471H69.5957H69.5444H69.4931H69.4417H69.3904H69.339H69.2877H69.2364H69.185H69.1337H69.0823H69.031H68.9797H68.9283H68.877H68.8257H68.7743H68.723H68.6716H68.6203H68.569H68.5176H68.4663H68.4149H68.3636H68.3123H68.2609H68.2096H68.1583H68.1069H68.0556H68.0042H67.9529H67.9016H67.8502H67.7989H67.7475H67.6962H67.6449H67.5935H67.5422H67.4909H67.4395H67.3882H67.3368H67.2855H67.2342H67.1828H67.1315H67.0802H67.0288H66.9775H66.9261H66.8748H66.8235H66.7721H66.7208H66.6694H66.6181H66.5668H66.5154H66.4641H66.4128H66.3614H66.3101H66.2587H66.2074H66.1561H66.1047H66.0534H66.0021H65.9507H65.8994H65.848H65.7967H65.7454H65.694H65.6427H65.5914H65.54H65.4887H65.4374H65.386H65.3347H65.2833H65.232H65.1807H65.1293H65.078H65.0267H64.9753H64.924H64.8727H64.8213H64.77H64.7186H64.6673H64.616H64.5646H64.5133H64.462H64.4106H64.3593H64.3079H64.2566H64.2053H64.1539H64.1026H64.0513H63.9999H63.9486H63.8973H63.8459H63.7946H63.7433H63.6919H63.6406H63.5892H63.5379H63.4866H63.4352H63.3839H63.3326H63.2812H63.2299H63.1786H63.1272H63.0759H63.0246H62.9732H62.9219H62.8706H62.8192H62.7679H62.7165H62.6652H62.6139H62.5625H62.5112H62.4599H62.4085H62.3572H62.3059H62.2545H62.2032H62.1519H62.1005H62.0492H61.9979H61.9465H61.8952H61.8439H61.7925H61.7412H61.6899H61.6385H61.5872H61.5359H61.4845H61.4332H61.3819H61.3305H61.2792H61.2278H61.1765H61.1252H61.0738H61.0225H60.9712H60.9198H60.8685H60.8172H60.7658H60.7145H60.7104Z" stroke="#4205F0" stroke-width="1.32705"/>
</g>
<g filter="url(#filter14_f_415_3411)">
<path d="M73.7998 83.679C73.5496 89.472 71.8347 95.2285 67.7693 100.138C66.3119 101.896 64.5605 103.315 62.3617 104.033C59.1419 105.085 56.2417 104.311 53.6447 102.256C50.593 99.8417 48.6827 96.6128 47.3348 93.0388C45.483 88.1297 44.8383 83.0818 45.9797 77.9024C47.8608 69.3626 56.3659 64.5265 64.3578 67.4979C69.3454 69.3516 72.0904 73.1704 73.3049 78.2147C73.6993 79.851 73.7852 81.5203 73.798 83.6771L73.7998 83.679Z" fill="url(#paint11_radial_415_3411)"/>
<path d="M62.1558 103.402L62.1556 103.402C59.1834 104.373 56.5112 103.678 54.0564 101.736C51.1302 99.4207 49.2777 96.3102 47.9557 92.8046L47.9557 92.8046C46.1401 87.9916 45.519 83.0758 46.6277 78.0452L46.6277 78.0451C48.427 69.8768 56.5334 65.2967 64.1266 68.1199L64.1266 68.1199C68.864 69.8806 71.4852 73.4914 72.6598 78.37L72.6598 78.3702C73.0354 79.9281 73.1217 81.5332 73.1344 83.6811L73.1346 83.7027C72.8812 89.3645 71.2011 94.9533 67.2583 99.7144C65.8549 101.408 64.2017 102.735 62.1558 103.402Z" stroke="#4205F0" stroke-width="1.32705"/>
</g>
</g>
<g filter="url(#filter15_f_415_3411)">
<path d="M59.6383 119.552C50.6931 119.552 41.7497 119.555 32.8045 119.55C30.3992 119.55 28.7099 118.33 28.1547 116.23C27.9648 115.508 27.9301 114.772 28.162 114.069C29.1464 111.103 29.9262 108.051 31.5261 105.33C35.301 98.9052 40.9151 95.2289 48.2824 94.1824C48.8869 94.0966 49.2321 94.3577 49.6192 94.7321C52.6582 97.6706 56.1976 99.4002 60.5259 99.1025C64.0233 98.8614 66.9326 97.3036 69.3945 94.8965C70.041 94.2646 70.6345 94.113 71.491 94.2646C80.3377 95.8462 86.3407 100.808 89.4253 109.262C89.9568 110.718 90.4535 112.184 90.9211 113.662C91.8817 116.695 89.9276 119.437 86.7443 119.552C86.4704 119.561 86.1964 119.555 85.9225 119.555C77.1599 119.555 68.3973 119.555 59.6365 119.555L59.6383 119.552Z" fill="url(#paint12_radial_415_3411)"/>
<path d="M60.7104 118.892L60.7122 118.888H59.6383C57.081 118.888 54.5239 118.888 51.9669 118.889C45.5795 118.889 39.1927 118.89 32.8049 118.886H32.8045C31.714 118.886 30.8322 118.61 30.1722 118.138C29.5161 117.668 29.038 116.974 28.7963 116.06C28.6291 115.425 28.6112 114.826 28.792 114.277C28.996 113.663 29.1895 113.051 29.3813 112.445C30.1338 110.068 30.8606 107.771 32.0981 105.666L32.0982 105.666C35.7682 99.4199 41.2035 95.8581 48.3757 94.8393C48.5544 94.814 48.6583 94.841 48.7442 94.8824C48.8522 94.9345 48.9711 95.0284 49.158 95.2091L49.6192 94.7321L49.158 95.2091C52.2957 98.2431 56.0104 100.078 60.5715 99.7644L60.5716 99.7644C64.2564 99.5104 67.3075 97.865 69.8583 95.3709C70.1267 95.1087 70.3451 94.9833 70.5495 94.9238C70.7565 94.8635 71.0091 94.8532 71.3748 94.9179C79.9924 96.4587 85.7998 101.262 88.802 109.49L88.8021 109.49C89.33 110.936 89.8236 112.393 90.2885 113.862L90.2885 113.862C90.7101 115.193 90.4838 116.418 89.8457 117.317C89.2073 118.216 88.1209 118.838 86.7213 118.888C86.5361 118.895 86.3563 118.894 86.1623 118.893C86.085 118.892 86.0055 118.892 85.9225 118.892H85.8711H85.8198H85.7685H85.7171H85.6658H85.6144H85.5631H85.5117H85.4604H85.4091H85.3577H85.3064H85.255H85.2037H85.1523H85.101H85.0497H84.9983H84.947H84.8956H84.8443H84.7929H84.7416H84.6903H84.6389H84.5876H84.5362H84.4849H84.4335H84.3822H84.3308H84.2795H84.2282H84.1768H84.1255H84.0741H84.0228H83.9714H83.9201H83.8688H83.8174H83.7661H83.7147H83.6634H83.612H83.5607H83.5094H83.458H83.4067H83.3553H83.304H83.2526H83.2013H83.1499H83.0986H83.0473H82.9959H82.9446H82.8932H82.8419H82.7905H82.7392H82.6879H82.6365H82.5852H82.5338H82.4825H82.4311H82.3798H82.3285H82.2771H82.2258H82.1744H82.1231H82.0717H82.0204H81.9691H81.9177H81.8664H81.815H81.7637H81.7123H81.661H81.6097H81.5583H81.507H81.4556H81.4043H81.3529H81.3016H81.2503H81.1989H81.1476H81.0962H81.0449H80.9935H80.9422H80.8909H80.8395H80.7882H80.7368H80.6855H80.6341H80.5828H80.5315H80.4801H80.4288H80.3774H80.3261H80.2747H80.2234H80.1721H80.1207H80.0694H80.018H79.9667H79.9153H79.864H79.8127H79.7613H79.71H79.6586H79.6073H79.5559H79.5046H79.4533H79.4019H79.3506H79.2992H79.2479H79.1965H79.1452H79.0939H79.0425H78.9912H78.9398H78.8885H78.8371H78.7858H78.7345H78.6831H78.6318H78.5804H78.5291H78.4777H78.4264H78.3751H78.3237H78.2724H78.221H78.1697H78.1183H78.067H78.0157H77.9643H77.913H77.8616H77.8103H77.7589H77.7076H77.6563H77.6049H77.5536H77.5022H77.4509H77.3996H77.3482H77.2969H77.2455H77.1942H77.1428H77.0915H77.0402H76.9888H76.9375H76.8861H76.8348H76.7834H76.7321H76.6808H76.6294H76.5781H76.5267H76.4754H76.4241H76.3727H76.3214H76.27H76.2187H76.1673H76.116H76.0647H76.0133H75.962H75.9106H75.8593H75.808H75.7566H75.7053H75.6539H75.6026H75.5512H75.4999H75.4486H75.3972H75.3459H75.2945H75.2432H75.1919H75.1405H75.0892H75.0378H74.9865H74.9351H74.8838H74.8325H74.7811H74.7298H74.6784H74.6271H74.5758H74.5244H74.4731H74.4217H74.3704H74.319H74.2677H74.2164H74.165H74.1137H74.0623H74.011H73.9597H73.9083H73.857H73.8056H73.7543H73.703H73.6516H73.6003H73.5489H73.4976H73.4462H73.3949H73.3436H73.2922H73.2409H73.1895H73.1382H73.0869H73.0355H72.9842H72.9328H72.8815H72.8302H72.7788H72.7275H72.6761H72.6248H72.5735H72.5221H72.4708H72.4194H72.3681H72.3168H72.2654H72.2141H72.1627H72.1114H72.0601H72.0087H71.9574H71.906H71.8547H71.8033H71.752H71.7007H71.6493H71.598H71.5466H71.4953H71.444H71.3926H71.3413H71.2899H71.2386H71.1873H71.1359H71.0846H71.0332H70.9819H70.9306H70.8792H70.8279H70.7765H70.7252H70.6739H70.6225H70.5712H70.5198H70.4685H70.4172H70.3658H70.3145H70.2631H70.2118H70.1605H70.1091H70.0578H70.0065H69.9551H69.9038H69.8524H69.8011H69.7498H69.6984H69.6471H69.5957H69.5444H69.4931H69.4417H69.3904H69.339H69.2877H69.2364H69.185H69.1337H69.0823H69.031H68.9797H68.9283H68.877H68.8257H68.7743H68.723H68.6716H68.6203H68.569H68.5176H68.4663H68.4149H68.3636H68.3123H68.2609H68.2096H68.1583H68.1069H68.0556H68.0042H67.9529H67.9016H67.8502H67.7989H67.7475H67.6962H67.6449H67.5935H67.5422H67.4909H67.4395H67.3882H67.3368H67.2855H67.2342H67.1828H67.1315H67.0802H67.0288H66.9775H66.9261H66.8748H66.8235H66.7721H66.7208H66.6694H66.6181H66.5668H66.5154H66.4641H66.4128H66.3614H66.3101H66.2587H66.2074H66.1561H66.1047H66.0534H66.0021H65.9507H65.8994H65.848H65.7967H65.7454H65.694H65.6427H65.5914H65.54H65.4887H65.4374H65.386H65.3347H65.2833H65.232H65.1807H65.1293H65.078H65.0267H64.9753H64.924H64.8727H64.8213H64.77H64.7186H64.6673H64.616H64.5646H64.5133H64.462H64.4106H64.3593H64.3079H64.2566H64.2053H64.1539H64.1026H64.0513H63.9999H63.9486H63.8973H63.8459H63.7946H63.7433H63.6919H63.6406H63.5892H63.5379H63.4866H63.4352H63.3839H63.3326H63.2812H63.2299H63.1786H63.1272H63.0759H63.0246H62.9732H62.9219H62.8706H62.8192H62.7679H62.7165H62.6652H62.6139H62.5625H62.5112H62.4599H62.4085H62.3572H62.3059H62.2545H62.2032H62.1519H62.1005H62.0492H61.9979H61.9465H61.8952H61.8439H61.7925H61.7412H61.6899H61.6385H61.5872H61.5359H61.4845H61.4332H61.3819H61.3305H61.2792H61.2278H61.1765H61.1252H61.0738H61.0225H60.9712H60.9198H60.8685H60.8172H60.7658H60.7145H60.7104Z" stroke="#4205F0" stroke-width="1.32705"/>
</g>
<g filter="url(#filter16_f_415_3411)">
<path d="M73.7998 74.2044C73.5496 79.9974 71.8347 85.7539 67.7693 90.663C66.3119 92.4217 64.5605 93.8408 62.3617 94.5585C59.1419 95.6104 56.2417 94.8361 53.6447 92.7815C50.593 90.3671 48.6827 87.1382 47.3348 83.5642C45.483 78.6551 44.8383 73.6072 45.9797 68.4278C47.8608 59.888 56.3659 55.0519 64.3578 58.0233C69.3454 59.877 72.0904 63.6958 73.3049 68.7401C73.6993 70.3764 73.7852 72.0457 73.798 74.2025L73.7998 74.2044Z" fill="url(#paint13_radial_415_3411)"/>
<path d="M62.1558 93.9277L62.1556 93.9278C59.1834 94.8988 56.5112 94.2032 54.0564 92.2611C51.1302 89.9461 49.2777 86.8356 47.9557 83.33L47.9557 83.33C46.1401 78.517 45.519 73.6012 46.6277 68.5706L46.6277 68.5705C48.427 60.4021 56.5334 55.8221 64.1266 58.6453L64.1266 58.6453C68.864 60.406 71.4852 64.0168 72.6598 68.8954L72.6598 68.8956C73.0354 70.4535 73.1217 72.0586 73.1344 74.2065L73.1346 74.2281C72.8812 79.8899 71.2011 85.4787 67.2583 90.2398C65.8549 91.9333 64.2017 93.2599 62.1558 93.9277Z" stroke="#4205F0" stroke-width="1.32705"/>
</g>
<g filter="url(#filter17_f_415_3411)">
<g filter="url(#filter18_f_415_3411)">
<path d="M754.472 129.026C745.527 129.026 736.583 129.03 727.638 129.024C725.233 129.024 723.543 127.804 722.988 125.704C722.798 124.983 722.764 124.247 722.996 123.544C723.98 120.578 724.76 117.526 726.36 114.805C730.135 108.38 735.749 104.703 743.116 103.657C743.72 103.571 744.066 103.832 744.453 104.207C747.492 107.145 751.031 108.875 755.359 108.577C758.857 108.336 761.766 106.778 764.228 104.371C764.874 103.739 765.468 103.588 766.325 103.739C775.171 105.321 781.174 110.283 784.259 118.737C784.79 120.192 785.287 121.659 785.755 123.136C786.715 126.17 784.761 128.911 781.578 129.026C781.304 129.035 781.03 129.03 780.756 129.03C771.993 129.03 763.231 129.03 754.47 129.03L754.472 129.026Z" fill="url(#paint14_radial_415_3411)"/>
<path d="M755.544 128.366L755.546 128.363H754.472C751.915 128.363 749.357 128.363 746.8 128.363C740.413 128.364 734.026 128.365 727.638 128.361H727.638C726.547 128.361 725.666 128.085 725.006 127.612C724.35 127.143 723.872 126.449 723.63 125.535C723.463 124.9 723.445 124.3 723.625 123.752C723.83 123.137 724.023 122.526 724.215 121.92C724.967 119.542 725.694 117.246 726.932 115.141L726.932 115.141C730.602 108.895 736.037 105.333 743.209 104.314C743.388 104.289 743.492 104.316 743.578 104.357C743.686 104.409 743.805 104.503 743.992 104.684L744.453 104.207L743.992 104.684C747.129 107.718 750.844 109.553 755.405 109.239L755.405 109.239C759.09 108.985 762.141 107.34 764.692 104.846C764.96 104.583 765.179 104.458 765.383 104.398C765.59 104.338 765.843 104.328 766.208 104.392C774.826 105.933 780.633 110.736 783.636 118.964L783.636 118.964C784.163 120.41 784.657 121.868 785.122 123.337L785.122 123.337C785.544 124.668 785.317 125.893 784.679 126.791C784.041 127.69 782.954 128.312 781.555 128.363C781.37 128.369 781.19 128.368 780.996 128.367C780.918 128.367 780.839 128.366 780.756 128.366H780.705H780.653H780.602H780.551H780.499H780.448H780.397H780.345H780.294H780.243H780.191H780.14H780.089H780.037H779.986H779.934H779.883H779.832H779.78H779.729H779.678H779.626H779.575H779.524H779.472H779.421H779.37H779.318H779.267H779.216H779.164H779.113H779.062H779.01H778.959H778.908H778.856H778.805H778.754H778.702H778.651H778.6H778.548H778.497H778.446H778.394H778.343H778.292H778.24H778.189H778.137H778.086H778.035H777.983H777.932H777.881H777.829H777.778H777.727H777.675H777.624H777.573H777.521H777.47H777.419H777.367H777.316H777.265H777.213H777.162H777.111H777.059H777.008H776.957H776.905H776.854H776.803H776.751H776.7H776.649H776.597H776.546H776.494H776.443H776.392H776.34H776.289H776.238H776.186H776.135H776.084H776.032H775.981H775.93H775.878H775.827H775.776H775.724H775.673H775.622H775.57H775.519H775.468H775.416H775.365H775.314H775.262H775.211H775.16H775.108H775.057H775.006H774.954H774.903H774.852H774.8H774.749H774.697H774.646H774.595H774.543H774.492H774.441H774.389H774.338H774.287H774.235H774.184H774.133H774.081H774.03H773.979H773.927H773.876H773.825H773.773H773.722H773.671H773.619H773.568H773.517H773.465H773.414H773.363H773.311H773.26H773.209H773.157H773.106H773.055H773.003H772.952H772.901H772.849H772.798H772.746H772.695H772.644H772.592H772.541H772.49H772.438H772.387H772.336H772.284H772.233H772.182H772.13H772.079H772.028H771.976H771.925H771.874H771.822H771.771H771.72H771.668H771.617H771.566H771.514H771.463H771.412H771.36H771.309H771.258H771.206H771.155H771.104H771.052H771.001H770.949H770.898H770.847H770.795H770.744H770.693H770.641H770.59H770.539H770.487H770.436H770.385H770.333H770.282H770.231H770.179H770.128H770.077H770.025H769.974H769.923H769.871H769.82H769.769H769.717H769.666H769.615H769.563H769.512H769.461H769.409H769.358H769.307H769.255H769.204H769.153H769.101H769.05H768.999H768.947H768.896H768.844H768.793H768.742H768.69H768.639H768.588H768.536H768.485H768.434H768.382H768.331H768.28H768.228H768.177H768.126H768.074H768.023H767.972H767.92H767.869H767.818H767.766H767.715H767.664H767.612H767.561H767.51H767.458H767.407H767.356H767.304H767.253H767.202H767.15H767.099H767.048H766.996H766.945H766.894H766.842H766.791H766.74H766.688H766.637H766.586H766.534H766.483H766.431H766.38H766.329H766.277H766.226H766.175H766.123H766.072H766.021H765.969H765.918H765.867H765.815H765.764H765.713H765.661H765.61H765.559H765.507H765.456H765.405H765.353H765.302H765.251H765.199H765.148H765.097H765.045H764.994H764.943H764.891H764.84H764.789H764.737H764.686H764.635H764.583H764.532H764.481H764.429H764.378H764.327H764.275H764.224H764.173H764.121H764.07H764.019H763.967H763.916H763.865H763.813H763.762H763.71H763.659H763.608H763.556H763.505H763.454H763.402H763.351H763.3H763.248H763.197H763.146H763.094H763.043H762.992H762.94H762.889H762.838H762.786H762.735H762.684H762.632H762.581H762.53H762.478H762.427H762.376H762.324H762.273H762.222H762.17H762.119H762.068H762.016H761.965H761.914H761.862H761.811H761.76H761.708H761.657H761.606H761.554H761.503H761.452H761.4H761.349H761.298H761.246H761.195H761.144H761.092H761.041H760.99H760.938H760.887H760.836H760.784H760.733H760.682H760.63H760.579H760.528H760.476H760.425H760.374H760.322H760.271H760.22H760.168H760.117H760.066H760.014H759.963H759.911H759.86H759.809H759.757H759.706H759.655H759.603H759.552H759.501H759.449H759.398H759.347H759.295H759.244H759.193H759.141H759.09H759.039H758.987H758.936H758.885H758.833H758.782H758.731H758.679H758.628H758.577H758.525H758.474H758.423H758.371H758.32H758.269H758.217H758.166H758.115H758.063H758.012H757.961H757.909H757.858H757.807H757.755H757.704H757.653H757.601H757.55H757.499H757.447H757.396H757.345H757.293H757.242H757.191H757.139H757.088H757.037H756.985H756.934H756.883H756.831H756.78H756.729H756.677H756.626H756.575H756.523H756.472H756.421H756.369H756.318H756.267H756.215H756.164H756.113H756.061H756.01H755.959H755.907H755.856H755.805H755.753H755.702H755.651H755.599H755.548H755.544Z" stroke="#4205F0" stroke-width="1.32705"/>
</g>
<g filter="url(#filter19_f_415_3411)">
<path d="M768.633 83.679C768.383 89.472 766.668 95.2285 762.603 100.138C761.145 101.896 759.394 103.315 757.195 104.033C753.975 105.085 751.075 104.311 748.478 102.256C745.426 99.8417 743.516 96.6128 742.168 93.0388C740.316 88.1297 739.672 83.0818 740.813 77.9024C742.694 69.3626 751.199 64.5265 759.191 67.4979C764.179 69.3516 766.924 73.1704 768.138 78.2147C768.533 79.851 768.619 81.5203 768.631 83.6771L768.633 83.679Z" fill="url(#paint15_radial_415_3411)"/>
<path d="M756.989 103.402L756.989 103.402C754.017 104.373 751.345 103.678 748.89 101.736C745.964 99.4207 744.111 96.3102 742.789 92.8046L742.789 92.8046C740.974 87.9916 740.353 83.0758 741.461 78.0452L741.461 78.0451C743.26 69.8768 751.367 65.2967 758.96 68.1199L758.96 68.1199C763.697 69.8806 766.319 73.4914 767.493 78.37L767.493 78.3702C767.869 79.9281 767.955 81.5332 767.968 83.6811L767.968 83.7027C767.715 89.3645 766.035 94.9533 762.092 99.7144C760.688 101.408 759.035 102.735 756.989 103.402Z" stroke="#4205F0" stroke-width="1.32705"/>
</g>
</g>
<g filter="url(#filter20_f_415_3411)">
<path d="M754.472 119.552C745.527 119.552 736.583 119.555 727.638 119.55C725.233 119.55 723.543 118.33 722.988 116.23C722.798 115.508 722.764 114.772 722.996 114.069C723.98 111.103 724.76 108.051 726.36 105.33C730.135 98.9052 735.749 95.2289 743.116 94.1824C743.72 94.0966 744.066 94.3577 744.453 94.7321C747.492 97.6706 751.031 99.4002 755.359 99.1025C758.857 98.8614 761.766 97.3036 764.228 94.8965C764.874 94.2646 765.468 94.113 766.325 94.2646C775.171 95.8462 781.174 100.808 784.259 109.262C784.79 110.718 785.287 112.184 785.755 113.662C786.715 116.695 784.761 119.437 781.578 119.552C781.304 119.561 781.03 119.555 780.756 119.555C771.993 119.555 763.231 119.555 754.47 119.555L754.472 119.552Z" fill="url(#paint16_radial_415_3411)"/>
<path d="M755.544 118.892L755.546 118.888H754.472C751.915 118.888 749.357 118.888 746.8 118.889C740.413 118.889 734.026 118.89 727.638 118.886H727.638C726.547 118.886 725.666 118.61 725.006 118.138C724.35 117.668 723.872 116.974 723.63 116.06C723.463 115.425 723.445 114.826 723.625 114.277C723.83 113.663 724.023 113.051 724.215 112.445C724.967 110.068 725.694 107.771 726.932 105.666L726.932 105.666C730.602 99.4199 736.037 95.8581 743.209 94.8393C743.388 94.814 743.492 94.841 743.578 94.8824C743.686 94.9345 743.805 95.0284 743.992 95.2091L744.453 94.7321L743.992 95.2091C747.129 98.2431 750.844 100.078 755.405 99.7644L755.405 99.7644C759.09 99.5104 762.141 97.865 764.692 95.3709C764.96 95.1087 765.179 94.9833 765.383 94.9238C765.59 94.8635 765.843 94.8532 766.208 94.9179C774.826 96.4587 780.633 101.262 783.636 109.49L783.636 109.49C784.163 110.936 784.657 112.393 785.122 113.862L785.122 113.862C785.544 115.193 785.317 116.418 784.679 117.317C784.041 118.216 782.954 118.838 781.555 118.888C781.37 118.895 781.19 118.894 780.996 118.893C780.918 118.892 780.839 118.892 780.756 118.892H780.705H780.653H780.602H780.551H780.499H780.448H780.397H780.345H780.294H780.243H780.191H780.14H780.089H780.037H779.986H779.934H779.883H779.832H779.78H779.729H779.678H779.626H779.575H779.524H779.472H779.421H779.37H779.318H779.267H779.216H779.164H779.113H779.062H779.01H778.959H778.908H778.856H778.805H778.754H778.702H778.651H778.6H778.548H778.497H778.446H778.394H778.343H778.292H778.24H778.189H778.137H778.086H778.035H777.983H777.932H777.881H777.829H777.778H777.727H777.675H777.624H777.573H777.521H777.47H777.419H777.367H777.316H777.265H777.213H777.162H777.111H777.059H777.008H776.957H776.905H776.854H776.803H776.751H776.7H776.649H776.597H776.546H776.494H776.443H776.392H776.34H776.289H776.238H776.186H776.135H776.084H776.032H775.981H775.93H775.878H775.827H775.776H775.724H775.673H775.622H775.57H775.519H775.468H775.416H775.365H775.314H775.262H775.211H775.16H775.108H775.057H775.006H774.954H774.903H774.852H774.8H774.749H774.697H774.646H774.595H774.543H774.492H774.441H774.389H774.338H774.287H774.235H774.184H774.133H774.081H774.03H773.979H773.927H773.876H773.825H773.773H773.722H773.671H773.619H773.568H773.517H773.465H773.414H773.363H773.311H773.26H773.209H773.157H773.106H773.055H773.003H772.952H772.901H772.849H772.798H772.746H772.695H772.644H772.592H772.541H772.49H772.438H772.387H772.336H772.284H772.233H772.182H772.13H772.079H772.028H771.976H771.925H771.874H771.822H771.771H771.72H771.668H771.617H771.566H771.514H771.463H771.412H771.36H771.309H771.258H771.206H771.155H771.104H771.052H771.001H770.949H770.898H770.847H770.795H770.744H770.693H770.641H770.59H770.539H770.487H770.436H770.385H770.333H770.282H770.231H770.179H770.128H770.077H770.025H769.974H769.923H769.871H769.82H769.769H769.717H769.666H769.615H769.563H769.512H769.461H769.409H769.358H769.307H769.255H769.204H769.153H769.101H769.05H768.999H768.947H768.896H768.844H768.793H768.742H768.69H768.639H768.588H768.536H768.485H768.434H768.382H768.331H768.28H768.228H768.177H768.126H768.074H768.023H767.972H767.92H767.869H767.818H767.766H767.715H767.664H767.612H767.561H767.51H767.458H767.407H767.356H767.304H767.253H767.202H767.15H767.099H767.048H766.996H766.945H766.894H766.842H766.791H766.74H766.688H766.637H766.586H766.534H766.483H766.431H766.38H766.329H766.277H766.226H766.175H766.123H766.072H766.021H765.969H765.918H765.867H765.815H765.764H765.713H765.661H765.61H765.559H765.507H765.456H765.405H765.353H765.302H765.251H765.199H765.148H765.097H765.045H764.994H764.943H764.891H764.84H764.789H764.737H764.686H764.635H764.583H764.532H764.481H764.429H764.378H764.327H764.275H764.224H764.173H764.121H764.07H764.019H763.967H763.916H763.865H763.813H763.762H763.71H763.659H763.608H763.556H763.505H763.454H763.402H763.351H763.3H763.248H763.197H763.146H763.094H763.043H762.992H762.94H762.889H762.838H762.786H762.735H762.684H762.632H762.581H762.53H762.478H762.427H762.376H762.324H762.273H762.222H762.17H762.119H762.068H762.016H761.965H761.914H761.862H761.811H761.76H761.708H761.657H761.606H761.554H761.503H761.452H761.4H761.349H761.298H761.246H761.195H761.144H761.092H761.041H760.99H760.938H760.887H760.836H760.784H760.733H760.682H760.63H760.579H760.528H760.476H760.425H760.374H760.322H760.271H760.22H760.168H760.117H760.066H760.014H759.963H759.911H759.86H759.809H759.757H759.706H759.655H759.603H759.552H759.501H759.449H759.398H759.347H759.295H759.244H759.193H759.141H759.09H759.039H758.987H758.936H758.885H758.833H758.782H758.731H758.679H758.628H758.577H758.525H758.474H758.423H758.371H758.32H758.269H758.217H758.166H758.115H758.063H758.012H757.961H757.909H757.858H757.807H757.755H757.704H757.653H757.601H757.55H757.499H757.447H757.396H757.345H757.293H757.242H757.191H757.139H757.088H757.037H756.985H756.934H756.883H756.831H756.78H756.729H756.677H756.626H756.575H756.523H756.472H756.421H756.369H756.318H756.267H756.215H756.164H756.113H756.061H756.01H755.959H755.907H755.856H755.805H755.753H755.702H755.651H755.599H755.548H755.544Z" stroke="#4205F0" stroke-width="1.32705"/>
</g>
<g filter="url(#filter21_f_415_3411)">
<path d="M768.633 74.2044C768.383 79.9974 766.668 85.7539 762.603 90.663C761.145 92.4217 759.394 93.8408 757.195 94.5585C753.975 95.6104 751.075 94.8361 748.478 92.7815C745.426 90.3671 743.516 87.1382 742.168 83.5642C740.316 78.6551 739.672 73.6072 740.813 68.4278C742.694 59.888 751.199 55.0519 759.191 58.0233C764.179 59.877 766.924 63.6958 768.138 68.7401C768.533 70.3764 768.619 72.0457 768.631 74.2025L768.633 74.2044Z" fill="url(#paint17_radial_415_3411)"/>
<path d="M756.989 93.9277L756.989 93.9278C754.017 94.8988 751.345 94.2032 748.89 92.2611C745.964 89.9461 744.111 86.8356 742.789 83.33L742.789 83.33C740.974 78.517 740.353 73.6012 741.461 68.5706L741.461 68.5705C743.26 60.4021 751.367 55.8221 758.96 58.6453L758.96 58.6453C763.697 60.406 766.319 64.0168 767.493 68.8954L767.493 68.8956C767.869 70.4535 767.955 72.0586 767.968 74.2065L767.968 74.2281C767.715 79.8899 766.035 85.4787 762.092 90.2398C760.688 91.9333 759.035 93.2599 756.989 93.9277Z" stroke="#4205F0" stroke-width="1.32705"/>
</g>
<g filter="url(#filter22_f_415_3411)">
<rect x="304.129" y="89.6289" width="46.9238" height="0.902381" fill="url(#paint18_linear_415_3411)"/>
</g>
<path d="M354.662 90.5311L349.248 87.4052V93.657L354.662 90.5311Z" fill="#4205F0"/>
<g filter="url(#filter23_f_415_3411)">
<rect x="96.5811" y="88.7266" width="46.9238" height="0.902381" fill="url(#paint19_linear_415_3411)"/>
</g>
<path d="M147.114 89.6288L141.7 86.5028V92.7547L147.114 89.6288Z" fill="#4205F0"/>
<g filter="url(#filter24_f_415_3411)">
<rect x="666.886" y="93.2383" width="46.9238" height="0.902381" fill="url(#paint20_linear_415_3411)"/>
</g>
<path d="M717.419 94.1405L712.005 91.0145V97.2664L717.419 94.1405Z" fill="#4205F0"/>
<g filter="url(#filter25_f_415_3411)">
<rect x="462.948" y="93.2383" width="46.9238" height="0.902381" fill="url(#paint21_linear_415_3411)"/>
</g>
<path d="M513.481 94.1405L508.067 91.0145V97.2664L513.481 94.1405Z" fill="#4205F0"/>
<defs>
<filter id="filter0_f_415_3411" x="338.407" y="39.7704" width="136.567" height="136.992" filterUnits="userSpaceOnUse" color-interpolation-filters="sRGB">
<feFlood flood-opacity="0" result="BackgroundImageFix"/>
<feBlend mode="normal" in="SourceGraphic" in2="BackgroundImageFix" result="shape"/>
<feGaussianBlur stdDeviation="13.5357" result="effect1_foregroundBlur_415_3411"/>
</filter>
<filter id="filter1_f_415_3411" x="357.597" y="39.51" width="99.1031" height="99.5895" filterUnits="userSpaceOnUse" color-interpolation-filters="sRGB">
<feFlood flood-opacity="0" result="BackgroundImageFix"/>
<feBlend mode="normal" in="SourceGraphic" in2="BackgroundImageFix" result="shape"/>
<feGaussianBlur stdDeviation="1.32705" result="effect1_foregroundBlur_415_3411"/>
</filter>
<filter id="filter2_f_415_3411" x="151.346" y="25.6135" width="145.177" height="131.642" filterUnits="userSpaceOnUse" color-interpolation-filters="sRGB">
<feFlood flood-opacity="0" result="BackgroundImageFix"/>
<feBlend mode="normal" in="SourceGraphic" in2="BackgroundImageFix" result="shape"/>
<feGaussianBlur stdDeviation="1.32705" result="effect1_foregroundBlur_415_3411"/>
</filter>
<filter id="filter3_f_415_3411" x="177.515" y="0.345896" width="93.7418" height="109.984" filterUnits="userSpaceOnUse" color-interpolation-filters="sRGB">
<feFlood flood-opacity="0" result="BackgroundImageFix"/>
<feBlend mode="normal" in="SourceGraphic" in2="BackgroundImageFix" result="shape"/>
<feGaussianBlur stdDeviation="1.32705" result="effect1_foregroundBlur_415_3411"/>
</filter>
<filter id="filter4_f_415_3411" x="151.346" y="105.022" width="145.177" height="52.232" filterUnits="userSpaceOnUse" color-interpolation-filters="sRGB">
<feFlood flood-opacity="0" result="BackgroundImageFix"/>
<feBlend mode="normal" in="SourceGraphic" in2="BackgroundImageFix" result="shape"/>
<feGaussianBlur stdDeviation="1.32705" result="effect1_foregroundBlur_415_3411"/>
</filter>
<filter id="filter5_f_415_3411" x="151.346" y="0.345896" width="145.177" height="30.5758" filterUnits="userSpaceOnUse" color-interpolation-filters="sRGB">
<feFlood flood-opacity="0" result="BackgroundImageFix"/>
<feBlend mode="normal" in="SourceGraphic" in2="BackgroundImageFix" result="shape"/>
<feGaussianBlur stdDeviation="1.32705" result="effect1_foregroundBlur_415_3411"/>
</filter>
<filter id="filter6_f_415_3411" x="202.755" y="92.203" width="45.0999" height="20.4105" filterUnits="userSpaceOnUse" color-interpolation-filters="sRGB">
<feFlood flood-opacity="0" result="BackgroundImageFix"/>
<feBlend mode="normal" in="SourceGraphic" in2="BackgroundImageFix" result="shape"/>
<feGaussianBlur stdDeviation="1.80476" result="effect1_foregroundBlur_415_3411"/>
</filter>
<filter id="filter7_f_415_3411" x="517.144" y="25.6135" width="145.177" height="131.642" filterUnits="userSpaceOnUse" color-interpolation-filters="sRGB">
<feFlood flood-opacity="0" result="BackgroundImageFix"/>
<feBlend mode="normal" in="SourceGraphic" in2="BackgroundImageFix" result="shape"/>
<feGaussianBlur stdDeviation="1.32705" result="effect1_foregroundBlur_415_3411"/>
</filter>
<filter id="filter8_f_415_3411" x="543.313" y="0.345896" width="93.7413" height="109.984" filterUnits="userSpaceOnUse" color-interpolation-filters="sRGB">
<feFlood flood-opacity="0" result="BackgroundImageFix"/>
<feBlend mode="normal" in="SourceGraphic" in2="BackgroundImageFix" result="shape"/>
<feGaussianBlur stdDeviation="1.32705" result="effect1_foregroundBlur_415_3411"/>
</filter>
<filter id="filter9_f_415_3411" x="517.144" y="105.022" width="145.177" height="52.232" filterUnits="userSpaceOnUse" color-interpolation-filters="sRGB">
<feFlood flood-opacity="0" result="BackgroundImageFix"/>
<feBlend mode="normal" in="SourceGraphic" in2="BackgroundImageFix" result="shape"/>
<feGaussianBlur stdDeviation="1.32705" result="effect1_foregroundBlur_415_3411"/>
</filter>
<filter id="filter10_f_415_3411" x="517.144" y="0.345896" width="145.177" height="30.5758" filterUnits="userSpaceOnUse" color-interpolation-filters="sRGB">
<feFlood flood-opacity="0" result="BackgroundImageFix"/>
<feBlend mode="normal" in="SourceGraphic" in2="BackgroundImageFix" result="shape"/>
<feGaussianBlur stdDeviation="1.32705" result="effect1_foregroundBlur_415_3411"/>
</filter>
<filter id="filter11_f_415_3411" x="568.755" y="92.203" width="43.7073" height="20.4105" filterUnits="userSpaceOnUse" color-interpolation-filters="sRGB">
<feFlood flood-opacity="0" result="BackgroundImageFix"/>
<feBlend mode="normal" in="SourceGraphic" in2="BackgroundImageFix" result="shape"/>
<feGaussianBlur stdDeviation="1.80476" result="effect1_foregroundBlur_415_3411"/>
</filter>
<filter id="filter12_f_415_3411" x="0.928572" y="39.5477" width="117.31" height="116.555" filterUnits="userSpaceOnUse" color-interpolation-filters="sRGB">
<feFlood flood-opacity="0" result="BackgroundImageFix"/>
<feBlend mode="normal" in="SourceGraphic" in2="BackgroundImageFix" result="shape"/>
<feGaussianBlur stdDeviation="13.5357" result="effect1_foregroundBlur_415_3411"/>
</filter>
<filter id="filter13_f_415_3411" x="25.3459" y="100.987" width="68.4752" height="30.6988" filterUnits="userSpaceOnUse" color-interpolation-filters="sRGB">
<feFlood flood-opacity="0" result="BackgroundImageFix"/>
<feBlend mode="normal" in="SourceGraphic" in2="BackgroundImageFix" result="shape"/>
<feGaussianBlur stdDeviation="1.32705" result="effect1_foregroundBlur_415_3411"/>
</filter>
<filter id="filter14_f_415_3411" x="42.758" y="63.965" width="33.6959" height="43.191" filterUnits="userSpaceOnUse" color-interpolation-filters="sRGB">
<feFlood flood-opacity="0" result="BackgroundImageFix"/>
<feBlend mode="normal" in="SourceGraphic" in2="BackgroundImageFix" result="shape"/>
<feGaussianBlur stdDeviation="1.32705" result="effect1_foregroundBlur_415_3411"/>
</filter>
<filter id="filter15_f_415_3411" x="25.3459" y="91.5119" width="68.4752" height="30.6988" filterUnits="userSpaceOnUse" color-interpolation-filters="sRGB">
<feFlood flood-opacity="0" result="BackgroundImageFix"/>
<feBlend mode="normal" in="SourceGraphic" in2="BackgroundImageFix" result="shape"/>
<feGaussianBlur stdDeviation="1.32705" result="effect1_foregroundBlur_415_3411"/>
</filter>
<filter id="filter16_f_415_3411" x="42.758" y="54.4904" width="33.6959" height="43.191" filterUnits="userSpaceOnUse" color-interpolation-filters="sRGB">
<feFlood flood-opacity="0" result="BackgroundImageFix"/>
<feBlend mode="normal" in="SourceGraphic" in2="BackgroundImageFix" result="shape"/>
<feGaussianBlur stdDeviation="1.32705" result="effect1_foregroundBlur_415_3411"/>
</filter>
<filter id="filter17_f_415_3411" x="695.762" y="39.5477" width="117.309" height="116.555" filterUnits="userSpaceOnUse" color-interpolation-filters="sRGB">
<feFlood flood-opacity="0" result="BackgroundImageFix"/>
<feBlend mode="normal" in="SourceGraphic" in2="BackgroundImageFix" result="shape"/>
<feGaussianBlur stdDeviation="13.5357" result="effect1_foregroundBlur_415_3411"/>
</filter>
<filter id="filter18_f_415_3411" x="720.179" y="100.987" width="68.4747" height="30.6988" filterUnits="userSpaceOnUse" color-interpolation-filters="sRGB">
<feFlood flood-opacity="0" result="BackgroundImageFix"/>
<feBlend mode="normal" in="SourceGraphic" in2="BackgroundImageFix" result="shape"/>
<feGaussianBlur stdDeviation="1.32705" result="effect1_foregroundBlur_415_3411"/>
</filter>
<filter id="filter19_f_415_3411" x="737.592" y="63.965" width="33.6959" height="43.191" filterUnits="userSpaceOnUse" color-interpolation-filters="sRGB">
<feFlood flood-opacity="0" result="BackgroundImageFix"/>
<feBlend mode="normal" in="SourceGraphic" in2="BackgroundImageFix" result="shape"/>
<feGaussianBlur stdDeviation="1.32705" result="effect1_foregroundBlur_415_3411"/>
</filter>
<filter id="filter20_f_415_3411" x="720.179" y="91.5119" width="68.4747" height="30.6988" filterUnits="userSpaceOnUse" color-interpolation-filters="sRGB">
<feFlood flood-opacity="0" result="BackgroundImageFix"/>
<feBlend mode="normal" in="SourceGraphic" in2="BackgroundImageFix" result="shape"/>
<feGaussianBlur stdDeviation="1.32705" result="effect1_foregroundBlur_415_3411"/>
</filter>
<filter id="filter21_f_415_3411" x="737.592" y="54.4904" width="33.6959" height="43.191" filterUnits="userSpaceOnUse" color-interpolation-filters="sRGB">
<feFlood flood-opacity="0" result="BackgroundImageFix"/>
<feBlend mode="normal" in="SourceGraphic" in2="BackgroundImageFix" result="shape"/>
<feGaussianBlur stdDeviation="1.32705" result="effect1_foregroundBlur_415_3411"/>
</filter>
<filter id="filter22_f_415_3411" x="301.475" y="86.9748" width="52.232" height="6.21055" filterUnits="userSpaceOnUse" color-interpolation-filters="sRGB">
<feFlood flood-opacity="0" result="BackgroundImageFix"/>
<feBlend mode="normal" in="SourceGraphic" in2="BackgroundImageFix" result="shape"/>
<feGaussianBlur stdDeviation="1.32705" result="effect1_foregroundBlur_415_3411"/>
</filter>
<filter id="filter23_f_415_3411" x="93.927" y="86.0725" width="52.232" height="6.21055" filterUnits="userSpaceOnUse" color-interpolation-filters="sRGB">
<feFlood flood-opacity="0" result="BackgroundImageFix"/>
<feBlend mode="normal" in="SourceGraphic" in2="BackgroundImageFix" result="shape"/>
<feGaussianBlur stdDeviation="1.32705" result="effect1_foregroundBlur_415_3411"/>
</filter>
<filter id="filter24_f_415_3411" x="664.232" y="90.5842" width="52.232" height="6.21055" filterUnits="userSpaceOnUse" color-interpolation-filters="sRGB">
<feFlood flood-opacity="0" result="BackgroundImageFix"/>
<feBlend mode="normal" in="SourceGraphic" in2="BackgroundImageFix" result="shape"/>
<feGaussianBlur stdDeviation="1.32705" result="effect1_foregroundBlur_415_3411"/>
</filter>
<filter id="filter25_f_415_3411" x="460.294" y="90.5842" width="52.232" height="6.21055" filterUnits="userSpaceOnUse" color-interpolation-filters="sRGB">
<feFlood flood-opacity="0" result="BackgroundImageFix"/>
<feBlend mode="normal" in="SourceGraphic" in2="BackgroundImageFix" result="shape"/>
<feGaussianBlur stdDeviation="1.32705" result="effect1_foregroundBlur_415_3411"/>
</filter>
<radialGradient id="paint0_radial_415_3411" cx="0" cy="0" r="1" gradientUnits="userSpaceOnUse" gradientTransform="translate(406.385 107.752) rotate(93.718) scale(77.2087 72.5037)">
<stop offset="0.046875" stop-color="#4200FD"/>
<stop offset="1" stop-color="#2C204E" stop-opacity="0"/>
</radialGradient>
<radialGradient id="paint1_radial_415_3411" cx="0" cy="0" r="1" gradientUnits="userSpaceOnUse" gradientTransform="translate(406.801 88.7194) rotate(93.718) scale(87.8605 82.5063)">
<stop offset="0.046875" stop-color="#120B24"/>
<stop offset="1" stop-color="#100A23" stop-opacity="0"/>
</radialGradient>
<radialGradient id="paint2_radial_415_3411" cx="0" cy="0" r="1" gradientUnits="userSpaceOnUse" gradientTransform="translate(223.224 90.6874) rotate(86.2627) scale(117.943 130.642)">
<stop offset="0.046875" stop-color="#4205F0"/>
<stop offset="1" stop-color="#4205F0" stop-opacity="0"/>
</radialGradient>
<radialGradient id="paint3_radial_415_3411" cx="0" cy="0" r="1" gradientUnits="userSpaceOnUse" gradientTransform="translate(223.936 54.7193) rotate(87.1465) scale(97.6374 82.6731)">
<stop offset="0.046875" stop-color="#4205F0"/>
<stop offset="1" stop-color="#4205F0" stop-opacity="0"/>
</radialGradient>
<radialGradient id="paint4_radial_415_3411" cx="0" cy="0" r="1" gradientUnits="userSpaceOnUse" gradientTransform="translate(223.224 130.86) rotate(80.0257) scale(44.3851 128.942)">
<stop offset="0.046875" stop-color="#4205F0"/>
<stop offset="1" stop-color="#4205F0" stop-opacity="0"/>
</radialGradient>
<radialGradient id="paint5_radial_415_3411" cx="0" cy="0" r="1" gradientUnits="userSpaceOnUse" gradientTransform="translate(223.224 -35.6469) rotate(86.2627) scale(117.943 130.642)">
<stop offset="0.046875" stop-color="#4205F0"/>
<stop offset="1" stop-color="#4205F0" stop-opacity="0"/>
</radialGradient>
<radialGradient id="paint6_radial_415_3411" cx="0" cy="0" r="1" gradientUnits="userSpaceOnUse" gradientTransform="translate(589.022 90.6874) rotate(86.2627) scale(117.943 130.642)">
<stop offset="0.046875" stop-color="#4205F0"/>
<stop offset="1" stop-color="#4205F0" stop-opacity="0"/>
</radialGradient>
<radialGradient id="paint7_radial_415_3411" cx="0" cy="0" r="1" gradientUnits="userSpaceOnUse" gradientTransform="translate(589.734 54.7193) rotate(87.1465) scale(97.6374 82.6731)">
<stop offset="0.046875" stop-color="#4205F0"/>
<stop offset="1" stop-color="#4205F0" stop-opacity="0"/>
</radialGradient>
<radialGradient id="paint8_radial_415_3411" cx="0" cy="0" r="1" gradientUnits="userSpaceOnUse" gradientTransform="translate(589.022 130.86) rotate(80.0257) scale(44.3851 128.942)">
<stop offset="0.046875" stop-color="#4205F0"/>
<stop offset="1" stop-color="#4205F0" stop-opacity="0"/>
</radialGradient>
<radialGradient id="paint9_radial_415_3411" cx="0" cy="0" r="1" gradientUnits="userSpaceOnUse" gradientTransform="translate(589.022 -35.6469) rotate(86.2627) scale(117.943 130.642)">
<stop offset="0.046875" stop-color="#4205F0"/>
<stop offset="1" stop-color="#4205F0" stop-opacity="0"/>
</radialGradient>
<radialGradient id="paint10_radial_415_3411" cx="0" cy="0" r="1" gradientUnits="userSpaceOnUse" gradientTransform="translate(59.2625 116.186) rotate(81.6499) scale(23.9076 58.4987)">
<stop offset="0.046875" stop-color="#4205F0"/>
<stop offset="1" stop-color="#4205F0" stop-opacity="0"/>
</radialGradient>
<radialGradient id="paint11_radial_415_3411" cx="0" cy="0" r="1" gradientUnits="userSpaceOnUse" gradientTransform="translate(59.4617 85.3364) rotate(87.4685) scale(35.3257 26.5456)">
<stop offset="0.046875" stop-color="#4205F0"/>
<stop offset="1" stop-color="#4205F0" stop-opacity="0"/>
</radialGradient>
<radialGradient id="paint12_radial_415_3411" cx="0" cy="0" r="1" gradientUnits="userSpaceOnUse" gradientTransform="translate(59.2625 106.711) rotate(81.6499) scale(23.9076 58.4987)">
<stop offset="0.046875" stop-color="#120B24"/>
<stop offset="1" stop-color="#100A23" stop-opacity="0"/>
</radialGradient>
<radialGradient id="paint13_radial_415_3411" cx="0" cy="0" r="1" gradientUnits="userSpaceOnUse" gradientTransform="translate(59.4617 75.8618) rotate(87.4685) scale(35.3257 26.5456)">
<stop offset="0.046875" stop-color="#120B24"/>
<stop offset="1" stop-color="#100A23" stop-opacity="0"/>
</radialGradient>
<radialGradient id="paint14_radial_415_3411" cx="0" cy="0" r="1" gradientUnits="userSpaceOnUse" gradientTransform="translate(754.096 116.186) rotate(81.6499) scale(23.9076 58.4987)">
<stop offset="0.046875" stop-color="#4205F0"/>
<stop offset="1" stop-color="#4205F0" stop-opacity="0"/>
</radialGradient>
<radialGradient id="paint15_radial_415_3411" cx="0" cy="0" r="1" gradientUnits="userSpaceOnUse" gradientTransform="translate(754.295 85.3364) rotate(87.4685) scale(35.3257 26.5456)">
<stop offset="0.046875" stop-color="#4205F0"/>
<stop offset="1" stop-color="#4205F0" stop-opacity="0"/>
</radialGradient>
<radialGradient id="paint16_radial_415_3411" cx="0" cy="0" r="1" gradientUnits="userSpaceOnUse" gradientTransform="translate(754.096 106.711) rotate(81.6499) scale(23.9076 58.4987)">
<stop offset="0.046875" stop-color="#120B24"/>
<stop offset="1" stop-color="#100A23" stop-opacity="0"/>
</radialGradient>
<radialGradient id="paint17_radial_415_3411" cx="0" cy="0" r="1" gradientUnits="userSpaceOnUse" gradientTransform="translate(754.295 75.8618) rotate(87.4685) scale(35.3257 26.5456)">
<stop offset="0.046875" stop-color="#120B24"/>
<stop offset="1" stop-color="#100A23" stop-opacity="0"/>
</radialGradient>
<linearGradient id="paint18_linear_415_3411" x1="346.09" y1="90.0801" x2="339.045" y2="65.3804" gradientUnits="userSpaceOnUse">
<stop offset="0.046875" stop-color="#4205F0"/>
<stop offset="0.615513" stop-color="#4205F0" stop-opacity="0"/>
</linearGradient>
<linearGradient id="paint19_linear_415_3411" x1="138.542" y1="89.1778" x2="131.497" y2="64.478" gradientUnits="userSpaceOnUse">
<stop offset="0.046875" stop-color="#4205F0"/>
<stop offset="0.615513" stop-color="#4205F0" stop-opacity="0"/>
</linearGradient>
<linearGradient id="paint20_linear_415_3411" x1="708.846" y1="93.6895" x2="701.801" y2="68.9897" gradientUnits="userSpaceOnUse">
<stop offset="0.046875" stop-color="#4205F0"/>
<stop offset="0.615513" stop-color="#4205F0" stop-opacity="0"/>
</linearGradient>
<linearGradient id="paint21_linear_415_3411" x1="504.908" y1="93.6895" x2="497.863" y2="68.9897" gradientUnits="userSpaceOnUse">
<stop offset="0.046875" stop-color="#4205F0"/>
<stop offset="0.615513" stop-color="#4205F0" stop-opacity="0"/>
</linearGradient>
</defs>
</svg>
