<svg width="643" height="320" viewBox="0 0 643 320" fill="none" xmlns="http://www.w3.org/2000/svg">
<g filter="url(#filter0_d_415_3721)">
<g filter="url(#filter1_f_415_3721)">
<rect x="270" y="96.668" width="92.2619" height="83.3334" fill="url(#paint0_radial_415_3721)"/>
<rect x="270.664" y="97.3315" width="90.9349" height="82.0063" stroke="#4205F0" stroke-width="1.32705"/>
</g>
<g opacity="0.5" filter="url(#filter2_f_415_3721)">
<rect x="287.262" y="80" width="58.3334" height="69.0476" fill="url(#paint1_radial_415_3721)"/>
<rect x="287.925" y="80.6635" width="57.0063" height="67.7206" stroke="#4205F0" stroke-width="1.32705"/>
</g>
<g filter="url(#filter3_f_415_3721)">
<path d="M286.964 149.047H346.191L362.262 179.999H270L286.964 149.047Z" fill="url(#paint2_radial_415_3721)" fill-opacity="0.3"/>
<path d="M271.12 179.336L287.357 149.71H345.787L361.17 179.336H271.12Z" stroke="#4205F0" stroke-width="1.32705"/>
</g>
<g filter="url(#filter4_f_415_3721)">
<path d="M287.857 80H345L362.262 96.6667H270L287.857 80Z" fill="url(#paint3_radial_415_3721)"/>
<path d="M271.683 96.0031L288.119 80.6635H344.732L360.619 96.0031H271.683Z" stroke="#4205F0" stroke-width="1.32705"/>
</g>
<path d="M309.524 114.165V115.08H304.934V114.165H309.524ZM305.109 110.519V119H303.984V110.519H305.109ZM310.503 110.519V119H309.384V110.519H310.503ZM318.546 110.519H319.664V116.256C319.664 116.893 319.523 117.423 319.239 117.847C318.956 118.27 318.579 118.588 318.109 118.802C317.643 119.012 317.136 119.117 316.589 119.117C316.014 119.117 315.494 119.012 315.028 118.802C314.566 118.588 314.199 118.27 313.927 117.847C313.659 117.423 313.525 116.893 313.525 116.256V110.519H314.637V116.256C314.637 116.699 314.719 117.064 314.882 117.351C315.045 117.639 315.272 117.852 315.564 117.992C315.859 118.132 316.2 118.202 316.589 118.202C316.981 118.202 317.323 118.132 317.614 117.992C317.909 117.852 318.138 117.639 318.301 117.351C318.464 117.064 318.546 116.699 318.546 116.256V110.519ZM325.646 115.033H323.496L323.485 114.13H325.436C325.758 114.13 326.04 114.076 326.281 113.967C326.521 113.858 326.708 113.703 326.84 113.501C326.976 113.295 327.044 113.051 327.044 112.767C327.044 112.456 326.983 112.204 326.863 112.01C326.747 111.812 326.566 111.668 326.321 111.579C326.081 111.486 325.774 111.439 325.401 111.439H323.747V119H322.622V110.519H325.401C325.836 110.519 326.224 110.563 326.566 110.653C326.908 110.738 327.197 110.874 327.434 111.06C327.675 111.243 327.857 111.476 327.981 111.759C328.106 112.043 328.168 112.383 328.168 112.779C328.168 113.128 328.079 113.445 327.9 113.728C327.721 114.008 327.473 114.237 327.154 114.416C326.84 114.594 326.471 114.709 326.048 114.759L325.646 115.033ZM325.593 119H323.053L323.688 118.085H325.593C325.95 118.085 326.253 118.023 326.502 117.899C326.754 117.775 326.947 117.6 327.079 117.375C327.211 117.146 327.277 116.876 327.277 116.565C327.277 116.251 327.22 115.979 327.108 115.75C326.995 115.52 326.818 115.344 326.578 115.22C326.337 115.095 326.026 115.033 325.646 115.033H324.044L324.055 114.13H326.246L326.484 114.456C326.892 114.491 327.238 114.608 327.521 114.806C327.805 115 328.02 115.249 328.168 115.552C328.319 115.854 328.395 116.188 328.395 116.553C328.395 117.082 328.279 117.528 328.046 117.893C327.816 118.254 327.492 118.53 327.073 118.72C326.653 118.907 326.16 119 325.593 119Z" fill="#F3F3F3"/>
<g filter="url(#filter5_f_415_3721)">
<path d="M305.282 150.827H302.03L302.012 149.461H304.965C305.452 149.461 305.878 149.379 306.242 149.214C306.607 149.05 306.889 148.815 307.088 148.509C307.294 148.198 307.397 147.828 307.397 147.399C307.397 146.929 307.306 146.547 307.124 146.253C306.947 145.954 306.674 145.736 306.304 145.601C305.94 145.46 305.476 145.39 304.912 145.39H302.409V156.828H300.708V143.997H304.912C305.57 143.997 306.157 144.065 306.674 144.2C307.191 144.329 307.629 144.535 307.987 144.817C308.351 145.093 308.628 145.446 308.816 145.874C309.004 146.303 309.098 146.817 309.098 147.417C309.098 147.945 308.962 148.424 308.692 148.853C308.422 149.276 308.046 149.623 307.564 149.893C307.088 150.163 306.53 150.336 305.89 150.413L305.282 150.827ZM305.203 156.828H301.36L302.321 155.445H305.203C305.743 155.445 306.201 155.351 306.577 155.163C306.959 154.975 307.25 154.71 307.45 154.369C307.649 154.023 307.749 153.615 307.749 153.145C307.749 152.669 307.664 152.257 307.494 151.911C307.323 151.564 307.056 151.297 306.692 151.109C306.328 150.921 305.858 150.827 305.282 150.827H302.858L302.876 149.461H306.19L306.551 149.955C307.168 150.007 307.691 150.184 308.119 150.483C308.548 150.777 308.874 151.153 309.098 151.611C309.327 152.069 309.441 152.575 309.441 153.127C309.441 153.926 309.265 154.602 308.913 155.154C308.566 155.7 308.075 156.117 307.441 156.405C306.806 156.687 306.06 156.828 305.203 156.828ZM321.504 152.748H323.196C323.107 153.559 322.875 154.284 322.499 154.925C322.123 155.565 321.592 156.073 320.904 156.449C320.217 156.819 319.359 157.004 318.331 157.004C317.579 157.004 316.895 156.863 316.278 156.581C315.667 156.299 315.141 155.9 314.7 155.383C314.26 154.86 313.919 154.234 313.678 153.506C313.443 152.772 313.326 151.955 313.326 151.056V149.778C313.326 148.879 313.443 148.066 313.678 147.337C313.919 146.603 314.263 145.974 314.709 145.451C315.162 144.929 315.705 144.526 316.34 144.244C316.974 143.962 317.688 143.821 318.481 143.821C319.45 143.821 320.27 144.003 320.94 144.368C321.609 144.732 322.129 145.237 322.499 145.883C322.875 146.524 323.107 147.267 323.196 148.113H321.504C321.421 147.514 321.269 146.999 321.045 146.571C320.822 146.136 320.505 145.801 320.094 145.566C319.682 145.331 319.145 145.213 318.481 145.213C317.911 145.213 317.409 145.322 316.974 145.54C316.545 145.757 316.184 146.065 315.89 146.465C315.602 146.864 315.385 147.343 315.238 147.901C315.091 148.459 315.018 149.079 315.018 149.761V151.056C315.018 151.685 315.082 152.275 315.212 152.827C315.347 153.38 315.549 153.864 315.82 154.281C316.09 154.698 316.434 155.027 316.851 155.268C317.268 155.503 317.761 155.621 318.331 155.621C319.054 155.621 319.629 155.506 320.058 155.277C320.487 155.048 320.81 154.719 321.028 154.29C321.251 153.861 321.41 153.347 321.504 152.748ZM332.068 145.134L327.82 156.828H326.084L330.975 143.997H332.094L332.068 145.134ZM335.628 156.828L331.372 145.134L331.345 143.997H332.464L337.373 156.828H335.628ZM335.408 152.078V153.471H328.199V152.078H335.408Z" fill="white" fill-opacity="0.5"/>
</g>
<path d="M304.063 149.999H300.811L300.794 148.633H303.746C304.233 148.633 304.659 148.551 305.023 148.386C305.388 148.222 305.67 147.987 305.869 147.681C306.075 147.37 306.178 147 306.178 146.571C306.178 146.101 306.087 145.719 305.905 145.425C305.728 145.126 305.455 144.908 305.085 144.773C304.721 144.632 304.257 144.562 303.693 144.562H301.19V156H299.489V143.169H303.693C304.351 143.169 304.938 143.237 305.455 143.372C305.972 143.501 306.41 143.707 306.768 143.989C307.132 144.265 307.409 144.617 307.597 145.046C307.785 145.475 307.879 145.989 307.879 146.588C307.879 147.117 307.743 147.596 307.473 148.025C307.203 148.448 306.827 148.794 306.345 149.065C305.869 149.335 305.311 149.508 304.671 149.585L304.063 149.999ZM303.984 156H300.141L301.102 154.616H303.984C304.524 154.616 304.982 154.522 305.358 154.334C305.74 154.146 306.031 153.882 306.231 153.541C306.43 153.195 306.53 152.786 306.53 152.316C306.53 151.841 306.445 151.429 306.275 151.083C306.104 150.736 305.837 150.469 305.473 150.281C305.109 150.093 304.639 149.999 304.063 149.999H301.639L301.657 148.633H304.971L305.332 149.126C305.949 149.179 306.472 149.356 306.9 149.655C307.329 149.949 307.655 150.325 307.879 150.783C308.108 151.241 308.222 151.747 308.222 152.299C308.222 153.098 308.046 153.773 307.694 154.326C307.347 154.872 306.856 155.289 306.222 155.577C305.587 155.859 304.841 156 303.984 156ZM320.285 151.92H321.977C321.888 152.731 321.656 153.456 321.28 154.097C320.904 154.737 320.373 155.245 319.685 155.621C318.998 155.991 318.14 156.176 317.112 156.176C316.36 156.176 315.676 156.035 315.059 155.753C314.448 155.471 313.922 155.072 313.481 154.555C313.041 154.032 312.7 153.406 312.459 152.678C312.224 151.943 312.107 151.127 312.107 150.228V148.95C312.107 148.051 312.224 147.238 312.459 146.509C312.7 145.775 313.044 145.146 313.49 144.623C313.943 144.1 314.486 143.698 315.121 143.416C315.755 143.134 316.469 142.993 317.262 142.993C318.231 142.993 319.051 143.175 319.721 143.539C320.39 143.904 320.91 144.409 321.28 145.055C321.656 145.695 321.888 146.439 321.977 147.285H320.285C320.202 146.685 320.05 146.171 319.826 145.742C319.603 145.308 319.286 144.973 318.875 144.738C318.463 144.503 317.926 144.385 317.262 144.385C316.692 144.385 316.19 144.494 315.755 144.711C315.326 144.929 314.965 145.237 314.671 145.637C314.383 146.036 314.166 146.515 314.019 147.073C313.872 147.631 313.799 148.251 313.799 148.933V150.228C313.799 150.857 313.863 151.447 313.993 151.999C314.128 152.551 314.33 153.036 314.601 153.453C314.871 153.87 315.215 154.199 315.632 154.44C316.049 154.675 316.542 154.793 317.112 154.793C317.835 154.793 318.41 154.678 318.839 154.449C319.268 154.22 319.591 153.891 319.809 153.462C320.032 153.033 320.191 152.519 320.285 151.92ZM330.849 144.306L326.601 156H324.865L329.756 143.169H330.875L330.849 144.306ZM334.409 156L330.153 144.306L330.126 143.169H331.245L336.154 156H334.409ZM334.189 151.25V152.643H326.98V151.25H334.189Z" fill="white"/>
<rect x="290.451" y="136.451" width="53.0976" height="27.0976" rx="1.35357" stroke="#F4F4F4" stroke-width="0.902381"/>
<g filter="url(#filter6_f_415_3721)">
<rect x="546" y="96.668" width="92.2619" height="83.3334" fill="url(#paint4_radial_415_3721)"/>
<rect x="546.664" y="97.3315" width="90.9349" height="82.0063" stroke="#4205F0" stroke-width="1.32705"/>
</g>
<g opacity="0.5" filter="url(#filter7_f_415_3721)">
<rect x="563.262" y="80" width="58.3334" height="69.0476" fill="url(#paint5_radial_415_3721)"/>
<rect x="563.925" y="80.6635" width="57.0063" height="67.7206" stroke="#4205F0" stroke-width="1.32705"/>
</g>
<g filter="url(#filter8_f_415_3721)">
<path d="M562.964 149.047H622.191L638.262 179.999H546L562.964 149.047Z" fill="url(#paint6_radial_415_3721)" fill-opacity="0.3"/>
<path d="M547.12 179.336L563.357 149.71H621.787L637.17 179.336H547.12Z" stroke="#4205F0" stroke-width="1.32705"/>
</g>
<g filter="url(#filter9_f_415_3721)">
<path d="M563.857 80H621L638.262 96.6667H546L563.857 80Z" fill="url(#paint7_radial_415_3721)"/>
<path d="M547.683 96.0031L564.119 80.6635H620.732L636.619 96.0031H547.683Z" stroke="#4205F0" stroke-width="1.32705"/>
</g>
<path d="M585.413 113.973V115.336H580.986V113.973H585.413ZM581.505 110.519V119H579.757V110.519H581.505ZM586.66 110.519V119H584.918V110.519H586.66ZM594.057 110.519H595.798V116.122C595.798 116.775 595.659 117.324 595.379 117.771C595.103 118.217 594.721 118.553 594.231 118.779C593.746 119.004 593.187 119.117 592.554 119.117C591.921 119.117 591.358 119.004 590.865 118.779C590.375 118.553 589.991 118.217 589.711 117.771C589.435 117.324 589.298 116.775 589.298 116.122V110.519H591.045V116.122C591.045 116.503 591.105 116.814 591.226 117.054C591.346 117.295 591.519 117.472 591.744 117.585C591.973 117.697 592.243 117.753 592.554 117.753C592.872 117.753 593.142 117.697 593.364 117.585C593.589 117.472 593.76 117.295 593.876 117.054C593.996 116.814 594.057 116.503 594.057 116.122V110.519ZM601.75 115.278H599.572L599.56 114.078H601.389C601.712 114.078 601.976 114.037 602.182 113.955C602.387 113.87 602.541 113.748 602.642 113.588C602.747 113.425 602.799 113.227 602.799 112.994C602.799 112.73 602.748 112.517 602.648 112.354C602.55 112.19 602.397 112.072 602.187 111.998C601.982 111.924 601.716 111.888 601.389 111.888H600.178V119H598.43V110.519H601.389C601.883 110.519 602.323 110.565 602.712 110.658C603.104 110.752 603.436 110.893 603.708 111.084C603.98 111.274 604.187 111.515 604.331 111.806C604.475 112.093 604.547 112.435 604.547 112.831C604.547 113.181 604.467 113.503 604.308 113.798C604.152 114.093 603.906 114.334 603.568 114.521C603.234 114.707 602.797 114.81 602.257 114.829L601.75 115.278ZM601.675 119H599.094L599.776 117.637H601.675C601.982 117.637 602.232 117.588 602.426 117.491C602.62 117.39 602.764 117.254 602.857 117.084C602.95 116.913 602.997 116.717 602.997 116.495C602.997 116.247 602.954 116.031 602.869 115.849C602.787 115.666 602.655 115.526 602.473 115.429C602.29 115.328 602.049 115.278 601.75 115.278H600.067L600.079 114.078H602.176L602.578 114.55C603.094 114.542 603.51 114.633 603.824 114.823C604.143 115.01 604.374 115.253 604.517 115.552C604.665 115.851 604.739 116.171 604.739 116.513C604.739 117.056 604.62 117.515 604.383 117.887C604.147 118.256 603.799 118.534 603.341 118.72C602.886 118.907 602.331 119 601.675 119Z" fill="#F3F3F3"/>
<g filter="url(#filter10_f_415_3721)">
<path d="M580.388 151.197H577.092L577.074 149.382H579.841C580.329 149.382 580.728 149.32 581.04 149.197C581.351 149.067 581.583 148.882 581.736 148.641C581.895 148.395 581.974 148.095 581.974 147.743C581.974 147.343 581.897 147.02 581.745 146.773C581.598 146.527 581.366 146.347 581.049 146.236C580.737 146.124 580.335 146.068 579.841 146.068H578.008V156.828H575.365V143.997H579.841C580.587 143.997 581.254 144.068 581.842 144.209C582.435 144.35 582.937 144.564 583.349 144.852C583.76 145.14 584.074 145.504 584.291 145.945C584.509 146.38 584.618 146.897 584.618 147.496C584.618 148.025 584.497 148.512 584.256 148.959C584.021 149.405 583.648 149.769 583.137 150.051C582.632 150.333 581.971 150.489 581.154 150.519L580.388 151.197ZM580.273 156.828H576.369L577.4 154.766H580.273C580.737 154.766 581.116 154.693 581.41 154.546C581.704 154.393 581.921 154.187 582.062 153.929C582.203 153.67 582.273 153.374 582.273 153.039C582.273 152.663 582.209 152.337 582.08 152.061C581.956 151.785 581.756 151.573 581.48 151.426C581.204 151.273 580.84 151.197 580.388 151.197H577.841L577.858 149.382H581.031L581.639 150.096C582.42 150.084 583.049 150.222 583.525 150.51C584.007 150.792 584.356 151.159 584.573 151.611C584.797 152.064 584.908 152.548 584.908 153.065C584.908 153.888 584.729 154.581 584.371 155.145C584.012 155.703 583.487 156.123 582.793 156.405C582.106 156.687 581.266 156.828 580.273 156.828ZM596.133 152.572H598.768C598.715 153.435 598.478 154.202 598.055 154.872C597.637 155.542 597.053 156.064 596.301 156.44C595.555 156.816 594.656 157.004 593.604 157.004C592.782 157.004 592.045 156.863 591.392 156.581C590.74 156.294 590.182 155.882 589.718 155.348C589.26 154.813 588.91 154.167 588.669 153.409C588.429 152.651 588.308 151.802 588.308 150.862V149.972C588.308 149.032 588.431 148.183 588.678 147.425C588.931 146.662 589.289 146.012 589.753 145.478C590.223 144.943 590.784 144.532 591.436 144.244C592.089 143.956 592.817 143.812 593.622 143.812C594.691 143.812 595.593 144.006 596.327 144.394C597.068 144.782 597.64 145.316 598.046 145.998C598.457 146.679 598.704 147.455 598.786 148.324H596.142C596.113 147.807 596.01 147.37 595.834 147.011C595.658 146.647 595.39 146.374 595.032 146.192C594.679 146.004 594.209 145.91 593.622 145.91C593.181 145.91 592.797 145.992 592.468 146.156C592.139 146.321 591.862 146.571 591.639 146.905C591.416 147.24 591.248 147.663 591.137 148.174C591.031 148.68 590.978 149.273 590.978 149.955V150.862C590.978 151.526 591.028 152.111 591.128 152.616C591.228 153.115 591.381 153.538 591.586 153.885C591.798 154.226 592.068 154.484 592.397 154.66C592.732 154.831 593.134 154.916 593.604 154.916C594.157 154.916 594.612 154.828 594.97 154.651C595.329 154.475 595.602 154.214 595.79 153.867C595.984 153.521 596.098 153.089 596.133 152.572ZM607.332 151.197H604.036L604.019 149.382H606.786C607.273 149.382 607.673 149.32 607.984 149.197C608.296 149.067 608.528 148.882 608.68 148.641C608.839 148.395 608.918 148.095 608.918 147.743C608.918 147.343 608.842 147.02 608.689 146.773C608.542 146.527 608.31 146.347 607.993 146.236C607.682 146.124 607.279 146.068 606.786 146.068H604.953V156.828H602.309V143.997H606.786C607.532 143.997 608.199 144.068 608.786 144.209C609.38 144.35 609.882 144.564 610.293 144.852C610.704 145.14 611.019 145.504 611.236 145.945C611.453 146.38 611.562 146.897 611.562 147.496C611.562 148.025 611.442 148.512 611.201 148.959C610.966 149.405 610.593 149.769 610.082 150.051C609.576 150.333 608.915 150.489 608.099 150.519L607.332 151.197ZM607.218 156.828H603.314L604.345 154.766H607.218C607.682 154.766 608.061 154.693 608.354 154.546C608.648 154.393 608.865 154.187 609.006 153.929C609.147 153.67 609.218 153.374 609.218 153.039C609.218 152.663 609.153 152.337 609.024 152.061C608.901 151.785 608.701 151.573 608.425 151.426C608.149 151.273 607.785 151.197 607.332 151.197H604.785L604.803 149.382H607.975L608.583 150.096C609.365 150.084 609.993 150.222 610.469 150.51C610.951 150.792 611.301 151.159 611.518 151.611C611.741 152.064 611.853 152.548 611.853 153.065C611.853 153.888 611.674 154.581 611.315 155.145C610.957 155.703 610.431 156.123 609.738 156.405C609.051 156.687 608.21 156.828 607.218 156.828Z" fill="white" fill-opacity="0.5"/>
</g>
<path d="M579.169 150.369H575.873L575.855 148.554H578.622C579.11 148.554 579.509 148.492 579.821 148.369C580.132 148.239 580.364 148.054 580.517 147.813C580.676 147.567 580.755 147.267 580.755 146.915C580.755 146.515 580.678 146.192 580.526 145.945C580.379 145.698 580.147 145.519 579.83 145.408C579.518 145.296 579.116 145.24 578.622 145.24H576.789V156H574.146V143.169H578.622C579.368 143.169 580.035 143.24 580.623 143.381C581.216 143.522 581.718 143.736 582.13 144.024C582.541 144.312 582.855 144.676 583.072 145.117C583.29 145.552 583.399 146.069 583.399 146.668C583.399 147.196 583.278 147.684 583.037 148.131C582.802 148.577 582.429 148.941 581.918 149.223C581.413 149.505 580.752 149.661 579.935 149.69L579.169 150.369ZM579.054 156H575.15L576.181 153.938H579.054C579.518 153.938 579.897 153.864 580.191 153.718C580.485 153.565 580.702 153.359 580.843 153.101C580.984 152.842 581.054 152.546 581.054 152.211C581.054 151.835 580.99 151.509 580.861 151.233C580.737 150.956 580.537 150.745 580.261 150.598C579.985 150.445 579.621 150.369 579.169 150.369H576.622L576.639 148.554H579.812L580.42 149.267C581.201 149.256 581.83 149.394 582.306 149.682C582.788 149.964 583.137 150.331 583.354 150.783C583.578 151.235 583.689 151.72 583.689 152.237C583.689 153.06 583.51 153.753 583.152 154.317C582.793 154.875 582.268 155.295 581.574 155.577C580.887 155.859 580.047 156 579.054 156ZM594.914 151.744H597.549C597.496 152.607 597.259 153.374 596.836 154.044C596.418 154.713 595.834 155.236 595.082 155.612C594.336 155.988 593.437 156.176 592.385 156.176C591.563 156.176 590.826 156.035 590.173 155.753C589.521 155.465 588.963 155.054 588.499 154.52C588.041 153.985 587.691 153.339 587.45 152.581C587.21 151.823 587.089 150.974 587.089 150.034V149.144C587.089 148.204 587.212 147.355 587.459 146.597C587.712 145.834 588.07 145.184 588.534 144.65C589.004 144.115 589.565 143.704 590.217 143.416C590.87 143.128 591.598 142.984 592.403 142.984C593.472 142.984 594.374 143.178 595.108 143.566C595.849 143.954 596.421 144.488 596.827 145.17C597.238 145.851 597.485 146.627 597.567 147.496H594.923C594.894 146.979 594.791 146.541 594.615 146.183C594.439 145.819 594.171 145.546 593.813 145.364C593.46 145.176 592.99 145.082 592.403 145.082C591.962 145.082 591.578 145.164 591.249 145.328C590.92 145.493 590.643 145.742 590.42 146.077C590.197 146.412 590.03 146.835 589.918 147.346C589.812 147.852 589.759 148.445 589.759 149.126V150.034C589.759 150.698 589.809 151.282 589.909 151.788C590.009 152.287 590.162 152.71 590.367 153.057C590.579 153.397 590.849 153.656 591.178 153.832C591.513 154.003 591.915 154.088 592.385 154.088C592.938 154.088 593.393 154 593.751 153.823C594.11 153.647 594.383 153.386 594.571 153.039C594.765 152.692 594.879 152.261 594.914 151.744ZM606.113 150.369H602.817L602.8 148.554H605.567C606.054 148.554 606.454 148.492 606.765 148.369C607.077 148.239 607.309 148.054 607.461 147.813C607.62 147.567 607.699 147.267 607.699 146.915C607.699 146.515 607.623 146.192 607.47 145.945C607.323 145.698 607.091 145.519 606.774 145.408C606.463 145.296 606.06 145.24 605.567 145.24H603.734V156H601.09V143.169H605.567C606.313 143.169 606.98 143.24 607.567 143.381C608.161 143.522 608.663 143.736 609.074 144.024C609.485 144.312 609.8 144.676 610.017 145.117C610.234 145.552 610.343 146.069 610.343 146.668C610.343 147.196 610.223 147.684 609.982 148.131C609.747 148.577 609.374 148.941 608.863 149.223C608.357 149.505 607.696 149.661 606.88 149.69L606.113 150.369ZM605.999 156H602.095L603.126 153.938H605.999C606.463 153.938 606.842 153.864 607.135 153.718C607.429 153.565 607.646 153.359 607.787 153.101C607.928 152.842 607.999 152.546 607.999 152.211C607.999 151.835 607.934 151.509 607.805 151.233C607.682 150.956 607.482 150.745 607.206 150.598C606.93 150.445 606.566 150.369 606.113 150.369H603.566L603.584 148.554H606.756L607.364 149.267C608.146 149.256 608.774 149.394 609.25 149.682C609.732 149.964 610.082 150.331 610.299 150.783C610.522 151.235 610.634 151.72 610.634 152.237C610.634 153.06 610.455 153.753 610.096 154.317C609.738 154.875 609.212 155.295 608.519 155.577C607.832 155.859 606.991 156 605.999 156Z" fill="white"/>
<rect x="565.451" y="136.451" width="53.0976" height="27.0976" rx="1.35357" stroke="#F4F4F4" stroke-width="0.902381"/>
<g filter="url(#filter11_f_415_3721)">
<path d="M455.93 106.551L495.189 130.484L484.992 175.298L451.779 189.401L412.765 165.956L422.717 121.081L455.93 106.551Z" fill="url(#paint8_radial_415_3721)"/>
</g>
<g filter="url(#filter12_f_415_3721)">
<path d="M456.657 81.8738L501.331 109.109L489.729 160.105L451.933 176.155L407.537 149.475L418.861 98.4094L456.657 81.8738Z" fill="url(#paint9_radial_415_3721)"/>
<path d="M419.436 98.8822L456.607 82.6202L500.579 109.427L489.157 159.627L451.985 175.412L408.288 149.153L419.436 98.8822Z" stroke="#4205F0" stroke-width="1.32705"/>
</g>
<path d="M440.509 126.519V135H439.378L435.109 128.458V135H433.984V126.519H435.109L439.396 133.078V126.519H440.509ZM450.224 130.491V131.027C450.224 131.664 450.144 132.235 449.985 132.74C449.826 133.245 449.596 133.674 449.297 134.027C448.998 134.381 448.639 134.65 448.22 134.837C447.804 135.023 447.338 135.117 446.822 135.117C446.321 135.117 445.861 135.023 445.441 134.837C445.026 134.65 444.665 134.381 444.358 134.027C444.055 133.674 443.82 133.245 443.653 132.74C443.486 132.235 443.402 131.664 443.402 131.027V130.491C443.402 129.855 443.484 129.286 443.647 128.785C443.814 128.28 444.049 127.851 444.352 127.497C444.655 127.14 445.014 126.868 445.43 126.682C445.849 126.495 446.309 126.402 446.81 126.402C447.327 126.402 447.793 126.495 448.208 126.682C448.628 126.868 448.987 127.14 449.286 127.497C449.589 127.851 449.82 128.28 449.979 128.785C450.142 129.286 450.224 129.855 450.224 130.491ZM449.111 131.027V130.48C449.111 129.975 449.059 129.528 448.954 129.14C448.853 128.752 448.703 128.425 448.505 128.161C448.307 127.897 448.064 127.697 447.777 127.561C447.494 127.425 447.171 127.357 446.81 127.357C446.461 127.357 446.144 127.425 445.861 127.561C445.581 127.697 445.34 127.897 445.138 128.161C444.94 128.425 444.787 128.752 444.678 129.14C444.569 129.528 444.515 129.975 444.515 130.48V131.027C444.515 131.536 444.569 131.986 444.678 132.379C444.787 132.767 444.942 133.095 445.144 133.363C445.35 133.627 445.593 133.827 445.872 133.963C446.156 134.099 446.472 134.167 446.822 134.167C447.187 134.167 447.511 134.099 447.795 133.963C448.078 133.827 448.317 133.627 448.511 133.363C448.709 133.095 448.859 132.767 448.96 132.379C449.061 131.986 449.111 131.536 449.111 131.027ZM455.395 135H453.624L453.636 134.085H455.395C456.001 134.085 456.506 133.959 456.91 133.707C457.314 133.451 457.616 133.093 457.818 132.635C458.024 132.173 458.127 131.633 458.127 131.016V130.497C458.127 130.012 458.069 129.581 457.952 129.204C457.836 128.823 457.665 128.503 457.44 128.243C457.215 127.979 456.939 127.779 456.613 127.643C456.29 127.507 455.919 127.439 455.5 127.439H453.589V126.519H455.5C456.055 126.519 456.562 126.612 457.02 126.798C457.479 126.981 457.873 127.247 458.203 127.596C458.537 127.942 458.793 128.361 458.972 128.855C459.15 129.344 459.24 129.895 459.24 130.509V131.016C459.24 131.629 459.15 132.183 458.972 132.676C458.793 133.165 458.535 133.583 458.197 133.928C457.863 134.274 457.459 134.54 456.985 134.726C456.515 134.909 455.985 135 455.395 135ZM454.224 126.519V135H453.1V126.519H454.224ZM467.51 134.085V135H463.019V134.085H467.51ZM463.246 126.519V135H462.122V126.519H463.246ZM466.916 130.165V131.08H463.019V130.165H466.916ZM467.452 126.519V127.439H463.019V126.519H467.452ZM474.616 132.856C474.616 132.658 474.585 132.484 474.522 132.332C474.464 132.177 474.359 132.037 474.208 131.913C474.06 131.788 473.854 131.67 473.59 131.557C473.33 131.445 473 131.33 472.6 131.214C472.181 131.089 471.802 130.952 471.464 130.8C471.126 130.645 470.837 130.468 470.596 130.27C470.356 130.072 470.171 129.845 470.043 129.588C469.915 129.332 469.851 129.039 469.851 128.709C469.851 128.379 469.919 128.074 470.055 127.794C470.19 127.515 470.385 127.272 470.637 127.066C470.893 126.857 471.198 126.693 471.552 126.577C471.905 126.46 472.299 126.402 472.734 126.402C473.371 126.402 473.911 126.524 474.353 126.769C474.8 127.01 475.14 127.326 475.373 127.719C475.606 128.107 475.722 128.523 475.722 128.965H474.604C474.604 128.647 474.536 128.365 474.4 128.121C474.264 127.872 474.058 127.678 473.783 127.538C473.507 127.394 473.157 127.323 472.734 127.323C472.334 127.323 472.004 127.383 471.744 127.503C471.484 127.623 471.289 127.787 471.161 127.992C471.037 128.198 470.975 128.433 470.975 128.697C470.975 128.876 471.012 129.039 471.086 129.187C471.163 129.33 471.282 129.464 471.441 129.588C471.604 129.713 471.81 129.827 472.058 129.932C472.311 130.037 472.612 130.138 472.961 130.235C473.443 130.371 473.858 130.522 474.208 130.689C474.557 130.856 474.845 131.045 475.07 131.254C475.299 131.46 475.468 131.695 475.577 131.959C475.689 132.219 475.746 132.515 475.746 132.845C475.746 133.19 475.676 133.503 475.536 133.783C475.396 134.062 475.196 134.301 474.936 134.499C474.676 134.697 474.363 134.85 473.998 134.959C473.637 135.064 473.233 135.117 472.787 135.117C472.394 135.117 472.008 135.062 471.627 134.953C471.251 134.845 470.907 134.682 470.596 134.464C470.289 134.247 470.043 133.979 469.857 133.66C469.674 133.338 469.583 132.965 469.583 132.542H470.701C470.701 132.833 470.757 133.084 470.87 133.293C470.983 133.499 471.136 133.67 471.33 133.806C471.528 133.942 471.752 134.043 472 134.109C472.253 134.171 472.515 134.202 472.787 134.202C473.179 134.202 473.511 134.148 473.783 134.039C474.054 133.93 474.26 133.775 474.4 133.573C474.544 133.371 474.616 133.132 474.616 132.856Z" fill="#DDD9F3"/>
<g filter="url(#filter13_f_415_3721)">
<g filter="url(#filter14_f_415_3721)">
<path d="M59.6383 177.026C50.6931 177.026 41.7497 177.03 32.8045 177.024C30.3992 177.024 28.7099 175.804 28.1547 173.704C27.9648 172.983 27.9301 172.247 28.162 171.544C29.1464 168.578 29.9262 165.526 31.5261 162.805C35.301 156.38 40.9151 152.703 48.2824 151.657C48.8869 151.571 49.2321 151.832 49.6192 152.207C52.6582 155.145 56.1976 156.875 60.5259 156.577C64.0233 156.336 66.9326 154.778 69.3945 152.371C70.041 151.739 70.6345 151.588 71.491 151.739C80.3377 153.321 86.3407 158.283 89.4253 166.737C89.9568 168.192 90.4535 169.659 90.9211 171.136C91.8817 174.17 89.9276 176.911 86.7443 177.026C86.4704 177.035 86.1964 177.03 85.9225 177.03C77.1599 177.03 68.3973 177.03 59.6365 177.03L59.6383 177.026Z" fill="url(#paint10_radial_415_3721)"/>
<path d="M60.7104 176.366L60.7122 176.363H59.6383C57.081 176.363 54.5239 176.363 51.9669 176.363C45.5795 176.364 39.1927 176.365 32.8049 176.361H32.8045C31.714 176.361 30.8322 176.085 30.1722 175.612C29.5161 175.143 29.038 174.449 28.7963 173.535C28.6291 172.9 28.6112 172.3 28.792 171.752C28.996 171.137 29.1895 170.526 29.3813 169.92C30.1338 167.542 30.8606 165.246 32.0981 163.141L32.0982 163.141C35.7682 156.895 41.2035 153.333 48.3757 152.314C48.5544 152.289 48.6583 152.316 48.7442 152.357C48.8522 152.409 48.9711 152.503 49.158 152.684L49.6192 152.207L49.158 152.684C52.2957 155.718 56.0104 157.553 60.5715 157.239L60.5716 157.239C64.2564 156.985 67.3075 155.34 69.8583 152.846C70.1267 152.583 70.3451 152.458 70.5495 152.398C70.7565 152.338 71.0091 152.328 71.3748 152.392C79.9924 153.933 85.7998 158.736 88.802 166.964L88.8021 166.964C89.33 168.41 89.8236 169.868 90.2885 171.337L90.2885 171.337C90.7101 172.668 90.4838 173.893 89.8457 174.791C89.2073 175.69 88.1209 176.312 86.7213 176.363C86.5361 176.369 86.3563 176.368 86.1623 176.367C86.085 176.367 86.0055 176.366 85.9225 176.366H85.8711H85.8198H85.7685H85.7171H85.6658H85.6144H85.5631H85.5117H85.4604H85.4091H85.3577H85.3064H85.255H85.2037H85.1523H85.101H85.0497H84.9983H84.947H84.8956H84.8443H84.7929H84.7416H84.6903H84.6389H84.5876H84.5362H84.4849H84.4335H84.3822H84.3308H84.2795H84.2282H84.1768H84.1255H84.0741H84.0228H83.9714H83.9201H83.8688H83.8174H83.7661H83.7147H83.6634H83.612H83.5607H83.5094H83.458H83.4067H83.3553H83.304H83.2526H83.2013H83.1499H83.0986H83.0473H82.9959H82.9446H82.8932H82.8419H82.7905H82.7392H82.6879H82.6365H82.5852H82.5338H82.4825H82.4311H82.3798H82.3285H82.2771H82.2258H82.1744H82.1231H82.0717H82.0204H81.9691H81.9177H81.8664H81.815H81.7637H81.7123H81.661H81.6097H81.5583H81.507H81.4556H81.4043H81.3529H81.3016H81.2503H81.1989H81.1476H81.0962H81.0449H80.9935H80.9422H80.8909H80.8395H80.7882H80.7368H80.6855H80.6341H80.5828H80.5315H80.4801H80.4288H80.3774H80.3261H80.2747H80.2234H80.1721H80.1207H80.0694H80.018H79.9667H79.9153H79.864H79.8127H79.7613H79.71H79.6586H79.6073H79.5559H79.5046H79.4533H79.4019H79.3506H79.2992H79.2479H79.1965H79.1452H79.0939H79.0425H78.9912H78.9398H78.8885H78.8371H78.7858H78.7345H78.6831H78.6318H78.5804H78.5291H78.4777H78.4264H78.3751H78.3237H78.2724H78.221H78.1697H78.1183H78.067H78.0157H77.9643H77.913H77.8616H77.8103H77.7589H77.7076H77.6563H77.6049H77.5536H77.5022H77.4509H77.3996H77.3482H77.2969H77.2455H77.1942H77.1428H77.0915H77.0402H76.9888H76.9375H76.8861H76.8348H76.7834H76.7321H76.6808H76.6294H76.5781H76.5267H76.4754H76.4241H76.3727H76.3214H76.27H76.2187H76.1673H76.116H76.0647H76.0133H75.962H75.9106H75.8593H75.808H75.7566H75.7053H75.6539H75.6026H75.5512H75.4999H75.4486H75.3972H75.3459H75.2945H75.2432H75.1919H75.1405H75.0892H75.0378H74.9865H74.9351H74.8838H74.8325H74.7811H74.7298H74.6784H74.6271H74.5758H74.5244H74.4731H74.4217H74.3704H74.319H74.2677H74.2164H74.165H74.1137H74.0623H74.011H73.9597H73.9083H73.857H73.8056H73.7543H73.703H73.6516H73.6003H73.5489H73.4976H73.4462H73.3949H73.3436H73.2922H73.2409H73.1895H73.1382H73.0869H73.0355H72.9842H72.9328H72.8815H72.8302H72.7788H72.7275H72.6761H72.6248H72.5735H72.5221H72.4708H72.4194H72.3681H72.3168H72.2654H72.2141H72.1627H72.1114H72.0601H72.0087H71.9574H71.906H71.8547H71.8033H71.752H71.7007H71.6493H71.598H71.5466H71.4953H71.444H71.3926H71.3413H71.2899H71.2386H71.1873H71.1359H71.0846H71.0332H70.9819H70.9306H70.8792H70.8279H70.7765H70.7252H70.6739H70.6225H70.5712H70.5198H70.4685H70.4172H70.3658H70.3145H70.2631H70.2118H70.1605H70.1091H70.0578H70.0065H69.9551H69.9038H69.8524H69.8011H69.7498H69.6984H69.6471H69.5957H69.5444H69.4931H69.4417H69.3904H69.339H69.2877H69.2364H69.185H69.1337H69.0823H69.031H68.9797H68.9283H68.877H68.8257H68.7743H68.723H68.6716H68.6203H68.569H68.5176H68.4663H68.4149H68.3636H68.3123H68.2609H68.2096H68.1583H68.1069H68.0556H68.0042H67.9529H67.9016H67.8502H67.7989H67.7475H67.6962H67.6449H67.5935H67.5422H67.4909H67.4395H67.3882H67.3368H67.2855H67.2342H67.1828H67.1315H67.0802H67.0288H66.9775H66.9261H66.8748H66.8235H66.7721H66.7208H66.6694H66.6181H66.5668H66.5154H66.4641H66.4128H66.3614H66.3101H66.2587H66.2074H66.1561H66.1047H66.0534H66.0021H65.9507H65.8994H65.848H65.7967H65.7454H65.694H65.6427H65.5914H65.54H65.4887H65.4374H65.386H65.3347H65.2833H65.232H65.1807H65.1293H65.078H65.0267H64.9753H64.924H64.8727H64.8213H64.77H64.7186H64.6673H64.616H64.5646H64.5133H64.462H64.4106H64.3593H64.3079H64.2566H64.2053H64.1539H64.1026H64.0513H63.9999H63.9486H63.8973H63.8459H63.7946H63.7433H63.6919H63.6406H63.5892H63.5379H63.4866H63.4352H63.3839H63.3326H63.2812H63.2299H63.1786H63.1272H63.0759H63.0246H62.9732H62.9219H62.8706H62.8192H62.7679H62.7165H62.6652H62.6139H62.5625H62.5112H62.4599H62.4085H62.3572H62.3059H62.2545H62.2032H62.1519H62.1005H62.0492H61.9979H61.9465H61.8952H61.8439H61.7925H61.7412H61.6899H61.6385H61.5872H61.5359H61.4845H61.4332H61.3819H61.3305H61.2792H61.2278H61.1765H61.1252H61.0738H61.0225H60.9712H60.9198H60.8685H60.8172H60.7658H60.7145H60.7104Z" stroke="#4205F0" stroke-width="1.32705"/>
</g>
<g filter="url(#filter15_f_415_3721)">
<path d="M73.7993 131.679C73.5491 137.472 71.8342 143.229 67.7688 148.138C66.3115 149.896 64.56 151.315 62.3612 152.033C59.1414 153.085 56.2412 152.311 53.6442 150.256C50.5925 147.842 48.6822 144.613 47.3344 141.039C45.4825 136.13 44.8378 131.082 45.9792 125.902C47.8603 117.363 56.3654 112.527 64.3573 115.498C69.3449 117.352 72.0899 121.17 73.3044 126.215C73.6989 127.851 73.7847 129.52 73.7975 131.677L73.7993 131.679Z" fill="url(#paint11_radial_415_3721)"/>
<path d="M62.1553 151.402L62.1551 151.402C59.183 152.373 56.5107 151.678 54.0559 149.736C51.1297 147.421 49.2772 144.31 47.9552 140.805L47.9552 140.805C46.1396 135.992 45.5186 131.076 46.6272 126.045L46.6272 126.045C48.4265 117.877 56.533 113.297 64.1261 116.12L64.1262 116.12C68.8635 117.881 71.4847 121.491 72.6593 126.37L72.6593 126.37C73.0349 127.928 73.1212 129.533 73.134 131.681L73.1341 131.703C72.8807 137.364 71.2006 142.953 67.2578 147.714C65.8544 149.408 64.2012 150.735 62.1553 151.402Z" stroke="#4205F0" stroke-width="1.32705"/>
</g>
</g>
<g filter="url(#filter16_f_415_3721)">
<path d="M59.6383 167.552C50.6931 167.552 41.7497 167.555 32.8045 167.55C30.3992 167.55 28.7099 166.33 28.1547 164.23C27.9648 163.508 27.9301 162.772 28.162 162.069C29.1464 159.103 29.9262 156.051 31.5261 153.33C35.301 146.905 40.9151 143.229 48.2824 142.182C48.8869 142.097 49.2321 142.358 49.6192 142.732C52.6582 145.671 56.1976 147.4 60.5259 147.102C64.0233 146.861 66.9326 145.304 69.3945 142.896C70.041 142.265 70.6345 142.113 71.491 142.265C80.3377 143.846 86.3407 148.808 89.4253 157.262C89.9568 158.718 90.4535 160.184 90.9211 161.662C91.8817 164.695 89.9276 167.437 86.7443 167.552C86.4704 167.561 86.1964 167.555 85.9225 167.555C77.1599 167.555 68.3973 167.555 59.6365 167.555L59.6383 167.552Z" fill="url(#paint12_radial_415_3721)"/>
<path d="M60.7104 166.892L60.7122 166.888H59.6383C57.081 166.888 54.5239 166.888 51.9669 166.889C45.5795 166.889 39.1927 166.89 32.8049 166.886H32.8045C31.714 166.886 30.8322 166.61 30.1722 166.138C29.5161 165.668 29.038 164.974 28.7963 164.06C28.6291 163.425 28.6112 162.826 28.792 162.277C28.996 161.663 29.1895 161.051 29.3813 160.445C30.1338 158.068 30.8606 155.771 32.0981 153.666L32.0982 153.666C35.7682 147.42 41.2035 143.858 48.3757 142.839C48.5544 142.814 48.6583 142.841 48.7442 142.882C48.8522 142.934 48.9711 143.028 49.158 143.209L49.6192 142.732L49.158 143.209C52.2957 146.243 56.0104 148.078 60.5715 147.764L60.5716 147.764C64.2564 147.51 67.3075 145.865 69.8583 143.371C70.1267 143.109 70.3451 142.983 70.5495 142.924C70.7565 142.864 71.0091 142.853 71.3748 142.918C79.9924 144.459 85.7998 149.262 88.802 157.49L88.8021 157.49C89.33 158.936 89.8236 160.393 90.2885 161.862L90.2885 161.862C90.7101 163.193 90.4838 164.418 89.8457 165.317C89.2073 166.216 88.1209 166.838 86.7213 166.888C86.5361 166.895 86.3563 166.894 86.1623 166.893C86.085 166.892 86.0055 166.892 85.9225 166.892H85.8711H85.8198H85.7685H85.7171H85.6658H85.6144H85.5631H85.5117H85.4604H85.4091H85.3577H85.3064H85.255H85.2037H85.1523H85.101H85.0497H84.9983H84.947H84.8956H84.8443H84.7929H84.7416H84.6903H84.6389H84.5876H84.5362H84.4849H84.4335H84.3822H84.3308H84.2795H84.2282H84.1768H84.1255H84.0741H84.0228H83.9714H83.9201H83.8688H83.8174H83.7661H83.7147H83.6634H83.612H83.5607H83.5094H83.458H83.4067H83.3553H83.304H83.2526H83.2013H83.1499H83.0986H83.0473H82.9959H82.9446H82.8932H82.8419H82.7905H82.7392H82.6879H82.6365H82.5852H82.5338H82.4825H82.4311H82.3798H82.3285H82.2771H82.2258H82.1744H82.1231H82.0717H82.0204H81.9691H81.9177H81.8664H81.815H81.7637H81.7123H81.661H81.6097H81.5583H81.507H81.4556H81.4043H81.3529H81.3016H81.2503H81.1989H81.1476H81.0962H81.0449H80.9935H80.9422H80.8909H80.8395H80.7882H80.7368H80.6855H80.6341H80.5828H80.5315H80.4801H80.4288H80.3774H80.3261H80.2747H80.2234H80.1721H80.1207H80.0694H80.018H79.9667H79.9153H79.864H79.8127H79.7613H79.71H79.6586H79.6073H79.5559H79.5046H79.4533H79.4019H79.3506H79.2992H79.2479H79.1965H79.1452H79.0939H79.0425H78.9912H78.9398H78.8885H78.8371H78.7858H78.7345H78.6831H78.6318H78.5804H78.5291H78.4777H78.4264H78.3751H78.3237H78.2724H78.221H78.1697H78.1183H78.067H78.0157H77.9643H77.913H77.8616H77.8103H77.7589H77.7076H77.6563H77.6049H77.5536H77.5022H77.4509H77.3996H77.3482H77.2969H77.2455H77.1942H77.1428H77.0915H77.0402H76.9888H76.9375H76.8861H76.8348H76.7834H76.7321H76.6808H76.6294H76.5781H76.5267H76.4754H76.4241H76.3727H76.3214H76.27H76.2187H76.1673H76.116H76.0647H76.0133H75.962H75.9106H75.8593H75.808H75.7566H75.7053H75.6539H75.6026H75.5512H75.4999H75.4486H75.3972H75.3459H75.2945H75.2432H75.1919H75.1405H75.0892H75.0378H74.9865H74.9351H74.8838H74.8325H74.7811H74.7298H74.6784H74.6271H74.5758H74.5244H74.4731H74.4217H74.3704H74.319H74.2677H74.2164H74.165H74.1137H74.0623H74.011H73.9597H73.9083H73.857H73.8056H73.7543H73.703H73.6516H73.6003H73.5489H73.4976H73.4462H73.3949H73.3436H73.2922H73.2409H73.1895H73.1382H73.0869H73.0355H72.9842H72.9328H72.8815H72.8302H72.7788H72.7275H72.6761H72.6248H72.5735H72.5221H72.4708H72.4194H72.3681H72.3168H72.2654H72.2141H72.1627H72.1114H72.0601H72.0087H71.9574H71.906H71.8547H71.8033H71.752H71.7007H71.6493H71.598H71.5466H71.4953H71.444H71.3926H71.3413H71.2899H71.2386H71.1873H71.1359H71.0846H71.0332H70.9819H70.9306H70.8792H70.8279H70.7765H70.7252H70.6739H70.6225H70.5712H70.5198H70.4685H70.4172H70.3658H70.3145H70.2631H70.2118H70.1605H70.1091H70.0578H70.0065H69.9551H69.9038H69.8524H69.8011H69.7498H69.6984H69.6471H69.5957H69.5444H69.4931H69.4417H69.3904H69.339H69.2877H69.2364H69.185H69.1337H69.0823H69.031H68.9797H68.9283H68.877H68.8257H68.7743H68.723H68.6716H68.6203H68.569H68.5176H68.4663H68.4149H68.3636H68.3123H68.2609H68.2096H68.1583H68.1069H68.0556H68.0042H67.9529H67.9016H67.8502H67.7989H67.7475H67.6962H67.6449H67.5935H67.5422H67.4909H67.4395H67.3882H67.3368H67.2855H67.2342H67.1828H67.1315H67.0802H67.0288H66.9775H66.9261H66.8748H66.8235H66.7721H66.7208H66.6694H66.6181H66.5668H66.5154H66.4641H66.4128H66.3614H66.3101H66.2587H66.2074H66.1561H66.1047H66.0534H66.0021H65.9507H65.8994H65.848H65.7967H65.7454H65.694H65.6427H65.5914H65.54H65.4887H65.4374H65.386H65.3347H65.2833H65.232H65.1807H65.1293H65.078H65.0267H64.9753H64.924H64.8727H64.8213H64.77H64.7186H64.6673H64.616H64.5646H64.5133H64.462H64.4106H64.3593H64.3079H64.2566H64.2053H64.1539H64.1026H64.0513H63.9999H63.9486H63.8973H63.8459H63.7946H63.7433H63.6919H63.6406H63.5892H63.5379H63.4866H63.4352H63.3839H63.3326H63.2812H63.2299H63.1786H63.1272H63.0759H63.0246H62.9732H62.9219H62.8706H62.8192H62.7679H62.7165H62.6652H62.6139H62.5625H62.5112H62.4599H62.4085H62.3572H62.3059H62.2545H62.2032H62.1519H62.1005H62.0492H61.9979H61.9465H61.8952H61.8439H61.7925H61.7412H61.6899H61.6385H61.5872H61.5359H61.4845H61.4332H61.3819H61.3305H61.2792H61.2278H61.1765H61.1252H61.0738H61.0225H60.9712H60.9198H60.8685H60.8172H60.7658H60.7145H60.7104Z" stroke="#4205F0" stroke-width="1.32705"/>
</g>
<g filter="url(#filter17_f_415_3721)">
<path d="M73.7993 122.204C73.5491 127.997 71.8342 133.754 67.7688 138.663C66.3115 140.422 64.56 141.841 62.3612 142.558C59.1414 143.61 56.2412 142.836 53.6442 140.782C50.5925 138.367 48.6822 135.138 47.3344 131.564C45.4825 126.655 44.8378 121.607 45.9792 116.428C47.8603 107.888 56.3654 103.052 64.3573 106.023C69.3449 107.877 72.0899 111.696 73.3044 116.74C73.6989 118.376 73.7847 120.046 73.7975 122.203L73.7993 122.204Z" fill="url(#paint13_radial_415_3721)"/>
<path d="M62.1553 141.928L62.1551 141.928C59.183 142.899 56.5107 142.203 54.0559 140.261C51.1297 137.946 49.2772 134.836 47.9552 131.33L47.9552 131.33C46.1396 126.517 45.5186 121.601 46.6272 116.571L46.6272 116.571C48.4265 108.402 56.533 103.822 64.1261 106.645L64.1262 106.645C68.8635 108.406 71.4847 112.017 72.6593 116.895L72.6593 116.896C73.0349 118.454 73.1212 120.059 73.134 122.206L73.1341 122.228C72.8807 127.89 71.2006 133.479 67.2578 138.24C65.8544 139.933 64.2012 141.26 62.1553 141.928Z" stroke="#4205F0" stroke-width="1.32705"/>
</g>
<g filter="url(#filter18_f_415_3721)">
<g filter="url(#filter19_f_415_3721)">
<path d="M371.639 292.882C362.693 292.882 353.75 292.885 344.805 292.88C342.399 292.88 340.71 291.66 340.155 289.56C339.965 288.838 339.93 288.102 340.162 287.399C341.147 284.433 341.926 281.381 343.526 278.66C347.301 272.235 352.915 268.559 360.283 267.512C360.887 267.427 361.232 267.688 361.619 268.062C364.658 271.001 368.198 272.73 372.526 272.433C376.024 272.191 378.933 270.634 381.395 268.227C382.041 267.595 382.635 267.443 383.491 267.595C392.338 269.176 398.341 274.138 401.426 282.592C401.957 284.048 402.454 285.514 402.921 286.992C403.882 290.025 401.928 292.767 398.745 292.882C398.471 292.891 398.197 292.885 397.923 292.885C389.16 292.885 380.398 292.885 371.637 292.885L371.639 292.882Z" fill="url(#paint14_radial_415_3721)"/>
<path d="M372.711 292.222L372.712 292.218H371.639C369.081 292.218 366.524 292.218 363.967 292.219C357.58 292.219 351.193 292.22 344.805 292.216H344.805C343.714 292.216 342.832 291.941 342.172 291.468C341.516 290.998 341.038 290.304 340.797 289.391C340.629 288.755 340.611 288.156 340.792 287.607C340.996 286.993 341.19 286.381 341.382 285.775C342.134 283.398 342.861 281.101 344.098 278.997L344.098 278.996C347.768 272.75 353.204 269.188 360.376 268.169C360.555 268.144 360.659 268.171 360.744 268.212C360.852 268.265 360.971 268.359 361.158 268.539L361.619 268.062L361.158 268.539C364.296 271.573 368.011 273.408 372.572 273.095L372.572 273.095C376.257 272.841 379.308 271.195 381.859 268.701C382.127 268.439 382.345 268.313 382.55 268.254C382.757 268.194 383.009 268.183 383.375 268.248C391.993 269.789 397.8 274.592 400.802 282.82L400.802 282.82C401.33 284.266 401.824 285.723 402.289 287.192L402.289 287.192C402.71 288.524 402.484 289.749 401.846 290.647C401.208 291.546 400.121 292.168 398.722 292.219C398.536 292.225 398.357 292.224 398.163 292.223C398.085 292.222 398.006 292.222 397.923 292.222H397.871H397.82H397.769H397.717H397.666H397.615H397.563H397.512H397.461H397.409H397.358H397.307H397.255H397.204H397.153H397.101H397.05H396.999H396.947H396.896H396.845H396.793H396.742H396.69H396.639H396.588H396.536H396.485H396.434H396.382H396.331H396.28H396.228H396.177H396.126H396.074H396.023H395.972H395.92H395.869H395.818H395.766H395.715H395.664H395.612H395.561H395.51H395.458H395.407H395.356H395.304H395.253H395.202H395.15H395.099H395.048H394.996H394.945H394.893H394.842H394.791H394.739H394.688H394.637H394.585H394.534H394.483H394.431H394.38H394.329H394.277H394.226H394.175H394.123H394.072H394.021H393.969H393.918H393.867H393.815H393.764H393.713H393.661H393.61H393.559H393.507H393.456H393.405H393.353H393.302H393.25H393.199H393.148H393.096H393.045H392.994H392.942H392.891H392.84H392.788H392.737H392.686H392.634H392.583H392.532H392.48H392.429H392.378H392.326H392.275H392.224H392.172H392.121H392.07H392.018H391.967H391.916H391.864H391.813H391.762H391.71H391.659H391.608H391.556H391.505H391.453H391.402H391.351H391.299H391.248H391.197H391.145H391.094H391.043H390.991H390.94H390.889H390.837H390.786H390.735H390.683H390.632H390.581H390.529H390.478H390.427H390.375H390.324H390.273H390.221H390.17H390.119H390.067H390.016H389.965H389.913H389.862H389.811H389.759H389.708H389.657H389.605H389.554H389.502H389.451H389.4H389.348H389.297H389.246H389.194H389.143H389.092H389.04H388.989H388.938H388.886H388.835H388.784H388.732H388.681H388.63H388.578H388.527H388.476H388.424H388.373H388.322H388.27H388.219H388.168H388.116H388.065H388.014H387.962H387.911H387.86H387.808H387.757H387.706H387.654H387.603H387.551H387.5H387.449H387.397H387.346H387.295H387.243H387.192H387.141H387.089H387.038H386.987H386.935H386.884H386.833H386.781H386.73H386.679H386.627H386.576H386.525H386.473H386.422H386.371H386.319H386.268H386.217H386.165H386.114H386.063H386.011H385.96H385.909H385.857H385.806H385.755H385.703H385.652H385.601H385.549H385.498H385.446H385.395H385.344H385.292H385.241H385.19H385.138H385.087H385.036H384.984H384.933H384.882H384.83H384.779H384.728H384.676H384.625H384.574H384.522H384.471H384.42H384.368H384.317H384.266H384.214H384.163H384.112H384.06H384.009H383.958H383.906H383.855H383.804H383.752H383.701H383.65H383.598H383.547H383.496H383.444H383.393H383.342H383.29H383.239H383.188H383.136H383.085H383.033H382.982H382.931H382.879H382.828H382.777H382.725H382.674H382.623H382.571H382.52H382.469H382.417H382.366H382.315H382.263H382.212H382.161H382.109H382.058H382.007H381.955H381.904H381.853H381.801H381.75H381.699H381.647H381.596H381.545H381.493H381.442H381.391H381.339H381.288H381.237H381.185H381.134H381.083H381.031H380.98H380.929H380.877H380.826H380.775H380.723H380.672H380.621H380.569H380.518H380.467H380.415H380.364H380.313H380.261H380.21H380.158H380.107H380.056H380.004H379.953H379.902H379.85H379.799H379.748H379.696H379.645H379.594H379.542H379.491H379.44H379.388H379.337H379.286H379.234H379.183H379.132H379.08H379.029H378.978H378.926H378.875H378.824H378.772H378.721H378.67H378.618H378.567H378.516H378.464H378.413H378.362H378.31H378.259H378.208H378.156H378.105H378.054H378.002H377.951H377.9H377.848H377.797H377.746H377.694H377.643H377.592H377.54H377.489H377.438H377.386H377.335H377.284H377.232H377.181H377.13H377.078H377.027H376.976H376.924H376.873H376.822H376.77H376.719H376.668H376.616H376.565H376.514H376.462H376.411H376.36H376.308H376.257H376.206H376.154H376.103H376.052H376H375.949H375.898H375.846H375.795H375.743H375.692H375.641H375.589H375.538H375.487H375.435H375.384H375.333H375.281H375.23H375.179H375.127H375.076H375.025H374.973H374.922H374.871H374.819H374.768H374.717H374.665H374.614H374.563H374.511H374.46H374.409H374.357H374.306H374.255H374.203H374.152H374.101H374.049H373.998H373.947H373.895H373.844H373.793H373.741H373.69H373.639H373.587H373.536H373.485H373.433H373.382H373.331H373.279H373.228H373.177H373.125H373.074H373.023H372.971H372.92H372.869H372.817H372.766H372.715H372.711Z" stroke="#4205F0" stroke-width="1.32705"/>
</g>
<g filter="url(#filter20_f_415_3721)">
<path d="M385.8 247.534C385.55 253.327 383.835 259.084 379.77 263.993C378.312 265.752 376.561 267.171 374.362 267.889C371.142 268.941 368.242 268.166 365.645 266.112C362.593 263.697 360.683 260.468 359.335 256.894C357.483 251.985 356.839 246.937 357.98 241.758C359.861 233.218 368.366 228.382 376.358 231.353C381.346 233.207 384.091 237.026 385.305 242.07C385.7 243.707 385.785 245.376 385.798 247.533L385.8 247.534Z" fill="url(#paint15_radial_415_3721)"/>
<path d="M374.156 267.258L374.156 267.258C371.184 268.229 368.511 267.533 366.057 265.591C363.13 263.276 361.278 260.166 359.956 256.66L359.956 256.66C358.14 251.847 357.519 246.931 358.628 241.901L358.628 241.901C360.427 233.732 368.534 229.152 376.127 231.975L376.127 231.975C380.864 233.736 383.485 237.347 384.66 242.225L384.66 242.226C385.036 243.784 385.122 245.389 385.135 247.537L385.135 247.558C384.881 253.22 383.201 258.809 379.259 263.57C377.855 265.263 376.202 266.59 374.156 267.258Z" stroke="#4205F0" stroke-width="1.32705"/>
</g>
</g>
<g filter="url(#filter21_f_415_3721)">
<path d="M371.638 283.407C362.693 283.407 353.75 283.411 344.804 283.405C342.399 283.405 340.71 282.185 340.155 280.085C339.965 279.364 339.93 278.628 340.162 277.924C341.146 274.959 341.926 271.907 343.526 269.186C347.301 262.761 352.915 259.084 360.282 258.038C360.887 257.952 361.232 258.213 361.619 258.588C364.658 261.526 368.198 263.256 372.526 262.958C376.023 262.717 378.933 261.159 381.394 258.752C382.041 258.12 382.635 257.968 383.491 258.12C392.338 259.702 398.341 264.664 401.425 273.118C401.957 274.573 402.454 276.04 402.921 277.517C403.882 280.551 401.928 283.292 398.744 283.407C398.47 283.416 398.196 283.411 397.922 283.411C389.16 283.411 380.397 283.411 371.637 283.411L371.638 283.407Z" fill="url(#paint16_radial_415_3721)"/>
<path d="M372.71 282.747L372.712 282.744H371.638C369.081 282.744 366.524 282.744 363.967 282.744C357.579 282.745 351.193 282.746 344.805 282.742H344.804C343.714 282.742 342.832 282.466 342.172 281.993C341.516 281.523 341.038 280.83 340.796 279.916C340.629 279.281 340.611 278.681 340.792 278.133C340.996 277.518 341.189 276.907 341.381 276.301C342.134 273.923 342.861 271.627 344.098 269.522L344.098 269.522C347.768 263.275 353.204 259.714 360.376 258.695C360.554 258.669 360.658 258.696 360.744 258.738C360.852 258.79 360.971 258.884 361.158 259.065L361.619 258.588L361.158 259.065C364.296 262.099 368.01 263.934 372.571 263.62L372.572 263.62C376.256 263.366 379.307 261.72 381.858 259.226C382.127 258.964 382.345 258.839 382.55 258.779C382.757 258.719 383.009 258.709 383.375 258.773C391.992 260.314 397.8 265.117 400.802 273.345L400.802 273.345C401.33 274.791 401.824 276.248 402.288 277.717L402.289 277.718C402.71 279.049 402.484 280.274 401.846 281.172C401.207 282.071 400.121 282.693 398.721 282.744C398.536 282.75 398.356 282.749 398.162 282.748C398.085 282.748 398.005 282.747 397.922 282.747H397.871H397.82H397.768H397.717H397.666H397.614H397.563H397.512H397.46H397.409H397.358H397.306H397.255H397.204H397.152H397.101H397.05H396.998H396.947H396.896H396.844H396.793H396.742H396.69H396.639H396.588H396.536H396.485H396.434H396.382H396.331H396.28H396.228H396.177H396.125H396.074H396.023H395.971H395.92H395.869H395.817H395.766H395.715H395.663H395.612H395.561H395.509H395.458H395.407H395.355H395.304H395.253H395.201H395.15H395.099H395.047H394.996H394.945H394.893H394.842H394.791H394.739H394.688H394.637H394.585H394.534H394.482H394.431H394.38H394.328H394.277H394.226H394.174H394.123H394.072H394.02H393.969H393.918H393.866H393.815H393.764H393.712H393.661H393.61H393.558H393.507H393.456H393.404H393.353H393.302H393.25H393.199H393.148H393.096H393.045H392.994H392.942H392.891H392.84H392.788H392.737H392.685H392.634H392.583H392.531H392.48H392.429H392.377H392.326H392.275H392.223H392.172H392.121H392.069H392.018H391.967H391.915H391.864H391.813H391.761H391.71H391.659H391.607H391.556H391.505H391.453H391.402H391.351H391.299H391.248H391.197H391.145H391.094H391.043H390.991H390.94H390.888H390.837H390.786H390.734H390.683H390.632H390.58H390.529H390.478H390.426H390.375H390.324H390.272H390.221H390.17H390.118H390.067H390.016H389.964H389.913H389.862H389.81H389.759H389.708H389.656H389.605H389.554H389.502H389.451H389.4H389.348H389.297H389.246H389.194H389.143H389.091H389.04H388.989H388.937H388.886H388.835H388.783H388.732H388.681H388.629H388.578H388.527H388.475H388.424H388.373H388.321H388.27H388.219H388.167H388.116H388.065H388.013H387.962H387.911H387.859H387.808H387.757H387.705H387.654H387.603H387.551H387.5H387.449H387.397H387.346H387.295H387.243H387.192H387.141H387.089H387.038H386.986H386.935H386.884H386.832H386.781H386.73H386.678H386.627H386.576H386.524H386.473H386.422H386.37H386.319H386.268H386.216H386.165H386.114H386.062H386.011H385.96H385.908H385.857H385.806H385.754H385.703H385.652H385.6H385.549H385.498H385.446H385.395H385.344H385.292H385.241H385.19H385.138H385.087H385.036H384.984H384.933H384.882H384.83H384.779H384.727H384.676H384.625H384.573H384.522H384.471H384.419H384.368H384.317H384.265H384.214H384.163H384.111H384.06H384.009H383.957H383.906H383.855H383.803H383.752H383.701H383.649H383.598H383.547H383.495H383.444H383.393H383.341H383.29H383.239H383.187H383.136H383.085H383.033H382.982H382.931H382.879H382.828H382.777H382.725H382.674H382.623H382.571H382.52H382.469H382.417H382.366H382.314H382.263H382.212H382.16H382.109H382.058H382.006H381.955H381.904H381.852H381.801H381.75H381.698H381.647H381.596H381.544H381.493H381.442H381.39H381.339H381.288H381.236H381.185H381.134H381.082H381.031H380.98H380.928H380.877H380.826H380.774H380.723H380.672H380.62H380.569H380.518H380.466H380.415H380.364H380.312H380.261H380.21H380.158H380.107H380.056H380.004H379.953H379.902H379.85H379.799H379.748H379.696H379.645H379.594H379.542H379.491H379.44H379.388H379.337H379.285H379.234H379.183H379.131H379.08H379.029H378.977H378.926H378.875H378.823H378.772H378.721H378.669H378.618H378.567H378.515H378.464H378.413H378.361H378.31H378.259H378.207H378.156H378.105H378.053H378.002H377.951H377.899H377.848H377.797H377.745H377.694H377.643H377.591H377.54H377.489H377.437H377.386H377.335H377.283H377.232H377.181H377.129H377.078H377.027H376.975H376.924H376.873H376.821H376.77H376.719H376.667H376.616H376.565H376.513H376.462H376.411H376.359H376.308H376.257H376.205H376.154H376.103H376.051H376H375.949H375.897H375.846H375.795H375.743H375.692H375.641H375.589H375.538H375.487H375.435H375.384H375.333H375.281H375.23H375.179H375.127H375.076H375.025H374.973H374.922H374.871H374.819H374.768H374.717H374.665H374.614H374.563H374.511H374.46H374.409H374.357H374.306H374.255H374.203H374.152H374.101H374.049H373.998H373.947H373.895H373.844H373.793H373.741H373.69H373.639H373.587H373.536H373.485H373.433H373.382H373.331H373.279H373.228H373.177H373.125H373.074H373.023H372.971H372.92H372.869H372.817H372.766H372.715H372.71Z" stroke="#4205F0" stroke-width="1.32705"/>
</g>
<g filter="url(#filter22_f_415_3721)">
<path d="M385.8 238.06C385.55 243.853 383.835 249.609 379.769 254.518C378.312 256.277 376.561 257.696 374.362 258.414C371.142 259.466 368.242 258.692 365.645 256.637C362.593 254.223 360.683 250.994 359.335 247.42C357.483 242.511 356.838 237.463 357.98 232.283C359.861 223.743 368.366 218.907 376.358 221.879C381.345 223.732 384.09 227.551 385.305 232.596C385.699 234.232 385.785 235.901 385.798 238.058L385.8 238.06Z" fill="url(#paint17_radial_415_3721)"/>
<path d="M374.156 257.783L374.156 257.783C371.183 258.754 368.511 258.059 366.056 256.117C363.13 253.802 361.278 250.691 359.956 247.185L359.956 247.185C358.14 242.372 357.519 237.457 358.628 232.426L358.628 232.426C360.427 224.258 368.533 219.678 376.127 222.501L376.127 222.501C380.864 224.261 383.485 227.872 384.66 232.751L384.66 232.751C385.035 234.309 385.122 235.914 385.134 238.062L385.135 238.084C384.881 243.745 383.201 249.334 379.258 254.095C377.855 255.789 376.202 257.115 374.156 257.783Z" stroke="#4205F0" stroke-width="1.32705"/>
</g>
<g filter="url(#filter23_f_415_3721)">
<rect x="96.5811" y="136.707" width="46.9238" height="0.902381" fill="url(#paint18_linear_415_3721)"/>
</g>
<path d="M147.114 137.609L141.7 134.483V140.735L147.114 137.609Z" fill="#4205F0"/>
<g filter="url(#filter24_f_415_3721)">
<rect x="156" y="115" width="70" height="49" fill="url(#paint19_radial_415_3721)"/>
<rect x="156.664" y="115.664" width="68.673" height="47.6729" stroke="#4205F0" stroke-width="1.32705"/>
</g>
<path d="M170.805 140.113H171.973C171.949 140.496 171.844 140.836 171.656 141.133C171.471 141.43 171.212 141.661 170.879 141.828C170.548 141.995 170.15 142.078 169.684 142.078C169.319 142.078 168.992 142.016 168.703 141.891C168.414 141.763 168.167 141.581 167.961 141.344C167.758 141.107 167.603 140.82 167.496 140.484C167.389 140.148 167.336 139.772 167.336 139.355V138.961C167.336 138.544 167.391 138.168 167.5 137.832C167.612 137.493 167.771 137.206 167.977 136.969C168.185 136.732 168.434 136.549 168.723 136.422C169.012 136.294 169.335 136.23 169.691 136.23C170.165 136.23 170.565 136.316 170.891 136.488C171.219 136.66 171.473 136.897 171.652 137.199C171.835 137.501 171.944 137.845 171.98 138.23H170.809C170.796 138.001 170.75 137.807 170.672 137.648C170.594 137.487 170.475 137.366 170.316 137.285C170.16 137.202 169.952 137.16 169.691 137.16C169.496 137.16 169.326 137.197 169.18 137.27C169.034 137.342 168.911 137.453 168.812 137.602C168.714 137.75 168.639 137.938 168.59 138.164C168.543 138.388 168.52 138.651 168.52 138.953V139.355C168.52 139.65 168.542 139.909 168.586 140.133C168.63 140.354 168.698 140.542 168.789 140.695C168.883 140.846 169.003 140.961 169.148 141.039C169.297 141.115 169.475 141.152 169.684 141.152C169.928 141.152 170.13 141.113 170.289 141.035C170.448 140.957 170.569 140.841 170.652 140.688C170.738 140.534 170.789 140.342 170.805 140.113ZM178.214 139.023V139.293C178.214 139.725 178.155 140.113 178.038 140.457C177.921 140.801 177.756 141.094 177.542 141.336C177.329 141.576 177.073 141.759 176.777 141.887C176.482 142.014 176.155 142.078 175.796 142.078C175.439 142.078 175.113 142.014 174.816 141.887C174.521 141.759 174.266 141.576 174.05 141.336C173.834 141.094 173.666 140.801 173.546 140.457C173.429 140.113 173.37 139.725 173.37 139.293V139.023C173.37 138.589 173.429 138.201 173.546 137.859C173.663 137.516 173.829 137.223 174.042 136.98C174.258 136.738 174.514 136.553 174.808 136.426C175.105 136.298 175.432 136.234 175.788 136.234C176.148 136.234 176.474 136.298 176.769 136.426C177.066 136.553 177.321 136.738 177.534 136.98C177.751 137.223 177.917 137.516 178.034 137.859C178.154 138.201 178.214 138.589 178.214 139.023ZM177.03 139.293V139.016C177.03 138.714 177.003 138.448 176.948 138.219C176.894 137.99 176.813 137.797 176.706 137.641C176.599 137.484 176.469 137.367 176.316 137.289C176.162 137.208 175.986 137.168 175.788 137.168C175.59 137.168 175.415 137.208 175.261 137.289C175.11 137.367 174.981 137.484 174.874 137.641C174.77 137.797 174.691 137.99 174.636 138.219C174.581 138.448 174.554 138.714 174.554 139.016V139.293C174.554 139.592 174.581 139.858 174.636 140.09C174.691 140.319 174.771 140.513 174.878 140.672C174.985 140.828 175.115 140.947 175.269 141.027C175.422 141.108 175.598 141.148 175.796 141.148C175.994 141.148 176.17 141.108 176.323 141.027C176.477 140.947 176.606 140.828 176.71 140.672C176.814 140.513 176.894 140.319 176.948 140.09C177.003 139.858 177.03 139.592 177.03 139.293ZM184.487 136.312V142H183.315L181.03 138.188V142H179.858V136.312H181.03L183.319 140.129V136.312H184.487ZM188.732 136.312V142H187.564V136.312H188.732ZM190.482 136.312V137.23H185.841V136.312H190.482ZM191.95 136.312H194.071C194.506 136.312 194.88 136.378 195.192 136.508C195.507 136.638 195.749 136.831 195.919 137.086C196.088 137.341 196.173 137.655 196.173 138.027C196.173 138.332 196.121 138.594 196.016 138.812C195.915 139.029 195.77 139.21 195.583 139.355C195.398 139.499 195.18 139.613 194.93 139.699L194.559 139.895H192.716L192.708 138.98H194.079C194.285 138.98 194.455 138.944 194.591 138.871C194.726 138.798 194.828 138.697 194.895 138.566C194.966 138.436 195.001 138.285 195.001 138.113C195.001 137.931 194.967 137.773 194.899 137.641C194.832 137.508 194.729 137.406 194.591 137.336C194.453 137.266 194.279 137.23 194.071 137.23H193.122V142H191.95V136.312ZM195.13 142L193.833 139.465L195.071 139.457L196.384 141.945V142H195.13ZM200.188 137.285L198.641 142H197.395L199.508 136.312H200.301L200.188 137.285ZM201.473 142L199.922 137.285L199.797 136.312H200.598L202.723 142H201.473ZM201.402 139.883V140.801H198.398V139.883H201.402ZM207.277 140.113H208.445C208.421 140.496 208.316 140.836 208.128 141.133C207.943 141.43 207.684 141.661 207.351 141.828C207.02 141.995 206.622 142.078 206.155 142.078C205.791 142.078 205.464 142.016 205.175 141.891C204.886 141.763 204.639 141.581 204.433 141.344C204.23 141.107 204.075 140.82 203.968 140.484C203.861 140.148 203.808 139.772 203.808 139.355V138.961C203.808 138.544 203.862 138.168 203.972 137.832C204.084 137.493 204.243 137.206 204.448 136.969C204.657 136.732 204.905 136.549 205.195 136.422C205.484 136.294 205.807 136.23 206.163 136.23C206.637 136.23 207.037 136.316 207.362 136.488C207.691 136.66 207.945 136.897 208.124 137.199C208.307 137.501 208.416 137.845 208.452 138.23H207.28C207.267 138.001 207.222 137.807 207.144 137.648C207.066 137.487 206.947 137.366 206.788 137.285C206.632 137.202 206.424 137.16 206.163 137.16C205.968 137.16 205.797 137.197 205.652 137.27C205.506 137.342 205.383 137.453 205.284 137.602C205.185 137.75 205.111 137.938 205.062 138.164C205.015 138.388 204.991 138.651 204.991 138.953V139.355C204.991 139.65 205.014 139.909 205.058 140.133C205.102 140.354 205.17 140.542 205.261 140.695C205.355 140.846 205.474 140.961 205.62 141.039C205.769 141.115 205.947 141.152 206.155 141.152C206.4 141.152 206.602 141.113 206.761 141.035C206.92 140.957 207.041 140.841 207.124 140.688C207.21 140.534 207.261 140.342 207.277 140.113ZM212.44 136.312V142H211.272V136.312H212.44ZM214.19 136.312V137.23H209.549V136.312H214.19Z" fill="#F3F3F3"/>
<g filter="url(#filter25_f_415_3721)">
<rect x="133" y="3" width="116" height="49" fill="url(#paint20_radial_415_3721)"/>
<rect x="133.664" y="3.66353" width="114.673" height="47.6729" stroke="#4205F0" stroke-width="1.32705"/>
</g>
<path d="M171.051 24.3125V30H169.883V24.3125H171.051ZM172.801 24.3125V25.2305H168.16V24.3125H172.801ZM174.269 24.3125H176.39C176.825 24.3125 177.198 24.3776 177.511 24.5078C177.826 24.638 178.068 24.8307 178.238 25.0859C178.407 25.3411 178.491 25.6549 178.491 26.0273C178.491 26.332 178.439 26.5938 178.335 26.8125C178.234 27.0286 178.089 27.2096 177.902 27.3555C177.717 27.4987 177.499 27.6133 177.249 27.6992L176.878 27.8945H175.034L175.027 26.9805H176.398C176.603 26.9805 176.774 26.944 176.909 26.8711C177.045 26.7982 177.146 26.6966 177.214 26.5664C177.284 26.4362 177.32 26.2852 177.32 26.1133C177.32 25.931 177.286 25.7734 177.218 25.6406C177.15 25.5078 177.047 25.4062 176.909 25.3359C176.771 25.2656 176.598 25.2305 176.39 25.2305H175.441V30H174.269V24.3125ZM177.448 30L176.152 27.4648L177.39 27.457L178.702 29.9453V30H177.448ZM184.01 29.0859V30H180.983V29.0859H184.01ZM181.366 24.3125V30H180.194V24.3125H181.366ZM183.616 26.6289V27.5195H180.983V26.6289H183.616ZM184.006 24.3125V25.2305H180.983V24.3125H184.006ZM187.806 25.2852L186.259 30H185.013L187.127 24.3125H187.92L187.806 25.2852ZM189.091 30L187.541 25.2852L187.416 24.3125H188.216L190.341 30H189.091ZM189.021 27.8828V28.8008H186.017V27.8828H189.021ZM194.63 28.5117C194.63 28.4102 194.614 28.319 194.583 28.2383C194.554 28.1549 194.499 28.0794 194.419 28.0117C194.338 27.9414 194.225 27.8724 194.079 27.8047C193.933 27.737 193.744 27.6667 193.513 27.5938C193.255 27.5104 193.01 27.4167 192.778 27.3125C192.549 27.2083 192.346 27.0872 192.169 26.9492C191.994 26.8086 191.856 26.6458 191.755 26.4609C191.656 26.276 191.606 26.0612 191.606 25.8164C191.606 25.5794 191.658 25.3646 191.763 25.1719C191.867 24.9766 192.013 24.8099 192.2 24.6719C192.388 24.5312 192.609 24.4232 192.864 24.3477C193.122 24.2721 193.404 24.2344 193.712 24.2344C194.131 24.2344 194.497 24.3099 194.809 24.4609C195.122 24.612 195.364 24.819 195.536 25.082C195.71 25.3451 195.798 25.6458 195.798 25.9844H194.634C194.634 25.8177 194.598 25.6719 194.528 25.5469C194.46 25.4193 194.356 25.319 194.216 25.2461C194.078 25.1732 193.903 25.1367 193.692 25.1367C193.489 25.1367 193.32 25.168 193.184 25.2305C193.049 25.2904 192.947 25.3724 192.88 25.4766C192.812 25.5781 192.778 25.6927 192.778 25.8203C192.778 25.9167 192.802 26.0039 192.848 26.082C192.898 26.1602 192.971 26.2331 193.067 26.3008C193.164 26.3685 193.282 26.4323 193.423 26.4922C193.563 26.5521 193.726 26.6107 193.911 26.668C194.221 26.7617 194.493 26.8672 194.727 26.9844C194.964 27.1016 195.162 27.2331 195.321 27.3789C195.48 27.5247 195.6 27.6901 195.68 27.875C195.761 28.0599 195.802 28.2695 195.802 28.5039C195.802 28.7513 195.753 28.9727 195.657 29.168C195.561 29.3633 195.421 29.5286 195.239 29.6641C195.057 29.7995 194.839 29.9023 194.587 29.9727C194.334 30.043 194.052 30.0781 193.739 30.0781C193.458 30.0781 193.18 30.0417 192.907 29.9688C192.634 29.8932 192.385 29.7799 192.161 29.6289C191.94 29.4779 191.763 29.2852 191.63 29.0508C191.497 28.8164 191.43 28.5391 191.43 28.2188H192.606C192.606 28.3958 192.634 28.5456 192.688 28.668C192.743 28.7904 192.82 28.8893 192.919 28.9648C193.02 29.0404 193.14 29.0951 193.278 29.1289C193.419 29.1628 193.572 29.1797 193.739 29.1797C193.942 29.1797 194.109 29.151 194.239 29.0938C194.372 29.0365 194.47 28.957 194.532 28.8555C194.597 28.7539 194.63 28.6393 194.63 28.5117ZM200.539 24.3125H201.707V28.0703C201.707 28.5078 201.613 28.8763 201.426 29.1758C201.241 29.4753 200.984 29.7005 200.656 29.8516C200.331 30.0026 199.956 30.0781 199.531 30.0781C199.107 30.0781 198.729 30.0026 198.398 29.8516C198.07 29.7005 197.812 29.4753 197.625 29.1758C197.44 28.8763 197.348 28.5078 197.348 28.0703V24.3125H198.52V28.0703C198.52 28.3255 198.56 28.5339 198.641 28.6953C198.721 28.8568 198.837 28.9753 198.988 29.0508C199.142 29.1263 199.323 29.1641 199.531 29.1641C199.745 29.1641 199.926 29.1263 200.074 29.0508C200.225 28.9753 200.34 28.8568 200.418 28.6953C200.499 28.5339 200.539 28.3255 200.539 28.0703V24.3125ZM203.472 24.3125H205.593C206.028 24.3125 206.402 24.3776 206.714 24.5078C207.029 24.638 207.271 24.8307 207.441 25.0859C207.61 25.3411 207.695 25.6549 207.695 26.0273C207.695 26.332 207.642 26.5938 207.538 26.8125C207.437 27.0286 207.292 27.2096 207.105 27.3555C206.92 27.4987 206.702 27.6133 206.452 27.6992L206.081 27.8945H204.237L204.23 26.9805H205.601C205.807 26.9805 205.977 26.944 206.112 26.8711C206.248 26.7982 206.349 26.6966 206.417 26.5664C206.487 26.4362 206.523 26.2852 206.523 26.1133C206.523 25.931 206.489 25.7734 206.421 25.6406C206.353 25.5078 206.251 25.4062 206.112 25.3359C205.974 25.2656 205.801 25.2305 205.593 25.2305H204.644V30H203.472V24.3125ZM206.652 30L205.355 27.4648L206.593 27.457L207.905 29.9453V30H206.652ZM209.991 24.3125L211.178 26.9062L212.366 24.3125H213.643L211.772 27.9297V30H210.584V27.9297L208.709 24.3125H209.991Z" fill="#F3F3F3"/>
<g filter="url(#filter26_f_415_3721)">
<rect x="451" y="231" width="70" height="49" fill="url(#paint21_radial_415_3721)"/>
<rect x="451.664" y="231.664" width="68.673" height="47.6729" stroke="#4205F0" stroke-width="1.32705"/>
</g>
<path d="M465.805 256.113H466.973C466.949 256.496 466.844 256.836 466.656 257.133C466.471 257.43 466.212 257.661 465.879 257.828C465.548 257.995 465.15 258.078 464.684 258.078C464.319 258.078 463.992 258.016 463.703 257.891C463.414 257.763 463.167 257.581 462.961 257.344C462.758 257.107 462.603 256.82 462.496 256.484C462.389 256.148 462.336 255.772 462.336 255.355V254.961C462.336 254.544 462.391 254.168 462.5 253.832C462.612 253.493 462.771 253.206 462.977 252.969C463.185 252.732 463.434 252.549 463.723 252.422C464.012 252.294 464.335 252.23 464.691 252.23C465.165 252.23 465.565 252.316 465.891 252.488C466.219 252.66 466.473 252.897 466.652 253.199C466.835 253.501 466.944 253.845 466.98 254.23H465.809C465.796 254.001 465.75 253.807 465.672 253.648C465.594 253.487 465.475 253.366 465.316 253.285C465.16 253.202 464.952 253.16 464.691 253.16C464.496 253.16 464.326 253.197 464.18 253.27C464.034 253.342 463.911 253.453 463.812 253.602C463.714 253.75 463.639 253.938 463.59 254.164C463.543 254.388 463.52 254.651 463.52 254.953V255.355C463.52 255.65 463.542 255.909 463.586 256.133C463.63 256.354 463.698 256.542 463.789 256.695C463.883 256.846 464.003 256.961 464.148 257.039C464.297 257.115 464.475 257.152 464.684 257.152C464.928 257.152 465.13 257.113 465.289 257.035C465.448 256.957 465.569 256.841 465.652 256.688C465.738 256.534 465.789 256.342 465.805 256.113ZM473.214 255.023V255.293C473.214 255.725 473.155 256.113 473.038 256.457C472.921 256.801 472.756 257.094 472.542 257.336C472.329 257.576 472.073 257.759 471.777 257.887C471.482 258.014 471.155 258.078 470.796 258.078C470.439 258.078 470.113 258.014 469.816 257.887C469.521 257.759 469.266 257.576 469.05 257.336C468.834 257.094 468.666 256.801 468.546 256.457C468.429 256.113 468.37 255.725 468.37 255.293V255.023C468.37 254.589 468.429 254.201 468.546 253.859C468.663 253.516 468.829 253.223 469.042 252.98C469.258 252.738 469.514 252.553 469.808 252.426C470.105 252.298 470.432 252.234 470.788 252.234C471.148 252.234 471.474 252.298 471.769 252.426C472.066 252.553 472.321 252.738 472.534 252.98C472.751 253.223 472.917 253.516 473.034 253.859C473.154 254.201 473.214 254.589 473.214 255.023ZM472.03 255.293V255.016C472.03 254.714 472.003 254.448 471.948 254.219C471.894 253.99 471.813 253.797 471.706 253.641C471.599 253.484 471.469 253.367 471.316 253.289C471.162 253.208 470.986 253.168 470.788 253.168C470.59 253.168 470.415 253.208 470.261 253.289C470.11 253.367 469.981 253.484 469.874 253.641C469.77 253.797 469.691 253.99 469.636 254.219C469.581 254.448 469.554 254.714 469.554 255.016V255.293C469.554 255.592 469.581 255.858 469.636 256.09C469.691 256.319 469.771 256.513 469.878 256.672C469.985 256.828 470.115 256.947 470.269 257.027C470.422 257.108 470.598 257.148 470.796 257.148C470.994 257.148 471.17 257.108 471.323 257.027C471.477 256.947 471.606 256.828 471.71 256.672C471.814 256.513 471.894 256.319 471.948 256.09C472.003 255.858 472.03 255.592 472.03 255.293ZM479.487 252.312V258H478.315L476.03 254.188V258H474.858V252.312H476.03L478.319 256.129V252.312H479.487ZM483.732 252.312V258H482.564V252.312H483.732ZM485.482 252.312V253.23H480.841V252.312H485.482ZM486.95 252.312H489.071C489.506 252.312 489.88 252.378 490.192 252.508C490.507 252.638 490.749 252.831 490.919 253.086C491.088 253.341 491.173 253.655 491.173 254.027C491.173 254.332 491.121 254.594 491.016 254.812C490.915 255.029 490.77 255.21 490.583 255.355C490.398 255.499 490.18 255.613 489.93 255.699L489.559 255.895H487.716L487.708 254.98H489.079C489.285 254.98 489.455 254.944 489.591 254.871C489.726 254.798 489.828 254.697 489.895 254.566C489.966 254.436 490.001 254.285 490.001 254.113C490.001 253.931 489.967 253.773 489.899 253.641C489.832 253.508 489.729 253.406 489.591 253.336C489.453 253.266 489.279 253.23 489.071 253.23H488.122V258H486.95V252.312ZM490.13 258L488.833 255.465L490.071 255.457L491.384 257.945V258H490.13ZM495.188 253.285L493.641 258H492.395L494.508 252.312H495.301L495.188 253.285ZM496.473 258L494.922 253.285L494.797 252.312H495.598L497.723 258H496.473ZM496.402 255.883V256.801H493.398V255.883H496.402ZM502.277 256.113H503.445C503.421 256.496 503.316 256.836 503.128 257.133C502.943 257.43 502.684 257.661 502.351 257.828C502.02 257.995 501.622 258.078 501.155 258.078C500.791 258.078 500.464 258.016 500.175 257.891C499.886 257.763 499.639 257.581 499.433 257.344C499.23 257.107 499.075 256.82 498.968 256.484C498.861 256.148 498.808 255.772 498.808 255.355V254.961C498.808 254.544 498.862 254.168 498.972 253.832C499.084 253.493 499.243 253.206 499.448 252.969C499.657 252.732 499.905 252.549 500.195 252.422C500.484 252.294 500.807 252.23 501.163 252.23C501.637 252.23 502.037 252.316 502.362 252.488C502.691 252.66 502.945 252.897 503.124 253.199C503.307 253.501 503.416 253.845 503.452 254.23H502.28C502.267 254.001 502.222 253.807 502.144 253.648C502.066 253.487 501.947 253.366 501.788 253.285C501.632 253.202 501.424 253.16 501.163 253.16C500.968 253.16 500.797 253.197 500.652 253.27C500.506 253.342 500.383 253.453 500.284 253.602C500.185 253.75 500.111 253.938 500.062 254.164C500.015 254.388 499.991 254.651 499.991 254.953V255.355C499.991 255.65 500.014 255.909 500.058 256.133C500.102 256.354 500.17 256.542 500.261 256.695C500.355 256.846 500.474 256.961 500.62 257.039C500.769 257.115 500.947 257.152 501.155 257.152C501.4 257.152 501.602 257.113 501.761 257.035C501.92 256.957 502.041 256.841 502.124 256.688C502.21 256.534 502.261 256.342 502.277 256.113ZM507.44 252.312V258H506.272V252.312H507.44ZM509.19 252.312V253.23H504.549V252.312H509.19Z" fill="#F3F3F3"/>
<g filter="url(#filter27_f_415_3721)">
<rect width="46.9238" height="0.902381" transform="matrix(0 1 1 0 60.0078 28.3906)" fill="url(#paint22_linear_415_3721)"/>
</g>
<g filter="url(#filter28_f_415_3721)">
<path d="M261 29H316V28H261V29Z" fill="url(#paint23_linear_415_3721)"/>
</g>
<g filter="url(#filter29_f_415_3721)">
<path d="M61 29H133V28H61V29Z" fill="url(#paint24_linear_415_3721)"/>
</g>
<g filter="url(#filter30_f_415_3721)">
<rect width="52" height="1" transform="matrix(0 1 1 0 315 27)" fill="url(#paint25_linear_415_3721)"/>
</g>
<path d="M253.896 28.6092L259.31 25.4833V31.7352L253.896 28.6092Z" fill="#4205F0"/>
<path d="M60.6097 78.9238L57.4838 73.5095H63.7357L60.6097 78.9238Z" fill="#4205F0"/>
<g filter="url(#filter31_f_415_3721)">
<path d="M539 254.922H594V255.922H539V254.922Z" fill="url(#paint26_linear_415_3721)"/>
</g>
<g filter="url(#filter32_f_415_3721)">
<rect x="593" y="257" width="76" height="1" transform="rotate(-90 593 257)" fill="url(#paint27_linear_415_3721)"/>
</g>
<path d="M531.896 255.313L537.31 258.439V252.187L531.896 255.313Z" fill="#4205F0"/>
<g filter="url(#filter33_f_415_3721)">
<rect x="235" y="136.707" width="26.5049" height="0.902381" fill="url(#paint28_linear_415_3721)"/>
</g>
<path d="M265.114 137.609L259.7 134.483V140.735L265.114 137.609Z" fill="#4205F0"/>
<g filter="url(#filter34_f_415_3721)">
<rect x="370" y="136.707" width="26.5049" height="0.902381" fill="url(#paint29_linear_415_3721)"/>
</g>
<path d="M400.115 137.609L394.7 134.483V140.735L400.115 137.609Z" fill="#4205F0"/>
<g filter="url(#filter35_f_415_3721)">
<rect width="26.5049" height="0.902381" transform="matrix(-1 0 0 1 441.115 254.707)" fill="url(#paint30_linear_415_3721)"/>
</g>
<path d="M411 255.609L416.414 252.483V258.735L411 255.609Z" fill="#4205F0"/>
<g filter="url(#filter36_f_415_3721)">
<rect x="508" y="136.707" width="26.5049" height="0.902381" fill="url(#paint31_linear_415_3721)"/>
</g>
<path d="M538.115 137.609L532.7 134.483V140.735L538.115 137.609Z" fill="#4205F0"/>
</g>
<defs>
<filter id="filter0_d_415_3721" x="24" y="3" width="618.262" height="297.887" filterUnits="userSpaceOnUse" color-interpolation-filters="sRGB">
<feFlood flood-opacity="0" result="BackgroundImageFix"/>
<feColorMatrix in="SourceAlpha" type="matrix" values="0 0 0 0 0 0 0 0 0 0 0 0 0 0 0 0 0 0 127 0" result="hardAlpha"/>
<feOffset dy="4"/>
<feGaussianBlur stdDeviation="2"/>
<feComposite in2="hardAlpha" operator="out"/>
<feColorMatrix type="matrix" values="0 0 0 0 0 0 0 0 0 0 0 0 0 0 0 0 0 0 0.25 0"/>
<feBlend mode="normal" in2="BackgroundImageFix" result="effect1_dropShadow_415_3721"/>
<feBlend mode="normal" in="SourceGraphic" in2="effect1_dropShadow_415_3721" result="shape"/>
</filter>
<filter id="filter1_f_415_3721" x="267.346" y="94.0139" width="97.5702" height="88.6422" filterUnits="userSpaceOnUse" color-interpolation-filters="sRGB">
<feFlood flood-opacity="0" result="BackgroundImageFix"/>
<feBlend mode="normal" in="SourceGraphic" in2="BackgroundImageFix" result="shape"/>
<feGaussianBlur stdDeviation="1.32705" result="effect1_foregroundBlur_415_3721"/>
</filter>
<filter id="filter2_f_415_3721" x="284.608" y="77.3459" width="63.6415" height="74.3551" filterUnits="userSpaceOnUse" color-interpolation-filters="sRGB">
<feFlood flood-opacity="0" result="BackgroundImageFix"/>
<feBlend mode="normal" in="SourceGraphic" in2="BackgroundImageFix" result="shape"/>
<feGaussianBlur stdDeviation="1.32705" result="effect1_foregroundBlur_415_3721"/>
</filter>
<filter id="filter3_f_415_3721" x="267.346" y="146.393" width="97.5702" height="36.2613" filterUnits="userSpaceOnUse" color-interpolation-filters="sRGB">
<feFlood flood-opacity="0" result="BackgroundImageFix"/>
<feBlend mode="normal" in="SourceGraphic" in2="BackgroundImageFix" result="shape"/>
<feGaussianBlur stdDeviation="1.32705" result="effect1_foregroundBlur_415_3721"/>
</filter>
<filter id="filter4_f_415_3721" x="267.346" y="77.3459" width="97.5702" height="21.9742" filterUnits="userSpaceOnUse" color-interpolation-filters="sRGB">
<feFlood flood-opacity="0" result="BackgroundImageFix"/>
<feBlend mode="normal" in="SourceGraphic" in2="BackgroundImageFix" result="shape"/>
<feGaussianBlur stdDeviation="1.32705" result="effect1_foregroundBlur_415_3721"/>
</filter>
<filter id="filter5_f_415_3721" x="297.099" y="140.211" width="43.8836" height="20.4026" filterUnits="userSpaceOnUse" color-interpolation-filters="sRGB">
<feFlood flood-opacity="0" result="BackgroundImageFix"/>
<feBlend mode="normal" in="SourceGraphic" in2="BackgroundImageFix" result="shape"/>
<feGaussianBlur stdDeviation="1.80476" result="effect1_foregroundBlur_415_3721"/>
</filter>
<filter id="filter6_f_415_3721" x="543.346" y="94.0139" width="97.5702" height="88.6422" filterUnits="userSpaceOnUse" color-interpolation-filters="sRGB">
<feFlood flood-opacity="0" result="BackgroundImageFix"/>
<feBlend mode="normal" in="SourceGraphic" in2="BackgroundImageFix" result="shape"/>
<feGaussianBlur stdDeviation="1.32705" result="effect1_foregroundBlur_415_3721"/>
</filter>
<filter id="filter7_f_415_3721" x="560.608" y="77.3459" width="63.6415" height="74.3551" filterUnits="userSpaceOnUse" color-interpolation-filters="sRGB">
<feFlood flood-opacity="0" result="BackgroundImageFix"/>
<feBlend mode="normal" in="SourceGraphic" in2="BackgroundImageFix" result="shape"/>
<feGaussianBlur stdDeviation="1.32705" result="effect1_foregroundBlur_415_3721"/>
</filter>
<filter id="filter8_f_415_3721" x="543.346" y="146.393" width="97.5702" height="36.2613" filterUnits="userSpaceOnUse" color-interpolation-filters="sRGB">
<feFlood flood-opacity="0" result="BackgroundImageFix"/>
<feBlend mode="normal" in="SourceGraphic" in2="BackgroundImageFix" result="shape"/>
<feGaussianBlur stdDeviation="1.32705" result="effect1_foregroundBlur_415_3721"/>
</filter>
<filter id="filter9_f_415_3721" x="543.346" y="77.3459" width="97.5702" height="21.9742" filterUnits="userSpaceOnUse" color-interpolation-filters="sRGB">
<feFlood flood-opacity="0" result="BackgroundImageFix"/>
<feBlend mode="normal" in="SourceGraphic" in2="BackgroundImageFix" result="shape"/>
<feGaussianBlur stdDeviation="1.32705" result="effect1_foregroundBlur_415_3721"/>
</filter>
<filter id="filter10_f_415_3721" x="571.755" y="140.203" width="43.7073" height="20.4105" filterUnits="userSpaceOnUse" color-interpolation-filters="sRGB">
<feFlood flood-opacity="0" result="BackgroundImageFix"/>
<feBlend mode="normal" in="SourceGraphic" in2="BackgroundImageFix" result="shape"/>
<feGaussianBlur stdDeviation="1.80476" result="effect1_foregroundBlur_415_3721"/>
</filter>
<filter id="filter11_f_415_3721" x="385.694" y="79.4794" width="136.566" height="136.992" filterUnits="userSpaceOnUse" color-interpolation-filters="sRGB">
<feFlood flood-opacity="0" result="BackgroundImageFix"/>
<feBlend mode="normal" in="SourceGraphic" in2="BackgroundImageFix" result="shape"/>
<feGaussianBlur stdDeviation="13.5357" result="effect1_foregroundBlur_415_3721"/>
</filter>
<filter id="filter12_f_415_3721" x="404.883" y="79.2189" width="99.1029" height="99.5895" filterUnits="userSpaceOnUse" color-interpolation-filters="sRGB">
<feFlood flood-opacity="0" result="BackgroundImageFix"/>
<feBlend mode="normal" in="SourceGraphic" in2="BackgroundImageFix" result="shape"/>
<feGaussianBlur stdDeviation="1.32705" result="effect1_foregroundBlur_415_3721"/>
</filter>
<filter id="filter13_f_415_3721" x="0.928572" y="87.5477" width="117.309" height="116.555" filterUnits="userSpaceOnUse" color-interpolation-filters="sRGB">
<feFlood flood-opacity="0" result="BackgroundImageFix"/>
<feBlend mode="normal" in="SourceGraphic" in2="BackgroundImageFix" result="shape"/>
<feGaussianBlur stdDeviation="13.5357" result="effect1_foregroundBlur_415_3721"/>
</filter>
<filter id="filter14_f_415_3721" x="25.3459" y="148.987" width="68.4747" height="30.6988" filterUnits="userSpaceOnUse" color-interpolation-filters="sRGB">
<feFlood flood-opacity="0" result="BackgroundImageFix"/>
<feBlend mode="normal" in="SourceGraphic" in2="BackgroundImageFix" result="shape"/>
<feGaussianBlur stdDeviation="1.32705" result="effect1_foregroundBlur_415_3721"/>
</filter>
<filter id="filter15_f_415_3721" x="42.7575" y="111.965" width="33.6959" height="43.191" filterUnits="userSpaceOnUse" color-interpolation-filters="sRGB">
<feFlood flood-opacity="0" result="BackgroundImageFix"/>
<feBlend mode="normal" in="SourceGraphic" in2="BackgroundImageFix" result="shape"/>
<feGaussianBlur stdDeviation="1.32705" result="effect1_foregroundBlur_415_3721"/>
</filter>
<filter id="filter16_f_415_3721" x="25.3459" y="139.512" width="68.4747" height="30.6988" filterUnits="userSpaceOnUse" color-interpolation-filters="sRGB">
<feFlood flood-opacity="0" result="BackgroundImageFix"/>
<feBlend mode="normal" in="SourceGraphic" in2="BackgroundImageFix" result="shape"/>
<feGaussianBlur stdDeviation="1.32705" result="effect1_foregroundBlur_415_3721"/>
</filter>
<filter id="filter17_f_415_3721" x="42.7575" y="102.49" width="33.6959" height="43.191" filterUnits="userSpaceOnUse" color-interpolation-filters="sRGB">
<feFlood flood-opacity="0" result="BackgroundImageFix"/>
<feBlend mode="normal" in="SourceGraphic" in2="BackgroundImageFix" result="shape"/>
<feGaussianBlur stdDeviation="1.32705" result="effect1_foregroundBlur_415_3721"/>
</filter>
<filter id="filter18_f_415_3721" x="312.929" y="203.403" width="117.31" height="116.555" filterUnits="userSpaceOnUse" color-interpolation-filters="sRGB">
<feFlood flood-opacity="0" result="BackgroundImageFix"/>
<feBlend mode="normal" in="SourceGraphic" in2="BackgroundImageFix" result="shape"/>
<feGaussianBlur stdDeviation="13.5357" result="effect1_foregroundBlur_415_3721"/>
</filter>
<filter id="filter19_f_415_3721" x="337.346" y="264.842" width="68.475" height="30.6988" filterUnits="userSpaceOnUse" color-interpolation-filters="sRGB">
<feFlood flood-opacity="0" result="BackgroundImageFix"/>
<feBlend mode="normal" in="SourceGraphic" in2="BackgroundImageFix" result="shape"/>
<feGaussianBlur stdDeviation="1.32705" result="effect1_foregroundBlur_415_3721"/>
</filter>
<filter id="filter20_f_415_3721" x="354.758" y="227.821" width="33.6959" height="43.191" filterUnits="userSpaceOnUse" color-interpolation-filters="sRGB">
<feFlood flood-opacity="0" result="BackgroundImageFix"/>
<feBlend mode="normal" in="SourceGraphic" in2="BackgroundImageFix" result="shape"/>
<feGaussianBlur stdDeviation="1.32705" result="effect1_foregroundBlur_415_3721"/>
</filter>
<filter id="filter21_f_415_3721" x="337.346" y="255.367" width="68.475" height="30.6988" filterUnits="userSpaceOnUse" color-interpolation-filters="sRGB">
<feFlood flood-opacity="0" result="BackgroundImageFix"/>
<feBlend mode="normal" in="SourceGraphic" in2="BackgroundImageFix" result="shape"/>
<feGaussianBlur stdDeviation="1.32705" result="effect1_foregroundBlur_415_3721"/>
</filter>
<filter id="filter22_f_415_3721" x="354.758" y="218.346" width="33.6959" height="43.191" filterUnits="userSpaceOnUse" color-interpolation-filters="sRGB">
<feFlood flood-opacity="0" result="BackgroundImageFix"/>
<feBlend mode="normal" in="SourceGraphic" in2="BackgroundImageFix" result="shape"/>
<feGaussianBlur stdDeviation="1.32705" result="effect1_foregroundBlur_415_3721"/>
</filter>
<filter id="filter23_f_415_3721" x="93.927" y="134.053" width="52.232" height="6.21055" filterUnits="userSpaceOnUse" color-interpolation-filters="sRGB">
<feFlood flood-opacity="0" result="BackgroundImageFix"/>
<feBlend mode="normal" in="SourceGraphic" in2="BackgroundImageFix" result="shape"/>
<feGaussianBlur stdDeviation="1.32705" result="effect1_foregroundBlur_415_3721"/>
</filter>
<filter id="filter24_f_415_3721" x="153.346" y="112.346" width="75.3082" height="54.3082" filterUnits="userSpaceOnUse" color-interpolation-filters="sRGB">
<feFlood flood-opacity="0" result="BackgroundImageFix"/>
<feBlend mode="normal" in="SourceGraphic" in2="BackgroundImageFix" result="shape"/>
<feGaussianBlur stdDeviation="1.32705" result="effect1_foregroundBlur_415_3721"/>
</filter>
<filter id="filter25_f_415_3721" x="130.346" y="0.345896" width="121.308" height="54.3082" filterUnits="userSpaceOnUse" color-interpolation-filters="sRGB">
<feFlood flood-opacity="0" result="BackgroundImageFix"/>
<feBlend mode="normal" in="SourceGraphic" in2="BackgroundImageFix" result="shape"/>
<feGaussianBlur stdDeviation="1.32705" result="effect1_foregroundBlur_415_3721"/>
</filter>
<filter id="filter26_f_415_3721" x="448.346" y="228.346" width="75.3082" height="54.3082" filterUnits="userSpaceOnUse" color-interpolation-filters="sRGB">
<feFlood flood-opacity="0" result="BackgroundImageFix"/>
<feBlend mode="normal" in="SourceGraphic" in2="BackgroundImageFix" result="shape"/>
<feGaussianBlur stdDeviation="1.32705" result="effect1_foregroundBlur_415_3721"/>
</filter>
<filter id="filter27_f_415_3721" x="57.3537" y="25.7365" width="6.21055" height="52.232" filterUnits="userSpaceOnUse" color-interpolation-filters="sRGB">
<feFlood flood-opacity="0" result="BackgroundImageFix"/>
<feBlend mode="normal" in="SourceGraphic" in2="BackgroundImageFix" result="shape"/>
<feGaussianBlur stdDeviation="1.32705" result="effect1_foregroundBlur_415_3721"/>
</filter>
<filter id="filter28_f_415_3721" x="258.346" y="25.3459" width="60.3082" height="6.30821" filterUnits="userSpaceOnUse" color-interpolation-filters="sRGB">
<feFlood flood-opacity="0" result="BackgroundImageFix"/>
<feBlend mode="normal" in="SourceGraphic" in2="BackgroundImageFix" result="shape"/>
<feGaussianBlur stdDeviation="1.32705" result="effect1_foregroundBlur_415_3721"/>
</filter>
<filter id="filter29_f_415_3721" x="58.3459" y="25.3459" width="77.3082" height="6.30821" filterUnits="userSpaceOnUse" color-interpolation-filters="sRGB">
<feFlood flood-opacity="0" result="BackgroundImageFix"/>
<feBlend mode="normal" in="SourceGraphic" in2="BackgroundImageFix" result="shape"/>
<feGaussianBlur stdDeviation="1.32705" result="effect1_foregroundBlur_415_3721"/>
</filter>
<filter id="filter30_f_415_3721" x="312.346" y="24.3459" width="6.30821" height="57.3082" filterUnits="userSpaceOnUse" color-interpolation-filters="sRGB">
<feFlood flood-opacity="0" result="BackgroundImageFix"/>
<feBlend mode="normal" in="SourceGraphic" in2="BackgroundImageFix" result="shape"/>
<feGaussianBlur stdDeviation="1.32705" result="effect1_foregroundBlur_415_3721"/>
</filter>
<filter id="filter31_f_415_3721" x="536.346" y="252.268" width="60.3082" height="6.30821" filterUnits="userSpaceOnUse" color-interpolation-filters="sRGB">
<feFlood flood-opacity="0" result="BackgroundImageFix"/>
<feBlend mode="normal" in="SourceGraphic" in2="BackgroundImageFix" result="shape"/>
<feGaussianBlur stdDeviation="1.32705" result="effect1_foregroundBlur_415_3721"/>
</filter>
<filter id="filter32_f_415_3721" x="590.346" y="178.346" width="6.30821" height="81.3082" filterUnits="userSpaceOnUse" color-interpolation-filters="sRGB">
<feFlood flood-opacity="0" result="BackgroundImageFix"/>
<feBlend mode="normal" in="SourceGraphic" in2="BackgroundImageFix" result="shape"/>
<feGaussianBlur stdDeviation="1.32705" result="effect1_foregroundBlur_415_3721"/>
</filter>
<filter id="filter33_f_415_3721" x="232.346" y="134.053" width="31.8131" height="6.21055" filterUnits="userSpaceOnUse" color-interpolation-filters="sRGB">
<feFlood flood-opacity="0" result="BackgroundImageFix"/>
<feBlend mode="normal" in="SourceGraphic" in2="BackgroundImageFix" result="shape"/>
<feGaussianBlur stdDeviation="1.32705" result="effect1_foregroundBlur_415_3721"/>
</filter>
<filter id="filter34_f_415_3721" x="367.346" y="134.053" width="31.8131" height="6.21055" filterUnits="userSpaceOnUse" color-interpolation-filters="sRGB">
<feFlood flood-opacity="0" result="BackgroundImageFix"/>
<feBlend mode="normal" in="SourceGraphic" in2="BackgroundImageFix" result="shape"/>
<feGaussianBlur stdDeviation="1.32705" result="effect1_foregroundBlur_415_3721"/>
</filter>
<filter id="filter35_f_415_3721" x="411.956" y="252.053" width="31.8131" height="6.21055" filterUnits="userSpaceOnUse" color-interpolation-filters="sRGB">
<feFlood flood-opacity="0" result="BackgroundImageFix"/>
<feBlend mode="normal" in="SourceGraphic" in2="BackgroundImageFix" result="shape"/>
<feGaussianBlur stdDeviation="1.32705" result="effect1_foregroundBlur_415_3721"/>
</filter>
<filter id="filter36_f_415_3721" x="505.346" y="134.053" width="31.8131" height="6.21055" filterUnits="userSpaceOnUse" color-interpolation-filters="sRGB">
<feFlood flood-opacity="0" result="BackgroundImageFix"/>
<feBlend mode="normal" in="SourceGraphic" in2="BackgroundImageFix" result="shape"/>
<feGaussianBlur stdDeviation="1.32705" result="effect1_foregroundBlur_415_3721"/>
</filter>
<radialGradient id="paint0_radial_415_3721" cx="0" cy="0" r="1" gradientUnits="userSpaceOnUse" gradientTransform="translate(315.662 137.842) rotate(86.2627) scale(77.7988 86.1757)">
<stop offset="0.046875" stop-color="#4205F0"/>
<stop offset="1" stop-color="#4205F0" stop-opacity="0"/>
</radialGradient>
<radialGradient id="paint1_radial_415_3721" cx="0" cy="0" r="1" gradientUnits="userSpaceOnUse" gradientTransform="translate(316.132 114.116) rotate(87.1465) scale(64.4046 54.5337)">
<stop offset="0.046875" stop-color="#4205F0"/>
<stop offset="1" stop-color="#4205F0" stop-opacity="0"/>
</radialGradient>
<radialGradient id="paint2_radial_415_3721" cx="0" cy="0" r="1" gradientUnits="userSpaceOnUse" gradientTransform="translate(315.662 164.34) rotate(80.0257) scale(29.2778 85.0541)">
<stop offset="0.046875" stop-color="#4205F0"/>
<stop offset="1" stop-color="#4205F0" stop-opacity="0"/>
</radialGradient>
<radialGradient id="paint3_radial_415_3721" cx="0" cy="0" r="1" gradientUnits="userSpaceOnUse" gradientTransform="translate(315.662 54.5073) rotate(86.2627) scale(77.7988 86.1757)">
<stop offset="0.046875" stop-color="#4205F0"/>
<stop offset="1" stop-color="#4205F0" stop-opacity="0"/>
</radialGradient>
<radialGradient id="paint4_radial_415_3721" cx="0" cy="0" r="1" gradientUnits="userSpaceOnUse" gradientTransform="translate(591.662 137.842) rotate(86.2627) scale(77.7988 86.1757)">
<stop offset="0.046875" stop-color="#4205F0"/>
<stop offset="1" stop-color="#4205F0" stop-opacity="0"/>
</radialGradient>
<radialGradient id="paint5_radial_415_3721" cx="0" cy="0" r="1" gradientUnits="userSpaceOnUse" gradientTransform="translate(592.132 114.116) rotate(87.1465) scale(64.4046 54.5337)">
<stop offset="0.046875" stop-color="#4205F0"/>
<stop offset="1" stop-color="#4205F0" stop-opacity="0"/>
</radialGradient>
<radialGradient id="paint6_radial_415_3721" cx="0" cy="0" r="1" gradientUnits="userSpaceOnUse" gradientTransform="translate(591.662 164.34) rotate(80.0257) scale(29.2778 85.0541)">
<stop offset="0.046875" stop-color="#4205F0"/>
<stop offset="1" stop-color="#4205F0" stop-opacity="0"/>
</radialGradient>
<radialGradient id="paint7_radial_415_3721" cx="0" cy="0" r="1" gradientUnits="userSpaceOnUse" gradientTransform="translate(591.662 54.5073) rotate(86.2627) scale(77.7988 86.1757)">
<stop offset="0.046875" stop-color="#4205F0"/>
<stop offset="1" stop-color="#4205F0" stop-opacity="0"/>
</radialGradient>
<radialGradient id="paint8_radial_415_3721" cx="0" cy="0" r="1" gradientUnits="userSpaceOnUse" gradientTransform="translate(453.672 147.461) rotate(93.718) scale(77.2087 72.5037)">
<stop offset="0.046875" stop-color="#4200FD"/>
<stop offset="1" stop-color="#2C204E" stop-opacity="0"/>
</radialGradient>
<radialGradient id="paint9_radial_415_3721" cx="0" cy="0" r="1" gradientUnits="userSpaceOnUse" gradientTransform="translate(454.087 128.428) rotate(93.718) scale(87.8605 82.5063)">
<stop offset="0.046875" stop-color="#120B24"/>
<stop offset="1" stop-color="#100A23" stop-opacity="0"/>
</radialGradient>
<radialGradient id="paint10_radial_415_3721" cx="0" cy="0" r="1" gradientUnits="userSpaceOnUse" gradientTransform="translate(59.2625 164.186) rotate(81.6499) scale(23.9076 58.4987)">
<stop offset="0.046875" stop-color="#4205F0"/>
<stop offset="1" stop-color="#4205F0" stop-opacity="0"/>
</radialGradient>
<radialGradient id="paint11_radial_415_3721" cx="0" cy="0" r="1" gradientUnits="userSpaceOnUse" gradientTransform="translate(59.4613 133.336) rotate(87.4685) scale(35.3257 26.5456)">
<stop offset="0.046875" stop-color="#4205F0"/>
<stop offset="1" stop-color="#4205F0" stop-opacity="0"/>
</radialGradient>
<radialGradient id="paint12_radial_415_3721" cx="0" cy="0" r="1" gradientUnits="userSpaceOnUse" gradientTransform="translate(59.2625 154.711) rotate(81.6499) scale(23.9076 58.4987)">
<stop offset="0.046875" stop-color="#120B24"/>
<stop offset="1" stop-color="#100A23" stop-opacity="0"/>
</radialGradient>
<radialGradient id="paint13_radial_415_3721" cx="0" cy="0" r="1" gradientUnits="userSpaceOnUse" gradientTransform="translate(59.4613 123.862) rotate(87.4685) scale(35.3257 26.5456)">
<stop offset="0.046875" stop-color="#120B24"/>
<stop offset="1" stop-color="#100A23" stop-opacity="0"/>
</radialGradient>
<radialGradient id="paint14_radial_415_3721" cx="0" cy="0" r="1" gradientUnits="userSpaceOnUse" gradientTransform="translate(371.263 280.041) rotate(81.6499) scale(23.9076 58.4987)">
<stop offset="0.046875" stop-color="#4205F0"/>
<stop offset="1" stop-color="#4205F0" stop-opacity="0"/>
</radialGradient>
<radialGradient id="paint15_radial_415_3721" cx="0" cy="0" r="1" gradientUnits="userSpaceOnUse" gradientTransform="translate(371.462 249.192) rotate(87.4685) scale(35.3257 26.5456)">
<stop offset="0.046875" stop-color="#4205F0"/>
<stop offset="1" stop-color="#4205F0" stop-opacity="0"/>
</radialGradient>
<radialGradient id="paint16_radial_415_3721" cx="0" cy="0" r="1" gradientUnits="userSpaceOnUse" gradientTransform="translate(371.262 270.567) rotate(81.6499) scale(23.9076 58.4987)">
<stop offset="0.046875" stop-color="#120B24"/>
<stop offset="1" stop-color="#100A23" stop-opacity="0"/>
</radialGradient>
<radialGradient id="paint17_radial_415_3721" cx="0" cy="0" r="1" gradientUnits="userSpaceOnUse" gradientTransform="translate(371.462 239.717) rotate(87.4685) scale(35.3257 26.5456)">
<stop offset="0.046875" stop-color="#120B24"/>
<stop offset="1" stop-color="#100A23" stop-opacity="0"/>
</radialGradient>
<linearGradient id="paint18_linear_415_3721" x1="138.542" y1="137.158" x2="131.497" y2="112.458" gradientUnits="userSpaceOnUse">
<stop offset="0.046875" stop-color="#4205F0"/>
<stop offset="0.615513" stop-color="#4205F0" stop-opacity="0"/>
</linearGradient>
<radialGradient id="paint19_radial_415_3721" cx="0" cy="0" r="1" gradientUnits="userSpaceOnUse" gradientTransform="translate(190.644 139.21) rotate(85.1822) scale(45.8103 65.2902)">
<stop offset="0.046875" stop-color="#120B24"/>
<stop offset="1" stop-color="#100A23" stop-opacity="0"/>
</radialGradient>
<radialGradient id="paint20_radial_415_3721" cx="0" cy="0" r="1" gradientUnits="userSpaceOnUse" gradientTransform="translate(190.411 27.2103) rotate(82.0488) scale(46.0915 107.535)">
<stop offset="0.046875" stop-color="#120B24"/>
<stop offset="1" stop-color="#100A23" stop-opacity="0"/>
</radialGradient>
<radialGradient id="paint21_radial_415_3721" cx="0" cy="0" r="1" gradientUnits="userSpaceOnUse" gradientTransform="translate(485.644 255.21) rotate(85.1822) scale(45.8103 65.2902)">
<stop offset="0.046875" stop-color="#120B24"/>
<stop offset="1" stop-color="#100A23" stop-opacity="0"/>
</radialGradient>
<linearGradient id="paint22_linear_415_3721" x1="41.9607" y1="0.451189" x2="34.9156" y2="-24.2485" gradientUnits="userSpaceOnUse">
<stop offset="0.046875" stop-color="#4205F0"/>
<stop offset="0.615513" stop-color="#4205F0" stop-opacity="0"/>
</linearGradient>
<linearGradient id="paint23_linear_415_3721" x1="280.406" y1="28.5" x2="266.617" y2="48.6747" gradientUnits="userSpaceOnUse">
<stop offset="0.046875" stop-color="#4205F0"/>
<stop offset="0.615513" stop-color="#4205F0" stop-opacity="0"/>
</linearGradient>
<linearGradient id="paint24_linear_415_3721" x1="86.4042" y1="28.5" x2="74.2611" y2="51.7588" gradientUnits="userSpaceOnUse">
<stop offset="0.046875" stop-color="#4205F0"/>
<stop offset="0.615513" stop-color="#4205F0" stop-opacity="0"/>
</linearGradient>
<linearGradient id="paint25_linear_415_3721" x1="46.5" y1="0.499998" x2="38.6928" y2="-26.8717" gradientUnits="userSpaceOnUse">
<stop offset="0.046875" stop-color="#4205F0"/>
<stop offset="0.615513" stop-color="#4205F0" stop-opacity="0"/>
</linearGradient>
<linearGradient id="paint26_linear_415_3721" x1="558.406" y1="255.422" x2="544.617" y2="235.247" gradientUnits="userSpaceOnUse">
<stop offset="0.046875" stop-color="#4205F0"/>
<stop offset="0.615513" stop-color="#4205F0" stop-opacity="0"/>
</linearGradient>
<linearGradient id="paint27_linear_415_3721" x1="660.962" y1="257.5" x2="655.397" y2="228.987" gradientUnits="userSpaceOnUse">
<stop offset="0.046875" stop-color="#4205F0"/>
<stop offset="0.615513" stop-color="#4205F0" stop-opacity="0"/>
</linearGradient>
<linearGradient id="paint28_linear_415_3721" x1="258.701" y1="137.158" x2="247.955" y2="115.876" gradientUnits="userSpaceOnUse">
<stop offset="0.046875" stop-color="#4205F0"/>
<stop offset="0.615513" stop-color="#4205F0" stop-opacity="0"/>
</linearGradient>
<linearGradient id="paint29_linear_415_3721" x1="393.701" y1="137.158" x2="382.955" y2="115.876" gradientUnits="userSpaceOnUse">
<stop offset="0.046875" stop-color="#4205F0"/>
<stop offset="0.615513" stop-color="#4205F0" stop-opacity="0"/>
</linearGradient>
<linearGradient id="paint30_linear_415_3721" x1="23.7015" y1="0.451189" x2="12.9546" y2="-20.8312" gradientUnits="userSpaceOnUse">
<stop offset="0.046875" stop-color="#4205F0"/>
<stop offset="0.615513" stop-color="#4205F0" stop-opacity="0"/>
</linearGradient>
<linearGradient id="paint31_linear_415_3721" x1="531.701" y1="137.158" x2="520.955" y2="115.876" gradientUnits="userSpaceOnUse">
<stop offset="0.046875" stop-color="#4205F0"/>
<stop offset="0.615513" stop-color="#4205F0" stop-opacity="0"/>
</linearGradient>
</defs>
</svg>
