<svg id="Capa_1" enable-background="new 0 0 512 512" height="512" viewBox="0 0 512 512" width="512" xmlns="http://www.w3.org/2000/svg"><g><path d="m470 115v-50c0-35.841-29.159-65-65-65h-340c-35.841 0-65 29.159-65 65v432c0 8.284 6.716 15 15 15h340c8.284 0 15-6.716 15-15v-367h85c8.284 0 15-6.716 15-15zm-130 367h-310v-417c0-19.299 15.701-35 35-35h285.271c-6.489 10.112-10.271 22.119-10.271 35zm100-382h-70v-35c0-19.299 15.701-35 35-35s35 15.701 35 35z"/><path d="m295 60h-220c-8.284 0-15 6.716-15 15v220c0 8.284 6.716 15 15 15h220c8.284 0 15-6.716 15-15v-220c0-8.284-6.716-15-15-15zm-15 220h-190v-190h190z"/><path d="m136.826 237.577c2.471 1.605 5.315 2.423 8.175 2.423 2.068 0 4.144-.428 6.091-1.293l90-40c5.417-2.407 8.908-7.779 8.908-13.707s-3.491-11.3-8.908-13.707l-90-40c-4.64-2.064-10.008-1.637-14.266 1.13s-6.826 7.5-6.826 12.577v80c0 5.077 2.568 9.811 6.826 12.577zm23.174-69.496 38.066 16.919-38.066 16.919z"/><path d="m295 360h-220c-8.284 0-15 6.716-15 15s6.716 15 15 15h220c8.284 0 15-6.716 15-15s-6.716-15-15-15z"/><path d="m295 420h-220c-8.284 0-15 6.716-15 15s6.716 15 15 15h220c8.284 0 15-6.716 15-15s-6.716-15-15-15z"/><path d="m477 162h-20c-19.299 0-35 15.701-35 35v220c0 1.799.323 3.583.955 5.267l30 80c2.195 5.854 7.792 9.733 14.045 9.733s11.85-3.879 14.045-9.733l30-80c.632-1.684.955-3.468.955-5.267v-220c0-19.299-15.701-35-35-35zm-25 240v-150h30v150zm5-210h20c2.757 0 5 2.243 5 5v25h-30v-25c0-2.757 2.243-5 5-5zm1.645 240h16.71l-8.355 22.28z"/></g></svg>