<svg width="150" height="17" viewBox="0 0 150 17" fill="none" xmlns="http://www.w3.org/2000/svg">
<path d="M27.9627 9.47233H21.3917V13.9863H28.6363L28.3107 16.1691H18.8177V1.22839H28.2504V3.42678H21.3917V7.26706H27.9627V9.47233Z" fill="#F3F3F3"/>
<path d="M36.2463 3.43367H32.0873V1.22839H43.0706V3.43367H38.9047V16.1691H36.2463V3.43367Z" fill="#F3F3F3"/>
<path d="M47.2158 1.22839H49.8518V7.26016H55.8319V1.22839H58.4748V16.1691H55.8319V9.46544H49.8518V16.1691H47.2158V1.22839Z" fill="#F3F3F3"/>
<path d="M73.3018 9.47233H66.7308V13.9863H73.9755L73.6498 16.1691H64.1568V1.22839H73.5895V3.42678H66.7308V7.26706H73.3018V9.47233Z" fill="#F3F3F3"/>
<path d="M81.0186 9.78245V16.1674H78.4222V1.22839H84.2335C86.9918 1.22839 88.9507 2.59635 88.9507 5.20478C88.9507 7.28256 87.805 8.25598 86.5834 8.69704C88.0927 9.24491 88.6698 10.4371 88.6698 12.353V12.701C88.6698 14.0448 88.7302 15.3163 88.8714 16.1691H86.3147C86.1045 15.5523 86.0442 14.417 86.0442 12.6751V12.3133C86.0442 10.463 85.3723 9.78417 83.2462 9.78417H81.0169L81.0186 9.78245ZM81.0186 7.66676H83.4582C85.0777 7.66676 86.3216 7.22054 86.3216 5.41669C86.3216 3.96087 85.2982 3.34236 83.8854 3.34236H81.0203V7.66504L81.0186 7.66676Z" fill="#F3F3F3"/>
<path d="M93.9263 1.22839H96.5623V13.9845H103.411L103.102 16.1674H93.9263V1.22839Z" fill="#F3F3F3"/>
<path d="M114.003 0C116.573 5.29955 119.125 10.556 121.704 15.8694C121.154 15.6488 120.66 15.4507 120.166 15.2526C119.706 15.0682 119.249 14.877 118.786 14.703C118.608 14.6358 118.505 14.529 118.425 14.355C116.985 11.2297 115.538 8.10783 114.092 4.98599C114.068 4.93602 114.046 4.88606 114.003 4.79475C113.717 5.41326 113.445 5.99731 113.174 6.58309C111.972 9.18118 110.769 11.7775 109.572 14.3774C109.494 14.5462 109.387 14.6341 109.222 14.6995C108.309 15.0596 107.399 15.43 106.488 15.7953C106.443 15.8125 106.398 15.8263 106.31 15.8556C108.881 10.5578 111.432 5.29955 114.005 0L114.003 0Z" fill="#F3F3F3"/>
<path d="M124.586 1.22839H130.189C133.263 1.22839 134.791 2.83755 134.791 4.98942C134.791 6.90353 133.695 7.71845 132.863 8.04062C133.94 8.46617 135.294 9.51196 135.294 11.6845C135.294 14.5548 133.158 16.1691 130.057 16.1691H124.586V1.22839ZM129.698 7.20159C131.459 7.20159 132.219 6.57963 132.219 5.23924C132.219 3.89884 131.359 3.26138 129.85 3.26138H127.176V7.20159H129.697H129.698ZM127.178 14.1499H129.858C131.412 14.1499 132.608 13.4039 132.608 11.6966C132.608 10.1253 131.657 9.23113 129.647 9.23113H127.179V14.1499H127.178Z" fill="#F3F3F3"/>
<path d="M141.855 11.8223C142.096 13.3781 143.126 14.2809 144.78 14.2809C146.434 14.2809 147.308 13.4814 147.308 12.2169C147.308 10.7576 146.501 10.1511 144.184 9.46888C140.837 8.51269 139.649 7.33941 139.649 5.18582C139.649 2.55155 141.72 1.03198 144.542 1.03198C148 1.03198 149.466 2.90647 149.634 5.20822H147.037C146.837 3.96086 146.186 3.07875 144.508 3.07875C143.028 3.07875 142.296 3.77996 142.296 4.93256C142.296 6.14546 143.054 6.54345 145.268 7.19469C149.037 8.31111 150.001 9.79623 150.001 11.9102C150.001 14.3636 148.348 16.3517 144.661 16.3517C141.455 16.3517 139.438 14.7012 139.243 11.824H141.855V11.8223Z" fill="#F3F3F3"/>
<path d="M7.69311 0C10.2636 5.29955 12.8152 10.556 15.3943 15.8694C14.8447 15.6488 14.3503 15.4507 13.8558 15.2526C13.3958 15.0682 12.9392 14.877 12.4758 14.703C12.2983 14.6358 12.195 14.529 12.1157 14.355C10.6754 11.2297 9.22818 8.10783 7.7827 4.98599C7.75858 4.93602 7.73618 4.88606 7.69311 4.79475C7.40711 5.41326 7.1349 5.99731 6.86441 6.58309C5.66184 9.18118 4.45928 11.7775 3.26188 14.3774C3.18435 14.5462 3.07754 14.6341 2.91214 14.6995C1.99902 15.0596 1.08934 15.43 0.177944 15.7953C0.133149 15.8125 0.0883547 15.8263 0.000488281 15.8556C2.56929 10.5578 5.12086 5.29955 7.69311 0Z" fill="#4205F0"/>
</svg>
