<svg width="61" height="61" viewBox="0 0 61 61" fill="none" xmlns="http://www.w3.org/2000/svg">
<g filter="url(#filter0_d_38_342)">
<path d="M30.1156 10C32.7427 9.99924 35.3441 10.5169 37.771 11.5234C40.1979 12.5298 42.4026 14.0053 44.2588 15.8653C46.115 17.7254 47.5863 19.9334 48.5885 22.3631C49.5908 24.7928 50.1042 27.3964 50.0994 30.0249C50.0908 41.0634 41.1465 50.0028 30.1098 50.0019C19.0569 50.0009 10.1202 41.0424 10.1202 29.9751C10.1298 18.9394 19.077 10 30.1156 10ZM12.9904 29.9895C12.9665 39.4754 20.6623 47.1235 30.0907 47.1369C39.5794 47.1503 47.2159 39.4601 47.2379 30.0344C47.257 20.5427 39.5669 12.8611 30.1127 12.863C20.6747 12.8649 12.9693 20.5293 12.9904 29.9895Z" fill="#2605F0"/>
</g>
<path d="M12.9904 29.9895C12.9703 20.5303 20.6757 12.865 30.1156 12.863C39.5717 12.863 47.2618 20.5427 47.2408 30.0345C47.2226 39.4601 39.5871 47.1504 30.0936 47.137C20.6613 47.1226 12.9655 39.4754 12.9904 29.9895ZM41.9788 30.022C41.9788 27.8539 41.9731 25.6849 41.9855 23.513C41.9855 23.2076 41.91 23.0344 41.6229 22.8755C40.7131 22.3844 39.8243 21.8541 38.9288 21.3363C36.051 19.6746 33.1726 18.009 30.2935 16.3396C30.2242 16.2896 30.1413 16.2619 30.0558 16.2602C29.9704 16.2585 29.8865 16.2829 29.8152 16.3301C28.9627 16.8278 28.1074 17.3189 27.2541 17.8137C24.3504 19.4984 21.4516 21.1927 18.5365 22.8573C18.1758 23.064 18.0667 23.2804 18.0677 23.6776C18.082 27.6979 18.0763 31.7125 18.0763 35.7299C18.0763 36.9331 18.0849 36.9187 19.1182 37.5132C22.6083 39.5195 26.0932 41.5344 29.5731 43.5579C29.9204 43.7599 30.1902 43.7772 30.5298 43.5694C31.4684 42.9999 32.4222 42.4552 33.3722 41.9058C36.0587 40.3522 38.7413 38.7929 41.4383 37.2585C41.8478 37.025 41.998 36.7665 41.9913 36.287C41.9597 34.1993 41.9788 32.1116 41.9788 30.022Z" fill="#3929E8"/>
<path d="M41.9788 30.022C41.9788 32.1106 41.9616 34.1993 41.9922 36.2869C41.9989 36.7656 41.8487 37.025 41.4392 37.2585C38.7422 38.7901 36.0596 40.3522 33.3732 41.9058C32.4231 42.4552 31.4693 42.9999 30.5308 43.5694C30.1892 43.7771 29.9194 43.7609 29.574 43.5579C26.0929 41.5318 22.606 39.5169 19.1133 37.5131C18.0801 36.9187 18.0715 36.9331 18.0715 35.7298C18.0715 31.7096 18.0772 27.695 18.0629 23.6776C18.0629 23.2804 18.171 23.064 18.5317 22.8573C21.4468 21.1927 24.3456 19.4984 27.2492 17.8137C28.1026 17.3188 28.9579 16.8278 29.8104 16.33C29.8816 16.2829 29.9656 16.2585 30.051 16.2602C30.1365 16.2619 30.2194 16.2896 30.2887 16.3396C33.164 18.0128 36.0417 19.6796 38.9221 21.3401C39.8176 21.8579 40.7064 22.3882 41.6162 22.8793C41.9032 23.0343 41.9797 23.2114 41.9788 23.5168C41.9711 25.6849 41.9788 27.8539 41.9788 30.022ZM30.0639 26.9589C31.8472 26.9589 33.6305 26.9522 35.4129 26.9647C35.741 26.9647 35.8654 26.9206 35.7697 26.5473C35.4272 25.2072 35.1105 23.8595 34.7977 22.5108C34.7355 22.2408 34.6064 22.169 34.3375 22.17C31.4559 22.1796 28.5746 22.1796 25.6936 22.17C25.42 22.17 25.3004 22.2475 25.242 22.5194C24.955 23.8729 24.6556 25.2254 24.3303 26.5712C24.2423 26.9321 24.3686 26.9647 24.6671 26.9637C26.4647 26.9522 28.2633 26.957 30.062 26.957L30.0639 26.9589ZM27.0024 32.1652C27.0024 31.5373 26.99 31.1065 27.0024 30.6767C27.0127 30.5752 26.9915 30.473 26.9417 30.3839C26.8919 30.2948 26.8159 30.2233 26.724 30.179C25.9631 29.7144 25.2095 29.238 24.4633 28.7499C24.2719 28.6216 24.138 28.6407 23.961 28.7738C23.0891 29.4343 22.2067 30.0874 21.3138 30.7332C21.1224 30.8739 21.0918 30.9897 21.2181 31.2022C22.5575 33.5174 23.8902 35.8364 25.2162 38.1593C25.3119 38.3316 25.4324 38.3852 25.6295 38.4062C26.5786 38.5077 27.4147 38.3584 28.027 37.5265C28.2126 37.2738 28.4853 37.0862 28.7187 36.8689C29.2928 36.3319 29.2928 35.7136 28.7187 35.168C28.5274 34.9823 28.3485 34.765 28.1304 34.6099C27.2081 33.9552 26.7173 33.1291 27.0043 32.1633L27.0024 32.1652ZM33.1005 31.9661C33.4038 33.1348 32.8757 33.9475 31.983 34.6166C31.7898 34.7822 31.6064 34.9589 31.4339 35.146C30.8206 35.7318 30.8331 36.3406 31.4693 36.9158C31.6817 37.1073 31.9237 37.2786 32.0959 37.5026C32.691 38.2741 33.466 38.501 34.4026 38.3842C34.6551 38.3526 34.7967 38.2818 34.9211 38.0635C36.2178 35.7796 37.5224 33.4999 38.835 31.2243C38.9632 31.0022 38.9671 30.8883 38.747 30.7275C37.8458 30.0715 36.9529 29.4014 36.0682 28.7173C35.8931 28.5833 35.7812 28.6015 35.6128 28.7173C35.0713 29.082 34.5413 29.4735 33.9625 29.7702C33.2689 30.1244 32.9445 30.6097 33.0919 31.3927C33.1126 31.5825 33.1161 31.7738 33.1024 31.9642L33.1005 31.9661ZM30.0572 27.6874C29.1961 27.6874 28.3351 27.7008 27.4741 27.6816C27.1268 27.673 27.0053 27.7448 27.1641 28.097C27.3076 28.4158 27.3918 28.7671 27.5468 29.0734C27.9773 29.9349 28.05 30.8251 27.8787 31.7603C27.8013 32.1824 27.7965 32.616 27.74 33.042C27.7104 33.2679 27.7659 33.355 28.0089 33.3531C29.3776 33.3448 30.7467 33.3448 32.116 33.3531C32.3322 33.3531 32.3887 33.2784 32.3571 33.0659C32.3055 32.7194 32.3016 32.3652 32.2385 32.0226C32.0385 30.9476 32.0854 29.909 32.5973 28.9164C32.7207 28.6781 32.7809 28.4072 32.8967 28.164C33.0641 27.8127 33.0326 27.6606 32.5829 27.6759C31.7467 27.7084 30.9029 27.6854 30.0591 27.6854L30.0572 27.6874Z" fill="#2605F0"/>
<path d="M30.0619 26.9571C28.2632 26.9571 26.4646 26.9523 24.665 26.9571C24.3665 26.9571 24.2403 26.9255 24.3283 26.5646C24.6536 25.2188 24.9492 23.8662 25.24 22.5127C25.2984 22.2409 25.418 22.1624 25.6916 22.1633C28.5726 22.1729 31.4539 22.1729 34.3355 22.1633C34.6053 22.1633 34.7335 22.2342 34.7957 22.5041C35.1085 23.8528 35.4252 25.1996 35.7677 26.5407C35.8634 26.914 35.739 26.9609 35.4108 26.958C33.6285 26.9504 31.8452 26.9571 30.0619 26.9571Z" fill="#FBFBFC"/>
<path d="M27.0044 32.1633C26.7174 33.1291 27.2082 33.9552 28.1285 34.6099C28.3467 34.765 28.5208 34.9823 28.7169 35.168C29.2909 35.7136 29.2957 36.3319 28.7169 36.8689C28.4835 37.0862 28.2108 37.2738 28.0252 37.5265C27.4129 38.3584 26.5767 38.5077 25.6277 38.4062C25.4306 38.3852 25.3129 38.3316 25.2144 38.1593C23.8896 35.8371 22.5576 33.5181 21.2182 31.2022C21.0948 30.9897 21.1225 30.8739 21.3139 30.7332C22.203 30.0874 23.086 29.4336 23.963 28.7719C24.14 28.6388 24.2701 28.6197 24.4653 28.7479C25.2109 29.2361 25.9644 29.7125 26.726 30.1771C26.8179 30.2214 26.8939 30.2929 26.9437 30.382C26.9935 30.471 27.0147 30.5733 27.0044 30.6748C26.9919 31.1046 27.0044 31.5373 27.0044 32.1633Z" fill="#FBFBFC"/>
<path d="M33.1024 31.9642C33.1182 31.773 33.1166 31.5808 33.0977 31.3899C32.9503 30.6069 33.2746 30.1215 33.9683 29.7674C34.5471 29.4716 35.0771 29.0801 35.6186 28.7144C35.787 28.6005 35.8989 28.5824 36.074 28.7144C36.9574 29.3941 37.8503 30.0641 38.7528 30.7246C38.9728 30.8854 38.969 30.9993 38.8408 31.2214C37.5269 33.4957 36.2223 35.7755 34.9269 38.0607C34.8025 38.2789 34.6609 38.3478 34.4084 38.3813C33.4717 38.4981 32.6968 38.2713 32.1017 37.4997C31.9295 37.2758 31.6875 37.1044 31.4751 36.913C30.8389 36.3386 30.8264 35.7289 31.4397 35.1431C31.6122 34.956 31.7956 34.7793 31.9888 34.6137C32.8776 33.9456 33.4057 33.1329 33.1024 31.9642Z" fill="#FBFBFC"/>
<path d="M30.059 27.6854C30.9028 27.6854 31.7467 27.7075 32.5895 27.6768C33.0392 27.6615 33.0679 27.8137 32.9033 28.165C32.7876 28.4081 32.7273 28.679 32.6039 28.9174C32.092 29.91 32.0452 30.9486 32.2451 32.0235C32.3083 32.3662 32.3121 32.7204 32.3637 33.0669C32.3953 33.2756 32.3389 33.3541 32.1227 33.3541C30.7533 33.3483 29.3842 33.3483 28.0155 33.3541C27.7725 33.3541 27.717 33.2689 27.7466 33.043C27.8031 32.617 27.8079 32.1815 27.8854 31.7613C28.0566 30.8261 27.981 29.9349 27.5534 29.0744C27.3974 28.7633 27.3133 28.4168 27.1707 28.098C27.0119 27.7457 27.1334 27.674 27.4807 27.6826C28.3389 27.6988 29.1989 27.6854 30.059 27.6854Z" fill="#FBFBFC"/>
<defs>
<filter id="filter0_d_38_342" x="0.120239" y="0" width="59.9791" height="60.0018" filterUnits="userSpaceOnUse" color-interpolation-filters="sRGB">
<feFlood flood-opacity="0" result="BackgroundImageFix"/>
<feColorMatrix in="SourceAlpha" type="matrix" values="0 0 0 0 0 0 0 0 0 0 0 0 0 0 0 0 0 0 127 0" result="hardAlpha"/>
<feOffset/>
<feGaussianBlur stdDeviation="5"/>
<feComposite in2="hardAlpha" operator="out"/>
<feColorMatrix type="matrix" values="0 0 0 0 0.25935 0 0 0 0 0.019618 0 0 0 0 0.941667 0 0 0 0.5 0"/>
<feBlend mode="normal" in2="BackgroundImageFix" result="effect1_dropShadow_38_342"/>
<feBlend mode="normal" in="SourceGraphic" in2="effect1_dropShadow_38_342" result="shape"/>
</filter>
</defs>
</svg>
