<svg width="61" height="60" viewBox="0 0 61 60" fill="none" xmlns="http://www.w3.org/2000/svg">
<g filter="url(#filter0_d_37_290)">
<path d="M10.7949 29.9818C10.7997 18.9445 19.7409 10 30.7778 10C41.8358 10 50.7808 18.9503 50.774 30.0163C50.7673 41.0823 41.7994 50.0249 30.7433 50C19.7083 49.977 10.7949 41.0277 10.7949 29.9818ZM30.7749 47.1318C40.258 47.1538 47.9009 39.4529 47.9124 30.0211C47.9229 20.5538 40.2723 12.8845 30.8209 12.8653C21.3694 12.8462 13.6834 20.5079 13.6594 29.954C13.6374 39.4797 21.3416 47.1375 30.7749 47.1318Z" fill="#726D80"/>
</g>
<path d="M30.7749 47.1318C21.3416 47.1376 13.6374 39.4797 13.6575 29.9541C13.6776 20.5079 21.355 12.8491 30.8189 12.8654C40.2829 12.8817 47.921 20.5539 47.9105 30.0211C47.9009 39.4529 40.258 47.1538 30.7749 47.1318ZM37.6758 28.7507L37.7065 28.8005C37.7065 28.7909 37.7065 28.7765 37.7065 28.7727C37.6947 28.7664 37.6821 28.7616 37.6691 28.7584C37.6864 28.6511 37.6136 28.5803 37.561 28.5027C35.3909 25.3116 33.2207 22.1223 31.0506 18.935C30.8285 18.6066 30.7366 18.6124 30.5164 18.935C28.7749 21.5093 27.0085 24.0673 25.2679 26.6426C24.7988 27.3367 24.2598 27.9877 23.9046 28.7564L23.8615 28.788C23.8701 28.788 23.8835 28.788 23.8864 28.7823C23.8919 28.7715 23.8955 28.7598 23.8969 28.7478C24.0386 28.7804 24.1392 28.6827 24.2483 28.6262C26.3172 27.5406 28.3881 26.4578 30.4494 25.3559C30.5596 25.2844 30.6881 25.2464 30.8194 25.2464C30.9508 25.2464 31.0793 25.2844 31.1895 25.3559C33.2297 26.4626 35.2804 27.5511 37.3283 28.6425C37.4346 28.7038 37.5322 28.8072 37.6758 28.7507ZM24.0712 29.9474C24.1267 30.0096 24.1506 30.0565 24.1889 30.0766C26.3259 31.214 28.4641 32.3507 30.6035 33.4867C30.8075 33.5958 30.9597 33.5336 31.1349 33.4379C33.1352 32.3529 35.1365 31.2679 37.1387 30.1829C37.2565 30.1188 37.4107 30.0919 37.4652 29.9397C37.4413 29.9129 37.4241 29.8813 37.3982 29.8679C35.2919 28.7354 33.1856 27.6086 31.0899 26.4674C30.8477 26.3363 30.6772 26.41 30.4743 26.5191C29.2402 27.1826 28.0013 27.8383 26.7653 28.4999C25.8692 28.9747 24.9778 29.4582 24.0712 29.9474ZM37.7103 31.2187C37.5303 31.1383 37.4566 31.2187 37.38 31.2637C35.3005 32.3768 33.2233 33.4937 31.1483 34.6145C30.9444 34.7246 30.7883 34.7839 30.5442 34.6518C28.5959 33.5987 26.6361 32.5667 24.6801 31.528L23.9467 31.1374L23.8701 31.2274L30.8161 41.4385L37.7103 31.2187Z" fill="#898A9A"/>
<path d="M24.0712 29.9473C24.9778 29.4581 25.8692 28.9746 26.7624 28.496C27.9984 27.8344 29.2373 27.1786 30.4714 26.5152C30.6744 26.4061 30.8448 26.3323 31.087 26.4635C33.1856 27.6047 35.2919 28.7315 37.3953 29.864C37.4212 29.8774 37.4384 29.909 37.4624 29.9358C37.4078 30.088 37.2537 30.1148 37.1359 30.179C35.1362 31.264 33.1349 32.349 31.132 33.434C30.9568 33.5297 30.8046 33.5919 30.6007 33.4828C28.4657 32.3416 26.3275 31.2049 24.1861 30.0727C24.1507 30.0564 24.1267 30.0086 24.0712 29.9473Z" fill="#FCFCFD"/>
<path d="M37.7103 31.2187L30.817 41.4374L23.8701 31.2263L23.9467 31.1364L24.6801 31.527C26.636 32.5657 28.5959 33.5967 30.5442 34.6508C30.7883 34.7829 30.9444 34.7235 31.1483 34.6134C33.2227 33.4921 35.2999 32.3752 37.38 31.2627C37.4566 31.2225 37.5303 31.1383 37.7103 31.2187Z" fill="#FCFCFD"/>
<path d="M23.9027 28.7641C24.2579 27.9982 24.7969 27.3443 25.266 26.6502C27.0066 24.073 28.773 21.5131 30.5174 18.9388C30.7376 18.6123 30.8295 18.6066 31.0516 18.9388C33.2141 22.1331 35.3842 25.3224 37.5619 28.5065C37.6146 28.5841 37.6874 28.6549 37.6701 28.7621L37.6787 28.7545C37.5351 28.811 37.4375 28.7076 37.3293 28.6501C35.2785 27.5549 33.2278 26.4664 31.1876 25.3597C31.0774 25.2882 30.9489 25.2502 30.8175 25.2502C30.6862 25.2502 30.5577 25.2882 30.4475 25.3597C28.3862 26.4664 26.3154 27.5444 24.2464 28.63C24.1373 28.6865 24.0367 28.7842 23.895 28.7516L23.9027 28.7641Z" fill="#FCFCFD"/>
<defs>
<filter id="filter0_d_37_290" x="0.794899" y="0" width="59.9791" height="60" filterUnits="userSpaceOnUse" color-interpolation-filters="sRGB">
<feFlood flood-opacity="0" result="BackgroundImageFix"/>
<feColorMatrix in="SourceAlpha" type="matrix" values="0 0 0 0 0 0 0 0 0 0 0 0 0 0 0 0 0 0 127 0" result="hardAlpha"/>
<feOffset/>
<feGaussianBlur stdDeviation="5"/>
<feComposite in2="hardAlpha" operator="out"/>
<feColorMatrix type="matrix" values="0 0 0 0 0.4375 0 0 0 0 0.4375 0 0 0 0 0.4375 0 0 0 1 0"/>
<feBlend mode="normal" in2="BackgroundImageFix" result="effect1_dropShadow_37_290"/>
<feBlend mode="normal" in="SourceGraphic" in2="effect1_dropShadow_37_290" result="shape"/>
</filter>
</defs>
</svg>
