<svg width="61" height="60" viewBox="0 0 61 60" fill="none" xmlns="http://www.w3.org/2000/svg">
<g filter="url(#filter0_d_36_200)">
<path d="M30.9459 10C33.5734 9.99761 36.1756 10.5138 38.6034 11.5191C41.0313 12.5243 43.237 13.9988 45.0945 15.8582C46.9519 17.7176 48.4245 19.9253 49.428 22.3549C50.4314 24.7846 50.946 27.3884 50.9422 30.0172C50.9345 41.0563 41.9946 49.9971 30.9593 50C19.9049 50.0038 10.963 41.0468 10.963 29.9818C10.9678 18.9446 19.9097 10 30.9459 10ZM30.9641 12.8718C21.5238 12.8459 13.8582 20.5164 13.8247 29.9311C13.7912 39.4596 21.4931 47.1186 30.9163 47.1397C40.4188 47.1598 48.0777 39.4539 48.0786 30.0048C48.0786 20.5298 40.4073 12.8517 30.9641 12.8718Z" fill="#4205F0"/>
</g>
<path d="M30.9641 12.8718C40.4073 12.8555 48.0786 20.5366 48.0786 30.0067C48.0786 39.4568 40.4188 47.1627 30.9163 47.1416C21.4931 47.1206 13.7903 39.4615 13.8247 29.933C13.8582 20.5126 21.5237 12.8421 30.9641 12.8718ZM32.1122 32.5655C31.8252 32.7244 31.6032 32.8431 31.386 32.9656C29.7806 33.8664 29.7882 33.8664 29.8447 35.7014C29.8657 36.3715 30.1461 36.8434 30.7297 37.1756C32.1696 37.995 33.6124 38.8125 35.0236 39.6798C35.7814 40.145 36.4588 40.1345 37.2089 39.6798C38.6258 38.823 40.061 37.9941 41.5018 37.1766C42.0912 36.8434 42.3878 36.3639 42.3907 35.7053C42.399 33.9037 42.399 32.1021 42.3907 30.3006C42.3907 29.643 42.1113 29.1519 41.5239 28.8149C40.0887 27.9936 38.6411 27.179 37.2328 26.3069C36.4406 25.8168 35.7508 25.8493 34.97 26.3318C32.2337 28.0242 29.3711 29.5032 26.6386 31.2052C26.0837 31.5508 25.5278 31.5479 24.9719 31.2138C24.1931 30.7457 23.4239 30.2566 22.6355 29.8114C22.0442 29.4745 21.7907 28.9757 21.7926 28.3162C21.7926 27.4393 21.7993 26.5615 21.7926 25.6847C21.7859 25.0012 22.0547 24.4939 22.6623 24.1531C23.4417 23.7185 24.2138 23.2718 24.9786 22.8129C25.5268 22.4846 26.0636 22.4951 26.6051 22.8129C27.1131 23.1116 27.6154 23.4208 28.1216 23.7233C29.8016 24.7274 29.8016 24.7265 29.8016 26.7042C29.8016 27.5092 29.8016 27.5092 30.4848 27.1254C32.1811 26.1681 32.1763 26.1681 32.0653 24.2277C32.0309 23.6199 31.7706 23.1748 31.2416 22.8646C29.8064 22.0299 28.3713 21.2085 26.9639 20.3336C26.1899 19.855 25.5029 19.876 24.7385 20.3432C23.3033 21.2258 21.8395 22.0758 20.3699 22.9067C19.7872 23.236 19.5212 23.6965 19.5203 24.3426C19.5203 26.1116 19.5203 27.8813 19.5203 29.6516C19.5203 30.3111 19.8073 30.8003 20.3919 31.1344C21.7897 31.9308 23.2019 32.7081 24.5576 33.5715C25.4465 34.1382 26.2042 34.0731 27.0806 33.5495C29.7873 31.9308 32.5284 30.3695 35.2523 28.7785C35.4884 28.6273 35.7625 28.5459 36.0428 28.5439C36.3232 28.5418 36.5984 28.6192 36.8367 28.7671C37.6681 29.239 38.4909 29.7243 39.3166 30.2029C39.8151 30.4901 40.0485 30.9391 40.0495 31.5115C40.0495 32.4688 40.0495 33.426 40.0495 34.3833C40.0593 34.6566 39.993 34.9273 39.8578 35.165C39.7226 35.4027 39.5239 35.598 39.2841 35.7292C38.534 36.182 37.7705 36.6137 37.028 37.078C36.4023 37.4685 35.8053 37.4436 35.1863 37.0713C34.4496 36.6281 33.7071 36.1925 32.957 35.7713C32.3705 35.4411 32.0959 34.9548 32.1055 34.2847C32.117 33.7324 32.1074 33.1819 32.1074 32.5616L32.1122 32.5655Z" fill="#5C23FF"/>
<path d="M32.1074 32.5617C32.1074 33.182 32.116 33.7325 32.1074 34.2848C32.095 34.9549 32.3725 35.4412 32.959 35.7714C33.7091 36.1926 34.4515 36.6282 35.1882 37.0714C35.8072 37.4438 36.4042 37.4686 37.03 37.0781C37.7724 36.6138 38.5359 36.1821 39.286 35.7293C39.5259 35.5982 39.7245 35.4028 39.8597 35.1651C39.9949 34.9274 40.0613 34.6567 40.0514 34.3834C40.0514 33.4261 40.0514 32.4689 40.0514 31.5116C40.0514 30.9373 39.817 30.4941 39.3185 30.2031C38.4928 29.7244 37.67 29.2353 36.8386 28.7672C36.6003 28.6193 36.3251 28.542 36.0448 28.544C35.7644 28.546 35.4903 28.6274 35.2542 28.7787C32.5303 30.3696 29.7892 31.9309 27.0825 33.5496C26.2061 34.0733 25.4484 34.1383 24.5596 33.5717C23.2038 32.7101 21.7917 31.9309 20.3938 31.1345C19.8064 30.8004 19.5241 30.3112 19.5222 29.6517C19.5184 27.8814 19.5184 26.1117 19.5222 24.3427C19.5222 23.6985 19.7892 23.2381 20.3718 22.9068C21.8414 22.0759 23.3014 21.2259 24.7404 20.3433C25.5058 19.8762 26.1918 19.8513 26.9658 20.3337C28.3722 21.2087 29.8122 22.03 31.2435 22.8647C31.7726 23.173 32.0328 23.62 32.0673 24.2279C32.1782 26.1711 32.183 26.1711 30.4867 27.1255C29.8036 27.5084 29.8036 27.5084 29.8036 26.7043C29.8036 24.7266 29.8036 24.7275 28.1235 23.7234C27.6174 23.4209 27.1151 23.1117 26.607 22.813C26.0674 22.4952 25.5307 22.4847 24.9805 22.813C24.2151 23.2712 23.443 23.718 22.6642 24.1532C22.0567 24.4911 21.7878 24.9984 21.7945 25.6848C21.8031 26.5617 21.7945 27.4395 21.7945 28.3163C21.7945 28.9759 22.0462 29.4746 22.6374 29.8115C23.4258 30.2615 24.195 30.7458 24.9738 31.2139C25.5297 31.548 26.0856 31.5509 26.6405 31.2053C29.373 29.5033 32.2356 28.0243 34.972 26.3319C35.7527 25.8533 36.4425 25.8169 37.2347 26.307C38.6431 27.1791 40.0868 27.9937 41.5258 28.815C42.1132 29.1501 42.3869 29.6431 42.3926 30.3007C42.3971 32.1023 42.3971 33.9038 42.3926 35.7054C42.3926 36.364 42.0931 36.8436 41.5038 37.1767C40.0629 37.9942 38.6278 38.8232 37.2108 39.6799C36.4607 40.1337 35.7833 40.1442 35.0256 39.6799C33.6143 38.8126 32.1715 37.9951 30.7316 37.1757C30.148 36.8436 29.8705 36.3688 29.8466 35.7015C29.7902 33.8665 29.7825 33.8665 31.388 32.9657C31.5994 32.8393 31.8204 32.7206 32.1074 32.5617Z" fill="#FCFCFD"/>
<defs>
<filter id="filter0_d_36_200" x="0.963043" y="0" width="59.9792" height="60" filterUnits="userSpaceOnUse" color-interpolation-filters="sRGB">
<feFlood flood-opacity="0" result="BackgroundImageFix"/>
<feColorMatrix in="SourceAlpha" type="matrix" values="0 0 0 0 0 0 0 0 0 0 0 0 0 0 0 0 0 0 127 0" result="hardAlpha"/>
<feOffset/>
<feGaussianBlur stdDeviation="5"/>
<feComposite in2="hardAlpha" operator="out"/>
<feColorMatrix type="matrix" values="0 0 0 0 0.25935 0 0 0 0 0.019618 0 0 0 0 0.941667 0 0 0 0.5 0"/>
<feBlend mode="normal" in2="BackgroundImageFix" result="effect1_dropShadow_36_200"/>
<feBlend mode="normal" in="SourceGraphic" in2="effect1_dropShadow_36_200" result="shape"/>
</filter>
</defs>
</svg>
